<svg width="12" height="8" viewBox="0 0 12 8" fill="none" xmlns="http://www.w3.org/2000/svg">
<path d="M1.33317 0.666656H2.6665V1.33332H3.33317V1.99999H3.99984V2.66666H4.6665V3.33332H5.33317V3.99999H6.6665V3.33332H7.33317V2.66666H7.99984V1.99999H8.6665V1.33332H9.33317V0.666656H10.6665V1.33332H11.3332V2.66666H10.6665V3.33332H9.99984V3.99999H9.33317V4.66666H8.6665V5.33332H7.99984V5.99999H7.33317V6.66666H6.6665V7.33332H5.33317V6.66666H4.6665V5.99999H3.99984V5.33332H3.33317V4.66666H2.6665V3.99999H1.99984V3.33332H1.33317V2.66666H0.666504V1.33332H1.33317V0.666656Z" fill="#303030" fill-opacity="0.4"/>
</svg>
