<svg width="25" height="24" viewBox="0 0 25 24" fill="none" xmlns="http://www.w3.org/2000/svg">
<rect width="25" height="24" fill="#262626"/>
<g id="&#236;&#138;&#164;&#237;&#148;&#140;&#235;&#158;&#152;&#236;&#139;&#156;&#38;&#235;&#161;&#156;&#234;&#183;&#184;&#236;&#157;&#184;&#38;&#237;&#154;&#140;&#236;&#155;&#144;&#234;&#176;&#128;&#236;&#158;&#133;&#38;&#236;&#152;&#168;&#235;&#179;&#180;&#235;&#148;&#169;">
<path d="M-2108 -888C-2108 -889.105 -2107.1 -890 -2106 -890H4710C4711.1 -890 4712 -889.105 4712 -888V308C4712 309.105 4711.1 310 4710 310H-2106C-2107.1 310 -2108 309.105 -2108 308V-888Z" fill="#444444"/>
<path d="M-2106 -889H4710V-891H-2106V-889ZM4711 -888V308H4713V-888H4711ZM4710 309H-2106V311H4710V309ZM-2107 308V-888H-2109V308H-2107ZM-2106 309C-2106.55 309 -2107 308.552 -2107 308H-2109C-2109 309.657 -2107.66 311 -2106 311V309ZM4711 308C4711 308.552 4710.55 309 4710 309V311C4711.66 311 4713 309.657 4713 308H4711ZM4710 -889C4710.55 -889 4711 -888.552 4711 -888H4713C4713 -889.657 4711.66 -891 4710 -891V-889ZM-2106 -891C-2107.66 -891 -2109 -889.657 -2109 -888H-2107C-2107 -888.552 -2106.55 -889 -2106 -889V-891Z" fill="white" fill-opacity="0.1"/>
<g id="Layers" clip-path="url(#clip0_2846_2961)">
<rect width="360" height="800" transform="translate(-108 -590)" fill="white"/>
<g id="Frame 24">
<g id="button">
<g id="ButtonLarge" filter="url(#filter0_b_2846_2961)">
<rect x="-88" y="-16" width="320" height="56" rx="8" fill="black"/>
<g id="Text Area">
<g id="logo">
<path id="Vector" d="M19.3982 16.6924C19.1397 17.2793 18.8337 17.8196 18.4791 18.3163C17.9958 18.9935 17.6001 19.4622 17.2951 19.7225C16.8224 20.1498 16.3158 20.3686 15.7734 20.381C15.3841 20.381 14.9145 20.2721 14.3678 20.0513C13.8194 19.8314 13.3154 19.7225 12.8546 19.7225C12.3713 19.7225 11.853 19.8314 11.2985 20.0513C10.7433 20.2721 10.2959 20.3872 9.95393 20.3987C9.4338 20.4204 8.91535 20.1954 8.39785 19.7225C8.06756 19.4394 7.65443 18.9541 7.15951 18.2666C6.62851 17.5324 6.19195 16.681 5.84994 15.7104C5.48366 14.6619 5.30005 13.6467 5.30005 12.6638C5.30005 11.538 5.54761 10.5669 6.04348 9.75317C6.43318 9.09955 6.95163 8.58395 7.6005 8.20544C8.24938 7.82693 8.95049 7.63405 9.70552 7.62171C10.1187 7.62171 10.6604 7.74729 11.3337 7.9941C12.005 8.24174 12.4361 8.36732 12.6251 8.36732C12.7664 8.36732 13.2453 8.22048 14.0571 7.92773C14.8248 7.65624 15.4727 7.54383 16.0035 7.58811C17.4418 7.70218 18.5224 8.25937 19.241 9.26319C17.9547 10.0291 17.3183 11.1019 17.331 12.4781C17.3426 13.5501 17.7383 14.4421 18.5161 15.1504C18.8685 15.4791 19.2621 15.7332 19.7 15.9136C19.6051 16.1843 19.5048 16.4435 19.3982 16.6924ZM16.0995 3.93619C16.0995 4.77639 15.7872 5.56087 15.1646 6.28698C14.4132 7.15018 13.5044 7.64898 12.5189 7.57028C12.5064 7.46948 12.4991 7.36339 12.4991 7.25191C12.4991 6.44533 12.8564 5.58213 13.4909 4.87634C13.8077 4.51899 14.2106 4.22186 14.6992 3.98483C15.1867 3.75134 15.6479 3.62221 16.0816 3.6001C16.0942 3.71242 16.0995 3.82475 16.0995 3.93618V3.93619Z" fill="white"/>
</g>
</g>
</g>
</g>
</g>
</g>
</g>
<defs>
<filter id="filter0_b_2846_2961" x="-148" y="-76" width="440" height="176" filterUnits="userSpaceOnUse" color-interpolation-filters="sRGB">
<feFlood flood-opacity="0" result="BackgroundImageFix"/>
<feGaussianBlur in="BackgroundImageFix" stdDeviation="30"/>
<feComposite in2="SourceAlpha" operator="in" result="effect1_backgroundBlur_2846_2961"/>
<feBlend mode="normal" in="SourceGraphic" in2="effect1_backgroundBlur_2846_2961" result="shape"/>
</filter>
<clipPath id="clip0_2846_2961">
<rect width="360" height="800" fill="white" transform="translate(-108 -590)"/>
</clipPath>
</defs>
</svg>
