<svg width="252" height="60" viewBox="0 0 252 60" fill="none" xmlns="http://www.w3.org/2000/svg">
<g clip-path="url(#clip0_4252_14630)">
<path d="M19.9193 0H7.54199V60H19.9193V0Z" fill="#1A1A1A"/>
<path d="M30.6643 0H24.4756V60H30.6643V0Z" fill="#1A1A1A"/>
<path d="M64.4079 0H58.2192V60H64.4079V0Z" fill="#1A1A1A"/>
<path d="M37.5351 0H34.4355V60H37.5351V0Z" fill="#1A1A1A"/>
<path d="M3.0995 0H0V60H3.0995V0Z" fill="#1A1A1A"/>
<path d="M44.3847 0H41.2852V60H44.3847V0Z" fill="#1A1A1A"/>
<path d="M69.7904 0H66.6909V60H69.7904V0Z" fill="#1A1A1A"/>
<path d="M97.3969 0H85.0195V60H97.3969V0Z" fill="#1A1A1A"/>
<path d="M246.69 0H236.812V60H246.69V0Z" fill="#1A1A1A"/>
<path d="M108.142 0H101.953V60H108.142V0Z" fill="#1A1A1A"/>
<path d="M141.885 0H135.696V60H141.885V0Z" fill="#1A1A1A"/>
<path d="M115.012 0H111.913V60H115.012V0Z" fill="#1A1A1A"/>
<path d="M80.5766 0H77.4771V60H80.5766V0Z" fill="#1A1A1A"/>
<path d="M121.862 0H118.763V60H121.862V0Z" fill="#1A1A1A"/>
<path d="M147.268 0H144.168V60H147.268V0Z" fill="#1A1A1A"/>
<path d="M174.523 0H171.423V60H174.523V0Z" fill="#1A1A1A"/>
<path d="M208.958 0H202.77V60H208.958V0Z" fill="#1A1A1A"/>
<path d="M166.216 0H160.027V60H166.216V0Z" fill="#1A1A1A"/>
<path d="M182.085 0H178.986V60H182.085V0Z" fill="#1A1A1A"/>
<path d="M188.935 0H185.836V60H188.935V0Z" fill="#1A1A1A"/>
<path d="M214.341 0H211.242V60H214.341V0Z" fill="#1A1A1A"/>
<path d="M227.989 0H224.89V60H227.989V0Z" fill="#1A1A1A"/>
<path d="M252 0H248.9V60H252V0Z" fill="#1A1A1A"/>
</g>
<defs>
<clipPath id="clip0_4252_14630">
<rect width="252" height="60" fill="white"/>
</clipPath>
</defs>
</svg>
