<svg width="24" height="24" viewBox="0 0 24 24" fill="none" xmlns="http://www.w3.org/2000/svg">
<path fill-rule="evenodd" clip-rule="evenodd" d="M12 21.899C10.7295 23.1955 8.95869 24 7 24C3.13401 24 0 20.866 0 17C0 15.0413 0.804466 13.2705 2.10102 12C0.804466 10.7295 0 8.95868 0 7C0 3.134 3.13401 0 7 0C8.95869 0 10.7295 0.804474 12 2.10101C13.2705 0.804474 15.0413 0 17 0C20.866 0 24 3.134 24 7C24 8.95868 23.1955 10.7295 21.899 12C23.1955 13.2705 24 15.0413 24 17C24 20.866 20.866 24 17 24C15.0413 24 13.2705 23.1955 12 21.899Z" fill="#303030"/>
</svg>
