<svg width="52" height="52" viewBox="0 0 52 52" fill="none" xmlns="http://www.w3.org/2000/svg">
<g clip-path="url(#clip0_4252_13729)">
<path d="M47.2339 25.4159V24.992H48.8226V23.4033H50.4113V20.2259H52V7.94354H50.4113V4.76612H48.8226V3.17741H47.2339V1.58871H44.0565V0H31.7673V1.58871H28.5898V3.17741H27.0011V4.76612H24.992V3.17741H23.4033V1.58871H20.2259V0H7.94354V1.58871H4.76612V3.17741H3.17741V4.76612H1.58871V7.94354H0V20.2328H1.58871V23.4102H3.17741V24.9989H4.76612V27.008H3.17741V28.5967H1.58871V31.7741H0V44.0634H1.58871V47.2408H3.17741V48.8295H4.76612V50.4182H7.94354V52.0069H18.8543V50.4182H20.2328H23.4102V48.8295H24.9989V47.2408H27.008V48.8295H28.5967V50.4182H31.7741V52.0069H44.0634V50.4182H47.2408V48.8295H48.8295V47.2408H50.4182V44.0634H52.0069V31.7741H50.4182V28.5967H48.8295V27.008H47.2408V25.4193L47.2339 25.4159Z" fill="black"/>
<path d="M9.32259 45.8591H7.73389V47.4478H9.32259V45.8591Z" fill="#111111"/>
<path d="M7.73373 45.8591H6.14502V47.4478H7.73373V45.8591Z" fill="#111111"/>
<path d="M6.1416 45.859V44.2703H4.55289V45.859H6.1416Z" fill="#181919"/>
<path d="M6.14502 44.2701V42.6814H4.55631V44.2701H6.14502Z" fill="#181919"/>
<path d="M4.55664 36.3267V34.738H2.96793V36.3267H4.55664Z" fill="#181919"/>
<path d="M4.55664 37.9154V36.3267H2.96794V37.9154H4.55664Z" fill="#181919"/>
<path d="M4.55664 39.5042V37.9155H2.96793V39.5042H4.55664Z" fill="#181919"/>
<path d="M4.55664 41.0929V39.5042H2.96793V41.0929H4.55664Z" fill="#181919"/>
<path d="M4.55664 42.6815V41.0928H2.96793V42.6815H4.55664Z" fill="#181919"/>
<path d="M4.55664 34.7381V33.1494H2.96793V34.7381H4.55664Z" fill="#181919"/>
<path d="M4.55664 12.4996V10.9109H2.96793V12.4996H4.55664Z" fill="#181919"/>
<path d="M4.55664 14.0882V12.4995H2.96793V14.0882H4.55664Z" fill="#181919"/>
<path d="M4.55664 15.6768V14.0881H2.96793V15.6768H4.55664Z" fill="#181919"/>
<path d="M4.55664 17.2657V15.677H2.96793V17.2657H4.55664Z" fill="#181919"/>
<path d="M4.55664 18.8546V17.2659H2.96793V18.8546H4.55664Z" fill="#181919"/>
<path d="M4.55664 10.911V9.32227H2.96793V10.911H4.55664Z" fill="#181919"/>
<path d="M6.14502 12.4996V10.9109H4.55631V12.4996H6.14502Z" fill="#181919"/>
<path d="M6.14502 14.0882V12.4995H4.55631V14.0882H6.14502Z" fill="#181919"/>
<path d="M6.14502 15.6768V14.0881H4.55631V15.6768H6.14502Z" fill="#181919"/>
<path d="M6.14502 17.2657V15.677H4.55631V17.2657H6.14502Z" fill="#181919"/>
<path d="M6.14502 18.8546V17.2659H4.55631V18.8546H6.14502Z" fill="#181919"/>
<path d="M6.14502 20.4395V18.8508H4.55631V20.4395H6.14502Z" fill="#181919"/>
<path d="M6.14502 22.0284V20.4397H4.55631V22.0284H6.14502Z" fill="#181919"/>
<path d="M6.14502 10.9144V9.32568H4.55631V10.9144H6.14502Z" fill="#181919"/>
<path d="M6.1416 9.32211V7.7334H4.55289V9.32211H6.1416Z" fill="#181919"/>
<path d="M6.14502 7.72982V6.14111H4.55631V7.72982H6.14502Z" fill="#181919"/>
<path d="M7.73047 6.14828V4.55957H6.14176V6.14828H7.73047Z" fill="#181919"/>
<path d="M9.31885 6.14828V4.55957H7.73014V6.14828H9.31885Z" fill="#181919"/>
<path d="M7.73389 12.503V10.9143H6.14518V12.503H7.73389Z" fill="#181919"/>
<path d="M7.73389 14.0882V12.4995H6.14518V14.0882H7.73389Z" fill="#181919"/>
<path d="M7.73389 15.6768V14.0881H6.14518V15.6768H7.73389Z" fill="#181919"/>
<path d="M7.73389 17.2657V15.677H6.14518V17.2657H7.73389Z" fill="#181919"/>
<path d="M7.73389 18.8546V17.2659H6.14518V18.8546H7.73389Z" fill="#181919"/>
<path d="M7.73389 10.9144V9.32568H6.14518V10.9144H7.73389Z" fill="#181919"/>
<path d="M9.32227 12.503V10.9143H7.73356V12.503H9.32227Z" fill="#2D2D2D"/>
<path d="M9.32227 14.0916V12.5029H7.73356V14.0916H9.32227Z" fill="#2D2D2D"/>
<path d="M9.32227 15.6768V14.0881H7.73356V15.6768H9.32227Z" fill="#2D2D2D"/>
<path d="M9.32227 17.2657V15.677H7.73356V17.2657H9.32227Z" fill="#2D2D2D"/>
<path d="M9.32227 18.8546V17.2659H7.73356V18.8546H9.32227Z" fill="#2D2D2D"/>
<path d="M9.32227 10.9144V9.32568H7.73356V10.9144H9.32227Z" fill="#2D2D2D"/>
<path d="M10.9111 12.503V10.9143H9.32243V12.503H10.9111Z" fill="#2D2D2D"/>
<path d="M10.9111 14.0916V12.5029H9.32243V14.0916H10.9111Z" fill="#515151"/>
<path d="M10.9111 15.6803V14.0916H9.32243V15.6803H10.9111Z" fill="#515151"/>
<path d="M10.9111 17.2657V15.677H9.32243V17.2657H10.9111Z" fill="#3D3D3D"/>
<path d="M10.9111 18.8546V17.2659H9.32243V18.8546H10.9111Z" fill="#515151"/>
<path d="M10.9111 10.911V9.32227H9.32243V10.911H10.9111Z" fill="#2D2D2D"/>
<path d="M12.4995 12.4996V10.9109H10.9108V12.4996H12.4995Z" fill="#3D3D3D"/>
<path d="M12.4995 14.0916V12.5029H10.9108V14.0916H12.4995Z" fill="#3D3D3D"/>
<path d="M12.4995 15.6803V14.0916H10.9108V15.6803H12.4995Z" fill="#3D3D3D"/>
<path d="M12.4995 17.2691V15.6804H10.9108V17.2691H12.4995Z" fill="#3D3D3D"/>
<path d="M12.4966 18.8546V17.2659H10.9079V18.8546H12.4966Z" fill="#3D3D3D"/>
<path d="M12.4995 10.9144V9.32568H10.9108V10.9144H12.4995Z" fill="#515151"/>
<path d="M14.0889 12.4996V10.9109H12.5002V12.4996H14.0889Z" fill="#3D3D3D"/>
<path d="M14.0889 14.0848V12.4961H12.5002V14.0848H14.0889Z" fill="#3D3D3D"/>
<path d="M14.0889 15.6768V14.0881H12.5002V15.6768H14.0889Z" fill="#3D3D3D"/>
<path d="M14.0854 17.2657V15.677H12.4967V17.2657H14.0854Z" fill="#3D3D3D"/>
<path d="M14.0854 18.8546V17.2659H12.4967V18.8546H14.0854Z" fill="#3D3D3D"/>
<path d="M14.0889 10.911V9.32227H12.5002V10.911H14.0889Z" fill="#3D3D3D"/>
<path d="M15.6772 12.4996V10.9109H14.0885V12.4996H15.6772Z" fill="#3D3D3D"/>
<path d="M15.6772 14.0882V12.4995H14.0885V14.0882H15.6772Z" fill="#3D3D3D"/>
<path d="M15.6738 15.6737V14.085H14.0851V15.6737H15.6738Z" fill="#3D3D3D"/>
<path d="M15.6738 17.2657V15.677H14.0851V17.2657H15.6738Z" fill="#3D3D3D"/>
<path d="M15.6738 18.8546V17.2659H14.0851V18.8546H15.6738Z" fill="#3D3D3D"/>
<path d="M15.6772 10.911V9.32227H14.0885V10.911H15.6772Z" fill="#3D3D3D"/>
<path d="M17.2661 12.4996V10.9109H15.6774V12.4996H17.2661Z" fill="#3D3D3D"/>
<path d="M17.2627 14.0882V12.4995H15.674V14.0882H17.2627Z" fill="#3D3D3D"/>
<path d="M17.2627 15.6768V14.0881H15.674V15.6768H17.2627Z" fill="#3D3D3D"/>
<path d="M17.2627 17.2623V15.6736H15.674V17.2623H17.2627Z" fill="#3D3D3D"/>
<path d="M17.2627 18.8546V17.2659H15.674V18.8546H17.2627Z" fill="#3D3D3D"/>
<path d="M17.2661 10.911V9.32227H15.6774V10.911H17.2661Z" fill="#3D3D3D"/>
<path d="M18.8511 12.4996V10.9109H17.2624V12.4996H18.8511Z" fill="#3D3D3D"/>
<path d="M18.8511 14.0882V12.4995H17.2624V14.0882H18.8511Z" fill="#3D3D3D"/>
<path d="M18.8511 15.6768V14.0881H17.2624V15.6768H18.8511Z" fill="#3D3D3D"/>
<path d="M18.8511 17.2657V15.677H17.2624V17.2657H18.8511Z" fill="#3D3D3D"/>
<path d="M18.8511 18.8509V17.2622H17.2624V18.8509H18.8511Z" fill="#3D3D3D"/>
<path d="M20.4399 18.8546V17.2659H18.8512V18.8546H20.4399Z" fill="#3D3D3D"/>
<path d="M18.855 10.911V9.32227H17.2663V10.911H18.855Z" fill="#3D3D3D"/>
<path d="M20.4399 12.4996V10.9109H18.8512V12.4996H20.4399Z" fill="#3D3D3D"/>
<path d="M20.4399 14.0882V12.4995H18.8512V14.0882H20.4399Z" fill="#3D3D3D"/>
<path d="M20.4399 15.6768V14.0881H18.8512V15.6768H20.4399Z" fill="#3D3D3D"/>
<path d="M20.4399 10.911V9.32227H18.8512V10.911H20.4399Z" fill="#3D3D3D"/>
<path d="M22.0288 12.4996V10.9109H20.4401V12.4996H22.0288Z" fill="#3D3D3D"/>
<path d="M22.0288 14.0882V12.4995H20.4401V14.0882H22.0288Z" fill="#3D3D3D"/>
<path d="M22.0288 15.6768V14.0881H20.4401V15.6768H22.0288Z" fill="#3D3D3D"/>
<path d="M22.0288 10.911V9.32227H20.4401V10.911H22.0288Z" fill="#3D3D3D"/>
<path d="M23.6172 12.4996V10.9109H22.0285V12.4996H23.6172Z" fill="#3D3D3D"/>
<path d="M23.6172 14.0882V12.4995H22.0285V14.0882H23.6172Z" fill="#3D3D3D"/>
<path d="M23.6172 15.6768V14.0881H22.0285V15.6768H23.6172Z" fill="#3D3D3D"/>
<path d="M23.6172 10.911V9.32227H22.0285V10.911H23.6172Z" fill="#3D3D3D"/>
<path d="M7.73047 9.32211V7.7334H6.14176V9.32211H7.73047Z" fill="#181919"/>
<path d="M9.31885 9.32211V7.7334H7.73014V9.32211H9.31885Z" fill="#2D2D2D"/>
<path d="M10.9082 9.32211V7.7334H9.3195V9.32211H10.9082Z" fill="#2D2D2D"/>
<path d="M12.4966 9.32211V7.7334H10.9079V9.32211H12.4966Z" fill="#2D2D2D"/>
<path d="M14.0854 9.31869V7.72998H12.4967V9.31869H14.0854Z" fill="#515151"/>
<path d="M15.6738 9.31869V7.72998H14.0851V9.31869H15.6738Z" fill="#515151"/>
<path d="M17.2627 9.31869V7.72998H15.674V9.31869H17.2627Z" fill="#515151"/>
<path d="M18.8511 9.31869V7.72998H17.2624V9.31869H18.8511Z" fill="#515151"/>
<path d="M20.4399 9.32211V7.7334H18.8512V9.32211H20.4399Z" fill="#3D3D3D"/>
<path d="M22.0288 9.3221V7.7334H20.4401V9.3221H22.0288Z" fill="#515151"/>
<path d="M23.6172 9.32211V7.7334H22.0285V9.32211H23.6172Z" fill="#3D3D3D"/>
<path d="M7.73389 7.73348V6.14478H6.14518V7.73348H7.73389Z" fill="#181919"/>
<path d="M9.32227 7.72982V6.14111H7.73356V7.72982H9.32227Z" fill="#181919"/>
<path d="M10.9111 7.72982V6.14111H9.32243V7.72982H10.9111Z" fill="#2D2D2D"/>
<path d="M12.4966 7.72982V6.14111H10.9079V7.72982H12.4966Z" fill="#2D2D2D"/>
<path d="M14.0854 7.72982V6.14111H12.4967V7.72982H14.0854Z" fill="#2D2D2D"/>
<path d="M15.6738 7.72982V6.14111H14.0851V7.72982H15.6738Z" fill="#2D2D2D"/>
<path d="M17.2627 7.72982V6.14111H15.674V7.72982H17.2627Z" fill="#2D2D2D"/>
<path d="M18.8511 7.72982V6.14111H17.2624V7.72982H18.8511Z" fill="#2D2D2D"/>
<path d="M20.4399 7.72982V6.14111H18.8512V7.72982H20.4399Z" fill="#2D2D2D"/>
<path d="M22.0288 7.72982V6.14111H20.4401V7.72982H22.0288Z" fill="#2D2D2D"/>
<path d="M10.9082 6.14828V4.55957H9.3195V6.14828H10.9082Z" fill="#181919"/>
<path d="M12.4966 6.14828V4.55957H10.9079V6.14828H12.4966Z" fill="#181919"/>
<path d="M14.0854 6.14486V4.55615H12.4967V6.14486H14.0854Z" fill="#181919"/>
<path d="M15.6738 6.14486V4.55615H14.0851V6.14486H15.6738Z" fill="#181919"/>
<path d="M17.2627 6.14486V4.55615H15.674V6.14486H17.2627Z" fill="#181919"/>
<path d="M18.8511 6.14486V4.55615H17.2624V6.14486H18.8511Z" fill="#181919"/>
<path d="M10.9082 4.55599V2.96729H9.3195V4.55599H10.9082Z" fill="#181919"/>
<path d="M12.4966 4.55599V2.96729H10.9079V4.55599H12.4966Z" fill="#181919"/>
<path d="M14.0854 4.55257V2.96387H12.4967V4.55257H14.0854Z" fill="#181919"/>
<path d="M15.6738 4.55599V2.96729H14.0851V4.55599H15.6738Z" fill="#181919"/>
<path d="M17.2627 4.55599V2.96729H15.674V4.55599H17.2627Z" fill="#181919"/>
<path d="M18.8511 4.55599V2.96729H17.2624V4.55599H18.8511Z" fill="#181919"/>
<path d="M20.4399 6.14486V4.55615H18.8512V6.14486H20.4399Z" fill="#181919"/>
<path d="M22.0288 6.14486V4.55615H20.4401V6.14486H22.0288Z" fill="#181919"/>
<path d="M23.6172 7.72982V6.14111H22.0285V7.72982H23.6172Z" fill="#3D3D3D"/>
<path d="M25.2061 12.4996V10.9109H23.6173V12.4996H25.2061Z" fill="#3D3D3D"/>
<path d="M25.2061 14.0882V12.4995H23.6173V14.0882H25.2061Z" fill="#3D3D3D"/>
<path d="M25.2061 15.6768V14.0881H23.6173V15.6768H25.2061Z" fill="#3D3D3D"/>
<path d="M20.4399 17.2657V15.677H18.8512V17.2657H20.4399Z" fill="#3D3D3D"/>
<path d="M22.0288 17.2657V15.677H20.4401V17.2657H22.0288Z" fill="#3D3D3D"/>
<path d="M23.6172 17.2657V15.677H22.0285V17.2657H23.6172Z" fill="#3D3D3D"/>
<path d="M25.2061 17.2657V15.677H23.6173V17.2657H25.2061Z" fill="#3D3D3D"/>
<path d="M26.7944 15.6768V14.0881H25.2057V15.6768H26.7944Z" fill="#3D3D3D"/>
<path d="M28.3838 15.6768V14.0881H26.7951V15.6768H28.3838Z" fill="#3D3D3D"/>
<path d="M26.7944 17.2657V15.677H25.2057V17.2657H26.7944Z" fill="#3D3D3D"/>
<path d="M28.3838 17.2657V15.677H26.7951V17.2657H28.3838Z" fill="#3D3D3D"/>
<path d="M22.0288 18.8509V17.2622H20.4401V18.8509H22.0288Z" fill="#3D3D3D"/>
<path d="M23.6172 18.8509V17.2622H22.0285V18.8509H23.6172Z" fill="#3D3D3D"/>
<path d="M25.2061 18.8509V17.2622H23.6173V18.8509H25.2061Z" fill="#3D3D3D"/>
<path d="M26.7944 18.8509V17.2622H25.2057V18.8509H26.7944Z" fill="#3D3D3D"/>
<path d="M28.3838 18.8509V17.2622H26.7951V18.8509H28.3838Z" fill="#3D3D3D"/>
<path d="M29.9722 15.6768V14.0881H28.3835V15.6768H29.9722Z" fill="#3D3D3D"/>
<path d="M29.9722 17.2657V15.677H28.3835V17.2657H29.9722Z" fill="#3D3D3D"/>
<path d="M7.73389 20.4432V18.8545H6.14518V20.4432H7.73389Z" fill="#181919"/>
<path d="M7.73389 22.0318V20.4431H6.14518V22.0318H7.73389Z" fill="#3D3D3D"/>
<path d="M9.32227 20.4432V18.8545H7.73356V20.4432H9.32227Z" fill="#2D2D2D"/>
<path d="M9.31885 22.0318V20.4431H7.73014V22.0318H9.31885Z" fill="#3D3D3D"/>
<path d="M10.9082 20.4432V18.8545H9.3195V20.4432H10.9082Z" fill="#3D3D3D"/>
<path d="M10.9082 22.0318V20.4431H9.3195V22.0318H10.9082Z" fill="#3D3D3D"/>
<path d="M12.4966 20.4432V18.8545H10.9079V20.4432H12.4966Z" fill="#3D3D3D"/>
<path d="M12.4966 22.0318V20.4431H10.9079V22.0318H12.4966Z" fill="#3D3D3D"/>
<path d="M14.0854 20.4395V18.8508H12.4967V20.4395H14.0854Z" fill="#3D3D3D"/>
<path d="M14.0854 22.0284V20.4397H12.4967V22.0284H14.0854Z" fill="#3D3D3D"/>
<path d="M7.73389 23.617V22.0283H6.14518V23.617H7.73389Z" fill="#181919"/>
<path d="M9.32227 23.617V22.0283H7.73356V23.617H9.32227Z" fill="#3D3D3D"/>
<path d="M10.9111 23.617V22.0283H9.32243V23.617H10.9111Z" fill="#3D3D3D"/>
<path d="M12.4966 23.617V22.0283H10.9079V23.617H12.4966Z" fill="#3D3D3D"/>
<path d="M14.0854 23.617V22.0283H12.4967V23.617H14.0854Z" fill="#3D3D3D"/>
<path d="M10.9082 25.2059V23.6172H9.3195V25.2059H10.9082Z" fill="#3D3D3D"/>
<path d="M12.4966 25.2059V23.6172H10.9079V25.2059H12.4966Z" fill="#3D3D3D"/>
<path d="M14.0854 25.2025V23.6138H12.4967V25.2025H14.0854Z" fill="#3D3D3D"/>
<path d="M15.6738 20.4432V18.8545H14.0851V20.4432H15.6738Z" fill="#3D3D3D"/>
<path d="M15.6738 22.0284V20.4397H14.0851V22.0284H15.6738Z" fill="#3D3D3D"/>
<path d="M17.2627 20.4432V18.8545H15.674V20.4432H17.2627Z" fill="#3D3D3D"/>
<path d="M17.2627 22.0318V20.4431H15.674V22.0318H17.2627Z" fill="#3D3D3D"/>
<path d="M18.8511 20.4432V18.8545H17.2624V20.4432H18.8511Z" fill="#3D3D3D"/>
<path d="M20.4399 20.4395V18.8508H18.8512V20.4395H20.4399Z" fill="#3D3D3D"/>
<path d="M22.0288 20.4432V18.8545H20.4401V20.4432H22.0288Z" fill="#3D3D3D"/>
<path d="M23.6172 20.4432V18.8545H22.0285V20.4432H23.6172Z" fill="#3D3D3D"/>
<path d="M18.8511 22.0318V20.4431H17.2624V22.0318H18.8511Z" fill="#3D3D3D"/>
<path d="M20.4399 22.0318V20.4431H18.8512V22.0318H20.4399Z" fill="#3D3D3D"/>
<path d="M22.0288 22.0284V20.4397H20.4401V22.0284H22.0288Z" fill="#3D3D3D"/>
<path d="M23.6172 22.0318V20.4431H22.0285V22.0318H23.6172Z" fill="#3D3D3D"/>
<path d="M25.2061 20.4432V18.8545H23.6173V20.4432H25.2061Z" fill="#3D3D3D"/>
<path d="M26.7944 20.4432V18.8545H25.2057V20.4432H26.7944Z" fill="#3D3D3D"/>
<path d="M25.2061 22.0318V20.4431H23.6173V22.0318H25.2061Z" fill="#3D3D3D"/>
<path d="M26.7944 22.0318V20.4431H25.2057V22.0318H26.7944Z" fill="#3D3D3D"/>
<path d="M28.3838 20.4432V18.8545H26.7951V20.4432H28.3838Z" fill="#3D3D3D"/>
<path d="M29.9722 18.8546V17.2659H28.3835V18.8546H29.9722Z" fill="#3D3D3D"/>
<path d="M31.561 18.8546V17.2659H29.9723V18.8546H31.561Z" fill="#3D3D3D"/>
<path d="M29.9722 20.4432V18.8545H28.3835V20.4432H29.9722Z" fill="#3D3D3D"/>
<path d="M31.5576 20.4432V18.8545H29.9689V20.4432H31.5576Z" fill="#3D3D3D"/>
<path d="M28.3838 22.0318V20.4431H26.7951V22.0318H28.3838Z" fill="#3D3D3D"/>
<path d="M15.6738 23.617V22.0283H14.0851V23.617H15.6738Z" fill="#3D3D3D"/>
<path d="M15.6738 25.2059V23.6172H14.0851V25.2059H15.6738Z" fill="#3D3D3D"/>
<path d="M17.2627 23.617V22.0283H15.674V23.617H17.2627Z" fill="#3D3D3D"/>
<path d="M17.2627 25.2059V23.6172H15.674V25.2059H17.2627Z" fill="#3D3D3D"/>
<path d="M18.8511 23.617V22.0283H17.2624V23.617H18.8511Z" fill="#3D3D3D"/>
<path d="M18.8511 25.2059V23.6172H17.2624V25.2059H18.8511Z" fill="#3D3D3D"/>
<path d="M20.4399 23.617V22.0283H18.8512V23.617H20.4399Z" fill="#3D3D3D"/>
<path d="M20.4399 25.2059V23.6172H18.8512V25.2059H20.4399Z" fill="#3D3D3D"/>
<path d="M22.0288 25.2059V23.6172H20.4401V25.2059H22.0288Z" fill="#3D3D3D"/>
<path d="M22.0288 23.617V22.0283H20.4401V23.617H22.0288Z" fill="#3D3D3D"/>
<path d="M23.6172 23.617V22.0283H22.0285V23.617H23.6172Z" fill="#3D3D3D"/>
<path d="M25.2061 23.617V22.0283H23.6173V23.617H25.2061Z" fill="#3D3D3D"/>
<path d="M26.7944 23.617V22.0283H25.2057V23.617H26.7944Z" fill="#3D3D3D"/>
<path d="M28.3838 23.617V22.0283H26.7951V23.617H28.3838Z" fill="#3D3D3D"/>
<path d="M23.6172 25.2059V23.6172H22.0285V25.2059H23.6172Z" fill="#3D3D3D"/>
<path d="M25.2061 25.2059V23.6172H23.6173V25.2059H25.2061Z" fill="#3D3D3D"/>
<path d="M26.7944 25.2059V23.6172H25.2057V25.2059H26.7944Z" fill="#3D3D3D"/>
<path d="M28.3838 25.2059V23.6172H26.7951V25.2059H28.3838Z" fill="#3D3D3D"/>
<path d="M31.561 23.617V22.0283H29.9723V23.617H31.561Z" fill="#3D3D3D"/>
<path d="M29.9722 25.2059V23.6172H28.3835V25.2059H29.9722Z" fill="#3D3D3D"/>
<path d="M29.9722 23.6204V22.0317H28.3835V23.6204H29.9722Z" fill="#3D3D3D"/>
<path d="M31.5576 25.2059V23.6172H29.9689V25.2059H31.5576Z" fill="#3D3D3D"/>
<path d="M33.146 25.2059V23.6172H31.5573V25.2059H33.146Z" fill="#3D3D3D"/>
<path d="M34.7349 25.2025V23.6138H33.1462V25.2025H34.7349Z" fill="#3D3D3D"/>
<path d="M29.9688 22.0318V20.4431H28.38V22.0318H29.9688Z" fill="#3D3D3D"/>
<path d="M31.5576 22.0318V20.4431H29.9689V22.0318H31.5576Z" fill="#3D3D3D"/>
<path d="M37.9121 22.0284V20.4397H36.3234V22.0284H37.9121Z" fill="#3D3D3D"/>
<path d="M39.501 22.0318V20.4431H37.9123V22.0318H39.501Z" fill="#3D3D3D"/>
<path d="M41.0898 22.0318V20.4431H39.5011V22.0318H41.0898Z" fill="#3D3D3D"/>
<path d="M42.6787 22.0318V20.4431H41.09V22.0318H42.6787Z" fill="#3D3D3D"/>
<path d="M42.6787 23.617V22.0283H41.09V23.617H42.6787Z" fill="#3D3D3D"/>
<path d="M42.6787 25.2059V23.6172H41.09V25.2059H42.6787Z" fill="#3D3D3D"/>
<path d="M44.2671 22.0318V20.4431H42.6784V22.0318H44.2671Z" fill="#3D3D3D"/>
<path d="M36.3237 25.2059V23.6172H34.735V25.2059H36.3237Z" fill="#3D3D3D"/>
<path d="M15.6738 26.7945V25.2058H14.0851V26.7945H15.6738Z" fill="#3D3D3D"/>
<path d="M17.2627 26.7945V25.2058H15.674V26.7945H17.2627Z" fill="#3D3D3D"/>
<path d="M18.8511 26.7945V25.2058H17.2624V26.7945H18.8511Z" fill="#3D3D3D"/>
<path d="M20.4399 26.7945V25.2058H18.8512V26.7945H20.4399Z" fill="#3D3D3D"/>
<path d="M22.0288 26.7979V25.2092H20.4401V26.7979H22.0288Z" fill="#3D3D3D"/>
<path d="M23.6172 26.7979V25.2092H22.0285V26.7979H23.6172Z" fill="#3D3D3D"/>
<path d="M25.2031 26.7979V25.2092H23.6144V26.7979H25.2031Z" fill="#3D3D3D"/>
<path d="M26.7915 26.7945V25.2058H25.2028V26.7945H26.7915Z" fill="#3D3D3D"/>
<path d="M28.3804 26.7979V25.2092H26.7917V26.7979H28.3804Z" fill="#3D3D3D"/>
<path d="M29.9688 26.7979V25.2092H28.38V26.7979H29.9688Z" fill="#3D3D3D"/>
<path d="M31.5576 26.7979V25.2092H29.9689V26.7979H31.5576Z" fill="#3D3D3D"/>
<path d="M33.146 26.7979V25.2092H31.5573V26.7979H33.146Z" fill="#3D3D3D"/>
<path d="M34.7349 26.7945V25.2058H33.1462V26.7945H34.7349Z" fill="#3D3D3D"/>
<path d="M36.3237 26.7945V25.2058H34.735V26.7945H36.3237Z" fill="#3D3D3D"/>
<path d="M37.9121 23.617V22.0283H36.3234V23.617H37.9121Z" fill="#3D3D3D"/>
<path d="M39.501 23.617V22.0283H37.9123V23.617H39.501Z" fill="#3D3D3D"/>
<path d="M37.9121 25.2059V23.6172H36.3234V25.2059H37.9121Z" fill="#3D3D3D"/>
<path d="M39.501 25.2059V23.6172H37.9123V25.2059H39.501Z" fill="#3D3D3D"/>
<path d="M41.0898 23.617V22.0283H39.5011V23.617H41.0898Z" fill="#3D3D3D"/>
<path d="M41.0898 25.2059V23.6172H39.5011V25.2059H41.0898Z" fill="#3D3D3D"/>
<path d="M25.2061 10.911V9.32227H23.6173V10.911H25.2061Z" fill="#3D3D3D"/>
<path d="M28.3838 12.503V10.9143H26.7951V12.503H28.3838Z" fill="#181919"/>
<path d="M28.3838 14.0882V12.4995H26.7951V14.0882H28.3838Z" fill="#181919"/>
<path d="M28.3838 10.9144V9.32568H26.7951V10.9144H28.3838Z" fill="#181919"/>
<path d="M29.9722 12.503V10.9143H28.3835V12.503H29.9722Z" fill="#181919"/>
<path d="M29.9722 14.0916V12.5029H28.3835V14.0916H29.9722Z" fill="#181919"/>
<path d="M29.9722 10.9144V9.32568H28.3835V10.9144H29.9722Z" fill="#181919"/>
<path d="M29.9688 9.32211V7.7334H28.38V9.32211H29.9688Z" fill="#181919"/>
<path d="M29.9722 7.72982V6.14111H28.3835V7.72982H29.9722Z" fill="#181919"/>
<path d="M31.5576 6.14828V4.55957H29.9689V6.14828H31.5576Z" fill="#181919"/>
<path d="M33.146 6.14486V4.55615H31.5573V6.14486H33.146Z" fill="#181919"/>
<path d="M31.561 12.503V10.9143H29.9723V12.503H31.561Z" fill="#2D2D2D"/>
<path d="M31.561 14.0916V12.5029H29.9723V14.0916H31.561Z" fill="#2D2D2D"/>
<path d="M31.561 10.9144V9.32568H29.9723V10.9144H31.561Z" fill="#2D2D2D"/>
<path d="M33.1499 12.4996V10.9109H31.5612V12.4996H33.1499Z" fill="#3D3D3D"/>
<path d="M33.1499 14.0882V12.4995H31.5612V14.0882H33.1499Z" fill="#3D3D3D"/>
<path d="M33.1499 10.911V9.32227H31.5612V10.911H33.1499Z" fill="#2D2D2D"/>
<path d="M34.7383 12.4996V10.9109H33.1496V12.4996H34.7383Z" fill="#3D3D3D"/>
<path d="M34.7383 14.0882V12.4995H33.1496V14.0882H34.7383Z" fill="#3D3D3D"/>
<path d="M34.7383 10.911V9.32227H33.1496V10.911H34.7383Z" fill="#3D3D3D"/>
<path d="M36.3271 12.4996V10.9109H34.7384V12.4996H36.3271Z" fill="#3D3D3D"/>
<path d="M36.3237 14.0882V12.4995H34.735V14.0882H36.3237Z" fill="#3D3D3D"/>
<path d="M36.3271 10.911V9.32227H34.7384V10.911H36.3271Z" fill="#3D3D3D"/>
<path d="M37.9121 12.4996V10.9109H36.3234V12.4996H37.9121Z" fill="#3D3D3D"/>
<path d="M37.9121 14.0882V12.4995H36.3234V14.0882H37.9121Z" fill="#3D3D3D"/>
<path d="M37.9155 10.911V9.32227H36.3268V10.911H37.9155Z" fill="#3D3D3D"/>
<path d="M39.501 12.4996V10.9109H37.9123V12.4996H39.501Z" fill="#3D3D3D"/>
<path d="M39.501 14.0882V12.4995H37.9123V14.0882H39.501Z" fill="#3D3D3D"/>
<path d="M39.501 10.911V9.32227H37.9123V10.911H39.501Z" fill="#3D3D3D"/>
<path d="M41.0898 12.4996V10.9109H39.5011V12.4996H41.0898Z" fill="#3D3D3D"/>
<path d="M41.0898 14.0882V12.4995H39.5011V14.0882H41.0898Z" fill="#3D3D3D"/>
<path d="M41.0898 10.911V9.32227H39.5011V10.911H41.0898Z" fill="#3D3D3D"/>
<path d="M42.6787 12.4996V10.9109H41.09V12.4996H42.6787Z" fill="#3D3D3D"/>
<path d="M42.6787 14.0882V12.4995H41.09V14.0882H42.6787Z" fill="#3D3D3D"/>
<path d="M42.6787 10.911V9.32227H41.09V10.911H42.6787Z" fill="#3D3D3D"/>
<path d="M44.2671 12.4996V10.9109H42.6784V12.4996H44.2671Z" fill="#3D3D3D"/>
<path d="M44.2671 14.0882V12.4995H42.6784V14.0882H44.2671Z" fill="#3D3D3D"/>
<path d="M44.2671 10.911V9.32227H42.6784V10.911H44.2671Z" fill="#515151"/>
<path d="M45.856 12.4996V10.9109H44.2672V12.4996H45.856Z" fill="#515151"/>
<path d="M45.856 14.0882V12.4995H44.2672V14.0882H45.856Z" fill="#515151"/>
<path d="M45.856 10.911V9.32227H44.2672V10.911H45.856Z" fill="#2D2D2D"/>
<path d="M47.4448 12.4996V10.9109H45.8561V12.4996H47.4448Z" fill="#2D2D2D"/>
<path d="M47.4448 14.0882V12.4995H45.8561V14.0882H47.4448Z" fill="#2D2D2D"/>
<path d="M47.4448 10.9144V9.32568H45.8561V10.9144H47.4448Z" fill="#181919"/>
<path d="M31.5576 9.32211V7.7334H29.9689V9.32211H31.5576Z" fill="#2D2D2D"/>
<path d="M33.146 9.31869V7.72998H31.5573V9.31869H33.146Z" fill="#3D3D3D"/>
<path d="M34.7349 9.31869V7.72998H33.1462V9.31869H34.7349Z" fill="#2D2D2D"/>
<path d="M36.3237 9.31869V7.72998H34.735V9.31869H36.3237Z" fill="#3D3D3D"/>
<path d="M37.9121 9.31869V7.72998H36.3234V9.31869H37.9121Z" fill="#3D3D3D"/>
<path d="M39.501 9.31869V7.72998H37.9123V9.31869H39.501Z" fill="#515151"/>
<path d="M41.0898 9.32211V7.7334H39.5011V9.32211H41.0898Z" fill="#515151"/>
<path d="M42.6787 9.3221V7.7334H41.09V9.3221H42.6787Z" fill="#515151"/>
<path d="M44.2671 9.32211V7.7334H42.6784V9.32211H44.2671Z" fill="#2D2D2D"/>
<path d="M45.8525 9.32211V7.7334H44.2638V9.32211H45.8525Z" fill="#2D2D2D"/>
<path d="M47.4409 9.32211V7.7334H45.8522V9.32211H47.4409Z" fill="#181919"/>
<path d="M31.561 7.72982V6.14111H29.9723V7.72982H31.561Z" fill="#2D2D2D"/>
<path d="M33.146 7.72982V6.14111H31.5573V7.72982H33.146Z" fill="#2D2D2D"/>
<path d="M34.7349 7.72982V6.14111H33.1462V7.72982H34.7349Z" fill="#2D2D2D"/>
<path d="M36.3237 7.72982V6.14111H34.735V7.72982H36.3237Z" fill="#2D2D2D"/>
<path d="M37.9121 7.72982V6.14111H36.3234V7.72982H37.9121Z" fill="#2D2D2D"/>
<path d="M41.0898 7.72982V6.14111H39.5011V7.72982H41.0898Z" fill="#2D2D2D"/>
<path d="M39.501 7.72982V6.14111H37.9123V7.72982H39.501Z" fill="#2D2D2D"/>
<path d="M42.6787 7.72982V6.14111H41.09V7.72982H42.6787Z" fill="#2D2D2D"/>
<path d="M44.2671 7.72982V6.14111H42.6784V7.72982H44.2671Z" fill="#181919"/>
<path d="M45.856 7.72982V6.14111H44.2672V7.72982H45.856Z" fill="#181919"/>
<path d="M34.7349 6.14486V4.55615H33.1462V6.14486H34.7349Z" fill="#181919"/>
<path d="M36.3237 6.14486V4.55615H34.735V6.14486H36.3237Z" fill="#181919"/>
<path d="M37.9121 6.14486V4.55615H36.3234V6.14486H37.9121Z" fill="#181919"/>
<path d="M39.501 6.14486V4.55615H37.9123V6.14486H39.501Z" fill="#181919"/>
<path d="M41.0898 6.14486V4.55615H39.5011V6.14486H41.0898Z" fill="#181919"/>
<path d="M42.6787 6.14827V4.55957H41.09V6.14827H42.6787Z" fill="#181919"/>
<path d="M34.7349 4.55257V2.96387H33.1462V4.55257H34.7349Z" fill="#181919"/>
<path d="M36.3237 4.55599V2.96729H34.735V4.55599H36.3237Z" fill="#181919"/>
<path d="M37.9121 4.55599V2.96729H36.3234V4.55599H37.9121Z" fill="#181919"/>
<path d="M39.501 4.55599V2.96729H37.9123V4.55599H39.501Z" fill="#181919"/>
<path d="M41.0898 4.55599V2.96729H39.5011V4.55599H41.0898Z" fill="#181919"/>
<path d="M42.6787 4.55599V2.96729H41.09V4.55599H42.6787Z" fill="#181919"/>
<path d="M44.2637 6.14828V4.55957H42.675V6.14828H44.2637Z" fill="#181919"/>
<path d="M45.8525 6.14828V4.55957H44.2638V6.14828H45.8525Z" fill="#181919"/>
<path d="M47.4448 7.72982V6.14111H45.8561V7.72982H47.4448Z" fill="#181919"/>
<path d="M49.0332 12.503V10.9143H47.4445V12.503H49.0332Z" fill="#181919"/>
<path d="M49.0332 14.0882V12.4995H47.4445V14.0882H49.0332Z" fill="#181919"/>
<path d="M31.561 15.6803V14.0916H29.9723V15.6803H31.561Z" fill="#3D3D3D"/>
<path d="M31.561 17.2657V15.677H29.9723V17.2657H31.561Z" fill="#3D3D3D"/>
<path d="M33.1499 15.6768V14.0881H31.5612V15.6768H33.1499Z" fill="#3D3D3D"/>
<path d="M33.146 17.2657V15.677H31.5573V17.2657H33.146Z" fill="#3D3D3D"/>
<path d="M34.7349 15.6768V14.0881H33.1462V15.6768H34.7349Z" fill="#3D3D3D"/>
<path d="M34.7349 17.2657V15.677H33.1462V17.2657H34.7349Z" fill="#3D3D3D"/>
<path d="M36.3237 15.6768V14.0881H34.735V15.6768H36.3237Z" fill="#3D3D3D"/>
<path d="M36.3237 17.2657V15.677H34.735V17.2657H36.3237Z" fill="#3D3D3D"/>
<path d="M37.9121 15.6768V14.0881H36.3234V15.6768H37.9121Z" fill="#3D3D3D"/>
<path d="M37.9121 17.2657V15.677H36.3234V17.2657H37.9121Z" fill="#3D3D3D"/>
<path d="M39.501 15.6768V14.0881H37.9123V15.6768H39.501Z" fill="#3D3D3D"/>
<path d="M39.501 17.2657V15.677H37.9123V17.2657H39.501Z" fill="#3D3D3D"/>
<path d="M41.0898 15.6768V14.0881H39.5011V15.6768H41.0898Z" fill="#3D3D3D"/>
<path d="M41.0898 17.2657V15.677H39.5011V17.2657H41.0898Z" fill="#3D3D3D"/>
<path d="M42.6787 15.6768V14.0881H41.09V15.6768H42.6787Z" fill="#3D3D3D"/>
<path d="M42.6787 17.2657V15.677H41.09V17.2657H42.6787Z" fill="#3D3D3D"/>
<path d="M44.2671 15.6768V14.0881H42.6784V15.6768H44.2671Z" fill="#3D3D3D"/>
<path d="M44.2671 17.2657V15.677H42.6784V17.2657H44.2671Z" fill="#3D3D3D"/>
<path d="M45.856 15.6768V14.0881H44.2672V15.6768H45.856Z" fill="#515151"/>
<path d="M45.856 17.2657V15.677H44.2673V17.2657H45.856Z" fill="#515151"/>
<path d="M47.4448 15.6768V14.0881H45.8561V15.6768H47.4448Z" fill="#2D2D2D"/>
<path d="M47.4409 17.2657V15.677H45.8522V17.2657H47.4409Z" fill="#2D2D2D"/>
<path d="M49.0332 15.6768V14.0881H47.4445V15.6768H49.0332Z" fill="#181919"/>
<path d="M49.0332 17.2657V15.677H47.4445V17.2657H49.0332Z" fill="#181919"/>
<path d="M33.146 18.8509V17.2622H31.5573V18.8509H33.146Z" fill="#3D3D3D"/>
<path d="M34.7349 18.8546V17.2659H33.1462V18.8546H34.7349Z" fill="#3D3D3D"/>
<path d="M36.3237 18.8546V17.2659H34.735V18.8546H36.3237Z" fill="#3D3D3D"/>
<path d="M37.9121 18.8546V17.2659H36.3234V18.8546H37.9121Z" fill="#3D3D3D"/>
<path d="M39.501 18.8546V17.2659H37.9123V18.8546H39.501Z" fill="#3D3D3D"/>
<path d="M41.0898 18.8546V17.2659H39.5011V18.8546H41.0898Z" fill="#3D3D3D"/>
<path d="M42.6787 18.8546V17.2659H41.09V18.8546H42.6787Z" fill="#3D3D3D"/>
<path d="M44.2671 18.8546V17.2659H42.6784V18.8546H44.2671Z" fill="#3D3D3D"/>
<path d="M45.856 18.8546V17.2659H44.2672V18.8546H45.856Z" fill="#3D3D3D"/>
<path d="M47.4448 18.8546V17.2659H45.8561V18.8546H47.4448Z" fill="#2D2D2D"/>
<path d="M33.146 20.4395V18.8508H31.5573V20.4395H33.146Z" fill="#3D3D3D"/>
<path d="M34.7349 20.4395V18.8508H33.1462V20.4395H34.7349Z" fill="#3D3D3D"/>
<path d="M36.3237 20.4432V18.8545H34.735V20.4432H36.3237Z" fill="#3D3D3D"/>
<path d="M33.146 22.0284V20.4397H31.5573V22.0284H33.146Z" fill="#3D3D3D"/>
<path d="M34.7349 22.0284V20.4397H33.1462V22.0284H34.7349Z" fill="#3D3D3D"/>
<path d="M36.3237 22.0284V20.4397H34.735V22.0284H36.3237Z" fill="#3D3D3D"/>
<path d="M33.146 23.6136V22.0249H31.5573V23.6136H33.146Z" fill="#3D3D3D"/>
<path d="M34.7349 23.6136V22.0249H33.1462V23.6136H34.7349Z" fill="#3D3D3D"/>
<path d="M36.3237 23.6136V22.0249H34.735V23.6136H36.3237Z" fill="#3D3D3D"/>
<path d="M37.9121 20.4432V18.8545H36.3234V20.4432H37.9121Z" fill="#3D3D3D"/>
<path d="M39.501 20.4432V18.8545H37.9123V20.4432H39.501Z" fill="#3D3D3D"/>
<path d="M41.0898 20.4432V18.8545H39.5011V20.4432H41.0898Z" fill="#3D3D3D"/>
<path d="M42.6787 20.4432V18.8545H41.09V20.4432H42.6787Z" fill="#3D3D3D"/>
<path d="M44.2671 20.4432V18.8545H42.6784V20.4432H44.2671Z" fill="#3D3D3D"/>
<path d="M45.8525 20.4432V18.8545H44.2638V20.4432H45.8525Z" fill="#2D2D2D"/>
<path d="M47.4409 20.4432V18.8545H45.8522V20.4432H47.4409Z" fill="#2D2D2D"/>
<path d="M45.856 22.0284V20.4397H44.2673V22.0284H45.856Z" fill="#2D2D2D"/>
<path d="M44.2671 23.617V22.0283H42.6784V23.617H44.2671Z" fill="#3D3D3D"/>
<path d="M45.8525 23.617V22.0283H44.2638V23.617H45.8525Z" fill="#2D2D2D"/>
<path d="M47.4448 22.0284V20.4397H45.8561V22.0284H47.4448Z" fill="#2D2D2D"/>
<path d="M49.0332 18.8546V17.2659H47.4445V18.8546H49.0332Z" fill="#181919"/>
<path d="M49.0332 10.9144V9.32568H47.4445V10.9144H49.0332Z" fill="#181919"/>
<path d="M6.14502 33.1493V31.5605H4.55631V33.1493H6.14502Z" fill="#181919"/>
<path d="M6.14502 31.5643V29.9756H4.55631V31.5643H6.14502Z" fill="#181919"/>
<path d="M7.73389 31.5643V29.9756H6.14518V31.5643H7.73389Z" fill="#181919"/>
<path d="M7.73389 29.9752V28.3865H6.14518V29.9752H7.73389Z" fill="#181919"/>
<path d="M10.911 25.2058H9.32227V26.7945H10.911V25.2058Z" fill="#3D3D3D"/>
<path d="M9.32259 26.7944H7.73389V28.3831H9.32259V26.7944Z" fill="#3D3D3D"/>
<path d="M7.73373 26.7944H6.14502V28.3831H7.73373V26.7944Z" fill="#3D3D3D"/>
<path d="M9.32259 47.4443H7.73389V49.033H9.32259V47.4443Z" fill="#3D3D3D"/>
<path d="M7.73373 47.4443H6.14502V49.033H7.73373V47.4443Z" fill="#3D3D3D"/>
<path d="M22.0286 47.4443H20.4399V49.033H22.0286V47.4443Z" fill="#3D3D3D"/>
<path d="M20.4398 47.4443H18.8511V49.033H20.4398V47.4443Z" fill="#3D3D3D"/>
<path d="M4.55664 33.1493V31.5605H2.96793V33.1493H4.55664Z" fill="#3D3D3D"/>
<path d="M4.55664 31.5606V29.9719H2.96793V31.5606H4.55664Z" fill="#3D3D3D"/>
<path d="M4.55273 45.859V44.2703H2.96403V45.859H4.55273Z" fill="#3D3D3D"/>
<path d="M4.55664 44.2701V42.6814H2.96793V44.2701H4.55664Z" fill="#3D3D3D"/>
<path d="M25.2031 45.859V44.2703H23.6144V45.859H25.2031Z" fill="#3D3D3D"/>
<path d="M25.2061 44.2701V42.6814H23.6173V44.2701H25.2061Z" fill="#3D3D3D"/>
<path d="M2.96777 36.3267V34.738H1.37907V36.3267H2.96777Z" fill="#3D3D3D"/>
<path d="M2.96777 37.9154V36.3267H1.37907V37.9154H2.96777Z" fill="#3D3D3D"/>
<path d="M2.96777 39.5042V37.9155H1.37907V39.5042H2.96777Z" fill="#3D3D3D"/>
<path d="M2.96777 41.0929V39.5042H1.37907V41.0929H2.96777Z" fill="#3D3D3D"/>
<path d="M2.96777 42.6815V41.0928H1.37907V42.6815H2.96777Z" fill="#3D3D3D"/>
<path d="M2.96777 34.7381V33.1494H1.37907V34.7381H2.96777Z" fill="#3D3D3D"/>
<path d="M26.7944 39.5042V37.9155H25.2057V39.5042H26.7944Z" fill="#3D3D3D"/>
<path d="M26.7944 41.0929V39.5042H25.2057V41.0929H26.7944Z" fill="#3D3D3D"/>
<path d="M26.7944 42.6815V41.0928H25.2057V42.6815H26.7944Z" fill="#3D3D3D"/>
<path d="M6.14535 28.3833H4.55664V29.972H6.14535V28.3833Z" fill="#3D3D3D"/>
<path d="M6.14535 45.8591H4.55664V47.4478H6.14535V45.8591Z" fill="#3D3D3D"/>
<path d="M23.6175 45.8591H22.0288V47.4478H23.6175V45.8591Z" fill="#3D3D3D"/>
<path d="M12.4998 25.2058H10.9111V26.7945H12.4998V25.2058Z" fill="#3D3D3D"/>
<path d="M14.0853 25.2058H12.4966V26.7945H14.0853V25.2058Z" fill="#3D3D3D"/>
<path d="M10.911 49.033H9.32227V50.6217H10.911V49.033Z" fill="#3D3D3D"/>
<path d="M12.4998 49.033H10.9111V50.6217H12.4998V49.033Z" fill="#3D3D3D"/>
<path d="M14.0853 49.033H12.4966V50.6217H14.0853V49.033Z" fill="#3D3D3D"/>
<path d="M15.6742 49.033H14.0854V50.6217H15.6742V49.033Z" fill="#3D3D3D"/>
<path d="M17.2625 49.033H15.6738V50.6217H17.2625V49.033Z" fill="#3D3D3D"/>
<path d="M18.8514 49.033H17.2627V50.6217H18.8514V49.033Z" fill="#3D3D3D"/>
<path d="M26.7915 10.911V9.32227H25.2028V10.911H26.7915Z" fill="#3D3D3D"/>
<path d="M25.2031 9.32211V7.7334H23.6144V9.32211H25.2031Z" fill="#3D3D3D"/>
<path d="M25.2061 7.73348V6.14478H23.6173V7.73348H25.2061Z" fill="#3D3D3D"/>
<path d="M4.55273 9.32211V7.7334H2.96403V9.32211H4.55273Z" fill="#3D3D3D"/>
<path d="M4.55273 7.73348V6.14478H2.96403V7.73348H4.55273Z" fill="#3D3D3D"/>
<path d="M4.55664 22.0284V20.4397H2.96793V22.0284H4.55664Z" fill="#3D3D3D"/>
<path d="M4.55664 20.4395V18.8508H2.96793V20.4395H4.55664Z" fill="#3D3D3D"/>
<path d="M18.8512 4.55615H20.4399V2.96745H18.8512V4.55615Z" fill="#3D3D3D"/>
<path d="M20.4401 4.55615H22.0288V2.96745H20.4401V4.55615Z" fill="#3D3D3D"/>
<path d="M6.14176 4.55615H7.73047V2.96745H6.14176V4.55615Z" fill="#3D3D3D"/>
<path d="M7.73014 4.55615H9.31885V2.96745H7.73014V4.55615Z" fill="#3D3D3D"/>
<path d="M6.14176 25.2058H7.73047V23.6171H6.14176V25.2058Z" fill="#3D3D3D"/>
<path d="M7.73014 25.2058H9.31885V23.6171H7.73014V25.2058Z" fill="#3D3D3D"/>
<path d="M15.6774 2.96729H17.2661V1.37858L15.6774 1.37858V2.96729Z" fill="#3D3D3D"/>
<path d="M14.0885 2.96729H15.6772V1.37858L14.0885 1.37858V2.96729Z" fill="#3D3D3D"/>
<path d="M12.5002 2.96729H14.0889V1.37858L12.5002 1.37858V2.96729Z" fill="#3D3D3D"/>
<path d="M10.9079 2.96729H12.4966V1.37858L10.9079 1.37858V2.96729Z" fill="#3D3D3D"/>
<path d="M9.3195 2.96729H10.9082V1.37858L9.3195 1.37858V2.96729Z" fill="#3D3D3D"/>
<path d="M17.2624 2.96729H18.8511V1.37858L17.2624 1.37858V2.96729Z" fill="#3D3D3D"/>
<path d="M12.5002 26.791H14.0889V25.2023H12.5002V26.791Z" fill="#3D3D3D"/>
<path d="M10.9079 26.791H12.4966V25.2023H10.9079V26.791Z" fill="#3D3D3D"/>
<path d="M9.3195 26.791H10.9082V25.2023H9.3195V26.791Z" fill="#3D3D3D"/>
<path d="M23.6172 6.14486V4.55615H22.0285V6.14486H23.6172Z" fill="#3D3D3D"/>
<path d="M6.1416 6.14486V4.55615H4.55289V6.14486H6.1416Z" fill="#3D3D3D"/>
<path d="M6.14502 23.617V22.0283H4.55631V23.617H6.14502Z" fill="#3D3D3D"/>
<path d="M26.7944 12.4996V10.9109H25.2057V12.4996H26.7944Z" fill="#3D3D3D"/>
<path d="M26.7944 14.0848V12.4961H25.2057V14.0848H26.7944Z" fill="#3D3D3D"/>
<path d="M2.96436 10.911V9.32227H1.37565V10.911H2.96436Z" fill="#3D3D3D"/>
<path d="M2.96777 12.4962V10.9075H1.37907V12.4962H2.96777Z" fill="#3D3D3D"/>
<path d="M2.96777 14.0848V12.4961H1.37907V14.0848H2.96777Z" fill="#3D3D3D"/>
<path d="M2.96777 15.6737V14.085H1.37907V15.6737H2.96777Z" fill="#3D3D3D"/>
<path d="M2.96777 17.2623V15.6736H1.37907V17.2623H2.96777Z" fill="#3D3D3D"/>
<path d="M2.96777 18.8509V17.2622H1.37907V18.8509H2.96777Z" fill="#3D3D3D"/>
<path d="M41.09 26.791H42.6787V25.2023H41.09V26.791Z" fill="#3D3D3D"/>
<path d="M42.6784 25.2058H44.2671V23.6171H42.6784V25.2058Z" fill="#3D3D3D"/>
<path d="M44.2672 25.2058H45.856V23.6171H44.2672V25.2058Z" fill="#3D3D3D"/>
<path d="M42.6784 4.55615H44.2671V2.96745H42.6784V4.55615Z" fill="#3D3D3D"/>
<path d="M44.2672 4.55615H45.856V2.96745H44.2672V4.55615Z" fill="#3D3D3D"/>
<path d="M29.9689 4.55615H31.5576V2.96745H29.9689V4.55615Z" fill="#3D3D3D"/>
<path d="M31.5612 4.55615H33.1499V2.96745H31.5612V4.55615Z" fill="#3D3D3D"/>
<path d="M47.4448 18.851V20.4397H49.0335V18.851H47.4448Z" fill="#3D3D3D"/>
<path d="M47.4448 20.4396V22.0283H49.0335V20.4396H47.4448Z" fill="#3D3D3D"/>
<path d="M47.4448 6.14127V7.72998H49.0335V6.14127H47.4448Z" fill="#3D3D3D"/>
<path d="M47.4448 7.73014V9.31885H49.0335V7.73014H47.4448Z" fill="#3D3D3D"/>
<path d="M26.7944 6.14127V7.72998H28.3831V6.14127H26.7944Z" fill="#3D3D3D"/>
<path d="M26.7944 7.73014V9.31885H28.3831V7.73014H26.7944Z" fill="#3D3D3D"/>
<path d="M49.0298 15.6735V17.2622H50.6185V15.6735H49.0298Z" fill="#3D3D3D"/>
<path d="M49.0298 14.0849V15.6736H50.6185V14.0849H49.0298Z" fill="#3D3D3D"/>
<path d="M49.0298 12.4963V14.085H50.6185V12.4963H49.0298Z" fill="#3D3D3D"/>
<path d="M49.0298 10.9074V12.4961H50.6185V10.9074H49.0298Z" fill="#3D3D3D"/>
<path d="M49.0332 9.31876V10.9075H50.6219V9.31876H49.0332Z" fill="#3D3D3D"/>
<path d="M49.0332 17.2621V18.8508H50.6219V17.2621H49.0332Z" fill="#3D3D3D"/>
<path d="M25.2031 12.4963V14.085H26.7918V12.4963H25.2031Z" fill="#3D3D3D"/>
<path d="M25.2031 10.9074V12.4961H26.7918V10.9074H25.2031Z" fill="#3D3D3D"/>
<path d="M25.2061 9.31876V10.9075H26.7948V9.31876H25.2061Z" fill="#3D3D3D"/>
<path d="M45.8561 23.6172H47.4448V22.0285H45.8561V23.6172Z" fill="#3D3D3D"/>
<path d="M45.8561 6.14111H47.4448V4.55241H45.8561V6.14111Z" fill="#3D3D3D"/>
<path d="M28.38 6.14111H29.9688V4.55241H28.38V6.14111Z" fill="#3D3D3D"/>
<path d="M39.5011 26.791H41.0898V25.2023H39.5011V26.791Z" fill="#3D3D3D"/>
<path d="M37.9123 26.791H39.501V25.2023H37.9123V26.791Z" fill="#3D3D3D"/>
<path d="M36.3234 26.791H37.9121V25.2023H36.3234V26.791Z" fill="#3D3D3D"/>
<path d="M41.09 2.96729H42.6787V1.37858L41.09 1.37858V2.96729Z" fill="#3D3D3D"/>
<path d="M39.5011 2.96729H41.0898V1.37858L39.5011 1.37858V2.96729Z" fill="#3D3D3D"/>
<path d="M37.9123 2.96729H39.501V1.37858L37.9123 1.37858V2.96729Z" fill="#3D3D3D"/>
<path d="M36.3234 2.96729H37.9121V1.37858L36.3234 1.37858V2.96729Z" fill="#3D3D3D"/>
<path d="M34.7384 2.96729H36.3271V1.37858L34.7384 1.37858V2.96729Z" fill="#3D3D3D"/>
<path d="M33.1496 2.96729H34.7383V1.37858L33.1496 1.37858V2.96729Z" fill="#3D3D3D"/>
<path d="M25.2061 41.0895V42.6782H26.7948V41.0895H25.2061Z" fill="#3D3D3D"/>
<path d="M26.7944 42.6781V44.2668H28.3831V42.6781H26.7944Z" fill="#3D3D3D"/>
<path d="M26.7944 44.2668V45.8555H28.3831V44.2668H26.7944Z" fill="#3D3D3D"/>
<path d="M47.4448 42.6781V44.2668H49.0335V42.6781H47.4448Z" fill="#3D3D3D"/>
<path d="M47.4448 44.2668V45.8555H49.0335V44.2668H47.4448Z" fill="#3D3D3D"/>
<path d="M47.4409 29.9718V31.5605H49.0296V29.9718H47.4409Z" fill="#3D3D3D"/>
<path d="M47.4448 31.5607V33.1494H49.0335V31.5607H47.4448Z" fill="#3D3D3D"/>
<path d="M33.1463 47.4443H31.5576V49.033H33.1463V47.4443Z" fill="#3D3D3D"/>
<path d="M31.5609 47.4443H29.9722V49.033H31.5609V47.4443Z" fill="#3D3D3D"/>
<path d="M45.8558 47.4443H44.2671V49.033H45.8558V47.4443Z" fill="#3D3D3D"/>
<path d="M44.2674 47.4443H42.6787V49.033H44.2674V47.4443Z" fill="#3D3D3D"/>
<path d="M45.8558 26.7944H44.2671V28.3831H45.8558V26.7944Z" fill="#3D3D3D"/>
<path d="M44.2674 26.7944H42.6787V28.3831H44.2674V26.7944Z" fill="#3D3D3D"/>
<path d="M36.3236 49.033H34.7349V50.6217H36.3236V49.033Z" fill="#3D3D3D"/>
<path d="M37.9124 49.033H36.3237V50.6217H37.9124V49.033Z" fill="#3D3D3D"/>
<path d="M39.5008 49.033H37.9121V50.6217H39.5008V49.033Z" fill="#3D3D3D"/>
<path d="M41.0897 49.033H39.501V50.6217H41.0897V49.033Z" fill="#3D3D3D"/>
<path d="M42.6785 49.033H41.0898V50.6217H42.6785V49.033Z" fill="#3D3D3D"/>
<path d="M34.7347 49.033H33.146V50.6217H34.7347V49.033Z" fill="#3D3D3D"/>
<path d="M37.9124 25.2058H36.3237V26.7945H37.9124V25.2058Z" fill="#3D3D3D"/>
<path d="M39.5008 25.2058H37.9121V26.7945H39.5008V25.2058Z" fill="#3D3D3D"/>
<path d="M41.0897 25.2058H39.501V26.7945H41.0897V25.2058Z" fill="#3D3D3D"/>
<path d="M42.6785 25.2058H41.0898V26.7945H42.6785V25.2058Z" fill="#3D3D3D"/>
<path d="M28.3838 45.8556V47.4443H29.9725V45.8556H28.3838Z" fill="#3D3D3D"/>
<path d="M45.8594 45.8556V47.4443H47.4481V45.8556H45.8594Z" fill="#3D3D3D"/>
<path d="M45.8525 28.3832V29.9719H47.4412V28.3832H45.8525Z" fill="#3D3D3D"/>
<path d="M25.2061 39.5041V41.0928H26.7948V39.5041H25.2061Z" fill="#3D3D3D"/>
<path d="M25.2061 37.9154V39.5042H26.7948V37.9154H25.2061Z" fill="#3D3D3D"/>
<path d="M49.0332 41.0895V42.6782H50.6219V41.0895H49.0332Z" fill="#3D3D3D"/>
<path d="M49.0332 39.5006V41.0894H50.6219V39.5006H49.0332Z" fill="#3D3D3D"/>
<path d="M49.0332 37.912V39.5007H50.6219V37.912H49.0332Z" fill="#3D3D3D"/>
<path d="M49.0332 36.3268V37.9155H50.6219V36.3268H49.0332Z" fill="#3D3D3D"/>
<path d="M49.0332 34.738V36.3267H50.6219V34.738H49.0332Z" fill="#3D3D3D"/>
<path d="M49.0332 33.1493V34.738H50.6219V33.1493H49.0332Z" fill="#3D3D3D"/>
<path d="M47.4448 39.5041V41.0928H49.0335V39.5041H47.4448Z" fill="#181919"/>
<path d="M47.4448 37.9154V39.5042H49.0335V37.9154H47.4448Z" fill="#181919"/>
<path d="M47.4448 36.3268V37.9155H49.0335V36.3268H47.4448Z" fill="#181919"/>
<path d="M47.4448 34.738V36.3267H49.0335V34.738H47.4448Z" fill="#181919"/>
<path d="M47.4409 33.1493V34.738H49.0296V33.1493H47.4409Z" fill="#181919"/>
<path d="M47.4448 41.0895V42.6782H49.0335V41.0895H47.4448Z" fill="#181919"/>
<path d="M45.856 39.5041V41.0928H47.4447V39.5041H45.856Z" fill="#181919"/>
<path d="M45.856 37.9154V39.5042H47.4447V37.9154H45.856Z" fill="#181919"/>
<path d="M45.856 36.3268V37.9155H47.4447V36.3268H45.856Z" fill="#181919"/>
<path d="M45.856 34.738V36.3267H47.4447V34.738H45.856Z" fill="#181919"/>
<path d="M45.856 33.1493V34.738H47.4447V33.1493H45.856Z" fill="#181919"/>
<path d="M45.856 31.5641V33.1528H47.4447V31.5641H45.856Z" fill="#181919"/>
<path d="M45.856 29.9755V31.5642H47.4447V29.9755H45.856Z" fill="#181919"/>
<path d="M45.856 41.0927V42.6814H47.4447V41.0927H45.856Z" fill="#181919"/>
<path d="M45.856 42.6816V44.2703H47.4447V42.6816H45.856Z" fill="#181919"/>
<path d="M45.856 44.2738V45.8625H47.4447V44.2738H45.856Z" fill="#181919"/>
<path d="M44.2671 45.8556V47.4443H45.8558V45.8556H44.2671Z" fill="#181919"/>
<path d="M42.6787 45.8556V47.4443H44.2674V45.8556H42.6787Z" fill="#181919"/>
<path d="M44.2671 39.5041V41.0928H45.8558V39.5041H44.2671Z" fill="#2D2D2D"/>
<path d="M44.2671 37.9154V39.5042H45.8558V37.9154H44.2671Z" fill="#3D3D3D"/>
<path d="M44.2671 36.3268V37.9155H45.8558V36.3268H44.2671Z" fill="#2D2D2D"/>
<path d="M44.2671 34.738V36.3267H45.8558V34.738H44.2671Z" fill="#2D2D2D"/>
<path d="M44.2671 33.1493V34.738H45.8558V33.1493H44.2671Z" fill="#2D2D2D"/>
<path d="M44.2671 41.0927V42.6814H45.8558V41.0927H44.2671Z" fill="#2D2D2D"/>
<path d="M42.6787 39.5041V41.0928H44.2674V39.5041H42.6787Z" fill="#3D3D3D"/>
<path d="M42.6787 37.9154V39.5042H44.2674V37.9154H42.6787Z" fill="#2D2D2D"/>
<path d="M42.6787 36.3268V37.9155H44.2674V36.3268H42.6787Z" fill="#3D3D3D"/>
<path d="M42.6787 34.738V36.3267H44.2674V34.738H42.6787Z" fill="#3D3D3D"/>
<path d="M42.6787 33.1493V34.738H44.2674V33.1493H42.6787Z" fill="#3D3D3D"/>
<path d="M42.6787 41.0927V42.6814H44.2674V41.0927H42.6787Z" fill="#2D2D2D"/>
<path d="M41.0898 39.5041V41.0928H42.6786V39.5041H41.0898Z" fill="#2D2D2D"/>
<path d="M41.0898 37.9154V39.5042H42.6786V37.9154H41.0898Z" fill="#3D3D3D"/>
<path d="M41.0898 36.3268V37.9155H42.6785V36.3268H41.0898Z" fill="#3D3D3D"/>
<path d="M41.0898 34.738V36.3267H42.6786V34.738H41.0898Z" fill="#3D3D3D"/>
<path d="M41.0898 33.1493V34.738H42.6786V33.1493H41.0898Z" fill="#3D3D3D"/>
<path d="M41.0933 41.0927V42.6814H42.682V41.0927H41.0933Z" fill="#3D3D3D"/>
<path d="M39.5049 39.5041V41.0928H41.0936V39.5041H39.5049Z" fill="#3D3D3D"/>
<path d="M39.501 37.9154V39.5042H41.0897V37.9154H39.501Z" fill="#3D3D3D"/>
<path d="M39.501 36.3268V37.9155H41.0897V36.3268H39.501Z" fill="#3D3D3D"/>
<path d="M39.501 34.738V36.3267H41.0897V34.738H39.501Z" fill="#3D3D3D"/>
<path d="M39.501 33.1493V34.738H41.0897V33.1493H39.501Z" fill="#3D3D3D"/>
<path d="M39.501 41.0927V42.6814H41.0897V41.0927H39.501Z" fill="#2D2D2D"/>
<path d="M37.9121 39.5041V41.0928H39.5008V39.5041H37.9121Z" fill="#2D2D2D"/>
<path d="M37.9155 37.9154V39.5042H39.5042V37.9154H37.9155Z" fill="#3D3D3D"/>
<path d="M37.9121 36.3268V37.9155H39.5008V36.3268H37.9121Z" fill="#3D3D3D"/>
<path d="M37.9121 34.738V36.3267H39.5008V34.738H37.9121Z" fill="#3D3D3D"/>
<path d="M37.9121 33.1493V34.738H39.5008V33.1493H37.9121Z" fill="#3D3D3D"/>
<path d="M37.9121 41.0927V42.6814H39.5008V41.0927H37.9121Z" fill="#3D3D3D"/>
<path d="M36.3237 39.5041V41.0928H37.9124V39.5041H36.3237Z" fill="#2D2D2D"/>
<path d="M36.3237 37.9154V39.5042H37.9124V37.9154H36.3237Z" fill="#3D3D3D"/>
<path d="M36.3271 36.3268V37.9155H37.9159V36.3268H36.3271Z" fill="#3D3D3D"/>
<path d="M36.3237 34.738V36.3267H37.9124V34.738H36.3237Z" fill="#3D3D3D"/>
<path d="M36.3237 33.1493V34.738H37.9124V33.1493H36.3237Z" fill="#3D3D3D"/>
<path d="M36.3237 41.0927V42.6814H37.9124V41.0927H36.3237Z" fill="#2D2D2D"/>
<path d="M34.7349 39.5041V41.0928H36.3236V39.5041H34.7349Z" fill="#2D2D2D"/>
<path d="M34.7349 37.9154V39.5042H36.3236V37.9154H34.7349Z" fill="#3D3D3D"/>
<path d="M34.7349 36.3268V37.9155H36.3236V36.3268H34.7349Z" fill="#3D3D3D"/>
<path d="M34.7383 34.738V36.3267H36.327V34.738H34.7383Z" fill="#3D3D3D"/>
<path d="M34.7349 33.1493V34.738H36.3236V33.1493H34.7349Z" fill="#3D3D3D"/>
<path d="M34.7349 41.0927V42.6814H36.3236V41.0927H34.7349Z" fill="#2D2D2D"/>
<path d="M33.146 39.5041V41.0928H34.7347V39.5041H33.146Z" fill="#2D2D2D"/>
<path d="M33.146 37.9154V39.5042H34.7347V37.9154H33.146Z" fill="#3D3D3D"/>
<path d="M33.146 36.3268V37.9155H34.7347V36.3268H33.146Z" fill="#3D3D3D"/>
<path d="M33.146 34.738V36.3267H34.7347V34.738H33.146Z" fill="#3D3D3D"/>
<path d="M33.1499 33.1527V34.7415H34.7386V33.1527H33.1499Z" fill="#3D3D3D"/>
<path d="M33.1499 41.0927V42.6814H34.7386V41.0927H33.1499Z" fill="#2D2D2D"/>
<path d="M31.561 39.5006V41.0894H33.1497V39.5006H31.561Z" fill="#2D2D2D"/>
<path d="M31.561 37.912V39.5007H33.1497V37.912H31.561Z" fill="#2D2D2D"/>
<path d="M31.5576 36.3268V37.9155H33.1463V36.3268H31.5576Z" fill="#3D3D3D"/>
<path d="M31.561 41.0927V42.6814H33.1497V41.0927H31.561Z" fill="#2D2D2D"/>
<path d="M29.9722 39.5006V41.0894H31.5609V39.5006H29.9722Z" fill="#2D2D2D"/>
<path d="M29.9722 37.9154V39.5042H31.5609V37.9154H29.9722Z" fill="#2D2D2D"/>
<path d="M29.9688 36.3268V37.9155H31.5575V36.3268H29.9688Z" fill="#3D3D3D"/>
<path d="M29.9722 41.0895V42.6782H31.5609V41.0895H29.9722Z" fill="#2D2D2D"/>
<path d="M28.3838 39.5006V41.0894H29.9725V39.5006H28.3838Z" fill="#181919"/>
<path d="M28.3838 37.9154V39.5042H29.9725V37.9154H28.3838Z" fill="#181919"/>
<path d="M28.3838 36.3268V37.9155H29.9725V36.3268H28.3838Z" fill="#3D3D3D"/>
<path d="M28.3838 41.0895V42.6782H29.9725V41.0895H28.3838Z" fill="#181919"/>
<path d="M44.2671 42.6816V44.2703H45.8558V42.6816H44.2671Z" fill="#181919"/>
<path d="M42.6787 42.6816V44.2703H44.2674V42.6816H42.6787Z" fill="#181919"/>
<path d="M41.0898 42.6816V44.2703H42.6786V42.6816H41.0898Z" fill="#181919"/>
<path d="M39.5049 42.685V44.2737H41.0936V42.685H39.5049Z" fill="#181919"/>
<path d="M37.9155 42.685V44.2737H39.5042V42.685H37.9155Z" fill="#181919"/>
<path d="M36.3271 42.685V44.2737H37.9159V42.685H36.3271Z" fill="#181919"/>
<path d="M34.7383 42.685V44.2737H36.327V42.685H34.7383Z" fill="#181919"/>
<path d="M33.1499 42.685V44.2737H34.7386V42.685H33.1499Z" fill="#181919"/>
<path d="M31.561 42.685V44.2737H33.1497V42.685H31.561Z" fill="#181919"/>
<path d="M29.9722 42.6816V44.2703H31.5609V42.6816H29.9722Z" fill="#181919"/>
<path d="M28.3838 42.6816V44.2703H29.9725V42.6816H28.3838Z" fill="#181919"/>
<path d="M44.2671 44.2738V45.8625H45.8558V44.2738H44.2671Z" fill="#181919"/>
<path d="M42.6787 44.2738V45.8625H44.2674V44.2738H42.6787Z" fill="#181919"/>
<path d="M41.0898 44.2738V45.8625H42.6786V44.2738H41.0898Z" fill="#181919"/>
<path d="M39.501 44.2738V45.8625H41.0897V44.2738H39.501Z" fill="#181919"/>
<path d="M37.9121 44.2738V45.8625H39.5008V44.2738H37.9121Z" fill="#181919"/>
<path d="M36.3237 44.2738V45.8625H37.9124V44.2738H36.3237Z" fill="#181919"/>
<path d="M34.7349 44.2738V45.8625H36.3236V44.2738H34.7349Z" fill="#181919"/>
<path d="M33.146 44.2738V45.8625H34.7347V44.2738H33.146Z" fill="#181919"/>
<path d="M31.5576 44.2773V45.866H33.1463V44.2773H31.5576Z" fill="#181919"/>
<path d="M29.9688 44.2738V45.8625H31.5575V44.2738H29.9688Z" fill="#181919"/>
<path d="M41.0898 45.859V47.4478H42.6785V45.859H41.0898Z" fill="#181919"/>
<path d="M39.501 45.859V47.4478H41.0897V45.859H39.501Z" fill="#181919"/>
<path d="M37.9155 45.859V47.4478H39.5042V45.859H37.9155Z" fill="#181919"/>
<path d="M36.3271 45.859V47.4478H37.9159V45.859H36.3271Z" fill="#181919"/>
<path d="M34.7383 45.859V47.4478H36.327V45.859H34.7383Z" fill="#181919"/>
<path d="M33.1499 45.859V47.4478H34.7386V45.859H33.1499Z" fill="#181919"/>
<path d="M41.0898 47.4477V49.0364H42.6786V47.4477H41.0898Z" fill="#181919"/>
<path d="M39.501 47.4477V49.0364H41.0897V47.4477H39.501Z" fill="#181919"/>
<path d="M37.9121 47.4477V49.0364H39.5008V47.4477H37.9121Z" fill="#181919"/>
<path d="M36.3237 47.4477V49.0364H37.9124V47.4477H36.3237Z" fill="#181919"/>
<path d="M34.7349 47.4511V49.0398H36.3236V47.4511H34.7349Z" fill="#181919"/>
<path d="M33.146 47.4511V49.0398H34.7347V47.4511H33.146Z" fill="#181919"/>
<path d="M31.561 45.859V47.4478H33.1497V45.859H31.561Z" fill="#181919"/>
<path d="M29.9722 45.8556V47.4443H31.5609V45.8556H29.9722Z" fill="#181919"/>
<path d="M28.3804 44.2738V45.8625H29.9691V44.2738H28.3804Z" fill="#181919"/>
<path d="M26.7944 39.5041V41.0928H28.3831V39.5041H26.7944Z" fill="#181919"/>
<path d="M26.7944 37.9154V39.5042H28.3831V37.9154H26.7944Z" fill="#181919"/>
<path d="M26.7944 36.3268V37.9155H28.3831V36.3268H26.7944Z" fill="#3D3D3D"/>
<path d="M31.5576 34.7414V36.3301H33.1463V34.7414H31.5576Z" fill="#3D3D3D"/>
<path d="M29.9688 34.738V36.3267H31.5575V34.738H29.9688Z" fill="#3D3D3D"/>
<path d="M28.3804 34.738V36.3267H29.9691V34.738H28.3804Z" fill="#3D3D3D"/>
<path d="M26.7944 34.738V36.3267H28.3831V34.738H26.7944Z" fill="#3D3D3D"/>
<path d="M25.2061 36.3268V37.9155H26.7948V36.3268H25.2061Z" fill="#3D3D3D"/>
<path d="M23.6172 36.3268V37.9155H25.2059V36.3268H23.6172Z" fill="#3D3D3D"/>
<path d="M25.2061 34.738V36.3267H26.7948V34.738H25.2061Z" fill="#3D3D3D"/>
<path d="M23.6172 34.738V36.3267H25.2059V34.738H23.6172Z" fill="#3D3D3D"/>
<path d="M29.9722 33.1493V34.738H31.5609V33.1493H29.9722Z" fill="#3D3D3D"/>
<path d="M31.5576 33.1527V34.7415H33.1463V33.1527H31.5576Z" fill="#3D3D3D"/>
<path d="M28.3838 33.1493V34.738H29.9725V33.1493H28.3838Z" fill="#3D3D3D"/>
<path d="M26.7944 33.1527V34.7415H28.3831V33.1527H26.7944Z" fill="#3D3D3D"/>
<path d="M25.2061 33.1527V34.7415H26.7948V33.1527H25.2061Z" fill="#3D3D3D"/>
<path d="M23.6172 33.1527V34.7415H25.2059V33.1527H23.6172Z" fill="#3D3D3D"/>
<path d="M22.0288 36.3268V37.9155H23.6175V36.3268H22.0288Z" fill="#3D3D3D"/>
<path d="M22.0288 34.738V36.3267H23.6175V34.738H22.0288Z" fill="#3D3D3D"/>
<path d="M22.0288 33.1493V34.738H23.6175V33.1493H22.0288Z" fill="#3D3D3D"/>
<path d="M20.4399 33.1493V34.738H22.0286V33.1493H20.4399Z" fill="#3D3D3D"/>
<path d="M22.0288 31.5607V33.1494H23.6175V31.5607H22.0288Z" fill="#3D3D3D"/>
<path d="M20.4399 31.5607V33.1494H22.0286V31.5607H20.4399Z" fill="#3D3D3D"/>
<path d="M44.2671 31.5607V33.1494H45.8558V31.5607H44.2671Z" fill="#2D2D2D"/>
<path d="M44.2637 29.9718V31.5605H45.8524V29.9718H44.2637Z" fill="#2D2D2D"/>
<path d="M42.6787 31.5607V33.1494H44.2674V31.5607H42.6787Z" fill="#3D3D3D"/>
<path d="M42.6787 29.9718V31.5605H44.2674V29.9718H42.6787Z" fill="#3D3D3D"/>
<path d="M41.0898 31.5607V33.1494H42.6786V31.5607H41.0898Z" fill="#3D3D3D"/>
<path d="M41.0898 29.9718V31.5605H42.6786V29.9718H41.0898Z" fill="#2D2D2D"/>
<path d="M39.501 31.5607V33.1494H41.0897V31.5607H39.501Z" fill="#3D3D3D"/>
<path d="M39.501 29.9718V31.5605H41.0897V29.9718H39.501Z" fill="#3D3D3D"/>
<path d="M37.9121 31.5607V33.1494H39.5008V31.5607H37.9121Z" fill="#3D3D3D"/>
<path d="M37.9121 29.9718V31.5605H39.5008V29.9718H37.9121Z" fill="#3D3D3D"/>
<path d="M44.2671 28.3869V29.9756H45.8558V28.3869H44.2671Z" fill="#2D2D2D"/>
<path d="M42.6787 28.3869V29.9756H44.2674V28.3869H42.6787Z" fill="#3D3D3D"/>
<path d="M41.0898 28.3869V29.9756H42.6786V28.3869H41.0898Z" fill="#3D3D3D"/>
<path d="M39.501 28.3869V29.9756H41.0897V28.3869H39.501Z" fill="#3D3D3D"/>
<path d="M37.9121 28.3869V29.9756H39.5008V28.3869H37.9121Z" fill="#3D3D3D"/>
<path d="M41.0898 26.7978V28.3865H42.6786V26.7978H41.0898Z" fill="#3D3D3D"/>
<path d="M39.501 26.7978V28.3865H41.0897V26.7978H39.501Z" fill="#3D3D3D"/>
<path d="M37.9121 26.7978V28.3865H39.5008V26.7978H37.9121Z" fill="#3D3D3D"/>
<path d="M36.3237 31.5607V33.1494H37.9124V31.5607H36.3237Z" fill="#3D3D3D"/>
<path d="M36.3237 29.9755V31.5642H37.9124V29.9755H36.3237Z" fill="#3D3D3D"/>
<path d="M34.7349 31.5641V33.1528H36.3236V31.5641H34.7349Z" fill="#3D3D3D"/>
<path d="M34.7349 29.9755V31.5642H36.3236V29.9755H34.7349Z" fill="#3D3D3D"/>
<path d="M33.146 31.5641V33.1528H34.7347V31.5641H33.146Z" fill="#3D3D3D"/>
<path d="M31.561 31.5641V33.1528H33.1497V31.5641H31.561Z" fill="#3D3D3D"/>
<path d="M29.9688 31.5607V33.1494H31.5575V31.5607H29.9688Z" fill="#3D3D3D"/>
<path d="M28.3804 31.5607V33.1494H29.9691V31.5607H28.3804Z" fill="#3D3D3D"/>
<path d="M33.146 29.9755V31.5642H34.7347V29.9755H33.146Z" fill="#3D3D3D"/>
<path d="M31.5576 29.9755V31.5642H33.1463V29.9755H31.5576Z" fill="#3D3D3D"/>
<path d="M29.9722 29.9718V31.5605H31.5609V29.9718H29.9722Z" fill="#3D3D3D"/>
<path d="M28.3804 29.9718V31.5605H29.9691V29.9718H28.3804Z" fill="#3D3D3D"/>
<path d="M26.7915 31.5607V33.1494H28.3802V31.5607H26.7915Z" fill="#3D3D3D"/>
<path d="M25.2031 31.5607V33.1494H26.7918V31.5607H25.2031Z" fill="#3D3D3D"/>
<path d="M26.7915 29.9718V31.5605H28.3802V29.9718H26.7915Z" fill="#3D3D3D"/>
<path d="M25.2031 29.9718V31.5605H26.7918V29.9718H25.2031Z" fill="#3D3D3D"/>
<path d="M23.6172 31.5607V33.1494H25.2059V31.5607H23.6172Z" fill="#3D3D3D"/>
<path d="M23.6138 29.9718V31.5605H25.2025V29.9718H23.6138Z" fill="#3D3D3D"/>
<path d="M36.3237 28.3869V29.9756H37.9124V28.3869H36.3237Z" fill="#3D3D3D"/>
<path d="M36.3237 26.7978V28.3865H37.9124V26.7978H36.3237Z" fill="#3D3D3D"/>
<path d="M34.7349 28.3869V29.9756H36.3236V28.3869H34.7349Z" fill="#3D3D3D"/>
<path d="M34.7349 26.7978V28.3865H36.3236V26.7978H34.7349Z" fill="#3D3D3D"/>
<path d="M33.146 28.3869V29.9756H34.7347V28.3869H33.146Z" fill="#3D3D3D"/>
<path d="M33.146 26.8014V28.3901H34.7347V26.8014H33.146Z" fill="#3D3D3D"/>
<path d="M31.5576 28.3901V29.9788H33.1463V28.3901H31.5576Z" fill="#3D3D3D"/>
<path d="M31.5576 26.8014V28.3901H33.1463V26.8014H31.5576Z" fill="#3D3D3D"/>
<path d="M29.9688 28.3869V29.9756H31.5575V28.3869H29.9688Z" fill="#3D3D3D"/>
<path d="M29.9688 26.7978V28.3865H31.5575V26.7978H29.9688Z" fill="#3D3D3D"/>
<path d="M28.3804 28.3869V29.9756H29.9691V28.3869H28.3804Z" fill="#3D3D3D"/>
<path d="M28.3804 26.7978V28.3865H29.9691V26.7978H28.3804Z" fill="#3D3D3D"/>
<path d="M26.7915 28.3869V29.9756H28.3802V28.3869H26.7915Z" fill="#3D3D3D"/>
<path d="M26.7915 26.7978V28.3865H28.3802V26.7978H26.7915Z" fill="#3D3D3D"/>
<path d="M25.2061 28.3869V29.9756H26.7948V28.3869H25.2061Z" fill="#3D3D3D"/>
<path d="M23.6172 28.3869V29.9756H25.2059V28.3869H23.6172Z" fill="#3D3D3D"/>
<path d="M22.0288 28.3869V29.9756H23.6175V28.3869H22.0288Z" fill="#3D3D3D"/>
<path d="M20.4399 28.3869V29.9756H22.0286V28.3869H20.4399Z" fill="#3D3D3D"/>
<path d="M25.2031 26.7978V28.3865H26.7918V26.7978H25.2031Z" fill="#3D3D3D"/>
<path d="M23.6172 26.7978V28.3865H25.2059V26.7978H23.6172Z" fill="#3D3D3D"/>
<path d="M22.0288 26.7978V28.3865H23.6175V26.7978H22.0288Z" fill="#3D3D3D"/>
<path d="M20.4399 26.7978V28.3865H22.0286V26.7978H20.4399Z" fill="#3D3D3D"/>
<path d="M18.8511 28.3869V29.9756H20.4398V28.3869H18.8511Z" fill="#3D3D3D"/>
<path d="M17.2627 28.3869V29.9756H18.8514V28.3869H17.2627Z" fill="#3D3D3D"/>
<path d="M18.8511 26.7978V28.3865H20.4398V26.7978H18.8511Z" fill="#3D3D3D"/>
<path d="M17.2627 26.7978V28.3865H18.8514V26.7978H17.2627Z" fill="#3D3D3D"/>
<path d="M15.6738 28.3869V29.9756H17.2625V28.3869H15.6738Z" fill="#3D3D3D"/>
<path d="M22.0288 29.9718V31.5605H23.6175V29.9718H22.0288Z" fill="#3D3D3D"/>
<path d="M20.4399 29.9718V31.5605H22.0286V29.9718H20.4399Z" fill="#3D3D3D"/>
<path d="M18.8511 29.9718V31.5605H20.4398V29.9718H18.8511Z" fill="#3D3D3D"/>
<path d="M17.2627 29.9718V31.5605H18.8514V29.9718H17.2627Z" fill="#3D3D3D"/>
<path d="M15.6738 29.9755V31.5642H17.2625V29.9755H15.6738Z" fill="#3D3D3D"/>
<path d="M14.0854 29.9755V31.5642H15.6742V29.9755H14.0854Z" fill="#3D3D3D"/>
<path d="M12.4966 29.9755V31.5642H14.0853V29.9755H12.4966Z" fill="#3D3D3D"/>
<path d="M10.9082 29.9755V31.5642H12.4969V29.9755H10.9082Z" fill="#2D2D2D"/>
<path d="M9.31885 29.9718V31.5605H10.9076V29.9718H9.31885Z" fill="#2D2D2D"/>
<path d="M9.31885 28.3869V29.9756H10.9076V28.3869H9.31885Z" fill="#2D2D2D"/>
<path d="M9.31885 26.7978V28.3865H10.9076V26.7978H9.31885Z" fill="#2D2D2D"/>
<path d="M7.73047 29.9718V31.5605H9.31918V29.9718H7.73047Z" fill="#2D2D2D"/>
<path d="M15.6738 26.7978V28.3865H17.2625V26.7978H15.6738Z" fill="#3D3D3D"/>
<path d="M14.0854 28.3869V29.9756H15.6742V28.3869H14.0854Z" fill="#3D3D3D"/>
<path d="M12.4966 28.3869V29.9756H14.0853V28.3869H12.4966Z" fill="#3D3D3D"/>
<path d="M14.0854 26.7978V28.3865H15.6742V26.7978H14.0854Z" fill="#3D3D3D"/>
<path d="M12.4966 26.8014V28.3901H14.0853V26.8014H12.4966Z" fill="#3D3D3D"/>
<path d="M10.9082 28.3901V29.9788H12.4969V28.3901H10.9082Z" fill="#2D2D2D"/>
<path d="M10.9082 26.8014V28.3901H12.4969V26.8014H10.9082Z" fill="#2D2D2D"/>
<path d="M26.7944 41.0895V42.6782H28.3831V41.0895H26.7944Z" fill="#181919"/>
<path d="M23.6172 39.5041V41.0928H25.2059V39.5041H23.6172Z" fill="#181919"/>
<path d="M23.6172 37.9154V39.5042H25.2059V37.9154H23.6172Z" fill="#181919"/>
<path d="M23.6172 41.0927V42.6814H25.2059V41.0927H23.6172Z" fill="#181919"/>
<path d="M22.0288 39.5041V41.0928H23.6175V39.5041H22.0288Z" fill="#181919"/>
<path d="M22.0288 37.9154V39.5042H23.6175V37.9154H22.0288Z" fill="#181919"/>
<path d="M22.0288 41.0927V42.6814H23.6175V41.0927H22.0288Z" fill="#181919"/>
<path d="M22.0288 42.6816V44.2703H23.6175V42.6816H22.0288Z" fill="#181919"/>
<path d="M22.0288 44.2738V45.8625H23.6175V44.2738H22.0288Z" fill="#181919"/>
<path d="M20.4399 45.859V47.4478H22.0286V45.859H20.4399Z" fill="#181919"/>
<path d="M18.855 45.859V47.4478H20.4437V45.859H18.855Z" fill="#181919"/>
<path d="M20.4399 39.5041V41.0928H22.0286V39.5041H20.4399Z" fill="#2D2D2D"/>
<path d="M20.4399 37.9154V39.5042H22.0286V37.9154H20.4399Z" fill="#2D2D2D"/>
<path d="M20.4399 41.0927V42.6814H22.0286V41.0927H20.4399Z" fill="#2D2D2D"/>
<path d="M18.8511 39.5041V41.0928H20.4398V39.5041H18.8511Z" fill="#3D3D3D"/>
<path d="M18.8511 37.9154V39.5042H20.4398V37.9154H18.8511Z" fill="#3D3D3D"/>
<path d="M18.8511 41.0927V42.6814H20.4398V41.0927H18.8511Z" fill="#2D2D2D"/>
<path d="M17.2627 39.5041V41.0928H18.8514V39.5041H17.2627Z" fill="#2D2D2D"/>
<path d="M17.2627 37.9154V39.5042H18.8514V37.9154H17.2627Z" fill="#3D3D3D"/>
<path d="M17.2627 41.0927V42.6814H18.8514V41.0927H17.2627Z" fill="#2D2D2D"/>
<path d="M15.6738 39.5041V41.0928H17.2625V39.5041H15.6738Z" fill="#3D3D3D"/>
<path d="M15.6738 37.9154V39.5042H17.2625V37.9154H15.6738Z" fill="#2D2D2D"/>
<path d="M15.6738 41.0927V42.6814H17.2625V41.0927H15.6738Z" fill="#2D2D2D"/>
<path d="M14.0854 39.5041V41.0928H15.6742V39.5041H14.0854Z" fill="#3D3D3D"/>
<path d="M14.0854 37.9154V39.5042H15.6742V37.9154H14.0854Z" fill="#3D3D3D"/>
<path d="M14.0889 41.0927V42.6814H15.6776V41.0927H14.0889Z" fill="#2D2D2D"/>
<path d="M12.4995 39.5041V41.0928H14.0882V39.5041H12.4995Z" fill="#2D2D2D"/>
<path d="M12.4966 37.9154V39.5042H14.0853V37.9154H12.4966Z" fill="#2D2D2D"/>
<path d="M12.4995 41.0927V42.6814H14.0882V41.0927H12.4995Z" fill="#2D2D2D"/>
<path d="M10.9111 39.5006V41.0894H12.4998V39.5006H10.9111Z" fill="#2D2D2D"/>
<path d="M10.9111 37.912V39.5007H12.4998V37.912H10.9111Z" fill="#2D2D2D"/>
<path d="M10.9111 41.0895V42.6782H12.4998V41.0895H10.9111Z" fill="#2D2D2D"/>
<path d="M9.32227 39.5006V41.0894H10.911V39.5006H9.32227Z" fill="#2D2D2D"/>
<path d="M9.32227 37.912V39.5007H10.911V37.912H9.32227Z" fill="#2D2D2D"/>
<path d="M9.32227 41.0895V42.6782H10.911V41.0895H9.32227Z" fill="#2D2D2D"/>
<path d="M7.73389 39.5006V41.0894H9.32259V39.5006H7.73389Z" fill="#2D2D2D"/>
<path d="M7.73389 37.9154V39.5042H9.32259V37.9154H7.73389Z" fill="#2D2D2D"/>
<path d="M7.73389 41.0895V42.6782H9.32259V41.0895H7.73389Z" fill="#2D2D2D"/>
<path d="M6.14502 39.5041V41.0928H7.73373V39.5041H6.14502Z" fill="#181919"/>
<path d="M6.14502 37.9154V39.5042H7.73373V37.9154H6.14502Z" fill="#181919"/>
<path d="M6.14502 41.0895V42.6782H7.73373V41.0895H6.14502Z" fill="#181919"/>
<path d="M4.55664 39.5041V41.0928H6.14535V39.5041H4.55664Z" fill="#181919"/>
<path d="M4.55664 37.9154V39.5042H6.14535V37.9154H4.55664Z" fill="#181919"/>
<path d="M4.55664 41.0927V42.6814H6.14535V41.0927H4.55664Z" fill="#181919"/>
<path d="M20.4434 42.6816V44.2703H22.0321V42.6816H20.4434Z" fill="#181919"/>
<path d="M18.855 42.685V44.2737H20.4437V42.685H18.855Z" fill="#181919"/>
<path d="M17.2661 42.685V44.2737H18.8548V42.685H17.2661Z" fill="#181919"/>
<path d="M15.6772 42.685V44.2737H17.266V42.685H15.6772Z" fill="#181919"/>
<path d="M14.0889 42.685V44.2737H15.6776V42.685H14.0889Z" fill="#181919"/>
<path d="M12.4995 42.685V44.2737H14.0882V42.685H12.4995Z" fill="#181919"/>
<path d="M10.9111 42.6816V44.2703H12.4998V42.6816H10.9111Z" fill="#181919"/>
<path d="M9.32227 42.6816V44.2703H10.911V42.6816H9.32227Z" fill="#181919"/>
<path d="M7.73389 42.6816V44.2703H9.32259V42.6816H7.73389Z" fill="#181919"/>
<path d="M6.14502 42.6816V44.2703H7.73373V42.6816H6.14502Z" fill="#181919"/>
<path d="M4.55664 42.6816V44.2703H6.14535V42.6816H4.55664Z" fill="#181919"/>
<path d="M20.4399 44.2738V45.8625H22.0286V44.2738H20.4399Z" fill="#181919"/>
<path d="M18.8511 44.2738V45.8625H20.4398V44.2738H18.8511Z" fill="#181919"/>
<path d="M17.2627 44.2738V45.8625H18.8514V44.2738H17.2627Z" fill="#181919"/>
<path d="M15.6738 44.2738V45.8625H17.2625V44.2738H15.6738Z" fill="#181919"/>
<path d="M14.0854 44.2738V45.8625H15.6742V44.2738H14.0854Z" fill="#181919"/>
<path d="M10.9082 44.2738V45.8625H12.4969V44.2738H10.9082Z" fill="#181919"/>
<path d="M12.4966 44.2738V45.8625H14.0853V44.2738H12.4966Z" fill="#181919"/>
<path d="M9.31885 44.2738V45.8625H10.9076V44.2738H9.31885Z" fill="#181919"/>
<path d="M7.73047 44.2738V45.8625H9.31918V44.2738H7.73047Z" fill="#181919"/>
<path d="M6.14502 44.2738V45.8625H7.73373V44.2738H6.14502Z" fill="#181919"/>
<path d="M17.2661 45.859V47.4478H18.8548V45.859H17.2661Z" fill="#181919"/>
<path d="M15.6772 45.859V47.4478H17.2659V45.859H15.6772Z" fill="#181919"/>
<path d="M14.0889 45.859V47.4478H15.6776V45.859H14.0889Z" fill="#181919"/>
<path d="M12.4995 45.859V47.4478H14.0882V45.859H12.4995Z" fill="#181919"/>
<path d="M10.9111 45.8556V47.4443H12.4998V45.8556H10.9111Z" fill="#181919"/>
<path d="M9.32227 45.8556V47.4443H10.911V45.8556H9.32227Z" fill="#181919"/>
<path d="M17.2627 47.4477V49.0364H18.8514V47.4477H17.2627Z" fill="#181919"/>
<path d="M15.6738 47.4477V49.0364H17.2625V47.4477H15.6738Z" fill="#181919"/>
<path d="M14.0854 47.4511V49.0398H15.6742V47.4511H14.0854Z" fill="#181919"/>
<path d="M12.4966 47.4511V49.0398H14.0853V47.4511H12.4966Z" fill="#181919"/>
<path d="M10.9082 47.4477V49.0364H12.4969V47.4477H10.9082Z" fill="#181919"/>
<path d="M9.31885 47.4477V49.0364H10.9076V47.4477H9.31885Z" fill="#181919"/>
<path d="M7.73389 45.8556V47.4443H9.32259V45.8556H7.73389Z" fill="#181919"/>
<path d="M6.14502 45.8556V47.4443H7.73372V45.8556H6.14502Z" fill="#181919"/>
<path d="M4.55664 44.2738V45.8625H6.14535V44.2738H4.55664Z" fill="#181919"/>
<path d="M2.96777 39.5041V41.0928H4.55648V39.5041H2.96777Z" fill="#181919"/>
<path d="M2.96777 37.9154V39.5042H4.55648V37.9154H2.96777Z" fill="#181919"/>
<path d="M20.4399 36.3268V37.9155H22.0286V36.3268H20.4399Z" fill="#3D3D3D"/>
<path d="M20.4399 34.738V36.3267H22.0286V34.738H20.4399Z" fill="#3D3D3D"/>
<path d="M18.8511 36.3268V37.9155H20.4398V36.3268H18.8511Z" fill="#3D3D3D"/>
<path d="M18.8511 34.738V36.3267H20.4398V34.738H18.8511Z" fill="#3D3D3D"/>
<path d="M17.2627 36.3268V37.9155H18.8514V36.3268H17.2627Z" fill="#3D3D3D"/>
<path d="M17.2627 34.738V36.3267H18.8514V34.738H17.2627Z" fill="#3D3D3D"/>
<path d="M15.6738 36.3268V37.9155H17.2625V36.3268H15.6738Z" fill="#3D3D3D"/>
<path d="M15.6738 34.738V36.3267H17.2625V34.738H15.6738Z" fill="#3D3D3D"/>
<path d="M14.0854 36.3268V37.9155H15.6742V36.3268H14.0854Z" fill="#3D3D3D"/>
<path d="M14.0854 34.738V36.3267H15.6742V34.738H14.0854Z" fill="#3D3D3D"/>
<path d="M12.4966 36.3268V37.9155H14.0853V36.3268H12.4966Z" fill="#3D3D3D"/>
<path d="M12.4966 34.738V36.3267H14.0853V34.738H12.4966Z" fill="#3D3D3D"/>
<path d="M10.9082 36.3234V37.9121H12.4969V36.3234H10.9082Z" fill="#2D2D2D"/>
<path d="M10.9082 34.738V36.3267H12.4969V34.738H10.9082Z" fill="#2D2D2D"/>
<path d="M9.32227 36.3268V37.9155H10.911V36.3268H9.32227Z" fill="#2D2D2D"/>
<path d="M9.31885 34.738V36.3267H10.9076V34.738H9.31885Z" fill="#2D2D2D"/>
<path d="M7.73389 36.3268V37.9155H9.32259V36.3268H7.73389Z" fill="#2D2D2D"/>
<path d="M7.73389 34.738V36.3267H9.32259V34.738H7.73389Z" fill="#2D2D2D"/>
<path d="M6.14502 36.3268V37.9155H7.73372V36.3268H6.14502Z" fill="#181919"/>
<path d="M6.14502 34.738V36.3267H7.73373V34.738H6.14502Z" fill="#181919"/>
<path d="M4.55664 36.3268V37.9155H6.14535V36.3268H4.55664Z" fill="#181919"/>
<path d="M4.55664 34.738V36.3267H6.14535V34.738H4.55664Z" fill="#181919"/>
<path d="M2.96777 36.3268V37.9155H4.55648V36.3268H2.96777Z" fill="#181919"/>
<path d="M2.96777 34.738V36.3267H4.55648V34.738H2.96777Z" fill="#181919"/>
<path d="M18.8511 33.1493V34.738H20.4398V33.1493H18.8511Z" fill="#3D3D3D"/>
<path d="M17.2627 33.1493V34.738H18.8514V33.1493H17.2627Z" fill="#3D3D3D"/>
<path d="M15.6738 33.1493V34.738H17.2625V33.1493H15.6738Z" fill="#3D3D3D"/>
<path d="M14.0854 33.1493V34.738H15.6742V33.1493H14.0854Z" fill="#3D3D3D"/>
<path d="M12.4966 33.1527V34.7415H14.0853V33.1527H12.4966Z" fill="#3D3D3D"/>
<path d="M10.9082 33.1493V34.738H12.4969V33.1493H10.9082Z" fill="#2D2D2D"/>
<path d="M9.31885 33.1493V34.738H10.9076V33.1493H9.31885Z" fill="#2D2D2D"/>
<path d="M7.73047 33.1493V34.738H9.31918V33.1493H7.73047Z" fill="#2D2D2D"/>
<path d="M6.14502 33.1493V34.738H7.73373V33.1493H6.14502Z" fill="#181919"/>
<path d="M4.55664 33.1493V34.738H6.14535V33.1493H4.55664Z" fill="#181919"/>
<path d="M18.8511 31.5607V33.1494H20.4398V31.5607H18.8511Z" fill="#3D3D3D"/>
<path d="M17.2627 31.5607V33.1494H18.8514V31.5607H17.2627Z" fill="#3D3D3D"/>
<path d="M15.6738 31.5607V33.1494H17.2625V31.5607H15.6738Z" fill="#3D3D3D"/>
<path d="M14.0854 31.5641V33.1528H15.6742V31.5641H14.0854Z" fill="#3D3D3D"/>
<path d="M12.4966 31.5641V33.1528H14.0853V31.5641H12.4966Z" fill="#3D3D3D"/>
<path d="M10.9082 31.5607V33.1494H12.4969V31.5607H10.9082Z" fill="#2D2D2D"/>
<path d="M9.31885 31.5607V33.1494H10.9076V31.5607H9.31885Z" fill="#2D2D2D"/>
<path d="M7.73047 31.5607V33.1494H9.31918V31.5607H7.73047Z" fill="#2D2D2D"/>
<path d="M6.1416 31.5607V33.1494H7.73031V31.5607H6.1416Z" fill="#181919"/>
<path d="M4.55664 31.5607V33.1494H6.14535V31.5607H4.55664Z" fill="#181919"/>
<path d="M6.14502 29.9755V31.5642H7.73372V29.9755H6.14502Z" fill="#181919"/>
<path d="M7.73389 28.3832V29.9719H9.32259V28.3832H7.73389Z" fill="#2D2D2D"/>
<path d="M6.14502 28.3869V29.9756H7.73373V28.3869H6.14502Z" fill="#181919"/>
<path d="M4.55664 29.9755V31.5642H6.14535V29.9755H4.55664Z" fill="#181919"/>
<path d="M2.96777 33.1493V34.738H4.55648V33.1493H2.96777Z" fill="#181919"/>
<path d="M2.96777 41.0927V42.6814H4.55648V41.0927H2.96777Z" fill="#181919"/>
<path d="M25.8022 26.3464V27.9351H27.391V26.3464H25.8022Z" fill="#AAAAAA"/>
<path d="M24.2134 26.3429V27.9316H25.8021V26.3429H24.2134Z" fill="#AAAAAA"/>
<path d="M24.2134 24.7543V26.343H25.8021V24.7543H24.2134Z" fill="#AAAAAA"/>
<path d="M25.8022 24.7543V26.343H27.391V24.7543H25.8022Z" fill="#AAAAAA"/>
<path d="M27.3906 26.3464V27.9351H28.9793V26.3464H27.3906Z" fill="#AAAAAA"/>
<path d="M27.3906 24.7577V26.3464H28.9793V24.7577H27.3906Z" fill="#AAAAAA"/>
<path d="M25.8022 29.5204V31.1091H27.391V29.5204H25.8022Z" fill="#AAAAAA"/>
<path d="M24.2168 29.5204V31.1091H25.8055V29.5204H24.2168Z" fill="#AAAAAA"/>
<path d="M24.2134 27.9318V29.5205H25.8021V27.9318H24.2134Z" fill="#AAAAAA"/>
<path d="M25.8022 27.9318V29.5205H27.391V27.9318H25.8022Z" fill="#AAAAAA"/>
<path d="M27.3906 29.5238V31.1125H28.9793V29.5238H27.3906Z" fill="#AAAAAA"/>
<path d="M27.3906 27.9318V29.5205H28.9793V27.9318H27.3906Z" fill="#AAAAAA"/>
<path d="M21.5942 22.0318V20.4431H20.0055V22.0318H21.5942Z" fill="black"/>
<path d="M23.1836 22.0318V20.4431H21.5949V22.0318H23.1836Z" fill="white"/>
<path d="M21.5942 23.6207V22.032H20.0055V23.6207H21.5942Z" fill="black"/>
<path d="M23.1836 23.6207V22.032H21.5949V23.6207H23.1836Z" fill="black"/>
<path d="M31.5576 22.0318V20.4431H29.9689V22.0318H31.5576Z" fill="black"/>
<path d="M33.146 22.0284V20.4397H31.5573V22.0284H33.146Z" fill="white"/>
<path d="M31.5576 23.6207V22.032H29.9689V23.6207H31.5576Z" fill="black"/>
<path d="M33.146 23.6173V22.0286H31.5573V23.6173H33.146Z" fill="black"/>
</g>
<defs>
<clipPath id="clip0_4252_13729">
<rect width="52" height="52" fill="white"/>
</clipPath>
</defs>
</svg>
