<svg width="20" height="20" viewBox="0 0 20 20" fill="none" xmlns="http://www.w3.org/2000/svg">
<g clip-path="url(#clip0_4166_162812)">
<path d="M20 2.85596H19.0437V7.61846H20V2.85596Z" fill="#000001"/>
<path d="M19.0437 7.6189H18.0938V9.52515H19.0437V7.6189Z" fill="#000001"/>
<path d="M19.0437 1.90601H18.0938V2.85601H19.0437V1.90601Z" fill="#000001"/>
<path d="M18.094 9.52515H17.144V10.4751H18.094V9.52515Z" fill="#000001"/>
<path d="M18.094 3.80615H17.144V5.7124H18.094V3.80615Z" fill="#000001"/>
<path d="M18.094 0.950195H17.144V1.90645H18.094V0.950195Z" fill="#000001"/>
<path d="M17.1435 2.85596H16.1873V3.80596H17.1435V2.85596Z" fill="#000001"/>
<path d="M16.1877 1.90601H14.2815V2.85601H16.1877V1.90601Z" fill="#000001"/>
<path d="M17.1436 0H12.3811V0.95H17.1436V0Z" fill="#000001"/>
<path d="M12.3813 0.950195H11.425V1.90645H12.3813V0.950195Z" fill="#000001"/>
<path d="M11.4253 1.90601H10.4753V2.85601H11.4253V1.90601Z" fill="#000001"/>
<path d="M10.4751 2.85596H9.52515V3.80596H10.4751V2.85596Z" fill="#000001"/>
<path d="M9.52485 1.90601H8.5686V2.85601H9.52485V1.90601Z" fill="#000001"/>
<path d="M8.5689 0.950195H7.6189V1.90645H8.5689V0.950195Z" fill="#000001"/>
<path d="M7.61846 0H2.85596V0.95H7.61846V0Z" fill="#000001"/>
<path d="M2.85625 9.52515H1.90625V10.4751H2.85625V9.52515Z" fill="#000001"/>
<path d="M2.85625 0.950195H1.90625V1.90645H2.85625V0.950195Z" fill="#000001"/>
<path d="M1.90645 7.6189H0.950195V9.52515H1.90645V7.6189Z" fill="#000001"/>
<path d="M1.90645 1.90601H0.950195V2.85601H1.90645V1.90601Z" fill="#000001"/>
<path d="M0.95 2.85596H0V7.61846H0.95V2.85596Z" fill="#000001"/>
<path d="M4.8399e-05 17.1125L0.956299 17.1125L0.956299 12.35L4.88153e-05 12.35L4.8399e-05 17.1125Z" fill="#000001"/>
<path d="M0.956251 12.3503L1.90625 12.3503L1.90625 10.4441L0.956251 10.4441L0.956251 12.3503Z" fill="#000001"/>
<path d="M0.956251 18.0627L1.90625 18.0627L1.90625 17.1127L0.956251 17.1127L0.956251 18.0627Z" fill="#000001"/>
<path d="M1.90645 10.4436L2.85645 10.4436L2.85645 9.4936L1.90645 9.4936L1.90645 10.4436Z" fill="#000001"/>
<path d="M1.90645 16.1628L2.85645 16.1628L2.85645 14.2566L1.90645 14.2566L1.90645 16.1628Z" fill="#000001"/>
<path d="M1.90596 19.019L2.85596 19.019L2.85596 18.0628L1.90596 18.0628L1.90596 19.019Z" fill="#000001"/>
<path d="M2.85649 17.1125L3.81274 17.1125L3.81274 16.1625L2.85649 16.1625L2.85649 17.1125Z" fill="#000001"/>
<path d="M3.81226 18.0627L5.71851 18.0627L5.71851 17.1127L3.81226 17.1127L3.81226 18.0627Z" fill="#000001"/>
<path d="M2.8564 19.969L7.6189 19.969L7.6189 19.019L2.8564 19.019L2.8564 19.969Z" fill="#000001"/>
<path d="M7.6187 19.019L8.57495 19.019L8.57495 18.0628L7.6187 18.0628L7.6187 19.019Z" fill="#000001"/>
<path d="M8.57515 18.0627L9.52515 18.0627L9.52515 17.1127L8.57515 17.1127L8.57515 18.0627Z" fill="#000001"/>
<path d="M9.52485 17.1125L10.4749 17.1125L10.4749 16.1625L9.52485 16.1625L9.52485 17.1125Z" fill="#000001"/>
<path d="M10.4751 18.0627L11.4314 18.0627L11.4314 17.1127L10.4751 17.1127L10.4751 18.0627Z" fill="#000001"/>
<path d="M11.4311 19.019L12.3811 19.019L12.3811 18.0628L11.4311 18.0628L11.4311 19.019Z" fill="#000001"/>
<path d="M12.3811 19.969L17.1436 19.969L17.1436 19.019L12.3811 19.019L12.3811 19.969Z" fill="#000001"/>
<path d="M17.1437 10.4436L18.0938 10.4436L18.0938 9.4936L17.1437 9.4936L17.1437 10.4436Z" fill="#000001"/>
<path d="M17.1437 19.019L18.0938 19.019L18.0938 18.0628L17.1437 18.0628L17.1437 19.019Z" fill="#000001"/>
<path d="M18.0936 12.3503L19.0498 12.3503L19.0498 10.4441L18.0936 10.4441L18.0936 12.3503Z" fill="#000001"/>
<path d="M18.0936 18.0627L19.0498 18.0627L19.0498 17.1127L18.0936 17.1127L18.0936 18.0627Z" fill="#000001"/>
<path d="M19.05 17.1125L20 17.1125L20 12.35L19.05 12.35L19.05 17.1125Z" fill="#000001"/>
</g>
<defs>
<clipPath id="clip0_4166_162812">
<rect width="20" height="20" fill="white"/>
</clipPath>
</defs>
</svg>
