<svg width="24" height="24" viewBox="0 0 24 24" fill="none" xmlns="http://www.w3.org/2000/svg">
<g opacity="0.2">
<g clip-path="url(#clip0_4166_75252)">
<path d="M22.0002 4.85596H21.0439V9.61846H22.0002V4.85596Z" fill="#000001"/>
<path d="M21.0437 9.6189H20.0938V11.5251H21.0437V9.6189Z" fill="#000001"/>
<path d="M21.0437 3.90601H20.0938V4.85601H21.0437V3.90601Z" fill="#000001"/>
<path d="M20.094 11.5251H19.144V12.4751H20.094V11.5251Z" fill="#000001"/>
<path d="M20.094 5.80615H19.144V7.7124H20.094V5.80615Z" fill="#000001"/>
<path d="M20.094 2.9502H19.144V3.90645H20.094V2.9502Z" fill="#000001"/>
<path d="M19.1438 4.85596H18.1875V5.80596H19.1438V4.85596Z" fill="#000001"/>
<path d="M18.1875 3.90601H16.2812V4.85601H18.1875V3.90601Z" fill="#000001"/>
<path d="M19.1438 2H14.3813V2.95H19.1438V2Z" fill="#000001"/>
<path d="M14.3811 2.9502H13.4248V3.90645H14.3811V2.9502Z" fill="#000001"/>
<path d="M13.4251 3.90601H12.4751V4.85601H13.4251V3.90601Z" fill="#000001"/>
<path d="M12.4754 4.85596H11.5254V5.80596H12.4754V4.85596Z" fill="#000001"/>
<path d="M11.5246 3.90601H10.5684V4.85601H11.5246V3.90601Z" fill="#000001"/>
<path d="M10.5687 2.9502H9.61865V3.90645H10.5687V2.9502Z" fill="#000001"/>
<path d="M9.61846 2H4.85596V2.95H9.61846V2Z" fill="#000001"/>
<path d="M4.85625 11.5251H3.90625V12.4751H4.85625V11.5251Z" fill="#000001"/>
<path d="M4.85625 2.9502H3.90625V3.90645H4.85625V2.9502Z" fill="#000001"/>
<path d="M3.90645 9.6189H2.9502V11.5251H3.90645V9.6189Z" fill="#000001"/>
<path d="M3.90645 3.90601H2.9502V4.85601H3.90645V3.90601Z" fill="#000001"/>
<path d="M2.95 4.85596H2V9.61846H2.95V4.85596Z" fill="#000001"/>
<path d="M1.9998 19.1125L2.95605 19.1125L2.95606 14.35L1.9998 14.35L1.9998 19.1125Z" fill="#000001"/>
<path d="M2.95625 14.3503L3.90625 14.3503L3.90625 12.4441L2.95625 12.4441L2.95625 14.3503Z" fill="#000001"/>
<path d="M2.95625 20.0627L3.90625 20.0627L3.90625 19.1127L2.95625 19.1127L2.95625 20.0627Z" fill="#000001"/>
<path d="M3.90645 12.4436L4.85645 12.4436L4.85645 11.4936L3.90645 11.4936L3.90645 12.4436Z" fill="#000001"/>
<path d="M3.90645 18.1628L4.85645 18.1628L4.85645 16.2566L3.90645 16.2566L3.90645 18.1628Z" fill="#000001"/>
<path d="M3.90596 21.019L4.85596 21.019L4.85596 20.0628L3.90596 20.0628L3.90596 21.019Z" fill="#000001"/>
<path d="M4.85625 19.1125L5.8125 19.1125L5.8125 18.1625L4.85625 18.1625L4.85625 19.1125Z" fill="#000001"/>
<path d="M5.8125 20.0627L7.71875 20.0627L7.71875 19.1127L5.8125 19.1127L5.8125 20.0627Z" fill="#000001"/>
<path d="M4.85615 21.969L9.61865 21.969L9.61865 21.019L4.85615 21.019L4.85615 21.969Z" fill="#000001"/>
<path d="M9.61895 21.019L10.5752 21.019L10.5752 20.0628L9.61895 20.0628L9.61895 21.019Z" fill="#000001"/>
<path d="M10.5754 20.0627L11.5254 20.0627L11.5254 19.1127L10.5754 19.1127L10.5754 20.0627Z" fill="#000001"/>
<path d="M11.5246 19.1125L12.4746 19.1125L12.4746 18.1625L11.5246 18.1625L11.5246 19.1125Z" fill="#000001"/>
<path d="M12.4754 20.0627L13.4316 20.0627L13.4316 19.1127L12.4754 19.1127L12.4754 20.0627Z" fill="#000001"/>
<path d="M13.4313 21.019L14.3813 21.019L14.3813 20.0628L13.4313 20.0628L13.4313 21.019Z" fill="#000001"/>
<path d="M14.3811 21.969L19.1436 21.969L19.1436 21.019L14.3811 21.019L14.3811 21.969Z" fill="#000001"/>
<path d="M19.1437 12.4436L20.0938 12.4436L20.0938 11.4936L19.1437 11.4936L19.1437 12.4436Z" fill="#000001"/>
<path d="M19.1437 21.019L20.0938 21.019L20.0938 20.0628L19.1437 20.0628L19.1437 21.019Z" fill="#000001"/>
<path d="M20.0936 14.3503L21.0498 14.3503L21.0498 12.4441L20.0936 12.4441L20.0936 14.3503Z" fill="#000001"/>
<path d="M20.0936 20.0627L21.0498 20.0627L21.0498 19.1127L20.0936 19.1127L20.0936 20.0627Z" fill="#000001"/>
<path d="M21.05 19.1125L22 19.1125L22 14.35L21.05 14.35L21.05 19.1125Z" fill="#000001"/>
</g>
</g>
<defs>
<clipPath id="clip0_4166_75252">
<rect width="20" height="20" fill="white" transform="translate(2 2)"/>
</clipPath>
</defs>
</svg>
