<svg width="17" height="20" viewBox="0 0 17 20" fill="none" xmlns="http://www.w3.org/2000/svg">
<path d="M15.2375 3.80625H12.3812V0.95H13.3312V0H0V20H16.1875V2.85625H15.2375V3.80625ZM15.2375 19.05H0.95V0.95H11.425V4.7625H15.2375V19.05Z" fill="black"/>
<path d="M12.4692 3H6.21924V4.52H12.4692V3Z" fill="black"/>
<path d="M12.4692 8.37988H6.21924V9.89988H12.4692V8.37988Z" fill="black"/>
<path d="M12.4692 13.3799H6.21924V14.8999H12.4692V13.3799Z" fill="black"/>
<path d="M12.4692 18.3799H6.21924V19.8999H12.4692V18.3799Z" fill="black"/>
<path d="M5.05933 4.76245H3.15308V6.6687H5.05933V4.76245Z" fill="black"/>
<path d="M5.05933 8.125H3.15308V10.0313H5.05933V8.125Z" fill="black"/>
<path d="M5.05933 11.25H3.15308V13.1563H5.05933V11.25Z" fill="black"/>
<path d="M5.05933 14.375H3.15308V16.2813H5.05933V14.375Z" fill="black"/>
<path d="M15.2376 1.90625H14.2876V2.85625H15.2376V1.90625Z" fill="black"/>
<path d="M14.2875 0.949951H13.3313V1.9062H14.2875V0.949951Z" fill="black"/>
</svg>
