<svg width="64" height="61" viewBox="0 0 64 61" fill="none" xmlns="http://www.w3.org/2000/svg">
<g clip-path="url(#clip0_4697_94421)">
<path d="M60.9072 29.6132L59.8529 28.3271L58.5613 29.3784L59.6171 30.6645L58.3255 31.7143L57.0339 32.7656L55.7438 33.8168L54.4522 34.8681L53.1606 35.9179L54.2164 37.204L55.508 36.1527L56.7981 35.1029L58.0897 34.0516L59.3813 33.0003L60.6714 31.9491L61.9629 30.8993L60.9072 29.6132Z" fill="#184742"/>
<path d="M54.0126 39.2322L51.1251 35.7149L57.58 30.46L56.5243 29.1754L60.0567 26.3003L64 31.1023L54.0126 39.2322Z" fill="#184742"/>
<path d="M58.3246 31.7189L57.0336 32.7695L58.0887 34.055L59.3797 33.0044L58.3246 31.7189Z" fill="#008459"/>
<path d="M57.0354 32.7701L55.7444 33.8208L56.7996 35.1063L58.0906 34.0556L57.0354 32.7701Z" fill="#008459"/>
<path d="M55.7435 33.8209L54.4525 34.8716L55.5077 36.1571L56.7987 35.1064L55.7435 33.8209Z" fill="#008459"/>
<path d="M54.4516 34.8732L53.1606 35.9238L54.2158 37.2093L55.5068 36.1587L54.4516 34.8732Z" fill="#008459"/>
<path d="M59.6174 30.6693L58.3264 31.72L59.3816 33.0055L60.6726 31.9548L59.6174 30.6693Z" fill="#008459"/>
<path d="M60.9093 29.6173L59.6183 30.668L60.6735 31.9535L61.9645 30.9028L60.9093 29.6173Z" fill="#008459"/>
<path d="M59.8525 28.3324L58.5615 29.3831L59.6167 30.6685L60.9077 29.6179L59.8525 28.3324Z" fill="#008459"/>
<path d="M21.2375 54.3136V52.6973H24.5722V51.0371H26.2411L26.2396 49.3768H28.3481V51.0371H30.0154V52.6973H33.3517V54.356L34.1854 54.3591H38.7478H46.2509V52.6973H49.5856V51.0371H51.2545L51.2529 49.3768H52.9203V33.2123H51.2529V27.7892H49.5856V26.1275H51.2529V24.4673H52.9203V21.1468H54.5892V8.30269H52.9203V4.9807H51.2529V3.32047H49.5856V1.66023H46.2509V0H33.3517V1.66023H30.0154V3.32047H28.3481V4.9807H26.2396V3.32047H24.5722V1.66023H21.2375V0H8.3383V1.66023H5.00207V3.32047H3.33471V4.9807H1.66736V8.30269H0V21.1468H1.66736V24.4673H3.33471V26.1275H5.00207V28.2301H3.33471V29.8903H1.66736V33.2123H0V46.0564H1.66736V49.3768H3.33471V51.0371H5.00207V52.6973H8.3383V54.3591H16.6751" fill="#184742"/>
<path d="M49.8062 34.653H51.4735V32.9928V31.3325H49.8062V32.9928V34.653Z" fill="#184742"/>
<path d="M52.9218 29.8904H48.3594V36.0935H52.9218V29.8904Z" fill="#184742"/>
<path d="M46.4714 29.6707H48.1388V28.0105H46.4714H44.8041V29.6707H46.4714Z" fill="#184742"/>
<path d="M49.8062 29.6707H48.1388V31.3309H49.8062V29.6707Z" fill="#184742"/>
<path d="M51.4735 36.3133V37.9735V39.6338V41.294V42.9558V44.616H53.1409V42.9558V41.294V39.6338V37.9735V36.3133V34.6531H51.4735V36.3133Z" fill="#184742"/>
<path d="M54.5891 33.2124H50.0267V46.0565H54.5891V33.2124Z" fill="#184742"/>
<path d="M33.3517 54.359H34.1854L33.3517 54.356V54.359Z" fill="#184742"/>
<path d="M9.78503 47.9363H8.11768V49.5965H9.78503V47.9363Z" fill="#0DAE89"/>
<path d="M8.11767 47.9363H6.45032V49.5965H8.11767V47.9363Z" fill="#0DAE89"/>
<path d="M6.44885 47.9349V46.2747H4.78149V47.9349H6.44885Z" fill="#00AC75"/>
<path d="M6.44885 46.2745V44.6143H4.7815V46.2745H6.44885Z" fill="#00AC75"/>
<path d="M4.78149 37.9735V36.3132H3.11414V37.9735H4.78149Z" fill="#00AC75"/>
<path d="M4.78296 39.6336V37.9734H3.1156V39.6336H4.78296Z" fill="#00AC75"/>
<path d="M4.78296 41.2938V39.6335H3.1156V41.2938H4.78296Z" fill="#00AC75"/>
<path d="M4.78296 42.9542V41.2939H3.1156V42.9542H4.78296Z" fill="#00AC75"/>
<path d="M4.78149 44.6143V42.9541H3.11414V44.6143H4.78149Z" fill="#00AC75"/>
<path d="M4.78149 36.3116V34.6514H3.11414V36.3116H4.78149Z" fill="#00AC75"/>
<path d="M4.78149 13.0653V11.405H3.11414V13.0653H4.78149Z" fill="#00AC75"/>
<path d="M4.78149 14.7271V13.0669H3.11414V14.7271H4.78149Z" fill="#00AC75"/>
<path d="M4.78296 16.3873V14.7271H3.1156V16.3873H4.78296Z" fill="#00AC75"/>
<path d="M4.78296 18.0474V16.3872H3.1156V18.0474H4.78296Z" fill="#00AC75"/>
<path d="M4.78296 19.7078V18.0476H3.1156V19.7078H4.78296Z" fill="#00AC75"/>
<path d="M4.78149 11.4051V9.74487H3.11414V11.4051H4.78149Z" fill="#00AC75"/>
<path d="M6.44885 13.0653V11.405H4.7815V13.0653H6.44885Z" fill="#00AC75"/>
<path d="M6.45032 14.7254V13.0652H4.78296V14.7254H6.45032Z" fill="#00AC75"/>
<path d="M6.45032 16.3873V14.7271H4.78296V16.3873H6.45032Z" fill="#00AC75"/>
<path d="M6.45032 18.0474V16.3872H4.78296V18.0474H6.45032Z" fill="#00AC75"/>
<path d="M6.45032 19.7078V18.0476H4.78296V19.7078H6.45032Z" fill="#00AC75"/>
<path d="M6.44885 21.3651V19.7048H4.7815V21.3651H6.44885Z" fill="#00AC75"/>
<path d="M6.45032 23.0252V21.365H4.78296V23.0252H6.45032Z" fill="#00AC75"/>
<path d="M6.44885 11.4051V9.74487H4.7815V11.4051H6.44885Z" fill="#00AC75"/>
<path d="M6.44885 9.74178V8.08154H4.7815V9.74178H6.44885Z" fill="#00AC75"/>
<path d="M6.45032 8.07845V6.41821H4.78296V8.07845H6.45032Z" fill="#00AC75"/>
<path d="M8.11768 6.42586V4.76562H6.45032V6.42586H8.11768Z" fill="#00AC75"/>
<path d="M9.78503 6.42586V4.76562H8.11768V6.42586H9.78503Z" fill="#00AC75"/>
<path d="M8.11768 13.0667V11.4065H6.45032V13.0667H8.11768Z" fill="#00AC75"/>
<path d="M8.11768 14.7271V13.0669H6.45032V14.7271H8.11768Z" fill="#00AC75"/>
<path d="M8.11768 16.3873V14.7271H6.45032V16.3873H8.11768Z" fill="#00AC75"/>
<path d="M8.11768 18.0492V16.3889H6.45032V18.0492H8.11768Z" fill="#00AC75"/>
<path d="M8.11768 19.7093V18.0491H6.45032V19.7093H8.11768Z" fill="#00AC75"/>
<path d="M8.11621 11.4066V9.74634H6.44885V11.4066H8.11621Z" fill="#00AC75"/>
<path d="M9.78503 13.0667V11.4065H8.11768V13.0667H9.78503Z" fill="#32B686"/>
<path d="M9.78503 14.7271V13.0669H8.11768V14.7271H9.78503Z" fill="#32B686"/>
<path d="M9.78503 16.3873V14.7271H8.11768V16.3873H9.78503Z" fill="#32B686"/>
<path d="M9.78503 18.0474V16.3872H8.11768V18.0474H9.78503Z" fill="#32B686"/>
<path d="M9.78503 19.7093V18.0491H8.11768V19.7093H9.78503Z" fill="#32B686"/>
<path d="M9.78503 11.4066V9.74634H8.11768V11.4066H9.78503Z" fill="#32B686"/>
<path d="M11.4524 13.0667V11.4065H9.78504V13.0667H11.4524Z" fill="#32B686"/>
<path d="M11.4524 14.7271V13.0669H9.78504V14.7271H11.4524Z" fill="#86CBA8"/>
<path d="M11.4524 16.3873V14.7271H9.78504V16.3873H11.4524Z" fill="#86CBA8"/>
<path d="M11.4524 18.0474V16.3872H9.78504V18.0474H11.4524Z" fill="#59BE92"/>
<path d="M11.4524 19.7078V18.0476H9.78504V19.7078H11.4524Z" fill="#86CBA8"/>
<path d="M11.4524 11.4066V9.74634H9.78504V11.4066H11.4524Z" fill="#32B686"/>
<path d="M13.1198 13.0667V11.4065H11.4524V13.0667H13.1198Z" fill="#59BE92"/>
<path d="M13.1198 14.7271V13.0669H11.4524V14.7271H13.1198Z" fill="#59BE92"/>
<path d="M13.1198 16.3873V14.7271H11.4524V16.3873H13.1198Z" fill="#59BE92"/>
<path d="M13.1198 18.0474V16.3872H11.4524V18.0474H13.1198Z" fill="#59BE92"/>
<path d="M13.1213 19.7078V18.0476H11.454V19.7078H13.1213Z" fill="#59BE92"/>
<path d="M13.1198 11.4066V9.74634H11.4524V11.4066H13.1198Z" fill="#86CBA8"/>
<path d="M14.7871 13.0667V11.4065H13.1198V13.0667H14.7871Z" fill="#59BE92"/>
<path d="M14.7871 14.7271V13.0669H13.1198V14.7271H14.7871Z" fill="#59BE92"/>
<path d="M14.7871 16.3873V14.7271H13.1198V16.3873H14.7871Z" fill="#59BE92"/>
<path d="M14.7887 18.0474V16.3872H13.1213V18.0474H14.7887Z" fill="#59BE92"/>
<path d="M14.7887 19.7078V18.0476H13.1213V19.7078H14.7887Z" fill="#59BE92"/>
<path d="M14.7871 11.4066V9.74634H13.1198V11.4066H14.7871Z" fill="#59BE92"/>
<path d="M16.4545 13.0667V11.4065H14.7871V13.0667H16.4545Z" fill="#59BE92"/>
<path d="M16.4545 14.7271V13.0669H14.7871V14.7271H16.4545Z" fill="#59BE92"/>
<path d="M16.4561 16.3873V14.7271H14.7887V16.3873H16.4561Z" fill="#59BE92"/>
<path d="M16.4561 18.0474V16.3872H14.7887V18.0474H16.4561Z" fill="#59BE92"/>
<path d="M16.4561 19.7078V18.0476H14.7887V19.7078H16.4561Z" fill="#59BE92"/>
<path d="M16.4545 11.4051V9.74487H14.7871V11.4051H16.4545Z" fill="#59BE92"/>
<path d="M18.1218 13.0653V11.405H16.4545V13.0653H18.1218Z" fill="#59BE92"/>
<path d="M18.1234 14.7271V13.0669H16.4561V14.7271H18.1234Z" fill="#59BE92"/>
<path d="M18.1234 16.3873V14.7271H16.4561V16.3873H18.1234Z" fill="#59BE92"/>
<path d="M18.1234 18.0474V16.3872H16.4561V18.0474H18.1234Z" fill="#59BE92"/>
<path d="M18.1234 19.7078V18.0476H16.4561V19.7078H18.1234Z" fill="#59BE92"/>
<path d="M18.1218 11.4051V9.74487H16.4545V11.4051H18.1218Z" fill="#59BE92"/>
<path d="M19.7908 13.0667V11.4065H18.1234V13.0667H19.7908Z" fill="#59BE92"/>
<path d="M19.7908 14.7271V13.0669H18.1234V14.7271H19.7908Z" fill="#59BE92"/>
<path d="M19.7908 16.3888V14.7285H18.1234V16.3888H19.7908Z" fill="#59BE92"/>
<path d="M19.7908 18.0492V16.3889H18.1234V18.0492H19.7908Z" fill="#59BE92"/>
<path d="M19.7908 19.7093V18.0491H18.1234V19.7093H19.7908Z" fill="#59BE92"/>
<path d="M21.4581 19.7093V18.0491H19.7908V19.7093H21.4581Z" fill="#59BE92"/>
<path d="M19.7892 11.4066V9.74634H18.1218V11.4066H19.7892Z" fill="#59BE92"/>
<path d="M21.4581 13.0667V11.4065H19.7908V13.0667H21.4581Z" fill="#59BE92"/>
<path d="M21.4581 14.7271V13.0669H19.7908V14.7271H21.4581Z" fill="#59BE92"/>
<path d="M21.4581 16.3873V14.7271H19.7908V16.3873H21.4581Z" fill="#59BE92"/>
<path d="M21.4581 11.4066V9.74634H19.7908V11.4066H21.4581Z" fill="#59BE92"/>
<path d="M23.1255 13.0667V11.4065H21.4581V13.0667H23.1255Z" fill="#59BE92"/>
<path d="M23.1255 14.7271V13.0669H21.4581V14.7271H23.1255Z" fill="#59BE92"/>
<path d="M23.1255 16.3873V14.7271H21.4581V16.3873H23.1255Z" fill="#59BE92"/>
<path d="M23.1255 11.4066V9.74634H21.4581V11.4066H23.1255Z" fill="#59BE92"/>
<path d="M24.7928 13.0667V11.4065H23.1255V13.0667H24.7928Z" fill="#59BE92"/>
<path d="M24.7928 14.7271V13.0669H23.1255V14.7271H24.7928Z" fill="#59BE92"/>
<path d="M24.7928 16.3873V14.7271H23.1255V16.3873H24.7928Z" fill="#59BE92"/>
<path d="M24.7928 11.4066V9.74634H23.1255V11.4066H24.7928Z" fill="#59BE92"/>
<path d="M8.11768 9.74324V8.08301H6.45032V9.74324H8.11768Z" fill="#00AC75"/>
<path d="M9.78503 9.74324V8.08301H8.11768V9.74324H9.78503Z" fill="#32B686"/>
<path d="M11.4524 9.74324V8.08301H9.78504V9.74324H11.4524Z" fill="#32B686"/>
<path d="M13.1198 9.74324V8.08301H11.4524V9.74324H13.1198Z" fill="#32B686"/>
<path d="M14.7871 9.74324V8.08301H13.1198V9.74324H14.7871Z" fill="#86CBA8"/>
<path d="M16.4545 9.74178V8.08154H14.7871V9.74178H16.4545Z" fill="#86CBA8"/>
<path d="M18.1218 9.74178V8.08154H16.4545V9.74178H18.1218Z" fill="#86CBA8"/>
<path d="M19.7908 9.74324V8.08301H18.1234V9.74324H19.7908Z" fill="#86CBA8"/>
<path d="M21.4581 9.74324V8.08301H19.7908V9.74324H21.4581Z" fill="#59BE92"/>
<path d="M23.1255 9.74324V8.08301H21.4581V9.74324H23.1255Z" fill="#86CBA8"/>
<path d="M24.7928 9.74324V8.08301H23.1255V9.74324H24.7928Z" fill="#59BE92"/>
<path d="M8.11768 8.08016V6.41992H6.45032V8.08016H8.11768Z" fill="#00AC75"/>
<path d="M9.78503 8.08016V6.41992H8.11768V8.08016H9.78503Z" fill="#00AC75"/>
<path d="M11.4524 8.08016V6.41992H9.78504V8.08016H11.4524Z" fill="#32B686"/>
<path d="M13.1198 8.08016V6.41992H11.4524V8.08016H13.1198Z" fill="#32B686"/>
<path d="M14.7871 8.08016V6.41992H13.1198V8.08016H14.7871Z" fill="#32B686"/>
<path d="M16.4545 8.08016V6.41992H14.7871V8.08016H16.4545Z" fill="#32B686"/>
<path d="M18.1218 8.07845V6.41821H16.4545V8.07845H18.1218Z" fill="#32B686"/>
<path d="M19.7908 8.08016V6.41992H18.1234V8.08016H19.7908Z" fill="#32B686"/>
<path d="M21.4581 8.08016V6.41992H19.7908V8.08016H21.4581Z" fill="#32B686"/>
<path d="M23.1255 8.08016V6.41992H21.4581V8.08016H23.1255Z" fill="#32B686"/>
<path d="M11.4524 6.42439V4.76416H9.78504V6.42439H11.4524Z" fill="#00AC75"/>
<path d="M13.1198 6.42439V4.76416H11.4524V6.42439H13.1198Z" fill="#00AC75"/>
<path d="M14.7887 6.42439V4.76416H13.1213V6.42439H14.7887Z" fill="#00AC75"/>
<path d="M16.4561 6.4244V4.76416H14.7887V6.4244H16.4561Z" fill="#00AC75"/>
<path d="M18.1234 6.42439V4.76416H16.4561V6.42439H18.1234Z" fill="#00AC75"/>
<path d="M19.7908 6.42586V4.76562H18.1234V6.42586H19.7908Z" fill="#00AC75"/>
<path d="M11.4524 4.76106V3.10083H9.78504V4.76106H11.4524Z" fill="#00AC75"/>
<path d="M13.1213 4.76106V3.10083H11.454V4.76106H13.1213Z" fill="#00AC75"/>
<path d="M14.7887 4.76106V3.10083H13.1213V4.76106H14.7887Z" fill="#00AC75"/>
<path d="M16.4561 4.76107V3.10083H14.7887V4.76107H16.4561Z" fill="#00AC75"/>
<path d="M18.1234 4.76106V3.10083H16.4561V4.76106H18.1234Z" fill="#00AC75"/>
<path d="M19.7908 4.76253V3.10229H18.1234V4.76253H19.7908Z" fill="#00AC75"/>
<path d="M21.4581 6.42586V4.76562H19.7908V6.42586H21.4581Z" fill="#00AC75"/>
<path d="M23.1255 6.42439V4.76416H21.4581V6.42439H23.1255Z" fill="#00AC75"/>
<path d="M24.7928 8.08016V6.41992H23.1255V8.08016H24.7928Z" fill="#59BE92"/>
<path d="M26.4602 13.0667V11.4065H24.7928V13.0667H26.4602Z" fill="#59BE92"/>
<path d="M26.4602 14.7271V13.0669H24.7928V14.7271H26.4602Z" fill="#59BE92"/>
<path d="M26.4602 16.3873V14.7271H24.7928V16.3873H26.4602Z" fill="#59BE92"/>
<path d="M21.4581 18.0492V16.3889H19.7908V18.0492H21.4581Z" fill="#59BE92"/>
<path d="M23.1255 18.0474V16.3872H21.4581V18.0474H23.1255Z" fill="#59BE92"/>
<path d="M24.7928 18.0474V16.3872H23.1255V18.0474H24.7928Z" fill="#59BE92"/>
<path d="M26.4617 18.0474V16.3872H24.7943V18.0474H26.4617Z" fill="#59BE92"/>
<path d="M28.129 16.3873V14.7271H26.4617V16.3873H28.129Z" fill="#59BE92"/>
<path d="M29.7964 16.3873V14.7271H28.129V16.3873H29.7964Z" fill="#59BE92"/>
<path d="M28.129 18.0474V16.3872H26.4617V18.0474H28.129Z" fill="#59BE92"/>
<path d="M29.7964 18.0474V16.3872H28.129V18.0474H29.7964Z" fill="#59BE92"/>
<path d="M23.1255 19.7061V18.0459H21.4581V19.7061H23.1255Z" fill="#59BE92"/>
<path d="M24.7928 19.7061V18.0459H23.1255V19.7061H24.7928Z" fill="#59BE92"/>
<path d="M26.4602 19.7047V18.0444H24.7928V19.7047H26.4602Z" fill="#59BE92"/>
<path d="M28.1276 19.7047V18.0444H26.4602V19.7047H28.1276Z" fill="#59BE92"/>
<path d="M29.7949 19.7047V18.0444H28.1276V19.7047H29.7949Z" fill="#59BE92"/>
<path d="M31.4637 16.3888V14.7285H29.7964V16.3888H31.4637Z" fill="#59BE92"/>
<path d="M31.4637 18.0492V16.3889H29.7964V18.0492H31.4637Z" fill="#59BE92"/>
<path d="M8.11621 21.3695V19.7092H6.44885V21.3695H8.11621Z" fill="#00AC75"/>
<path d="M8.11621 23.0296V21.3694H6.44886V23.0296H8.11621Z" fill="#59BE92"/>
<path d="M9.78357 21.3695V19.7092H8.11621V21.3695H9.78357Z" fill="#32B686"/>
<path d="M9.78503 23.0296V21.3694H8.11768V23.0296H9.78503Z" fill="#59BE92"/>
<path d="M11.4524 21.3695V19.7092H9.78504V21.3695H11.4524Z" fill="#59BE92"/>
<path d="M11.4524 23.0296V21.3694H9.78504V23.0296H11.4524Z" fill="#59BE92"/>
<path d="M13.1198 21.368V19.7078H11.4524V21.368H13.1198Z" fill="#59BE92"/>
<path d="M13.1198 23.0296V21.3694H11.4524V23.0296H13.1198Z" fill="#59BE92"/>
<path d="M14.7871 21.368V19.7078H13.1198V21.368H14.7871Z" fill="#59BE92"/>
<path d="M14.7871 23.0282V21.3679H13.1198V23.0282H14.7871Z" fill="#59BE92"/>
<path d="M8.11768 24.6868V23.0266H6.45032V24.6868H8.11768Z" fill="#00AC75"/>
<path d="M9.78503 24.6868V23.0266H8.11768V24.6868H9.78503Z" fill="#59BE92"/>
<path d="M11.4524 24.6868V23.0266H9.78504V24.6868H11.4524Z" fill="#59BE92"/>
<path d="M13.1198 24.6868V23.0266H11.4524V24.6868H13.1198Z" fill="#59BE92"/>
<path d="M14.7871 24.6868V23.0266H13.1198V24.6868H14.7871Z" fill="#59BE92"/>
<path d="M11.4524 26.3472V24.687H9.78504V26.3472H11.4524Z" fill="#59BE92"/>
<path d="M13.1198 26.3472V24.687H11.4524V26.3472H13.1198Z" fill="#59BE92"/>
<path d="M14.7887 26.3472V24.687H13.1213V26.3472H14.7887Z" fill="#59BE92"/>
<path d="M16.4545 21.368V19.7078H14.7871V21.368H16.4545Z" fill="#59BE92"/>
<path d="M16.4545 23.0282V21.3679H14.7871V23.0282H16.4545Z" fill="#59BE92"/>
<path d="M18.1218 21.368V19.7078H16.4545V21.368H18.1218Z" fill="#59BE92"/>
<path d="M18.1218 23.0282V21.3679H16.4545V23.0282H18.1218Z" fill="#59BE92"/>
<path d="M19.7892 21.3695V19.7092H18.1218V21.3695H19.7892Z" fill="#59BE92"/>
<path d="M21.4565 21.3695V19.7092H19.7892V21.3695H21.4565Z" fill="#59BE92"/>
<path d="M23.1255 21.3695V19.7092H21.4581V21.3695H23.1255Z" fill="#59BE92"/>
<path d="M24.7928 21.3695V19.7092H23.1255V21.3695H24.7928Z" fill="#59BE92"/>
<path d="M19.7892 23.0296V21.3694H18.1218V23.0296H19.7892Z" fill="#59BE92"/>
<path d="M21.4581 23.0296V21.3694H19.7908V23.0296H21.4581Z" fill="#59BE92"/>
<path d="M23.1255 23.0296V21.3694H21.4581V23.0296H23.1255Z" fill="#59BE92"/>
<path d="M24.7928 23.0296V21.3694H23.1255V23.0296H24.7928Z" fill="#59BE92"/>
<path d="M26.4602 21.368V19.7078H24.7928V21.368H26.4602Z" fill="#59BE92"/>
<path d="M28.1276 21.368V19.7078H26.4602V21.368H28.1276Z" fill="#59BE92"/>
<path d="M26.4602 23.0296V21.3694H24.7929V23.0296H26.4602Z" fill="#59BE92"/>
<path d="M28.1276 23.0282V21.3679H26.4602V23.0282H28.1276Z" fill="#59BE92"/>
<path d="M29.7949 21.368V19.7078H28.1276V21.368H29.7949Z" fill="#59BE92"/>
<path d="M31.4623 19.7061V18.0459H29.7949V19.7061H31.4623Z" fill="#59BE92"/>
<path d="M33.1311 19.7061V18.0459H31.4637V19.7061H33.1311Z" fill="#59BE92"/>
<path d="M31.4623 21.3695V19.7092H29.7949V21.3695H31.4623Z" fill="#59BE92"/>
<path d="M33.1296 21.3695V19.7092H31.4623V21.3695H33.1296Z" fill="#59BE92"/>
<path d="M29.7949 23.0282V21.3679H28.1276V23.0282H29.7949Z" fill="#59BE92"/>
<path d="M16.4561 24.6868V23.0266H14.7887V24.6868H16.4561Z" fill="#59BE92"/>
<path d="M16.4561 26.3472V24.687H14.7887V26.3472H16.4561Z" fill="#59BE92"/>
<path d="M18.1234 24.6868V23.0266H16.4561V24.6868H18.1234Z" fill="#59BE92"/>
<path d="M18.1234 26.3472V24.687H16.4561V26.3472H18.1234Z" fill="#59BE92"/>
<path d="M19.7908 24.6868V23.0266H18.1234V24.6868H19.7908Z" fill="#59BE92"/>
<path d="M19.7908 26.3487V24.6885H18.1234V26.3487H19.7908Z" fill="#59BE92"/>
<path d="M21.4581 24.6868V23.0266H19.7908V24.6868H21.4581Z" fill="#59BE92"/>
<path d="M21.4581 26.3472V24.687H19.7908V26.3472H21.4581Z" fill="#59BE92"/>
<path d="M23.1255 26.3472V24.687H21.4581V26.3472H23.1255Z" fill="#59BE92"/>
<path d="M24.7928 24.6868V23.0266H23.1255V24.6868H24.7928Z" fill="#59BE92"/>
<path d="M23.1255 24.6868V23.0266H21.4581V24.6868H23.1255Z" fill="#59BE92"/>
<path d="M26.4602 24.6868V23.0266H24.7928V24.6868H26.4602Z" fill="#59BE92"/>
<path d="M28.129 24.6868V23.0266H26.4617V24.6868H28.129Z" fill="#59BE92"/>
<path d="M29.7964 24.6868V23.0266H28.129V24.6868H29.7964Z" fill="#59BE92"/>
<path d="M24.7928 26.3472V24.687H23.1255V26.3472H24.7928Z" fill="#59BE92"/>
<path d="M26.4617 26.3472V24.687H24.7943V26.3472H26.4617Z" fill="#59BE92"/>
<path d="M28.129 26.3472V24.687H26.4617V26.3472H28.129Z" fill="#59BE92"/>
<path d="M29.7964 26.3472V24.687H28.129V26.3472H29.7964Z" fill="#59BE92"/>
<path d="M33.1311 24.6868V23.0266H31.4637V24.6868H33.1311Z" fill="#59BE92"/>
<path d="M31.4637 26.3487V24.6885H29.7964V26.3487H31.4637Z" fill="#59BE92"/>
<path d="M31.4637 24.69V23.0298H29.7964V24.69H31.4637Z" fill="#59BE92"/>
<path d="M33.1311 26.3472V24.687H31.4637V26.3472H33.1311Z" fill="#59BE92"/>
<path d="M34.7985 26.3472V24.687H33.1311V26.3472H34.7985Z" fill="#59BE92"/>
<path d="M36.4658 26.3472V24.687H34.7985V26.3472H36.4658Z" fill="#59BE92"/>
<path d="M31.4623 23.0296V21.3694H29.7949V23.0296H31.4623Z" fill="#59BE92"/>
<path d="M33.1311 23.0296V21.3694H31.4637V23.0296H33.1311Z" fill="#59BE92"/>
<path d="M39.8005 23.0282V21.3679H38.1332V23.0282H39.8005Z" fill="#59BE92"/>
<path d="M41.4679 23.0282V21.3679H39.8005V23.0282H41.4679Z" fill="#59BE92"/>
<path d="M43.1353 23.0296V21.3694H41.4679V23.0296H43.1353Z" fill="#59BE92"/>
<path d="M44.8041 23.0296V21.3694H43.1367V23.0296H44.8041Z" fill="#59BE92"/>
<path d="M44.8041 24.6868V23.0266H43.1367V24.6868H44.8041Z" fill="#59BE92"/>
<path d="M44.8041 26.3472V24.687H43.1367V26.3472H44.8041Z" fill="#59BE92"/>
<path d="M46.4714 23.0296V21.3694H44.8041V23.0296H46.4714Z" fill="#59BE92"/>
<path d="M38.1346 26.3472V24.687H36.4673V26.3472H38.1346Z" fill="#59BE92"/>
<path d="M16.4561 28.0103V26.3501H14.7887V28.0103H16.4561Z" fill="#59BE92"/>
<path d="M18.1234 28.0103V26.3501H16.4561V28.0103H18.1234Z" fill="#59BE92"/>
<path d="M19.7908 28.0103V26.3501H18.1234V28.0103H19.7908Z" fill="#59BE92"/>
<path d="M21.4581 28.0103V26.3501H19.7908V28.0103H21.4581Z" fill="#59BE92"/>
<path d="M23.1255 28.0103V26.3501H21.4581V28.0103H23.1255Z" fill="#59BE92"/>
<path d="M24.7928 28.0103V26.3501H23.1255V28.0103H24.7928Z" fill="#59BE92"/>
<path d="M26.4602 28.0103V26.3501H24.7928V28.0103H26.4602Z" fill="#59BE92"/>
<path d="M28.129 28.0103V26.3501H26.4617V28.0103H28.129Z" fill="#59BE92"/>
<path d="M29.7964 28.0103V26.3501H28.129V28.0103H29.7964Z" fill="#59BE92"/>
<path d="M31.4637 28.012V26.3518H29.7964V28.012H31.4637Z" fill="#59BE92"/>
<path d="M33.1311 28.0103V26.3501H31.4637V28.0103H33.1311Z" fill="#59BE92"/>
<path d="M34.7985 28.0103V26.3501H33.1311V28.0103H34.7985Z" fill="#59BE92"/>
<path d="M36.4658 28.0103V26.3501H34.7985V28.0103H36.4658Z" fill="#59BE92"/>
<path d="M38.1332 28.0103V26.3501H36.4658V28.0103H38.1332Z" fill="#59BE92"/>
<path d="M39.802 24.6868V23.0266H38.1346V24.6868H39.802Z" fill="#59BE92"/>
<path d="M41.4694 24.6868V23.0266H39.802V24.6868H41.4694Z" fill="#59BE92"/>
<path d="M39.802 26.3472V24.687H38.1346V26.3472H39.802Z" fill="#59BE92"/>
<path d="M41.4694 26.3472V24.687H39.802V26.3472H41.4694Z" fill="#59BE92"/>
<path d="M43.1367 24.6868V23.0266H41.4694V24.6868H43.1367Z" fill="#59BE92"/>
<path d="M43.1367 26.3487V24.6885H41.4694V26.3487H43.1367Z" fill="#59BE92"/>
<path d="M26.4602 11.4066V9.74634H24.7928V11.4066H26.4602Z" fill="#59BE92"/>
<path d="M29.7949 13.0667V11.4065H28.1276V13.0667H29.7949Z" fill="#00AC75"/>
<path d="M29.7949 14.7271V13.0669H28.1276V14.7271H29.7949Z" fill="#00AC75"/>
<path d="M29.7949 11.4051V9.74487H28.1276V11.4051H29.7949Z" fill="#00AC75"/>
<path d="M31.4623 13.0653V11.405H29.7949V13.0653H31.4623Z" fill="#00AC75"/>
<path d="M31.4637 14.7271V13.0669H29.7964V14.7271H31.4637Z" fill="#00AC75"/>
<path d="M31.4623 11.4051V9.74487H29.7949V11.4051H31.4623Z" fill="#00AC75"/>
<path d="M31.4623 9.74178V8.08154H29.7949V9.74178H31.4623Z" fill="#00AC75"/>
<path d="M31.4623 8.07845V6.41821H29.7949V8.07845H31.4623Z" fill="#00AC75"/>
<path d="M33.1311 6.42586V4.76562H31.4637V6.42586H33.1311Z" fill="#00AC75"/>
<path d="M34.7985 6.42586V4.76562H33.1311V6.42586H34.7985Z" fill="#00AC75"/>
<path d="M33.1311 13.0667V11.4065H31.4637V13.0667H33.1311Z" fill="#32B686"/>
<path d="M33.1311 14.7271V13.0669H31.4637V14.7271H33.1311Z" fill="#32B686"/>
<path d="M33.1296 11.4066V9.74634H31.4623V11.4066H33.1296Z" fill="#32B686"/>
<path d="M34.7985 13.0667V11.4065H33.1311V13.0667H34.7985Z" fill="#59BE92"/>
<path d="M34.7985 14.7271V13.0669H33.1311V14.7271H34.7985Z" fill="#59BE92"/>
<path d="M34.7985 11.4066V9.74634H33.1311V11.4066H34.7985Z" fill="#32B686"/>
<path d="M36.4658 13.0667V11.4065H34.7985V13.0667H36.4658Z" fill="#59BE92"/>
<path d="M36.4658 14.7271V13.0669H34.7985V14.7271H36.4658Z" fill="#59BE92"/>
<path d="M36.4658 11.4066V9.74634H34.7985V11.4066H36.4658Z" fill="#59BE92"/>
<path d="M38.1332 13.0667V11.4065H36.4658V13.0667H38.1332Z" fill="#59BE92"/>
<path d="M38.1332 14.7271V13.0669H36.4658V14.7271H38.1332Z" fill="#59BE92"/>
<path d="M38.1332 11.4066V9.74634H36.4658V11.4066H38.1332Z" fill="#59BE92"/>
<path d="M39.8005 13.0667V11.4065H38.1332V13.0667H39.8005Z" fill="#59BE92"/>
<path d="M39.8005 14.7271V13.0669H38.1332V14.7271H39.8005Z" fill="#59BE92"/>
<path d="M39.8005 11.4066V9.74634H38.1332V11.4066H39.8005Z" fill="#59BE92"/>
<path d="M41.4679 13.0667V11.4065H39.8005V13.0667H41.4679Z" fill="#59BE92"/>
<path d="M41.4679 14.7271V13.0669H39.8005V14.7271H41.4679Z" fill="#59BE92"/>
<path d="M41.4679 11.4051V9.74487H39.8005V11.4051H41.4679Z" fill="#59BE92"/>
<path d="M43.1353 13.0653V11.405H41.4679V13.0653H43.1353Z" fill="#59BE92"/>
<path d="M43.1367 14.7271V13.0669H41.4694V14.7271H43.1367Z" fill="#59BE92"/>
<path d="M43.1353 11.4051V9.74487H41.4679V11.4051H43.1353Z" fill="#59BE92"/>
<path d="M44.8041 13.0667V11.4065H43.1367V13.0667H44.8041Z" fill="#59BE92"/>
<path d="M44.8041 14.7271V13.0669H43.1367V14.7271H44.8041Z" fill="#59BE92"/>
<path d="M44.8026 11.4066V9.74634H43.1353V11.4066H44.8026Z" fill="#59BE92"/>
<path d="M46.4714 13.0667V11.4065H44.8041V13.0667H46.4714Z" fill="#59BE92"/>
<path d="M46.4714 14.7271V13.0669H44.8041V14.7271H46.4714Z" fill="#59BE92"/>
<path d="M46.4714 11.4066V9.74634H44.8041V11.4066H46.4714Z" fill="#86CBA8"/>
<path d="M48.1388 13.0667V11.4065H46.4714V13.0667H48.1388Z" fill="#86CBA8"/>
<path d="M48.1388 14.7271V13.0669H46.4714V14.7271H48.1388Z" fill="#86CBA8"/>
<path d="M48.1388 11.4051V9.74487H46.4714V11.4051H48.1388Z" fill="#32B686"/>
<path d="M49.8062 13.0667V11.4065H48.1388V13.0667H49.8062Z" fill="#32B686"/>
<path d="M49.8062 14.7271V13.0669H48.1388V14.7271H49.8062Z" fill="#32B686"/>
<path d="M49.8062 11.4066V9.74634H48.1388V11.4066H49.8062Z" fill="#00AC75"/>
<path d="M33.1311 9.74324V8.08301H31.4637V9.74324H33.1311Z" fill="#32B686"/>
<path d="M34.7985 9.74324V8.08301H33.1311V9.74324H34.7985Z" fill="#59BE92"/>
<path d="M36.4658 9.74324V8.08301H34.7985V9.74324H36.4658Z" fill="#32B686"/>
<path d="M38.1332 9.74324V8.08301H36.4658V9.74324H38.1332Z" fill="#59BE92"/>
<path d="M39.8005 9.74324V8.08301H38.1332V9.74324H39.8005Z" fill="#59BE92"/>
<path d="M41.4679 9.74178V8.08154H39.8005V9.74178H41.4679Z" fill="#86CBA8"/>
<path d="M43.1353 9.74178V8.08154H41.4679V9.74178H43.1353Z" fill="#86CBA8"/>
<path d="M44.8041 9.74325V8.08301H43.1367V9.74325H44.8041Z" fill="#86CBA8"/>
<path d="M46.4714 9.74324V8.08301H44.8041V9.74324H46.4714Z" fill="#32B686"/>
<path d="M48.1388 9.74324V8.08301H46.4714V9.74324H48.1388Z" fill="#32B686"/>
<path d="M49.8062 9.74325V8.08301H48.1388V9.74325H49.8062Z" fill="#00AC75"/>
<path d="M33.1311 8.08016V6.41992H31.4637V8.08016H33.1311Z" fill="#32B686"/>
<path d="M34.7985 8.08016V6.41992H33.1311V8.08016H34.7985Z" fill="#32B686"/>
<path d="M36.4658 8.08016V6.41992H34.7985V8.08016H36.4658Z" fill="#32B686"/>
<path d="M38.1332 8.08016V6.41992H36.4658V8.08016H38.1332Z" fill="#32B686"/>
<path d="M39.8005 8.08016V6.41992H38.1332V8.08016H39.8005Z" fill="#32B686"/>
<path d="M43.1353 8.07845V6.41821H41.4679V8.07845H43.1353Z" fill="#32B686"/>
<path d="M41.4679 8.07845V6.41821H39.8005V8.07845H41.4679Z" fill="#32B686"/>
<path d="M44.8041 8.08016V6.41992H43.1367V8.08016H44.8041Z" fill="#32B686"/>
<path d="M46.4714 8.08016V6.41992H44.8041V8.08016H46.4714Z" fill="#00AC75"/>
<path d="M48.1388 8.08016V6.41992H46.4714V8.08016H48.1388Z" fill="#00AC75"/>
<path d="M36.4658 6.42439V4.76416H34.7985V6.42439H36.4658Z" fill="#00AC75"/>
<path d="M38.1332 6.4244V4.76416H36.4658V6.4244H38.1332Z" fill="#00AC75"/>
<path d="M39.802 6.42439V4.76416H38.1346V6.42439H39.802Z" fill="#00AC75"/>
<path d="M41.4694 6.42439V4.76416H39.802V6.42439H41.4694Z" fill="#00AC75"/>
<path d="M43.1367 6.4244V4.76416H41.4694V6.4244H43.1367Z" fill="#00AC75"/>
<path d="M44.8041 6.42586V4.76562H43.1367V6.42586H44.8041Z" fill="#00AC75"/>
<path d="M36.4658 4.76106V3.10083H34.7985V4.76106H36.4658Z" fill="#00AC75"/>
<path d="M38.1346 4.76107V3.10083H36.4673V4.76107H38.1346Z" fill="#00AC75"/>
<path d="M39.802 4.76106V3.10083H38.1346V4.76106H39.802Z" fill="#00AC75"/>
<path d="M41.4694 4.76106V3.10083H39.802V4.76106H41.4694Z" fill="#00AC75"/>
<path d="M43.1367 4.76107V3.10083H41.4694V4.76107H43.1367Z" fill="#00AC75"/>
<path d="M44.8041 4.76253V3.10229H43.1367V4.76253H44.8041Z" fill="#00AC75"/>
<path d="M46.4714 6.42586V4.76562H44.8041V6.42586H46.4714Z" fill="#00AC75"/>
<path d="M48.1388 6.42439V4.76416H46.4714V6.42439H48.1388Z" fill="#00AC75"/>
<path d="M49.8062 8.08016V6.41992H48.1388V8.08016H49.8062Z" fill="#00AC75"/>
<path d="M51.4735 13.0667V11.4065H49.8062V13.0667H51.4735Z" fill="#00AC75"/>
<path d="M51.4735 14.7271V13.0669H49.8062V14.7271H51.4735Z" fill="#00AC75"/>
<path d="M33.1311 16.3887V14.7285H31.4637V16.3887H33.1311Z" fill="#59BE92"/>
<path d="M33.1311 18.0491V16.3889H31.4637V18.0491H33.1311Z" fill="#59BE92"/>
<path d="M34.7985 16.3873V14.7271H33.1311V16.3873H34.7985Z" fill="#59BE92"/>
<path d="M34.7985 18.0492V16.3889H33.1311V18.0492H34.7985Z" fill="#59BE92"/>
<path d="M36.4658 16.3873V14.7271H34.7985V16.3873H36.4658Z" fill="#59BE92"/>
<path d="M36.4658 18.0474V16.3872H34.7985V18.0474H36.4658Z" fill="#59BE92"/>
<path d="M38.1332 16.3873V14.7271H36.4658V16.3873H38.1332Z" fill="#59BE92"/>
<path d="M38.1332 18.0474V16.3872H36.4658V18.0474H38.1332Z" fill="#59BE92"/>
<path d="M39.8005 16.3873V14.7271H38.1332V16.3873H39.8005Z" fill="#59BE92"/>
<path d="M39.802 18.0474V16.3872H38.1346V18.0474H39.802Z" fill="#59BE92"/>
<path d="M41.4694 16.3873V14.7271H39.802V16.3873H41.4694Z" fill="#59BE92"/>
<path d="M41.4694 18.0474V16.3872H39.802V18.0474H41.4694Z" fill="#59BE92"/>
<path d="M43.1367 16.3873V14.7271H41.4694V16.3873H43.1367Z" fill="#59BE92"/>
<path d="M43.1367 18.0474V16.3872H41.4694V18.0474H43.1367Z" fill="#59BE92"/>
<path d="M44.8041 16.3888V14.7285H43.1367V16.3888H44.8041Z" fill="#59BE92"/>
<path d="M44.8041 18.0492V16.3889H43.1367V18.0492H44.8041Z" fill="#59BE92"/>
<path d="M46.4714 16.3873V14.7271H44.8041V16.3873H46.4714Z" fill="#59BE92"/>
<path d="M46.4714 18.0491V16.3889H44.8041V18.0491H46.4714Z" fill="#59BE92"/>
<path d="M48.1388 16.3873V14.7271H46.4714V16.3873H48.1388Z" fill="#86CBA8"/>
<path d="M48.1388 18.0474V16.3872H46.4714V18.0474H48.1388Z" fill="#86CBA8"/>
<path d="M49.8062 16.3873V14.7271H48.1388V16.3873H49.8062Z" fill="#32B686"/>
<path d="M49.8077 18.046V16.3857H48.1404V18.046H49.8077Z" fill="#32B686"/>
<path d="M51.4735 16.3873V14.7271H49.8062V16.3873H51.4735Z" fill="#00AC75"/>
<path d="M51.4751 18.0474V16.3872H49.8077V18.0474H51.4751Z" fill="#00AC75"/>
<path d="M34.7985 19.7093V18.0491H33.1311V19.7093H34.7985Z" fill="#59BE92"/>
<path d="M36.4658 19.7093V18.0491H34.7985V19.7093H36.4658Z" fill="#59BE92"/>
<path d="M38.1346 19.7078V18.0476H36.4673V19.7078H38.1346Z" fill="#59BE92"/>
<path d="M39.802 19.7078V18.0476H38.1346V19.7078H39.802Z" fill="#59BE92"/>
<path d="M41.4694 19.7078V18.0476H39.802V19.7078H41.4694Z" fill="#59BE92"/>
<path d="M43.1367 19.7078V18.0476H41.4694V19.7078H43.1367Z" fill="#59BE92"/>
<path d="M44.8041 19.7093V18.0491H43.1367V19.7093H44.8041Z" fill="#59BE92"/>
<path d="M46.4714 19.7093V18.0491H44.8041V19.7093H46.4714Z" fill="#59BE92"/>
<path d="M48.1388 19.7093V18.0491H46.4714V19.7093H48.1388Z" fill="#59BE92"/>
<path d="M49.8077 19.7078V18.0476H48.1404V19.7078H49.8077Z" fill="#32B686"/>
<path d="M34.797 21.3695V19.7092H33.1296V21.3695H34.797Z" fill="#59BE92"/>
<path d="M36.4658 21.3695V19.7092H34.7985V21.3695H36.4658Z" fill="#59BE92"/>
<path d="M38.1332 21.3695V19.7092H36.4658V21.3695H38.1332Z" fill="#59BE92"/>
<path d="M34.7985 23.0296V21.3694H33.1311V23.0296H34.7985Z" fill="#59BE92"/>
<path d="M36.4658 23.0296V21.3694H34.7985V23.0296H36.4658Z" fill="#59BE92"/>
<path d="M38.1332 23.0296V21.3694H36.4658V23.0296H38.1332Z" fill="#59BE92"/>
<path d="M34.7985 24.6854V23.0251H33.1311V24.6854H34.7985Z" fill="#59BE92"/>
<path d="M36.4658 24.6854V23.0251H34.7985V24.6854H36.4658Z" fill="#59BE92"/>
<path d="M38.1332 24.6854V23.0251H36.4658V24.6854H38.1332Z" fill="#59BE92"/>
<path d="M39.8005 21.368V19.7078H38.1332V21.368H39.8005Z" fill="#59BE92"/>
<path d="M41.4679 21.368V19.7078H39.8005V21.368H41.4679Z" fill="#59BE92"/>
<path d="M43.1353 21.368V19.7078H41.4679V21.368H43.1353Z" fill="#59BE92"/>
<path d="M44.8026 21.3695V19.7092H43.1353V21.3695H44.8026Z" fill="#59BE92"/>
<path d="M46.47 21.3695V19.7092H44.8026V21.3695H46.47Z" fill="#59BE92"/>
<path d="M48.1388 21.368V19.7078H46.4714V21.368H48.1388Z" fill="#32B686"/>
<path d="M49.8062 21.368V19.7078H48.1388V21.368H49.8062Z" fill="#32B686"/>
<path d="M48.1388 23.0252V21.365H46.4714V23.0252H48.1388Z" fill="#32B686"/>
<path d="M46.4714 24.6886V23.0283H44.8041V24.6886H46.4714Z" fill="#59BE92"/>
<path d="M48.1388 24.6854V23.0251H46.4714V24.6854H48.1388Z" fill="#32B686"/>
<path d="M49.8062 23.0267V21.3665H48.1388V23.0267H49.8062Z" fill="#32B686"/>
<path d="M51.4751 19.7078V18.0476H49.8077V19.7078H51.4751Z" fill="#00AC75"/>
<path d="M51.4735 11.4066V9.74634H49.8062V11.4066H51.4735Z" fill="#00AC75"/>
<path d="M6.44885 34.6514V32.9912H4.7815V34.6514H6.44885Z" fill="#00AC75"/>
<path d="M6.44885 32.991V31.3308H4.7815V32.991H6.44885Z" fill="#00AC75"/>
<path d="M8.11621 32.9928V31.3325H6.44885V32.9928H8.11621Z" fill="#00AC75"/>
<path d="M8.11768 31.3324V29.6721H6.45032V31.3324H8.11768Z" fill="#00AC75"/>
<path d="M11.4524 26.3501H9.78503V28.0103H11.4524V26.3501Z" fill="#59BE92"/>
<path d="M9.78503 28.0105H8.11768V29.6707H9.78503V28.0105Z" fill="#59BE92"/>
<path d="M8.11767 28.0105H6.45032V29.6707H8.11767V28.0105Z" fill="#59BE92"/>
<path d="M9.78503 49.5964H8.11768V51.2567H9.78503V49.5964Z" fill="#59BE92"/>
<path d="M8.11767 49.5964H6.45032V51.2567H8.11767V49.5964Z" fill="#59BE92"/>
<path d="M23.1255 49.5964H21.4581V51.2567H23.1255V49.5964Z" fill="#59BE92"/>
<path d="M21.4581 49.5964H19.7908V51.2567H21.4581V49.5964Z" fill="#59BE92"/>
<path d="M4.78149 34.6514V32.9912H3.11414V34.6514H4.78149Z" fill="#59BE92"/>
<path d="M4.78149 32.991V31.3308H3.11414V32.991H4.78149Z" fill="#59BE92"/>
<path d="M4.78149 47.9349V46.2747H3.11414V47.9349H4.78149Z" fill="#59BE92"/>
<path d="M4.78149 46.2745V44.6143H3.11414V46.2745H4.78149Z" fill="#59BE92"/>
<path d="M26.4602 47.9364V46.2761H24.7928V47.9364H26.4602Z" fill="#59BE92"/>
<path d="M26.4602 46.2745V44.6143H24.7929V46.2745H26.4602Z" fill="#59BE92"/>
<path d="M3.11414 37.9735V36.3132H1.44678V37.9735H3.11414Z" fill="#59BE92"/>
<path d="M3.11414 39.6336V37.9734H1.44678V39.6336H3.11414Z" fill="#59BE92"/>
<path d="M3.1156 41.2938V39.6335H1.44825V41.2938H3.1156Z" fill="#59BE92"/>
<path d="M3.1156 42.9542V41.2939H1.44825V42.9542H3.1156Z" fill="#59BE92"/>
<path d="M3.11414 44.6143V42.9541H1.44678V44.6143H3.11414Z" fill="#59BE92"/>
<path d="M3.11414 36.3131V34.6528H1.44678V36.3131H3.11414Z" fill="#59BE92"/>
<path d="M28.129 41.2938V39.6335H26.4617V41.2938H28.129Z" fill="#59BE92"/>
<path d="M28.129 42.9542V41.2939H26.4617V42.9542H28.129Z" fill="#59BE92"/>
<path d="M28.1276 44.6143V42.9541H26.4602V44.6143H28.1276Z" fill="#59BE92"/>
<path d="M6.44885 29.6707H4.78149V31.3309H6.44885V29.6707Z" fill="#59BE92"/>
<path d="M6.44885 47.9363H4.78149V49.5965H6.44885V47.9363Z" fill="#59BE92"/>
<path d="M24.7928 47.9363H23.1255V49.5965H24.7928V47.9363Z" fill="#59BE92"/>
<path d="M13.1197 26.3501H11.4524V28.0103H13.1197V26.3501Z" fill="#59BE92"/>
<path d="M14.7871 26.3501H13.1198V28.0103H14.7871V26.3501Z" fill="#59BE92"/>
<path d="M11.4524 51.2568H9.78503V52.9171H11.4524V51.2568Z" fill="#59BE92"/>
<path d="M13.1197 51.2568H11.4524V52.9171H13.1197V51.2568Z" fill="#59BE92"/>
<path d="M14.7871 51.2568H13.1198V52.9171H14.7871V51.2568Z" fill="#59BE92"/>
<path d="M16.4545 51.2568H14.7871V52.9171H16.4545V51.2568Z" fill="#59BE92"/>
<path d="M18.1218 51.2568H16.4545V52.9171H18.1218V51.2568Z" fill="#59BE92"/>
<path d="M19.7908 51.2568H18.1234V52.9171H19.7908V51.2568Z" fill="#59BE92"/>
<path d="M28.1276 11.4036V9.74341H26.4602V11.4036H28.1276Z" fill="#59BE92"/>
<path d="M26.4602 9.74324V8.08301H24.7928V9.74324H26.4602Z" fill="#59BE92"/>
<path d="M26.4602 8.08162V6.42139H24.7928V8.08162H26.4602Z" fill="#59BE92"/>
<path d="M4.78149 9.74178V8.08154H3.11414V9.74178H4.78149Z" fill="#59BE92"/>
<path d="M4.78149 8.08162V6.42139H3.11414V8.08162H4.78149Z" fill="#59BE92"/>
<path d="M4.78149 23.0267V21.3665H3.11414V23.0267H4.78149Z" fill="#59BE92"/>
<path d="M4.78149 21.3651V19.7048H3.11414V21.3651H4.78149Z" fill="#59BE92"/>
<path d="M19.7908 4.7627H21.4581V3.10246H19.7908V4.7627Z" fill="#59BE92"/>
<path d="M21.4581 4.7627H23.1255V3.10246H21.4581V4.7627Z" fill="#59BE92"/>
<path d="M6.44886 4.7627H8.11621V3.10246H6.44886V4.7627Z" fill="#59BE92"/>
<path d="M8.11768 4.7627H9.78503V3.10246H8.11768V4.7627Z" fill="#59BE92"/>
<path d="M6.44886 26.3486H8.11621V24.6884H6.44886V26.3486Z" fill="#59BE92"/>
<path d="M8.11768 26.3486H9.78503V24.6884H8.11768V26.3486Z" fill="#59BE92"/>
<path d="M16.4561 3.10229H18.1234V1.44206L16.4561 1.44206V3.10229Z" fill="#59BE92"/>
<path d="M14.7887 3.10229H16.4561V1.44206L14.7887 1.44206V3.10229Z" fill="#59BE92"/>
<path d="M13.1213 3.10229H14.7887V1.44206L13.1213 1.44206V3.10229Z" fill="#59BE92"/>
<path d="M11.4524 3.10229H13.1198V1.44206L11.4524 1.44206V3.10229Z" fill="#59BE92"/>
<path d="M9.78504 3.10229H11.4524V1.44206L9.78504 1.44206V3.10229Z" fill="#59BE92"/>
<path d="M18.1218 3.10229H19.7892V1.44206L18.1218 1.44206V3.10229Z" fill="#59BE92"/>
<path d="M13.1213 28.009H14.7887V26.3488H13.1213V28.009Z" fill="#59BE92"/>
<path d="M11.4524 28.009H13.1198V26.3488H11.4524V28.009Z" fill="#59BE92"/>
<path d="M9.78504 28.009H11.4524V26.3488H9.78504V28.009Z" fill="#59BE92"/>
<path d="M24.7928 6.42122V4.76099H23.1255V6.42122H24.7928Z" fill="#59BE92"/>
<path d="M6.44885 6.42122V4.76099H4.7815V6.42122H6.44885Z" fill="#59BE92"/>
<path d="M6.45032 24.6868V23.0266H4.78296V24.6868H6.45032Z" fill="#59BE92"/>
<path d="M28.129 13.0638V11.4036H26.4617V13.0638H28.129Z" fill="#59BE92"/>
<path d="M28.129 14.724V13.0637H26.4617V14.724H28.129Z" fill="#59BE92"/>
<path d="M3.11414 11.4036V9.74341H1.44678V11.4036H3.11414Z" fill="#59BE92"/>
<path d="M3.11414 13.0638V11.4036H1.44678V13.0638H3.11414Z" fill="#59BE92"/>
<path d="M3.1156 14.724V13.0637H1.44824V14.724H3.1156Z" fill="#59BE92"/>
<path d="M3.1156 16.3844V14.7241H1.44824V16.3844H3.1156Z" fill="#59BE92"/>
<path d="M3.1156 18.0445V16.3843H1.44824V18.0445H3.1156Z" fill="#59BE92"/>
<path d="M3.11414 19.7047V18.0444H1.44678V19.7047H3.11414Z" fill="#59BE92"/>
<path d="M43.1353 28.009H44.8026V26.3488H43.1353V28.009Z" fill="#59BE92"/>
<path d="M44.8041 26.3486H46.4714V24.6884H44.8041V26.3486Z" fill="#59BE92"/>
<path d="M46.4714 26.3486H48.1388V24.6884H46.4714V26.3486Z" fill="#59BE92"/>
<path d="M44.8041 4.7627H46.4714V3.10246H44.8041V4.7627Z" fill="#59BE92"/>
<path d="M46.4714 4.7627H48.1388V3.10246H46.4714V4.7627Z" fill="#59BE92"/>
<path d="M31.4623 4.7627H33.1296V3.10246H31.4623V4.7627Z" fill="#59BE92"/>
<path d="M33.1311 4.7627H34.7985V3.10246H33.1311V4.7627Z" fill="#59BE92"/>
<path d="M49.8062 19.7062V21.3665H51.4735V19.7062H49.8062Z" fill="#59BE92"/>
<path d="M49.8062 21.3664V23.0266H51.4735V21.3664H49.8062Z" fill="#59BE92"/>
<path d="M49.8062 6.42277V8.08301H51.4735V6.42277H49.8062Z" fill="#59BE92"/>
<path d="M49.8062 8.08317V9.74341H51.4735V8.08317H49.8062Z" fill="#59BE92"/>
<path d="M28.129 6.42277V8.08301H29.7964V6.42277H28.129Z" fill="#59BE92"/>
<path d="M28.129 8.08317V9.74341H29.7964V8.08317H28.129Z" fill="#59BE92"/>
<path d="M51.4735 16.3857V18.0459H53.1409V16.3857H51.4735Z" fill="#59BE92"/>
<path d="M51.4735 14.7255V16.3857H53.1409V14.7255H51.4735Z" fill="#59BE92"/>
<path d="M51.4735 13.0654V14.7256H53.1409V13.0654H51.4735Z" fill="#59BE92"/>
<path d="M51.4735 11.4035V13.0637H53.1409V11.4035H51.4735Z" fill="#59BE92"/>
<path d="M51.4735 9.74333V11.4036H53.1409V9.74333H51.4735Z" fill="#59BE92"/>
<path d="M51.4751 18.0461V19.7063H53.1425V18.0461H51.4751Z" fill="#59BE92"/>
<path d="M26.4602 13.0654V14.7256H28.1276V13.0654H26.4602Z" fill="#59BE92"/>
<path d="M26.4602 11.4035V13.0637H28.1276V11.4035H26.4602Z" fill="#59BE92"/>
<path d="M26.4602 9.74333V11.4036H28.1276V9.74333H26.4602Z" fill="#59BE92"/>
<path d="M48.1388 24.687H49.8062V23.0268H48.1388V24.687Z" fill="#59BE92"/>
<path d="M48.1388 6.42139H49.8062V4.76115H48.1388V6.42139Z" fill="#59BE92"/>
<path d="M29.7964 6.42139H31.4637V4.76115H29.7964V6.42139Z" fill="#59BE92"/>
<path d="M41.4694 28.009H43.1367V26.3488H41.4694V28.009Z" fill="#59BE92"/>
<path d="M39.802 28.009H41.4694V26.3488H39.802V28.009Z" fill="#59BE92"/>
<path d="M38.1332 28.009H39.8005V26.3488H38.1332V28.009Z" fill="#59BE92"/>
<path d="M43.1353 3.10229H44.8026V1.44206L43.1353 1.44206V3.10229Z" fill="#59BE92"/>
<path d="M41.4694 3.10229H43.1367V1.44206L41.4694 1.44206V3.10229Z" fill="#59BE92"/>
<path d="M39.802 3.10229H41.4694V1.44206L39.802 1.44206V3.10229Z" fill="#59BE92"/>
<path d="M38.1332 3.10229H39.8005V1.44206L38.1332 1.44206V3.10229Z" fill="#59BE92"/>
<path d="M36.4658 3.10229H38.1332V1.44206L36.4658 1.44206V3.10229Z" fill="#59BE92"/>
<path d="M34.7985 3.10229H36.4658V1.44206L34.7985 1.44206V3.10229Z" fill="#59BE92"/>
<path d="M26.4617 42.9555V44.6157H28.129V42.9555H26.4617Z" fill="#59BE92"/>
<path d="M28.129 44.6159V46.2761H29.7964V44.6159H28.129Z" fill="#59BE92"/>
<path d="M28.129 46.276V47.9363H29.7964V46.276H28.129Z" fill="#59BE92"/>
<path d="M49.8062 44.6159V46.2761H51.4735V44.6159H49.8062Z" fill="#59BE92"/>
<path d="M49.8062 46.276V47.9363H51.4735V46.276H49.8062Z" fill="#59BE92"/>
<path d="M49.8077 31.3324V32.9927H51.4751V31.3324H49.8077Z" fill="#59BE92"/>
<path d="M49.8062 32.9926V34.6528H51.4735V32.9926H49.8062Z" fill="#59BE92"/>
<path d="M34.7985 49.5964H33.1311V51.2567H34.7985V49.5964Z" fill="#59BE92"/>
<path d="M33.1311 49.5964H31.4637V51.2567H33.1311V49.5964Z" fill="#59BE92"/>
<path d="M48.1388 49.5964H46.4714V51.2567H48.1388V49.5964Z" fill="#59BE92"/>
<path d="M46.4714 49.5964H44.8041V51.2567H46.4714V49.5964Z" fill="#59BE92"/>
<path d="M48.1388 28.0105H46.4714V29.6707H48.1388V28.0105Z" fill="#59BE92"/>
<path d="M46.4714 28.0105H44.8041V29.6707H46.4714V28.0105Z" fill="#59BE92"/>
<path d="M38.1332 51.2568H36.4658V52.9171H38.1332V51.2568Z" fill="#59BE92"/>
<path d="M39.8005 51.2568H38.1332V52.9171H39.8005V51.2568Z" fill="#59BE92"/>
<path d="M41.4679 51.2568H39.8005V52.9171H41.4679V51.2568Z" fill="#59BE92"/>
<path d="M43.1353 51.2568H41.4679V52.9171H43.1353V51.2568Z" fill="#59BE92"/>
<path d="M44.8041 51.2568H43.1367V52.9171H44.8041V51.2568Z" fill="#59BE92"/>
<path d="M36.4658 51.2568H34.7985V52.9171H36.4658V51.2568Z" fill="#59BE92"/>
<path d="M39.8005 26.3501H38.1332V28.0103H39.8005V26.3501Z" fill="#59BE92"/>
<path d="M41.4679 26.3501H39.8005V28.0103H41.4679V26.3501Z" fill="#59BE92"/>
<path d="M43.1353 26.3501H41.4679V28.0103H43.1353V26.3501Z" fill="#59BE92"/>
<path d="M44.8041 26.3501H43.1367V28.0103H44.8041V26.3501Z" fill="#59BE92"/>
<path d="M29.7964 47.9379V49.5981H31.4637V47.9379H29.7964Z" fill="#59BE92"/>
<path d="M48.1388 47.9362V49.5964H49.8061V47.9362H48.1388Z" fill="#59BE92"/>
<path d="M48.1388 29.6723V31.3325H49.8062V29.6723H48.1388Z" fill="#59BE92"/>
<path d="M26.4602 41.2953V42.9556H28.1276V41.2953H26.4602Z" fill="#59BE92"/>
<path d="M26.4602 39.6352V41.2954H28.1276V39.6352H26.4602Z" fill="#59BE92"/>
<path d="M51.4751 42.9555V44.6157H53.1425V42.9555H51.4751Z" fill="#59BE92"/>
<path d="M51.4735 41.2953V42.9556H53.1409V41.2953H51.4735Z" fill="#59BE92"/>
<path d="M51.4735 39.6352V41.2954H53.1409V39.6352H51.4735Z" fill="#59BE92"/>
<path d="M51.4735 37.9748V39.635H53.1409V37.9748H51.4735Z" fill="#59BE92"/>
<path d="M51.4735 36.3132V37.9734H53.1409V36.3132H51.4735Z" fill="#59BE92"/>
<path d="M51.4735 34.653V36.3132H53.1409V34.653H51.4735Z" fill="#59BE92"/>
<path d="M49.8062 41.2953V42.9556H51.4735V41.2953H49.8062Z" fill="#00AC75"/>
<path d="M49.8062 39.6337V41.2939H51.4735V39.6337H49.8062Z" fill="#00AC75"/>
<path d="M49.8062 37.9733V39.6335H51.4735V37.9733H49.8062Z" fill="#00AC75"/>
<path d="M49.8062 36.3132V37.9734H51.4735V36.3132H49.8062Z" fill="#00AC75"/>
<path d="M49.8062 34.653V36.3132H51.4735V34.653H49.8062Z" fill="#00AC75"/>
<path d="M49.8077 42.9555V44.6157H51.4751V42.9555H49.8077Z" fill="#00AC75"/>
<path d="M48.1388 41.2939V42.9541H49.8061V41.2939H48.1388Z" fill="#00AC75"/>
<path d="M48.1388 39.6337V41.2939H49.8061V39.6337H48.1388Z" fill="#00AC75"/>
<path d="M48.1388 37.9733V39.6335H49.8062V37.9733H48.1388Z" fill="#00AC75"/>
<path d="M48.1388 36.3132V37.9734H49.8061V36.3132H48.1388Z" fill="#00AC75"/>
<path d="M48.1388 34.653V36.3132H49.8062V34.653H48.1388Z" fill="#00AC75"/>
<path d="M48.1373 32.9958V34.656H49.8047V32.9958H48.1373Z" fill="#00AC75"/>
<path d="M48.1388 31.3339V32.9941H49.8061V31.3339H48.1388Z" fill="#00AC75"/>
<path d="M48.1388 42.9555V44.6157H49.8061V42.9555H48.1388Z" fill="#00AC75"/>
<path d="M48.1373 44.6173V46.2776H49.8047V44.6173H48.1373Z" fill="#00AC75"/>
<path d="M48.1388 46.2807V47.9409H49.8062V46.2807H48.1388Z" fill="#00AC75"/>
<path d="M46.4714 47.9362V49.5964H48.1388V47.9362H46.4714Z" fill="#00AC75"/>
<path d="M44.8041 47.9362V49.5964H46.4714V47.9362H44.8041Z" fill="#00AC75"/>
<path d="M46.47 41.2939V42.9541H48.1373V41.2939H46.47Z" fill="#32B686"/>
<path d="M46.4714 39.6337V41.2939H48.1388V39.6337H46.4714Z" fill="#59BE92"/>
<path d="M46.4714 37.9733V39.6335H48.1388V37.9733H46.4714Z" fill="#32B686"/>
<path d="M46.4714 36.3132V37.9734H48.1388V36.3132H46.4714Z" fill="#32B686"/>
<path d="M46.4714 34.653V36.3132H48.1388V34.653H46.4714Z" fill="#32B686"/>
<path d="M46.4714 42.954V44.6143H48.1388V42.954H46.4714Z" fill="#32B686"/>
<path d="M44.8026 41.2939V42.9541H46.47V41.2939H44.8026Z" fill="#59BE92"/>
<path d="M44.8026 39.6337V41.2939H46.47V39.6337H44.8026Z" fill="#32B686"/>
<path d="M44.8041 37.9733V39.6335H46.4714V37.9733H44.8041Z" fill="#59BE92"/>
<path d="M44.8041 36.3132V37.9734H46.4714V36.3132H44.8041Z" fill="#59BE92"/>
<path d="M44.8041 34.653V36.3132H46.4714V34.653H44.8041Z" fill="#59BE92"/>
<path d="M44.8041 42.954V44.6143H46.4714V42.954H44.8041Z" fill="#32B686"/>
<path d="M43.1353 41.2953V42.9556H44.8026V41.2953H43.1353Z" fill="#32B686"/>
<path d="M43.1353 39.6352V41.2954H44.8026V39.6352H43.1353Z" fill="#59BE92"/>
<path d="M43.1353 37.9748V39.635H44.8026V37.9748H43.1353Z" fill="#59BE92"/>
<path d="M43.1367 36.3146V37.9749H44.8041V36.3146H43.1367Z" fill="#59BE92"/>
<path d="M43.1367 34.6513V36.3115H44.8041V34.6513H43.1367Z" fill="#59BE92"/>
<path d="M43.1367 42.9555V44.6157H44.8041V42.9555H43.1367Z" fill="#59BE92"/>
<path d="M41.4679 41.2953V42.9556H43.1353V41.2953H41.4679Z" fill="#59BE92"/>
<path d="M41.4679 39.6352V41.2954H43.1353V39.6352H41.4679Z" fill="#59BE92"/>
<path d="M41.4679 37.9748V39.635H43.1353V37.9748H41.4679Z" fill="#59BE92"/>
<path d="M41.4679 36.3132V37.9734H43.1353V36.3132H41.4679Z" fill="#59BE92"/>
<path d="M41.4694 34.653V36.3132H43.1367V34.653H41.4694Z" fill="#59BE92"/>
<path d="M41.4694 42.9555V44.6157H43.1367V42.9555H41.4694Z" fill="#32B686"/>
<path d="M39.8005 41.2953V42.9556H41.4679V41.2953H39.8005Z" fill="#32B686"/>
<path d="M39.8005 39.6352V41.2954H41.4679V39.6352H39.8005Z" fill="#59BE92"/>
<path d="M39.8005 37.9733V39.6335H41.4679V37.9733H39.8005Z" fill="#59BE92"/>
<path d="M39.8005 36.3132V37.9734H41.4679V36.3132H39.8005Z" fill="#59BE92"/>
<path d="M39.8005 34.653V36.3132H41.4679V34.653H39.8005Z" fill="#59BE92"/>
<path d="M39.802 42.9555V44.6157H41.4694V42.9555H39.802Z" fill="#59BE92"/>
<path d="M38.1332 41.2953V42.9556H39.8005V41.2953H38.1332Z" fill="#32B686"/>
<path d="M38.1332 39.6337V41.2939H39.8005V39.6337H38.1332Z" fill="#59BE92"/>
<path d="M38.1332 37.9733V39.6335H39.8005V37.9733H38.1332Z" fill="#59BE92"/>
<path d="M38.1332 36.3132V37.9734H39.8005V36.3132H38.1332Z" fill="#59BE92"/>
<path d="M38.1332 34.653V36.3132H39.8005V34.653H38.1332Z" fill="#59BE92"/>
<path d="M38.1346 42.9555V44.6157H39.802V42.9555H38.1346Z" fill="#32B686"/>
<path d="M36.4658 41.2939V42.9541H38.1332V41.2939H36.4658Z" fill="#32B686"/>
<path d="M36.4658 39.6337V41.2939H38.1332V39.6337H36.4658Z" fill="#59BE92"/>
<path d="M36.4658 37.9733V39.6335H38.1332V37.9733H36.4658Z" fill="#59BE92"/>
<path d="M36.4658 36.3132V37.9734H38.1332V36.3132H36.4658Z" fill="#59BE92"/>
<path d="M36.4658 34.653V36.3132H38.1332V34.653H36.4658Z" fill="#59BE92"/>
<path d="M36.4658 42.9555V44.6157H38.1332V42.9555H36.4658Z" fill="#32B686"/>
<path d="M34.797 41.2939V42.9541H36.4644V41.2939H34.797Z" fill="#32B686"/>
<path d="M34.7985 39.6337V41.2939H36.4658V39.6337H34.7985Z" fill="#59BE92"/>
<path d="M34.7985 37.9733V39.6335H36.4658V37.9733H34.7985Z" fill="#59BE92"/>
<path d="M34.7985 36.3132V37.9734H36.4658V36.3132H34.7985Z" fill="#59BE92"/>
<path d="M34.7985 34.653V36.3132H36.4658V34.653H34.7985Z" fill="#59BE92"/>
<path d="M34.7985 42.954V44.6143H36.4658V42.954H34.7985Z" fill="#32B686"/>
<path d="M33.1296 41.2939V42.9541H34.797V41.2939H33.1296Z" fill="#32B686"/>
<path d="M33.1311 39.6337V41.2939H34.7985V39.6337H33.1311Z" fill="#32B686"/>
<path d="M33.1311 37.9733V39.6335H34.7985V37.9733H33.1311Z" fill="#59BE92"/>
<path d="M33.1311 42.954V44.6143H34.7985V42.954H33.1311Z" fill="#32B686"/>
<path d="M31.4623 41.2939V42.9541H33.1296V41.2939H31.4623Z" fill="#32B686"/>
<path d="M31.4623 39.6337V41.2939H33.1296V39.6337H31.4623Z" fill="#32B686"/>
<path d="M31.4623 37.9733V39.6335H33.1296V37.9733H31.4623Z" fill="#59BE92"/>
<path d="M31.4637 42.954V44.6143H33.1311V42.954H31.4637Z" fill="#32B686"/>
<path d="M29.7949 41.2953V42.9556H31.4623V41.2953H29.7949Z" fill="#00AC75"/>
<path d="M29.7949 39.6352V41.2954H31.4623V39.6352H29.7949Z" fill="#00AC75"/>
<path d="M29.7949 37.9748V39.635H31.4623V37.9748H29.7949Z" fill="#59BE92"/>
<path d="M29.7964 42.9555V44.6157H31.4637V42.9555H29.7964Z" fill="#00AC75"/>
<path d="M46.47 44.6174V46.2776H48.1373V44.6174H46.47Z" fill="#00AC75"/>
<path d="M44.8026 44.6174V46.2776H46.47V44.6174H44.8026Z" fill="#00AC75"/>
<path d="M43.1353 44.6188V46.2791H44.8026V44.6188H43.1353Z" fill="#00AC75"/>
<path d="M41.4679 44.6188V46.2791H43.1353V44.6188H41.4679Z" fill="#00AC75"/>
<path d="M39.8005 44.6188V46.2791H41.4679V44.6188H39.8005Z" fill="#00AC75"/>
<path d="M38.1332 44.6188V46.2791H39.8005V44.6188H38.1332Z" fill="#00AC75"/>
<path d="M36.4644 44.6174V46.2776H38.1317V44.6174H36.4644Z" fill="#00AC75"/>
<path d="M34.797 44.6174V46.2776H36.4644V44.6174H34.797Z" fill="#00AC75"/>
<path d="M33.1296 44.6174V46.2776H34.797V44.6174H33.1296Z" fill="#00AC75"/>
<path d="M31.4623 44.6174V46.2776H33.1296V44.6174H31.4623Z" fill="#00AC75"/>
<path d="M29.7949 44.6188V46.2791H31.4623V44.6188H29.7949Z" fill="#00AC75"/>
<path d="M46.47 46.2807V47.9409H48.1373V46.2807H46.47Z" fill="#00AC75"/>
<path d="M44.8026 46.2807V47.9409H46.47V46.2807H44.8026Z" fill="#00AC75"/>
<path d="M43.1353 46.2821V47.9424H44.8026V46.2821H43.1353Z" fill="#00AC75"/>
<path d="M41.4679 46.2821V47.9424H43.1353V46.2821H41.4679Z" fill="#00AC75"/>
<path d="M39.8005 46.2821V47.9424H41.4679V46.2821H39.8005Z" fill="#00AC75"/>
<path d="M38.1332 46.2821V47.9424H39.8005V46.2821H38.1332Z" fill="#00AC75"/>
<path d="M36.4658 46.2807V47.9409H38.1332V46.2807H36.4658Z" fill="#00AC75"/>
<path d="M34.797 46.2807V47.9409H36.4644V46.2807H34.797Z" fill="#00AC75"/>
<path d="M33.1296 46.2807V47.9409H34.797V46.2807H33.1296Z" fill="#00AC75"/>
<path d="M31.4623 46.2807V47.9409H33.1296V46.2807H31.4623Z" fill="#00AC75"/>
<path d="M43.1367 47.9379V49.5981H44.8041V47.9379H43.1367Z" fill="#0DAE89"/>
<path d="M41.4679 47.9362V49.5964H43.1353V47.9362H41.4679Z" fill="#0DAE89"/>
<path d="M39.8005 47.9362V49.5964H41.4679V47.9362H39.8005Z" fill="#0DAE89"/>
<path d="M38.1332 47.9362V49.5964H39.8005V47.9362H38.1332Z" fill="#0DAE89"/>
<path d="M36.4658 47.9362V49.5964H38.1332V47.9362H36.4658Z" fill="#0DAE89"/>
<path d="M34.7985 47.9362V49.5964H36.4658V47.9362H34.7985Z" fill="#0DAE89"/>
<path d="M43.1367 49.5995V51.2598H44.8041V49.5995H43.1367Z" fill="#00AC75"/>
<path d="M41.4679 49.5995V51.2598H43.1353V49.5995H41.4679Z" fill="#00AC75"/>
<path d="M39.8005 49.5995V51.2598H41.4679V49.5995H39.8005Z" fill="#00AC75"/>
<path d="M38.1332 49.5995V51.2598H39.8005V49.5995H38.1332Z" fill="#00AC75"/>
<path d="M36.4658 49.5995V51.2598H38.1332V49.5995H36.4658Z" fill="#00AC75"/>
<path d="M34.7985 49.5995V51.2598H36.4658V49.5995H34.7985Z" fill="#00AC75"/>
<path d="M33.1311 47.9362V49.5964H34.7985V47.9362H33.1311Z" fill="#0DAE89"/>
<path d="M31.4637 47.9362V49.5964H33.1311V47.9362H31.4637Z" fill="#0DAE89"/>
<path d="M29.7949 46.2821V47.9424H31.4623V46.2821H29.7949Z" fill="#00AC75"/>
<path d="M28.1276 41.2953V42.9556H29.7949V41.2953H28.1276Z" fill="#00AC75"/>
<path d="M28.1276 39.6352V41.2954H29.7949V39.6352H28.1276Z" fill="#00AC75"/>
<path d="M28.1276 37.9733V39.6335H29.7949V37.9733H28.1276Z" fill="#59BE92"/>
<path d="M33.1311 36.3132V37.9734H34.7985V36.3132H33.1311Z" fill="#59BE92"/>
<path d="M31.4637 36.3132V37.9734H33.1311V36.3132H31.4637Z" fill="#59BE92"/>
<path d="M29.7949 36.3132V37.9734H31.4623V36.3132H29.7949Z" fill="#59BE92"/>
<path d="M28.1276 36.3132V37.9734H29.7949V36.3132H28.1276Z" fill="#59BE92"/>
<path d="M26.4602 37.9733V39.6335H28.1276V37.9733H26.4602Z" fill="#59BE92"/>
<path d="M24.7928 37.9733V39.6335H26.4602V37.9733H24.7928Z" fill="#59BE92"/>
<path d="M26.4602 36.3132V37.9734H28.1276V36.3132H26.4602Z" fill="#59BE92"/>
<path d="M24.7928 36.3132V37.9734H26.4602V36.3132H24.7928Z" fill="#59BE92"/>
<path d="M31.4637 34.6545V36.3147H33.1311V34.6545H31.4637Z" fill="#59BE92"/>
<path d="M33.1311 34.6545V36.3147H34.7985V34.6545H33.1311Z" fill="#59BE92"/>
<path d="M29.7964 34.6559V36.3162H31.4637V34.6559H29.7964Z" fill="#59BE92"/>
<path d="M28.129 34.6559V36.3162H29.7964V34.6559H28.129Z" fill="#59BE92"/>
<path d="M26.4602 34.6559V36.3162H28.1276V34.6559H26.4602Z" fill="#59BE92"/>
<path d="M24.7928 34.6559V36.3162H26.4602V34.6559H24.7928Z" fill="#59BE92"/>
<path d="M23.1255 37.9733V39.6335H24.7928V37.9733H23.1255Z" fill="#59BE92"/>
<path d="M23.1255 36.3132V37.9734H24.7928V36.3132H23.1255Z" fill="#59BE92"/>
<path d="M23.1255 34.653V36.3132H24.7928V34.653H23.1255Z" fill="#59BE92"/>
<path d="M21.4581 34.653V36.3132H23.1255V34.653H21.4581Z" fill="#59BE92"/>
<path d="M23.1255 32.9926V34.6528H24.7928V32.9926H23.1255Z" fill="#59BE92"/>
<path d="M21.4581 32.9926V34.6528H23.1255V32.9926H21.4581Z" fill="#59BE92"/>
<path d="M46.4714 32.9926V34.6528H48.1388V32.9926H46.4714Z" fill="#32B686"/>
<path d="M46.4714 31.331V32.9912H48.1388V31.331H46.4714Z" fill="#32B686"/>
<path d="M44.8041 32.9911V34.6514H46.4714V32.9911H44.8041Z" fill="#59BE92"/>
<path d="M44.8041 31.331V32.9912H46.4714V31.331H44.8041Z" fill="#59BE92"/>
<path d="M43.1367 32.9911V34.6514H44.8041V32.9911H43.1367Z" fill="#59BE92"/>
<path d="M43.1367 31.331V32.9912H44.8041V31.331H43.1367Z" fill="#32B686"/>
<path d="M41.4694 32.9926V34.6528H43.1367V32.9926H41.4694Z" fill="#59BE92"/>
<path d="M41.4694 31.3324V32.9927H43.1367V31.3324H41.4694Z" fill="#59BE92"/>
<path d="M39.802 32.9926V34.6528H41.4694V32.9926H39.802Z" fill="#59BE92"/>
<path d="M39.802 31.3324V32.9927H41.4694V31.3324H39.802Z" fill="#59BE92"/>
<path d="M46.4714 29.6738V31.334H48.1388V29.6738H46.4714Z" fill="#32B686"/>
<path d="M44.8026 29.6738V31.334H46.47V29.6738H44.8026Z" fill="#59BE92"/>
<path d="M43.1353 29.6737V31.334H44.8026V29.6737H43.1353Z" fill="#59BE92"/>
<path d="M41.4679 29.6752V31.3354H43.1353V29.6752H41.4679Z" fill="#59BE92"/>
<path d="M39.8005 29.6752V31.3354H41.4679V29.6752H39.8005Z" fill="#59BE92"/>
<path d="M43.1353 28.0133V29.6736H44.8026V28.0133H43.1353Z" fill="#59BE92"/>
<path d="M41.4679 28.0151V29.6753H43.1353V28.0151H41.4679Z" fill="#59BE92"/>
<path d="M39.8005 28.0134V29.6736H41.4679V28.0134H39.8005Z" fill="#59BE92"/>
<path d="M38.1332 32.9926V34.6528H39.8005V32.9926H38.1332Z" fill="#59BE92"/>
<path d="M38.1346 31.3324V32.9927H39.802V31.3324H38.1346Z" fill="#59BE92"/>
<path d="M36.4658 32.9926V34.6528H38.1332V32.9926H36.4658Z" fill="#59BE92"/>
<path d="M36.4658 31.3324V32.9927H38.1332V31.3324H36.4658Z" fill="#59BE92"/>
<path d="M34.7985 32.9926V34.6528H36.4658V32.9926H34.7985Z" fill="#59BE92"/>
<path d="M33.1311 32.9911V34.6514H34.7985V32.9911H33.1311Z" fill="#59BE92"/>
<path d="M31.4637 32.9911V34.6514H33.1311V32.9911H31.4637Z" fill="#59BE92"/>
<path d="M29.7964 32.9926V34.6528H31.4637V32.9926H29.7964Z" fill="#59BE92"/>
<path d="M34.7985 31.331V32.9912H36.4658V31.331H34.7985Z" fill="#59BE92"/>
<path d="M33.1311 31.331V32.9912H34.7985V31.331H33.1311Z" fill="#59BE92"/>
<path d="M31.4637 31.331V32.9912H33.1311V31.331H31.4637Z" fill="#59BE92"/>
<path d="M29.7964 31.3324V32.9927H31.4637V31.3324H29.7964Z" fill="#59BE92"/>
<path d="M28.129 32.9926V34.6528H29.7964V32.9926H28.129Z" fill="#59BE92"/>
<path d="M26.4602 32.9926V34.6528H28.1276V32.9926H26.4602Z" fill="#59BE92"/>
<path d="M28.129 31.3324V32.9927H29.7964V31.3324H28.129Z" fill="#59BE92"/>
<path d="M26.4617 31.3324V32.9927H28.129V31.3324H26.4617Z" fill="#59BE92"/>
<path d="M24.7928 32.9926V34.6528H26.4602V32.9926H24.7928Z" fill="#59BE92"/>
<path d="M24.7928 31.3324V32.9927H26.4602V31.3324H24.7928Z" fill="#59BE92"/>
<path d="M38.1332 29.6738V31.334H39.8005V29.6738H38.1332Z" fill="#59BE92"/>
<path d="M38.1332 28.0134V29.6736H39.8005V28.0134H38.1332Z" fill="#59BE92"/>
<path d="M36.4658 29.6737V31.334H38.1332V29.6737H36.4658Z" fill="#59BE92"/>
<path d="M36.4658 28.0133V29.6736H38.1332V28.0133H36.4658Z" fill="#59BE92"/>
<path d="M34.7985 29.6738V31.334H36.4658V29.6738H34.7985Z" fill="#59BE92"/>
<path d="M34.7985 28.0134V29.6736H36.4658V28.0134H34.7985Z" fill="#59BE92"/>
<path d="M33.1296 29.6737V31.334H34.797V29.6737H33.1296Z" fill="#59BE92"/>
<path d="M33.1311 28.0133V29.6736H34.7985V28.0133H33.1311Z" fill="#59BE92"/>
<path d="M31.4623 29.6738V31.334H33.1296V29.6738H31.4623Z" fill="#59BE92"/>
<path d="M31.4623 28.0134V29.6736H33.1296V28.0134H31.4623Z" fill="#59BE92"/>
<path d="M29.7949 29.6752V31.3354H31.4623V29.6752H29.7949Z" fill="#59BE92"/>
<path d="M29.7949 28.0151V29.6753H31.4623V28.0151H29.7949Z" fill="#59BE92"/>
<path d="M28.1276 29.6752V31.3354H29.7949V29.6752H28.1276Z" fill="#59BE92"/>
<path d="M28.1276 28.0133V29.6736H29.7949V28.0133H28.1276Z" fill="#59BE92"/>
<path d="M26.4602 29.6737V31.334H28.1276V29.6737H26.4602Z" fill="#59BE92"/>
<path d="M24.7928 29.6738V31.334H26.4602V29.6738H24.7928Z" fill="#59BE92"/>
<path d="M23.1255 29.6737V31.334H24.7928V29.6737H23.1255Z" fill="#59BE92"/>
<path d="M21.4581 29.6738V31.334H23.1255V29.6738H21.4581Z" fill="#59BE92"/>
<path d="M26.4602 28.0133V29.6736H28.1276V28.0133H26.4602Z" fill="#59BE92"/>
<path d="M24.7928 28.0134V29.6736H26.4602V28.0134H24.7928Z" fill="#59BE92"/>
<path d="M23.1255 28.0133V29.6736H24.7928V28.0133H23.1255Z" fill="#59BE92"/>
<path d="M21.4581 28.0134V29.6736H23.1255V28.0134H21.4581Z" fill="#59BE92"/>
<path d="M19.7892 29.6737V31.334H21.4565V29.6737H19.7892Z" fill="#59BE92"/>
<path d="M18.1218 29.6752V31.3354H19.7892V29.6752H18.1218Z" fill="#59BE92"/>
<path d="M19.7908 28.0133V29.6736H21.4581V28.0133H19.7908Z" fill="#59BE92"/>
<path d="M18.1218 28.0151V29.6753H19.7892V28.0151H18.1218Z" fill="#59BE92"/>
<path d="M16.4545 29.6752V31.3354H18.1218V29.6752H16.4545Z" fill="#59BE92"/>
<path d="M23.1255 31.331V32.9912H24.7928V31.331H23.1255Z" fill="#59BE92"/>
<path d="M21.4581 31.331V32.9912H23.1255V31.331H21.4581Z" fill="#59BE92"/>
<path d="M19.7908 31.331V32.9912H21.4581V31.331H19.7908Z" fill="#59BE92"/>
<path d="M18.1234 31.3324V32.9927H19.7908V31.3324H18.1234Z" fill="#59BE92"/>
<path d="M16.4561 31.3324V32.9927H18.1234V31.3324H16.4561Z" fill="#59BE92"/>
<path d="M14.7887 31.3324V32.9927H16.4561V31.3324H14.7887Z" fill="#59BE92"/>
<path d="M13.1198 31.3324V32.9927H14.7871V31.3324H13.1198Z" fill="#59BE92"/>
<path d="M11.4524 31.331V32.9912H13.1197V31.331H11.4524Z" fill="#32B686"/>
<path d="M9.78503 31.331V32.9912H11.4524V31.331H9.78503Z" fill="#32B686"/>
<path d="M9.78503 29.6737V31.334H11.4524V29.6737H9.78503Z" fill="#32B686"/>
<path d="M9.78503 28.0133V29.6736H11.4524V28.0133H9.78503Z" fill="#32B686"/>
<path d="M8.11768 31.331V32.9912H9.78503V31.331H8.11768Z" fill="#32B686"/>
<path d="M16.4545 28.0133V29.6736H18.1218V28.0133H16.4545Z" fill="#59BE92"/>
<path d="M14.7871 29.6737V31.334H16.4545V29.6737H14.7871Z" fill="#59BE92"/>
<path d="M13.1198 29.6737V31.334H14.7871V29.6737H13.1198Z" fill="#59BE92"/>
<path d="M14.7871 28.0133V29.6736H16.4545V28.0133H14.7871Z" fill="#59BE92"/>
<path d="M13.1198 28.0133V29.6736H14.7871V28.0133H13.1198Z" fill="#59BE92"/>
<path d="M11.4524 29.6737V31.334H13.1197V29.6737H11.4524Z" fill="#32B686"/>
<path d="M11.4524 28.0133V29.6736H13.1197V28.0133H11.4524Z" fill="#32B686"/>
<path d="M28.129 42.9555V44.6157H29.7964V42.9555H28.129Z" fill="#00AC75"/>
<path d="M24.7928 41.2953V42.9556H26.4602V41.2953H24.7928Z" fill="#00AC75"/>
<path d="M24.7928 39.6337V41.2939H26.4602V39.6337H24.7928Z" fill="#00AC75"/>
<path d="M24.7943 42.9555V44.6157H26.4617V42.9555H24.7943Z" fill="#00AC75"/>
<path d="M23.1255 41.2939V42.9541H24.7928V41.2939H23.1255Z" fill="#00AC75"/>
<path d="M23.1255 39.6337V41.2939H24.7928V39.6337H23.1255Z" fill="#00AC75"/>
<path d="M23.1255 42.9555V44.6157H24.7928V42.9555H23.1255Z" fill="#00AC75"/>
<path d="M23.1255 44.6188V46.2791H24.7928V44.6188H23.1255Z" fill="#00AC75"/>
<path d="M23.1255 46.2807V47.9409H24.7928V46.2807H23.1255Z" fill="#00AC75"/>
<path d="M21.4581 47.9362V49.5964H23.1255V47.9362H21.4581Z" fill="#00AC75"/>
<path d="M19.7908 47.9362V49.5964H21.4581V47.9362H19.7908Z" fill="#00AC75"/>
<path d="M21.4565 41.2939V42.9541H23.1239V41.2939H21.4565Z" fill="#32B686"/>
<path d="M21.4581 39.6337V41.2939H23.1255V39.6337H21.4581Z" fill="#32B686"/>
<path d="M21.4581 42.954V44.6143H23.1255V42.954H21.4581Z" fill="#32B686"/>
<path d="M19.7892 41.2939V42.9541H21.4565V41.2939H19.7892Z" fill="#59BE92"/>
<path d="M19.7892 39.6337V41.2939H21.4565V39.6337H19.7892Z" fill="#59BE92"/>
<path d="M19.7908 42.954V44.6143H21.4581V42.954H19.7908Z" fill="#32B686"/>
<path d="M18.1218 41.2939V42.9541H19.7892V41.2939H18.1218Z" fill="#32B686"/>
<path d="M18.1218 39.6337V41.2939H19.7892V39.6337H18.1218Z" fill="#59BE92"/>
<path d="M18.1234 42.954V44.6143H19.7908V42.954H18.1234Z" fill="#32B686"/>
<path d="M16.4545 41.2953V42.9556H18.1218V41.2953H16.4545Z" fill="#59BE92"/>
<path d="M16.4545 39.6352V41.2954H18.1218V39.6352H16.4545Z" fill="#32B686"/>
<path d="M16.4561 42.9555V44.6157H18.1234V42.9555H16.4561Z" fill="#32B686"/>
<path d="M14.7871 41.2953V42.9556H16.4545V41.2953H14.7871Z" fill="#59BE92"/>
<path d="M14.7871 39.6352V41.2954H16.4545V39.6352H14.7871Z" fill="#59BE92"/>
<path d="M14.7887 42.9555V44.6157H16.4561V42.9555H14.7887Z" fill="#32B686"/>
<path d="M13.1198 41.2953V42.9556H14.7871V41.2953H13.1198Z" fill="#32B686"/>
<path d="M13.1198 39.6337V41.2939H14.7871V39.6337H13.1198Z" fill="#32B686"/>
<path d="M13.1213 42.9555V44.6157H14.7887V42.9555H13.1213Z" fill="#32B686"/>
<path d="M11.4524 41.2939V42.9541H13.1197V41.2939H11.4524Z" fill="#32B686"/>
<path d="M11.4524 39.6337V41.2939H13.1197V39.6337H11.4524Z" fill="#32B686"/>
<path d="M11.4524 42.9555V44.6157H13.1197V42.9555H11.4524Z" fill="#32B686"/>
<path d="M9.78357 41.2939V42.9541H11.4509V41.2939H9.78357Z" fill="#32B686"/>
<path d="M9.78503 39.6337V41.2939H11.4524V39.6337H9.78503Z" fill="#32B686"/>
<path d="M9.78503 42.954V44.6143H11.4524V42.954H9.78503Z" fill="#32B686"/>
<path d="M8.11621 41.2939V42.9541H9.78357V41.2939H8.11621Z" fill="#32B686"/>
<path d="M8.11621 39.6337V41.2939H9.78357V39.6337H8.11621Z" fill="#32B686"/>
<path d="M8.11768 42.954V44.6143H9.78503V42.954H8.11768Z" fill="#32B686"/>
<path d="M6.44885 41.2939V42.9541H8.11621V41.2939H6.44885Z" fill="#00AC75"/>
<path d="M6.44885 39.6337V41.2939H8.11621V39.6337H6.44885Z" fill="#00AC75"/>
<path d="M6.45032 42.954V44.6143H8.11767V42.954H6.45032Z" fill="#00AC75"/>
<path d="M4.78149 41.2953V42.9556H6.44885V41.2953H4.78149Z" fill="#00AC75"/>
<path d="M4.78149 39.6352V41.2954H6.44885V39.6352H4.78149Z" fill="#00AC75"/>
<path d="M4.78296 42.9555V44.6157H6.45031V42.9555H4.78296Z" fill="#00AC75"/>
<path d="M21.4565 44.6174V46.2776H23.1239V44.6174H21.4565Z" fill="#00AC75"/>
<path d="M19.7892 44.6174V46.2776H21.4565V44.6174H19.7892Z" fill="#00AC75"/>
<path d="M18.1218 44.6174V46.2776H19.7892V44.6174H18.1218Z" fill="#00AC75"/>
<path d="M16.4545 44.6188V46.2791H18.1218V44.6188H16.4545Z" fill="#00AC75"/>
<path d="M14.7871 44.6188V46.2791H16.4545V44.6188H14.7871Z" fill="#00AC75"/>
<path d="M13.1198 44.6188V46.2791H14.7871V44.6188H13.1198Z" fill="#00AC75"/>
<path d="M11.4524 44.6188V46.2791H13.1197V44.6188H11.4524Z" fill="#00AC75"/>
<path d="M9.78357 44.6174V46.2776H11.4509V44.6174H9.78357Z" fill="#00AC75"/>
<path d="M8.11621 44.6174V46.2776H9.78357V44.6174H8.11621Z" fill="#00AC75"/>
<path d="M6.44885 44.6174V46.2776H8.11621V44.6174H6.44885Z" fill="#00AC75"/>
<path d="M4.78149 44.6188V46.2791H6.44885V44.6188H4.78149Z" fill="#00AC75"/>
<path d="M21.4565 46.2807V47.9409H23.1239V46.2807H21.4565Z" fill="#00AC75"/>
<path d="M19.7892 46.2807V47.9409H21.4565V46.2807H19.7892Z" fill="#00AC75"/>
<path d="M18.1218 46.2807V47.9409H19.7892V46.2807H18.1218Z" fill="#00AC75"/>
<path d="M16.4545 46.2821V47.9424H18.1218V46.2821H16.4545Z" fill="#00AC75"/>
<path d="M14.7871 46.2821V47.9424H16.4545V46.2821H14.7871Z" fill="#00AC75"/>
<path d="M11.4524 46.2807V47.9409H13.1198V46.2807H11.4524Z" fill="#00AC75"/>
<path d="M13.1198 46.2807V47.9409H14.7871V46.2807H13.1198Z" fill="#00AC75"/>
<path d="M9.78357 46.2807V47.9409H11.4509V46.2807H9.78357Z" fill="#00AC75"/>
<path d="M8.11621 46.2807V47.9409H9.78357V46.2807H8.11621Z" fill="#00AC75"/>
<path d="M6.44885 46.2807V47.9409H8.11621V46.2807H6.44885Z" fill="#00AC75"/>
<path d="M18.1234 47.9362V49.5964H19.7908V47.9362H18.1234Z" fill="#00AC75"/>
<path d="M16.4545 47.9362V49.5964H18.1218V47.9362H16.4545Z" fill="#00AC75"/>
<path d="M14.7871 47.9362V49.5964H16.4545V47.9362H14.7871Z" fill="#00AC75"/>
<path d="M13.1198 47.9362V49.5964H14.7871V47.9362H13.1198Z" fill="#00AC75"/>
<path d="M11.4524 47.9362V49.5964H13.1197V47.9362H11.4524Z" fill="#00AC75"/>
<path d="M9.78503 47.9362V49.5964H11.4524V47.9362H9.78503Z" fill="#00AC75"/>
<path d="M18.1234 49.5995V51.2598H19.7908V49.5995H18.1234Z" fill="#0DAE89"/>
<path d="M16.4561 49.5995V51.2598H18.1234V49.5995H16.4561Z" fill="#0DAE89"/>
<path d="M14.7871 49.5995V51.2598H16.4545V49.5995H14.7871Z" fill="#0DAE89"/>
<path d="M13.1198 49.5995V51.2598H14.7871V49.5995H13.1198Z" fill="#0DAE89"/>
<path d="M11.4524 49.5995V51.2598H13.1198V49.5995H11.4524Z" fill="#0DAE89"/>
<path d="M9.78503 49.5995V51.2598H11.4524V49.5995H9.78503Z" fill="#0DAE89"/>
<path d="M8.11768 47.9362V49.5964H9.78503V47.9362H8.11768Z" fill="#00AC75"/>
<path d="M6.45032 47.9362V49.5964H8.11767V47.9362H6.45032Z" fill="#00AC75"/>
<path d="M4.78149 46.2821V47.9424H6.44885V46.2821H4.78149Z" fill="#00AC75"/>
<path d="M3.11414 41.2953V42.9556H4.78149V41.2953H3.11414Z" fill="#00AC75"/>
<path d="M3.11414 39.6352V41.2954H4.78149V39.6352H3.11414Z" fill="#00AC75"/>
<path d="M21.4581 37.9733V39.6335H23.1255V37.9733H21.4581Z" fill="#59BE92"/>
<path d="M21.4581 36.3132V37.9734H23.1255V36.3132H21.4581Z" fill="#59BE92"/>
<path d="M19.7908 37.9733V39.6335H21.4581V37.9733H19.7908Z" fill="#59BE92"/>
<path d="M19.7908 36.3132V37.9734H21.4581V36.3132H19.7908Z" fill="#59BE92"/>
<path d="M18.1218 37.9733V39.6335H19.7892V37.9733H18.1218Z" fill="#59BE92"/>
<path d="M18.1234 36.3132V37.9734H19.7908V36.3132H18.1234Z" fill="#59BE92"/>
<path d="M16.4545 37.9748V39.635H18.1218V37.9748H16.4545Z" fill="#59BE92"/>
<path d="M16.4545 36.3132V37.9734H18.1218V36.3132H16.4545Z" fill="#59BE92"/>
<path d="M14.7871 37.9733V39.6335H16.4545V37.9733H14.7871Z" fill="#59BE92"/>
<path d="M14.7871 36.3132V37.9734H16.4545V36.3132H14.7871Z" fill="#59BE92"/>
<path d="M13.1198 37.9733V39.6335H14.7871V37.9733H13.1198Z" fill="#59BE92"/>
<path d="M13.1198 36.3132V37.9734H14.7871V36.3132H13.1198Z" fill="#59BE92"/>
<path d="M11.4524 37.9733V39.6335H13.1198V37.9733H11.4524Z" fill="#32B686"/>
<path d="M11.4524 36.3132V37.9734H13.1197V36.3132H11.4524Z" fill="#32B686"/>
<path d="M9.78503 37.9733V39.6335H11.4524V37.9733H9.78503Z" fill="#32B686"/>
<path d="M9.78503 36.3132V37.9734H11.4524V36.3132H9.78503Z" fill="#32B686"/>
<path d="M8.11768 37.9733V39.6335H9.78503V37.9733H8.11768Z" fill="#32B686"/>
<path d="M8.11768 36.3132V37.9734H9.78503V36.3132H8.11768Z" fill="#32B686"/>
<path d="M6.44885 37.9733V39.6335H8.11621V37.9733H6.44885Z" fill="#00AC75"/>
<path d="M6.45032 36.3132V37.9734H8.11767V36.3132H6.45032Z" fill="#00AC75"/>
<path d="M4.78149 37.9748V39.635H6.44885V37.9748H4.78149Z" fill="#00AC75"/>
<path d="M4.78149 36.3132V37.9734H6.44885V36.3132H4.78149Z" fill="#00AC75"/>
<path d="M3.11414 37.9733V39.6335H4.78149V37.9733H3.11414Z" fill="#00AC75"/>
<path d="M3.11414 36.3132V37.9734H4.78149V36.3132H3.11414Z" fill="#00AC75"/>
<path d="M19.7908 34.653V36.3132H21.4581V34.653H19.7908Z" fill="#59BE92"/>
<path d="M18.1234 34.6513V36.3115H19.7908V34.6513H18.1234Z" fill="#59BE92"/>
<path d="M16.4561 34.653V36.3132H18.1234V34.653H16.4561Z" fill="#59BE92"/>
<path d="M14.7871 34.653V36.3132H16.4545V34.653H14.7871Z" fill="#59BE92"/>
<path d="M13.1198 34.653V36.3132H14.7871V34.653H13.1198Z" fill="#59BE92"/>
<path d="M11.4524 34.653V36.3132H13.1197V34.653H11.4524Z" fill="#32B686"/>
<path d="M9.78503 34.653V36.3132H11.4524V34.653H9.78503Z" fill="#32B686"/>
<path d="M8.11768 34.653V36.3132H9.78503V34.653H8.11768Z" fill="#32B686"/>
<path d="M6.45032 34.6513V36.3115H8.11767V34.6513H6.45032Z" fill="#00AC75"/>
<path d="M4.78296 34.653V36.3132H6.45032V34.653H4.78296Z" fill="#00AC75"/>
<path d="M19.7908 32.9911V34.6514H21.4581V32.9911H19.7908Z" fill="#59BE92"/>
<path d="M18.1234 32.9911V34.6514H19.7908V32.9911H18.1234Z" fill="#59BE92"/>
<path d="M16.4561 32.9926V34.6528H18.1234V32.9926H16.4561Z" fill="#59BE92"/>
<path d="M14.7887 32.9926V34.6528H16.4561V32.9926H14.7887Z" fill="#59BE92"/>
<path d="M13.1198 32.9926V34.6528H14.7871V32.9926H13.1198Z" fill="#59BE92"/>
<path d="M11.4524 32.9926V34.6528H13.1197V32.9926H11.4524Z" fill="#32B686"/>
<path d="M9.78503 32.9926V34.6528H11.4524V32.9926H9.78503Z" fill="#32B686"/>
<path d="M8.11768 32.9911V34.6514H9.78503V32.9911H8.11768Z" fill="#32B686"/>
<path d="M6.45032 32.9911V34.6514H8.11767V32.9911H6.45032Z" fill="#00AC75"/>
<path d="M4.78296 32.9926V34.6528H6.45031V32.9926H4.78296Z" fill="#00AC75"/>
<path d="M6.44885 31.3339V32.9941H8.11621V31.3339H6.44885Z" fill="#00AC75"/>
<path d="M8.11621 29.6723V31.3325H9.78357V29.6723H8.11621Z" fill="#32B686"/>
<path d="M6.45032 29.6752V31.3354H8.11767V29.6752H6.45032Z" fill="#00AC75"/>
<path d="M4.78149 31.3354V32.9956H6.44885V31.3354H4.78149Z" fill="#00AC75"/>
<path d="M3.11414 34.653V36.3132H4.78149V34.653H3.11414Z" fill="#00AC75"/>
<path d="M3.1156 42.9555V44.6157H4.78296V42.9555H3.1156Z" fill="#00AC75"/>
<path d="M28.1276 29.6661V28.0059H26.4602V29.6661H28.1276Z" fill="#59BE92"/>
<path d="M38.1332 25.5184V23.8582H36.4658V25.5184H38.1332Z" fill="#F9D0E2"/>
<path d="M36.4658 27.1771V25.5168H34.7985V27.1771H36.4658Z" fill="#F7BBD5"/>
<path d="M38.1346 27.1771V25.5168H36.4673V27.1771H38.1346Z" fill="#F7BBD5"/>
<path d="M39.802 27.1771V25.5168H38.1346V27.1771H39.802Z" fill="#F7BBD5"/>
<path d="M36.4658 25.5199V23.8596H34.7985V25.5199H36.4658Z" fill="#F9D0E2"/>
<path d="M39.8005 25.5199V23.8596H38.1332V25.5199H39.8005Z" fill="#F9D0E2"/>
<path d="M18.1233 27.1773V25.5171H16.4559V27.1773H18.1233Z" fill="#F7BBD5"/>
<path d="M19.7906 27.1773V25.5171H18.1233V27.1773H19.7906Z" fill="#F7BBD5"/>
<path d="M21.458 27.1788V25.5186H19.7907V27.1788H21.458Z" fill="#F7BBD5"/>
<path d="M18.1218 25.5201V23.8599H16.4545V25.5201H18.1218Z" fill="#F9D0E2"/>
<path d="M19.7892 25.5201V23.8599H18.1218V25.5201H19.7892Z" fill="#F9D0E2"/>
<path d="M21.458 25.5201V23.8599H19.7907V25.5201H21.458Z" fill="#F9D0E2"/>
<path d="M23.1254 22.1995V20.5393H21.458V22.1995H23.1254Z" fill="#184742"/>
<path d="M24.7927 22.1995V20.5393H23.1254V22.1995H24.7927Z" fill="white"/>
<path d="M23.1254 23.8597V22.1995H21.458V23.8597H23.1254Z" fill="#184742"/>
<path d="M24.7927 23.8597V22.1995H23.1254V23.8597H24.7927Z" fill="#184742"/>
<path d="M33.1295 22.1995V20.5393H31.4622V22.1995H33.1295Z" fill="#184742"/>
<path d="M34.7983 22.1995V20.5393H33.131V22.1995H34.7983Z" fill="white"/>
<path d="M33.131 23.8597V22.1995H31.4636V23.8597H33.131Z" fill="#184742"/>
<path d="M34.7983 23.8597V22.1995H33.131V23.8597H34.7983Z" fill="#184742"/>
<path d="M24.7927 27.1773V25.5171H23.1254V27.1773H24.7927Z" fill="#184742"/>
<path d="M26.4615 28.8375V27.1772H24.7942V28.8375H26.4615Z" fill="#184742"/>
<path d="M28.1289 28.8375V27.1772H26.4616V28.8375H28.1289Z" fill="#184742"/>
<path d="M33.131 27.1788V25.5186H31.4636V27.1788H33.131Z" fill="#184742"/>
<path d="M31.4636 28.8392V27.179H29.7963V28.8392H31.4636Z" fill="#184742"/>
<path d="M29.7963 28.8375V27.1772H28.1289V28.8375H29.7963Z" fill="#184742"/>
<path d="M21.2375 52.917H16.7465V56.4571H15.0077V61H21.2375V56.4586V52.917Z" fill="#184742"/>
<path d="M19.7892 59.5594V57.8992H18.1218V59.5594H19.7892Z" fill="#008459"/>
<path d="M18.1218 59.5579V57.8977H16.4545V59.5579H18.1218Z" fill="#008459"/>
<path d="M19.7892 57.8992V56.239H18.1218V57.8992H19.7892Z" fill="#008459"/>
<path d="M19.7892 56.2388V54.5786H18.1218V56.2388H19.7892Z" fill="#008459"/>
<path d="M19.7906 54.5787V52.9185H18.1233V54.5787H19.7906Z" fill="#008459"/>
<path d="M39.5814 52.917H35.0905V56.4571H33.3517V61H39.5799V56.4586H39.5814V52.917Z" fill="#184742"/>
<path d="M38.1332 59.5594V57.8992H36.4658V59.5594H38.1332Z" fill="#008459"/>
<path d="M36.4658 59.5594V57.8992H34.7985V59.5594H36.4658Z" fill="#008459"/>
<path d="M38.1332 57.8992V56.239H36.4658V57.8992H38.1332Z" fill="#008459"/>
<path d="M38.1332 56.2374V54.5771H36.4658V56.2374H38.1332Z" fill="#008459"/>
<path d="M38.1346 54.5772V52.917H36.4673V54.5772H38.1346Z" fill="#008459"/>
<path d="M55.8929 22.5085H38.3842V56.5737H55.8929V22.5085Z" fill="#FBFBF9"/>
<path d="M45.8888 56.5737H39.475V58.234H45.8888V56.5737Z" fill="#FBFBF9"/>
<path d="M57.5618 57.1614H45.6758V58.8216H57.5618V57.1614Z" fill="#E4E3E1"/>
<path d="M44.2214 57.1614H41.8481V58.8216H44.2214V57.1614Z" fill="#FBFBF9"/>
<path d="M36.7168 21.6784V23.3386H38.3842V21.6784H36.7168Z" fill="#0E483A"/>
<path d="M38.0433 21.6784V23.3386H39.7107V21.6784H38.0433Z" fill="#0E483A"/>
<path d="M39.7107 22.5085V24.1687H41.378V22.5085H39.7107Z" fill="#0E483A"/>
<path d="M40.447 28.3239V29.5691H41.6975V28.3239H40.447Z" fill="#0E483A"/>
<path d="M40.447 31.3051V32.5503H41.6975V31.3051H40.447Z" fill="#0E483A"/>
<path d="M42.834 31.3066V32.5518H46.6129V31.3066H42.834Z" fill="#0E483A"/>
<path d="M40.4456 33.7197V34.9648H41.6961V33.7197H40.4456Z" fill="#0E483A"/>
<path d="M50.4467 33.7197V34.9648H51.6972V33.7197H50.4467Z" fill="#0E483A"/>
<path d="M52.7377 33.7197V34.9648H53.9882V33.7197H52.7377Z" fill="#0E483A"/>
<path d="M40.4456 36.1328V37.3779H41.6961V36.1328H40.4456Z" fill="#0E483A"/>
<path d="M50.433 38.5458V39.791H51.6835V38.5458H50.433Z" fill="#0E483A"/>
<path d="M52.7544 38.5458V39.791H54.0049V38.5458H52.7544Z" fill="#0E483A"/>
<path d="M50.433 40.9589V42.2041H51.6835V40.9589H50.433Z" fill="#0E483A"/>
<path d="M52.7544 40.9589V42.2041H54.0049V40.9589H52.7544Z" fill="#0E483A"/>
<path d="M50.433 43.372V44.6172H51.6835V43.372H50.433Z" fill="#0E483A"/>
<path d="M52.7544 43.372V44.6172H54.0049V43.372H52.7544Z" fill="#0E483A"/>
<path d="M50.433 45.7851V47.0303H51.6835V45.7851H50.433Z" fill="#0E483A"/>
<path d="M52.7544 45.7851V47.0303H54.0049V45.7851H52.7544Z" fill="#0E483A"/>
<path d="M50.4314 36.1328V37.3779H51.6819V36.1328H50.4314Z" fill="#0E483A"/>
<path d="M52.7529 36.1328V37.3779H54.0034V36.1328H52.7529Z" fill="#0E483A"/>
<path d="M42.6301 36.1328V37.3779H46.4714V36.1328H42.6301Z" fill="#0E483A"/>
<path d="M40.4456 38.5458V39.791H46.4699V38.5458H40.4456Z" fill="#0E483A"/>
<path d="M40.447 40.9589V42.2041H44.1545V40.9589H40.447Z" fill="#0E483A"/>
<path d="M40.447 43.372V44.6172H46.4714V43.372H40.447Z" fill="#0E483A"/>
<path d="M40.447 45.7851V47.0303H44.1545V45.7851H40.447Z" fill="#0E483A"/>
<path d="M42.9039 28.3225V29.5676H44.1544V28.3225H42.9039Z" fill="#0E483A"/>
<path d="M45.3624 28.3239V29.5691H46.6129V28.3239H45.3624Z" fill="#0E483A"/>
<path d="M47.8208 28.3239V29.5691H49.0713V28.3239H47.8208Z" fill="#0E483A"/>
<path d="M50.2793 28.3239V29.5691H51.5298V28.3239H50.2793Z" fill="#0E483A"/>
<path d="M52.7377 28.3239V29.5691H53.9882V28.3239H52.7377Z" fill="#0E483A"/>
<path d="M40.447 50.2661V51.5112H41.6975V50.2661H40.447Z" fill="#0E483A"/>
<path d="M42.9055 50.2661V51.5112H44.156V50.2661H42.9055Z" fill="#0E483A"/>
<path d="M45.3639 50.2675V51.5127H46.6144V50.2675H45.3639Z" fill="#0E483A"/>
<path d="M47.8208 50.2675V51.5127H49.0713V50.2675H47.8208Z" fill="#0E483A"/>
<path d="M50.2793 50.2661V51.5112H51.5298V50.2661H50.2793Z" fill="#0E483A"/>
<path d="M52.7377 50.2661V51.5112H53.9882V50.2661H52.7377Z" fill="#0E483A"/>
<path d="M50.5211 31.3808V32.479H51.6241V31.3808H50.5211Z" fill="#0E483A"/>
<path d="M52.8123 31.3808V32.479H53.9152V31.3808H52.8123Z" fill="#0E483A"/>
<path d="M42.2133 25.6125V27.2727H51.9846V25.6125H42.2133Z" fill="#0E483A"/>
<path d="M41.3796 21.6784V23.3386H43.047V21.6784H41.3796Z" fill="#0E483A"/>
<path d="M43.047 22.507V24.1672H44.7144V22.507H43.047Z" fill="#0E483A"/>
<path d="M44.7144 21.6784V23.3386H46.3817V21.6784H44.7144Z" fill="#0E483A"/>
<path d="M46.3817 22.507V24.1672H48.0491V22.507H46.3817Z" fill="#0E483A"/>
<path d="M48.0491 21.6784V23.3386H49.7164V21.6784H48.0491Z" fill="#0E483A"/>
<path d="M49.7164 22.5085V24.1687H51.3838V22.5085H49.7164Z" fill="#0E483A"/>
<path d="M51.3838 21.6784V23.3386H53.0511V21.6784H51.3838Z" fill="#0E483A"/>
<path d="M53.0511 22.507V24.1672H54.7185V22.507H53.0511Z" fill="#0E483A"/>
<path d="M54.72 21.6784V23.3386H56.3873V21.6784H54.72Z" fill="#0E483A"/>
<path d="M36.7168 23.3403V25.0005H38.3842V23.3403H36.7168Z" fill="#0E483A"/>
<path d="M36.7168 25.0019V26.6621H38.3842V25.0019H36.7168Z" fill="#0E483A"/>
<path d="M36.7168 26.6637V28.324H38.3842V26.6637H36.7168Z" fill="#0E483A"/>
<path d="M36.7168 28.3254V29.9856H38.3842V28.3254H36.7168Z" fill="#0E483A"/>
<path d="M36.7168 29.9872V31.6475H38.3842V29.9872H36.7168Z" fill="#0E483A"/>
<path d="M36.7168 31.6488V33.3091H38.3842V31.6488H36.7168Z" fill="#0E483A"/>
<path d="M36.7168 33.3107V34.9709H38.3842V33.3107H36.7168Z" fill="#0E483A"/>
<path d="M36.7168 34.9726V36.6328H38.3842V34.9726H36.7168Z" fill="#0E483A"/>
<path d="M36.7168 36.6342V38.2944H38.3842V36.6342H36.7168Z" fill="#0E483A"/>
<path d="M36.7168 38.2961V39.9563H38.3842V38.2961H36.7168Z" fill="#0E483A"/>
<path d="M36.7168 39.9577V41.6179H38.3842V39.9577H36.7168Z" fill="#0E483A"/>
<path d="M36.7168 41.6196V43.2798H38.3842V41.6196H36.7168Z" fill="#0E483A"/>
<path d="M36.7168 43.2812V44.9414H38.3842V43.2812H36.7168Z" fill="#0E483A"/>
<path d="M36.7168 44.943V46.6033H38.3842V44.943H36.7168Z" fill="#0E483A"/>
<path d="M36.7168 46.6047V48.2649H38.3842V46.6047H36.7168Z" fill="#0E483A"/>
<path d="M36.7183 48.2665V49.9268H38.3856V48.2665H36.7183Z" fill="#0E483A"/>
<path d="M36.7183 49.9281V51.5884H38.3856V49.9281H36.7183Z" fill="#0E483A"/>
<path d="M36.7183 51.59V53.2502H38.3856V51.59H36.7183Z" fill="#0E483A"/>
<path d="M36.7184 53.2516V54.9119H38.3857V53.2516H36.7184Z" fill="#0E483A"/>
<path d="M36.7184 54.9135V56.5737H38.3857V54.9135H36.7184Z" fill="#0E483A"/>
<path d="M38.3856 56.5737V58.2339H40.053V56.5737H38.3856Z" fill="#0E483A"/>
<path d="M40.053 58.2341V59.8943H41.7203V58.2341H40.053Z" fill="#0E483A"/>
<path d="M41.7203 58.8217V60.4819H43.3877V58.8217H41.7203Z" fill="#0E483A"/>
<path d="M44.2214 57.1615V58.8218H45.8888V57.1615H44.2214Z" fill="#0E483A"/>
<path d="M57.5618 57.1615V58.8218H59.2291V57.1615H57.5618Z" fill="#0E483A"/>
<path d="M45.8888 55.5011V57.1614H47.5561V55.5011H45.8888Z" fill="#0E483A"/>
<path d="M47.5576 55.5011V57.1614H49.225V55.5011H47.5576Z" fill="#0E483A"/>
<path d="M49.225 55.5011V57.1614H50.8923V55.5011H49.225Z" fill="#0E483A"/>
<path d="M50.8923 55.4997V57.1599H52.5597V55.4997H50.8923Z" fill="#0E483A"/>
<path d="M52.5597 55.4997V57.1599H54.227V55.4997H52.5597Z" fill="#0E483A"/>
<path d="M54.2271 55.5011V57.1614H55.8944V55.5011H54.2271Z" fill="#0E483A"/>
<path d="M55.8944 55.5011V57.1614H57.5618V55.5011H55.8944Z" fill="#0E483A"/>
<path d="M55.8944 53.841V55.5012H57.5618V53.841H55.8944Z" fill="#0E483A"/>
<path d="M55.8929 52.1791V53.8394H57.5603V52.1791H55.8929Z" fill="#0E483A"/>
<path d="M55.8944 50.519V52.1792H57.5618V50.519H55.8944Z" fill="#0E483A"/>
<path d="M55.8944 48.8588V50.519H57.5618V48.8588H55.8944Z" fill="#0E483A"/>
<path d="M55.8944 47.1984V48.8586H57.5618V47.1984H55.8944Z" fill="#0E483A"/>
<path d="M55.8944 45.5383V47.1985H57.5618V45.5383H55.8944Z" fill="#0E483A"/>
<path d="M55.8944 43.8781V45.5383H57.5618V43.8781H55.8944Z" fill="#0E483A"/>
<path d="M55.8944 42.2177V43.8779H57.5618V42.2177H55.8944Z" fill="#0E483A"/>
<path d="M55.8929 40.5575V42.2178H57.5603V40.5575H55.8929Z" fill="#0E483A"/>
<path d="M55.8944 38.8959V40.5562H57.5618V38.8959H55.8944Z" fill="#0E483A"/>
<path d="M55.8944 37.2355V38.8958H57.5618V37.2355H55.8944Z" fill="#0E483A"/>
<path d="M55.8944 35.5754V37.2356H57.5618V35.5754H55.8944Z" fill="#0E483A"/>
<path d="M55.8944 33.9152V35.5754H57.5618V33.9152H55.8944Z" fill="#0E483A"/>
<path d="M55.8944 32.2548V33.915H57.5618V32.2548H55.8944Z" fill="#0E483A"/>
<path d="M55.8944 30.5946V32.2549H57.5618V30.5946H55.8944Z" fill="#0E483A"/>
<path d="M55.8929 28.9345V30.5947H57.5603V28.9345H55.8929Z" fill="#0E483A"/>
<path d="M55.8944 27.2726V28.9329H57.5618V27.2726H55.8944Z" fill="#0E483A"/>
<path d="M55.8944 25.6125V27.2727H57.5618V25.6125H55.8944Z" fill="#0E483A"/>
<path d="M55.8944 23.9523V25.6125H57.5618V23.9523H55.8944Z" fill="#0E483A"/>
<path d="M55.8944 22.2919V23.9521H57.5618V22.2919H55.8944Z" fill="#0E483A"/>
<path d="M43.3877 58.8217V60.4819H45.055V58.8217H43.3877Z" fill="#0E483A"/>
<path d="M45.0551 58.8217V60.4819H46.7224V58.8217H45.0551Z" fill="#0E483A"/>
<path d="M46.7224 58.8217V60.4819H48.3898V58.8217H46.7224Z" fill="#0E483A"/>
<path d="M48.3898 58.8217V60.4819H50.0571V58.8217H48.3898Z" fill="#0E483A"/>
<path d="M50.0571 58.8232V60.4834H51.7245V58.8232H50.0571Z" fill="#0E483A"/>
<path d="M51.7261 58.8217V60.4819H53.3934V58.8217H51.7261Z" fill="#0E483A"/>
<path d="M53.3934 58.8217V60.4819H55.0608V58.8217H53.3934Z" fill="#0E483A"/>
<path d="M55.0608 58.8217V60.4819H56.7281V58.8217H55.0608Z" fill="#0E483A"/>
<path d="M56.7281 58.8217V60.4819H58.3955V58.8217H56.7281Z" fill="#0E483A"/>
<path d="M58.3955 58.8217V60.4819H60.0629V58.8217H58.3955Z" fill="#0E483A"/>
<path d="M60.0629 58.8217V60.4819H61.7302V58.8217H60.0629Z" fill="#0E483A"/>
<path d="M28.0392 38.5232L28.5427 36.9402L30.1325 37.4416L31.7223 37.943L33.312 38.4429L34.9018 38.9443L36.4916 39.4457L36.9951 37.8627L38.5849 38.3641L38.0814 39.9471L37.5778 41.5301L35.988 41.0287L34.3983 40.5273L32.8085 40.0259L31.2187 39.526L29.629 39.0246L28.0392 38.5232Z" fill="#184742"/>
<path d="M26.2228 39.4624L38.5211 43.3388L40.4014 37.425L36.052 36.0541L35.5484 37.6371L27.5996 35.1316L26.2228 39.4624Z" fill="#184742"/>
<path d="M34.9042 38.9435L33.3146 38.4426L32.8115 40.0255L34.4012 40.5264L34.9042 38.9435Z" fill="#008459"/>
<path d="M33.3149 38.4438L31.7252 37.9429L31.2222 39.5257L32.8118 40.0266L33.3149 38.4438Z" fill="#008459"/>
<path d="M31.7244 37.9411L30.1348 37.4402L29.6317 39.0231L31.2214 39.524L31.7244 37.9411Z" fill="#008459"/>
<path d="M30.1356 37.4399L28.5459 36.939L28.0428 38.5218L29.6325 39.0227L30.1356 37.4399Z" fill="#008459"/>
<path d="M36.4947 39.4445L34.905 38.9436L34.402 40.5265L35.9916 41.0274L36.4947 39.4445Z" fill="#008459"/>
<path d="M38.0851 39.9457L36.4955 39.4448L35.9924 41.0277L37.5821 41.5286L38.0851 39.9457Z" fill="#008459"/>
<path d="M38.5884 38.3622L36.9988 37.8613L36.4957 39.4442L38.0854 39.9451L38.5884 38.3622Z" fill="#008459"/>
</g>
<defs>
<clipPath id="clip0_4697_94421">
<rect width="64" height="61" fill="white"/>
</clipPath>
</defs>
</svg>
