<svg width="110" height="120" viewBox="0 0 110 120" fill="none" xmlns="http://www.w3.org/2000/svg">
<g clip-path="url(#clip0_3461_43760)">
<path d="M36.9086 114.516V111.194V107.873H33.5867V111.194V114.516V117.838H36.9086H40.2305V114.516H36.9086Z" fill="#02855A" stroke="#194742" stroke-width="4.32355" stroke-miterlimit="10"/>
<path d="M36.9086 111.194V107.873H33.5866V111.194H36.9086Z" fill="#02855A"/>
<path d="M36.9086 114.517V111.195H33.5866V114.517H36.9086Z" fill="#02855A"/>
<path d="M36.9086 117.838V114.516H33.5866V117.838H36.9086Z" fill="#02855A"/>
<path d="M40.2305 117.838V114.516H36.9085V117.838H40.2305Z" fill="#02855A"/>
<path d="M78.429 114.516V111.194V107.873H75.1071V111.194V114.516V117.838H78.429H81.7437V114.516H78.429Z" fill="#02855A" stroke="#194742" stroke-width="4.32355" stroke-miterlimit="10"/>
<path d="M78.429 111.201V107.879H75.107V111.201H78.429Z" fill="#02855A"/>
<path d="M78.429 114.523V111.201H75.107V114.523H78.429Z" fill="#02855A"/>
<path d="M78.429 117.838V114.516H75.107V117.838H78.429Z" fill="#02855A"/>
<path d="M81.7509 117.845V114.523H78.4289V117.845H81.7509Z" fill="#02855A"/>
<path d="M20.299 9.52617H23.6209H26.9428H30.2648H33.5867H36.9086H40.2305H43.5525H46.8744V6.20425H43.5525H40.2305V2.88232H36.9086H33.5867H30.2648H26.9428H23.6209H20.299V6.20425H16.9771H13.6552V9.52617H16.9771H20.299Z" fill="#184742"/>
<path d="M49.7568 12.4086H10.7728V3.32192H17.4167V0H43.1129V3.32192H49.7568V12.4086ZM23.1814 6.64385H37.3482V5.76473H23.1814V6.64385Z" fill="#184742"/>
<path d="M70.1207 9.52617H73.4426H76.7645H80.0864H83.4084H86.7303H90.0522H93.3741H96.6888V6.20425H93.3741H90.0522V2.88232H86.7303H83.4084H80.0864H76.7645H73.4426H70.1207V6.20425H66.7987H63.4768V9.52617H66.7987H70.1207Z" fill="#184742"/>
<path d="M99.5784 12.4086H60.6017V3.32192H67.2455V0H92.9418V3.32192H99.5856V12.4086H99.5784ZM73.0031 6.64385H87.1699V5.76473H73.0031V6.64385Z" fill="#184742"/>
<path d="M100.011 69.3133H103.333V65.9914V62.6694H100.011V65.9914V69.3133Z" fill="#184742"/>
<path d="M106.215 59.7874H97.1284V72.1959H106.215V59.7874Z" fill="#184742"/>
<path d="M93.374 59.3479H96.6888V56.0332H93.374H90.0521V59.3479H93.374Z" fill="#184742"/>
<path d="M99.5784 53.1436H87.1698V62.2302H99.5784V53.1436Z" fill="#184742"/>
<path d="M100.011 59.3479H96.6888V62.6698H100.011V59.3479Z" fill="#184742"/>
<path d="M102.9 56.4656H93.8137V65.5522H102.9V56.4656Z" fill="#184742"/>
<path d="M103.333 72.6354V75.9573V79.2792V82.6012V85.9231V89.245H106.655V85.9231V82.6012V79.2792V75.9573V72.6354V69.3135H103.333V72.6354Z" fill="#184742"/>
<path d="M109.537 66.4312H100.45V92.1274H109.537V66.4312Z" fill="#184742"/>
<path d="M77.9895 108.73H67.2455V105.408H60.6016V102.086H57.2797V98.7641H53.0787V102.086H49.7567V105.408H43.1129V108.737H34.0262H17.4166V105.415H10.7728V102.093H7.45085V98.7713H4.12893V92.1275H0.814209V66.4312H4.13613V59.7874H7.45806V56.4654H10.78V52.2644H7.45806V48.9425H4.13613V42.2986H0.814209V16.6096H4.13613V9.96572H7.45806V6.6438H53.0787V9.96572H57.2797V6.6438H102.9V9.96572H106.222V16.6096H109.544V42.3058H106.222V48.9497H102.9V52.2716H99.5784V55.5935H92.9345V56.4799H99.5784V59.8018H102.9V66.4384H106.222V98.7713H102.9V102.093H99.5784V105.415H92.9345V108.737H77.9895V108.73ZM74.6676 102.965H87.1698V102.093H73.003V102.965H74.6676ZM23.1813 102.965H37.3482V102.093H23.1813V102.965ZM92.9345 99.6505H93.8137V95.9034H97.1356V95.4638H63.0444V96.3285H66.3664V99.6505H67.2455V96.3357H92.9345V99.6505ZM43.1129 99.6505H43.992V95.9034H47.3139V95.4638H33.1471V95.889H27.3824V95.4638H13.2228V96.3285H16.5447V99.6505H17.4238V96.3357H43.1201V99.6505H43.1129ZM9.90086 93.0066H10.78V86.37H59.7225H60.6016V79.2866H66.3664V86.37H100.458V72.2031H97.1356V65.5665H93.8137V62.2446H87.1698V58.9227H57.2797V55.5935H49.7567V58.9155H23.1813V62.2374H13.2156V65.5593H9.89365V72.2031H6.57173V86.37H9.89365V93.0138L9.90086 93.0066ZM69.6811 53.1435H87.1626V49.8216H90.4845V46.4925H97.1284V43.1705H100.45V38.9767H93.8065V33.212H102.893V36.5339H103.772V22.3743H99.5712V25.6962H90.4845V22.3743H6.57894V36.5339H9.90086V43.1778H13.2228V46.4997H16.5447V49.8216H23.1886V53.1507H37.3698L37.3482 53.0643V49.8288H46.4348H63.9164V46.5069H73.8821V42.7526H79.6469V52.2716H69.6811V53.1579V53.1435ZM82.9688 13.2804H97.1284V12.4085H63.0372V13.2804H77.204V12.8553H82.9688V13.2804ZM13.2228 13.2804H47.3139V12.4085H13.2228V13.2804ZM70.1206 72.2031H47.3067V66.4312H73.003V72.1959H70.1206V72.2031ZM66.7987 42.3058H40.6701V36.1015H46.4348V36.5339H69.6811V42.2986H66.7987V42.3058ZM56.833 32.3401H50.6287V26.5753H59.7153V32.3329H56.833V32.3401Z" fill="#184742"/>
<path d="M20.299 96.2422H16.9771V99.5641H20.299V96.2422Z" fill="#12AF8A"/>
<path d="M16.9771 96.2422H13.6552V99.5641H16.9771V96.2422Z" fill="#12AF8A"/>
<path d="M13.6624 96.2494V92.9275H10.3404V96.2494H13.6624Z" fill="#00AD76"/>
<path d="M13.6624 92.9274V89.6055H10.3404V92.9274H13.6624Z" fill="#00AD76"/>
<path d="M10.3331 76.3178V72.9958H7.01121V76.3178H10.3331Z" fill="#00AD76"/>
<path d="M10.3331 79.6398V76.3179H7.01121V79.6398H10.3331Z" fill="#00AD76"/>
<path d="M10.3333 82.9618V79.6399H7.01133V82.9618H10.3333Z" fill="#00AD76"/>
<path d="M10.3333 86.2836V82.9617H7.01133V86.2836H10.3333Z" fill="#00AD76"/>
<path d="M10.3405 89.6056V86.2837H7.01854V89.6056H10.3405Z" fill="#00AD76"/>
<path d="M10.3331 72.996V69.6741H7.01121V72.996H10.3331Z" fill="#00AD76"/>
<path d="M10.3333 26.4962V23.1743H7.01133V26.4962H10.3333Z" fill="#00AD76"/>
<path d="M10.3333 29.818V26.4961H7.01133V29.818H10.3333Z" fill="#00AD76"/>
<path d="M10.3333 33.14V29.8181H7.01133V33.14H10.3333Z" fill="#00AD76"/>
<path d="M10.3331 36.4621V33.1401H7.01121V36.4621H10.3331Z" fill="#00AD76"/>
<path d="M10.3333 39.7838V36.4619H7.01133V39.7838H10.3333Z" fill="#00AD76"/>
<path d="M10.3333 23.1742V19.8523H7.01133V23.1742H10.3333Z" fill="#00AD76"/>
<path d="M13.6552 26.4962V23.1743H10.3332V26.4962H13.6552Z" fill="#00AD76"/>
<path d="M13.6552 29.818V26.4961H10.3332V29.818H13.6552Z" fill="#00AD76"/>
<path d="M13.6552 33.14V29.8181H10.3332V33.14H13.6552Z" fill="#00AD76"/>
<path d="M13.6552 36.4621V33.1401H10.3332V36.4621H13.6552Z" fill="#00AD76"/>
<path d="M13.6552 39.7838V36.4619H10.3332V39.7838H13.6552Z" fill="#00AD76"/>
<path d="M13.6552 43.0985V39.7766H10.3332V43.0985H13.6552Z" fill="#00AD76"/>
<path d="M13.6552 46.4206V43.0986H10.3332V46.4206H13.6552Z" fill="#00AD76"/>
<path d="M13.6552 23.1742V19.8523H10.3332V23.1742H13.6552Z" fill="#00AD76"/>
<path d="M13.6624 19.8524V16.5305H10.3404V19.8524H13.6624Z" fill="#00AD76"/>
<path d="M13.6552 16.5233V13.2014H10.3332V16.5233H13.6552Z" fill="#00AD76"/>
<path d="M16.9843 13.2084V9.88647H13.6623V13.2084H16.9843Z" fill="#00AD76"/>
<path d="M20.299 13.2084V9.88647H16.977V13.2084H20.299Z" fill="#00AD76"/>
<path d="M16.9771 26.4889V23.167H13.6551V26.4889H16.9771Z" fill="#00AD76"/>
<path d="M16.9771 29.8109V26.489H13.6551V29.8109H16.9771Z" fill="#00AD76"/>
<path d="M16.9771 33.133V29.811H13.6551V33.133H16.9771Z" fill="#00AD76"/>
<path d="M16.9771 36.4547V33.1328H13.6551V36.4547H16.9771Z" fill="#00AD76"/>
<path d="M16.9771 39.7768V36.4548H13.6551V39.7768H16.9771Z" fill="#00AD76"/>
<path d="M16.9771 23.1742V19.8523H13.6551V23.1742H16.9771Z" fill="#00AD76"/>
<path d="M20.299 26.4962V23.1743H16.977V26.4962H20.299Z" fill="#31B787"/>
<path d="M20.299 29.8109V26.489H16.977V29.8109H20.299Z" fill="#31B787"/>
<path d="M20.299 33.133V29.811H16.977V33.133H20.299Z" fill="#31B787"/>
<path d="M20.299 36.4547V33.1328H16.977V36.4547H20.299Z" fill="#31B787"/>
<path d="M20.299 39.7768V36.4548H16.977V39.7768H20.299Z" fill="#31B787"/>
<path d="M20.299 23.1742V19.8523H16.977V23.1742H20.299Z" fill="#31B787"/>
<path d="M23.6208 26.4962V23.1743H20.2989V26.4962H23.6208Z" fill="#31B787"/>
<path d="M23.6208 29.818V26.4961H20.2989V29.818H23.6208Z" fill="#88CDA9"/>
<path d="M23.6208 33.133V29.811H20.2989V33.133H23.6208Z" fill="#88CDA9"/>
<path d="M23.6208 36.4547V33.1328H20.2989V36.4547H23.6208Z" fill="#59BF93"/>
<path d="M23.6208 39.7768V36.4548H20.2989V39.7768H23.6208Z" fill="#88CDA9"/>
<path d="M23.6208 23.1742V19.8523H20.2989V23.1742H23.6208Z" fill="#31B787"/>
<path d="M26.9429 26.4962V23.1743H23.6209V26.4962H26.9429Z" fill="#59BF93"/>
<path d="M26.9429 29.818V26.4961H23.6209V29.818H26.9429Z" fill="#59BF93"/>
<path d="M26.9429 33.14V29.8181H23.6209V33.14H26.9429Z" fill="#59BF93"/>
<path d="M26.9429 36.4547V33.1328H23.6209V36.4547H26.9429Z" fill="#59BF93"/>
<path d="M26.9429 39.7768V36.4548H23.6209V39.7768H26.9429Z" fill="#59BF93"/>
<path d="M26.9429 23.1742V19.8523H23.6209V23.1742H26.9429Z" fill="#88CDA9"/>
<path d="M30.2648 26.4962V23.1743H26.9428V26.4962H30.2648Z" fill="#59BF93"/>
<path d="M30.2648 29.818V26.4961H26.9428V29.818H30.2648Z" fill="#59BF93"/>
<path d="M30.2648 33.14V29.8181H26.9428V33.14H30.2648Z" fill="#59BF93"/>
<path d="M30.2648 36.4621V33.1401H26.9428V36.4621H30.2648Z" fill="#59BF93"/>
<path d="M30.2648 39.7768V36.4548H26.9428V39.7768H30.2648Z" fill="#59BF93"/>
<path d="M30.2648 23.1742V19.8523H26.9428V23.1742H30.2648Z" fill="#59BF93"/>
<path d="M33.5867 26.4962V23.1743H30.2647V26.4962H33.5867Z" fill="#59BF93"/>
<path d="M33.5867 29.818V26.4961H30.2647V29.818H33.5867Z" fill="#59BF93"/>
<path d="M33.5867 33.14V29.8181H30.2647V33.14H33.5867Z" fill="#59BF93"/>
<path d="M33.5867 36.4621V33.1401H30.2647V36.4621H33.5867Z" fill="#59BF93"/>
<path d="M33.5867 39.7838V36.4619H30.2647V39.7838H33.5867Z" fill="#59BF93"/>
<path d="M33.5867 23.1742V19.8523H30.2647V23.1742H33.5867Z" fill="#59BF93"/>
<path d="M36.9086 26.4962V23.1743H33.5866V26.4962H36.9086Z" fill="#59BF93"/>
<path d="M36.9086 29.818V26.4961H33.5866V29.818H36.9086Z" fill="#59BF93"/>
<path d="M36.9086 33.14V29.8181H33.5866V33.14H36.9086Z" fill="#59BF93"/>
<path d="M36.9086 36.4621V33.1401H33.5866V36.4621H36.9086Z" fill="#59BF93"/>
<path d="M36.9014 39.7838V36.4619H33.5794V39.7838H36.9014Z" fill="#59BF93"/>
<path d="M36.9086 23.1742V19.8523H33.5866V23.1742H36.9086Z" fill="#59BF93"/>
<path d="M40.2305 26.4962V23.1743H36.9085V26.4962H40.2305Z" fill="#59BF93"/>
<path d="M40.2305 29.818V26.4961H36.9085V29.818H40.2305Z" fill="#59BF93"/>
<path d="M40.2305 33.14V29.8181H36.9085V33.14H40.2305Z" fill="#59BF93"/>
<path d="M40.2233 36.4621V33.1401H36.9013V36.4621H40.2233Z" fill="#59BF93"/>
<path d="M40.2305 23.1742V19.8523H36.9085V23.1742H40.2305Z" fill="#59BF93"/>
<path d="M43.5525 26.4962V23.1743H40.2306V26.4962H43.5525Z" fill="#59BF93"/>
<path d="M43.5525 29.818V26.4961H40.2306V29.818H43.5525Z" fill="#59BF93"/>
<path d="M43.5452 33.14V29.8181H40.2232V33.14H43.5452Z" fill="#59BF93"/>
<path d="M43.5525 23.1742V19.8523H40.2306V23.1742H43.5525Z" fill="#59BF93"/>
<path d="M46.8744 26.4962V23.1743H43.5525V26.4962H46.8744Z" fill="#59BF93"/>
<path d="M46.8672 29.818V26.4961H43.5453V29.818H46.8672Z" fill="#59BF93"/>
<path d="M46.8672 33.14V29.8181H43.5453V33.14H46.8672Z" fill="#59BF93"/>
<path d="M46.8744 23.1742V19.8523H43.5525V23.1742H46.8744Z" fill="#59BF93"/>
<path d="M50.1891 26.4962V23.1743H46.8672V26.4962H50.1891Z" fill="#59BF93"/>
<path d="M50.1891 29.818V26.4961H46.8672V29.818H50.1891Z" fill="#59BF93"/>
<path d="M50.1891 33.14V29.8181H46.8672V33.14H50.1891Z" fill="#59BF93"/>
<path d="M50.1963 23.1742V19.8523H46.8744V23.1742H50.1963Z" fill="#59BF93"/>
<path d="M16.9843 19.8451V16.5232H13.6623V19.8451H16.9843Z" fill="#00AD76"/>
<path d="M20.3062 19.8451V16.5232H16.9842V19.8451H20.3062Z" fill="#31B787"/>
<path d="M23.6281 19.8451V16.5232H20.3061V19.8451H23.6281Z" fill="#31B787"/>
<path d="M26.9429 19.8451V16.5232H23.6209V19.8451H26.9429Z" fill="#31B787"/>
<path d="M30.2648 19.8451V16.5232H26.9428V19.8451H30.2648Z" fill="#88CDA9"/>
<path d="M33.5867 19.8451V16.5232H30.2647V19.8451H33.5867Z" fill="#88CDA9"/>
<path d="M36.9086 19.8451V16.5232H33.5866V19.8451H36.9086Z" fill="#88CDA9"/>
<path d="M40.2305 19.8451V16.5232H36.9085V19.8451H40.2305Z" fill="#88CDA9"/>
<path d="M43.5525 19.8451V16.5232H40.2306V19.8451H43.5525Z" fill="#59BF93"/>
<path d="M46.8744 19.8524V16.5305H43.5525V19.8524H46.8744Z" fill="#88CDA9"/>
<path d="M50.1963 19.8524V16.5305H46.8744V19.8524H50.1963Z" fill="#59BF93"/>
<path d="M16.9771 16.516V13.1941H13.6551V16.516H16.9771Z" fill="#00AD76"/>
<path d="M20.299 16.516V13.1941H16.977V16.516H20.299Z" fill="#00AD76"/>
<path d="M23.6208 16.516V13.1941H20.2989V16.516H23.6208Z" fill="#31B787"/>
<path d="M26.9429 16.516V13.1941H23.6209V16.516H26.9429Z" fill="#31B787"/>
<path d="M30.2648 16.5233V13.2014H26.9428V16.5233H30.2648Z" fill="#31B787"/>
<path d="M33.5867 16.5233V13.2014H30.2647V16.5233H33.5867Z" fill="#31B787"/>
<path d="M36.9086 16.5233V13.2014H33.5866V16.5233H36.9086Z" fill="#31B787"/>
<path d="M40.2233 16.5233V13.2014H36.9013V16.5233H40.2233Z" fill="#31B787"/>
<path d="M43.5452 16.5233V13.2014H40.2232V16.5233H43.5452Z" fill="#31B787"/>
<path d="M46.8672 16.5233V13.2014H43.5453V16.5233H46.8672Z" fill="#31B787"/>
<path d="M23.6208 13.2084V9.88647H20.2989V13.2084H23.6208Z" fill="#00AD76"/>
<path d="M26.9429 13.2084V9.88647H23.6209V13.2084H26.9429Z" fill="#00AD76"/>
<path d="M30.2648 13.2084V9.88647H26.9428V13.2084H30.2648Z" fill="#00AD76"/>
<path d="M33.5867 13.2084V9.88647H30.2647V13.2084H33.5867Z" fill="#00AD76"/>
<path d="M36.9086 13.2084V9.88647H33.5866V13.2084H36.9086Z" fill="#00AD76"/>
<path d="M40.2305 13.2084V9.88647H36.9085V13.2084H40.2305Z" fill="#00AD76"/>
<path d="M23.6208 9.8793V6.55737H20.2989V9.8793H23.6208Z" fill="#00AD76"/>
<path d="M26.9429 9.8793V6.55737H23.6209V9.8793H26.9429Z" fill="#00AD76"/>
<path d="M30.2648 9.8793V6.55737H26.9428V9.8793H30.2648Z" fill="#00AD76"/>
<path d="M33.5867 9.8793V6.55737H30.2647V9.8793H33.5867Z" fill="#00AD76"/>
<path d="M36.9014 9.88662V6.5647H33.5794V9.88662H36.9014Z" fill="#00AD76"/>
<path d="M40.2233 9.88662V6.5647H36.9013V9.88662H40.2233Z" fill="#00AD76"/>
<path d="M43.5525 13.2084V9.88647H40.2306V13.2084H43.5525Z" fill="#00AD76"/>
<path d="M46.8744 13.2084V9.88647H43.5525V13.2084H46.8744Z" fill="#00AD76"/>
<path d="M50.1891 16.5233V13.2014H46.8672V16.5233H50.1891Z" fill="#59BF93"/>
<path d="M53.511 26.4962V23.1743H50.1891V26.4962H53.511Z" fill="#59BF93"/>
<path d="M53.511 29.818V26.4961H50.1891V29.818H53.511Z" fill="#59BF93"/>
<path d="M53.511 33.14V29.8181H50.1891V33.14H53.511Z" fill="#59BF93"/>
<path d="M43.5452 36.4621V33.1401H40.2232V36.4621H43.5452Z" fill="#59BF93"/>
<path d="M46.8672 36.4621V33.1401H43.5453V36.4621H46.8672Z" fill="#59BF93"/>
<path d="M50.1891 36.4621V33.1401H46.8672V36.4621H50.1891Z" fill="#59BF93"/>
<path d="M53.511 36.4621V33.1401H50.1891V36.4621H53.511Z" fill="#59BF93"/>
<path d="M56.8329 33.14V29.8181H53.511V33.14H56.8329Z" fill="#59BF93"/>
<path d="M60.1548 33.133V29.811H56.8329V33.133H60.1548Z" fill="#59BF93"/>
<path d="M56.8329 36.4621V33.1401H53.511V36.4621H56.8329Z" fill="#59BF93"/>
<path d="M60.1548 36.4547V33.1328H56.8329V36.4547H60.1548Z" fill="#59BF93"/>
<path d="M46.8744 39.7768V36.4548H43.5525V39.7768H46.8744Z" fill="#59BF93"/>
<path d="M50.1891 39.7768V36.4548H46.8672V39.7768H50.1891Z" fill="#59BF93"/>
<path d="M40.2305 39.7768V36.4548H36.9085V39.7768H40.2305Z" fill="#59BF93"/>
<path d="M43.5452 39.7768V36.4548H40.2232V39.7768H43.5452Z" fill="#59BF93"/>
<path d="M53.511 39.7768V36.4548H50.1891V39.7768H53.511Z" fill="#59BF93"/>
<path d="M56.8329 39.7768V36.4548H53.511V39.7768H56.8329Z" fill="#59BF93"/>
<path d="M60.1548 39.7694V36.4475H56.8329V39.7694H60.1548Z" fill="#59BF93"/>
<path d="M63.4768 33.133V29.811H60.1549V33.133H63.4768Z" fill="#59BF93"/>
<path d="M63.4768 36.4547V33.1328H60.1549V36.4547H63.4768Z" fill="#59BF93"/>
<path d="M16.9771 43.0985V39.7766H13.6551V43.0985H16.9771Z" fill="#00AD76"/>
<path d="M16.9843 46.4206V43.0986H13.6623V46.4206H16.9843Z" fill="#59BF93"/>
<path d="M20.299 43.0985V39.7766H16.977V43.0985H20.299Z" fill="#31B787"/>
<path d="M20.3062 46.4206V43.0986H16.9842V46.4206H20.3062Z" fill="#59BF93"/>
<path d="M23.6208 43.0985V39.7766H20.2989V43.0985H23.6208Z" fill="#59BF93"/>
<path d="M23.6281 46.4206V43.0986H20.3061V46.4206H23.6281Z" fill="#59BF93"/>
<path d="M26.9429 43.0985V39.7766H23.6209V43.0985H26.9429Z" fill="#59BF93"/>
<path d="M26.9501 46.4206V43.0986H23.6282V46.4206H26.9501Z" fill="#59BF93"/>
<path d="M30.2648 43.0985V39.7766H26.9428V43.0985H30.2648Z" fill="#59BF93"/>
<path d="M30.2648 46.4206V43.0986H26.9428V46.4206H30.2648Z" fill="#59BF93"/>
<path d="M16.9771 49.7353V46.4133H13.6551V49.7353H16.9771Z" fill="#00AD76"/>
<path d="M20.299 49.7353V46.4133H16.977V49.7353H20.299Z" fill="#59BF93"/>
<path d="M23.6208 49.7353V46.4133H20.2989V49.7353H23.6208Z" fill="#59BF93"/>
<path d="M26.9429 49.7353V46.4133H23.6209V49.7353H26.9429Z" fill="#59BF93"/>
<path d="M30.2648 49.7353V46.4133H26.9428V49.7353H30.2648Z" fill="#59BF93"/>
<path d="M23.6208 53.0573V49.7354H20.2989V53.0573H23.6208Z" fill="#59BF93"/>
<path d="M26.9429 53.0573V49.7354H23.6209V53.0573H26.9429Z" fill="#59BF93"/>
<path d="M30.2648 53.0573V49.7354H26.9428V53.0573H30.2648Z" fill="#59BF93"/>
<path d="M33.5795 43.0985V39.7766H30.2575V43.0985H33.5795Z" fill="#59BF93"/>
<path d="M36.9086 46.4206V43.0986H33.5866V46.4206H36.9086Z" fill="#59BF93"/>
<path d="M40.2233 43.1059V39.7839H36.9013V43.1059H40.2233Z" fill="#59BF93"/>
<path d="M36.9014 43.1059V39.7839H33.5794V43.1059H36.9014Z" fill="#59BF93"/>
<path d="M43.5452 43.1059V39.7839H40.2232V43.1059H43.5452Z" fill="#59BF93"/>
<path d="M46.8672 43.1059V39.7839H43.5453V43.1059H46.8672Z" fill="#59BF93"/>
<path d="M50.1891 43.1059V39.7839H46.8672V43.1059H50.1891Z" fill="#59BF93"/>
<path d="M40.2305 46.4276V43.1057H36.9085V46.4276H40.2305Z" fill="#59BF93"/>
<path d="M43.5525 46.4276V43.1057H40.2306V46.4276H43.5525Z" fill="#59BF93"/>
<path d="M46.8744 46.4276V43.1057H43.5525V46.4276H46.8744Z" fill="#59BF93"/>
<path d="M50.1963 46.4276V43.1057H46.8744V46.4276H50.1963Z" fill="#59BF93"/>
<path d="M53.511 43.1059V39.7839H50.1891V43.1059H53.511Z" fill="#59BF93"/>
<path d="M60.1548 43.0985V39.7766H56.8329V43.0985H60.1548Z" fill="#59BF93"/>
<path d="M56.8329 43.1059V39.7839H53.511V43.1059H56.8329Z" fill="#59BF93"/>
<path d="M63.4768 39.7694V36.4475H60.1549V39.7694H63.4768Z" fill="#59BF93"/>
<path d="M66.7987 39.7768V36.4548H63.4768V39.7768H66.7987Z" fill="#59BF93"/>
<path d="M63.4768 43.0985V39.7766H60.1549V43.0985H63.4768Z" fill="#59BF93"/>
<path d="M66.7987 43.0985V39.7766H63.4768V43.0985H66.7987Z" fill="#59BF93"/>
<path d="M33.5867 53.0573V49.7354H30.2647V53.0573H33.5867Z" fill="#59BF93"/>
<path d="M36.9086 49.7426V46.4207H33.5866V49.7426H36.9086Z" fill="#59BF93"/>
<path d="M33.5867 46.4206V43.0986H30.2647V46.4206H33.5867Z" fill="#59BF93"/>
<path d="M33.5867 49.7426V46.4207H30.2647V49.7426H33.5867Z" fill="#59BF93"/>
<path d="M36.9014 53.0644V49.7424H33.5794V53.0644H36.9014Z" fill="#59BF93"/>
<path d="M40.2233 49.7426V46.4207H36.9013V49.7426H40.2233Z" fill="#59BF93"/>
<path d="M40.2233 53.0644V49.7424H36.9013V53.0644H40.2233Z" fill="#59BF93"/>
<path d="M43.5452 49.7426V46.4207H40.2232V49.7426H43.5452Z" fill="#59BF93"/>
<path d="M43.5452 53.0644V49.7424H40.2232V53.0644H43.5452Z" fill="#59BF93"/>
<path d="M46.8672 53.0644V49.7424H43.5453V53.0644H46.8672Z" fill="#59BF93"/>
<path d="M50.1891 49.7426V46.4207H46.8672V49.7426H50.1891Z" fill="#59BF93"/>
<path d="M46.8672 49.7426V46.4207H43.5453V49.7426H46.8672Z" fill="#59BF93"/>
<path d="M53.511 49.7426V46.4207H50.1891V49.7426H53.511Z" fill="#59BF93"/>
<path d="M56.8329 49.7426V46.4207H53.511V49.7426H56.8329Z" fill="#59BF93"/>
<path d="M60.1548 49.7353V46.4133H56.8329V49.7353H60.1548Z" fill="#59BF93"/>
<path d="M53.5182 46.4206V43.0986H50.1963V46.4206H53.5182Z" fill="#59BF93"/>
<path d="M56.8401 46.4206V43.0986H53.5182V46.4206H56.8401Z" fill="#59BF93"/>
<path d="M60.1621 46.4132V43.0913H56.8402V46.4132H60.1621Z" fill="#59BF93"/>
<path d="M50.1891 53.0644V49.7424H46.8672V53.0644H50.1891Z" fill="#59BF93"/>
<path d="M53.511 53.0644V49.7424H50.1891V53.0644H53.511Z" fill="#59BF93"/>
<path d="M56.8329 53.0644V49.7424H53.511V53.0644H56.8329Z" fill="#59BF93"/>
<path d="M60.1548 53.0573V49.7354H56.8329V53.0573H60.1548Z" fill="#59BF93"/>
<path d="M66.7987 49.7353V46.4133H63.4768V49.7353H66.7987Z" fill="#59BF93"/>
<path d="M63.4768 49.7352V46.4133H60.1549V49.7352H63.4768Z" fill="#59BF93"/>
<path d="M63.4768 53.0573V49.7354H60.1549V53.0573H63.4768Z" fill="#59BF93"/>
<path d="M66.7987 53.0573V49.7354H63.4768V53.0573H66.7987Z" fill="#59BF93"/>
<path d="M70.1206 53.0573V49.7354H66.7987V53.0573H70.1206Z" fill="#59BF93"/>
<path d="M73.4425 53.0573V49.7354H70.1206V53.0573H73.4425Z" fill="#59BF93"/>
<path d="M63.484 46.4206V43.0986H60.1621V46.4206H63.484Z" fill="#59BF93"/>
<path d="M66.8059 46.4206V43.0986H63.484V46.4206H66.8059Z" fill="#59BF93"/>
<path d="M80.0864 46.4206V43.0986H76.7645V46.4206H80.0864Z" fill="#59BF93"/>
<path d="M83.4083 46.4276V43.1057H80.0864V46.4276H83.4083Z" fill="#59BF93"/>
<path d="M86.7302 46.4276V43.1057H83.4083V46.4276H86.7302Z" fill="#59BF93"/>
<path d="M90.0521 46.4276V43.1057H86.7302V46.4276H90.0521Z" fill="#59BF93"/>
<path d="M90.0449 49.7426V46.4207H86.723V49.7426H90.0449Z" fill="#59BF93"/>
<path d="M90.0449 53.0644V49.7424H86.723V53.0644H90.0449Z" fill="#59BF93"/>
<path d="M93.374 46.4276V43.1057H90.0521V46.4276H93.374Z" fill="#59BF93"/>
<path d="M76.7644 53.0573V49.7354H73.4425V53.0573H76.7644Z" fill="#59BF93"/>
<path d="M33.5867 56.3864V53.0645H30.2647V56.3864H33.5867Z" fill="#59BF93"/>
<path d="M36.9086 56.3864V53.0645H33.5866V56.3864H36.9086Z" fill="#59BF93"/>
<path d="M40.2305 56.3864V53.0645H36.9085V56.3864H40.2305Z" fill="#59BF93"/>
<path d="M43.5525 56.3864V53.0645H40.2306V56.3864H43.5525Z" fill="#59BF93"/>
<path d="M46.8744 56.3864V53.0645H43.5525V56.3864H46.8744Z" fill="#59BF93"/>
<path d="M50.1963 56.3935V53.0715H46.8744V56.3935H50.1963Z" fill="#59BF93"/>
<path d="M53.5182 56.3935V53.0715H50.1963V56.3935H53.5182Z" fill="#59BF93"/>
<path d="M56.8401 56.3935V53.0715H53.5182V56.3935H56.8401Z" fill="#59BF93"/>
<path d="M60.1621 56.3864V53.0645H56.8402V56.3864H60.1621Z" fill="#59BF93"/>
<path d="M63.484 56.3864V53.0645H60.1621V56.3864H63.484Z" fill="#59BF93"/>
<path d="M66.7987 56.3864V53.0645H63.4768V56.3864H66.7987Z" fill="#59BF93"/>
<path d="M70.1206 56.3864V53.0645H66.7987V56.3864H70.1206Z" fill="#59BF93"/>
<path d="M73.4425 56.3864V53.0645H70.1206V56.3864H73.4425Z" fill="#59BF93"/>
<path d="M76.7644 56.3864V53.0645H73.4425V56.3864H76.7644Z" fill="#59BF93"/>
<path d="M80.0864 49.7426V46.4207H76.7645V49.7426H80.0864Z" fill="#59BF93"/>
<path d="M83.4011 49.7426V46.4207H80.0792V49.7426H83.4011Z" fill="#59BF93"/>
<path d="M80.0792 53.0644V49.7424H76.7573V53.0644H80.0792Z" fill="#59BF93"/>
<path d="M83.4011 53.0644V49.7424H80.0792V53.0644H83.4011Z" fill="#59BF93"/>
<path d="M86.723 49.7426V46.4207H83.4011V49.7426H86.723Z" fill="#59BF93"/>
<path d="M86.723 53.0644V49.7424H83.4011V53.0644H86.723Z" fill="#59BF93"/>
<path d="M53.511 23.1742V19.8523H50.1891V23.1742H53.511Z" fill="#59BF93"/>
<path d="M60.1548 26.4962V23.1743H56.8329V26.4962H60.1548Z" fill="#00AD76"/>
<path d="M60.1548 29.8109V26.489H56.8329V29.8109H60.1548Z" fill="#00AD76"/>
<path d="M60.1548 23.1742V19.8523H56.8329V23.1742H60.1548Z" fill="#00AD76"/>
<path d="M63.4768 26.4962V23.1743H60.1549V26.4962H63.4768Z" fill="#00AD76"/>
<path d="M63.4768 29.818V26.4961H60.1549V29.818H63.4768Z" fill="#00AD76"/>
<path d="M63.4768 23.1742V19.8523H60.1549V23.1742H63.4768Z" fill="#00AD76"/>
<path d="M63.484 19.8451V16.5232H60.1621V19.8451H63.484Z" fill="#00AD76"/>
<path d="M63.4768 16.516V13.1941H60.1549V16.516H63.4768Z" fill="#00AD76"/>
<path d="M66.7987 13.2084V9.88647H63.4768V13.2084H66.7987Z" fill="#00AD76"/>
<path d="M70.1206 13.2084V9.88647H66.7987V13.2084H70.1206Z" fill="#00AD76"/>
<path d="M66.7987 26.4962V23.1743H63.4768V26.4962H66.7987Z" fill="#31B787"/>
<path d="M66.7987 29.818V26.4961H63.4768V29.818H66.7987Z" fill="#31B787"/>
<path d="M66.7987 23.1742V19.8523H63.4768V23.1742H66.7987Z" fill="#31B787"/>
<path d="M70.1206 26.4962V23.1743H66.7987V26.4962H70.1206Z" fill="#59BF93"/>
<path d="M70.1206 29.818V26.4961H66.7987V29.818H70.1206Z" fill="#59BF93"/>
<path d="M70.1206 23.1742V19.8523H66.7987V23.1742H70.1206Z" fill="#31B787"/>
<path d="M73.4425 26.4962V23.1743H70.1206V26.4962H73.4425Z" fill="#59BF93"/>
<path d="M73.4425 29.818V26.4961H70.1206V29.818H73.4425Z" fill="#59BF93"/>
<path d="M73.4425 23.1742V19.8523H70.1206V23.1742H73.4425Z" fill="#59BF93"/>
<path d="M76.7644 26.4962V23.1743H73.4425V26.4962H76.7644Z" fill="#59BF93"/>
<path d="M76.7644 29.818V26.4961H73.4425V29.818H76.7644Z" fill="#59BF93"/>
<path d="M76.7644 23.1742V19.8523H73.4425V23.1742H76.7644Z" fill="#59BF93"/>
<path d="M80.0864 26.4962V23.1743H76.7645V26.4962H80.0864Z" fill="#59BF93"/>
<path d="M80.0864 29.818V26.4961H76.7645V29.818H80.0864Z" fill="#59BF93"/>
<path d="M80.0864 23.1742V19.8523H76.7645V23.1742H80.0864Z" fill="#59BF93"/>
<path d="M83.4083 26.4962V23.1743H80.0864V26.4962H83.4083Z" fill="#59BF93"/>
<path d="M83.4083 29.818V26.4961H80.0864V29.818H83.4083Z" fill="#59BF93"/>
<path d="M83.4083 23.1742V19.8523H80.0864V23.1742H83.4083Z" fill="#59BF93"/>
<path d="M86.7302 26.4962V23.1743H83.4083V26.4962H86.7302Z" fill="#59BF93"/>
<path d="M86.7302 29.818V26.4961H83.4083V29.818H86.7302Z" fill="#59BF93"/>
<path d="M86.7302 23.1742V19.8523H83.4083V23.1742H86.7302Z" fill="#59BF93"/>
<path d="M90.0521 26.4962V23.1743H86.7302V26.4962H90.0521Z" fill="#59BF93"/>
<path d="M90.0449 29.818V26.4961H86.723V29.818H90.0449Z" fill="#59BF93"/>
<path d="M90.0521 23.1742V19.8523H86.7302V23.1742H90.0521Z" fill="#59BF93"/>
<path d="M93.3669 26.4962V23.1743H90.045V26.4962H93.3669Z" fill="#59BF93"/>
<path d="M93.3668 29.818V26.4961H90.0449V29.818H93.3668Z" fill="#59BF93"/>
<path d="M93.374 23.1742V19.8523H90.0521V23.1742H93.374Z" fill="#88CDA9"/>
<path d="M96.6888 26.4962V23.1743H93.3669V26.4962H96.6888Z" fill="#88CDA9"/>
<path d="M96.6888 29.818V26.4961H93.3669V29.818H96.6888Z" fill="#88CDA9"/>
<path d="M96.6888 23.1742V19.8523H93.3669V23.1742H96.6888Z" fill="#31B787"/>
<path d="M100.011 26.4889V23.167H96.6888V26.4889H100.011Z" fill="#31B787"/>
<path d="M100.011 29.8109V26.489H96.6888V29.8109H100.011Z" fill="#31B787"/>
<path d="M100.011 23.1671V19.8452H96.6888V23.1671H100.011Z" fill="#00AD76"/>
<path d="M66.7987 19.8451V16.5232H63.4768V19.8451H66.7987Z" fill="#31B787"/>
<path d="M70.1206 19.8451V16.5232H66.7987V19.8451H70.1206Z" fill="#59BF93"/>
<path d="M73.4425 19.8451V16.5232H70.1206V19.8451H73.4425Z" fill="#31B787"/>
<path d="M76.7644 19.8451V16.5232H73.4425V19.8451H76.7644Z" fill="#59BF93"/>
<path d="M80.0864 19.8451V16.5232H76.7645V19.8451H80.0864Z" fill="#59BF93"/>
<path d="M83.4083 19.8451V16.5232H80.0864V19.8451H83.4083Z" fill="#88CDA9"/>
<path d="M86.7302 19.8524V16.5305H83.4083V19.8524H86.7302Z" fill="#88CDA9"/>
<path d="M90.0521 19.8524V16.5305H86.7302V19.8524H90.0521Z" fill="#88CDA9"/>
<path d="M93.374 19.8524V16.5305H90.0521V19.8524H93.374Z" fill="#31B787"/>
<path d="M96.696 19.8524V16.5305H93.3741V19.8524H96.696Z" fill="#31B787"/>
<path d="M100.018 19.8451V16.5232H96.696V19.8451H100.018Z" fill="#00AD76"/>
<path d="M66.7987 16.516V13.1941H63.4768V16.516H66.7987Z" fill="#31B787"/>
<path d="M70.1206 16.516V13.1941H66.7987V16.516H70.1206Z" fill="#31B787"/>
<path d="M73.4425 16.5233V13.2014H70.1206V16.5233H73.4425Z" fill="#31B787"/>
<path d="M76.7644 16.5233V13.2014H73.4425V16.5233H76.7644Z" fill="#31B787"/>
<path d="M80.0792 16.5233V13.2014H76.7573V16.5233H80.0792Z" fill="#31B787"/>
<path d="M86.723 16.5233V13.2014H83.4011V16.5233H86.723Z" fill="#31B787"/>
<path d="M83.4011 16.5233V13.2014H80.0792V16.5233H83.4011Z" fill="#31B787"/>
<path d="M90.0449 16.5233V13.2014H86.723V16.5233H90.0449Z" fill="#31B787"/>
<path d="M93.3669 16.5233V13.2014H90.045V16.5233H93.3669Z" fill="#00AD76"/>
<path d="M96.6888 16.5233V13.2014H93.3669V16.5233H96.6888Z" fill="#00AD76"/>
<path d="M73.4425 13.2084V9.88647H70.1206V13.2084H73.4425Z" fill="#00AD76"/>
<path d="M76.7644 13.2084V9.88647H73.4425V13.2084H76.7644Z" fill="#00AD76"/>
<path d="M80.0864 13.2084V9.88647H76.7645V13.2084H80.0864Z" fill="#00AD76"/>
<path d="M83.4083 13.2084V9.88647H80.0864V13.2084H83.4083Z" fill="#00AD76"/>
<path d="M86.7302 13.2084V9.88647H83.4083V13.2084H86.7302Z" fill="#00AD76"/>
<path d="M90.0521 13.2084V9.88647H86.7302V13.2084H90.0521Z" fill="#00AD76"/>
<path d="M73.4425 9.8793V6.55737H70.1206V9.8793H73.4425Z" fill="#00AD76"/>
<path d="M76.7572 9.88662V6.5647H73.4353V9.88662H76.7572Z" fill="#00AD76"/>
<path d="M80.0792 9.88662V6.5647H76.7573V9.88662H80.0792Z" fill="#00AD76"/>
<path d="M83.4011 9.88662V6.5647H80.0792V9.88662H83.4011Z" fill="#00AD76"/>
<path d="M86.723 9.88662V6.5647H83.4011V9.88662H86.723Z" fill="#00AD76"/>
<path d="M90.0449 9.88662V6.5647H86.723V9.88662H90.0449Z" fill="#00AD76"/>
<path d="M93.374 13.2157V9.8938H90.0521V13.2157H93.374Z" fill="#00AD76"/>
<path d="M96.696 13.2157V9.8938H93.3741V13.2157H96.696Z" fill="#00AD76"/>
<path d="M100.011 16.516V13.1941H96.6888V16.516H100.011Z" fill="#00AD76"/>
<path d="M103.333 26.4889V23.167H100.011V26.4889H103.333Z" fill="#00AD76"/>
<path d="M103.333 29.8109V26.489H100.011V29.8109H103.333Z" fill="#00AD76"/>
<path d="M66.7987 33.14V29.8181H63.4768V33.14H66.7987Z" fill="#59BF93"/>
<path d="M66.7987 36.4547V33.1328H63.4768V36.4547H66.7987Z" fill="#59BF93"/>
<path d="M70.1206 33.14V29.8181H66.7987V33.14H70.1206Z" fill="#59BF93"/>
<path d="M70.1206 36.4621V33.1401H66.7987V36.4621H70.1206Z" fill="#59BF93"/>
<path d="M73.4425 33.14V29.8181H70.1206V33.14H73.4425Z" fill="#59BF93"/>
<path d="M73.4425 36.4621V33.1401H70.1206V36.4621H73.4425Z" fill="#59BF93"/>
<path d="M76.7644 33.14V29.8181H73.4425V33.14H76.7644Z" fill="#59BF93"/>
<path d="M76.7644 36.4621V33.1401H73.4425V36.4621H76.7644Z" fill="#59BF93"/>
<path d="M80.0864 33.14V29.8181H76.7645V33.14H80.0864Z" fill="#59BF93"/>
<path d="M80.0864 36.4621V33.1401H76.7645V36.4621H80.0864Z" fill="#59BF93"/>
<path d="M83.4083 33.14V29.8181H80.0864V33.14H83.4083Z" fill="#59BF93"/>
<path d="M83.4011 36.4621V33.1401H80.0792V36.4621H83.4011Z" fill="#59BF93"/>
<path d="M86.723 33.14V29.8181H83.4011V33.14H86.723Z" fill="#59BF93"/>
<path d="M86.723 36.4621V33.1401H83.4011V36.4621H86.723Z" fill="#59BF93"/>
<path d="M90.0449 33.14V29.8181H86.723V33.14H90.0449Z" fill="#59BF93"/>
<path d="M90.0449 36.4621V33.1401H86.723V36.4621H90.0449Z" fill="#59BF93"/>
<path d="M93.3668 33.14V29.8181H90.0449V33.14H93.3668Z" fill="#59BF93"/>
<path d="M93.3668 36.4621V33.1401H90.0449V36.4621H93.3668Z" fill="#59BF93"/>
<path d="M96.6888 33.14V29.8181H93.3669V33.14H96.6888Z" fill="#88CDA9"/>
<path d="M96.6888 36.4621V33.1401H93.3669V36.4621H96.6888Z" fill="#88CDA9"/>
<path d="M100.011 33.133V29.811H96.6888V33.133H100.011Z" fill="#31B787"/>
<path d="M100.018 36.4547V33.1328H96.696V36.4547H100.018Z" fill="#31B787"/>
<path d="M103.333 33.133V29.811H100.011V33.133H103.333Z" fill="#00AD76"/>
<path d="M103.333 36.4547V33.1328H100.011V36.4547H103.333Z" fill="#00AD76"/>
<path d="M70.1206 39.7768V36.4548H66.7987V39.7768H70.1206Z" fill="#59BF93"/>
<path d="M73.4425 39.7838V36.4619H70.1206V39.7838H73.4425Z" fill="#59BF93"/>
<path d="M76.7644 39.7838V36.4619H73.4425V39.7838H76.7644Z" fill="#59BF93"/>
<path d="M80.0792 39.7838V36.4619H76.7573V39.7838H80.0792Z" fill="#59BF93"/>
<path d="M83.4011 39.7838V36.4619H80.0792V39.7838H83.4011Z" fill="#59BF93"/>
<path d="M86.723 39.7838V36.4619H83.4011V39.7838H86.723Z" fill="#59BF93"/>
<path d="M90.0449 39.7838V36.4619H86.723V39.7838H90.0449Z" fill="#59BF93"/>
<path d="M93.3669 39.7838V36.4619H90.045V39.7838H93.3669Z" fill="#59BF93"/>
<path d="M96.6888 39.7838V36.4619H93.3669V39.7838H96.6888Z" fill="#59BF93"/>
<path d="M100.011 39.7768V36.4548H96.6888V39.7768H100.011Z" fill="#31B787"/>
<path d="M70.1206 43.0985V39.7766H66.7987V43.0985H70.1206Z" fill="#59BF93"/>
<path d="M73.4425 43.0985V39.7766H70.1206V43.0985H73.4425Z" fill="#59BF93"/>
<path d="M76.7573 43.1059V39.7839H73.4354V43.1059H76.7573Z" fill="#59BF93"/>
<path d="M70.1278 46.4206V43.0986H66.8059V46.4206H70.1278Z" fill="#59BF93"/>
<path d="M73.4425 46.4206V43.0986H70.1206V46.4206H73.4425Z" fill="#59BF93"/>
<path d="M76.7644 46.4206V43.0986H73.4425V46.4206H76.7644Z" fill="#59BF93"/>
<path d="M70.1206 49.7353V46.4133H66.7987V49.7353H70.1206Z" fill="#59BF93"/>
<path d="M73.4425 49.7353V46.4133H70.1206V49.7353H73.4425Z" fill="#59BF93"/>
<path d="M76.7644 49.7353V46.4133H73.4425V49.7353H76.7644Z" fill="#59BF93"/>
<path d="M80.0792 43.1059V39.7839H76.7573V43.1059H80.0792Z" fill="#59BF93"/>
<path d="M83.4011 43.1059V39.7839H80.0792V43.1059H83.4011Z" fill="#59BF93"/>
<path d="M86.723 43.1059V39.7839H83.4011V43.1059H86.723Z" fill="#59BF93"/>
<path d="M90.0449 43.1059V39.7839H86.723V43.1059H90.0449Z" fill="#59BF93"/>
<path d="M93.3669 43.1059V39.7839H90.045V43.1059H93.3669Z" fill="#59BF93"/>
<path d="M96.696 43.1059V39.7839H93.3741V43.1059H96.696Z" fill="#31B787"/>
<path d="M100.018 43.0985V39.7766H96.696V43.0985H100.018Z" fill="#31B787"/>
<path d="M96.696 46.4206V43.0986H93.3741V46.4206H96.696Z" fill="#31B787"/>
<path d="M93.374 49.7426V46.4207H90.0521V49.7426H93.374Z" fill="#59BF93"/>
<path d="M96.696 49.7426V46.4207H93.3741V49.7426H96.696Z" fill="#31B787"/>
<path d="M100.011 46.4132V43.0913H96.6888V46.4132H100.011Z" fill="#31B787"/>
<path d="M103.333 39.7768V36.4548H100.011V39.7768H103.333Z" fill="#00AD76"/>
<path d="M103.333 23.1742V19.8523H100.011V23.1742H103.333Z" fill="#00AD76"/>
<path d="M13.6552 69.674V66.3521H10.3332V69.674H13.6552Z" fill="#00AD76"/>
<path d="M13.6552 66.3522V63.0303H10.3332V66.3522H13.6552Z" fill="#00AD76"/>
<path d="M16.9771 66.3522V63.0303H13.6551V66.3522H16.9771Z" fill="#00AD76"/>
<path d="M16.9771 63.0302V59.7083H13.6551V63.0302H16.9771Z" fill="#00AD76"/>
<path d="M23.6209 53.0645H20.299V56.3864H23.6209V53.0645Z" fill="#59BF93"/>
<path d="M20.299 56.3865H16.9771V59.7084H20.299V56.3865Z" fill="#59BF93"/>
<path d="M16.9771 56.3865H13.6552V59.7084H16.9771V56.3865Z" fill="#59BF93"/>
<path d="M20.299 99.5642H16.9771V102.886H20.299V99.5642Z" fill="#59BF93"/>
<path d="M16.9771 99.5642H13.6552V102.886H16.9771V99.5642Z" fill="#59BF93"/>
<path d="M46.8743 99.5642H43.5524V102.886H46.8743V99.5642Z" fill="#59BF93"/>
<path d="M43.5524 99.5642H40.2305V102.886H43.5524V99.5642Z" fill="#59BF93"/>
<path d="M10.3331 69.674V66.3521H7.01121V69.674H10.3331Z" fill="#59BF93"/>
<path d="M10.3331 66.3522V63.0303H7.01121V66.3522H10.3331Z" fill="#59BF93"/>
<path d="M10.3403 96.2494V92.9275H7.01841V96.2494H10.3403Z" fill="#59BF93"/>
<path d="M10.3403 92.9276V89.6057H7.01841V92.9276H10.3403Z" fill="#59BF93"/>
<path d="M53.5182 96.2494V92.9275H50.1963V96.2494H53.5182Z" fill="#59BF93"/>
<path d="M53.5182 92.9276V89.6057H50.1963V92.9276H53.5182Z" fill="#59BF93"/>
<path d="M7.01123 76.318V72.9961H3.68931V76.318H7.01123Z" fill="#59BF93"/>
<path d="M7.01123 79.6398V76.3179H3.68931V79.6398H7.01123Z" fill="#59BF93"/>
<path d="M7.01123 82.9618V79.6399H3.68931V82.9618H7.01123Z" fill="#59BF93"/>
<path d="M7.01123 86.2836V82.9617H3.68931V86.2836H7.01123Z" fill="#59BF93"/>
<path d="M7.01843 89.6056V86.2837H3.69651V89.6056H7.01843Z" fill="#59BF93"/>
<path d="M7.01123 72.996V69.6741H3.68931V72.996H7.01123Z" fill="#59BF93"/>
<path d="M56.8329 82.9618V79.6399H53.511V82.9618H56.8329Z" fill="#59BF93"/>
<path d="M56.8329 86.2836V82.9617H53.511V86.2836H56.8329Z" fill="#59BF93"/>
<path d="M56.8401 89.6056V86.2837H53.5182V89.6056H56.8401Z" fill="#59BF93"/>
<path d="M13.6623 59.7083H10.3403V63.0302H13.6623V59.7083Z" fill="#59BF93"/>
<path d="M13.6623 96.2422H10.3403V99.5641H13.6623V96.2422Z" fill="#59BF93"/>
<path d="M50.1963 96.2422H46.8744V99.5641H50.1963V96.2422Z" fill="#59BF93"/>
<path d="M26.9428 53.0645H23.6208V56.3864H26.9428V53.0645Z" fill="#59BF93"/>
<path d="M30.2647 53.0645H26.9427V56.3864H30.2647V53.0645Z" fill="#59BF93"/>
<path d="M23.6209 102.886H20.299V106.208H23.6209V102.886Z" fill="#59BF93"/>
<path d="M26.9428 102.886H23.6208V106.208H26.9428V102.886Z" fill="#59BF93"/>
<path d="M30.2647 102.886H26.9427V106.208H30.2647V102.886Z" fill="#59BF93"/>
<path d="M33.5867 102.886H30.2648V106.208H33.5867V102.886Z" fill="#59BF93"/>
<path d="M36.9086 102.886H33.5867V106.208H36.9086V102.886Z" fill="#59BF93"/>
<path d="M40.2305 102.886H36.9086V106.208H40.2305V102.886Z" fill="#59BF93"/>
<path d="M56.8401 23.1745V19.8525H53.5182V23.1745H56.8401Z" fill="#59BF93"/>
<path d="M53.5182 19.8524V16.5305H50.1963V19.8524H53.5182Z" fill="#59BF93"/>
<path d="M53.5182 16.5304V13.2085H50.1963V16.5304H53.5182Z" fill="#59BF93"/>
<path d="M10.3403 19.8524V16.5305H7.01841V19.8524H10.3403Z" fill="#59BF93"/>
<path d="M10.3403 16.5304V13.2085H7.01841V16.5304H10.3403Z" fill="#59BF93"/>
<path d="M10.3331 46.4206V43.0986H7.01121V46.4206H10.3331Z" fill="#59BF93"/>
<path d="M10.3331 43.0988V39.7769H7.01121V43.0988H10.3331Z" fill="#59BF93"/>
<path d="M40.2304 9.87939H43.5524V6.55747H40.2304V9.87939Z" fill="#59BF93"/>
<path d="M43.5453 9.87939H46.8672V6.55747H43.5453V9.87939Z" fill="#59BF93"/>
<path d="M13.6623 9.87939H16.9843V6.55747H13.6623V9.87939Z" fill="#59BF93"/>
<path d="M16.9842 9.87939H20.3062V6.55747H16.9842V9.87939Z" fill="#59BF93"/>
<path d="M13.6623 53.0574H16.9843V49.7354H13.6623V53.0574Z" fill="#59BF93"/>
<path d="M16.9842 53.0574H20.3062V49.7354H16.9842V53.0574Z" fill="#59BF93"/>
<path d="M33.5866 6.55762H36.9086V3.23569L33.5866 3.23569V6.55762Z" fill="#59BF93"/>
<path d="M30.2647 6.55762H33.5867V3.23569L30.2647 3.23569V6.55762Z" fill="#59BF93"/>
<path d="M26.9428 6.55762H30.2648V3.23569L26.9428 3.23569V6.55762Z" fill="#59BF93"/>
<path d="M23.6208 6.55762H26.9427V3.23569L23.6208 3.23569V6.55762Z" fill="#59BF93"/>
<path d="M20.2989 6.55762H23.6208V3.23569L20.2989 3.23569V6.55762Z" fill="#59BF93"/>
<path d="M36.9085 6.55762H40.2305V3.23569L36.9085 3.23569V6.55762Z" fill="#59BF93"/>
<path d="M26.9428 56.3865H30.2648V53.0646H26.9428V56.3865Z" fill="#59BF93"/>
<path d="M23.6208 56.3865H26.9427V53.0646H23.6208V56.3865Z" fill="#59BF93"/>
<path d="M20.2989 56.3865H23.6208V53.0646H20.2989V56.3865Z" fill="#59BF93"/>
<path d="M50.1963 13.2086V9.88672H46.8744V13.2086H50.1963Z" fill="#59BF93"/>
<path d="M13.6624 13.2086V9.88672H10.3404V13.2086H13.6624Z" fill="#59BF93"/>
<path d="M13.6552 49.7426V46.4207H10.3332V49.7426H13.6552Z" fill="#59BF93"/>
<path d="M56.8401 26.4962V23.1743H53.5182V26.4962H56.8401Z" fill="#59BF93"/>
<path d="M56.8401 29.8183V26.4963H53.5182V29.8183H56.8401Z" fill="#59BF93"/>
<path d="M7.01843 23.1745V19.8525H3.69651V23.1745H7.01843Z" fill="#59BF93"/>
<path d="M7.01843 26.4892V23.1672H3.69651V26.4892H7.01843Z" fill="#59BF93"/>
<path d="M7.01843 29.8109V26.489H3.69651V29.8109H7.01843Z" fill="#59BF93"/>
<path d="M7.01843 33.133V29.811H3.69651V33.133H7.01843Z" fill="#59BF93"/>
<path d="M7.01843 36.4547V33.1328H3.69651V36.4547H7.01843Z" fill="#59BF93"/>
<path d="M7.01123 39.7768V36.4548H3.68931V39.7768H7.01123Z" fill="#59BF93"/>
<path d="M86.723 56.3865H90.0449V53.0646H86.723V56.3865Z" fill="#59BF93"/>
<path d="M90.0449 53.0574H93.3668V49.7354H90.0449V53.0574Z" fill="#59BF93"/>
<path d="M93.3669 53.0574H96.6888V49.7354H93.3669V53.0574Z" fill="#59BF93"/>
<path d="M90.0449 9.87939H93.3668V6.55747H90.0449V9.87939Z" fill="#59BF93"/>
<path d="M93.3669 9.87939H96.6888V6.55747H93.3669V9.87939Z" fill="#59BF93"/>
<path d="M63.4768 9.87939H66.7987V6.55747H63.4768V9.87939Z" fill="#59BF93"/>
<path d="M66.7987 9.87939H70.1206V6.55747H66.7987V9.87939Z" fill="#59BF93"/>
<path d="M100.018 39.7767V43.0986H103.34V39.7767H100.018Z" fill="#59BF93"/>
<path d="M100.018 43.0987V46.4207H103.34V43.0987H100.018Z" fill="#59BF93"/>
<path d="M100.011 13.2086V16.5305H103.333V13.2086H100.011Z" fill="#59BF93"/>
<path d="M100.011 16.5306V19.8525H103.333V16.5306H100.011Z" fill="#59BF93"/>
<path d="M56.8329 13.2086V16.5305H60.1548V13.2086H56.8329Z" fill="#59BF93"/>
<path d="M56.8329 16.5306V19.8525H60.1548V16.5306H56.8329Z" fill="#59BF93"/>
<path d="M103.333 33.1329V36.4548H106.655V33.1329H103.333Z" fill="#59BF93"/>
<path d="M103.333 29.8109V33.1328H106.655V29.8109H103.333Z" fill="#59BF93"/>
<path d="M103.333 26.4891V29.811H106.655V26.4891H103.333Z" fill="#59BF93"/>
<path d="M103.333 23.1671V26.489H106.655V23.1671H103.333Z" fill="#59BF93"/>
<path d="M103.333 19.8453V23.1672H106.655V19.8453H103.333Z" fill="#59BF93"/>
<path d="M103.333 36.4549V39.7769H106.655V36.4549H103.333Z" fill="#59BF93"/>
<path d="M53.511 26.4891V29.811H56.8329V26.4891H53.511Z" fill="#59BF93"/>
<path d="M53.511 23.1744V26.4963H56.8329V23.1744H53.511Z" fill="#59BF93"/>
<path d="M53.511 19.8524V23.1743H56.8329V19.8524H53.511Z" fill="#59BF93"/>
<path d="M96.696 49.7354H100.018V46.4134H96.696V49.7354Z" fill="#59BF93"/>
<path d="M96.696 13.2085H100.018V9.88657H96.696V13.2085Z" fill="#59BF93"/>
<path d="M60.1621 13.2085H63.484V9.88657H60.1621V13.2085Z" fill="#59BF93"/>
<path d="M83.4011 56.3865H86.723V53.0646H83.4011V56.3865Z" fill="#59BF93"/>
<path d="M80.0864 56.3865H83.4083V53.0646H80.0864V56.3865Z" fill="#59BF93"/>
<path d="M76.7645 56.3865H80.0864V53.0646H76.7645V56.3865Z" fill="#59BF93"/>
<path d="M86.723 6.55762H90.0449V3.23569L86.723 3.23569V6.55762Z" fill="#59BF93"/>
<path d="M83.4011 6.55762H86.723V3.23569L83.4011 3.23569V6.55762Z" fill="#59BF93"/>
<path d="M80.0864 6.55762H83.4083V3.23569L80.0864 3.23569V6.55762Z" fill="#59BF93"/>
<path d="M76.7645 6.55762H80.0864V3.23569L76.7645 3.23569V6.55762Z" fill="#59BF93"/>
<path d="M73.4425 6.55762H76.7644V3.23569L73.4425 3.23569V6.55762Z" fill="#59BF93"/>
<path d="M70.1206 6.55762H73.4425V3.23569L70.1206 3.23569V6.55762Z" fill="#59BF93"/>
<path d="M53.511 86.2838V89.6057H56.8329V86.2838H53.511Z" fill="#59BF93"/>
<path d="M56.8329 89.6056V92.9275H60.1548V89.6056H56.8329Z" fill="#59BF93"/>
<path d="M56.8329 92.9276V96.2495H60.1548V92.9276H56.8329Z" fill="#59BF93"/>
<path d="M100.011 89.6056V92.9275H103.333V89.6056H100.011Z" fill="#59BF93"/>
<path d="M100.011 92.9276V96.2495H103.333V92.9276H100.011Z" fill="#59BF93"/>
<path d="M100.011 63.0301V66.3521H103.333V63.0301H100.011Z" fill="#59BF93"/>
<path d="M100.011 66.3521V69.6741H103.333V66.3521H100.011Z" fill="#59BF93"/>
<path d="M70.1206 99.5642H66.7987V102.886H70.1206V99.5642Z" fill="#59BF93"/>
<path d="M66.7987 99.5642H63.4768V102.886H66.7987V99.5642Z" fill="#59BF93"/>
<path d="M96.6959 99.5642H93.374V102.886H96.6959V99.5642Z" fill="#59BF93"/>
<path d="M93.374 99.5642H90.0521V102.886H93.374V99.5642Z" fill="#59BF93"/>
<path d="M96.6959 56.3865H93.374V59.7084H96.6959V56.3865Z" fill="#59BF93"/>
<path d="M93.374 56.3865H90.0521V59.7084H93.374V56.3865Z" fill="#59BF93"/>
<path d="M76.7644 102.886H73.4425V106.208H76.7644V102.886Z" fill="#59BF93"/>
<path d="M80.0863 102.886H76.7644V106.208H80.0863V102.886Z" fill="#59BF93"/>
<path d="M83.4083 102.886H80.0864V106.208H83.4083V102.886Z" fill="#59BF93"/>
<path d="M86.7302 102.886H83.4083V106.208H86.7302V102.886Z" fill="#59BF93"/>
<path d="M90.0521 102.886H86.7302V106.208H90.0521V102.886Z" fill="#59BF93"/>
<path d="M73.4425 102.886H70.1206V106.208H73.4425V102.886Z" fill="#59BF93"/>
<path d="M80.0863 53.0645H76.7644V56.3864H80.0863V53.0645Z" fill="#59BF93"/>
<path d="M83.4083 53.0645H80.0864V56.3864H83.4083V53.0645Z" fill="#59BF93"/>
<path d="M86.7302 53.0645H83.4083V56.3864H86.7302V53.0645Z" fill="#59BF93"/>
<path d="M90.0521 53.0645H86.7302V56.3864H90.0521V53.0645Z" fill="#59BF93"/>
<path d="M60.1548 96.2423V99.5642H63.4767V96.2423H60.1548Z" fill="#59BF93"/>
<path d="M96.6888 96.2494V99.5713H100.011V96.2494H96.6888Z" fill="#59BF93"/>
<path d="M96.6888 59.7083V63.0303H100.011V59.7083H96.6888Z" fill="#59BF93"/>
<path d="M53.5182 82.9618V86.2837H56.8401V82.9618H53.5182Z" fill="#59BF93"/>
<path d="M53.5182 79.6397V82.9617H56.8401V79.6397H53.5182Z" fill="#59BF93"/>
<path d="M103.333 86.2838V89.6057H106.655V86.2838H103.333Z" fill="#59BF93"/>
<path d="M103.34 82.9618V86.2837H106.662V82.9618H103.34Z" fill="#59BF93"/>
<path d="M103.34 79.6397V82.9617H106.662V79.6397H103.34Z" fill="#59BF93"/>
<path d="M103.34 76.318V79.6399H106.662V76.318H103.34Z" fill="#59BF93"/>
<path d="M103.34 72.9959V76.3179H106.662V72.9959H103.34Z" fill="#59BF93"/>
<path d="M103.333 69.6742V72.9961H106.655V69.6742H103.333Z" fill="#59BF93"/>
<path d="M100.018 82.9618V86.2837H103.34V82.9618H100.018Z" fill="#00AD76"/>
<path d="M100.018 79.6397V82.9617H103.34V79.6397H100.018Z" fill="#00AD76"/>
<path d="M100.018 76.318V79.6399H103.34V76.318H100.018Z" fill="#00AD76"/>
<path d="M100.018 72.9959V76.3179H103.34V72.9959H100.018Z" fill="#00AD76"/>
<path d="M100.018 69.6739V72.9958H103.34V69.6739H100.018Z" fill="#00AD76"/>
<path d="M100.011 86.2835V89.6055H103.333V86.2835H100.011Z" fill="#00AD76"/>
<path d="M96.696 82.9618V86.2837H100.018V82.9618H96.696Z" fill="#00AD76"/>
<path d="M96.696 79.6397V82.9617H100.018V79.6397H96.696Z" fill="#00AD76"/>
<path d="M96.696 76.318V79.6399H100.018V76.318H96.696Z" fill="#00AD76"/>
<path d="M96.696 72.9959V76.3179H100.018V72.9959H96.696Z" fill="#00AD76"/>
<path d="M96.696 69.6739V72.9958H100.018V69.6739H96.696Z" fill="#00AD76"/>
<path d="M96.696 66.3592V69.6812H100.018V66.3592H96.696Z" fill="#00AD76"/>
<path d="M96.696 63.0375V66.3594H100.018V63.0375H96.696Z" fill="#00AD76"/>
<path d="M96.6888 86.2835V89.6055H100.011V86.2835H96.6888Z" fill="#00AD76"/>
<path d="M96.6888 89.6126V92.9346H100.011V89.6126H96.6888Z" fill="#00AD76"/>
<path d="M96.696 92.9347V96.2566H100.018V92.9347H96.696Z" fill="#00AD76"/>
<path d="M93.3668 96.2423V99.5642H96.6887V96.2423H93.3668Z" fill="#00AD76"/>
<path d="M90.0449 96.2423V99.5642H93.3668V96.2423H90.0449Z" fill="#00AD76"/>
<path d="M93.374 82.9544V86.2764H96.6959V82.9544H93.374Z" fill="#31B787"/>
<path d="M93.374 79.6327V82.9546H96.6959V79.6327H93.374Z" fill="#59BF93"/>
<path d="M93.374 76.3106V79.6326H96.6959V76.3106H93.374Z" fill="#31B787"/>
<path d="M93.374 72.9886V76.3105H96.6959V72.9886H93.374Z" fill="#31B787"/>
<path d="M93.374 69.6668V72.9888H96.6959V69.6668H93.374Z" fill="#31B787"/>
<path d="M93.3669 86.2765V89.5984H96.6889V86.2765H93.3669Z" fill="#31B787"/>
<path d="M90.0521 82.9544V86.2764H93.374V82.9544H90.0521Z" fill="#59BF93"/>
<path d="M90.0521 79.6327V82.9546H93.374V79.6327H90.0521Z" fill="#31B787"/>
<path d="M90.0521 76.3106V79.6326H93.374V76.3106H90.0521Z" fill="#59BF93"/>
<path d="M90.0521 72.9886V76.3105H93.374V72.9886H90.0521Z" fill="#59BF93"/>
<path d="M90.0521 69.6668V72.9888H93.374V69.6668H90.0521Z" fill="#59BF93"/>
<path d="M90.0449 86.2765V89.5984H93.3668V86.2765H90.0449Z" fill="#31B787"/>
<path d="M86.7302 82.9544V86.2764H90.0521V82.9544H86.7302Z" fill="#31B787"/>
<path d="M86.7302 79.6327V82.9546H90.0521V79.6327H86.7302Z" fill="#59BF93"/>
<path d="M86.7302 76.3106V79.6326H90.0521V76.3106H86.7302Z" fill="#59BF93"/>
<path d="M86.7302 72.9886V76.3105H90.0521V72.9886H86.7302Z" fill="#59BF93"/>
<path d="M86.7302 69.6668V72.9888H90.0521V69.6668H86.7302Z" fill="#59BF93"/>
<path d="M86.723 86.2765V89.5984H90.0449V86.2765H86.723Z" fill="#59BF93"/>
<path d="M83.4083 82.9544V86.2764H86.7302V82.9544H83.4083Z" fill="#59BF93"/>
<path d="M83.4083 79.6327V82.9546H86.7302V79.6327H83.4083Z" fill="#59BF93"/>
<path d="M83.4083 76.3106V79.6326H86.7302V76.3106H83.4083Z" fill="#59BF93"/>
<path d="M83.4083 72.9886V76.3105H86.7302V72.9886H83.4083Z" fill="#59BF93"/>
<path d="M83.4083 69.6739V72.9958H86.7302V69.6739H83.4083Z" fill="#59BF93"/>
<path d="M83.4011 86.2765V89.5984H86.723V86.2765H83.4011Z" fill="#31B787"/>
<path d="M80.0864 82.9544V86.2764H83.4083V82.9544H80.0864Z" fill="#31B787"/>
<path d="M80.0864 79.6327V82.9546H83.4083V79.6327H80.0864Z" fill="#59BF93"/>
<path d="M80.0864 76.3106V79.6326H83.4083V76.3106H80.0864Z" fill="#59BF93"/>
<path d="M80.0864 72.9959V76.3179H83.4083V72.9959H80.0864Z" fill="#59BF93"/>
<path d="M80.0864 69.6739V72.9958H83.4083V69.6739H80.0864Z" fill="#59BF93"/>
<path d="M80.0792 86.2765V89.5984H83.4011V86.2765H80.0792Z" fill="#59BF93"/>
<path d="M76.7644 82.9544V86.2764H80.0863V82.9544H76.7644Z" fill="#31B787"/>
<path d="M76.7644 79.6327V82.9546H80.0863V79.6327H76.7644Z" fill="#59BF93"/>
<path d="M76.7645 76.318V79.6399H80.0864V76.318H76.7645Z" fill="#59BF93"/>
<path d="M76.7645 72.9959V76.3179H80.0865V72.9959H76.7645Z" fill="#59BF93"/>
<path d="M76.7644 69.6739V72.9958H80.0863V69.6739H76.7644Z" fill="#59BF93"/>
<path d="M76.7573 86.2765V89.5984H80.0792V86.2765H76.7573Z" fill="#31B787"/>
<path d="M73.4425 82.9544V86.2764H76.7644V82.9544H73.4425Z" fill="#31B787"/>
<path d="M73.4425 79.6397V82.9617H76.7644V79.6397H73.4425Z" fill="#59BF93"/>
<path d="M73.4425 76.318V79.6399H76.7644V76.318H73.4425Z" fill="#59BF93"/>
<path d="M73.4425 72.9959V76.3179H76.7644V72.9959H73.4425Z" fill="#59BF93"/>
<path d="M73.4425 69.6739V72.9958H76.7644V69.6739H73.4425Z" fill="#59BF93"/>
<path d="M73.4425 86.2765V89.5984H76.7644V86.2765H73.4425Z" fill="#31B787"/>
<path d="M70.1278 82.9618V86.2837H73.4497V82.9618H70.1278Z" fill="#31B787"/>
<path d="M70.1206 79.6397V82.9617H73.4425V79.6397H70.1206Z" fill="#59BF93"/>
<path d="M70.1206 76.318V79.6399H73.4425V76.318H70.1206Z" fill="#59BF93"/>
<path d="M70.1206 72.9959V76.3179H73.4425V72.9959H70.1206Z" fill="#59BF93"/>
<path d="M70.1206 69.6739V72.9958H73.4425V69.6739H70.1206Z" fill="#59BF93"/>
<path d="M70.1206 86.2765V89.5984H73.4425V86.2765H70.1206Z" fill="#31B787"/>
<path d="M66.8059 82.9618V86.2837H70.1278V82.9618H66.8059Z" fill="#31B787"/>
<path d="M66.8059 79.6397V82.9617H70.1278V79.6397H66.8059Z" fill="#31B787"/>
<path d="M66.7987 76.318V79.6399H70.1206V76.318H66.7987Z" fill="#59BF93"/>
<path d="M66.7987 86.2835V89.6055H70.1206V86.2835H66.7987Z" fill="#31B787"/>
<path d="M63.484 82.9618V86.2837H66.8059V82.9618H63.484Z" fill="#31B787"/>
<path d="M63.484 79.6397V82.9617H66.8059V79.6397H63.484Z" fill="#31B787"/>
<path d="M63.484 76.318V79.6399H66.8059V76.318H63.484Z" fill="#59BF93"/>
<path d="M63.4768 86.2835V89.6055H66.7987V86.2835H63.4768Z" fill="#31B787"/>
<path d="M60.1621 82.9618V86.2837H63.484V82.9618H60.1621Z" fill="#00AD76"/>
<path d="M60.1621 79.6398V82.9617H63.484V79.6398H60.1621Z" fill="#00AD76"/>
<path d="M60.1621 76.318V79.6399H63.484V76.318H60.1621Z" fill="#59BF93"/>
<path d="M60.1548 86.2835V89.6055H63.4767V86.2835H60.1548Z" fill="#00AD76"/>
<path d="M93.3668 89.6056V92.9275H96.6888V89.6056H93.3668Z" fill="#00AD76"/>
<path d="M90.0449 89.6056V92.9275H93.3669V89.6056H90.0449Z" fill="#00AD76"/>
<path d="M86.7302 89.6056V92.9275H90.0522V89.6056H86.7302Z" fill="#00AD76"/>
<path d="M83.4083 89.6056V92.9275H86.7303V89.6056H83.4083Z" fill="#00AD76"/>
<path d="M80.0864 89.6056V92.9275H83.4084V89.6056H80.0864Z" fill="#00AD76"/>
<path d="M76.7644 89.6056V92.9275H80.0863V89.6056H76.7644Z" fill="#00AD76"/>
<path d="M73.4425 89.6056V92.9275H76.7644V89.6056H73.4425Z" fill="#00AD76"/>
<path d="M70.1206 89.6056V92.9275H73.4425V89.6056H70.1206Z" fill="#00AD76"/>
<path d="M66.7987 89.6056V92.9275H70.1206V89.6056H66.7987Z" fill="#00AD76"/>
<path d="M63.4768 89.6056V92.9275H66.7987V89.6056H63.4768Z" fill="#00AD76"/>
<path d="M60.1548 89.6056V92.9275H63.4767V89.6056H60.1548Z" fill="#00AD76"/>
<path d="M93.374 92.9276V96.2495H96.6959V92.9276H93.374Z" fill="#00AD76"/>
<path d="M90.0521 92.9276V96.2495H93.374V92.9276H90.0521Z" fill="#00AD76"/>
<path d="M86.7302 92.9276V96.2495H90.0521V92.9276H86.7302Z" fill="#00AD76"/>
<path d="M83.4083 92.9276V96.2495H86.7302V92.9276H83.4083Z" fill="#00AD76"/>
<path d="M80.0864 92.9347V96.2566H83.4083V92.9347H80.0864Z" fill="#00AD76"/>
<path d="M76.7644 92.9347V96.2566H80.0863V92.9347H76.7644Z" fill="#00AD76"/>
<path d="M73.4425 92.9347V96.2566H76.7644V92.9347H73.4425Z" fill="#00AD76"/>
<path d="M70.1206 92.9347V96.2566H73.4425V92.9347H70.1206Z" fill="#00AD76"/>
<path d="M66.7987 92.9347V96.2566H70.1206V92.9347H66.7987Z" fill="#00AD76"/>
<path d="M63.4768 92.9347V96.2566H66.7987V92.9347H63.4768Z" fill="#00AD76"/>
<path d="M86.723 96.2423V99.5642H90.0449V96.2423H86.723Z" fill="#12AF8A"/>
<path d="M83.4083 96.2423V99.5642H86.7302V96.2423H83.4083Z" fill="#12AF8A"/>
<path d="M80.0864 96.2423V99.5642H83.4083V96.2423H80.0864Z" fill="#12AF8A"/>
<path d="M76.7644 96.2423V99.5642H80.0863V96.2423H76.7644Z" fill="#12AF8A"/>
<path d="M73.4425 96.2423V99.5642H76.7644V96.2423H73.4425Z" fill="#12AF8A"/>
<path d="M70.1206 96.2423V99.5642H73.4425V96.2423H70.1206Z" fill="#12AF8A"/>
<path d="M86.7302 99.5714V102.893H90.0521V99.5714H86.7302Z" fill="#00AD76"/>
<path d="M83.4083 99.5714V102.893H86.7302V99.5714H83.4083Z" fill="#00AD76"/>
<path d="M80.0864 99.5714V102.893H83.4083V99.5714H80.0864Z" fill="#00AD76"/>
<path d="M76.7644 99.5714V102.893H80.0863V99.5714H76.7644Z" fill="#00AD76"/>
<path d="M73.4425 99.5714V102.893H76.7644V99.5714H73.4425Z" fill="#00AD76"/>
<path d="M70.1206 99.5714V102.893H73.4425V99.5714H70.1206Z" fill="#00AD76"/>
<path d="M66.7987 96.2423V99.5642H70.1206V96.2423H66.7987Z" fill="#12AF8A"/>
<path d="M63.4768 96.2423V99.5642H66.7987V96.2423H63.4768Z" fill="#12AF8A"/>
<path d="M60.1548 92.9347V96.2566H63.4767V92.9347H60.1548Z" fill="#00AD76"/>
<path d="M56.8401 82.9618V86.2837H60.162V82.9618H56.8401Z" fill="#00AD76"/>
<path d="M56.8401 79.6397V82.9617H60.162V79.6397H56.8401Z" fill="#00AD76"/>
<path d="M56.8401 76.318V79.6399H60.162V76.318H56.8401Z" fill="#59BF93"/>
<path d="M66.7987 72.9959V76.3179H70.1206V72.9959H66.7987Z" fill="#59BF93"/>
<path d="M63.4768 72.9959V76.3179H66.7987V72.9959H63.4768Z" fill="#59BF93"/>
<path d="M60.1621 72.996V76.3179H63.484V72.996H60.1621Z" fill="#59BF93"/>
<path d="M56.8401 72.9959V76.3179H60.162V72.9959H56.8401Z" fill="#59BF93"/>
<path d="M53.5182 76.318V79.6399H56.8401V76.318H53.5182Z" fill="#59BF93"/>
<path d="M50.1963 76.3106V79.6326H53.5182V76.3106H50.1963Z" fill="#59BF93"/>
<path d="M53.5182 72.9959V76.3179H56.8401V72.9959H53.5182Z" fill="#59BF93"/>
<path d="M50.1963 72.9886V76.3105H53.5182V72.9886H50.1963Z" fill="#59BF93"/>
<path d="M63.484 69.6812V73.0032H66.8059V69.6812H63.484Z" fill="#59BF93"/>
<path d="M66.8059 69.6812V73.0032H70.1278V69.6812H66.8059Z" fill="#59BF93"/>
<path d="M60.1621 69.6813V73.0032H63.484V69.6813H60.1621Z" fill="#59BF93"/>
<path d="M56.8401 69.6812V73.0032H60.162V69.6812H56.8401Z" fill="#59BF93"/>
<path d="M53.5182 69.6812V73.0032H56.8401V69.6812H53.5182Z" fill="#59BF93"/>
<path d="M50.1963 69.6739V72.9958H53.5182V69.6739H50.1963Z" fill="#59BF93"/>
<path d="M46.8744 76.3106V79.6326H50.1963V76.3106H46.8744Z" fill="#59BF93"/>
<path d="M46.8744 72.9886V76.3105H50.1963V72.9886H46.8744Z" fill="#59BF93"/>
<path d="M46.8744 69.6668V72.9888H50.1963V69.6668H46.8744Z" fill="#59BF93"/>
<path d="M43.5525 69.6668V72.9888H46.8744V69.6668H43.5525Z" fill="#59BF93"/>
<path d="M46.8744 66.3448V69.6667H50.1963V66.3448H46.8744Z" fill="#59BF93"/>
<path d="M43.5525 66.3521V69.6741H46.8744V66.3521H43.5525Z" fill="#59BF93"/>
<path d="M93.374 66.3448V69.6667H96.6959V66.3448H93.374Z" fill="#31B787"/>
<path d="M93.374 63.023V66.345H96.6959V63.023H93.374Z" fill="#31B787"/>
<path d="M90.0521 66.3448V69.6667H93.374V66.3448H90.0521Z" fill="#59BF93"/>
<path d="M90.0521 63.0301V66.3521H93.374V63.0301H90.0521Z" fill="#59BF93"/>
<path d="M86.7302 66.3521V69.6741H90.0521V66.3521H86.7302Z" fill="#59BF93"/>
<path d="M86.7302 63.0301V66.3521H90.0521V63.0301H86.7302Z" fill="#31B787"/>
<path d="M83.4083 66.3521V69.6741H86.7302V66.3521H83.4083Z" fill="#59BF93"/>
<path d="M83.4083 63.0301V66.3521H86.7302V63.0301H83.4083Z" fill="#59BF93"/>
<path d="M80.0864 66.3521V69.6741H83.4083V66.3521H80.0864Z" fill="#59BF93"/>
<path d="M80.0864 63.0301V66.3521H83.4083V63.0301H80.0864Z" fill="#59BF93"/>
<path d="M93.374 59.7083V63.0303H96.6959V59.7083H93.374Z" fill="#31B787"/>
<path d="M90.0521 59.7083V63.0303H93.374V59.7083H90.0521Z" fill="#59BF93"/>
<path d="M86.7302 59.7083V63.0303H90.0521V59.7083H86.7302Z" fill="#59BF93"/>
<path d="M83.4083 59.7083V63.0303H86.7302V59.7083H83.4083Z" fill="#59BF93"/>
<path d="M80.0864 59.7154V63.0374H83.4083V59.7154H80.0864Z" fill="#59BF93"/>
<path d="M86.7302 56.3863V59.7083H90.0521V56.3863H86.7302Z" fill="#59BF93"/>
<path d="M83.4083 56.3934V59.7153H86.7302V56.3934H83.4083Z" fill="#59BF93"/>
<path d="M80.0864 56.3934V59.7153H83.4083V56.3934H80.0864Z" fill="#59BF93"/>
<path d="M76.7644 66.3521V69.6741H80.0863V66.3521H76.7644Z" fill="#59BF93"/>
<path d="M76.7644 63.0301V66.3521H80.0863V63.0301H76.7644Z" fill="#59BF93"/>
<path d="M73.4425 66.3521V69.6741H76.7644V66.3521H73.4425Z" fill="#59BF93"/>
<path d="M73.4425 63.0301V66.3521H76.7644V63.0301H73.4425Z" fill="#59BF93"/>
<path d="M70.1206 66.3521V69.6741H73.4425V66.3521H70.1206Z" fill="#59BF93"/>
<path d="M66.7987 66.3521V69.6741H70.1206V66.3521H66.7987Z" fill="#59BF93"/>
<path d="M63.4768 66.3521V69.6741H66.7987V66.3521H63.4768Z" fill="#59BF93"/>
<path d="M60.1548 66.3522V69.6741H63.4767V66.3522H60.1548Z" fill="#59BF93"/>
<path d="M70.1206 63.0301V66.3521H73.4425V63.0301H70.1206Z" fill="#59BF93"/>
<path d="M66.7987 63.0301V66.3521H70.1206V63.0301H66.7987Z" fill="#59BF93"/>
<path d="M63.4768 63.0301V66.3521H66.7987V63.0301H63.4768Z" fill="#59BF93"/>
<path d="M60.1548 63.0301V66.3521H63.4767V63.0301H60.1548Z" fill="#59BF93"/>
<path d="M56.8329 66.3521V69.6741H60.1548V66.3521H56.8329Z" fill="#59BF93"/>
<path d="M53.5182 66.3521V69.6741H56.8401V66.3521H53.5182Z" fill="#59BF93"/>
<path d="M56.8329 63.0301V66.3521H60.1548V63.0301H56.8329Z" fill="#59BF93"/>
<path d="M53.511 63.0301V66.3521H56.8329V63.0301H53.511Z" fill="#59BF93"/>
<path d="M50.1963 66.3448V69.6667H53.5182V66.3448H50.1963Z" fill="#59BF93"/>
<path d="M50.1963 63.0231V66.345H53.5182V63.0231H50.1963Z" fill="#59BF93"/>
<path d="M76.7645 59.7154V63.0374H80.0865V59.7154H76.7645Z" fill="#59BF93"/>
<path d="M76.7644 56.3934V59.7153H80.0863V56.3934H76.7644Z" fill="#59BF93"/>
<path d="M73.4425 59.7154V63.0374H76.7644V59.7154H73.4425Z" fill="#59BF93"/>
<path d="M73.4425 56.3934V59.7153H76.7644V56.3934H73.4425Z" fill="#59BF93"/>
<path d="M70.1206 59.7154V63.0374H73.4425V59.7154H70.1206Z" fill="#59BF93"/>
<path d="M70.1206 56.3934V59.7153H73.4425V56.3934H70.1206Z" fill="#59BF93"/>
<path d="M66.7987 59.7154V63.0374H70.1206V59.7154H66.7987Z" fill="#59BF93"/>
<path d="M66.7987 56.3934V59.7153H70.1206V56.3934H66.7987Z" fill="#59BF93"/>
<path d="M63.4768 59.7154V63.0374H66.7987V59.7154H63.4768Z" fill="#59BF93"/>
<path d="M63.4768 56.3934V59.7153H66.7987V56.3934H63.4768Z" fill="#59BF93"/>
<path d="M60.1548 59.7154V63.0374H63.4767V59.7154H60.1548Z" fill="#59BF93"/>
<path d="M60.1548 56.3934V59.7153H63.4767V56.3934H60.1548Z" fill="#59BF93"/>
<path d="M56.8401 59.7154V63.0374H60.162V59.7154H56.8401Z" fill="#59BF93"/>
<path d="M56.8329 56.3934V59.7153H60.1548V56.3934H56.8329Z" fill="#59BF93"/>
<path d="M53.5182 59.7154V63.0374H56.8401V59.7154H53.5182Z" fill="#59BF93"/>
<path d="M50.1963 59.7084V63.0303H53.5182V59.7084H50.1963Z" fill="#59BF93"/>
<path d="M46.8744 59.7083V63.0303H50.1963V59.7083H46.8744Z" fill="#59BF93"/>
<path d="M43.5525 59.7083V63.0303H46.8744V59.7083H43.5525Z" fill="#59BF93"/>
<path d="M53.5182 56.3934V59.7153H56.8401V56.3934H53.5182Z" fill="#59BF93"/>
<path d="M50.1963 56.3863V59.7083H53.5182V56.3863H50.1963Z" fill="#59BF93"/>
<path d="M46.8744 56.3863V59.7083H50.1963V56.3863H46.8744Z" fill="#59BF93"/>
<path d="M43.5525 56.3863V59.7083H46.8744V56.3863H43.5525Z" fill="#59BF93"/>
<path d="M40.2305 59.7084V63.0303H43.5524V59.7084H40.2305Z" fill="#59BF93"/>
<path d="M36.9086 59.7154V63.0374H40.2305V59.7154H36.9086Z" fill="#59BF93"/>
<path d="M40.2305 56.3934V59.7153H43.5524V56.3934H40.2305Z" fill="#59BF93"/>
<path d="M36.9086 56.3934V59.7153H40.2305V56.3934H36.9086Z" fill="#59BF93"/>
<path d="M33.5867 59.7154V63.0374H36.9086V59.7154H33.5867Z" fill="#59BF93"/>
<path d="M46.8744 63.023V66.345H50.1963V63.023H46.8744Z" fill="#59BF93"/>
<path d="M43.5525 63.0301V66.3521H46.8744V63.0301H43.5525Z" fill="#59BF93"/>
<path d="M40.2305 63.0301V66.3521H43.5524V63.0301H40.2305Z" fill="#59BF93"/>
<path d="M36.9086 63.0301V66.3521H40.2305V63.0301H36.9086Z" fill="#59BF93"/>
<path d="M33.5867 63.0301V66.3521H36.9086V63.0301H33.5867Z" fill="#59BF93"/>
<path d="M30.2648 63.0301V66.3521H33.5867V63.0301H30.2648Z" fill="#59BF93"/>
<path d="M26.9429 63.0301V66.3521H30.2648V63.0301H26.9429Z" fill="#59BF93"/>
<path d="M23.6208 63.0301V66.3521H26.9428V63.0301H23.6208Z" fill="#31B787"/>
<path d="M20.299 63.0301V66.3521H23.6209V63.0301H20.299Z" fill="#31B787"/>
<path d="M20.299 59.7154V63.0374H23.6209V59.7154H20.299Z" fill="#31B787"/>
<path d="M20.299 56.3934V59.7153H23.6209V56.3934H20.299Z" fill="#31B787"/>
<path d="M16.9771 63.0301V66.3521H20.299V63.0301H16.9771Z" fill="#31B787"/>
<path d="M33.5867 56.3934V59.7153H36.9086V56.3934H33.5867Z" fill="#59BF93"/>
<path d="M30.2648 59.7154V63.0374H33.5867V59.7154H30.2648Z" fill="#59BF93"/>
<path d="M26.9429 59.7154V63.0374H30.2648V59.7154H26.9429Z" fill="#59BF93"/>
<path d="M30.2648 56.3934V59.7153H33.5867V56.3934H30.2648Z" fill="#59BF93"/>
<path d="M26.9429 56.3934V59.7153H30.2648V56.3934H26.9429Z" fill="#59BF93"/>
<path d="M23.6208 59.7154V63.0374H26.9428V59.7154H23.6208Z" fill="#31B787"/>
<path d="M23.6208 56.3934V59.7153H26.9428V56.3934H23.6208Z" fill="#31B787"/>
<path d="M56.8329 86.2835V89.6055H60.1548V86.2835H56.8329Z" fill="#00AD76"/>
<path d="M50.1963 82.9544V86.2764H53.5182V82.9544H50.1963Z" fill="#00AD76"/>
<path d="M50.1963 79.6327V82.9546H53.5182V79.6327H50.1963Z" fill="#00AD76"/>
<path d="M50.1891 86.2765V89.5984H53.511V86.2765H50.1891Z" fill="#00AD76"/>
<path d="M46.8744 82.9544V86.2764H50.1963V82.9544H46.8744Z" fill="#00AD76"/>
<path d="M46.8744 79.6327V82.9546H50.1963V79.6327H46.8744Z" fill="#00AD76"/>
<path d="M46.8672 86.2765V89.5984H50.1891V86.2765H46.8672Z" fill="#00AD76"/>
<path d="M46.8744 89.6056V92.9275H50.1963V89.6056H46.8744Z" fill="#00AD76"/>
<path d="M46.8744 92.9276V96.2495H50.1963V92.9276H46.8744Z" fill="#00AD76"/>
<path d="M43.5452 96.2423V99.5642H46.8671V96.2423H43.5452Z" fill="#00AD76"/>
<path d="M40.2305 96.2423V99.5642H43.5524V96.2423H40.2305Z" fill="#00AD76"/>
<path d="M43.5525 82.9544V86.2764H46.8744V82.9544H43.5525Z" fill="#31B787"/>
<path d="M43.5524 79.6327V82.9546H46.8743V79.6327H43.5524Z" fill="#31B787"/>
<path d="M43.5453 86.2765V89.5984H46.8672V86.2765H43.5453Z" fill="#31B787"/>
<path d="M40.2305 82.9544V86.2764H43.5524V82.9544H40.2305Z" fill="#59BF93"/>
<path d="M40.2305 79.6327V82.9546H43.5524V79.6327H40.2305Z" fill="#59BF93"/>
<path d="M40.2233 86.2765V89.5984H43.5452V86.2765H40.2233Z" fill="#31B787"/>
<path d="M36.9086 82.9544V86.2764H40.2305V82.9544H36.9086Z" fill="#31B787"/>
<path d="M36.9086 79.6327V82.9546H40.2305V79.6327H36.9086Z" fill="#59BF93"/>
<path d="M36.9014 86.2765V89.5984H40.2233V86.2765H36.9014Z" fill="#31B787"/>
<path d="M33.5867 82.9544V86.2764H36.9086V82.9544H33.5867Z" fill="#59BF93"/>
<path d="M33.5867 79.6327V82.9546H36.9086V79.6327H33.5867Z" fill="#31B787"/>
<path d="M33.5795 86.2765V89.5984H36.9014V86.2765H33.5795Z" fill="#31B787"/>
<path d="M30.2648 82.9544V86.2764H33.5867V82.9544H30.2648Z" fill="#59BF93"/>
<path d="M30.2648 79.6397V82.9617H33.5867V79.6397H30.2648Z" fill="#59BF93"/>
<path d="M30.2648 86.2765V89.5984H33.5867V86.2765H30.2648Z" fill="#31B787"/>
<path d="M26.9501 82.9618V86.2837H30.272V82.9618H26.9501Z" fill="#31B787"/>
<path d="M26.9427 79.6397V82.9617H30.2647V79.6397H26.9427Z" fill="#31B787"/>
<path d="M26.9429 86.2765V89.5984H30.2648V86.2765H26.9429Z" fill="#31B787"/>
<path d="M23.6281 82.9618V86.2837H26.95V82.9618H23.6281Z" fill="#31B787"/>
<path d="M23.6281 79.6397V82.9617H26.95V79.6397H23.6281Z" fill="#31B787"/>
<path d="M23.6208 86.2835V89.6055H26.9428V86.2835H23.6208Z" fill="#31B787"/>
<path d="M20.3062 82.9618V86.2837H23.6281V82.9618H20.3062Z" fill="#31B787"/>
<path d="M20.3062 79.6397V82.9617H23.6281V79.6397H20.3062Z" fill="#31B787"/>
<path d="M20.299 86.2835V89.6055H23.6209V86.2835H20.299Z" fill="#31B787"/>
<path d="M16.9843 82.9618V86.2837H20.3062V82.9618H16.9843Z" fill="#31B787"/>
<path d="M16.9843 79.6397V82.9617H20.3062V79.6397H16.9843Z" fill="#31B787"/>
<path d="M16.9771 86.2835V89.6055H20.299V86.2835H16.9771Z" fill="#31B787"/>
<path d="M13.6624 82.9618V86.2837H16.9843V82.9618H13.6624Z" fill="#00AD76"/>
<path d="M13.6624 79.6397V82.9617H16.9843V79.6397H13.6624Z" fill="#00AD76"/>
<path d="M13.6552 86.2835V89.6055H16.9771V86.2835H13.6552Z" fill="#00AD76"/>
<path d="M10.3405 82.9618V86.2837H13.6624V82.9618H10.3405Z" fill="#00AD76"/>
<path d="M10.3405 79.6397V82.9617H13.6624V79.6397H10.3405Z" fill="#00AD76"/>
<path d="M10.3333 86.2835V89.6055H13.6552V86.2835H10.3333Z" fill="#00AD76"/>
<path d="M43.5525 89.6056V92.9275H46.8744V89.6056H43.5525Z" fill="#00AD76"/>
<path d="M40.2305 89.6056V92.9275H43.5524V89.6056H40.2305Z" fill="#00AD76"/>
<path d="M36.9086 89.6056V92.9275H40.2305V89.6056H36.9086Z" fill="#00AD76"/>
<path d="M33.5867 89.6056V92.9275H36.9086V89.6056H33.5867Z" fill="#00AD76"/>
<path d="M30.2648 89.6056V92.9275H33.5867V89.6056H30.2648Z" fill="#00AD76"/>
<path d="M26.9429 89.6056V92.9275H30.2648V89.6056H26.9429Z" fill="#00AD76"/>
<path d="M23.6208 89.6056V92.9275H26.9428V89.6056H23.6208Z" fill="#00AD76"/>
<path d="M20.299 89.6056V92.9275H23.6209V89.6056H20.299Z" fill="#00AD76"/>
<path d="M16.9771 89.6056V92.9275H20.299V89.6056H16.9771Z" fill="#00AD76"/>
<path d="M13.6552 89.6056V92.9275H16.9771V89.6056H13.6552Z" fill="#00AD76"/>
<path d="M10.3331 89.6126V92.9346H13.6551V89.6126H10.3331Z" fill="#00AD76"/>
<path d="M43.5525 92.9276V96.2495H46.8744V92.9276H43.5525Z" fill="#00AD76"/>
<path d="M40.2305 92.9347V96.2566H43.5524V92.9347H40.2305Z" fill="#00AD76"/>
<path d="M36.9086 92.9347V96.2566H40.2305V92.9347H36.9086Z" fill="#00AD76"/>
<path d="M33.5867 92.9347V96.2566H36.9086V92.9347H33.5867Z" fill="#00AD76"/>
<path d="M30.2648 92.9347V96.2566H33.5867V92.9347H30.2648Z" fill="#00AD76"/>
<path d="M23.6208 92.9347V96.2566H26.9428V92.9347H23.6208Z" fill="#00AD76"/>
<path d="M26.9429 92.9347V96.2566H30.2648V92.9347H26.9429Z" fill="#00AD76"/>
<path d="M20.299 92.9347V96.2566H23.6209V92.9347H20.299Z" fill="#00AD76"/>
<path d="M16.9843 92.9347V96.2566H20.3062V92.9347H16.9843Z" fill="#00AD76"/>
<path d="M13.6624 92.9347V96.2566H16.9843V92.9347H13.6624Z" fill="#00AD76"/>
<path d="M36.9086 96.2423V99.5642H40.2305V96.2423H36.9086Z" fill="#00AD76"/>
<path d="M33.5867 96.2423V99.5642H36.9086V96.2423H33.5867Z" fill="#00AD76"/>
<path d="M30.2648 96.2423V99.5642H33.5867V96.2423H30.2648Z" fill="#00AD76"/>
<path d="M26.9429 96.2423V99.5642H30.2648V96.2423H26.9429Z" fill="#00AD76"/>
<path d="M23.6208 96.2423V99.5642H26.9428V96.2423H23.6208Z" fill="#00AD76"/>
<path d="M20.299 96.2423V99.5642H23.6209V96.2423H20.299Z" fill="#00AD76"/>
<path d="M36.9086 99.5714V102.893H40.2305V99.5714H36.9086Z" fill="#12AF8A"/>
<path d="M33.5867 99.5714V102.893H36.9086V99.5714H33.5867Z" fill="#12AF8A"/>
<path d="M30.2648 99.5714V102.893H33.5867V99.5714H30.2648Z" fill="#12AF8A"/>
<path d="M26.9427 99.5714V102.893H30.2647V99.5714H26.9427Z" fill="#12AF8A"/>
<path d="M23.6208 99.5714V102.893H26.9428V99.5714H23.6208Z" fill="#12AF8A"/>
<path d="M20.299 99.5714V102.893H23.6209V99.5714H20.299Z" fill="#12AF8A"/>
<path d="M16.9771 96.2423V99.5642H20.299V96.2423H16.9771Z" fill="#00AD76"/>
<path d="M13.6552 96.2494V99.5713H16.9771V96.2494H13.6552Z" fill="#00AD76"/>
<path d="M10.3405 92.9347V96.2566H13.6624V92.9347H10.3405Z" fill="#00AD76"/>
<path d="M7.01843 82.9544V86.2764H10.3404V82.9544H7.01843Z" fill="#00AD76"/>
<path d="M7.01843 79.6327V82.9546H10.3404V79.6327H7.01843Z" fill="#00AD76"/>
<path d="M43.5525 76.3106V79.6326H46.8744V76.3106H43.5525Z" fill="#59BF93"/>
<path d="M43.5525 72.9886V76.3105H46.8744V72.9886H43.5525Z" fill="#59BF93"/>
<path d="M40.2305 76.3106V79.6326H43.5524V76.3106H40.2305Z" fill="#59BF93"/>
<path d="M40.2305 72.9886V76.3105H43.5524V72.9886H40.2305Z" fill="#59BF93"/>
<path d="M36.9086 76.3106V79.6326H40.2305V76.3106H36.9086Z" fill="#59BF93"/>
<path d="M36.9086 72.9959V76.3179H40.2305V72.9959H36.9086Z" fill="#59BF93"/>
<path d="M33.5867 76.318V79.6399H36.9086V76.318H33.5867Z" fill="#59BF93"/>
<path d="M33.5867 72.9959V76.3179H36.9086V72.9959H33.5867Z" fill="#59BF93"/>
<path d="M30.2648 76.318V79.6399H33.5867V76.318H30.2648Z" fill="#59BF93"/>
<path d="M30.2648 72.9959V76.3179H33.5867V72.9959H30.2648Z" fill="#59BF93"/>
<path d="M26.9429 76.318V79.6399H30.2648V76.318H26.9429Z" fill="#59BF93"/>
<path d="M26.9429 72.9959V76.3179H30.2648V72.9959H26.9429Z" fill="#59BF93"/>
<path d="M23.6208 76.318V79.6399H26.9428V76.318H23.6208Z" fill="#31B787"/>
<path d="M23.6208 72.9959V76.3179H26.9428V72.9959H23.6208Z" fill="#31B787"/>
<path d="M20.3062 76.318V79.6399H23.6281V76.318H20.3062Z" fill="#31B787"/>
<path d="M20.299 72.9959V76.3179H23.6209V72.9959H20.299Z" fill="#31B787"/>
<path d="M16.9843 76.318V79.6399H20.3062V76.318H16.9843Z" fill="#31B787"/>
<path d="M16.9843 72.9959V76.3179H20.3062V72.9959H16.9843Z" fill="#31B787"/>
<path d="M13.6624 76.318V79.6399H16.9843V76.318H13.6624Z" fill="#00AD76"/>
<path d="M13.6624 72.9959V76.3179H16.9843V72.9959H13.6624Z" fill="#00AD76"/>
<path d="M10.3405 76.318V79.6399H13.6624V76.318H10.3405Z" fill="#00AD76"/>
<path d="M10.3405 72.9959V76.3179H13.6624V72.9959H10.3405Z" fill="#00AD76"/>
<path d="M7.01843 76.3106V79.6326H10.3404V76.3106H7.01843Z" fill="#00AD76"/>
<path d="M7.01843 72.9886V76.3105H10.3404V72.9886H7.01843Z" fill="#00AD76"/>
<path d="M40.2305 69.6739V72.9958H43.5524V69.6739H40.2305Z" fill="#59BF93"/>
<path d="M36.9086 69.6739V72.9958H40.2305V69.6739H36.9086Z" fill="#59BF93"/>
<path d="M33.5867 69.6739V72.9958H36.9086V69.6739H33.5867Z" fill="#59BF93"/>
<path d="M30.2648 69.6739V72.9958H33.5867V69.6739H30.2648Z" fill="#59BF93"/>
<path d="M26.9429 69.6739V72.9958H30.2648V69.6739H26.9429Z" fill="#59BF93"/>
<path d="M23.6208 69.6739V72.9958H26.9428V69.6739H23.6208Z" fill="#31B787"/>
<path d="M20.299 69.6739V72.9958H23.6209V69.6739H20.299Z" fill="#31B787"/>
<path d="M16.9771 69.6739V72.9958H20.299V69.6739H16.9771Z" fill="#31B787"/>
<path d="M13.6624 69.6739V72.9958H16.9843V69.6739H13.6624Z" fill="#00AD76"/>
<path d="M10.3405 69.6739V72.9958H13.6624V69.6739H10.3405Z" fill="#00AD76"/>
<path d="M40.2305 66.3522V69.6741H43.5524V66.3522H40.2305Z" fill="#59BF93"/>
<path d="M36.9086 66.3521V69.6741H40.2305V66.3521H36.9086Z" fill="#59BF93"/>
<path d="M33.5867 66.3521V69.6741H36.9086V66.3521H33.5867Z" fill="#59BF93"/>
<path d="M30.2648 66.3521V69.6741H33.5867V66.3521H30.2648Z" fill="#59BF93"/>
<path d="M26.9429 66.3521V69.6741H30.2648V66.3521H26.9429Z" fill="#59BF93"/>
<path d="M23.6208 66.3521V69.6741H26.9428V66.3521H23.6208Z" fill="#31B787"/>
<path d="M20.299 66.3521V69.6741H23.6209V66.3521H20.299Z" fill="#31B787"/>
<path d="M16.9771 66.3521V69.6741H20.299V66.3521H16.9771Z" fill="#31B787"/>
<path d="M13.6552 66.3521V69.6741H16.9771V66.3521H13.6552Z" fill="#00AD76"/>
<path d="M10.3405 66.3521V69.6741H13.6624V66.3521H10.3405Z" fill="#00AD76"/>
<path d="M13.6624 63.0375V66.3594H16.9843V63.0375H13.6624Z" fill="#00AD76"/>
<path d="M16.9771 59.7154V63.0374H20.299V59.7154H16.9771Z" fill="#31B787"/>
<path d="M13.6552 59.7154V63.0374H16.9771V59.7154H13.6552Z" fill="#00AD76"/>
<path d="M10.3405 63.0375V66.3594H13.6624V63.0375H10.3405Z" fill="#00AD76"/>
<path d="M7.01843 69.6668V72.9888H10.3404V69.6668H7.01843Z" fill="#00AD76"/>
<path d="M7.01123 86.2765V89.5984H10.3331V86.2765H7.01123Z" fill="#00AD76"/>
<path d="M78.2128 65.6891V62.3672H74.8908V65.6891H78.2128Z" fill="#FAD1E3"/>
<path d="M74.8909 69.0111V65.6892H71.569V69.0111H74.8909Z" fill="#F8BCD6"/>
<path d="M78.2128 69.0111V65.6892H74.8908V69.0111H78.2128Z" fill="#F8BCD6"/>
<path d="M81.5348 69.0111V65.6892H78.2129V69.0111H81.5348Z" fill="#F8BCD6"/>
<path d="M74.8909 65.6964V62.3745H71.5689V65.6964H74.8909Z" fill="#FAD1E3"/>
<path d="M81.5348 65.6964V62.3745H78.2129V65.6964H81.5348Z" fill="#FAD1E3"/>
<path d="M38.3497 69.0255V65.7036H35.0278V69.0255H38.3497Z" fill="#F8BCD6"/>
<path d="M41.6716 69.0255V65.7036H38.3497V69.0255H41.6716Z" fill="#F8BCD6"/>
<path d="M44.9937 69.0255V65.7036H41.6717V69.0255H44.9937Z" fill="#F8BCD6"/>
<path d="M38.3569 65.7035V62.3816H35.035V65.7035H38.3569Z" fill="#FAD1E3"/>
<path d="M41.6788 65.7035V62.3816H38.3569V65.7035H41.6788Z" fill="#FAD1E3"/>
<path d="M45.0009 65.7108V62.3889H41.6789V65.7108H45.0009Z" fill="#FAD1E3"/>
<path d="M46.6582 57.3878V54.0659H43.3363V57.3878H46.6582Z" fill="#184742"/>
<path d="M49.9801 57.3878V54.0659H46.6582V57.3878H49.9801Z" fill="#184742"/>
<path d="M46.6582 57.3878V54.0659H43.3363V57.3878H46.6582Z" fill="white"/>
<path d="M46.6654 60.7099V57.3879H43.3435V60.7099H46.6654Z" fill="#184742"/>
<path d="M49.9873 60.7099V57.3879H46.6654V60.7099H49.9873Z" fill="#184742"/>
<path d="M66.5825 57.3952V54.0732H63.2606V57.3952H66.5825Z" fill="white"/>
<path d="M69.9044 57.3952V54.0732H66.5825V57.3952H69.9044Z" fill="#184742"/>
<path d="M66.5897 60.7172V57.3953H63.2678V60.7172H66.5897Z" fill="#184742"/>
<path d="M69.9116 60.7172V57.3953H66.5897V60.7172H69.9116Z" fill="#184742"/>
<path d="M54.5198 71.9872V68.6653H51.1979V71.9872H54.5198Z" fill="#184742"/>
<path d="M57.8417 75.3019V71.98H54.5198V75.3019H57.8417Z" fill="#184742"/>
<path d="M61.1637 71.9799V68.658H57.8418V71.9799H61.1637Z" fill="#184742"/>
<path d="M14.7696 50.7332L15.5217 47.4976L12.2861 46.7454L11.5339 49.9811L14.7696 50.7332Z" fill="#184742" stroke="#184742" stroke-width="4.32355" stroke-miterlimit="10"/>
<path d="M17.2531 54.721L18.0052 51.4854L14.7696 50.7332L14.0174 53.9689L17.2531 54.721Z" fill="#184742" stroke="#184742" stroke-width="4.32355" stroke-miterlimit="10"/>
<path d="M19.7297 58.7071L20.4818 55.4714L17.2462 54.7193L16.494 57.9549L19.7297 58.7071Z" fill="#184742" stroke="#184742" stroke-width="4.32355" stroke-miterlimit="10"/>
<path d="M22.2132 62.6949L22.9653 59.4592L19.7297 58.7071L18.9775 61.9427L22.2132 62.6949Z" fill="#184742" stroke="#184742" stroke-width="4.32355" stroke-miterlimit="10"/>
<path d="M24.7037 66.6844L25.4558 63.4487L22.2202 62.6966L21.468 65.9322L24.7037 66.6844Z" fill="#184742" stroke="#184742" stroke-width="4.32355" stroke-miterlimit="10"/>
<path d="M27.1872 70.6722L27.9393 67.4365L24.7037 66.6844L23.9515 69.92L27.1872 70.6722Z" fill="#184742" stroke="#184742" stroke-width="4.32355" stroke-miterlimit="10"/>
<path d="M29.6707 74.66L30.4229 71.4243L27.1872 70.6722L26.435 73.9078L29.6707 74.66Z" fill="#184742" stroke="#184742" stroke-width="4.32355" stroke-miterlimit="10"/>
<path d="M32.1558 78.6407L32.908 75.405L29.6723 74.6529L28.9202 77.8885L32.1558 78.6407Z" fill="#184742" stroke="#184742" stroke-width="4.32355" stroke-miterlimit="10"/>
<path d="M34.6323 82.627L35.3844 79.3914L32.1487 78.6392L31.3966 81.8749L34.6323 82.627Z" fill="#184742" stroke="#184742" stroke-width="4.32355" stroke-miterlimit="10"/>
<path d="M37.1158 86.6148L37.8679 83.3792L34.6323 82.627L33.8801 85.8627L37.1158 86.6148Z" fill="#184742" stroke="#184742" stroke-width="4.32355" stroke-miterlimit="10"/>
<path d="M39.5993 90.6026L40.3514 87.3669L37.1158 86.6148L36.3636 89.8504L39.5993 90.6026Z" fill="#184742" stroke="#184742" stroke-width="4.32355" stroke-miterlimit="10"/>
<path d="M14.7696 50.7332L15.5217 47.4976L12.2861 46.7454L11.5339 49.9811L14.7696 50.7332Z" fill="#FFD86A"/>
<path d="M17.2531 54.721L18.0052 51.4854L14.7696 50.7332L14.0174 53.9689L17.2531 54.721Z" fill="#FFD86A"/>
<path d="M19.7297 58.7071L20.4818 55.4714L17.2462 54.7193L16.494 57.9549L19.7297 58.7071Z" fill="#FFD86A"/>
<path d="M22.2132 62.6949L22.9653 59.4592L19.7297 58.7071L18.9775 61.9427L22.2132 62.6949Z" fill="#FFD86A"/>
<path d="M24.7037 66.6844L25.4558 63.4487L22.2202 62.6966L21.468 65.9322L24.7037 66.6844Z" fill="#FFD86A"/>
<path d="M27.1872 70.6722L27.9393 67.4365L24.7037 66.6844L23.9515 69.92L27.1872 70.6722Z" fill="#FFD86A"/>
<path d="M29.6707 74.66L30.4229 71.4243L27.1872 70.6722L26.435 73.9078L29.6707 74.66Z" fill="#FFD86A"/>
<path d="M32.1558 78.6407L32.908 75.405L29.6723 74.6529L28.9202 77.8885L32.1558 78.6407Z" fill="#FFD86A"/>
<path d="M34.6323 82.627L35.3844 79.3914L32.1487 78.6392L31.3966 81.8749L34.6323 82.627Z" fill="#FFD86A"/>
<path d="M37.1158 86.6148L37.8679 83.3792L34.6323 82.627L33.8801 85.8627L37.1158 86.6148Z" fill="#FFD86A"/>
<path d="M39.5993 90.6026L40.3514 87.3669L37.1158 86.6148L36.3636 89.8504L39.5993 90.6026Z" fill="#FFD86A"/>
<path d="M48.3228 49.0937V45.7717H45.0008V49.0937H48.3228Z" fill="#184742"/>
<path d="M51.6447 52.4083V49.0864H48.3227V52.4083H51.6447Z" fill="#184742"/>
<path d="M35.035 59.0521V55.7302H31.7131V59.0521H35.035Z" fill="#184742"/>
<path d="M54.9666 55.7301V52.4082H51.6446V55.7301H54.9666Z" fill="#184742"/>
<path d="M54.9594 59.0521V55.7302H51.6374V59.0521H54.9594Z" fill="#184742"/>
<path d="M35.035 62.3668V59.0449H31.7131V62.3668H35.035Z" fill="#184742"/>
<path d="M54.9666 62.3739V59.052H51.6446V62.3739H54.9666Z" fill="#184742"/>
<path d="M51.6447 65.6886V62.3667H48.3227V65.6886H51.6447Z" fill="#184742"/>
<path d="M44.9937 69.018V65.696H41.6717V69.018H44.9937Z" fill="#184742"/>
<path d="M48.3156 69.0106V65.6887H44.9936V69.0106H48.3156Z" fill="#184742"/>
<path d="M41.6718 69.0106V65.6887H38.3498V69.0106H41.6718Z" fill="#184742"/>
<path d="M38.3569 65.6959V62.374H35.035V65.6959H38.3569Z" fill="#184742"/>
<path d="M45.0009 49.0863V45.7644H41.6789V49.0863H45.0009Z" fill="#184742"/>
<path d="M41.679 49.0863V45.7644H38.357V49.0863H41.679Z" fill="#184742"/>
<path d="M35.035 55.723V52.4011H31.7131V55.723H35.035Z" fill="#184742"/>
<path d="M38.3569 52.4083V49.0864H35.035V52.4083H38.3569Z" fill="#184742"/>
<path d="M73.2263 49.0863V45.7644H69.9044V49.0863H73.2263Z" fill="#184742"/>
<path d="M76.5554 52.401V49.0791H73.2335V52.401H76.5554Z" fill="#184742"/>
<path d="M59.9458 59.0521V55.7302H56.6239V59.0521H59.9458Z" fill="#184742"/>
<path d="M79.8701 55.7301V52.4082H76.5482V55.7301H79.8701Z" fill="#184742"/>
<path d="M79.8701 59.0521V55.7302H76.5482V59.0521H79.8701Z" fill="#184742"/>
<path d="M59.9458 62.3668V59.0449H56.6239V62.3668H59.9458Z" fill="#184742"/>
<path d="M79.8701 62.3668V59.0449H76.5482V62.3668H79.8701Z" fill="#184742"/>
<path d="M76.5482 65.6886V62.3667H73.2263V65.6886H76.5482Z" fill="#184742"/>
<path d="M69.9116 69.018V65.696H66.5897V69.018H69.9116Z" fill="#184742"/>
<path d="M73.2335 69.0106V65.6887H69.9116V69.0106H73.2335Z" fill="#184742"/>
<path d="M66.5897 69.0036V65.6816H63.2678V69.0036H66.5897Z" fill="#184742"/>
<path d="M63.2677 65.6886V62.3667H59.9458V65.6886H63.2677Z" fill="#184742"/>
<path d="M69.9116 49.0863V45.7644H66.5897V49.0863H69.9116Z" fill="#184742"/>
<path d="M66.5897 49.0863V45.7644H63.2678V49.0863H66.5897Z" fill="#184742"/>
<path d="M59.9458 55.723V52.4011H56.6239V55.723H59.9458Z" fill="#184742"/>
<path d="M63.2677 52.4083V49.0864H59.9458V52.4083H63.2677Z" fill="#184742"/>
<path d="M32 69V98H83V69H32Z" fill="white" stroke="#194742" stroke-width="2.16177" stroke-miterlimit="10"/>
<path d="M9.02171 73.8606H6.99685V70.5387H5.12332V67.2168H1.80139V70.5387H3.67493V73.8606H5.69979V77.1826H9.01451H19.3334V73.8606H9.02171Z" fill="#184742" stroke="#184742" stroke-width="3.60295" stroke-miterlimit="10"/>
<path d="M22.1941 70.4883H18.8722V73.8102H22.1941V70.4883Z" fill="#184742" stroke="#184742" stroke-width="3.60295" stroke-miterlimit="10"/>
<path d="M9.02171 73.8606H6.99685V70.5387H5.12332V67.2168H1.80139V70.5387H3.67493V73.8606H5.69979V77.1826H9.01451H19.3334V73.8606H9.02171Z" fill="#02855A"/>
<path d="M22.1941 70.4883H18.8722V73.8102H22.1941V70.4883Z" fill="#02855A"/>
<path d="M98.311 74.7138H100.357V71.3569H102.25V68H105.607V71.3569H103.714V74.7138H101.668V78.0706H98.3183H87.8909V74.7138H98.311Z" fill="#184742" stroke="#184742" stroke-width="3.60295" stroke-miterlimit="10"/>
<path d="M85.0001 71.3059H88.3569V74.6628H85.0001V71.3059Z" fill="#184742" stroke="#184742" stroke-width="3.60295" stroke-miterlimit="10"/>
<path d="M98.311 74.7138H100.357V71.3569H102.25V68H105.607V71.3569H103.714V74.7138H101.668V78.0706H98.3183H87.8909V74.7138H98.311Z" fill="#02855A"/>
<path d="M85.0001 71.3059H88.3569V74.6628H85.0001V71.3059Z" fill="#02855A"/>
</g>
<defs>
<clipPath id="clip0_3461_43760">
<rect width="109.537" height="120" fill="white"/>
</clipPath>
</defs>
</svg>
