<svg width="92" height="16" viewBox="0 0 92 16" fill="none" xmlns="http://www.w3.org/2000/svg">
<path d="M9.5 14V15.5H0.5C0.5 5.5 0.5 0.5 0.5 0.5H9.5V2H11V6.5H9.5V8H11C11 12 11 14 11 14H9.5ZM3.5 12.5H8C8 10.5 8 9.5 8 9.5H3.5C3.5 11.5 3.5 12.5 3.5 12.5ZM3.5 6.5H8C8 4.5 8 3.5 8 3.5H3.5C3.5 5.5 3.5 6.5 3.5 6.5ZM19.52 14V15.5H15.02V14H13.52V12.5H12.02C12.02 6.5 12.02 3.5 12.02 3.5H13.52V2H15.02V0.5H19.52V2H21.02V3.5H22.52C22.52 9.5 22.52 12.5 22.52 12.5H21.02V14H19.52ZM16.52 12.5H18.02V11H19.52C19.52 7 19.52 5 19.52 5H18.02V3.5H16.52V5H15.02C15.02 9 15.02 11 15.02 11H16.52V12.5ZM31.04 14V15.5H26.54V14H25.04V12.5H23.54C23.54 6.5 23.54 3.5 23.54 3.5H25.04V2H26.54V0.5H31.04V2H32.54V3.5H34.04C34.04 9.5 34.04 12.5 34.04 12.5H32.54V14H31.04ZM28.04 12.5H29.54V11H31.04C31.04 7 31.04 5 31.04 5H29.54V3.5H28.04V5H26.54C26.54 9 26.54 11 26.54 11H28.04V12.5ZM35.06 0.5H38.06V5H39.56V3.5H41.06V2H42.56V0.5H45.56C45.56 2.5 45.56 3.5 45.56 3.5H44.06V5H42.56V6.5H41.06C41.06 8.5 41.06 9.5 41.06 9.5H42.56V11H44.06V12.5H45.56C45.56 14.5 45.56 15.5 45.56 15.5H42.56V14H41.06V12.5H39.56V11H38.06V15.5H35.06C35.06 5.5 35.06 0.5 35.06 0.5ZM46.58 0.5H49.58C49.58 8.5 49.58 12.5 49.58 12.5H57.08C57.08 14.5 57.08 15.5 57.08 15.5H46.58C46.58 5.5 46.58 0.5 46.58 0.5ZM67.1 14V15.5H59.6V14H58.1V0.5H61.1C61.1 8.5 61.1 12.5 61.1 12.5H65.6C65.6 4.5 65.6 0.5 65.6 0.5H68.6V14H67.1ZM78.62 14V15.5H72.62V14H71.12V12.5H69.62C69.62 6.5 69.62 3.5 69.62 3.5H71.12V2H72.62V0.5H78.62V2H80.12C80.12 4 80.12 5 80.12 5H77.12V3.5H74.12V5H72.62C72.62 9 72.62 11 72.62 11H74.12V12.5H77.12V11H80.12C80.12 13 80.12 14 80.12 14H78.62ZM81.14 0.5H84.14V5H85.64V3.5H87.14V2H88.64V0.5H91.64C91.64 2.5 91.64 3.5 91.64 3.5H90.14V5H88.64V6.5H87.14C87.14 8.5 87.14 9.5 87.14 9.5H88.64V11H90.14V12.5H91.64C91.64 14.5 91.64 15.5 91.64 15.5H88.64V14H87.14V12.5H85.64V11H84.14V15.5H81.14C81.14 5.5 81.14 0.5 81.14 0.5Z" fill="#303030"/>
</svg>
