<svg width="58" height="64" viewBox="0 0 58 64" fill="none" xmlns="http://www.w3.org/2000/svg">
<g clip-path="url(#clip0_4697_122294)">
<path d="M22.1863 56.9851V55.288H25.6711V53.5494H27.4135V51.807H29.617V53.5494H31.3594V55.288H34.8404V57.0304H35.7135H40.4795H48.3184V55.288H51.8032V53.5494H53.5456V51.807H55.288V34.8442H53.5456V29.1558H51.8032V27.4135H53.5456V25.6711H55.288V22.1863H57.0304V8.71198H55.288V5.22719H53.5456V3.48479H51.8032V1.7424H48.3184V0H34.8404V1.7424H31.3594V3.48479H29.617V5.22719H27.4135V3.48479H25.6711V1.7424H22.1863V0H8.71198V1.7424H5.22719V3.48479H3.48479V5.22719H1.7424V8.71198H0V22.1863H1.7424V25.6711H3.48479V27.4135H5.22719V29.617H3.48479V31.3594H1.7424V34.8442H0V48.3222H1.7424V51.807H3.48479V53.5494H5.22719V55.288H8.71198V57.0304H17.4202" fill="#184742"/>
<path d="M52.0337 36.3559H53.7761V34.6135V32.8711H52.0337V34.6135V36.3559Z" fill="#184742"/>
<path d="M55.2879 31.3594H50.5219V37.8679H55.2879V31.3594Z" fill="#184742"/>
<path d="M48.549 31.1288H50.2914V29.3901H48.549H46.8066V31.1288H48.549Z" fill="#184742"/>
<path d="M52.0337 31.1289H50.2913V32.8713H52.0337V31.1289Z" fill="#184742"/>
<path d="M53.7761 38.0984V39.8408V41.5831V43.3255V45.0679V46.8103H55.5185V45.0679V43.3255V41.5831V39.8408V38.0984V36.356H53.7761V38.0984Z" fill="#184742"/>
<path d="M57.0304 34.8442H52.2643V48.3223H57.0304V34.8442Z" fill="#184742"/>
<path d="M10.2238 50.2952H8.48145V52.0376H10.2238V50.2952Z" fill="#0DAE89"/>
<path d="M8.48141 50.2952H6.73901V52.0376H8.48141V50.2952Z" fill="#0DAE89"/>
<path d="M6.73523 50.2951V48.5527H4.99283V50.2951H6.73523Z" fill="#00AC75"/>
<path d="M6.73901 48.5527V46.8103H4.99661V48.5527H6.73901Z" fill="#00AC75"/>
<path d="M4.99658 39.8408V38.0984H3.25419V39.8408H4.99658Z" fill="#00AC75"/>
<path d="M4.99658 41.583V39.8406H3.25419V41.583H4.99658Z" fill="#00AC75"/>
<path d="M4.99658 43.3254V41.583H3.25419V43.3254H4.99658Z" fill="#00AC75"/>
<path d="M4.99658 45.0678V43.3254H3.25419V45.0678H4.99658Z" fill="#00AC75"/>
<path d="M4.99658 46.8103V45.0679H3.25419V46.8103H4.99658Z" fill="#00AC75"/>
<path d="M4.99658 38.0984V36.356H3.25419V38.0984H4.99658Z" fill="#00AC75"/>
<path d="M4.99658 13.7085V11.9661H3.25419V13.7085H4.99658Z" fill="#00AC75"/>
<path d="M4.99658 15.4509V13.7085H3.25419V15.4509H4.99658Z" fill="#00AC75"/>
<path d="M4.99658 17.1933V15.4509H3.25419V17.1933H4.99658Z" fill="#00AC75"/>
<path d="M4.99658 18.9358V17.1934H3.25419V18.9358H4.99658Z" fill="#00AC75"/>
<path d="M4.99658 20.6782V18.9358H3.25419V20.6782H4.99658Z" fill="#00AC75"/>
<path d="M4.99658 11.9663V10.2239H3.25419V11.9663H4.99658Z" fill="#00AC75"/>
<path d="M6.73901 13.7085V11.9661H4.99662V13.7085H6.73901Z" fill="#00AC75"/>
<path d="M6.73901 15.4509V13.7085H4.99662V15.4509H6.73901Z" fill="#00AC75"/>
<path d="M6.73901 17.1933V15.4509H4.99662V17.1933H6.73901Z" fill="#00AC75"/>
<path d="M6.73901 18.9358V17.1934H4.99662V18.9358H6.73901Z" fill="#00AC75"/>
<path d="M6.73901 20.6782V18.9358H4.99662V20.6782H6.73901Z" fill="#00AC75"/>
<path d="M6.73901 22.417V20.6746H4.99662V22.417H6.73901Z" fill="#00AC75"/>
<path d="M6.73901 24.1594V22.417H4.99662V24.1594H6.73901Z" fill="#00AC75"/>
<path d="M6.73901 11.9699V10.2275H4.99662V11.9699H6.73901Z" fill="#00AC75"/>
<path d="M6.73523 10.2236V8.4812H4.99283V10.2236H6.73523Z" fill="#00AC75"/>
<path d="M6.73901 8.47775V6.73535H4.99662V8.47775H6.73901Z" fill="#00AC75"/>
<path d="M8.47766 6.74289V5.00049H6.73526V6.74289H8.47766Z" fill="#00AC75"/>
<path d="M10.2201 6.74288V5.00049H8.4777V6.74288H10.2201Z" fill="#00AC75"/>
<path d="M8.48145 13.7124V11.97H6.73905V13.7124H8.48145Z" fill="#00AC75"/>
<path d="M8.48145 15.4509V13.7085H6.73905V15.4509H8.48145Z" fill="#00AC75"/>
<path d="M8.48145 17.1933V15.4509H6.73905V17.1933H8.48145Z" fill="#00AC75"/>
<path d="M8.48145 18.9358V17.1934H6.73905V18.9358H8.48145Z" fill="#00AC75"/>
<path d="M8.48145 20.6782V18.9358H6.73905V20.6782H8.48145Z" fill="#00AC75"/>
<path d="M8.48145 11.9699V10.2275H6.73905V11.9699H8.48145Z" fill="#00AC75"/>
<path d="M10.2239 13.7124V11.97H8.48148V13.7124H10.2239Z" fill="#32B686"/>
<path d="M10.2239 15.4548V13.7124H8.48148V15.4548H10.2239Z" fill="#32B686"/>
<path d="M10.2239 17.1933V15.4509H8.48148V17.1933H10.2239Z" fill="#32B686"/>
<path d="M10.2239 18.9358V17.1934H8.48148V18.9358H10.2239Z" fill="#32B686"/>
<path d="M10.2239 20.6782V18.9358H8.48148V20.6782H10.2239Z" fill="#32B686"/>
<path d="M10.2239 11.9699V10.2275H8.48148V11.9699H10.2239Z" fill="#32B686"/>
<path d="M11.9663 13.7124V11.97H10.2239V13.7124H11.9663Z" fill="#32B686"/>
<path d="M11.9663 15.4548V13.7124H10.2239V15.4548H11.9663Z" fill="#86CBA8"/>
<path d="M11.9663 17.1972V15.4548H10.2239V17.1972H11.9663Z" fill="#86CBA8"/>
<path d="M11.9663 18.9358V17.1934H10.2239V18.9358H11.9663Z" fill="#59BE92"/>
<path d="M11.9663 20.6782V18.9358H10.2239V20.6782H11.9663Z" fill="#86CBA8"/>
<path d="M11.9663 11.9663V10.2239H10.2239V11.9663H11.9663Z" fill="#32B686"/>
<path d="M13.7086 13.7085V11.9661H11.9662V13.7085H13.7086Z" fill="#59BE92"/>
<path d="M13.7086 15.4548V13.7124H11.9662V15.4548H13.7086Z" fill="#59BE92"/>
<path d="M13.7086 17.1972V15.4548H11.9662V17.1972H13.7086Z" fill="#59BE92"/>
<path d="M13.7086 18.9397V17.1973H11.9662V18.9397H13.7086Z" fill="#59BE92"/>
<path d="M13.7048 20.6782V18.9358H11.9624V20.6782H13.7048Z" fill="#59BE92"/>
<path d="M13.7086 11.9699V10.2275H11.9662V11.9699H13.7086Z" fill="#86CBA8"/>
<path d="M15.451 13.7085V11.9661H13.7087V13.7085H15.451Z" fill="#59BE92"/>
<path d="M15.451 15.4472V13.7048H13.7087V15.4472H15.451Z" fill="#59BE92"/>
<path d="M15.451 17.1933V15.4509H13.7087V17.1933H15.451Z" fill="#59BE92"/>
<path d="M15.4473 18.9358V17.1934H13.7049V18.9358H15.4473Z" fill="#59BE92"/>
<path d="M15.4473 20.6782V18.9358H13.7049V20.6782H15.4473Z" fill="#59BE92"/>
<path d="M15.451 11.9663V10.2239H13.7087V11.9663H15.451Z" fill="#59BE92"/>
<path d="M17.1934 13.7085V11.9661H15.451V13.7085H17.1934Z" fill="#59BE92"/>
<path d="M17.1934 15.4509V13.7085H15.451V15.4509H17.1934Z" fill="#59BE92"/>
<path d="M17.1896 17.1897V15.4473H15.4472V17.1897H17.1896Z" fill="#59BE92"/>
<path d="M17.1896 18.9358V17.1934H15.4472V18.9358H17.1896Z" fill="#59BE92"/>
<path d="M17.1896 20.6782V18.9358H15.4472V20.6782H17.1896Z" fill="#59BE92"/>
<path d="M17.1934 11.9663V10.2239H15.451V11.9663H17.1934Z" fill="#59BE92"/>
<path d="M18.9358 13.7085V11.9661H17.1934V13.7085H18.9358Z" fill="#59BE92"/>
<path d="M18.932 15.4509V13.7085H17.1896V15.4509H18.932Z" fill="#59BE92"/>
<path d="M18.932 17.1933V15.4509H17.1896V17.1933H18.932Z" fill="#59BE92"/>
<path d="M18.932 18.9321V17.1897H17.1896V18.9321H18.932Z" fill="#59BE92"/>
<path d="M18.932 20.6782V18.9358H17.1896V20.6782H18.932Z" fill="#59BE92"/>
<path d="M18.9358 11.9663V10.2239H17.1934V11.9663H18.9358Z" fill="#59BE92"/>
<path d="M20.6743 13.7085V11.9661H18.9319V13.7085H20.6743Z" fill="#59BE92"/>
<path d="M20.6743 15.4509V13.7085H18.9319V15.4509H20.6743Z" fill="#59BE92"/>
<path d="M20.6743 17.1933V15.4509H18.9319V17.1933H20.6743Z" fill="#59BE92"/>
<path d="M20.6743 18.9358V17.1934H18.9319V18.9358H20.6743Z" fill="#59BE92"/>
<path d="M20.6743 20.6745V18.9321H18.9319V20.6745H20.6743Z" fill="#59BE92"/>
<path d="M22.4167 20.6782V18.9358H20.6744V20.6782H22.4167Z" fill="#59BE92"/>
<path d="M20.6781 11.9663V10.2239H18.9357V11.9663H20.6781Z" fill="#59BE92"/>
<path d="M22.4167 13.7085V11.9661H20.6744V13.7085H22.4167Z" fill="#59BE92"/>
<path d="M22.4167 15.4509V13.7085H20.6744V15.4509H22.4167Z" fill="#59BE92"/>
<path d="M22.4167 17.1933V15.4509H20.6744V17.1933H22.4167Z" fill="#59BE92"/>
<path d="M22.4167 11.9663V10.2239H20.6744V11.9663H22.4167Z" fill="#59BE92"/>
<path d="M24.1592 13.7085V11.9661H22.4168V13.7085H24.1592Z" fill="#59BE92"/>
<path d="M24.1592 15.4509V13.7085H22.4168V15.4509H24.1592Z" fill="#59BE92"/>
<path d="M24.1592 17.1933V15.4509H22.4168V17.1933H24.1592Z" fill="#59BE92"/>
<path d="M24.1592 11.9663V10.2239H22.4168V11.9663H24.1592Z" fill="#59BE92"/>
<path d="M25.9016 13.7085V11.9661H24.1592V13.7085H25.9016Z" fill="#59BE92"/>
<path d="M25.9016 15.4509V13.7085H24.1592V15.4509H25.9016Z" fill="#59BE92"/>
<path d="M25.9016 17.1933V15.4509H24.1592V17.1933H25.9016Z" fill="#59BE92"/>
<path d="M25.9016 11.9663V10.2239H24.1592V11.9663H25.9016Z" fill="#59BE92"/>
<path d="M8.47766 10.2236V8.4812H6.73527V10.2236H8.47766Z" fill="#00AC75"/>
<path d="M10.2201 10.2236V8.4812H8.4777V10.2236H10.2201Z" fill="#32B686"/>
<path d="M11.9625 10.2236V8.4812H10.2201V10.2236H11.9625Z" fill="#32B686"/>
<path d="M13.7048 10.2236V8.4812H11.9624V10.2236H13.7048Z" fill="#32B686"/>
<path d="M15.4473 10.2199V8.47754H13.7049V10.2199H15.4473Z" fill="#86CBA8"/>
<path d="M17.1896 10.2199V8.47754H15.4472V10.2199H17.1896Z" fill="#86CBA8"/>
<path d="M18.932 10.2199V8.47754H17.1896V10.2199H18.932Z" fill="#86CBA8"/>
<path d="M20.6743 10.2199V8.47754H18.9319V10.2199H20.6743Z" fill="#86CBA8"/>
<path d="M22.4167 10.2236V8.4812H20.6744V10.2236H22.4167Z" fill="#59BE92"/>
<path d="M24.1592 10.2236V8.4812H22.4168V10.2236H24.1592Z" fill="#86CBA8"/>
<path d="M25.9016 10.2236V8.4812H24.1592V10.2236H25.9016Z" fill="#59BE92"/>
<path d="M8.48145 8.48141V6.73901H6.73905V8.48141H8.48145Z" fill="#00AC75"/>
<path d="M10.2239 8.47775V6.73535H8.48148V8.47775H10.2239Z" fill="#00AC75"/>
<path d="M11.9663 8.47775V6.73535H10.2239V8.47775H11.9663Z" fill="#32B686"/>
<path d="M13.7048 8.47775V6.73535H11.9624V8.47775H13.7048Z" fill="#32B686"/>
<path d="M15.4473 8.47775V6.73535H13.7049V8.47775H15.4473Z" fill="#32B686"/>
<path d="M17.1896 8.47775V6.73535H15.4472V8.47775H17.1896Z" fill="#32B686"/>
<path d="M18.932 8.47775V6.73535H17.1896V8.47775H18.932Z" fill="#32B686"/>
<path d="M20.6743 8.47775V6.73535H18.9319V8.47775H20.6743Z" fill="#32B686"/>
<path d="M22.4167 8.47775V6.73535H20.6744V8.47775H22.4167Z" fill="#32B686"/>
<path d="M24.1592 8.47775V6.73535H22.4168V8.47775H24.1592Z" fill="#32B686"/>
<path d="M11.9625 6.74289V5.00049H10.2201V6.74289H11.9625Z" fill="#00AC75"/>
<path d="M13.7048 6.74289V5.00049H11.9624V6.74289H13.7048Z" fill="#00AC75"/>
<path d="M15.4473 6.73898V4.99658H13.7049V6.73898H15.4473Z" fill="#00AC75"/>
<path d="M17.1896 6.73898V4.99658H15.4472V6.73898H17.1896Z" fill="#00AC75"/>
<path d="M18.932 6.73898V4.99658H17.1896V6.73898H18.932Z" fill="#00AC75"/>
<path d="M20.6743 6.73898V4.99658H18.9319V6.73898H20.6743Z" fill="#00AC75"/>
<path d="M11.9625 4.99655V3.25415H10.2201V4.99655H11.9625Z" fill="#00AC75"/>
<path d="M13.7048 4.99655V3.25415H11.9624V4.99655H13.7048Z" fill="#00AC75"/>
<path d="M15.4473 4.99289V3.25049H13.7049V4.99289H15.4473Z" fill="#00AC75"/>
<path d="M17.1896 4.99655V3.25415H15.4472V4.99655H17.1896Z" fill="#00AC75"/>
<path d="M18.932 4.99655V3.25415H17.1896V4.99655H18.932Z" fill="#00AC75"/>
<path d="M20.6743 4.99655V3.25415H18.9319V4.99655H20.6743Z" fill="#00AC75"/>
<path d="M22.4167 6.73898V4.99658H20.6744V6.73898H22.4167Z" fill="#00AC75"/>
<path d="M24.1592 6.74288V5.00049H22.4168V6.74288H24.1592Z" fill="#00AC75"/>
<path d="M25.9016 8.47775V6.73535H24.1592V8.47775H25.9016Z" fill="#59BE92"/>
<path d="M27.644 13.7085V11.9661H25.9016V13.7085H27.644Z" fill="#59BE92"/>
<path d="M27.644 15.4509V13.7085H25.9016V15.4509H27.644Z" fill="#59BE92"/>
<path d="M27.644 17.1933V15.4509H25.9016V17.1933H27.644Z" fill="#59BE92"/>
<path d="M22.4167 18.9358V17.1934H20.6744V18.9358H22.4167Z" fill="#59BE92"/>
<path d="M24.1592 18.9358V17.1934H22.4168V18.9358H24.1592Z" fill="#59BE92"/>
<path d="M25.9016 18.9358V17.1934H24.1592V18.9358H25.9016Z" fill="#59BE92"/>
<path d="M27.644 18.9358V17.1934H25.9016V18.9358H27.644Z" fill="#59BE92"/>
<path d="M29.3864 17.1933V15.4509H27.644V17.1933H29.3864Z" fill="#59BE92"/>
<path d="M31.1288 17.1933V15.4509H29.3864V17.1933H31.1288Z" fill="#59BE92"/>
<path d="M29.3864 18.9358V17.1934H27.644V18.9358H29.3864Z" fill="#59BE92"/>
<path d="M31.1288 18.9358V17.1934H29.3864V18.9358H31.1288Z" fill="#59BE92"/>
<path d="M24.1592 20.6745V18.9321H22.4168V20.6745H24.1592Z" fill="#59BE92"/>
<path d="M25.9016 20.6745V18.9321H24.1592V20.6745H25.9016Z" fill="#59BE92"/>
<path d="M27.644 20.6745V18.9321H25.9016V20.6745H27.644Z" fill="#59BE92"/>
<path d="M29.3864 20.6745V18.9321H27.644V20.6745H29.3864Z" fill="#59BE92"/>
<path d="M31.1288 20.6745V18.9321H29.3864V20.6745H31.1288Z" fill="#59BE92"/>
<path d="M32.8712 17.1933V15.4509H31.1288V17.1933H32.8712Z" fill="#59BE92"/>
<path d="M32.8712 18.9358V17.1934H31.1288V18.9358H32.8712Z" fill="#59BE92"/>
<path d="M8.48145 22.4206V20.6782H6.73905V22.4206H8.48145Z" fill="#00AC75"/>
<path d="M8.48145 24.1631V22.4207H6.73905V24.1631H8.48145Z" fill="#59BE92"/>
<path d="M10.2239 22.4206V20.6782H8.48148V22.4206H10.2239Z" fill="#32B686"/>
<path d="M10.2201 24.1631V22.4207H8.4777V24.1631H10.2201Z" fill="#59BE92"/>
<path d="M11.9625 22.4206V20.6782H10.2201V22.4206H11.9625Z" fill="#59BE92"/>
<path d="M11.9625 24.1631V22.4207H10.2201V24.1631H11.9625Z" fill="#59BE92"/>
<path d="M13.7048 22.4206V20.6782H11.9624V22.4206H13.7048Z" fill="#59BE92"/>
<path d="M13.7048 24.1631V22.4207H11.9624V24.1631H13.7048Z" fill="#59BE92"/>
<path d="M15.4473 22.417V20.6746H13.7049V22.417H15.4473Z" fill="#59BE92"/>
<path d="M15.4473 24.1594V22.417H13.7049V24.1594H15.4473Z" fill="#59BE92"/>
<path d="M8.48145 25.9016V24.1592H6.73905V25.9016H8.48145Z" fill="#00AC75"/>
<path d="M10.2239 25.9016V24.1592H8.48148V25.9016H10.2239Z" fill="#59BE92"/>
<path d="M11.9663 25.9016V24.1592H10.2239V25.9016H11.9663Z" fill="#59BE92"/>
<path d="M13.7048 25.9016V24.1592H11.9624V25.9016H13.7048Z" fill="#59BE92"/>
<path d="M15.4473 25.9016V24.1592H13.7049V25.9016H15.4473Z" fill="#59BE92"/>
<path d="M11.9625 27.644V25.9016H10.2201V27.644H11.9625Z" fill="#59BE92"/>
<path d="M13.7048 27.644V25.9016H11.9624V27.644H13.7048Z" fill="#59BE92"/>
<path d="M15.4473 27.6401V25.8977H13.7049V27.6401H15.4473Z" fill="#59BE92"/>
<path d="M17.1896 22.4206V20.6782H15.4472V22.4206H17.1896Z" fill="#59BE92"/>
<path d="M17.1896 24.1594V22.417H15.4472V24.1594H17.1896Z" fill="#59BE92"/>
<path d="M18.932 22.4206V20.6782H17.1896V22.4206H18.932Z" fill="#59BE92"/>
<path d="M18.932 24.1631V22.4207H17.1896V24.1631H18.932Z" fill="#59BE92"/>
<path d="M20.6743 22.4206V20.6782H18.9319V22.4206H20.6743Z" fill="#59BE92"/>
<path d="M22.4167 22.417V20.6746H20.6744V22.417H22.4167Z" fill="#59BE92"/>
<path d="M24.1592 22.4206V20.6782H22.4168V22.4206H24.1592Z" fill="#59BE92"/>
<path d="M25.9016 22.4206V20.6782H24.1592V22.4206H25.9016Z" fill="#59BE92"/>
<path d="M20.6743 24.1631V22.4207H18.9319V24.1631H20.6743Z" fill="#59BE92"/>
<path d="M22.4167 24.1631V22.4207H20.6744V24.1631H22.4167Z" fill="#59BE92"/>
<path d="M24.1592 24.1594V22.417H22.4168V24.1594H24.1592Z" fill="#59BE92"/>
<path d="M25.9016 24.1631V22.4207H24.1592V24.1631H25.9016Z" fill="#59BE92"/>
<path d="M27.644 22.4206V20.6782H25.9016V22.4206H27.644Z" fill="#59BE92"/>
<path d="M29.3864 22.4206V20.6782H27.644V22.4206H29.3864Z" fill="#59BE92"/>
<path d="M27.644 24.1631V22.4207H25.9016V24.1631H27.644Z" fill="#59BE92"/>
<path d="M29.3864 24.1631V22.4207H27.644V24.1631H29.3864Z" fill="#59BE92"/>
<path d="M31.1288 22.4206V20.6782H29.3864V22.4206H31.1288Z" fill="#59BE92"/>
<path d="M32.8712 20.6782V18.9358H31.1288V20.6782H32.8712Z" fill="#59BE92"/>
<path d="M34.6136 20.6782V18.9358H32.8713V20.6782H34.6136Z" fill="#59BE92"/>
<path d="M32.8712 22.4206V20.6782H31.1288V22.4206H32.8712Z" fill="#59BE92"/>
<path d="M34.6099 22.4206V20.6782H32.8675V22.4206H34.6099Z" fill="#59BE92"/>
<path d="M31.1288 24.1631V22.4207H29.3864V24.1631H31.1288Z" fill="#59BE92"/>
<path d="M17.1896 25.9016V24.1592H15.4472V25.9016H17.1896Z" fill="#59BE92"/>
<path d="M17.1896 27.644V25.9016H15.4472V27.644H17.1896Z" fill="#59BE92"/>
<path d="M18.932 25.9016V24.1592H17.1896V25.9016H18.932Z" fill="#59BE92"/>
<path d="M18.932 27.644V25.9016H17.1896V27.644H18.932Z" fill="#59BE92"/>
<path d="M20.6743 25.9016V24.1592H18.9319V25.9016H20.6743Z" fill="#59BE92"/>
<path d="M20.6743 27.644V25.9016H18.9319V27.644H20.6743Z" fill="#59BE92"/>
<path d="M22.4167 25.9016V24.1592H20.6744V25.9016H22.4167Z" fill="#59BE92"/>
<path d="M22.4167 27.644V25.9016H20.6744V27.644H22.4167Z" fill="#59BE92"/>
<path d="M24.1592 27.644V25.9016H22.4168V27.644H24.1592Z" fill="#59BE92"/>
<path d="M25.9016 25.9016V24.1592H24.1592V25.9016H25.9016Z" fill="#59BE92"/>
<path d="M24.1592 25.9016V24.1592H22.4168V25.9016H24.1592Z" fill="#59BE92"/>
<path d="M27.644 25.9016V24.1592H25.9016V25.9016H27.644Z" fill="#59BE92"/>
<path d="M29.3864 25.9016V24.1592H27.644V25.9016H29.3864Z" fill="#59BE92"/>
<path d="M31.1288 25.9016V24.1592H29.3864V25.9016H31.1288Z" fill="#59BE92"/>
<path d="M25.9016 27.644V25.9016H24.1592V27.644H25.9016Z" fill="#59BE92"/>
<path d="M27.644 27.644V25.9016H25.9016V27.644H27.644Z" fill="#59BE92"/>
<path d="M29.3864 27.644V25.9016H27.644V27.644H29.3864Z" fill="#59BE92"/>
<path d="M31.1288 27.644V25.9016H29.3864V27.644H31.1288Z" fill="#59BE92"/>
<path d="M34.6136 25.9016V24.1592H32.8713V25.9016H34.6136Z" fill="#59BE92"/>
<path d="M32.8712 27.644V25.9016H31.1288V27.644H32.8712Z" fill="#59BE92"/>
<path d="M32.8674 25.9052V24.1628H31.125V25.9052H32.8674Z" fill="#59BE92"/>
<path d="M34.6099 27.644V25.9016H32.8675V27.644H34.6099Z" fill="#59BE92"/>
<path d="M36.3522 27.644V25.9016H34.6098V27.644H36.3522Z" fill="#59BE92"/>
<path d="M38.0946 27.6401V25.8977H36.3522V27.6401H38.0946Z" fill="#59BE92"/>
<path d="M32.8674 24.1631V22.4207H31.125V24.1631H32.8674Z" fill="#59BE92"/>
<path d="M34.6099 24.1631V22.4207H32.8675V24.1631H34.6099Z" fill="#59BE92"/>
<path d="M41.5795 24.1631V22.4207H39.8371V24.1631H41.5795Z" fill="#59BE92"/>
<path d="M43.3219 24.1631V22.4207H41.5795V24.1631H43.3219Z" fill="#59BE92"/>
<path d="M45.0642 24.1631V22.4207H43.3218V24.1631H45.0642Z" fill="#59BE92"/>
<path d="M46.8066 24.163V22.4207H45.0642V24.163H46.8066Z" fill="#59BE92"/>
<path d="M46.8066 25.9016V24.1592H45.0642V25.9016H46.8066Z" fill="#59BE92"/>
<path d="M46.8066 27.644V25.9016H45.0642V27.644H46.8066Z" fill="#59BE92"/>
<path d="M48.549 24.1631V22.4207H46.8066V24.1631H48.549Z" fill="#59BE92"/>
<path d="M39.837 27.644V25.9016H38.0946V27.644H39.837Z" fill="#59BE92"/>
<path d="M17.1896 29.3864V27.644H15.4472V29.3864H17.1896Z" fill="#59BE92"/>
<path d="M18.932 29.3864V27.644H17.1896V29.3864H18.932Z" fill="#59BE92"/>
<path d="M20.6743 29.3864V27.644H18.9319V29.3864H20.6743Z" fill="#59BE92"/>
<path d="M22.4167 29.3864V27.644H20.6744V29.3864H22.4167Z" fill="#59BE92"/>
<path d="M24.1592 29.3901V27.6477H22.4168V29.3901H24.1592Z" fill="#59BE92"/>
<path d="M25.9016 29.3901V27.6477H24.1592V29.3901H25.9016Z" fill="#59BE92"/>
<path d="M27.6403 29.3901V27.6477H25.8979V29.3901H27.6403Z" fill="#59BE92"/>
<path d="M29.3826 29.3864V27.644H27.6402V29.3864H29.3826Z" fill="#59BE92"/>
<path d="M31.125 29.3901V27.6477H29.3826V29.3901H31.125Z" fill="#59BE92"/>
<path d="M32.8674 29.3901V27.6477H31.125V29.3901H32.8674Z" fill="#59BE92"/>
<path d="M34.6099 29.3901V27.6477H32.8675V29.3901H34.6099Z" fill="#59BE92"/>
<path d="M36.3522 29.3901V27.6477H34.6098V29.3901H36.3522Z" fill="#59BE92"/>
<path d="M38.0946 29.3864V27.644H36.3522V29.3864H38.0946Z" fill="#59BE92"/>
<path d="M39.837 29.3864V27.644H38.0946V29.3864H39.837Z" fill="#59BE92"/>
<path d="M41.5795 25.9016V24.1592H39.8371V25.9016H41.5795Z" fill="#59BE92"/>
<path d="M43.3219 25.9016V24.1592H41.5795V25.9016H43.3219Z" fill="#59BE92"/>
<path d="M41.5795 27.644V25.9016H39.8371V27.644H41.5795Z" fill="#59BE92"/>
<path d="M43.3219 27.644V25.9016H41.5795V27.644H43.3219Z" fill="#59BE92"/>
<path d="M45.0642 25.9016V24.1592H43.3218V25.9016H45.0642Z" fill="#59BE92"/>
<path d="M45.0642 27.644V25.9016H43.3218V27.644H45.0642Z" fill="#59BE92"/>
<path d="M27.644 11.9663V10.2239H25.9016V11.9663H27.644Z" fill="#59BE92"/>
<path d="M31.1288 13.7124V11.97H29.3864V13.7124H31.1288Z" fill="#00AC75"/>
<path d="M31.1288 15.4509V13.7085H29.3864V15.4509H31.1288Z" fill="#00AC75"/>
<path d="M31.1288 11.9699V10.2275H29.3864V11.9699H31.1288Z" fill="#00AC75"/>
<path d="M32.8712 13.7124V11.97H31.1288V13.7124H32.8712Z" fill="#00AC75"/>
<path d="M32.8712 15.4548V13.7124H31.1288V15.4548H32.8712Z" fill="#00AC75"/>
<path d="M32.8712 11.9699V10.2275H31.1288V11.9699H32.8712Z" fill="#00AC75"/>
<path d="M32.8674 10.2236V8.4812H31.125V10.2236H32.8674Z" fill="#00AC75"/>
<path d="M32.8712 8.47775V6.73535H31.1288V8.47775H32.8712Z" fill="#00AC75"/>
<path d="M34.6099 6.74289V5.00049H32.8675V6.74289H34.6099Z" fill="#00AC75"/>
<path d="M36.3522 6.73898V4.99658H34.6098V6.73898H36.3522Z" fill="#00AC75"/>
<path d="M34.6136 13.7124V11.97H32.8713V13.7124H34.6136Z" fill="#32B686"/>
<path d="M34.6136 15.4548V13.7124H32.8713V15.4548H34.6136Z" fill="#32B686"/>
<path d="M34.6136 11.9699V10.2275H32.8713V11.9699H34.6136Z" fill="#32B686"/>
<path d="M36.356 13.7085V11.9661H34.6136V13.7085H36.356Z" fill="#59BE92"/>
<path d="M36.356 15.4509V13.7085H34.6136V15.4509H36.356Z" fill="#59BE92"/>
<path d="M36.356 11.9663V10.2239H34.6136V11.9663H36.356Z" fill="#32B686"/>
<path d="M38.0984 13.7085V11.9661H36.356V13.7085H38.0984Z" fill="#59BE92"/>
<path d="M38.0984 15.4509V13.7085H36.356V15.4509H38.0984Z" fill="#59BE92"/>
<path d="M38.0984 11.9663V10.2239H36.356V11.9663H38.0984Z" fill="#59BE92"/>
<path d="M39.8408 13.7085V11.9661H38.0984V13.7085H39.8408Z" fill="#59BE92"/>
<path d="M39.837 15.4509V13.7085H38.0946V15.4509H39.837Z" fill="#59BE92"/>
<path d="M39.8408 11.9663V10.2239H38.0984V11.9663H39.8408Z" fill="#59BE92"/>
<path d="M41.5795 13.7085V11.9661H39.8371V13.7085H41.5795Z" fill="#59BE92"/>
<path d="M41.5795 15.4509V13.7085H39.8371V15.4509H41.5795Z" fill="#59BE92"/>
<path d="M41.5833 11.9663V10.2239H39.8409V11.9663H41.5833Z" fill="#59BE92"/>
<path d="M43.3219 13.7085V11.9661H41.5795V13.7085H43.3219Z" fill="#59BE92"/>
<path d="M43.3219 15.4509V13.7085H41.5795V15.4509H43.3219Z" fill="#59BE92"/>
<path d="M43.3219 11.9663V10.2239H41.5795V11.9663H43.3219Z" fill="#59BE92"/>
<path d="M45.0642 13.7085V11.9661H43.3218V13.7085H45.0642Z" fill="#59BE92"/>
<path d="M45.0642 15.4509V13.7085H43.3218V15.4509H45.0642Z" fill="#59BE92"/>
<path d="M45.0642 11.9663V10.2239H43.3218V11.9663H45.0642Z" fill="#59BE92"/>
<path d="M46.8066 13.7085V11.9661H45.0642V13.7085H46.8066Z" fill="#59BE92"/>
<path d="M46.8066 15.4509V13.7085H45.0642V15.4509H46.8066Z" fill="#59BE92"/>
<path d="M46.8066 11.9663V10.2239H45.0642V11.9663H46.8066Z" fill="#59BE92"/>
<path d="M48.549 13.7085V11.9661H46.8066V13.7085H48.549Z" fill="#59BE92"/>
<path d="M48.549 15.4509V13.7085H46.8066V15.4509H48.549Z" fill="#59BE92"/>
<path d="M48.549 11.9663V10.2239H46.8066V11.9663H48.549Z" fill="#86CBA8"/>
<path d="M50.2913 13.7085V11.9661H48.5489V13.7085H50.2913Z" fill="#86CBA8"/>
<path d="M50.2913 15.4509V13.7085H48.5489V15.4509H50.2913Z" fill="#86CBA8"/>
<path d="M50.2913 11.9663V10.2239H48.5489V11.9663H50.2913Z" fill="#32B686"/>
<path d="M52.0337 13.7085V11.9661H50.2913V13.7085H52.0337Z" fill="#32B686"/>
<path d="M52.0337 15.4509V13.7085H50.2913V15.4509H52.0337Z" fill="#32B686"/>
<path d="M52.0337 11.9699V10.2275H50.2913V11.9699H52.0337Z" fill="#00AC75"/>
<path d="M34.6099 10.2236V8.4812H32.8675V10.2236H34.6099Z" fill="#32B686"/>
<path d="M36.3522 10.2199V8.47754H34.6098V10.2199H36.3522Z" fill="#59BE92"/>
<path d="M38.0946 10.2199V8.47754H36.3522V10.2199H38.0946Z" fill="#32B686"/>
<path d="M39.837 10.2199V8.47754H38.0946V10.2199H39.837Z" fill="#59BE92"/>
<path d="M41.5795 10.2199V8.47754H39.8371V10.2199H41.5795Z" fill="#59BE92"/>
<path d="M43.3219 10.2236V8.4812H41.5795V10.2236H43.3219Z" fill="#86CBA8"/>
<path d="M45.0642 10.2236V8.4812H43.3218V10.2236H45.0642Z" fill="#86CBA8"/>
<path d="M46.8066 10.2236V8.4812H45.0642V10.2236H46.8066Z" fill="#86CBA8"/>
<path d="M48.549 10.2236V8.4812H46.8066V10.2236H48.549Z" fill="#32B686"/>
<path d="M50.2876 10.2236V8.4812H48.5452V10.2236H50.2876Z" fill="#32B686"/>
<path d="M52.03 10.2236V8.4812H50.2876V10.2236H52.03Z" fill="#00AC75"/>
<path d="M34.6136 8.47775V6.73535H32.8713V8.47775H34.6136Z" fill="#32B686"/>
<path d="M36.3522 8.47775V6.73535H34.6098V8.47775H36.3522Z" fill="#32B686"/>
<path d="M38.0946 8.47775V6.73535H36.3522V8.47775H38.0946Z" fill="#32B686"/>
<path d="M39.837 8.47775V6.73535H38.0946V8.47775H39.837Z" fill="#32B686"/>
<path d="M41.5795 8.47775V6.73535H39.8371V8.47775H41.5795Z" fill="#32B686"/>
<path d="M45.0642 8.47775V6.73535H43.3218V8.47775H45.0642Z" fill="#32B686"/>
<path d="M43.3219 8.47775V6.73535H41.5795V8.47775H43.3219Z" fill="#32B686"/>
<path d="M46.8066 8.47775V6.73535H45.0642V8.47775H46.8066Z" fill="#32B686"/>
<path d="M48.549 8.47775V6.73535H46.8066V8.47775H48.549Z" fill="#00AC75"/>
<path d="M50.2913 8.47775V6.73535H48.5489V8.47775H50.2913Z" fill="#00AC75"/>
<path d="M38.0946 6.73898V4.99658H36.3522V6.73898H38.0946Z" fill="#00AC75"/>
<path d="M39.837 6.73898V4.99658H38.0946V6.73898H39.837Z" fill="#00AC75"/>
<path d="M41.5795 6.73898V4.99658H39.8371V6.73898H41.5795Z" fill="#00AC75"/>
<path d="M43.3219 6.73898V4.99658H41.5795V6.73898H43.3219Z" fill="#00AC75"/>
<path d="M45.0642 6.73898V4.99658H43.3218V6.73898H45.0642Z" fill="#00AC75"/>
<path d="M46.8066 6.74288V5.00049H45.0642V6.74288H46.8066Z" fill="#00AC75"/>
<path d="M38.0946 4.99655V3.25415H36.3522V4.99655H38.0946Z" fill="#00AC75"/>
<path d="M39.837 4.99655V3.25415H38.0946V4.99655H39.837Z" fill="#00AC75"/>
<path d="M41.5795 4.99655V3.25415H39.8371V4.99655H41.5795Z" fill="#00AC75"/>
<path d="M43.3219 4.99655V3.25415H41.5795V4.99655H43.3219Z" fill="#00AC75"/>
<path d="M45.0642 4.99655V3.25415H43.3218V4.99655H45.0642Z" fill="#00AC75"/>
<path d="M46.8066 4.99654V3.25415H45.0642V4.99654H46.8066Z" fill="#00AC75"/>
<path d="M48.5452 6.74289V5.00049H46.8028V6.74289H48.5452Z" fill="#00AC75"/>
<path d="M50.2876 6.74289V5.00049H48.5452V6.74289H50.2876Z" fill="#00AC75"/>
<path d="M52.0337 8.47775V6.73535H50.2913V8.47775H52.0337Z" fill="#00AC75"/>
<path d="M53.7761 13.7124V11.97H52.0337V13.7124H53.7761Z" fill="#00AC75"/>
<path d="M53.7761 15.4509V13.7085H52.0337V15.4509H53.7761Z" fill="#00AC75"/>
<path d="M34.6136 17.1972V15.4548H32.8713V17.1972H34.6136Z" fill="#59BE92"/>
<path d="M34.6136 18.9358V17.1934H32.8713V18.9358H34.6136Z" fill="#59BE92"/>
<path d="M36.356 17.1933V15.4509H34.6136V17.1933H36.356Z" fill="#59BE92"/>
<path d="M36.3522 18.9358V17.1934H34.6098V18.9358H36.3522Z" fill="#59BE92"/>
<path d="M38.0946 17.1933V15.4509H36.3522V17.1933H38.0946Z" fill="#59BE92"/>
<path d="M38.0946 18.9358V17.1934H36.3522V18.9358H38.0946Z" fill="#59BE92"/>
<path d="M39.837 17.1933V15.4509H38.0946V17.1933H39.837Z" fill="#59BE92"/>
<path d="M39.837 18.9358V17.1934H38.0946V18.9358H39.837Z" fill="#59BE92"/>
<path d="M41.5795 17.1933V15.4509H39.8371V17.1933H41.5795Z" fill="#59BE92"/>
<path d="M41.5795 18.9358V17.1934H39.8371V18.9358H41.5795Z" fill="#59BE92"/>
<path d="M43.3219 17.1933V15.4509H41.5795V17.1933H43.3219Z" fill="#59BE92"/>
<path d="M43.3219 18.9358V17.1934H41.5795V18.9358H43.3219Z" fill="#59BE92"/>
<path d="M45.0642 17.1933V15.4509H43.3218V17.1933H45.0642Z" fill="#59BE92"/>
<path d="M45.0642 18.9358V17.1934H43.3218V18.9358H45.0642Z" fill="#59BE92"/>
<path d="M46.8066 17.1933V15.4509H45.0642V17.1933H46.8066Z" fill="#59BE92"/>
<path d="M46.8066 18.9358V17.1934H45.0642V18.9358H46.8066Z" fill="#59BE92"/>
<path d="M48.549 17.1933V15.4509H46.8066V17.1933H48.549Z" fill="#59BE92"/>
<path d="M48.549 18.9358V17.1934H46.8066V18.9358H48.549Z" fill="#59BE92"/>
<path d="M50.2913 17.1933V15.4509H48.5489V17.1933H50.2913Z" fill="#86CBA8"/>
<path d="M50.2913 18.9358V17.1934H48.5489V18.9358H50.2913Z" fill="#86CBA8"/>
<path d="M52.0337 17.1933V15.4509H50.2913V17.1933H52.0337Z" fill="#32B686"/>
<path d="M52.03 18.9358V17.1934H50.2876V18.9358H52.03Z" fill="#32B686"/>
<path d="M53.7761 17.1933V15.4509H52.0337V17.1933H53.7761Z" fill="#00AC75"/>
<path d="M53.7761 18.9358V17.1934H52.0337V18.9358H53.7761Z" fill="#00AC75"/>
<path d="M36.3522 20.6745V18.9321H34.6098V20.6745H36.3522Z" fill="#59BE92"/>
<path d="M38.0946 20.6782V18.9358H36.3522V20.6782H38.0946Z" fill="#59BE92"/>
<path d="M39.837 20.6782V18.9358H38.0946V20.6782H39.837Z" fill="#59BE92"/>
<path d="M41.5795 20.6782V18.9358H39.8371V20.6782H41.5795Z" fill="#59BE92"/>
<path d="M43.3219 20.6782V18.9358H41.5795V20.6782H43.3219Z" fill="#59BE92"/>
<path d="M45.0642 20.6782V18.9358H43.3218V20.6782H45.0642Z" fill="#59BE92"/>
<path d="M46.8066 20.6782V18.9358H45.0642V20.6782H46.8066Z" fill="#59BE92"/>
<path d="M48.549 20.6782V18.9358H46.8066V20.6782H48.549Z" fill="#59BE92"/>
<path d="M50.2913 20.6782V18.9358H48.5489V20.6782H50.2913Z" fill="#59BE92"/>
<path d="M52.0337 20.6782V18.9358H50.2913V20.6782H52.0337Z" fill="#32B686"/>
<path d="M36.3522 22.417V20.6746H34.6098V22.417H36.3522Z" fill="#59BE92"/>
<path d="M38.0946 22.417V20.6746H36.3522V22.417H38.0946Z" fill="#59BE92"/>
<path d="M39.837 22.4206V20.6782H38.0946V22.4206H39.837Z" fill="#59BE92"/>
<path d="M36.3522 24.1594V22.417H34.6098V24.1594H36.3522Z" fill="#59BE92"/>
<path d="M38.0946 24.1594V22.417H36.3522V24.1594H38.0946Z" fill="#59BE92"/>
<path d="M39.837 24.1594V22.417H38.0946V24.1594H39.837Z" fill="#59BE92"/>
<path d="M36.3522 25.8977V24.1553H34.6098V25.8977H36.3522Z" fill="#59BE92"/>
<path d="M38.0946 25.8977V24.1553H36.3522V25.8977H38.0946Z" fill="#59BE92"/>
<path d="M39.837 25.8977V24.1553H38.0946V25.8977H39.837Z" fill="#59BE92"/>
<path d="M41.5795 22.4206V20.6782H39.8371V22.4206H41.5795Z" fill="#59BE92"/>
<path d="M43.3219 22.4206V20.6782H41.5795V22.4206H43.3219Z" fill="#59BE92"/>
<path d="M45.0642 22.4206V20.6782H43.3218V22.4206H45.0642Z" fill="#59BE92"/>
<path d="M46.8066 22.4206V20.6782H45.0642V22.4206H46.8066Z" fill="#59BE92"/>
<path d="M48.549 22.4206V20.6782H46.8066V22.4206H48.549Z" fill="#59BE92"/>
<path d="M50.2876 22.4206V20.6782H48.5452V22.4206H50.2876Z" fill="#32B686"/>
<path d="M52.03 22.4206V20.6782H50.2876V22.4206H52.03Z" fill="#32B686"/>
<path d="M50.2913 24.1594V22.417H48.5489V24.1594H50.2913Z" fill="#32B686"/>
<path d="M48.549 25.9016V24.1592H46.8066V25.9016H48.549Z" fill="#59BE92"/>
<path d="M50.2876 25.9016V24.1592H48.5452V25.9016H50.2876Z" fill="#32B686"/>
<path d="M52.0337 24.1594V22.417H50.2913V24.1594H52.0337Z" fill="#32B686"/>
<path d="M53.7761 20.6782V18.9358H52.0337V20.6782H53.7761Z" fill="#00AC75"/>
<path d="M53.7761 11.9699V10.2275H52.0337V11.9699H53.7761Z" fill="#00AC75"/>
<path d="M6.73901 36.3559V34.6135H4.99662V36.3559H6.73901Z" fill="#00AC75"/>
<path d="M6.73901 34.6174V32.875H4.99662V34.6174H6.73901Z" fill="#00AC75"/>
<path d="M8.48145 34.6174V32.875H6.73905V34.6174H8.48145Z" fill="#00AC75"/>
<path d="M8.48145 32.875V31.1326H6.73905V32.875H8.48145Z" fill="#00AC75"/>
<path d="M11.9663 27.6477H10.2239V29.3901H11.9663V27.6477Z" fill="#59BE92"/>
<path d="M10.2238 29.3901H8.48145V31.1325H10.2238V29.3901Z" fill="#59BE92"/>
<path d="M8.48141 29.3901H6.73901V31.1325H8.48141V29.3901Z" fill="#59BE92"/>
<path d="M10.2238 52.0376H8.48145V53.78H10.2238V52.0376Z" fill="#59BE92"/>
<path d="M8.48141 52.0376H6.73901V53.78H8.48141V52.0376Z" fill="#59BE92"/>
<path d="M24.1591 52.0376H22.4167V53.78H24.1591V52.0376Z" fill="#59BE92"/>
<path d="M22.4167 52.0376H20.6743V53.78H22.4167V52.0376Z" fill="#59BE92"/>
<path d="M4.99658 36.3559V34.6135H3.25419V36.3559H4.99658Z" fill="#59BE92"/>
<path d="M4.99658 34.6135V32.8711H3.25419V34.6135H4.99658Z" fill="#59BE92"/>
<path d="M4.99658 50.2951V48.5527H3.25419V50.2951H4.99658Z" fill="#59BE92"/>
<path d="M4.99658 48.5527V46.8103H3.25418V48.5527H4.99658Z" fill="#59BE92"/>
<path d="M27.644 50.2951V48.5527H25.9016V50.2951H27.644Z" fill="#59BE92"/>
<path d="M27.644 48.5527V46.8103H25.9016V48.5527H27.644Z" fill="#59BE92"/>
<path d="M3.25427 39.8408V38.0984H1.51188V39.8408H3.25427Z" fill="#59BE92"/>
<path d="M3.25427 41.583V39.8406H1.51188V41.583H3.25427Z" fill="#59BE92"/>
<path d="M3.25427 43.3254V41.583H1.51188V43.3254H3.25427Z" fill="#59BE92"/>
<path d="M3.25427 45.0678V43.3254H1.51188V45.0678H3.25427Z" fill="#59BE92"/>
<path d="M3.25427 46.8103V45.0679H1.51188V46.8103H3.25427Z" fill="#59BE92"/>
<path d="M3.25427 38.0984V36.356H1.51188V38.0984H3.25427Z" fill="#59BE92"/>
<path d="M29.3864 43.3254V41.583H27.644V43.3254H29.3864Z" fill="#59BE92"/>
<path d="M29.3864 45.0678V43.3254H27.644V45.0678H29.3864Z" fill="#59BE92"/>
<path d="M29.3864 46.8103V45.0679H27.644V46.8103H29.3864Z" fill="#59BE92"/>
<path d="M6.73898 31.1289H4.99658V32.8713H6.73898V31.1289Z" fill="#59BE92"/>
<path d="M6.73898 50.2952H4.99658V52.0376H6.73898V50.2952Z" fill="#59BE92"/>
<path d="M25.9016 50.2952H24.1592V52.0376H25.9016V50.2952Z" fill="#59BE92"/>
<path d="M13.7087 27.6477H11.9663V29.3901H13.7087V27.6477Z" fill="#59BE92"/>
<path d="M15.4472 27.6477H13.7048V29.3901H15.4472V27.6477Z" fill="#59BE92"/>
<path d="M11.9663 53.7764H10.2239V55.5188H11.9663V53.7764Z" fill="#59BE92"/>
<path d="M13.7087 53.7764H11.9663V55.5188H13.7087V53.7764Z" fill="#59BE92"/>
<path d="M15.4472 53.7764H13.7048V55.5188H15.4472V53.7764Z" fill="#59BE92"/>
<path d="M17.1897 53.7764H15.4473V55.5188H17.1897V53.7764Z" fill="#59BE92"/>
<path d="M18.932 53.7764H17.1896V55.5188H18.932V53.7764Z" fill="#59BE92"/>
<path d="M20.6744 53.7764H18.932V55.5188H20.6744V53.7764Z" fill="#59BE92"/>
<path d="M29.3826 11.9663V10.2239H27.6402V11.9663H29.3826Z" fill="#59BE92"/>
<path d="M27.644 10.2236V8.4812H25.9016V10.2236H27.644Z" fill="#59BE92"/>
<path d="M27.644 8.48141V6.73901H25.9016V8.48141H27.644Z" fill="#59BE92"/>
<path d="M4.99658 10.2236V8.4812H3.25419V10.2236H4.99658Z" fill="#59BE92"/>
<path d="M4.99658 8.48141V6.73901H3.25419V8.48141H4.99658Z" fill="#59BE92"/>
<path d="M4.99658 24.1594V22.417H3.25419V24.1594H4.99658Z" fill="#59BE92"/>
<path d="M4.99658 22.417V20.6746H3.25419V22.417H4.99658Z" fill="#59BE92"/>
<path d="M20.6744 4.99658H22.4167V3.25419H20.6744V4.99658Z" fill="#59BE92"/>
<path d="M22.4168 4.99658H24.1592V3.25419H22.4168V4.99658Z" fill="#59BE92"/>
<path d="M6.73526 4.99658H8.47766V3.25419H6.73526V4.99658Z" fill="#59BE92"/>
<path d="M8.4777 4.99658H10.2201V3.25419H8.4777V4.99658Z" fill="#59BE92"/>
<path d="M6.73526 27.644H8.47766V25.9016H6.73526V27.644Z" fill="#59BE92"/>
<path d="M8.4777 27.644H10.2201V25.9016H8.4777V27.644Z" fill="#59BE92"/>
<path d="M17.1934 3.25415H18.9358V1.51175L17.1934 1.51175V3.25415Z" fill="#59BE92"/>
<path d="M15.451 3.25415H17.1934V1.51175L15.451 1.51175V3.25415Z" fill="#59BE92"/>
<path d="M13.7087 3.25415H15.451V1.51175L13.7087 1.51175V3.25415Z" fill="#59BE92"/>
<path d="M11.9624 3.25415H13.7048V1.51175L11.9624 1.51175V3.25415Z" fill="#59BE92"/>
<path d="M10.2201 3.25415H11.9625V1.51175L10.2201 1.51175V3.25415Z" fill="#59BE92"/>
<path d="M18.9319 3.25415H20.6743V1.51175L18.9319 1.51175V3.25415Z" fill="#59BE92"/>
<path d="M13.7087 29.3865H15.451V27.6441H13.7087V29.3865Z" fill="#59BE92"/>
<path d="M11.9624 29.3865H13.7048V27.6441H11.9624V29.3865Z" fill="#59BE92"/>
<path d="M10.2201 29.3865H11.9625V27.6441H10.2201V29.3865Z" fill="#59BE92"/>
<path d="M25.9016 6.73898V4.99658H24.1592V6.73898H25.9016Z" fill="#59BE92"/>
<path d="M6.73901 6.73898V4.99658H4.99662V6.73898H6.73901Z" fill="#59BE92"/>
<path d="M6.73901 25.9016V24.1592H4.99662V25.9016H6.73901Z" fill="#59BE92"/>
<path d="M29.3826 13.7085V11.9661H27.6402V13.7085H29.3826Z" fill="#59BE92"/>
<path d="M29.3864 15.4509V13.7085H27.644V15.4509H29.3864Z" fill="#59BE92"/>
<path d="M3.25427 11.9663V10.2239H1.51188V11.9663H3.25427Z" fill="#59BE92"/>
<path d="M3.25049 13.7085V11.9661H1.50809V13.7085H3.25049Z" fill="#59BE92"/>
<path d="M3.25427 15.4472V13.7048H1.51188V15.4472H3.25427Z" fill="#59BE92"/>
<path d="M3.25427 17.1897V15.4473H1.51188V17.1897H3.25427Z" fill="#59BE92"/>
<path d="M3.25427 18.9321V17.1897H1.51188V18.9321H3.25427Z" fill="#59BE92"/>
<path d="M3.25427 20.6745V18.9321H1.51188V20.6745H3.25427Z" fill="#59BE92"/>
<path d="M45.0642 29.3865H46.8066V27.6441H45.0642V29.3865Z" fill="#59BE92"/>
<path d="M46.8066 27.644H48.549V25.9016H46.8066V27.644Z" fill="#59BE92"/>
<path d="M48.5489 27.644H50.2913V25.9016H48.5489V27.644Z" fill="#59BE92"/>
<path d="M46.8066 4.99658H48.549V3.25419H46.8066V4.99658Z" fill="#59BE92"/>
<path d="M48.5489 4.99658H50.2913V3.25419H48.5489V4.99658Z" fill="#59BE92"/>
<path d="M32.8675 4.99658H34.6099V3.25419H32.8675V4.99658Z" fill="#59BE92"/>
<path d="M34.6136 4.99658H36.356V3.25419H34.6136V4.99658Z" fill="#59BE92"/>
<path d="M52.0337 20.6746V22.417H53.7761V20.6746H52.0337Z" fill="#59BE92"/>
<path d="M52.0337 22.4168V24.1592H53.7761V22.4168H52.0337Z" fill="#59BE92"/>
<path d="M52.0337 6.73514V8.47754H53.7761V6.73514H52.0337Z" fill="#59BE92"/>
<path d="M52.0337 8.47782V10.2202H53.7761V8.47782H52.0337Z" fill="#59BE92"/>
<path d="M29.3864 6.73514V8.47754H31.1287V6.73514H29.3864Z" fill="#59BE92"/>
<path d="M29.3864 8.47782V10.2202H31.1287V8.47782H29.3864Z" fill="#59BE92"/>
<path d="M53.7723 17.1897V18.9321H55.5147V17.1897H53.7723Z" fill="#59BE92"/>
<path d="M53.7723 15.4473V17.1897H55.5147V15.4473H53.7723Z" fill="#59BE92"/>
<path d="M53.7723 13.7049V15.4473H55.5147V13.7049H53.7723Z" fill="#59BE92"/>
<path d="M53.7761 11.9624V13.7048H55.5185V11.9624H53.7761Z" fill="#59BE92"/>
<path d="M53.7761 10.22V11.9624H55.5185V10.22H53.7761Z" fill="#59BE92"/>
<path d="M53.7723 18.9322V20.6746H55.5147V18.9322H53.7723Z" fill="#59BE92"/>
<path d="M27.6403 13.7049V15.4473H29.3827V13.7049H27.6403Z" fill="#59BE92"/>
<path d="M27.644 11.9624V13.7048H29.3864V11.9624H27.644Z" fill="#59BE92"/>
<path d="M27.644 10.22V11.9624H29.3864V10.22H27.644Z" fill="#59BE92"/>
<path d="M50.2913 25.9016H52.0337V24.1592H50.2913V25.9016Z" fill="#59BE92"/>
<path d="M50.2913 6.73901H52.0337V4.99662H50.2913V6.73901Z" fill="#59BE92"/>
<path d="M31.125 6.73901H32.8674V4.99662H31.125V6.73901Z" fill="#59BE92"/>
<path d="M43.3218 29.3865H45.0642V27.6441H43.3218V29.3865Z" fill="#59BE92"/>
<path d="M41.5795 29.3865H43.3219V27.6441H41.5795V29.3865Z" fill="#59BE92"/>
<path d="M39.8371 29.3865H41.5795V27.6441H39.8371V29.3865Z" fill="#59BE92"/>
<path d="M45.0642 3.25415H46.8066V1.51175L45.0642 1.51175V3.25415Z" fill="#59BE92"/>
<path d="M43.3218 3.25415H45.0642V1.51175L43.3218 1.51175V3.25415Z" fill="#59BE92"/>
<path d="M41.5795 3.25415H43.3219V1.51175L41.5795 1.51175V3.25415Z" fill="#59BE92"/>
<path d="M39.8371 3.25415H41.5795V1.51175L39.8371 1.51175V3.25415Z" fill="#59BE92"/>
<path d="M38.0984 3.25415H39.8408V1.51175L38.0984 1.51175V3.25415Z" fill="#59BE92"/>
<path d="M36.356 3.25415H38.0984V1.51175L36.356 1.51175V3.25415Z" fill="#59BE92"/>
<path d="M27.644 45.0679V46.8103H29.3864V45.0679H27.644Z" fill="#59BE92"/>
<path d="M29.3864 46.8067V48.5491H31.1288V46.8067H29.3864Z" fill="#59BE92"/>
<path d="M29.3864 48.5491V50.2915H31.1287V48.5491H29.3864Z" fill="#59BE92"/>
<path d="M52.0337 46.8067V48.5491H53.7761V46.8067H52.0337Z" fill="#59BE92"/>
<path d="M52.0338 48.5491V50.2915H53.7762V48.5491H52.0338Z" fill="#59BE92"/>
<path d="M52.03 32.8711V34.6135H53.7724V32.8711H52.03Z" fill="#59BE92"/>
<path d="M52.03 34.6136V36.356H53.7724V34.6136H52.03Z" fill="#59BE92"/>
<path d="M36.3523 52.0376H34.6099V53.78H36.3523V52.0376Z" fill="#59BE92"/>
<path d="M34.6136 52.0376H32.8712V53.78H34.6136V52.0376Z" fill="#59BE92"/>
<path d="M50.2913 52.0376H48.549V53.78H50.2913V52.0376Z" fill="#59BE92"/>
<path d="M48.549 52.0376H46.8066V53.78H48.549V52.0376Z" fill="#59BE92"/>
<path d="M50.2913 29.3901H48.549V31.1325H50.2913V29.3901Z" fill="#59BE92"/>
<path d="M48.549 29.3901H46.8066V31.1325H48.549V29.3901Z" fill="#59BE92"/>
<path d="M39.837 53.7764H38.0946V55.5188H39.837V53.7764Z" fill="#59BE92"/>
<path d="M41.5794 53.7764H39.837V55.5188H41.5794V53.7764Z" fill="#59BE92"/>
<path d="M43.3219 53.7764H41.5795V55.5188H43.3219V53.7764Z" fill="#59BE92"/>
<path d="M45.0643 53.7764H43.3219V55.5188H45.0643V53.7764Z" fill="#59BE92"/>
<path d="M46.8066 53.7764H45.0642V55.5188H46.8066V53.7764Z" fill="#59BE92"/>
<path d="M38.0946 53.7764H36.3522V55.5188H38.0946V53.7764Z" fill="#59BE92"/>
<path d="M41.5794 27.6477H39.837V29.3901H41.5794V27.6477Z" fill="#59BE92"/>
<path d="M43.3219 27.6477H41.5795V29.3901H43.3219V27.6477Z" fill="#59BE92"/>
<path d="M45.0643 27.6477H43.3219V29.3901H45.0643V27.6477Z" fill="#59BE92"/>
<path d="M46.8066 27.6477H45.0642V29.3901H46.8066V27.6477Z" fill="#59BE92"/>
<path d="M31.1288 50.2915V52.0339H32.8712V50.2915H31.1288Z" fill="#59BE92"/>
<path d="M50.295 50.2915V52.0339H52.0374V50.2915H50.295Z" fill="#59BE92"/>
<path d="M50.2876 31.1287V32.8711H52.03V31.1287H50.2876Z" fill="#59BE92"/>
<path d="M27.644 43.3255V45.0679H29.3864V43.3255H27.644Z" fill="#59BE92"/>
<path d="M27.644 41.583V43.3254H29.3864V41.583H27.644Z" fill="#59BE92"/>
<path d="M53.7761 45.0642V46.8066H55.5185V45.0642H53.7761Z" fill="#59BE92"/>
<path d="M53.7761 43.3255V45.0679H55.5185V43.3255H53.7761Z" fill="#59BE92"/>
<path d="M53.7761 41.583V43.3254H55.5185V41.583H53.7761Z" fill="#59BE92"/>
<path d="M53.7761 39.8406V41.583H55.5185V39.8406H53.7761Z" fill="#59BE92"/>
<path d="M53.7761 38.0982V39.8406H55.5185V38.0982H53.7761Z" fill="#59BE92"/>
<path d="M53.7723 36.356V38.0984H55.5147V36.356H53.7723Z" fill="#59BE92"/>
<path d="M52.0337 43.3255V45.0679H53.7761V43.3255H52.0337Z" fill="#00AC75"/>
<path d="M52.0337 41.583V43.3254H53.7761V41.583H52.0337Z" fill="#00AC75"/>
<path d="M52.0337 39.8406V41.583H53.7761V39.8406H52.0337Z" fill="#00AC75"/>
<path d="M52.0337 38.0982V39.8406H53.7761V38.0982H52.0337Z" fill="#00AC75"/>
<path d="M52.03 36.356V38.0984H53.7724V36.356H52.03Z" fill="#00AC75"/>
<path d="M52.0337 45.0642V46.8066H53.7761V45.0642H52.0337Z" fill="#00AC75"/>
<path d="M50.2913 43.3255V45.0679H52.0337V43.3255H50.2913Z" fill="#00AC75"/>
<path d="M50.2913 41.583V43.3254H52.0337V41.583H50.2913Z" fill="#00AC75"/>
<path d="M50.2913 39.8406V41.583H52.0337V39.8406H50.2913Z" fill="#00AC75"/>
<path d="M50.2913 38.0982V39.8406H52.0337V38.0982H50.2913Z" fill="#00AC75"/>
<path d="M50.2913 36.356V38.0984H52.0337V36.356H50.2913Z" fill="#00AC75"/>
<path d="M50.2913 34.6175V36.3599H52.0337V34.6175H50.2913Z" fill="#00AC75"/>
<path d="M50.2913 32.875V34.6174H52.0337V32.875H50.2913Z" fill="#00AC75"/>
<path d="M50.2913 45.0679V46.8103H52.0337V45.0679H50.2913Z" fill="#00AC75"/>
<path d="M50.2913 46.8103V48.5527H52.0337V46.8103H50.2913Z" fill="#00AC75"/>
<path d="M50.2913 48.5567V50.2991H52.0337V48.5567H50.2913Z" fill="#00AC75"/>
<path d="M48.549 50.2915V52.0339H50.2913V50.2915H48.549Z" fill="#00AC75"/>
<path d="M46.8066 50.2915V52.0339H48.549V50.2915H46.8066Z" fill="#00AC75"/>
<path d="M48.549 43.3255V45.0679H50.2913V43.3255H48.549Z" fill="#32B686"/>
<path d="M48.549 41.583V43.3254H50.2913V41.583H48.549Z" fill="#59BE92"/>
<path d="M48.549 39.8406V41.583H50.2913V39.8406H48.549Z" fill="#32B686"/>
<path d="M48.549 38.0982V39.8406H50.2913V38.0982H48.549Z" fill="#32B686"/>
<path d="M48.549 36.356V38.0984H50.2913V36.356H48.549Z" fill="#32B686"/>
<path d="M48.549 45.0679V46.8103H50.2913V45.0679H48.549Z" fill="#32B686"/>
<path d="M46.8066 43.3255V45.0679H48.549V43.3255H46.8066Z" fill="#59BE92"/>
<path d="M46.8066 41.583V43.3254H48.549V41.583H46.8066Z" fill="#32B686"/>
<path d="M46.8066 39.8406V41.583H48.549V39.8406H46.8066Z" fill="#59BE92"/>
<path d="M46.8066 38.0982V39.8406H48.549V38.0982H46.8066Z" fill="#59BE92"/>
<path d="M46.8066 36.356V38.0984H48.549V36.356H46.8066Z" fill="#59BE92"/>
<path d="M46.8066 45.0679V46.8103H48.549V45.0679H46.8066Z" fill="#32B686"/>
<path d="M45.0642 43.3255V45.0679H46.8066V43.3255H45.0642Z" fill="#32B686"/>
<path d="M45.0642 41.583V43.3254H46.8066V41.583H45.0642Z" fill="#59BE92"/>
<path d="M45.0642 39.8406V41.583H46.8066V39.8406H45.0642Z" fill="#59BE92"/>
<path d="M45.0642 38.0982V39.8406H46.8066V38.0982H45.0642Z" fill="#59BE92"/>
<path d="M45.0642 36.356V38.0984H46.8066V36.356H45.0642Z" fill="#59BE92"/>
<path d="M45.068 45.0679V46.8103H46.8104V45.0679H45.068Z" fill="#59BE92"/>
<path d="M43.3256 43.3255V45.0679H45.068V43.3255H43.3256Z" fill="#59BE92"/>
<path d="M43.3219 41.583V43.3254H45.0643V41.583H43.3219Z" fill="#59BE92"/>
<path d="M43.3219 39.8406V41.583H45.0643V39.8406H43.3219Z" fill="#59BE92"/>
<path d="M43.3219 38.0982V39.8406H45.0643V38.0982H43.3219Z" fill="#59BE92"/>
<path d="M43.3219 36.356V38.0984H45.0643V36.356H43.3219Z" fill="#59BE92"/>
<path d="M43.3219 45.0679V46.8103H45.0643V45.0679H43.3219Z" fill="#32B686"/>
<path d="M41.5795 43.3255V45.0679H43.3219V43.3255H41.5795Z" fill="#32B686"/>
<path d="M41.5833 41.583V43.3254H43.3256V41.583H41.5833Z" fill="#59BE92"/>
<path d="M41.5795 39.8406V41.583H43.3219V39.8406H41.5795Z" fill="#59BE92"/>
<path d="M41.5795 38.0982V39.8406H43.3219V38.0982H41.5795Z" fill="#59BE92"/>
<path d="M41.5795 36.356V38.0984H43.3219V36.356H41.5795Z" fill="#59BE92"/>
<path d="M41.5795 45.0679V46.8103H43.3219V45.0679H41.5795Z" fill="#59BE92"/>
<path d="M39.837 43.3255V45.0679H41.5794V43.3255H39.837Z" fill="#32B686"/>
<path d="M39.837 41.583V43.3254H41.5794V41.583H39.837Z" fill="#59BE92"/>
<path d="M39.8408 39.8406V41.583H41.5832V39.8406H39.8408Z" fill="#59BE92"/>
<path d="M39.837 38.0982V39.8406H41.5794V38.0982H39.837Z" fill="#59BE92"/>
<path d="M39.837 36.356V38.0984H41.5794V36.356H39.837Z" fill="#59BE92"/>
<path d="M39.837 45.0679V46.8103H41.5794V45.0679H39.837Z" fill="#32B686"/>
<path d="M38.0946 43.3255V45.0679H39.837V43.3255H38.0946Z" fill="#32B686"/>
<path d="M38.0946 41.583V43.3254H39.837V41.583H38.0946Z" fill="#59BE92"/>
<path d="M38.0946 39.8406V41.583H39.837V39.8406H38.0946Z" fill="#59BE92"/>
<path d="M38.0984 38.0982V39.8406H39.8408V38.0982H38.0984Z" fill="#59BE92"/>
<path d="M38.0946 36.356V38.0984H39.837V36.356H38.0946Z" fill="#59BE92"/>
<path d="M38.0946 45.0679V46.8103H39.837V45.0679H38.0946Z" fill="#32B686"/>
<path d="M36.3522 43.3255V45.0679H38.0946V43.3255H36.3522Z" fill="#32B686"/>
<path d="M36.3522 41.583V43.3254H38.0946V41.583H36.3522Z" fill="#59BE92"/>
<path d="M36.3522 39.8406V41.583H38.0946V39.8406H36.3522Z" fill="#59BE92"/>
<path d="M36.3522 38.0982V39.8406H38.0946V38.0982H36.3522Z" fill="#59BE92"/>
<path d="M36.356 36.3599V38.1023H38.0984V36.3599H36.356Z" fill="#59BE92"/>
<path d="M36.356 45.0679V46.8103H38.0984V45.0679H36.356Z" fill="#32B686"/>
<path d="M34.6136 43.3218V45.0642H36.356V43.3218H34.6136Z" fill="#32B686"/>
<path d="M34.6136 41.5794V43.3218H36.356V41.5794H34.6136Z" fill="#32B686"/>
<path d="M34.6099 39.8406V41.583H36.3523V39.8406H34.6099Z" fill="#59BE92"/>
<path d="M34.6136 45.0679V46.8103H36.356V45.0679H34.6136Z" fill="#32B686"/>
<path d="M32.8712 43.3218V45.0642H34.6136V43.3218H32.8712Z" fill="#32B686"/>
<path d="M32.8712 41.583V43.3254H34.6136V41.583H32.8712Z" fill="#32B686"/>
<path d="M32.8674 39.8406V41.583H34.6098V39.8406H32.8674Z" fill="#59BE92"/>
<path d="M32.8712 45.0642V46.8066H34.6136V45.0642H32.8712Z" fill="#32B686"/>
<path d="M31.1288 43.3218V45.0642H32.8712V43.3218H31.1288Z" fill="#00AC75"/>
<path d="M31.1288 41.583V43.3254H32.8712V41.583H31.1288Z" fill="#00AC75"/>
<path d="M31.1288 39.8406V41.583H32.8712V39.8406H31.1288Z" fill="#59BE92"/>
<path d="M31.1288 45.0642V46.8066H32.8712V45.0642H31.1288Z" fill="#00AC75"/>
<path d="M48.549 46.8103V48.5527H50.2913V46.8103H48.549Z" fill="#00AC75"/>
<path d="M46.8066 46.8103V48.5527H48.549V46.8103H46.8066Z" fill="#00AC75"/>
<path d="M45.0642 46.8103V48.5527H46.8066V46.8103H45.0642Z" fill="#00AC75"/>
<path d="M43.3256 46.8142V48.5566H45.068V46.8142H43.3256Z" fill="#00AC75"/>
<path d="M41.5833 46.8142V48.5566H43.3256V46.8142H41.5833Z" fill="#00AC75"/>
<path d="M39.8408 46.8142V48.5566H41.5832V46.8142H39.8408Z" fill="#00AC75"/>
<path d="M38.0984 46.8142V48.5566H39.8408V46.8142H38.0984Z" fill="#00AC75"/>
<path d="M36.356 46.8142V48.5566H38.0984V46.8142H36.356Z" fill="#00AC75"/>
<path d="M34.6136 46.8142V48.5566H36.356V46.8142H34.6136Z" fill="#00AC75"/>
<path d="M32.8712 46.8103V48.5527H34.6136V46.8103H32.8712Z" fill="#00AC75"/>
<path d="M31.1288 46.8103V48.5527H32.8712V46.8103H31.1288Z" fill="#00AC75"/>
<path d="M48.549 48.5567V50.2991H50.2913V48.5567H48.549Z" fill="#00AC75"/>
<path d="M46.8066 48.5567V50.2991H48.549V48.5567H46.8066Z" fill="#00AC75"/>
<path d="M45.0642 48.5567V50.2991H46.8066V48.5567H45.0642Z" fill="#00AC75"/>
<path d="M43.3219 48.5567V50.2991H45.0643V48.5567H43.3219Z" fill="#00AC75"/>
<path d="M41.5795 48.5567V50.2991H43.3219V48.5567H41.5795Z" fill="#00AC75"/>
<path d="M39.837 48.5567V50.2991H41.5794V48.5567H39.837Z" fill="#00AC75"/>
<path d="M38.0946 48.5567V50.2991H39.837V48.5567H38.0946Z" fill="#00AC75"/>
<path d="M36.3522 48.5567V50.2991H38.0946V48.5567H36.3522Z" fill="#00AC75"/>
<path d="M34.6099 48.5603V50.3027H36.3523V48.5603H34.6099Z" fill="#00AC75"/>
<path d="M32.8674 48.5567V50.2991H34.6098V48.5567H32.8674Z" fill="#00AC75"/>
<path d="M45.0642 50.2952V52.0376H46.8066V50.2952H45.0642Z" fill="#0DAE89"/>
<path d="M43.3219 50.2952V52.0376H45.0643V50.2952H43.3219Z" fill="#0DAE89"/>
<path d="M41.5833 50.2952V52.0376H43.3256V50.2952H41.5833Z" fill="#0DAE89"/>
<path d="M39.8408 50.2952V52.0376H41.5832V50.2952H39.8408Z" fill="#0DAE89"/>
<path d="M38.0984 50.2952V52.0376H39.8408V50.2952H38.0984Z" fill="#0DAE89"/>
<path d="M36.356 50.2952V52.0376H38.0983V50.2952H36.356Z" fill="#0DAE89"/>
<path d="M45.0642 52.0376V53.78H46.8066V52.0376H45.0642Z" fill="#00AC75"/>
<path d="M43.3219 52.0376V53.78H45.0643V52.0376H43.3219Z" fill="#00AC75"/>
<path d="M41.5795 52.0376V53.78H43.3219V52.0376H41.5795Z" fill="#00AC75"/>
<path d="M39.837 52.0376V53.78H41.5794V52.0376H39.837Z" fill="#00AC75"/>
<path d="M38.0946 52.0415V53.7839H39.837V52.0415H38.0946Z" fill="#00AC75"/>
<path d="M36.3522 52.0415V53.7839H38.0946V52.0415H36.3522Z" fill="#00AC75"/>
<path d="M34.6136 50.2952V52.0376H36.356V50.2952H34.6136Z" fill="#0DAE89"/>
<path d="M32.8712 50.2915V52.0339H34.6136V50.2915H32.8712Z" fill="#0DAE89"/>
<path d="M31.125 48.5567V50.2991H32.8674V48.5567H31.125Z" fill="#00AC75"/>
<path d="M29.3864 43.3255V45.0679H31.1287V43.3255H29.3864Z" fill="#00AC75"/>
<path d="M29.3864 41.583V43.3254H31.1287V41.583H29.3864Z" fill="#00AC75"/>
<path d="M29.3864 39.8406V41.583H31.1287V39.8406H29.3864Z" fill="#59BE92"/>
<path d="M34.6099 38.1021V39.8445H36.3523V38.1021H34.6099Z" fill="#59BE92"/>
<path d="M32.8674 38.0982V39.8406H34.6098V38.0982H32.8674Z" fill="#59BE92"/>
<path d="M31.125 38.0982V39.8406H32.8674V38.0982H31.125Z" fill="#59BE92"/>
<path d="M29.3864 38.0982V39.8406H31.1287V38.0982H29.3864Z" fill="#59BE92"/>
<path d="M27.644 39.8406V41.583H29.3864V39.8406H27.644Z" fill="#59BE92"/>
<path d="M25.9016 39.8406V41.583H27.644V39.8406H25.9016Z" fill="#59BE92"/>
<path d="M27.644 38.0982V39.8406H29.3864V38.0982H27.644Z" fill="#59BE92"/>
<path d="M25.9016 38.0982V39.8406H27.644V38.0982H25.9016Z" fill="#59BE92"/>
<path d="M32.8712 36.356V38.0984H34.6136V36.356H32.8712Z" fill="#59BE92"/>
<path d="M34.6099 36.3599V38.1023H36.3523V36.3599H34.6099Z" fill="#59BE92"/>
<path d="M31.1288 36.356V38.0984H32.8712V36.356H31.1288Z" fill="#59BE92"/>
<path d="M29.3864 36.3599V38.1023H31.1287V36.3599H29.3864Z" fill="#59BE92"/>
<path d="M27.644 36.3599V38.1023H29.3864V36.3599H27.644Z" fill="#59BE92"/>
<path d="M25.9016 36.3599V38.1023H27.644V36.3599H25.9016Z" fill="#59BE92"/>
<path d="M24.1592 39.8406V41.583H25.9016V39.8406H24.1592Z" fill="#59BE92"/>
<path d="M24.1592 38.0982V39.8406H25.9016V38.0982H24.1592Z" fill="#59BE92"/>
<path d="M24.1592 36.356V38.0984H25.9016V36.356H24.1592Z" fill="#59BE92"/>
<path d="M22.4167 36.356V38.0984H24.1591V36.356H22.4167Z" fill="#59BE92"/>
<path d="M24.1592 34.6136V36.356H25.9016V34.6136H24.1592Z" fill="#59BE92"/>
<path d="M22.4167 34.6136V36.356H24.1591V34.6136H22.4167Z" fill="#59BE92"/>
<path d="M48.549 34.6136V36.356H50.2913V34.6136H48.549Z" fill="#32B686"/>
<path d="M48.5452 32.8711V34.6135H50.2876V32.8711H48.5452Z" fill="#32B686"/>
<path d="M46.8066 34.6136V36.356H48.549V34.6136H46.8066Z" fill="#59BE92"/>
<path d="M46.8066 32.8711V34.6135H48.549V32.8711H46.8066Z" fill="#59BE92"/>
<path d="M45.0642 34.6136V36.356H46.8066V34.6136H45.0642Z" fill="#59BE92"/>
<path d="M45.0642 32.8711V34.6135H46.8066V32.8711H45.0642Z" fill="#32B686"/>
<path d="M43.3219 34.6136V36.356H45.0643V34.6136H43.3219Z" fill="#59BE92"/>
<path d="M43.3219 32.8711V34.6135H45.0643V32.8711H43.3219Z" fill="#59BE92"/>
<path d="M41.5795 34.6136V36.356H43.3219V34.6136H41.5795Z" fill="#59BE92"/>
<path d="M41.5795 32.8711V34.6135H43.3219V32.8711H41.5795Z" fill="#59BE92"/>
<path d="M48.549 31.1326V32.875H50.2913V31.1326H48.549Z" fill="#32B686"/>
<path d="M46.8066 31.1326V32.875H48.549V31.1326H46.8066Z" fill="#59BE92"/>
<path d="M45.0642 31.1326V32.875H46.8066V31.1326H45.0642Z" fill="#59BE92"/>
<path d="M43.3219 31.1326V32.875H45.0643V31.1326H43.3219Z" fill="#59BE92"/>
<path d="M41.5795 31.1326V32.875H43.3219V31.1326H41.5795Z" fill="#59BE92"/>
<path d="M45.0642 29.3902V31.1326H46.8066V29.3902H45.0642Z" fill="#59BE92"/>
<path d="M43.3219 29.3902V31.1326H45.0643V29.3902H43.3219Z" fill="#59BE92"/>
<path d="M41.5795 29.3902V31.1326H43.3219V29.3902H41.5795Z" fill="#59BE92"/>
<path d="M39.837 34.6136V36.356H41.5794V34.6136H39.837Z" fill="#59BE92"/>
<path d="M39.837 32.875V34.6174H41.5794V32.875H39.837Z" fill="#59BE92"/>
<path d="M38.0946 34.6175V36.3599H39.837V34.6175H38.0946Z" fill="#59BE92"/>
<path d="M38.0946 32.875V34.6174H39.837V32.875H38.0946Z" fill="#59BE92"/>
<path d="M36.3522 34.6175V36.3599H38.0946V34.6175H36.3522Z" fill="#59BE92"/>
<path d="M34.6136 34.6175V36.3599H36.356V34.6175H34.6136Z" fill="#59BE92"/>
<path d="M32.8674 34.6136V36.356H34.6098V34.6136H32.8674Z" fill="#59BE92"/>
<path d="M31.125 34.6136V36.356H32.8674V34.6136H31.125Z" fill="#59BE92"/>
<path d="M36.3522 32.875V34.6174H38.0946V32.875H36.3522Z" fill="#59BE92"/>
<path d="M34.6099 32.875V34.6174H36.3523V32.875H34.6099Z" fill="#59BE92"/>
<path d="M32.8712 32.8711V34.6135H34.6136V32.8711H32.8712Z" fill="#59BE92"/>
<path d="M31.125 32.8711V34.6135H32.8674V32.8711H31.125Z" fill="#59BE92"/>
<path d="M29.3826 34.6136V36.356H31.125V34.6136H29.3826Z" fill="#59BE92"/>
<path d="M27.6403 34.6136V36.356H29.3827V34.6136H27.6403Z" fill="#59BE92"/>
<path d="M29.3826 32.8711V34.6135H31.125V32.8711H29.3826Z" fill="#59BE92"/>
<path d="M27.6403 32.8711V34.6135H29.3827V32.8711H27.6403Z" fill="#59BE92"/>
<path d="M25.9016 34.6136V36.356H27.644V34.6136H25.9016Z" fill="#59BE92"/>
<path d="M25.8978 32.8711V34.6135H27.6402V32.8711H25.8978Z" fill="#59BE92"/>
<path d="M39.837 31.1326V32.875H41.5794V31.1326H39.837Z" fill="#59BE92"/>
<path d="M39.837 29.3902V31.1326H41.5794V29.3902H39.837Z" fill="#59BE92"/>
<path d="M38.0946 31.1326V32.875H39.837V31.1326H38.0946Z" fill="#59BE92"/>
<path d="M38.0946 29.3902V31.1326H39.837V29.3902H38.0946Z" fill="#59BE92"/>
<path d="M36.3522 31.1326V32.875H38.0946V31.1326H36.3522Z" fill="#59BE92"/>
<path d="M36.3522 29.3941V31.1365H38.0946V29.3941H36.3522Z" fill="#59BE92"/>
<path d="M34.6099 31.1365V32.8789H36.3523V31.1365H34.6099Z" fill="#59BE92"/>
<path d="M34.6099 29.3941V31.1365H36.3523V29.3941H34.6099Z" fill="#59BE92"/>
<path d="M32.8674 31.1326V32.875H34.6098V31.1326H32.8674Z" fill="#59BE92"/>
<path d="M32.8674 29.3902V31.1326H34.6098V29.3902H32.8674Z" fill="#59BE92"/>
<path d="M31.125 31.1326V32.875H32.8674V31.1326H31.125Z" fill="#59BE92"/>
<path d="M31.125 29.3902V31.1326H32.8674V29.3902H31.125Z" fill="#59BE92"/>
<path d="M29.3826 31.1326V32.875H31.125V31.1326H29.3826Z" fill="#59BE92"/>
<path d="M29.3826 29.3902V31.1326H31.125V29.3902H29.3826Z" fill="#59BE92"/>
<path d="M27.644 31.1326V32.875H29.3864V31.1326H27.644Z" fill="#59BE92"/>
<path d="M25.9016 31.1326V32.875H27.644V31.1326H25.9016Z" fill="#59BE92"/>
<path d="M24.1592 31.1326V32.875H25.9016V31.1326H24.1592Z" fill="#59BE92"/>
<path d="M22.4167 31.1326V32.875H24.1591V31.1326H22.4167Z" fill="#59BE92"/>
<path d="M27.6403 29.3902V31.1326H29.3827V29.3902H27.6403Z" fill="#59BE92"/>
<path d="M25.9016 29.3902V31.1326H27.644V29.3902H25.9016Z" fill="#59BE92"/>
<path d="M24.1592 29.3902V31.1326H25.9016V29.3902H24.1592Z" fill="#59BE92"/>
<path d="M22.4167 29.3902V31.1326H24.1591V29.3902H22.4167Z" fill="#59BE92"/>
<path d="M20.6743 31.1326V32.875H22.4167V31.1326H20.6743Z" fill="#59BE92"/>
<path d="M18.932 31.1326V32.875H20.6744V31.1326H18.932Z" fill="#59BE92"/>
<path d="M20.6743 29.3902V31.1326H22.4167V29.3902H20.6743Z" fill="#59BE92"/>
<path d="M18.932 29.3902V31.1326H20.6744V29.3902H18.932Z" fill="#59BE92"/>
<path d="M17.1896 31.1326V32.875H18.932V31.1326H17.1896Z" fill="#59BE92"/>
<path d="M24.1592 32.8711V34.6135H25.9016V32.8711H24.1592Z" fill="#59BE92"/>
<path d="M22.4167 32.8711V34.6135H24.1591V32.8711H22.4167Z" fill="#59BE92"/>
<path d="M20.6743 32.8711V34.6135H22.4167V32.8711H20.6743Z" fill="#59BE92"/>
<path d="M18.932 32.8711V34.6135H20.6744V32.8711H18.932Z" fill="#59BE92"/>
<path d="M17.1896 32.8711V34.6135H18.932V32.8711H17.1896Z" fill="#59BE92"/>
<path d="M15.4473 32.875V34.6174H17.1897V32.875H15.4473Z" fill="#59BE92"/>
<path d="M13.7048 32.875V34.6174H15.4472V32.875H13.7048Z" fill="#59BE92"/>
<path d="M11.9625 32.875V34.6174H13.7049V32.875H11.9625Z" fill="#32B686"/>
<path d="M10.2201 32.8711V34.6135H11.9625V32.8711H10.2201Z" fill="#32B686"/>
<path d="M10.2201 31.1326V32.875H11.9625V31.1326H10.2201Z" fill="#32B686"/>
<path d="M10.2201 29.3902V31.1326H11.9625V29.3902H10.2201Z" fill="#32B686"/>
<path d="M8.47766 32.8711V34.6135H10.2201V32.8711H8.47766Z" fill="#32B686"/>
<path d="M17.1896 29.3902V31.1326H18.932V29.3902H17.1896Z" fill="#59BE92"/>
<path d="M15.4473 31.1326V32.875H17.1897V31.1326H15.4473Z" fill="#59BE92"/>
<path d="M13.7048 31.1326V32.875H15.4472V31.1326H13.7048Z" fill="#59BE92"/>
<path d="M15.4473 29.3902V31.1326H17.1897V29.3902H15.4473Z" fill="#59BE92"/>
<path d="M13.7048 29.3941V31.1365H15.4472V29.3941H13.7048Z" fill="#59BE92"/>
<path d="M11.9625 31.1365V32.8789H13.7049V31.1365H11.9625Z" fill="#32B686"/>
<path d="M11.9625 29.3941V31.1365H13.7049V29.3941H11.9625Z" fill="#32B686"/>
<path d="M29.3864 45.0642V46.8066H31.1287V45.0642H29.3864Z" fill="#00AC75"/>
<path d="M25.9016 43.3255V45.0679H27.644V43.3255H25.9016Z" fill="#00AC75"/>
<path d="M25.9016 41.583V43.3254H27.644V41.583H25.9016Z" fill="#00AC75"/>
<path d="M25.9016 45.0679V46.8103H27.644V45.0679H25.9016Z" fill="#00AC75"/>
<path d="M24.1592 43.3255V45.0679H25.9016V43.3255H24.1592Z" fill="#00AC75"/>
<path d="M24.1592 41.583V43.3254H25.9016V41.583H24.1592Z" fill="#00AC75"/>
<path d="M24.1592 45.0679V46.8103H25.9016V45.0679H24.1592Z" fill="#00AC75"/>
<path d="M24.1592 46.8103V48.5527H25.9016V46.8103H24.1592Z" fill="#00AC75"/>
<path d="M24.1592 48.5567V50.2991H25.9016V48.5567H24.1592Z" fill="#00AC75"/>
<path d="M22.4167 50.2952V52.0376H24.1591V50.2952H22.4167Z" fill="#00AC75"/>
<path d="M20.6743 50.2952V52.0376H22.4167V50.2952H20.6743Z" fill="#00AC75"/>
<path d="M22.4167 43.3255V45.0679H24.1591V43.3255H22.4167Z" fill="#32B686"/>
<path d="M22.4167 41.583V43.3254H24.1591V41.583H22.4167Z" fill="#32B686"/>
<path d="M22.4167 45.0679V46.8103H24.1591V45.0679H22.4167Z" fill="#32B686"/>
<path d="M20.6743 43.3255V45.0679H22.4167V43.3255H20.6743Z" fill="#59BE92"/>
<path d="M20.6743 41.583V43.3254H22.4167V41.583H20.6743Z" fill="#59BE92"/>
<path d="M20.6743 45.0679V46.8103H22.4167V45.0679H20.6743Z" fill="#32B686"/>
<path d="M18.932 43.3255V45.0679H20.6744V43.3255H18.932Z" fill="#32B686"/>
<path d="M18.932 41.583V43.3254H20.6744V41.583H18.932Z" fill="#59BE92"/>
<path d="M18.932 45.0679V46.8103H20.6744V45.0679H18.932Z" fill="#32B686"/>
<path d="M17.1896 43.3255V45.0679H18.932V43.3255H17.1896Z" fill="#59BE92"/>
<path d="M17.1896 41.583V43.3254H18.932V41.583H17.1896Z" fill="#32B686"/>
<path d="M17.1896 45.0679V46.8103H18.932V45.0679H17.1896Z" fill="#32B686"/>
<path d="M15.4473 43.3255V45.0679H17.1897V43.3255H15.4473Z" fill="#59BE92"/>
<path d="M15.4473 41.583V43.3254H17.1897V41.583H15.4473Z" fill="#59BE92"/>
<path d="M15.4473 45.0679V46.8103H17.1897V45.0679H15.4473Z" fill="#32B686"/>
<path d="M13.7048 43.3255V45.0679H15.4472V43.3255H13.7048Z" fill="#32B686"/>
<path d="M13.7048 41.583V43.3254H15.4472V41.583H13.7048Z" fill="#32B686"/>
<path d="M13.7086 45.0679V46.8103H15.451V45.0679H13.7086Z" fill="#32B686"/>
<path d="M11.9663 43.3255V45.0679H13.7087V43.3255H11.9663Z" fill="#32B686"/>
<path d="M11.9625 41.583V43.3254H13.7049V41.583H11.9625Z" fill="#32B686"/>
<path d="M11.9663 45.0679V46.8103H13.7087V45.0679H11.9663Z" fill="#32B686"/>
<path d="M10.2239 43.3218V45.0642H11.9663V43.3218H10.2239Z" fill="#32B686"/>
<path d="M10.2239 41.5794V43.3218H11.9663V41.5794H10.2239Z" fill="#32B686"/>
<path d="M10.2239 45.0642V46.8066H11.9663V45.0642H10.2239Z" fill="#32B686"/>
<path d="M8.48145 43.3218V45.0642H10.2238V43.3218H8.48145Z" fill="#32B686"/>
<path d="M8.48145 41.583V43.3254H10.2238V41.583H8.48145Z" fill="#32B686"/>
<path d="M8.48145 45.0642V46.8066H10.2238V45.0642H8.48145Z" fill="#32B686"/>
<path d="M6.73901 43.3255V45.0679H8.48141V43.3255H6.73901Z" fill="#00AC75"/>
<path d="M6.73901 41.583V43.3254H8.48141V41.583H6.73901Z" fill="#00AC75"/>
<path d="M6.73901 45.0642V46.8066H8.48141V45.0642H6.73901Z" fill="#00AC75"/>
<path d="M4.99658 43.3255V45.0679H6.73898V43.3255H4.99658Z" fill="#00AC75"/>
<path d="M4.99658 41.583V43.3254H6.73898V41.583H4.99658Z" fill="#00AC75"/>
<path d="M4.99658 45.0679V46.8103H6.73898V45.0679H4.99658Z" fill="#00AC75"/>
<path d="M22.4205 46.8103V48.5527H24.1629V46.8103H22.4205Z" fill="#00AC75"/>
<path d="M20.6781 46.8142V48.5566H22.4205V46.8142H20.6781Z" fill="#00AC75"/>
<path d="M18.9358 46.8142V48.5566H20.6782V46.8142H18.9358Z" fill="#00AC75"/>
<path d="M17.1934 46.8142V48.5566H18.9358V46.8142H17.1934Z" fill="#00AC75"/>
<path d="M15.451 46.8142V48.5566H17.1934V46.8142H15.451Z" fill="#00AC75"/>
<path d="M13.7086 46.8142V48.5566H15.451V46.8142H13.7086Z" fill="#00AC75"/>
<path d="M11.9663 46.8142V48.5566H13.7087V46.8142H11.9663Z" fill="#00AC75"/>
<path d="M10.2239 46.8103V48.5527H11.9663V46.8103H10.2239Z" fill="#00AC75"/>
<path d="M8.48145 46.8103V48.5527H10.2238V46.8103H8.48145Z" fill="#00AC75"/>
<path d="M6.73901 46.8103V48.5527H8.48141V46.8103H6.73901Z" fill="#00AC75"/>
<path d="M4.99658 46.8103V48.5527H6.73898V46.8103H4.99658Z" fill="#00AC75"/>
<path d="M22.4167 48.5567V50.2991H24.1591V48.5567H22.4167Z" fill="#00AC75"/>
<path d="M20.6743 48.5567V50.2991H22.4167V48.5567H20.6743Z" fill="#00AC75"/>
<path d="M18.932 48.5567V50.2991H20.6744V48.5567H18.932Z" fill="#00AC75"/>
<path d="M17.1896 48.5567V50.2991H18.932V48.5567H17.1896Z" fill="#00AC75"/>
<path d="M15.4473 48.5567V50.2991H17.1897V48.5567H15.4473Z" fill="#00AC75"/>
<path d="M11.9625 48.5603V50.3027H13.7049V48.5603H11.9625Z" fill="#00AC75"/>
<path d="M13.7048 48.5567V50.2991H15.4472V48.5567H13.7048Z" fill="#00AC75"/>
<path d="M10.2201 48.5567V50.2991H11.9625V48.5567H10.2201Z" fill="#00AC75"/>
<path d="M8.47766 48.5567V50.2991H10.2201V48.5567H8.47766Z" fill="#00AC75"/>
<path d="M6.73901 48.5567V50.2991H8.48141V48.5567H6.73901Z" fill="#00AC75"/>
<path d="M18.9358 50.2952V52.0376H20.6782V50.2952H18.9358Z" fill="#00AC75"/>
<path d="M17.1934 50.2952V52.0376H18.9358V50.2952H17.1934Z" fill="#00AC75"/>
<path d="M15.451 50.2952V52.0376H17.1934V50.2952H15.451Z" fill="#00AC75"/>
<path d="M13.7086 50.2952V52.0376H15.451V50.2952H13.7086Z" fill="#00AC75"/>
<path d="M11.9663 50.2952V52.0376H13.7087V50.2952H11.9663Z" fill="#00AC75"/>
<path d="M10.2239 50.2915V52.0339H11.9663V50.2915H10.2239Z" fill="#00AC75"/>
<path d="M18.932 52.0376V53.78H20.6744V52.0376H18.932Z" fill="#0DAE89"/>
<path d="M17.1896 52.0376V53.78H18.932V52.0376H17.1896Z" fill="#0DAE89"/>
<path d="M15.4473 52.0415V53.7839H17.1897V52.0415H15.4473Z" fill="#0DAE89"/>
<path d="M13.7048 52.0415V53.7839H15.4472V52.0415H13.7048Z" fill="#0DAE89"/>
<path d="M11.9625 52.0415V53.7839H13.7049V52.0415H11.9625Z" fill="#0DAE89"/>
<path d="M10.2201 52.0376V53.78H11.9625V52.0376H10.2201Z" fill="#0DAE89"/>
<path d="M8.48145 50.2915V52.0339H10.2238V50.2915H8.48145Z" fill="#00AC75"/>
<path d="M6.73901 50.2915V52.0339H8.4814V50.2915H6.73901Z" fill="#00AC75"/>
<path d="M4.99658 48.5567V50.2991H6.73898V48.5567H4.99658Z" fill="#00AC75"/>
<path d="M3.25427 43.3255V45.0679H4.99667V43.3255H3.25427Z" fill="#00AC75"/>
<path d="M3.25427 41.583V43.3254H4.99667V41.583H3.25427Z" fill="#00AC75"/>
<path d="M22.4167 39.8406V41.583H24.1591V39.8406H22.4167Z" fill="#59BE92"/>
<path d="M22.4167 38.0982V39.8406H24.1591V38.0982H22.4167Z" fill="#59BE92"/>
<path d="M20.6743 39.8406V41.583H22.4167V39.8406H20.6743Z" fill="#59BE92"/>
<path d="M20.6743 38.0982V39.8406H22.4167V38.0982H20.6743Z" fill="#59BE92"/>
<path d="M18.932 39.8406V41.583H20.6744V39.8406H18.932Z" fill="#59BE92"/>
<path d="M18.932 38.0982V39.8406H20.6744V38.0982H18.932Z" fill="#59BE92"/>
<path d="M17.1896 39.8406V41.583H18.932V39.8406H17.1896Z" fill="#59BE92"/>
<path d="M17.1896 38.0982V39.8406H18.932V38.0982H17.1896Z" fill="#59BE92"/>
<path d="M15.4473 39.8406V41.583H17.1897V39.8406H15.4473Z" fill="#59BE92"/>
<path d="M15.4473 38.0982V39.8406H17.1897V38.0982H15.4473Z" fill="#59BE92"/>
<path d="M13.7048 39.8406V41.583H15.4472V39.8406H13.7048Z" fill="#59BE92"/>
<path d="M13.7048 38.0982V39.8406H15.4472V38.0982H13.7048Z" fill="#59BE92"/>
<path d="M11.9625 39.8406V41.583H13.7049V39.8406H11.9625Z" fill="#32B686"/>
<path d="M11.9625 38.1021V39.8445H13.7049V38.1021H11.9625Z" fill="#32B686"/>
<path d="M10.2201 39.8406V41.583H11.9625V39.8406H10.2201Z" fill="#32B686"/>
<path d="M10.2201 38.0982V39.8406H11.9625V38.0982H10.2201Z" fill="#32B686"/>
<path d="M8.48145 39.8406V41.583H10.2238V39.8406H8.48145Z" fill="#32B686"/>
<path d="M8.47766 38.0982V39.8406H10.2201V38.0982H8.47766Z" fill="#32B686"/>
<path d="M6.73901 39.8406V41.583H8.48141V39.8406H6.73901Z" fill="#00AC75"/>
<path d="M6.73901 38.0982V39.8406H8.48141V38.0982H6.73901Z" fill="#00AC75"/>
<path d="M4.99658 39.8406V41.583H6.73898V39.8406H4.99658Z" fill="#00AC75"/>
<path d="M4.99658 38.0982V39.8406H6.73898V38.0982H4.99658Z" fill="#00AC75"/>
<path d="M3.25427 39.8406V41.583H4.99667V39.8406H3.25427Z" fill="#00AC75"/>
<path d="M3.25427 38.0982V39.8406H4.99667V38.0982H3.25427Z" fill="#00AC75"/>
<path d="M20.6743 36.356V38.0984H22.4167V36.356H20.6743Z" fill="#59BE92"/>
<path d="M18.932 36.356V38.0984H20.6744V36.356H18.932Z" fill="#59BE92"/>
<path d="M17.1896 36.356V38.0984H18.932V36.356H17.1896Z" fill="#59BE92"/>
<path d="M15.4473 36.356V38.0984H17.1897V36.356H15.4473Z" fill="#59BE92"/>
<path d="M13.7048 36.3599V38.1023H15.4472V36.3599H13.7048Z" fill="#59BE92"/>
<path d="M11.9625 36.3599V38.1023H13.7049V36.3599H11.9625Z" fill="#32B686"/>
<path d="M10.2201 36.356V38.0984H11.9625V36.356H10.2201Z" fill="#32B686"/>
<path d="M8.47766 36.356V38.0984H10.2201V36.356H8.47766Z" fill="#32B686"/>
<path d="M6.73523 36.356V38.0984H8.47763V36.356H6.73523Z" fill="#00AC75"/>
<path d="M4.99658 36.356V38.0984H6.73898V36.356H4.99658Z" fill="#00AC75"/>
<path d="M20.6743 34.6136V36.356H22.4167V34.6136H20.6743Z" fill="#59BE92"/>
<path d="M18.932 34.6136V36.356H20.6744V34.6136H18.932Z" fill="#59BE92"/>
<path d="M17.1896 34.6136V36.356H18.932V34.6136H17.1896Z" fill="#59BE92"/>
<path d="M15.4473 34.6175V36.3599H17.1897V34.6175H15.4473Z" fill="#59BE92"/>
<path d="M13.7048 34.6175V36.3599H15.4472V34.6175H13.7048Z" fill="#59BE92"/>
<path d="M11.9625 34.6175V36.3599H13.7049V34.6175H11.9625Z" fill="#32B686"/>
<path d="M10.2201 34.6136V36.356H11.9625V34.6136H10.2201Z" fill="#32B686"/>
<path d="M8.47766 34.6136V36.356H10.2201V34.6136H8.47766Z" fill="#32B686"/>
<path d="M6.73523 34.6136V36.356H8.47763V34.6136H6.73523Z" fill="#00AC75"/>
<path d="M4.99292 34.6136V36.356H6.73532V34.6136H4.99292Z" fill="#00AC75"/>
<path d="M6.73901 32.875V34.6174H8.48141V32.875H6.73901Z" fill="#00AC75"/>
<path d="M8.48145 31.1287V32.8711H10.2238V31.1287H8.48145Z" fill="#32B686"/>
<path d="M6.73901 31.1326V32.875H8.48141V31.1326H6.73901Z" fill="#00AC75"/>
<path d="M4.99658 32.875V34.6174H6.73898V32.875H4.99658Z" fill="#00AC75"/>
<path d="M3.25427 36.356V38.0984H4.99667V36.356H3.25427Z" fill="#00AC75"/>
<path d="M3.25427 45.0679V46.8103H4.99667V45.0679H3.25427Z" fill="#00AC75"/>
<path d="M29.3864 31.1289V29.3865H27.644V31.1289H29.3864Z" fill="#59BE92"/>
<path d="M39.8408 31.125V29.3826H38.0984V31.125H39.8408Z" fill="#F9D0E2"/>
<path d="M38.0946 32.8635V31.1211H36.3522V32.8635H38.0946Z" fill="#F7BBD5"/>
<path d="M39.837 32.8674V31.125H38.0946V32.8674H39.837Z" fill="#F7BBD5"/>
<path d="M41.5793 32.8674V31.125H39.8369V32.8674H41.5793Z" fill="#F7BBD5"/>
<path d="M38.0946 31.125V29.3826H36.3522V31.125H38.0946Z" fill="#F9D0E2"/>
<path d="M41.5793 31.125V29.3826H39.8369V31.125H41.5793Z" fill="#F9D0E2"/>
<path d="M18.932 32.8674V31.125H17.1896V32.8674H18.932Z" fill="#F7BBD5"/>
<path d="M20.6743 32.8674V31.125H18.9319V32.8674H20.6743Z" fill="#F7BBD5"/>
<path d="M22.4167 32.8674V31.125H20.6744V32.8674H22.4167Z" fill="#F7BBD5"/>
<path d="M18.932 31.1289V29.3865H17.1896V31.1289H18.932Z" fill="#F9D0E2"/>
<path d="M20.6743 31.1289V29.3865H18.9319V31.1289H20.6743Z" fill="#F9D0E2"/>
<path d="M22.4167 31.1289V29.3865H20.6744V31.1289H22.4167Z" fill="#F9D0E2"/>
<path d="M24.1592 27.644V25.9016H22.4168V27.644H24.1592Z" fill="#184742"/>
<path d="M25.9016 29.3901V27.6477H24.1592V29.3901H25.9016Z" fill="white"/>
<path d="M25.9016 27.644V25.9016H24.1592V27.644H25.9016Z" fill="#184742"/>
<path d="M24.1592 29.3867V27.6443H22.4168V29.3867H24.1592Z" fill="#184742"/>
<path d="M34.6099 27.644V25.9016H32.8675V27.644H34.6099Z" fill="#184742"/>
<path d="M36.3522 29.3867V27.6443H34.6098V29.3867H36.3522Z" fill="white"/>
<path d="M34.6099 29.3867V27.6443H32.8675V29.3867H34.6099Z" fill="#184742"/>
<path d="M36.3522 27.644V25.9016H34.6098V27.644H36.3522Z" fill="#184742"/>
<path d="M25.9016 32.8674V31.125H24.1592V32.8674H25.9016Z" fill="#184742"/>
<path d="M27.6439 34.6098V32.8674H25.9015V34.6098H27.6439Z" fill="#184742"/>
<path d="M29.3864 34.6098V32.8674H27.644V34.6098H29.3864Z" fill="#184742"/>
<path d="M34.6136 32.8674V31.125H32.8713V32.8674H34.6136Z" fill="#184742"/>
<path d="M32.8712 34.6098V32.8674H31.1288V34.6098H32.8712Z" fill="#184742"/>
<path d="M31.1288 34.6098V32.8674H29.3864V34.6098H31.1288Z" fill="#184742"/>
<path d="M22.1862 55.5186H17.4957V59.2339H15.6777V64H22.1862V59.2339V55.5186Z" fill="#184742"/>
<path d="M20.6743 62.4882V60.7458H18.9319V62.4882H20.6743Z" fill="#008459"/>
<path d="M18.932 62.4882V60.7458H17.1896V62.4882H18.932Z" fill="#008459"/>
<path d="M20.6743 60.7458V59.0034H18.9319V60.7458H20.6743Z" fill="#008459"/>
<path d="M20.6743 59.0034V57.261H18.9319V59.0034H20.6743Z" fill="#008459"/>
<path d="M20.6781 57.261V55.5186H18.9357V57.261H20.6781Z" fill="#008459"/>
<path d="M41.3489 55.5186H36.6584V59.2339H34.8405V64H41.3489V59.2339V55.5186Z" fill="#184742"/>
<path d="M39.837 62.4882V60.7458H38.0946V62.4882H39.837Z" fill="#008459"/>
<path d="M38.0984 62.4882V60.7458H36.356V62.4882H38.0984Z" fill="#008459"/>
<path d="M39.8408 60.7458V59.0034H38.0984V60.7458H39.8408Z" fill="#008459"/>
<path d="M39.8408 59.0034V57.261H38.0984V59.0034H39.8408Z" fill="#008459"/>
<path d="M39.8408 57.261V55.5186H38.0984V57.261H39.8408Z" fill="#008459"/>
<path d="M6.97339 31.1968L8.24711 30.01L9.43391 31.28L10.6245 32.5537L11.8151 33.8274L13.0019 35.1011L14.1924 36.3749L15.4662 35.1843L16.6529 36.458L15.3792 37.6486L14.1093 38.8354L12.9187 37.5617L11.7281 36.2917L10.5413 35.018L9.35076 33.7443L8.16018 32.4705L6.97339 31.1968Z" fill="#184742"/>
<path d="M4.83411 31.1251L14.0337 40.9747L18.7922 36.5299L15.5379 33.0489L14.2642 34.2357L8.3189 27.8708L4.83411 31.1251Z" fill="#184742"/>
<path d="M13.0045 35.1004L11.8151 33.8271L10.5418 35.0166L11.7312 36.2898L13.0045 35.1004Z" fill="#008459"/>
<path d="M11.8149 33.8258L10.6255 32.5525L9.35222 33.7419L10.5416 35.0152L11.8149 33.8258Z" fill="#008459"/>
<path d="M10.625 32.5567L9.43555 31.2834L8.16228 32.4729L9.3517 33.7461L10.625 32.5567Z" fill="#008459"/>
<path d="M9.43527 31.2821L8.24585 30.0088L6.97258 31.1982L8.162 32.4715L9.43527 31.2821Z" fill="#008459"/>
<path d="M14.1942 36.3751L13.0048 35.1018L11.7315 36.2912L12.9209 37.5645L14.1942 36.3751Z" fill="#008459"/>
<path d="M15.3813 37.6471L14.1919 36.3738L12.9186 37.5632L14.108 38.8365L15.3813 37.6471Z" fill="#008459"/>
<path d="M16.656 36.4574L15.4666 35.1841L14.1933 36.3735L15.3827 37.6468L16.656 36.4574Z" fill="#008459"/>
<path d="M29.9646 49.0403L32.856 51.4328L33.3814 50.7978L36.2199 53.145L36.7188 52.5402L39.5459 54.876L40.1544 54.139L43.0269 56.5164L43.6959 55.7038L46.5684 58.0811L49.2103 54.8874L48.564 54.3507L50.6844 51.7843L49.9436 51.172L52.2416 48.394L51.4063 47.7023L53.6287 45.0151L52.9824 44.4783L54.3355 42.8418L51.4857 40.4871L51.1379 40.9066L49.2859 39.3759L49.0705 39.6367L47.0333 37.9472L46.421 38.6842L44.6143 37.1913L44.2061 37.6902L42.2483 36.0725L41.893 36.5034L39.8558 34.8177L39.6442 35.0709L37.7846 33.5288L37.4822 33.8955L35.5433 32.2929L34.7874 33.2076L33.5023 32.1455L30.7545 35.4716L31.4273 36.0272L29.1407 38.7938L29.8852 39.4099L27.6213 42.1463L28.4036 42.7926L26.0641 45.6236L26.733 46.1792L26.0414 47.0182L29.3637 49.766L29.9646 49.0403Z" fill="#184742"/>
<path d="M42.868 54.855L52.6642 43.0093L51.6448 42.1662L41.8486 54.012L42.868 54.855Z" fill="#F7F8F2"/>
<path d="M41.848 54.0063L50.9288 43.0256L49.9094 42.1826L40.8286 53.1633L41.848 54.0063Z" fill="#F7F8F2"/>
<path d="M39.3861 53.2102L48.5729 42.1013L47.5534 41.2583L38.3667 52.3671L39.3861 53.2102Z" fill="#F7F8F2"/>
<path d="M37.3496 51.5215L46.322 40.6719L45.3026 39.8288L36.3302 50.6785L37.3496 51.5215Z" fill="#F7F8F2"/>
<path d="M35.0415 50.639L44.0067 39.7981L42.9873 38.9551L34.0221 49.7959L35.0415 50.639Z" fill="#F7F8F2"/>
<path d="M37.6868 39.6664L39.4235 37.5664L38.404 36.7234L36.6674 38.8234L37.6868 39.6664Z" fill="#F7F8F2"/>
<path d="M31.0918 43.4841L37.1786 36.1238L36.1592 35.2807L30.0724 42.641L31.0918 43.4841Z" fill="#F7F8F2"/>
<path d="M31.4238 39.1434L35.073 34.7307L34.3128 34.102L30.6636 38.5147L31.4238 39.1434Z" fill="#F7F8F2"/>
<path d="M33.7161 33.6068L32.083 35.5815L32.7325 36.1187L34.3656 34.1439L33.7161 33.6068Z" fill="#F7F8F2"/>
<path d="M41.0154 53.3194L50.4623 41.896L49.4429 41.053L39.9959 52.4764L41.0154 53.3194Z" fill="#F7F8F2"/>
<path d="M38.3708 52.3677L48.2103 40.4695L47.1909 39.6264L37.3514 51.5246L38.3708 52.3677Z" fill="#F7F8F2"/>
<path d="M42.2338 51.1974L43.2551 49.9624L42.5532 49.3819L41.5319 50.6169L42.2338 51.1974Z" fill="#184742"/>
<path d="M36.0579 51.4797L45.9336 39.5378L44.9142 38.6948L35.0385 50.6367L36.0579 51.4797Z" fill="#F7F8F2"/>
<path d="M34.1074 49.8645L43.4291 38.5925L42.4096 37.7495L33.088 49.0215L34.1074 49.8645Z" fill="#F7F8F2"/>
<path d="M39.2988 39.4328L41.0355 37.3328L40.0161 36.4897L38.2794 38.5897L39.2988 39.4328Z" fill="#F7F8F2"/>
<path d="M39.8029 40.8979L41.5396 38.7979L40.5201 37.9548L38.7834 40.0548L39.8029 40.8979Z" fill="#F7F8F2"/>
<path d="M31.4845 45.0844L38.9587 36.0464L37.9393 35.2033L30.4651 44.2413L31.4845 45.0844Z" fill="#F7F8F2"/>
<path d="M32.6967 49.7635L41.4186 39.2168L38.2234 36.5745L29.5015 47.1212L32.6967 49.7635Z" fill="#F7F8F2"/>
<path d="M32.3372 39.9023L36.6174 34.7266L35.5951 33.8811L31.3148 39.0569L32.3372 39.9023Z" fill="#F7F8F2"/>
<path d="M30.3097 42.8367L34.59 37.6609L33.5705 36.8178L29.2903 41.9936L30.3097 42.8367Z" fill="#F7F8F2"/>
<path d="M28.7547 46.3147L33.0349 41.1389L32.0155 40.2959L27.7352 45.4717L28.7547 46.3147Z" fill="#F7F8F2"/>
<path d="M29.2061 48.1021L33.4863 42.9263L31.9921 41.6906L27.7119 46.8664L29.2061 48.1021Z" fill="#F7F8F2"/>
<path d="M46.4111 56.4122L47.5408 55.0461L46.5213 54.2031L45.3917 55.5691L46.4111 56.4122Z" fill="#F7F8F2"/>
<path d="M44.1889 54.5727L51.9594 45.1765L50.9399 44.3335L43.1695 53.7297L44.1889 54.5727Z" fill="#F7F8F2"/>
<path d="M45.0193 55.2669L50.569 48.5562L49.5495 47.7131L43.9999 54.4239L45.0193 55.2669Z" fill="#F7F8F2"/>
<path d="M45.764 55.8781L49.0133 51.949L47.9939 51.1059L44.7445 55.0351L45.764 55.8781Z" fill="#F7F8F2"/>
<path d="M45.1323 43.5397L46.1536 42.3047L45.4516 41.7242L44.4303 42.9592L45.1323 43.5397Z" fill="#184742"/>
<path d="M43.7778 46.5396L45.8011 44.093L45.0992 43.5125L43.0759 45.9592L43.7778 46.5396Z" fill="#184742"/>
<path d="M42.4617 49.5634L44.7812 46.7585L44.0793 46.178L41.7597 48.9829L42.4617 49.5634Z" fill="#184742"/>
<path d="M47.7646 45.3688L48.7859 44.1338L48.0839 43.5533L47.0626 44.7883L47.7646 45.3688Z" fill="#184742"/>
<path d="M44.7151 52.901L46.0736 51.2583L45.3717 50.6778L44.0132 52.3205L44.7151 52.901Z" fill="#184742"/>
<path d="M46.5408 48.2127L48.4341 45.9233L47.7321 45.3428L45.8389 47.6322L46.5408 48.2127Z" fill="#184742"/>
<path d="M45.5564 50.8331L47.3099 48.7126L46.608 48.1321L44.8545 50.2526L45.5564 50.8331Z" fill="#184742"/>
<path d="M20.6403 40.9595L20.886 40.1242L20.0507 39.8748L20.2964 39.0395L19.4611 38.7938L19.7068 37.9585L18.8715 37.7129L19.1171 36.8776L18.2818 36.6319L18.5275 35.7966L17.6922 35.5509L17.9379 34.7156L17.1026 34.47L17.3483 33.6347L16.513 33.3852L16.7587 32.5499L15.9234 32.3042L16.169 31.469L15.3338 31.2233L15.5794 30.388L14.7441 30.1423L14.9898 29.307L13.3192 28.8157L12.8279 30.4863L13.6632 30.7319L13.4175 31.5672L14.2528 31.8129L14.0071 32.6482L14.8424 32.8939L14.5967 33.7292L15.432 33.9748L15.1864 34.8139L16.0216 35.0596L15.776 35.8949L16.6113 36.1405L16.3656 36.9758L17.2009 37.2215L16.9552 38.0568L17.7905 38.3025L17.5448 39.1378L18.3801 39.3834L18.1307 40.2187L18.9697 40.4644L18.7203 41.3035L19.5594 41.5492L19.3099 42.3844L20.3191 42.6793L20.9843 42.8758L21.2299 42.0405L21.4756 41.2052L20.6403 40.9595Z" fill="#184742"/>
<path d="M21.4946 43.8131L18.3726 42.8947L18.6183 42.0594L17.783 41.8137L18.0287 40.9784L17.1934 40.7327L17.4391 39.8974L16.6038 39.6518L16.8495 38.8165L16.0142 38.5708L16.2598 37.7355L15.4245 37.4898L15.6702 36.6545L14.8349 36.4089L15.0806 35.5736L14.2453 35.3279L14.491 34.4926L13.6557 34.2469L13.9014 33.4116L13.0661 33.166L13.3118 32.3307L12.4765 32.085L12.7221 31.2497L11.8868 31.004L12.8053 27.8821L15.9272 28.8005L15.6816 29.6358L16.5169 29.8815L16.2712 30.7168L17.1065 30.9625L16.8608 31.7977L17.6961 32.0434L17.4504 32.8787L18.2857 33.1244L18.04 33.9597L18.8753 34.2054L18.6297 35.0406L19.4649 35.2863L19.2193 36.1216L20.0546 36.3673L19.8089 37.2026L20.6442 37.4483L20.3985 38.2835L21.2338 38.5292L20.9881 39.3645L21.8234 39.6102L21.5777 40.4455L22.413 40.6912L21.4946 43.8131ZM20.2511 41.8704L20.4703 41.9346L20.5346 41.7154L20.3154 41.6512L20.2511 41.8704ZM19.6615 40.7894L19.8807 40.8537L19.945 40.6345L19.7257 40.5702L19.6615 40.7894ZM19.0719 39.7085L19.2911 39.7727L19.3553 39.5535L19.1361 39.4892L19.0719 39.7085ZM18.4822 38.6275L18.7015 38.6917L18.7657 38.4725L18.5465 38.4083L18.4822 38.6275ZM17.8926 37.5465L18.1118 37.6108L18.1761 37.3916L17.9569 37.3273L17.8926 37.5465ZM17.303 36.4618L17.5222 36.526L17.5865 36.3068L17.3673 36.2426L17.303 36.4618ZM16.7134 35.3808L16.9326 35.4451L16.9969 35.2258L16.7776 35.1616L16.7134 35.3808ZM16.1238 34.2998L16.343 34.3641L16.4072 34.1449L16.188 34.0806L16.1238 34.2998ZM15.5342 33.2189L15.7534 33.2831L15.8176 33.0639L15.5984 32.9997L15.5342 33.2189ZM14.9445 32.1379L15.1638 32.2022L15.228 31.983L15.0088 31.9187L14.9445 32.1379ZM14.3549 31.0569L14.5741 31.1212L14.6384 30.902L14.4192 30.8377L14.3549 31.0569ZM13.7653 29.9722L13.9845 30.0365L14.0488 29.8172L13.8296 29.753L13.7653 29.9722Z" fill="#184742"/>
<path d="M21.23 42.0405L20.9843 42.8758L20.3191 42.6793" fill="#2C2E1D"/>
<path d="M20.3192 42.6793L19.3101 42.3845L19.8052 40.7139L21.4758 41.2052L21.2301 42.0405" fill="#FFDDBB"/>
<path d="M19.2153 39.636L18.723 41.3074L20.3944 41.7996L20.8867 40.1282L19.2153 39.636Z" fill="#1574FF"/>
<path d="M18.624 38.5542L18.1317 40.2256L19.8031 40.7178L20.2954 39.0464L18.624 38.5542Z" fill="#1574FF"/>
<path d="M18.0366 37.4729L17.5443 39.1443L19.2157 39.6365L19.708 37.9651L18.0366 37.4729Z" fill="#1574FF"/>
<path d="M17.4492 36.3911L16.9569 38.0625L18.6283 38.5547L19.1206 36.8833L17.4492 36.3911Z" fill="#1574FF"/>
<path d="M16.8543 35.3086L16.3621 36.98L18.0335 37.4722L18.5257 35.8008L16.8543 35.3086Z" fill="#1574FF"/>
<path d="M16.2669 34.227L15.7747 35.8984L17.4461 36.3907L17.9383 34.7193L16.2669 34.227Z" fill="#1574FF"/>
<path d="M15.6756 33.1452L15.1833 34.8167L16.8548 35.3089L17.347 33.6375L15.6756 33.1452Z" fill="#1574FF"/>
<path d="M15.0882 32.0639L14.5959 33.7354L16.2674 34.2276L16.7596 32.5562L15.0882 32.0639Z" fill="#1574FF"/>
<path d="M14.497 30.9824L14.0048 32.6538L15.6762 33.1461L16.1684 31.4746L14.497 30.9824Z" fill="#1574FF"/>
<path d="M13.3185 28.8181L12.8263 30.4895L14.4977 30.9817L14.99 29.3103L13.3185 28.8181Z" fill="#E23927"/>
<path d="M13.9096 29.9008L13.4174 31.5723L15.0888 32.0645L15.581 30.3931L13.9096 29.9008Z" fill="#1574FF"/>
<path d="M46.5534 42.6756L45.3666 41.3981L46.6441 40.2151L47.8271 41.4926L49.1046 40.3058L50.3821 39.1228L51.6596 37.936L52.9371 36.753L54.2146 35.5662L55.3976 36.8437L54.1201 38.0267L52.8426 39.2135L51.5689 40.3965L50.2914 41.5833L49.0139 42.7701L47.7364 43.9531L46.5534 42.6756Z" fill="#184742"/>
<path d="M57.5331 36.923L54.294 33.4307L47.9064 39.3533L46.7234 38.0796L43.2311 41.3187L47.657 46.0886L57.5331 36.923Z" fill="#184742"/>
<path d="M50.2899 41.577L51.5671 40.3918L50.3819 39.1146L49.1047 40.2998L50.2899 41.577Z" fill="#008459"/>
<path d="M51.5668 40.3942L52.844 39.209L51.6588 37.9318L50.3816 39.117L51.5668 40.3942Z" fill="#008459"/>
<path d="M52.8449 39.205L54.1221 38.0198L52.9369 36.7426L51.6597 37.9278L52.8449 39.205Z" fill="#008459"/>
<path d="M54.1216 38.0224L55.3988 36.8372L54.2136 35.5599L52.9364 36.7451L54.1216 38.0224Z" fill="#008459"/>
<path d="M49.0128 42.765L50.29 41.5798L49.1048 40.3026L47.8276 41.4878L49.0128 42.765Z" fill="#008459"/>
<path d="M47.7361 43.9476L49.0133 42.7625L47.8281 41.4852L46.5509 42.6704L47.7361 43.9476Z" fill="#008459"/>
<path d="M46.5532 42.671L47.8304 41.4858L46.6452 40.2086L45.368 41.3938L46.5532 42.671Z" fill="#008459"/>
</g>
<defs>
<clipPath id="clip0_4697_122294">
<rect width="57.5331" height="64" fill="white"/>
</clipPath>
</defs>
</svg>
