<svg width="54" height="58" viewBox="0 0 54 58" fill="none" xmlns="http://www.w3.org/2000/svg">
<g clip-path="url(#clip0_4712_81129)">
<path d="M19.9723 50.7909V49.2783H23.1093V47.7286H24.6778V46.1756H26.6615V47.7286H28.23V49.2783H31.3636V50.8313H32.1496H36.44H43.4967V49.2783H46.6337V47.7286H48.2023V46.1756H49.7708V31.0566H48.2023V25.9866H46.6337V24.4336H48.2023V22.8806H49.7708V19.7746H51.3393V7.765H49.7708V4.659H48.2023V3.106H46.6337V1.553H43.4967V0H31.3636V1.553H28.23V3.106H26.6615V4.659H24.6778V3.106H23.1093V1.553H19.9723V0H7.84261V1.553H4.70556V3.106H3.13704V4.659H1.56852V7.765H0V19.7746H1.56852V22.8806H3.13704V24.4336H4.70556V26.3976H3.13704V27.9506H1.56852V31.0566H0V43.0696H1.56852V46.1756H3.13704V47.7286H4.70556V49.2783H7.84261V50.8313H15.6818" fill="#184742"/>
<path d="M46.8412 32.4039H48.4097V30.8509V29.2979H46.8412V30.8509V32.4039Z" fill="#184742"/>
<path d="M49.7707 27.9504H45.4802V33.7515H49.7707V27.9504Z" fill="#184742"/>
<path d="M43.7043 27.7449H45.2728V26.1953H43.7043H42.1357V27.7449H43.7043Z" fill="#184742"/>
<path d="M46.8412 27.7451H45.2727V29.2981H46.8412V27.7451Z" fill="#184742"/>
<path d="M48.4098 33.9571V35.5101V37.0631V38.6161V40.1691V41.7221H49.9783V40.1691V38.6161V37.0631V35.5101V33.9571V32.4041H48.4098V33.9571Z" fill="#184742"/>
<path d="M51.3393 31.0566H47.0488V43.0696H51.3393V31.0566Z" fill="#184742"/>
<path d="M9.20353 44.8281H7.63501V46.3811H9.20353V44.8281Z" fill="#0DAE89"/>
<path d="M7.63505 44.8281H6.06653V46.3811H7.63505V44.8281Z" fill="#0DAE89"/>
<path d="M6.06311 44.8281V43.2751H4.49459V44.8281H6.06311Z" fill="#00AC75"/>
<path d="M6.06653 43.2749V41.7219H4.498V43.2749H6.06653Z" fill="#00AC75"/>
<path d="M4.49805 35.51V33.957H2.92953V35.51H4.49805Z" fill="#00AC75"/>
<path d="M4.49805 37.063V35.51H2.92953V37.063H4.49805Z" fill="#00AC75"/>
<path d="M4.49805 38.616V37.063H2.92953V38.616H4.49805Z" fill="#00AC75"/>
<path d="M4.49805 40.169V38.616H2.92953V40.169H4.49805Z" fill="#00AC75"/>
<path d="M4.49805 41.7219V40.1689H2.92953V41.7219H4.49805Z" fill="#00AC75"/>
<path d="M4.49805 33.9571V32.4041H2.92953V33.9571H4.49805Z" fill="#00AC75"/>
<path d="M4.49805 12.2185V10.6655H2.92953V12.2185H4.49805Z" fill="#00AC75"/>
<path d="M4.49805 13.7715V12.2185H2.92953V13.7715H4.49805Z" fill="#00AC75"/>
<path d="M4.49805 15.3245V13.7715H2.92953V15.3245H4.49805Z" fill="#00AC75"/>
<path d="M4.49805 16.8775V15.3245H2.92953V16.8775H4.49805Z" fill="#00AC75"/>
<path d="M4.49805 18.4304V16.8774H2.92953V18.4304H4.49805Z" fill="#00AC75"/>
<path d="M4.49805 10.6653V9.1123H2.92953V10.6653H4.49805Z" fill="#00AC75"/>
<path d="M6.06653 12.2185V10.6655H4.49801V12.2185H6.06653Z" fill="#00AC75"/>
<path d="M6.06653 13.7715V12.2185H4.49801V13.7715H6.06653Z" fill="#00AC75"/>
<path d="M6.06653 15.3245V13.7715H4.49801V15.3245H6.06653Z" fill="#00AC75"/>
<path d="M6.06653 16.8775V15.3245H4.49801V16.8775H6.06653Z" fill="#00AC75"/>
<path d="M6.06653 18.4304V16.8774H4.49801V18.4304H6.06653Z" fill="#00AC75"/>
<path d="M6.06653 19.98V18.427H4.49801V19.98H6.06653Z" fill="#00AC75"/>
<path d="M6.06653 21.533V19.98H4.49801V21.533H6.06653Z" fill="#00AC75"/>
<path d="M6.06653 10.6687V9.11572H4.49801V10.6687H6.06653Z" fill="#00AC75"/>
<path d="M6.06311 9.11233V7.55933H4.49459V9.11233H6.06311Z" fill="#00AC75"/>
<path d="M6.06653 7.55593V6.00293H4.49801V7.55593H6.06653Z" fill="#00AC75"/>
<path d="M7.63159 6.00979V4.45679H6.06307V6.00979H7.63159Z" fill="#00AC75"/>
<path d="M9.2002 6.00979V4.45679H7.63167V6.00979H9.2002Z" fill="#00AC75"/>
<path d="M7.63501 12.2217V10.6687H6.06649V12.2217H7.63501Z" fill="#00AC75"/>
<path d="M7.63501 13.7715V12.2185H6.06649V13.7715H7.63501Z" fill="#00AC75"/>
<path d="M7.63501 15.3245V13.7715H6.06649V15.3245H7.63501Z" fill="#00AC75"/>
<path d="M7.63501 16.8775V15.3245H6.06649V16.8775H7.63501Z" fill="#00AC75"/>
<path d="M7.63501 18.4304V16.8774H6.06649V18.4304H7.63501Z" fill="#00AC75"/>
<path d="M7.63501 10.6687V9.11572H6.06649V10.6687H7.63501Z" fill="#00AC75"/>
<path d="M9.20361 12.2217V10.6687H7.63509V12.2217H9.20361Z" fill="#32B686"/>
<path d="M9.20361 13.7747V12.2217H7.63509V13.7747H9.20361Z" fill="#32B686"/>
<path d="M9.20361 15.3245V13.7715H7.63509V15.3245H9.20361Z" fill="#32B686"/>
<path d="M9.20361 16.8775V15.3245H7.63509V16.8775H9.20361Z" fill="#32B686"/>
<path d="M9.20361 18.4304V16.8774H7.63509V18.4304H9.20361Z" fill="#32B686"/>
<path d="M9.20361 10.6687V9.11572H7.63509V10.6687H9.20361Z" fill="#32B686"/>
<path d="M10.7721 12.2217V10.6687H9.20357V12.2217H10.7721Z" fill="#32B686"/>
<path d="M10.7721 13.7747V12.2217H9.20357V13.7747H10.7721Z" fill="#86CBA8"/>
<path d="M10.7721 15.3277V13.7747H9.20357V15.3277H10.7721Z" fill="#86CBA8"/>
<path d="M10.7721 16.8775V15.3245H9.20357V16.8775H10.7721Z" fill="#59BE92"/>
<path d="M10.7721 18.4304V16.8774H9.20357V18.4304H10.7721Z" fill="#86CBA8"/>
<path d="M10.7721 10.6653V9.1123H9.20357V10.6653H10.7721Z" fill="#32B686"/>
<path d="M12.3406 12.2185V10.6655H10.7721V12.2185H12.3406Z" fill="#59BE92"/>
<path d="M12.3406 13.7747V12.2217H10.7721V13.7747H12.3406Z" fill="#59BE92"/>
<path d="M12.3406 15.3277V13.7747H10.7721V15.3277H12.3406Z" fill="#59BE92"/>
<path d="M12.3406 16.8809V15.3279H10.7721V16.8809H12.3406Z" fill="#59BE92"/>
<path d="M12.3372 18.4304V16.8774H10.7686V18.4304H12.3372Z" fill="#59BE92"/>
<path d="M12.3406 10.6687V9.11572H10.7721V10.6687H12.3406Z" fill="#86CBA8"/>
<path d="M13.9091 12.2185V10.6655H12.3405V12.2185H13.9091Z" fill="#59BE92"/>
<path d="M13.9091 13.7681V12.2151H12.3405V13.7681H13.9091Z" fill="#59BE92"/>
<path d="M13.9091 15.3245V13.7715H12.3405V15.3245H13.9091Z" fill="#59BE92"/>
<path d="M13.9058 16.8775V15.3245H12.3372V16.8775H13.9058Z" fill="#59BE92"/>
<path d="M13.9058 18.4304V16.8774H12.3372V18.4304H13.9058Z" fill="#59BE92"/>
<path d="M13.9091 10.6653V9.1123H12.3405V10.6653H13.9091Z" fill="#59BE92"/>
<path d="M15.4777 12.2185V10.6655H13.9091V12.2185H15.4777Z" fill="#59BE92"/>
<path d="M15.4777 13.7715V12.2185H13.9091V13.7715H15.4777Z" fill="#59BE92"/>
<path d="M15.4742 15.3211V13.7681H13.9057V15.3211H15.4742Z" fill="#59BE92"/>
<path d="M15.4742 16.8775V15.3245H13.9057V16.8775H15.4742Z" fill="#59BE92"/>
<path d="M15.4742 18.4304V16.8774H13.9057V18.4304H15.4742Z" fill="#59BE92"/>
<path d="M15.4777 10.6653V9.1123H13.9091V10.6653H15.4777Z" fill="#59BE92"/>
<path d="M17.0461 12.2185V10.6655H15.4776V12.2185H17.0461Z" fill="#59BE92"/>
<path d="M17.0427 13.7715V12.2185H15.4742V13.7715H17.0427Z" fill="#59BE92"/>
<path d="M17.0427 15.3245V13.7715H15.4742V15.3245H17.0427Z" fill="#59BE92"/>
<path d="M17.0427 16.874V15.321H15.4742V16.874H17.0427Z" fill="#59BE92"/>
<path d="M17.0427 18.4304V16.8774H15.4742V18.4304H17.0427Z" fill="#59BE92"/>
<path d="M17.0461 10.6653V9.1123H15.4776V10.6653H17.0461Z" fill="#59BE92"/>
<path d="M18.6113 12.2185V10.6655H17.0428V12.2185H18.6113Z" fill="#59BE92"/>
<path d="M18.6113 13.7715V12.2185H17.0428V13.7715H18.6113Z" fill="#59BE92"/>
<path d="M18.6113 15.3245V13.7715H17.0428V15.3245H18.6113Z" fill="#59BE92"/>
<path d="M18.6113 16.8775V15.3245H17.0428V16.8775H18.6113Z" fill="#59BE92"/>
<path d="M18.6113 18.427V16.874H17.0428V18.427H18.6113Z" fill="#59BE92"/>
<path d="M20.1798 18.4304V16.8774H18.6113V18.4304H20.1798Z" fill="#59BE92"/>
<path d="M18.6146 10.6653V9.1123H17.0461V10.6653H18.6146Z" fill="#59BE92"/>
<path d="M20.1798 12.2185V10.6655H18.6113V12.2185H20.1798Z" fill="#59BE92"/>
<path d="M20.1798 13.7715V12.2185H18.6113V13.7715H20.1798Z" fill="#59BE92"/>
<path d="M20.1798 15.3245V13.7715H18.6113V15.3245H20.1798Z" fill="#59BE92"/>
<path d="M20.1798 10.6653V9.1123H18.6113V10.6653H20.1798Z" fill="#59BE92"/>
<path d="M21.7483 12.2185V10.6655H20.1798V12.2185H21.7483Z" fill="#59BE92"/>
<path d="M21.7483 13.7715V12.2185H20.1798V13.7715H21.7483Z" fill="#59BE92"/>
<path d="M21.7483 15.3245V13.7715H20.1798V15.3245H21.7483Z" fill="#59BE92"/>
<path d="M21.7483 10.6653V9.1123H20.1798V10.6653H21.7483Z" fill="#59BE92"/>
<path d="M23.3169 12.2185V10.6655H21.7484V12.2185H23.3169Z" fill="#59BE92"/>
<path d="M23.3169 13.7715V12.2185H21.7484V13.7715H23.3169Z" fill="#59BE92"/>
<path d="M23.3169 15.3245V13.7715H21.7484V15.3245H23.3169Z" fill="#59BE92"/>
<path d="M23.3169 10.6653V9.1123H21.7484V10.6653H23.3169Z" fill="#59BE92"/>
<path d="M7.63159 9.11233V7.55933H6.06307V9.11233H7.63159Z" fill="#00AC75"/>
<path d="M9.2002 9.11233V7.55933H7.63167V9.11233H9.2002Z" fill="#32B686"/>
<path d="M10.7687 9.11233V7.55933H9.20016V9.11233H10.7687Z" fill="#32B686"/>
<path d="M12.3372 9.11233V7.55933H10.7686V9.11233H12.3372Z" fill="#32B686"/>
<path d="M13.9058 9.10915V7.55615H12.3372V9.10915H13.9058Z" fill="#86CBA8"/>
<path d="M15.4742 9.10915V7.55615H13.9057V9.10915H15.4742Z" fill="#86CBA8"/>
<path d="M17.0427 9.10915V7.55615H15.4742V9.10915H17.0427Z" fill="#86CBA8"/>
<path d="M18.6113 9.10915V7.55615H17.0428V9.10915H18.6113Z" fill="#86CBA8"/>
<path d="M20.1798 9.11233V7.55933H18.6113V9.11233H20.1798Z" fill="#59BE92"/>
<path d="M21.7483 9.11233V7.55933H20.1798V9.11233H21.7483Z" fill="#86CBA8"/>
<path d="M23.3169 9.11233V7.55933H21.7484V9.11233H23.3169Z" fill="#59BE92"/>
<path d="M7.63501 7.55935V6.00635H6.06649V7.55935H7.63501Z" fill="#00AC75"/>
<path d="M9.20361 7.55593V6.00293H7.63509V7.55593H9.20361Z" fill="#00AC75"/>
<path d="M10.7721 7.55593V6.00293H9.20357V7.55593H10.7721Z" fill="#32B686"/>
<path d="M12.3372 7.55593V6.00293H10.7686V7.55593H12.3372Z" fill="#32B686"/>
<path d="M13.9058 7.55593V6.00293H12.3372V7.55593H13.9058Z" fill="#32B686"/>
<path d="M15.4742 7.55593V6.00293H13.9057V7.55593H15.4742Z" fill="#32B686"/>
<path d="M17.0427 7.55593V6.00293H15.4742V7.55593H17.0427Z" fill="#32B686"/>
<path d="M18.6113 7.55593V6.00293H17.0428V7.55593H18.6113Z" fill="#32B686"/>
<path d="M20.1798 7.55593V6.00293H18.6113V7.55593H20.1798Z" fill="#32B686"/>
<path d="M21.7483 7.55593V6.00293H20.1798V7.55593H21.7483Z" fill="#32B686"/>
<path d="M10.7687 6.00979V4.45679H9.20016V6.00979H10.7687Z" fill="#00AC75"/>
<path d="M12.3372 6.00979V4.45679H10.7686V6.00979H12.3372Z" fill="#00AC75"/>
<path d="M13.9058 6.00637V4.45337H12.3372V6.00637H13.9058Z" fill="#00AC75"/>
<path d="M15.4742 6.00637V4.45337H13.9057V6.00637H15.4742Z" fill="#00AC75"/>
<path d="M17.0427 6.00637V4.45337H15.4742V6.00637H17.0427Z" fill="#00AC75"/>
<path d="M18.6113 6.00637V4.45337H17.0428V6.00637H18.6113Z" fill="#00AC75"/>
<path d="M10.7687 4.45339V2.90039H9.20016V4.45339H10.7687Z" fill="#00AC75"/>
<path d="M12.3372 4.45339V2.90039H10.7686V4.45339H12.3372Z" fill="#00AC75"/>
<path d="M13.9058 4.44997V2.89697H12.3372V4.44997H13.9058Z" fill="#00AC75"/>
<path d="M15.4742 4.45339V2.90039H13.9057V4.45339H15.4742Z" fill="#00AC75"/>
<path d="M17.0427 4.45339V2.90039H15.4742V4.45339H17.0427Z" fill="#00AC75"/>
<path d="M18.6113 4.45339V2.90039H17.0428V4.45339H18.6113Z" fill="#00AC75"/>
<path d="M20.1798 6.00637V4.45337H18.6113V6.00637H20.1798Z" fill="#00AC75"/>
<path d="M21.7483 6.00979V4.45679H20.1798V6.00979H21.7483Z" fill="#00AC75"/>
<path d="M23.3169 7.55593V6.00293H21.7484V7.55593H23.3169Z" fill="#59BE92"/>
<path d="M24.8854 12.2185V10.6655H23.3169V12.2185H24.8854Z" fill="#59BE92"/>
<path d="M24.8854 13.7715V12.2185H23.3169V13.7715H24.8854Z" fill="#59BE92"/>
<path d="M24.8854 15.3245V13.7715H23.3169V15.3245H24.8854Z" fill="#59BE92"/>
<path d="M20.1798 16.8775V15.3245H18.6113V16.8775H20.1798Z" fill="#59BE92"/>
<path d="M21.7483 16.8775V15.3245H20.1798V16.8775H21.7483Z" fill="#59BE92"/>
<path d="M23.3169 16.8775V15.3245H21.7484V16.8775H23.3169Z" fill="#59BE92"/>
<path d="M24.8854 16.8775V15.3245H23.3169V16.8775H24.8854Z" fill="#59BE92"/>
<path d="M26.4539 15.3245V13.7715H24.8853V15.3245H26.4539Z" fill="#59BE92"/>
<path d="M28.0225 15.3245V13.7715H26.4539V15.3245H28.0225Z" fill="#59BE92"/>
<path d="M26.4539 16.8775V15.3245H24.8853V16.8775H26.4539Z" fill="#59BE92"/>
<path d="M28.0225 16.8775V15.3245H26.4539V16.8775H28.0225Z" fill="#59BE92"/>
<path d="M21.7483 18.427V16.874H20.1798V18.427H21.7483Z" fill="#59BE92"/>
<path d="M23.3169 18.427V16.874H21.7484V18.427H23.3169Z" fill="#59BE92"/>
<path d="M24.8854 18.427V16.874H23.3169V18.427H24.8854Z" fill="#59BE92"/>
<path d="M26.4539 18.427V16.874H24.8853V18.427H26.4539Z" fill="#59BE92"/>
<path d="M28.0225 18.427V16.874H26.4539V18.427H28.0225Z" fill="#59BE92"/>
<path d="M29.5909 15.3245V13.7715H28.0224V15.3245H29.5909Z" fill="#59BE92"/>
<path d="M29.5909 16.8775V15.3245H28.0224V16.8775H29.5909Z" fill="#59BE92"/>
<path d="M7.63501 19.9834V18.4304H6.06649V19.9834H7.63501Z" fill="#00AC75"/>
<path d="M7.63501 21.5364V19.9834H6.06649V21.5364H7.63501Z" fill="#59BE92"/>
<path d="M9.20361 19.9834V18.4304H7.63509V19.9834H9.20361Z" fill="#32B686"/>
<path d="M9.2002 21.5364V19.9834H7.63167V21.5364H9.2002Z" fill="#59BE92"/>
<path d="M10.7687 19.9834V18.4304H9.20016V19.9834H10.7687Z" fill="#59BE92"/>
<path d="M10.7687 21.5364V19.9834H9.20016V21.5364H10.7687Z" fill="#59BE92"/>
<path d="M12.3372 19.9834V18.4304H10.7686V19.9834H12.3372Z" fill="#59BE92"/>
<path d="M12.3372 21.5364V19.9834H10.7686V21.5364H12.3372Z" fill="#59BE92"/>
<path d="M13.9058 19.98V18.427H12.3372V19.98H13.9058Z" fill="#59BE92"/>
<path d="M13.9058 21.533V19.98H12.3372V21.533H13.9058Z" fill="#59BE92"/>
<path d="M7.63501 23.086V21.533H6.06649V23.086H7.63501Z" fill="#00AC75"/>
<path d="M9.20361 23.086V21.533H7.63509V23.086H9.20361Z" fill="#59BE92"/>
<path d="M10.7721 23.086V21.533H9.20357V23.086H10.7721Z" fill="#59BE92"/>
<path d="M12.3372 23.086V21.533H10.7686V23.086H12.3372Z" fill="#59BE92"/>
<path d="M13.9058 23.086V21.533H12.3372V23.086H13.9058Z" fill="#59BE92"/>
<path d="M10.7687 24.6389V23.0859H9.20016V24.6389H10.7687Z" fill="#59BE92"/>
<path d="M12.3372 24.6389V23.0859H10.7686V24.6389H12.3372Z" fill="#59BE92"/>
<path d="M13.9058 24.6358V23.0828H12.3372V24.6358H13.9058Z" fill="#59BE92"/>
<path d="M15.4742 19.9834V18.4304H13.9057V19.9834H15.4742Z" fill="#59BE92"/>
<path d="M15.4742 21.533V19.98H13.9057V21.533H15.4742Z" fill="#59BE92"/>
<path d="M17.0427 19.9834V18.4304H15.4742V19.9834H17.0427Z" fill="#59BE92"/>
<path d="M17.0427 21.5364V19.9834H15.4742V21.5364H17.0427Z" fill="#59BE92"/>
<path d="M18.6113 19.9834V18.4304H17.0428V19.9834H18.6113Z" fill="#59BE92"/>
<path d="M20.1798 19.98V18.427H18.6113V19.98H20.1798Z" fill="#59BE92"/>
<path d="M21.7483 19.9834V18.4304H20.1798V19.9834H21.7483Z" fill="#59BE92"/>
<path d="M23.3169 19.9834V18.4304H21.7484V19.9834H23.3169Z" fill="#59BE92"/>
<path d="M18.6113 21.5364V19.9834H17.0428V21.5364H18.6113Z" fill="#59BE92"/>
<path d="M20.1798 21.5364V19.9834H18.6113V21.5364H20.1798Z" fill="#59BE92"/>
<path d="M21.7483 21.533V19.98H20.1798V21.533H21.7483Z" fill="#59BE92"/>
<path d="M23.3169 21.5364V19.9834H21.7484V21.5364H23.3169Z" fill="#59BE92"/>
<path d="M24.8854 19.9834V18.4304H23.3169V19.9834H24.8854Z" fill="#59BE92"/>
<path d="M26.4539 19.9834V18.4304H24.8853V19.9834H26.4539Z" fill="#59BE92"/>
<path d="M24.8854 21.5364V19.9834H23.3169V21.5364H24.8854Z" fill="#59BE92"/>
<path d="M26.4539 21.5364V19.9834H24.8853V21.5364H26.4539Z" fill="#59BE92"/>
<path d="M28.0225 19.9834V18.4304H26.4539V19.9834H28.0225Z" fill="#59BE92"/>
<path d="M29.5909 18.4304V16.8774H28.0224V18.4304H29.5909Z" fill="#59BE92"/>
<path d="M31.1594 18.4304V16.8774H29.5909V18.4304H31.1594Z" fill="#59BE92"/>
<path d="M29.5909 19.9834V18.4304H28.0224V19.9834H29.5909Z" fill="#59BE92"/>
<path d="M31.156 19.9834V18.4304H29.5875V19.9834H31.156Z" fill="#59BE92"/>
<path d="M28.0225 21.5364V19.9834H26.4539V21.5364H28.0225Z" fill="#59BE92"/>
<path d="M15.4742 23.086V21.533H13.9057V23.086H15.4742Z" fill="#59BE92"/>
<path d="M15.4742 24.6389V23.0859H13.9057V24.6389H15.4742Z" fill="#59BE92"/>
<path d="M17.0427 23.086V21.533H15.4742V23.086H17.0427Z" fill="#59BE92"/>
<path d="M17.0427 24.6389V23.0859H15.4742V24.6389H17.0427Z" fill="#59BE92"/>
<path d="M18.6113 23.086V21.533H17.0428V23.086H18.6113Z" fill="#59BE92"/>
<path d="M18.6113 24.6389V23.0859H17.0428V24.6389H18.6113Z" fill="#59BE92"/>
<path d="M20.1798 23.086V21.533H18.6113V23.086H20.1798Z" fill="#59BE92"/>
<path d="M20.1798 24.6389V23.0859H18.6113V24.6389H20.1798Z" fill="#59BE92"/>
<path d="M21.7483 24.6389V23.0859H20.1798V24.6389H21.7483Z" fill="#59BE92"/>
<path d="M23.3169 23.086V21.533H21.7484V23.086H23.3169Z" fill="#59BE92"/>
<path d="M21.7483 23.086V21.533H20.1798V23.086H21.7483Z" fill="#59BE92"/>
<path d="M24.8854 23.086V21.533H23.3169V23.086H24.8854Z" fill="#59BE92"/>
<path d="M26.4539 23.086V21.533H24.8853V23.086H26.4539Z" fill="#59BE92"/>
<path d="M28.0225 23.086V21.533H26.4539V23.086H28.0225Z" fill="#59BE92"/>
<path d="M23.3169 24.6389V23.0859H21.7484V24.6389H23.3169Z" fill="#59BE92"/>
<path d="M24.8854 24.6389V23.0859H23.3169V24.6389H24.8854Z" fill="#59BE92"/>
<path d="M26.4539 24.6389V23.0859H24.8853V24.6389H26.4539Z" fill="#59BE92"/>
<path d="M28.0225 24.6389V23.0859H26.4539V24.6389H28.0225Z" fill="#59BE92"/>
<path d="M31.1594 23.086V21.533H29.5909V23.086H31.1594Z" fill="#59BE92"/>
<path d="M29.5909 24.6389V23.0859H28.0224V24.6389H29.5909Z" fill="#59BE92"/>
<path d="M29.5875 23.0894V21.5364H28.019V23.0894H29.5875Z" fill="#59BE92"/>
<path d="M31.156 24.6389V23.0859H29.5875V24.6389H31.156Z" fill="#59BE92"/>
<path d="M32.7246 24.6389V23.0859H31.1561V24.6389H32.7246Z" fill="#59BE92"/>
<path d="M34.2931 24.6358V23.0828H32.7246V24.6358H34.2931Z" fill="#59BE92"/>
<path d="M29.5875 21.5364V19.9834H28.019V21.5364H29.5875Z" fill="#59BE92"/>
<path d="M31.156 21.5364V19.9834H29.5875V21.5364H31.156Z" fill="#59BE92"/>
<path d="M37.4302 21.5364V19.9834H35.8617V21.5364H37.4302Z" fill="#59BE92"/>
<path d="M38.9987 21.5364V19.9834H37.4301V21.5364H38.9987Z" fill="#59BE92"/>
<path d="M40.5671 21.5364V19.9834H38.9986V21.5364H40.5671Z" fill="#59BE92"/>
<path d="M42.1357 21.5364V19.9834H40.5672V21.5364H42.1357Z" fill="#59BE92"/>
<path d="M42.1357 23.086V21.533H40.5672V23.086H42.1357Z" fill="#59BE92"/>
<path d="M42.1357 24.6389V23.0859H40.5672V24.6389H42.1357Z" fill="#59BE92"/>
<path d="M43.7042 21.5364V19.9834H42.1357V21.5364H43.7042Z" fill="#59BE92"/>
<path d="M35.8616 24.6389V23.0859H34.2931V24.6389H35.8616Z" fill="#59BE92"/>
<path d="M15.4742 26.1922V24.6392H13.9057V26.1922H15.4742Z" fill="#59BE92"/>
<path d="M17.0427 26.1922V24.6392H15.4742V26.1922H17.0427Z" fill="#59BE92"/>
<path d="M18.6113 26.1922V24.6392H17.0428V26.1922H18.6113Z" fill="#59BE92"/>
<path d="M20.1798 26.1922V24.6392H18.6113V26.1922H20.1798Z" fill="#59BE92"/>
<path d="M21.7483 26.1953V24.6423H20.1798V26.1953H21.7483Z" fill="#59BE92"/>
<path d="M23.3169 26.1953V24.6423H21.7484V26.1953H23.3169Z" fill="#59BE92"/>
<path d="M24.882 26.1953V24.6423H23.3134V26.1953H24.882Z" fill="#59BE92"/>
<path d="M26.4504 26.1922V24.6392H24.8819V26.1922H26.4504Z" fill="#59BE92"/>
<path d="M28.019 26.1953V24.6423H26.4505V26.1953H28.019Z" fill="#59BE92"/>
<path d="M29.5875 26.1953V24.6423H28.019V26.1953H29.5875Z" fill="#59BE92"/>
<path d="M31.156 26.1953V24.6423H29.5875V26.1953H31.156Z" fill="#59BE92"/>
<path d="M32.7246 26.1953V24.6423H31.1561V26.1953H32.7246Z" fill="#59BE92"/>
<path d="M34.2931 26.1922V24.6392H32.7246V26.1922H34.2931Z" fill="#59BE92"/>
<path d="M35.8616 26.1922V24.6392H34.2931V26.1922H35.8616Z" fill="#59BE92"/>
<path d="M37.4302 23.086V21.533H35.8617V23.086H37.4302Z" fill="#59BE92"/>
<path d="M38.9987 23.086V21.533H37.4301V23.086H38.9987Z" fill="#59BE92"/>
<path d="M37.4302 24.6389V23.0859H35.8617V24.6389H37.4302Z" fill="#59BE92"/>
<path d="M38.9987 24.6389V23.0859H37.4301V24.6389H38.9987Z" fill="#59BE92"/>
<path d="M40.5671 23.086V21.533H38.9986V23.086H40.5671Z" fill="#59BE92"/>
<path d="M40.5671 24.6389V23.0859H38.9986V24.6389H40.5671Z" fill="#59BE92"/>
<path d="M24.8854 10.6653V9.1123H23.3169V10.6653H24.8854Z" fill="#59BE92"/>
<path d="M28.0225 12.2217V10.6687H26.4539V12.2217H28.0225Z" fill="#00AC75"/>
<path d="M28.0225 13.7715V12.2185H26.4539V13.7715H28.0225Z" fill="#00AC75"/>
<path d="M28.0225 10.6687V9.11572H26.4539V10.6687H28.0225Z" fill="#00AC75"/>
<path d="M29.5909 12.2217V10.6687H28.0224V12.2217H29.5909Z" fill="#00AC75"/>
<path d="M29.5909 13.7747V12.2217H28.0224V13.7747H29.5909Z" fill="#00AC75"/>
<path d="M29.5909 10.6687V9.11572H28.0224V10.6687H29.5909Z" fill="#00AC75"/>
<path d="M29.5875 9.11233V7.55933H28.019V9.11233H29.5875Z" fill="#00AC75"/>
<path d="M29.5909 7.55593V6.00293H28.0224V7.55593H29.5909Z" fill="#00AC75"/>
<path d="M31.156 6.00979V4.45679H29.5875V6.00979H31.156Z" fill="#00AC75"/>
<path d="M32.7246 6.00637V4.45337H31.1561V6.00637H32.7246Z" fill="#00AC75"/>
<path d="M31.1594 12.2217V10.6687H29.5909V12.2217H31.1594Z" fill="#32B686"/>
<path d="M31.1594 13.7747V12.2217H29.5909V13.7747H31.1594Z" fill="#32B686"/>
<path d="M31.1594 10.6687V9.11572H29.5909V10.6687H31.1594Z" fill="#32B686"/>
<path d="M32.728 12.2185V10.6655H31.1595V12.2185H32.728Z" fill="#59BE92"/>
<path d="M32.728 13.7715V12.2185H31.1595V13.7715H32.728Z" fill="#59BE92"/>
<path d="M32.728 10.6653V9.1123H31.1595V10.6653H32.728Z" fill="#32B686"/>
<path d="M34.2965 12.2185V10.6655H32.728V12.2185H34.2965Z" fill="#59BE92"/>
<path d="M34.2965 13.7715V12.2185H32.728V13.7715H34.2965Z" fill="#59BE92"/>
<path d="M34.2965 10.6653V9.1123H32.728V10.6653H34.2965Z" fill="#59BE92"/>
<path d="M35.865 12.2185V10.6655H34.2965V12.2185H35.865Z" fill="#59BE92"/>
<path d="M35.8616 13.7715V12.2185H34.2931V13.7715H35.8616Z" fill="#59BE92"/>
<path d="M35.865 10.6653V9.1123H34.2965V10.6653H35.865Z" fill="#59BE92"/>
<path d="M37.4302 12.2185V10.6655H35.8617V12.2185H37.4302Z" fill="#59BE92"/>
<path d="M37.4302 13.7715V12.2185H35.8617V13.7715H37.4302Z" fill="#59BE92"/>
<path d="M37.4336 10.6653V9.1123H35.8651V10.6653H37.4336Z" fill="#59BE92"/>
<path d="M38.9987 12.2185V10.6655H37.4301V12.2185H38.9987Z" fill="#59BE92"/>
<path d="M38.9987 13.7715V12.2185H37.4301V13.7715H38.9987Z" fill="#59BE92"/>
<path d="M38.9987 10.6653V9.1123H37.4301V10.6653H38.9987Z" fill="#59BE92"/>
<path d="M40.5671 12.2185V10.6655H38.9986V12.2185H40.5671Z" fill="#59BE92"/>
<path d="M40.5671 13.7715V12.2185H38.9986V13.7715H40.5671Z" fill="#59BE92"/>
<path d="M40.5671 10.6653V9.1123H38.9986V10.6653H40.5671Z" fill="#59BE92"/>
<path d="M42.1357 12.2185V10.6655H40.5672V12.2185H42.1357Z" fill="#59BE92"/>
<path d="M42.1357 13.7715V12.2185H40.5672V13.7715H42.1357Z" fill="#59BE92"/>
<path d="M42.1357 10.6653V9.1123H40.5672V10.6653H42.1357Z" fill="#59BE92"/>
<path d="M43.7042 12.2185V10.6655H42.1357V12.2185H43.7042Z" fill="#59BE92"/>
<path d="M43.7042 13.7715V12.2185H42.1357V13.7715H43.7042Z" fill="#59BE92"/>
<path d="M43.7042 10.6653V9.1123H42.1357V10.6653H43.7042Z" fill="#86CBA8"/>
<path d="M45.2727 12.2185V10.6655H43.7042V12.2185H45.2727Z" fill="#86CBA8"/>
<path d="M45.2727 13.7715V12.2185H43.7042V13.7715H45.2727Z" fill="#86CBA8"/>
<path d="M45.2727 10.6653V9.1123H43.7042V10.6653H45.2727Z" fill="#32B686"/>
<path d="M46.8413 12.2185V10.6655H45.2728V12.2185H46.8413Z" fill="#32B686"/>
<path d="M46.8413 13.7715V12.2185H45.2728V13.7715H46.8413Z" fill="#32B686"/>
<path d="M46.8413 10.6687V9.11572H45.2728V10.6687H46.8413Z" fill="#00AC75"/>
<path d="M31.156 9.11233V7.55933H29.5875V9.11233H31.156Z" fill="#32B686"/>
<path d="M32.7246 9.10915V7.55615H31.1561V9.10915H32.7246Z" fill="#59BE92"/>
<path d="M34.2931 9.10915V7.55615H32.7246V9.10915H34.2931Z" fill="#32B686"/>
<path d="M35.8616 9.10915V7.55615H34.2931V9.10915H35.8616Z" fill="#59BE92"/>
<path d="M37.4302 9.10915V7.55615H35.8617V9.10915H37.4302Z" fill="#59BE92"/>
<path d="M38.9987 9.11233V7.55933H37.4301V9.11233H38.9987Z" fill="#86CBA8"/>
<path d="M40.5671 9.11233V7.55933H38.9986V9.11233H40.5671Z" fill="#86CBA8"/>
<path d="M42.1357 9.11232V7.55933H40.5672V9.11232H42.1357Z" fill="#86CBA8"/>
<path d="M43.7042 9.11233V7.55933H42.1357V9.11233H43.7042Z" fill="#32B686"/>
<path d="M45.2693 9.11233V7.55933H43.7008V9.11233H45.2693Z" fill="#32B686"/>
<path d="M46.8379 9.11233V7.55933H45.2694V9.11233H46.8379Z" fill="#00AC75"/>
<path d="M31.1594 7.55593V6.00293H29.5909V7.55593H31.1594Z" fill="#32B686"/>
<path d="M32.7246 7.55593V6.00293H31.1561V7.55593H32.7246Z" fill="#32B686"/>
<path d="M34.2931 7.55593V6.00293H32.7246V7.55593H34.2931Z" fill="#32B686"/>
<path d="M35.8616 7.55593V6.00293H34.2931V7.55593H35.8616Z" fill="#32B686"/>
<path d="M37.4302 7.55593V6.00293H35.8617V7.55593H37.4302Z" fill="#32B686"/>
<path d="M40.5671 7.55593V6.00293H38.9986V7.55593H40.5671Z" fill="#32B686"/>
<path d="M38.9987 7.55593V6.00293H37.4301V7.55593H38.9987Z" fill="#32B686"/>
<path d="M42.1357 7.55593V6.00293H40.5672V7.55593H42.1357Z" fill="#32B686"/>
<path d="M43.7042 7.55593V6.00293H42.1357V7.55593H43.7042Z" fill="#00AC75"/>
<path d="M45.2727 7.55593V6.00293H43.7042V7.55593H45.2727Z" fill="#00AC75"/>
<path d="M34.2931 6.00637V4.45337H32.7246V6.00637H34.2931Z" fill="#00AC75"/>
<path d="M35.8616 6.00637V4.45337H34.2931V6.00637H35.8616Z" fill="#00AC75"/>
<path d="M37.4302 6.00637V4.45337H35.8617V6.00637H37.4302Z" fill="#00AC75"/>
<path d="M38.9987 6.00637V4.45337H37.4301V6.00637H38.9987Z" fill="#00AC75"/>
<path d="M40.5671 6.00637V4.45337H38.9986V6.00637H40.5671Z" fill="#00AC75"/>
<path d="M42.1357 6.00978V4.45679H40.5672V6.00978H42.1357Z" fill="#00AC75"/>
<path d="M34.2931 4.45339V2.90039H32.7246V4.45339H34.2931Z" fill="#00AC75"/>
<path d="M35.8616 4.45339V2.90039H34.2931V4.45339H35.8616Z" fill="#00AC75"/>
<path d="M37.4302 4.45339V2.90039H35.8617V4.45339H37.4302Z" fill="#00AC75"/>
<path d="M38.9987 4.45339V2.90039H37.4301V4.45339H38.9987Z" fill="#00AC75"/>
<path d="M40.5671 4.45339V2.90039H38.9986V4.45339H40.5671Z" fill="#00AC75"/>
<path d="M42.1357 4.45339V2.90039H40.5672V4.45339H42.1357Z" fill="#00AC75"/>
<path d="M43.7008 6.00979V4.45679H42.1323V6.00979H43.7008Z" fill="#00AC75"/>
<path d="M45.2693 6.00979V4.45679H43.7008V6.00979H45.2693Z" fill="#00AC75"/>
<path d="M46.8413 7.55593V6.00293H45.2728V7.55593H46.8413Z" fill="#00AC75"/>
<path d="M48.4098 12.2217V10.6687H46.8413V12.2217H48.4098Z" fill="#00AC75"/>
<path d="M48.4098 13.7715V12.2185H46.8413V13.7715H48.4098Z" fill="#00AC75"/>
<path d="M31.1594 15.3277V13.7747H29.5909V15.3277H31.1594Z" fill="#59BE92"/>
<path d="M31.1594 16.8775V15.3245H29.5909V16.8775H31.1594Z" fill="#59BE92"/>
<path d="M32.728 15.3245V13.7715H31.1595V15.3245H32.728Z" fill="#59BE92"/>
<path d="M32.7246 16.8775V15.3245H31.1561V16.8775H32.7246Z" fill="#59BE92"/>
<path d="M34.2931 15.3245V13.7715H32.7246V15.3245H34.2931Z" fill="#59BE92"/>
<path d="M34.2931 16.8775V15.3245H32.7246V16.8775H34.2931Z" fill="#59BE92"/>
<path d="M35.8616 15.3245V13.7715H34.2931V15.3245H35.8616Z" fill="#59BE92"/>
<path d="M35.8616 16.8775V15.3245H34.2931V16.8775H35.8616Z" fill="#59BE92"/>
<path d="M37.4302 15.3245V13.7715H35.8617V15.3245H37.4302Z" fill="#59BE92"/>
<path d="M37.4302 16.8775V15.3245H35.8617V16.8775H37.4302Z" fill="#59BE92"/>
<path d="M38.9987 15.3245V13.7715H37.4301V15.3245H38.9987Z" fill="#59BE92"/>
<path d="M38.9987 16.8775V15.3245H37.4301V16.8775H38.9987Z" fill="#59BE92"/>
<path d="M40.5671 15.3245V13.7715H38.9986V15.3245H40.5671Z" fill="#59BE92"/>
<path d="M40.5671 16.8775V15.3245H38.9986V16.8775H40.5671Z" fill="#59BE92"/>
<path d="M42.1357 15.3245V13.7715H40.5672V15.3245H42.1357Z" fill="#59BE92"/>
<path d="M42.1357 16.8775V15.3245H40.5672V16.8775H42.1357Z" fill="#59BE92"/>
<path d="M43.7042 15.3245V13.7715H42.1357V15.3245H43.7042Z" fill="#59BE92"/>
<path d="M43.7042 16.8775V15.3245H42.1357V16.8775H43.7042Z" fill="#59BE92"/>
<path d="M45.2727 15.3245V13.7715H43.7042V15.3245H45.2727Z" fill="#86CBA8"/>
<path d="M45.2727 16.8775V15.3245H43.7042V16.8775H45.2727Z" fill="#86CBA8"/>
<path d="M46.8413 15.3245V13.7715H45.2728V15.3245H46.8413Z" fill="#32B686"/>
<path d="M46.8379 16.8775V15.3245H45.2694V16.8775H46.8379Z" fill="#32B686"/>
<path d="M48.4098 15.3245V13.7715H46.8413V15.3245H48.4098Z" fill="#00AC75"/>
<path d="M48.4098 16.8775V15.3245H46.8413V16.8775H48.4098Z" fill="#00AC75"/>
<path d="M32.7246 18.427V16.874H31.1561V18.427H32.7246Z" fill="#59BE92"/>
<path d="M34.2931 18.4304V16.8774H32.7246V18.4304H34.2931Z" fill="#59BE92"/>
<path d="M35.8616 18.4304V16.8774H34.2931V18.4304H35.8616Z" fill="#59BE92"/>
<path d="M37.4302 18.4304V16.8774H35.8617V18.4304H37.4302Z" fill="#59BE92"/>
<path d="M38.9987 18.4304V16.8774H37.4301V18.4304H38.9987Z" fill="#59BE92"/>
<path d="M40.5671 18.4304V16.8774H38.9986V18.4304H40.5671Z" fill="#59BE92"/>
<path d="M42.1357 18.4304V16.8774H40.5672V18.4304H42.1357Z" fill="#59BE92"/>
<path d="M43.7042 18.4304V16.8774H42.1357V18.4304H43.7042Z" fill="#59BE92"/>
<path d="M45.2727 18.4304V16.8774H43.7042V18.4304H45.2727Z" fill="#59BE92"/>
<path d="M46.8413 18.4304V16.8774H45.2728V18.4304H46.8413Z" fill="#32B686"/>
<path d="M32.7246 19.98V18.427H31.1561V19.98H32.7246Z" fill="#59BE92"/>
<path d="M34.2931 19.98V18.427H32.7246V19.98H34.2931Z" fill="#59BE92"/>
<path d="M35.8616 19.9834V18.4304H34.2931V19.9834H35.8616Z" fill="#59BE92"/>
<path d="M32.7246 21.533V19.98H31.1561V21.533H32.7246Z" fill="#59BE92"/>
<path d="M34.2931 21.533V19.98H32.7246V21.533H34.2931Z" fill="#59BE92"/>
<path d="M35.8616 21.533V19.98H34.2931V21.533H35.8616Z" fill="#59BE92"/>
<path d="M32.7246 23.0828V21.5298H31.1561V23.0828H32.7246Z" fill="#59BE92"/>
<path d="M34.2931 23.0828V21.5298H32.7246V23.0828H34.2931Z" fill="#59BE92"/>
<path d="M35.8616 23.0828V21.5298H34.2931V23.0828H35.8616Z" fill="#59BE92"/>
<path d="M37.4302 19.9834V18.4304H35.8617V19.9834H37.4302Z" fill="#59BE92"/>
<path d="M38.9987 19.9834V18.4304H37.4301V19.9834H38.9987Z" fill="#59BE92"/>
<path d="M40.5671 19.9834V18.4304H38.9986V19.9834H40.5671Z" fill="#59BE92"/>
<path d="M42.1357 19.9834V18.4304H40.5672V19.9834H42.1357Z" fill="#59BE92"/>
<path d="M43.7042 19.9834V18.4304H42.1357V19.9834H43.7042Z" fill="#59BE92"/>
<path d="M45.2693 19.9834V18.4304H43.7008V19.9834H45.2693Z" fill="#32B686"/>
<path d="M46.8379 19.9834V18.4304H45.2694V19.9834H46.8379Z" fill="#32B686"/>
<path d="M45.2727 21.533V19.98H43.7042V21.533H45.2727Z" fill="#32B686"/>
<path d="M43.7042 23.086V21.533H42.1357V23.086H43.7042Z" fill="#59BE92"/>
<path d="M45.2693 23.086V21.533H43.7008V23.086H45.2693Z" fill="#32B686"/>
<path d="M46.8413 21.533V19.98H45.2728V21.533H46.8413Z" fill="#32B686"/>
<path d="M48.4098 18.4304V16.8774H46.8413V18.4304H48.4098Z" fill="#00AC75"/>
<path d="M48.4098 10.6687V9.11572H46.8413V10.6687H48.4098Z" fill="#00AC75"/>
<path d="M6.06653 32.4041V30.8511H4.49801V32.4041H6.06653Z" fill="#00AC75"/>
<path d="M6.06653 30.8545V29.3015H4.49801V30.8545H6.06653Z" fill="#00AC75"/>
<path d="M7.63501 30.8545V29.3015H6.06649V30.8545H7.63501Z" fill="#00AC75"/>
<path d="M7.63501 29.3013V27.7483H6.06649V29.3013H7.63501Z" fill="#00AC75"/>
<path d="M10.7721 24.6423H9.20361V26.1953H10.7721V24.6423Z" fill="#59BE92"/>
<path d="M9.20353 26.1953H7.63501V27.7483H9.20353V26.1953Z" fill="#59BE92"/>
<path d="M7.63505 26.1953H6.06653V27.7483H7.63505V26.1953Z" fill="#59BE92"/>
<path d="M9.20353 46.3811H7.63501V47.9341H9.20353V46.3811Z" fill="#59BE92"/>
<path d="M7.63505 46.3811H6.06653V47.9341H7.63505V46.3811Z" fill="#59BE92"/>
<path d="M21.7483 46.3811H20.1798V47.9341H21.7483V46.3811Z" fill="#59BE92"/>
<path d="M20.1798 46.3811H18.6113V47.9341H20.1798V46.3811Z" fill="#59BE92"/>
<path d="M4.49805 32.4041V30.8511H2.92953V32.4041H4.49805Z" fill="#59BE92"/>
<path d="M4.49805 30.8511V29.2981H2.92953V30.8511H4.49805Z" fill="#59BE92"/>
<path d="M4.49805 44.8281V43.2751H2.92953V44.8281H4.49805Z" fill="#59BE92"/>
<path d="M4.49805 43.2749V41.7219H2.92952V43.2749H4.49805Z" fill="#59BE92"/>
<path d="M24.8854 44.8281V43.2751H23.3169V44.8281H24.8854Z" fill="#59BE92"/>
<path d="M24.8854 43.2749V41.7219H23.3169V43.2749H24.8854Z" fill="#59BE92"/>
<path d="M2.92944 35.51V33.957H1.36092V35.51H2.92944Z" fill="#59BE92"/>
<path d="M2.92944 37.063V35.51H1.36092V37.063H2.92944Z" fill="#59BE92"/>
<path d="M2.92944 38.616V37.063H1.36092V38.616H2.92944Z" fill="#59BE92"/>
<path d="M2.92944 40.169V38.616H1.36092V40.169H2.92944Z" fill="#59BE92"/>
<path d="M2.92944 41.7219V40.1689H1.36092V41.7219H2.92944Z" fill="#59BE92"/>
<path d="M2.92944 33.9571V32.4041H1.36092V33.9571H2.92944Z" fill="#59BE92"/>
<path d="M26.4539 38.616V37.063H24.8853V38.616H26.4539Z" fill="#59BE92"/>
<path d="M26.4539 40.169V38.616H24.8853V40.169H26.4539Z" fill="#59BE92"/>
<path d="M26.4539 41.7219V40.1689H24.8853V41.7219H26.4539Z" fill="#59BE92"/>
<path d="M6.06657 27.7451H4.49805V29.2981H6.06657V27.7451Z" fill="#59BE92"/>
<path d="M6.06657 44.8281H4.49805V46.3811H6.06657V44.8281Z" fill="#59BE92"/>
<path d="M23.3168 44.8281H21.7483V46.3811H23.3168V44.8281Z" fill="#59BE92"/>
<path d="M12.3406 24.6423H10.7721V26.1953H12.3406V24.6423Z" fill="#59BE92"/>
<path d="M13.9057 24.6423H12.3372V26.1953H13.9057V24.6423Z" fill="#59BE92"/>
<path d="M10.7721 47.9307H9.20361V49.4837H10.7721V47.9307Z" fill="#59BE92"/>
<path d="M12.3406 47.9307H10.7721V49.4837H12.3406V47.9307Z" fill="#59BE92"/>
<path d="M13.9057 47.9307H12.3372V49.4837H13.9057V47.9307Z" fill="#59BE92"/>
<path d="M15.4743 47.9307H13.9058V49.4837H15.4743V47.9307Z" fill="#59BE92"/>
<path d="M17.0428 47.9307H15.4742V49.4837H17.0428V47.9307Z" fill="#59BE92"/>
<path d="M18.6112 47.9307H17.0427V49.4837H18.6112V47.9307Z" fill="#59BE92"/>
<path d="M26.4504 10.6653V9.1123H24.8819V10.6653H26.4504Z" fill="#59BE92"/>
<path d="M24.8854 9.11233V7.55933H23.3169V9.11233H24.8854Z" fill="#59BE92"/>
<path d="M24.8854 7.55935V6.00635H23.3169V7.55935H24.8854Z" fill="#59BE92"/>
<path d="M4.49805 9.11233V7.55933H2.92953V9.11233H4.49805Z" fill="#59BE92"/>
<path d="M4.49805 7.55935V6.00635H2.92953V7.55935H4.49805Z" fill="#59BE92"/>
<path d="M4.49805 21.533V19.98H2.92953V21.533H4.49805Z" fill="#59BE92"/>
<path d="M4.49805 19.98V18.427H2.92953V19.98H4.49805Z" fill="#59BE92"/>
<path d="M18.6113 4.45337H20.1798V2.90037H18.6113V4.45337Z" fill="#59BE92"/>
<path d="M20.1798 4.45337H21.7483V2.90037H20.1798V4.45337Z" fill="#59BE92"/>
<path d="M6.06307 4.45337H7.63159V2.90037H6.06307V4.45337Z" fill="#59BE92"/>
<path d="M7.63167 4.45337H9.2002V2.90037H7.63167V4.45337Z" fill="#59BE92"/>
<path d="M6.06307 24.6392H7.63159V23.0862H6.06307V24.6392Z" fill="#59BE92"/>
<path d="M7.63167 24.6392H9.2002V23.0862H7.63167V24.6392Z" fill="#59BE92"/>
<path d="M15.4776 2.90039H17.0461V1.34739L15.4776 1.34739V2.90039Z" fill="#59BE92"/>
<path d="M13.9091 2.90039H15.4777V1.34739L13.9091 1.34739V2.90039Z" fill="#59BE92"/>
<path d="M12.3405 2.90039H13.9091V1.34739L12.3405 1.34739V2.90039Z" fill="#59BE92"/>
<path d="M10.7686 2.90039H12.3372V1.34739L10.7686 1.34739V2.90039Z" fill="#59BE92"/>
<path d="M9.20016 2.90039H10.7687V1.34739L9.20016 1.34739V2.90039Z" fill="#59BE92"/>
<path d="M17.0428 2.90039H18.6113V1.34739L17.0428 1.34739V2.90039Z" fill="#59BE92"/>
<path d="M12.3405 26.1921H13.9091V24.6391H12.3405V26.1921Z" fill="#59BE92"/>
<path d="M10.7686 26.1921H12.3372V24.6391H10.7686V26.1921Z" fill="#59BE92"/>
<path d="M9.20016 26.1921H10.7687V24.6391H9.20016V26.1921Z" fill="#59BE92"/>
<path d="M23.3169 6.00637V4.45337H21.7484V6.00637H23.3169Z" fill="#59BE92"/>
<path d="M6.06653 6.00637V4.45337H4.49801V6.00637H6.06653Z" fill="#59BE92"/>
<path d="M6.06653 23.086V21.533H4.49801V23.086H6.06653Z" fill="#59BE92"/>
<path d="M26.4504 12.2185V10.6655H24.8819V12.2185H26.4504Z" fill="#59BE92"/>
<path d="M26.4539 13.7715V12.2185H24.8853V13.7715H26.4539Z" fill="#59BE92"/>
<path d="M2.92944 10.6653V9.1123H1.36092V10.6653H2.92944Z" fill="#59BE92"/>
<path d="M2.92603 12.2185V10.6655H1.3575V12.2185H2.92603Z" fill="#59BE92"/>
<path d="M2.92944 13.7681V12.2151H1.36092V13.7681H2.92944Z" fill="#59BE92"/>
<path d="M2.92944 15.3211V13.7681H1.36092V15.3211H2.92944Z" fill="#59BE92"/>
<path d="M2.92944 16.874V15.321H1.36092V16.874H2.92944Z" fill="#59BE92"/>
<path d="M2.92944 18.427V16.874H1.36092V18.427H2.92944Z" fill="#59BE92"/>
<path d="M40.5672 26.1921H42.1357V24.6391H40.5672V26.1921Z" fill="#59BE92"/>
<path d="M42.1357 24.6392H43.7042V23.0862H42.1357V24.6392Z" fill="#59BE92"/>
<path d="M43.7042 24.6392H45.2727V23.0862H43.7042V24.6392Z" fill="#59BE92"/>
<path d="M42.1357 4.45337H43.7042V2.90037H42.1357V4.45337Z" fill="#59BE92"/>
<path d="M43.7042 4.45337H45.2727V2.90037H43.7042V4.45337Z" fill="#59BE92"/>
<path d="M29.5875 4.45337H31.156V2.90037H29.5875V4.45337Z" fill="#59BE92"/>
<path d="M31.1595 4.45337H32.728V2.90037H31.1595V4.45337Z" fill="#59BE92"/>
<path d="M46.8413 18.427V19.98H48.4098V18.427H46.8413Z" fill="#59BE92"/>
<path d="M46.8413 19.98V21.533H48.4098V19.98H46.8413Z" fill="#59BE92"/>
<path d="M46.8413 6.00315V7.55615H48.4098V6.00315H46.8413Z" fill="#59BE92"/>
<path d="M46.8413 7.55613V9.10913H48.4098V7.55613H46.8413Z" fill="#59BE92"/>
<path d="M26.4539 6.00315V7.55615H28.0224V6.00315H26.4539Z" fill="#59BE92"/>
<path d="M26.4539 7.55613V9.10913H28.0224V7.55613H26.4539Z" fill="#59BE92"/>
<path d="M48.4064 15.321V16.874H49.9749V15.321H48.4064Z" fill="#59BE92"/>
<path d="M48.4064 13.768V15.321H49.9749V13.768H48.4064Z" fill="#59BE92"/>
<path d="M48.4064 12.2151V13.7681H49.9749V12.2151H48.4064Z" fill="#59BE92"/>
<path d="M48.4098 10.6621V12.2151H49.9783V10.6621H48.4098Z" fill="#59BE92"/>
<path d="M48.4098 9.10911V10.6621H49.9783V9.10911H48.4098Z" fill="#59BE92"/>
<path d="M48.4064 16.874V18.427H49.9749V16.874H48.4064Z" fill="#59BE92"/>
<path d="M24.882 12.2151V13.7681H26.4505V12.2151H24.882Z" fill="#59BE92"/>
<path d="M24.8854 10.6621V12.2151H26.4539V10.6621H24.8854Z" fill="#59BE92"/>
<path d="M24.8854 9.10911V10.6621H26.4539V9.10911H24.8854Z" fill="#59BE92"/>
<path d="M45.2728 23.0859H46.8413V21.5329H45.2728V23.0859Z" fill="#59BE92"/>
<path d="M45.2728 6.00635H46.8413V4.45335H45.2728V6.00635Z" fill="#59BE92"/>
<path d="M28.019 6.00635H29.5875V4.45335H28.019V6.00635Z" fill="#59BE92"/>
<path d="M38.9986 26.1921H40.5671V24.6391H38.9986V26.1921Z" fill="#59BE92"/>
<path d="M37.4301 26.1921H38.9987V24.6391H37.4301V26.1921Z" fill="#59BE92"/>
<path d="M35.8617 26.1921H37.4302V24.6391H35.8617V26.1921Z" fill="#59BE92"/>
<path d="M40.5672 2.90039H42.1357V1.34739L40.5672 1.34739V2.90039Z" fill="#59BE92"/>
<path d="M38.9986 2.90039H40.5671V1.34739L38.9986 1.34739V2.90039Z" fill="#59BE92"/>
<path d="M37.4301 2.90039H38.9987V1.34739L37.4301 1.34739V2.90039Z" fill="#59BE92"/>
<path d="M35.8617 2.90039H37.4302V1.34739L35.8617 1.34739V2.90039Z" fill="#59BE92"/>
<path d="M34.2965 2.90039H35.865V1.34739L34.2965 1.34739V2.90039Z" fill="#59BE92"/>
<path d="M32.728 2.90039H34.2965V1.34739L32.728 1.34739V2.90039Z" fill="#59BE92"/>
<path d="M24.8854 40.1689V41.7219H26.4539V40.1689H24.8854Z" fill="#59BE92"/>
<path d="M26.4539 41.7187V43.2717H28.0224V41.7187H26.4539Z" fill="#59BE92"/>
<path d="M26.4539 43.2717V44.8247H28.0224V43.2717H26.4539Z" fill="#59BE92"/>
<path d="M46.8413 41.7187V43.2717H48.4098V41.7187H46.8413Z" fill="#59BE92"/>
<path d="M46.8413 43.2717V44.8247H48.4098V43.2717H46.8413Z" fill="#59BE92"/>
<path d="M46.8379 29.2981V30.8511H48.4064V29.2981H46.8379Z" fill="#59BE92"/>
<path d="M46.8379 30.8511V32.4041H48.4064V30.8511H46.8379Z" fill="#59BE92"/>
<path d="M32.7245 46.3811H31.156V47.9341H32.7245V46.3811Z" fill="#59BE92"/>
<path d="M31.1595 46.3811H29.5909V47.9341H31.1595V46.3811Z" fill="#59BE92"/>
<path d="M45.2727 46.3811H43.7042V47.9341H45.2727V46.3811Z" fill="#59BE92"/>
<path d="M43.7043 46.3811H42.1357V47.9341H43.7043V46.3811Z" fill="#59BE92"/>
<path d="M45.2727 26.1953H43.7042V27.7483H45.2727V26.1953Z" fill="#59BE92"/>
<path d="M43.7043 26.1953H42.1357V27.7483H43.7043V26.1953Z" fill="#59BE92"/>
<path d="M35.8616 47.9307H34.2931V49.4837H35.8616V47.9307Z" fill="#59BE92"/>
<path d="M37.4301 47.9307H35.8616V49.4837H37.4301V47.9307Z" fill="#59BE92"/>
<path d="M38.9987 47.9307H37.4302V49.4837H38.9987V47.9307Z" fill="#59BE92"/>
<path d="M40.5672 47.9307H38.9987V49.4837H40.5672V47.9307Z" fill="#59BE92"/>
<path d="M42.1357 47.9307H40.5671V49.4837H42.1357V47.9307Z" fill="#59BE92"/>
<path d="M34.2931 47.9307H32.7246V49.4837H34.2931V47.9307Z" fill="#59BE92"/>
<path d="M37.4301 24.6423H35.8616V26.1953H37.4301V24.6423Z" fill="#59BE92"/>
<path d="M38.9987 24.6423H37.4302V26.1953H38.9987V24.6423Z" fill="#59BE92"/>
<path d="M40.5672 24.6423H38.9987V26.1953H40.5672V24.6423Z" fill="#59BE92"/>
<path d="M42.1357 24.6423H40.5671V26.1953H42.1357V24.6423Z" fill="#59BE92"/>
<path d="M28.0225 44.8247V46.3777H29.591V44.8247H28.0225Z" fill="#59BE92"/>
<path d="M45.2761 44.8247V46.3777H46.8446V44.8247H45.2761Z" fill="#59BE92"/>
<path d="M45.2693 27.7451V29.2981H46.8378V27.7451H45.2693Z" fill="#59BE92"/>
<path d="M24.8854 38.6159V40.1689H26.4539V38.6159H24.8854Z" fill="#59BE92"/>
<path d="M24.8854 37.063V38.616H26.4539V37.063H24.8854Z" fill="#59BE92"/>
<path d="M48.4098 40.1657V41.7188H49.9783V40.1657H48.4098Z" fill="#59BE92"/>
<path d="M48.4098 38.6159V40.1689H49.9783V38.6159H48.4098Z" fill="#59BE92"/>
<path d="M48.4098 37.063V38.616H49.9783V37.063H48.4098Z" fill="#59BE92"/>
<path d="M48.4098 35.51V37.063H49.9783V35.51H48.4098Z" fill="#59BE92"/>
<path d="M48.4098 33.957V35.51H49.9783V33.957H48.4098Z" fill="#59BE92"/>
<path d="M48.4064 32.404V33.957H49.9749V32.404H48.4064Z" fill="#59BE92"/>
<path d="M46.8413 38.6159V40.1689H48.4098V38.6159H46.8413Z" fill="#00AC75"/>
<path d="M46.8413 37.063V38.616H48.4098V37.063H46.8413Z" fill="#00AC75"/>
<path d="M46.8413 35.51V37.063H48.4098V35.51H46.8413Z" fill="#00AC75"/>
<path d="M46.8413 33.957V35.51H48.4098V33.957H46.8413Z" fill="#00AC75"/>
<path d="M46.8379 32.404V33.957H48.4064V32.404H46.8379Z" fill="#00AC75"/>
<path d="M46.8413 40.1657V41.7188H48.4098V40.1657H46.8413Z" fill="#00AC75"/>
<path d="M45.2727 38.6159V40.1689H46.8412V38.6159H45.2727Z" fill="#00AC75"/>
<path d="M45.2727 37.063V38.616H46.8412V37.063H45.2727Z" fill="#00AC75"/>
<path d="M45.2727 35.51V37.063H46.8412V35.51H45.2727Z" fill="#00AC75"/>
<path d="M45.2727 33.957V35.51H46.8412V33.957H45.2727Z" fill="#00AC75"/>
<path d="M45.2727 32.404V33.957H46.8412V32.404H45.2727Z" fill="#00AC75"/>
<path d="M45.2727 30.8545V32.4075H46.8412V30.8545H45.2727Z" fill="#00AC75"/>
<path d="M45.2727 29.3015V30.8545H46.8412V29.3015H45.2727Z" fill="#00AC75"/>
<path d="M45.2727 40.1689V41.7219H46.8412V40.1689H45.2727Z" fill="#00AC75"/>
<path d="M45.2727 41.7221V43.2751H46.8412V41.7221H45.2727Z" fill="#00AC75"/>
<path d="M45.2727 43.2783V44.8313H46.8412V43.2783H45.2727Z" fill="#00AC75"/>
<path d="M43.7042 44.8247V46.3777H45.2727V44.8247H43.7042Z" fill="#00AC75"/>
<path d="M42.1357 44.8247V46.3777H43.7043V44.8247H42.1357Z" fill="#00AC75"/>
<path d="M43.7042 38.6159V40.1689H45.2727V38.6159H43.7042Z" fill="#32B686"/>
<path d="M43.7042 37.063V38.616H45.2727V37.063H43.7042Z" fill="#59BE92"/>
<path d="M43.7042 35.51V37.063H45.2727V35.51H43.7042Z" fill="#32B686"/>
<path d="M43.7042 33.957V35.51H45.2727V33.957H43.7042Z" fill="#32B686"/>
<path d="M43.7042 32.404V33.957H45.2727V32.404H43.7042Z" fill="#32B686"/>
<path d="M43.7042 40.1689V41.7219H45.2727V40.1689H43.7042Z" fill="#32B686"/>
<path d="M42.1357 38.6159V40.1689H43.7043V38.6159H42.1357Z" fill="#59BE92"/>
<path d="M42.1357 37.063V38.616H43.7043V37.063H42.1357Z" fill="#32B686"/>
<path d="M42.1357 35.51V37.063H43.7043V35.51H42.1357Z" fill="#59BE92"/>
<path d="M42.1357 33.957V35.51H43.7043V33.957H42.1357Z" fill="#59BE92"/>
<path d="M42.1357 32.404V33.957H43.7043V32.404H42.1357Z" fill="#59BE92"/>
<path d="M42.1357 40.1689V41.7219H43.7043V40.1689H42.1357Z" fill="#32B686"/>
<path d="M40.5671 38.6159V40.1689H42.1357V38.6159H40.5671Z" fill="#32B686"/>
<path d="M40.5671 37.063V38.616H42.1357V37.063H40.5671Z" fill="#59BE92"/>
<path d="M40.5671 35.51V37.063H42.1357V35.51H40.5671Z" fill="#59BE92"/>
<path d="M40.5671 33.957V35.51H42.1357V33.957H40.5671Z" fill="#59BE92"/>
<path d="M40.5671 32.404V33.957H42.1357V32.404H40.5671Z" fill="#59BE92"/>
<path d="M40.5706 40.1689V41.7219H42.1391V40.1689H40.5706Z" fill="#59BE92"/>
<path d="M39.0021 38.6159V40.1689H40.5706V38.6159H39.0021Z" fill="#59BE92"/>
<path d="M38.9987 37.063V38.616H40.5672V37.063H38.9987Z" fill="#59BE92"/>
<path d="M38.9987 35.51V37.063H40.5672V35.51H38.9987Z" fill="#59BE92"/>
<path d="M38.9987 33.957V35.51H40.5672V33.957H38.9987Z" fill="#59BE92"/>
<path d="M38.9987 32.404V33.957H40.5672V32.404H38.9987Z" fill="#59BE92"/>
<path d="M38.9987 40.1689V41.7219H40.5672V40.1689H38.9987Z" fill="#32B686"/>
<path d="M37.4302 38.6159V40.1689H38.9987V38.6159H37.4302Z" fill="#32B686"/>
<path d="M37.4336 37.063V38.616H39.0021V37.063H37.4336Z" fill="#59BE92"/>
<path d="M37.4302 35.51V37.063H38.9987V35.51H37.4302Z" fill="#59BE92"/>
<path d="M37.4302 33.957V35.51H38.9987V33.957H37.4302Z" fill="#59BE92"/>
<path d="M37.4302 32.404V33.957H38.9987V32.404H37.4302Z" fill="#59BE92"/>
<path d="M37.4302 40.1689V41.7219H38.9987V40.1689H37.4302Z" fill="#59BE92"/>
<path d="M35.8616 38.6159V40.1689H37.4301V38.6159H35.8616Z" fill="#32B686"/>
<path d="M35.8616 37.063V38.616H37.4301V37.063H35.8616Z" fill="#59BE92"/>
<path d="M35.865 35.51V37.063H37.4335V35.51H35.865Z" fill="#59BE92"/>
<path d="M35.8616 33.957V35.51H37.4301V33.957H35.8616Z" fill="#59BE92"/>
<path d="M35.8616 32.404V33.957H37.4301V32.404H35.8616Z" fill="#59BE92"/>
<path d="M35.8616 40.1689V41.7219H37.4301V40.1689H35.8616Z" fill="#32B686"/>
<path d="M34.2931 38.6159V40.1689H35.8616V38.6159H34.2931Z" fill="#32B686"/>
<path d="M34.2931 37.063V38.616H35.8616V37.063H34.2931Z" fill="#59BE92"/>
<path d="M34.2931 35.51V37.063H35.8616V35.51H34.2931Z" fill="#59BE92"/>
<path d="M34.2965 33.957V35.51H35.865V33.957H34.2965Z" fill="#59BE92"/>
<path d="M34.2931 32.404V33.957H35.8616V32.404H34.2931Z" fill="#59BE92"/>
<path d="M34.2931 40.1689V41.7219H35.8616V40.1689H34.2931Z" fill="#32B686"/>
<path d="M32.7246 38.6159V40.1689H34.2931V38.6159H32.7246Z" fill="#32B686"/>
<path d="M32.7246 37.063V38.616H34.2931V37.063H32.7246Z" fill="#59BE92"/>
<path d="M32.7246 35.51V37.063H34.2931V35.51H32.7246Z" fill="#59BE92"/>
<path d="M32.7246 33.957V35.51H34.2931V33.957H32.7246Z" fill="#59BE92"/>
<path d="M32.728 32.4074V33.9604H34.2965V32.4074H32.728Z" fill="#59BE92"/>
<path d="M32.7279 40.1689V41.7219H34.2964V40.1689H32.7279Z" fill="#32B686"/>
<path d="M31.1594 38.6128V40.1658H32.7279V38.6128H31.1594Z" fill="#32B686"/>
<path d="M31.1594 37.0598V38.6128H32.7279V37.0598H31.1594Z" fill="#32B686"/>
<path d="M31.156 35.51V37.063H32.7245V35.51H31.156Z" fill="#59BE92"/>
<path d="M31.1594 40.1689V41.7219H32.7279V40.1689H31.1594Z" fill="#32B686"/>
<path d="M29.5909 38.6128V40.1658H31.1595V38.6128H29.5909Z" fill="#32B686"/>
<path d="M29.5909 37.063V38.616H31.1595V37.063H29.5909Z" fill="#32B686"/>
<path d="M29.5875 35.51V37.063H31.156V35.51H29.5875Z" fill="#59BE92"/>
<path d="M29.5909 40.1657V41.7188H31.1595V40.1657H29.5909Z" fill="#32B686"/>
<path d="M28.0225 38.6128V40.1658H29.591V38.6128H28.0225Z" fill="#00AC75"/>
<path d="M28.0225 37.063V38.616H29.591V37.063H28.0225Z" fill="#00AC75"/>
<path d="M28.0225 35.51V37.063H29.591V35.51H28.0225Z" fill="#59BE92"/>
<path d="M28.0225 40.1657V41.7188H29.591V40.1657H28.0225Z" fill="#00AC75"/>
<path d="M43.7042 41.7221V43.2751H45.2727V41.7221H43.7042Z" fill="#00AC75"/>
<path d="M42.1357 41.7221V43.2751H43.7043V41.7221H42.1357Z" fill="#00AC75"/>
<path d="M40.5671 41.7221V43.2751H42.1357V41.7221H40.5671Z" fill="#00AC75"/>
<path d="M39.0021 41.7253V43.2783H40.5706V41.7253H39.0021Z" fill="#00AC75"/>
<path d="M37.4336 41.7253V43.2783H39.0021V41.7253H37.4336Z" fill="#00AC75"/>
<path d="M35.865 41.7253V43.2783H37.4335V41.7253H35.865Z" fill="#00AC75"/>
<path d="M34.2965 41.7253V43.2783H35.865V41.7253H34.2965Z" fill="#00AC75"/>
<path d="M32.728 41.7253V43.2783H34.2965V41.7253H32.728Z" fill="#00AC75"/>
<path d="M31.1594 41.7253V43.2783H32.7279V41.7253H31.1594Z" fill="#00AC75"/>
<path d="M29.5909 41.7221V43.2751H31.1595V41.7221H29.5909Z" fill="#00AC75"/>
<path d="M28.0225 41.7221V43.2751H29.591V41.7221H28.0225Z" fill="#00AC75"/>
<path d="M43.7042 43.2783V44.8313H45.2727V43.2783H43.7042Z" fill="#00AC75"/>
<path d="M42.1357 43.2783V44.8313H43.7043V43.2783H42.1357Z" fill="#00AC75"/>
<path d="M40.5671 43.2783V44.8313H42.1357V43.2783H40.5671Z" fill="#00AC75"/>
<path d="M38.9987 43.2783V44.8313H40.5672V43.2783H38.9987Z" fill="#00AC75"/>
<path d="M37.4302 43.2783V44.8313H38.9987V43.2783H37.4302Z" fill="#00AC75"/>
<path d="M35.8616 43.2783V44.8313H37.4301V43.2783H35.8616Z" fill="#00AC75"/>
<path d="M34.2931 43.2783V44.8313H35.8616V43.2783H34.2931Z" fill="#00AC75"/>
<path d="M32.7246 43.2783V44.8313H34.2931V43.2783H32.7246Z" fill="#00AC75"/>
<path d="M31.156 43.2817V44.8347H32.7245V43.2817H31.156Z" fill="#00AC75"/>
<path d="M29.5875 43.2783V44.8313H31.156V43.2783H29.5875Z" fill="#00AC75"/>
<path d="M40.5671 44.8281V46.3811H42.1357V44.8281H40.5671Z" fill="#0DAE89"/>
<path d="M38.9987 44.8281V46.3811H40.5672V44.8281H38.9987Z" fill="#0DAE89"/>
<path d="M37.4336 44.8281V46.3811H39.0021V44.8281H37.4336Z" fill="#0DAE89"/>
<path d="M35.865 44.8281V46.3811H37.4335V44.8281H35.865Z" fill="#0DAE89"/>
<path d="M34.2965 44.8281V46.3811H35.865V44.8281H34.2965Z" fill="#0DAE89"/>
<path d="M32.728 44.8281V46.3811H34.2965V44.8281H32.728Z" fill="#0DAE89"/>
<path d="M40.5671 46.3811V47.9341H42.1357V46.3811H40.5671Z" fill="#00AC75"/>
<path d="M38.9987 46.3811V47.9341H40.5672V46.3811H38.9987Z" fill="#00AC75"/>
<path d="M37.4302 46.3811V47.9341H38.9987V46.3811H37.4302Z" fill="#00AC75"/>
<path d="M35.8616 46.3811V47.9341H37.4301V46.3811H35.8616Z" fill="#00AC75"/>
<path d="M34.2931 46.3845V47.9375H35.8616V46.3845H34.2931Z" fill="#00AC75"/>
<path d="M32.7246 46.3845V47.9375H34.2931V46.3845H32.7246Z" fill="#00AC75"/>
<path d="M31.1594 44.8281V46.3811H32.7279V44.8281H31.1594Z" fill="#0DAE89"/>
<path d="M29.5909 44.8247V46.3777H31.1595V44.8247H29.5909Z" fill="#0DAE89"/>
<path d="M28.019 43.2783V44.8313H29.5876V43.2783H28.019Z" fill="#00AC75"/>
<path d="M26.4539 38.6159V40.1689H28.0224V38.6159H26.4539Z" fill="#00AC75"/>
<path d="M26.4539 37.063V38.616H28.0224V37.063H26.4539Z" fill="#00AC75"/>
<path d="M26.4539 35.51V37.063H28.0224V35.51H26.4539Z" fill="#59BE92"/>
<path d="M31.156 33.9604V35.5134H32.7245V33.9604H31.156Z" fill="#59BE92"/>
<path d="M29.5875 33.957V35.51H31.156V33.957H29.5875Z" fill="#59BE92"/>
<path d="M28.019 33.957V35.51H29.5876V33.957H28.019Z" fill="#59BE92"/>
<path d="M26.4539 33.957V35.51H28.0224V33.957H26.4539Z" fill="#59BE92"/>
<path d="M24.8854 35.51V37.063H26.4539V35.51H24.8854Z" fill="#59BE92"/>
<path d="M23.3169 35.51V37.063H24.8854V35.51H23.3169Z" fill="#59BE92"/>
<path d="M24.8854 33.957V35.51H26.4539V33.957H24.8854Z" fill="#59BE92"/>
<path d="M23.3169 33.957V35.51H24.8854V33.957H23.3169Z" fill="#59BE92"/>
<path d="M29.5909 32.404V33.957H31.1595V32.404H29.5909Z" fill="#59BE92"/>
<path d="M31.156 32.4074V33.9604H32.7245V32.4074H31.156Z" fill="#59BE92"/>
<path d="M28.0225 32.404V33.957H29.591V32.404H28.0225Z" fill="#59BE92"/>
<path d="M26.4539 32.4074V33.9604H28.0224V32.4074H26.4539Z" fill="#59BE92"/>
<path d="M24.8854 32.4074V33.9604H26.4539V32.4074H24.8854Z" fill="#59BE92"/>
<path d="M23.3169 32.4074V33.9604H24.8854V32.4074H23.3169Z" fill="#59BE92"/>
<path d="M21.7483 35.51V37.063H23.3168V35.51H21.7483Z" fill="#59BE92"/>
<path d="M21.7483 33.957V35.51H23.3168V33.957H21.7483Z" fill="#59BE92"/>
<path d="M21.7483 32.404V33.957H23.3168V32.404H21.7483Z" fill="#59BE92"/>
<path d="M20.1798 32.404V33.957H21.7483V32.404H20.1798Z" fill="#59BE92"/>
<path d="M21.7483 30.8511V32.4041H23.3168V30.8511H21.7483Z" fill="#59BE92"/>
<path d="M20.1798 30.8511V32.4041H21.7483V30.8511H20.1798Z" fill="#59BE92"/>
<path d="M43.7042 30.8511V32.4041H45.2727V30.8511H43.7042Z" fill="#32B686"/>
<path d="M43.7008 29.2981V30.8511H45.2693V29.2981H43.7008Z" fill="#32B686"/>
<path d="M42.1357 30.8511V32.4041H43.7043V30.8511H42.1357Z" fill="#59BE92"/>
<path d="M42.1357 29.2981V30.8511H43.7043V29.2981H42.1357Z" fill="#59BE92"/>
<path d="M40.5671 30.8511V32.4041H42.1357V30.8511H40.5671Z" fill="#59BE92"/>
<path d="M40.5671 29.2981V30.8511H42.1357V29.2981H40.5671Z" fill="#32B686"/>
<path d="M38.9987 30.8511V32.4041H40.5672V30.8511H38.9987Z" fill="#59BE92"/>
<path d="M38.9987 29.2981V30.8511H40.5672V29.2981H38.9987Z" fill="#59BE92"/>
<path d="M37.4302 30.8511V32.4041H38.9987V30.8511H37.4302Z" fill="#59BE92"/>
<path d="M37.4302 29.2981V30.8511H38.9987V29.2981H37.4302Z" fill="#59BE92"/>
<path d="M43.7042 27.7485V29.3015H45.2727V27.7485H43.7042Z" fill="#32B686"/>
<path d="M42.1357 27.7485V29.3015H43.7043V27.7485H42.1357Z" fill="#59BE92"/>
<path d="M40.5671 27.7485V29.3015H42.1357V27.7485H40.5671Z" fill="#59BE92"/>
<path d="M38.9987 27.7485V29.3015H40.5672V27.7485H38.9987Z" fill="#59BE92"/>
<path d="M37.4302 27.7485V29.3015H38.9987V27.7485H37.4302Z" fill="#59BE92"/>
<path d="M40.5671 26.1953V27.7483H42.1357V26.1953H40.5671Z" fill="#59BE92"/>
<path d="M38.9987 26.1953V27.7483H40.5672V26.1953H38.9987Z" fill="#59BE92"/>
<path d="M37.4302 26.1953V27.7483H38.9987V26.1953H37.4302Z" fill="#59BE92"/>
<path d="M35.8616 30.8511V32.4041H37.4301V30.8511H35.8616Z" fill="#59BE92"/>
<path d="M35.8616 29.3015V30.8545H37.4301V29.3015H35.8616Z" fill="#59BE92"/>
<path d="M34.2931 30.8545V32.4075H35.8616V30.8545H34.2931Z" fill="#59BE92"/>
<path d="M34.2931 29.3015V30.8545H35.8616V29.3015H34.2931Z" fill="#59BE92"/>
<path d="M32.7246 30.8545V32.4075H34.2931V30.8545H32.7246Z" fill="#59BE92"/>
<path d="M31.1594 30.8545V32.4075H32.7279V30.8545H31.1594Z" fill="#59BE92"/>
<path d="M29.5875 30.8511V32.4041H31.156V30.8511H29.5875Z" fill="#59BE92"/>
<path d="M28.019 30.8511V32.4041H29.5876V30.8511H28.019Z" fill="#59BE92"/>
<path d="M32.7246 29.3015V30.8545H34.2931V29.3015H32.7246Z" fill="#59BE92"/>
<path d="M31.156 29.3015V30.8545H32.7245V29.3015H31.156Z" fill="#59BE92"/>
<path d="M29.5909 29.2981V30.8511H31.1595V29.2981H29.5909Z" fill="#59BE92"/>
<path d="M28.019 29.2981V30.8511H29.5876V29.2981H28.019Z" fill="#59BE92"/>
<path d="M26.4504 30.8511V32.4041H28.019V30.8511H26.4504Z" fill="#59BE92"/>
<path d="M24.882 30.8511V32.4041H26.4505V30.8511H24.882Z" fill="#59BE92"/>
<path d="M26.4504 29.2981V30.8511H28.019V29.2981H26.4504Z" fill="#59BE92"/>
<path d="M24.882 29.2981V30.8511H26.4505V29.2981H24.882Z" fill="#59BE92"/>
<path d="M23.3169 30.8511V32.4041H24.8854V30.8511H23.3169Z" fill="#59BE92"/>
<path d="M23.3135 29.2981V30.8511H24.882V29.2981H23.3135Z" fill="#59BE92"/>
<path d="M35.8616 27.7485V29.3015H37.4301V27.7485H35.8616Z" fill="#59BE92"/>
<path d="M35.8616 26.1953V27.7483H37.4301V26.1953H35.8616Z" fill="#59BE92"/>
<path d="M34.2931 27.7485V29.3015H35.8616V27.7485H34.2931Z" fill="#59BE92"/>
<path d="M34.2931 26.1953V27.7483H35.8616V26.1953H34.2931Z" fill="#59BE92"/>
<path d="M32.7246 27.7485V29.3015H34.2931V27.7485H32.7246Z" fill="#59BE92"/>
<path d="M32.7246 26.1987V27.7517H34.2931V26.1987H32.7246Z" fill="#59BE92"/>
<path d="M31.156 27.7517V29.3047H32.7245V27.7517H31.156Z" fill="#59BE92"/>
<path d="M31.156 26.1987V27.7517H32.7245V26.1987H31.156Z" fill="#59BE92"/>
<path d="M29.5875 27.7485V29.3015H31.156V27.7485H29.5875Z" fill="#59BE92"/>
<path d="M29.5875 26.1953V27.7483H31.156V26.1953H29.5875Z" fill="#59BE92"/>
<path d="M28.019 27.7485V29.3015H29.5876V27.7485H28.019Z" fill="#59BE92"/>
<path d="M28.019 26.1953V27.7483H29.5876V26.1953H28.019Z" fill="#59BE92"/>
<path d="M26.4504 27.7485V29.3015H28.019V27.7485H26.4504Z" fill="#59BE92"/>
<path d="M26.4504 26.1953V27.7483H28.019V26.1953H26.4504Z" fill="#59BE92"/>
<path d="M24.8854 27.7485V29.3015H26.4539V27.7485H24.8854Z" fill="#59BE92"/>
<path d="M23.3169 27.7485V29.3015H24.8854V27.7485H23.3169Z" fill="#59BE92"/>
<path d="M21.7483 27.7485V29.3015H23.3168V27.7485H21.7483Z" fill="#59BE92"/>
<path d="M20.1798 27.7485V29.3015H21.7483V27.7485H20.1798Z" fill="#59BE92"/>
<path d="M24.882 26.1953V27.7483H26.4505V26.1953H24.882Z" fill="#59BE92"/>
<path d="M23.3169 26.1953V27.7483H24.8854V26.1953H23.3169Z" fill="#59BE92"/>
<path d="M21.7483 26.1953V27.7483H23.3168V26.1953H21.7483Z" fill="#59BE92"/>
<path d="M20.1798 26.1953V27.7483H21.7483V26.1953H20.1798Z" fill="#59BE92"/>
<path d="M18.6113 27.7485V29.3015H20.1798V27.7485H18.6113Z" fill="#59BE92"/>
<path d="M17.0427 27.7485V29.3015H18.6112V27.7485H17.0427Z" fill="#59BE92"/>
<path d="M18.6113 26.1953V27.7483H20.1798V26.1953H18.6113Z" fill="#59BE92"/>
<path d="M17.0427 26.1953V27.7483H18.6112V26.1953H17.0427Z" fill="#59BE92"/>
<path d="M15.4742 27.7485V29.3015H17.0428V27.7485H15.4742Z" fill="#59BE92"/>
<path d="M21.7483 29.2981V30.8511H23.3168V29.2981H21.7483Z" fill="#59BE92"/>
<path d="M20.1798 29.2981V30.8511H21.7483V29.2981H20.1798Z" fill="#59BE92"/>
<path d="M18.6113 29.2981V30.8511H20.1798V29.2981H18.6113Z" fill="#59BE92"/>
<path d="M17.0427 29.2981V30.8511H18.6112V29.2981H17.0427Z" fill="#59BE92"/>
<path d="M15.4742 29.2981V30.8511H17.0428V29.2981H15.4742Z" fill="#59BE92"/>
<path d="M13.9058 29.3015V30.8545H15.4743V29.3015H13.9058Z" fill="#59BE92"/>
<path d="M12.3372 29.3015V30.8545H13.9057V29.3015H12.3372Z" fill="#59BE92"/>
<path d="M10.7687 29.3015V30.8545H12.3372V29.3015H10.7687Z" fill="#32B686"/>
<path d="M9.2002 29.2981V30.8511H10.7687V29.2981H9.2002Z" fill="#32B686"/>
<path d="M9.2002 27.7485V29.3015H10.7687V27.7485H9.2002Z" fill="#32B686"/>
<path d="M9.2002 26.1953V27.7483H10.7687V26.1953H9.2002Z" fill="#32B686"/>
<path d="M7.63159 29.2981V30.8511H9.20011V29.2981H7.63159Z" fill="#32B686"/>
<path d="M15.4742 26.1953V27.7483H17.0428V26.1953H15.4742Z" fill="#59BE92"/>
<path d="M13.9058 27.7485V29.3015H15.4743V27.7485H13.9058Z" fill="#59BE92"/>
<path d="M12.3372 27.7485V29.3015H13.9057V27.7485H12.3372Z" fill="#59BE92"/>
<path d="M13.9058 26.1953V27.7483H15.4743V26.1953H13.9058Z" fill="#59BE92"/>
<path d="M12.3372 26.1987V27.7517H13.9057V26.1987H12.3372Z" fill="#59BE92"/>
<path d="M10.7687 27.7517V29.3047H12.3372V27.7517H10.7687Z" fill="#32B686"/>
<path d="M10.7687 26.1987V27.7517H12.3372V26.1987H10.7687Z" fill="#32B686"/>
<path d="M26.4539 40.1657V41.7188H28.0224V40.1657H26.4539Z" fill="#00AC75"/>
<path d="M23.3169 38.6159V40.1689H24.8854V38.6159H23.3169Z" fill="#00AC75"/>
<path d="M23.3169 37.063V38.616H24.8854V37.063H23.3169Z" fill="#00AC75"/>
<path d="M23.3169 40.1689V41.7219H24.8854V40.1689H23.3169Z" fill="#00AC75"/>
<path d="M21.7483 38.6159V40.1689H23.3168V38.6159H21.7483Z" fill="#00AC75"/>
<path d="M21.7483 37.063V38.616H23.3168V37.063H21.7483Z" fill="#00AC75"/>
<path d="M21.7483 40.1689V41.7219H23.3168V40.1689H21.7483Z" fill="#00AC75"/>
<path d="M21.7483 41.7221V43.2751H23.3168V41.7221H21.7483Z" fill="#00AC75"/>
<path d="M21.7483 43.2783V44.8313H23.3168V43.2783H21.7483Z" fill="#00AC75"/>
<path d="M20.1798 44.8281V46.3811H21.7483V44.8281H20.1798Z" fill="#00AC75"/>
<path d="M18.6113 44.8281V46.3811H20.1798V44.8281H18.6113Z" fill="#00AC75"/>
<path d="M20.1798 38.6159V40.1689H21.7483V38.6159H20.1798Z" fill="#32B686"/>
<path d="M20.1798 37.063V38.616H21.7483V37.063H20.1798Z" fill="#32B686"/>
<path d="M20.1798 40.1689V41.7219H21.7483V40.1689H20.1798Z" fill="#32B686"/>
<path d="M18.6113 38.6159V40.1689H20.1798V38.6159H18.6113Z" fill="#59BE92"/>
<path d="M18.6113 37.063V38.616H20.1798V37.063H18.6113Z" fill="#59BE92"/>
<path d="M18.6113 40.1689V41.7219H20.1798V40.1689H18.6113Z" fill="#32B686"/>
<path d="M17.0427 38.6159V40.1689H18.6112V38.6159H17.0427Z" fill="#32B686"/>
<path d="M17.0427 37.063V38.616H18.6112V37.063H17.0427Z" fill="#59BE92"/>
<path d="M17.0427 40.1689V41.7219H18.6112V40.1689H17.0427Z" fill="#32B686"/>
<path d="M15.4742 38.6159V40.1689H17.0428V38.6159H15.4742Z" fill="#59BE92"/>
<path d="M15.4742 37.063V38.616H17.0428V37.063H15.4742Z" fill="#32B686"/>
<path d="M15.4742 40.1689V41.7219H17.0428V40.1689H15.4742Z" fill="#32B686"/>
<path d="M13.9058 38.6159V40.1689H15.4743V38.6159H13.9058Z" fill="#59BE92"/>
<path d="M13.9058 37.063V38.616H15.4743V37.063H13.9058Z" fill="#59BE92"/>
<path d="M13.9058 40.1689V41.7219H15.4743V40.1689H13.9058Z" fill="#32B686"/>
<path d="M12.3372 38.6159V40.1689H13.9057V38.6159H12.3372Z" fill="#32B686"/>
<path d="M12.3372 37.063V38.616H13.9057V37.063H12.3372Z" fill="#32B686"/>
<path d="M12.3406 40.1689V41.7219H13.9091V40.1689H12.3406Z" fill="#32B686"/>
<path d="M10.7721 38.6159V40.1689H12.3406V38.6159H10.7721Z" fill="#32B686"/>
<path d="M10.7687 37.063V38.616H12.3372V37.063H10.7687Z" fill="#32B686"/>
<path d="M10.7721 40.1689V41.7219H12.3406V40.1689H10.7721Z" fill="#32B686"/>
<path d="M9.20349 38.6128V40.1658H10.772V38.6128H9.20349Z" fill="#32B686"/>
<path d="M9.20349 37.0598V38.6128H10.772V37.0598H9.20349Z" fill="#32B686"/>
<path d="M9.20349 40.1657V41.7188H10.772V40.1657H9.20349Z" fill="#32B686"/>
<path d="M7.63501 38.6128V40.1658H9.20353V38.6128H7.63501Z" fill="#32B686"/>
<path d="M7.63501 37.063V38.616H9.20353V37.063H7.63501Z" fill="#32B686"/>
<path d="M7.63501 40.1658V41.7188H9.20353V40.1658H7.63501Z" fill="#32B686"/>
<path d="M6.06653 38.6159V40.1689H7.63505V38.6159H6.06653Z" fill="#00AC75"/>
<path d="M6.06653 37.063V38.616H7.63505V37.063H6.06653Z" fill="#00AC75"/>
<path d="M6.06653 40.1657V41.7188H7.63505V40.1657H6.06653Z" fill="#00AC75"/>
<path d="M4.49805 38.6159V40.1689H6.06657V38.6159H4.49805Z" fill="#00AC75"/>
<path d="M4.49805 37.063V38.616H6.06657V37.063H4.49805Z" fill="#00AC75"/>
<path d="M4.49805 40.1689V41.7219H6.06657V40.1689H4.49805Z" fill="#00AC75"/>
<path d="M20.1832 41.7221V43.2751H21.7517V41.7221H20.1832Z" fill="#00AC75"/>
<path d="M18.6146 41.7253V43.2783H20.1831V41.7253H18.6146Z" fill="#00AC75"/>
<path d="M17.0461 41.7253V43.2783H18.6147V41.7253H17.0461Z" fill="#00AC75"/>
<path d="M15.4777 41.7253V43.2783H17.0462V41.7253H15.4777Z" fill="#00AC75"/>
<path d="M13.9091 41.7253V43.2783H15.4776V41.7253H13.9091Z" fill="#00AC75"/>
<path d="M12.3406 41.7253V43.2783H13.9091V41.7253H12.3406Z" fill="#00AC75"/>
<path d="M10.7721 41.7253V43.2783H12.3406V41.7253H10.7721Z" fill="#00AC75"/>
<path d="M9.20361 41.7221V43.2751H10.7721V41.7221H9.20361Z" fill="#00AC75"/>
<path d="M7.63501 41.7221V43.2751H9.20353V41.7221H7.63501Z" fill="#00AC75"/>
<path d="M6.06653 41.7221V43.2751H7.63505V41.7221H6.06653Z" fill="#00AC75"/>
<path d="M4.49805 41.7221V43.2751H6.06657V41.7221H4.49805Z" fill="#00AC75"/>
<path d="M20.1798 43.2783V44.8313H21.7483V43.2783H20.1798Z" fill="#00AC75"/>
<path d="M18.6113 43.2783V44.8313H20.1798V43.2783H18.6113Z" fill="#00AC75"/>
<path d="M17.0427 43.2783V44.8313H18.6112V43.2783H17.0427Z" fill="#00AC75"/>
<path d="M15.4742 43.2783V44.8313H17.0428V43.2783H15.4742Z" fill="#00AC75"/>
<path d="M13.9058 43.2783V44.8313H15.4743V43.2783H13.9058Z" fill="#00AC75"/>
<path d="M10.7687 43.2817V44.8347H12.3372V43.2817H10.7687Z" fill="#00AC75"/>
<path d="M12.3372 43.2783V44.8313H13.9057V43.2783H12.3372Z" fill="#00AC75"/>
<path d="M9.2002 43.2783V44.8313H10.7687V43.2783H9.2002Z" fill="#00AC75"/>
<path d="M7.63159 43.2783V44.8313H9.20011V43.2783H7.63159Z" fill="#00AC75"/>
<path d="M6.06653 43.2783V44.8313H7.63505V43.2783H6.06653Z" fill="#00AC75"/>
<path d="M17.0461 44.8281V46.3811H18.6147V44.8281H17.0461Z" fill="#00AC75"/>
<path d="M15.4777 44.8281V46.3811H17.0462V44.8281H15.4777Z" fill="#00AC75"/>
<path d="M13.9091 44.8281V46.3811H15.4776V44.8281H13.9091Z" fill="#00AC75"/>
<path d="M12.3406 44.8281V46.3811H13.9091V44.8281H12.3406Z" fill="#00AC75"/>
<path d="M10.7721 44.8281V46.3811H12.3406V44.8281H10.7721Z" fill="#00AC75"/>
<path d="M9.20361 44.8247V46.3777H10.7721V44.8247H9.20361Z" fill="#00AC75"/>
<path d="M17.0427 46.3811V47.9341H18.6112V46.3811H17.0427Z" fill="#0DAE89"/>
<path d="M15.4742 46.3811V47.9341H17.0428V46.3811H15.4742Z" fill="#0DAE89"/>
<path d="M13.9058 46.3845V47.9375H15.4743V46.3845H13.9058Z" fill="#0DAE89"/>
<path d="M12.3372 46.3845V47.9375H13.9057V46.3845H12.3372Z" fill="#0DAE89"/>
<path d="M10.7687 46.3845V47.9375H12.3372V46.3845H10.7687Z" fill="#0DAE89"/>
<path d="M9.2002 46.3811V47.9341H10.7687V46.3811H9.2002Z" fill="#0DAE89"/>
<path d="M7.63501 44.8247V46.3777H9.20353V44.8247H7.63501Z" fill="#00AC75"/>
<path d="M6.06653 44.8247V46.3777H7.63504V44.8247H6.06653Z" fill="#00AC75"/>
<path d="M4.49805 43.2783V44.8313H6.06657V43.2783H4.49805Z" fill="#00AC75"/>
<path d="M2.92944 38.6159V40.1689H4.49796V38.6159H2.92944Z" fill="#00AC75"/>
<path d="M2.92944 37.063V38.616H4.49796V37.063H2.92944Z" fill="#00AC75"/>
<path d="M20.1798 35.51V37.063H21.7483V35.51H20.1798Z" fill="#59BE92"/>
<path d="M20.1798 33.957V35.51H21.7483V33.957H20.1798Z" fill="#59BE92"/>
<path d="M18.6113 35.51V37.063H20.1798V35.51H18.6113Z" fill="#59BE92"/>
<path d="M18.6113 33.957V35.51H20.1798V33.957H18.6113Z" fill="#59BE92"/>
<path d="M17.0427 35.51V37.063H18.6112V35.51H17.0427Z" fill="#59BE92"/>
<path d="M17.0427 33.957V35.51H18.6112V33.957H17.0427Z" fill="#59BE92"/>
<path d="M15.4742 35.51V37.063H17.0428V35.51H15.4742Z" fill="#59BE92"/>
<path d="M15.4742 33.957V35.51H17.0428V33.957H15.4742Z" fill="#59BE92"/>
<path d="M13.9058 35.51V37.063H15.4743V35.51H13.9058Z" fill="#59BE92"/>
<path d="M13.9058 33.957V35.51H15.4743V33.957H13.9058Z" fill="#59BE92"/>
<path d="M12.3372 35.51V37.063H13.9057V35.51H12.3372Z" fill="#59BE92"/>
<path d="M12.3372 33.957V35.51H13.9057V33.957H12.3372Z" fill="#59BE92"/>
<path d="M10.7687 35.51V37.063H12.3372V35.51H10.7687Z" fill="#32B686"/>
<path d="M10.7687 33.9604V35.5134H12.3372V33.9604H10.7687Z" fill="#32B686"/>
<path d="M9.2002 35.51V37.063H10.7687V35.51H9.2002Z" fill="#32B686"/>
<path d="M9.2002 33.957V35.51H10.7687V33.957H9.2002Z" fill="#32B686"/>
<path d="M7.63501 35.51V37.063H9.20353V35.51H7.63501Z" fill="#32B686"/>
<path d="M7.63159 33.957V35.51H9.20011V33.957H7.63159Z" fill="#32B686"/>
<path d="M6.06653 35.51V37.063H7.63505V35.51H6.06653Z" fill="#00AC75"/>
<path d="M6.06653 33.957V35.51H7.63505V33.957H6.06653Z" fill="#00AC75"/>
<path d="M4.49805 35.51V37.063H6.06657V35.51H4.49805Z" fill="#00AC75"/>
<path d="M4.49805 33.957V35.51H6.06657V33.957H4.49805Z" fill="#00AC75"/>
<path d="M2.92944 35.51V37.063H4.49796V35.51H2.92944Z" fill="#00AC75"/>
<path d="M2.92944 33.957V35.51H4.49796V33.957H2.92944Z" fill="#00AC75"/>
<path d="M18.6113 32.404V33.957H20.1798V32.404H18.6113Z" fill="#59BE92"/>
<path d="M17.0427 32.404V33.957H18.6112V32.404H17.0427Z" fill="#59BE92"/>
<path d="M15.4742 32.404V33.957H17.0428V32.404H15.4742Z" fill="#59BE92"/>
<path d="M13.9058 32.404V33.957H15.4743V32.404H13.9058Z" fill="#59BE92"/>
<path d="M12.3372 32.4074V33.9604H13.9057V32.4074H12.3372Z" fill="#59BE92"/>
<path d="M10.7687 32.4074V33.9604H12.3372V32.4074H10.7687Z" fill="#32B686"/>
<path d="M9.2002 32.404V33.957H10.7687V32.404H9.2002Z" fill="#32B686"/>
<path d="M7.63159 32.404V33.957H9.20011V32.404H7.63159Z" fill="#32B686"/>
<path d="M6.06311 32.404V33.957H7.63163V32.404H6.06311Z" fill="#00AC75"/>
<path d="M4.49805 32.404V33.957H6.06657V32.404H4.49805Z" fill="#00AC75"/>
<path d="M18.6113 30.8511V32.4041H20.1798V30.8511H18.6113Z" fill="#59BE92"/>
<path d="M17.0427 30.8511V32.4041H18.6112V30.8511H17.0427Z" fill="#59BE92"/>
<path d="M15.4742 30.8511V32.4041H17.0428V30.8511H15.4742Z" fill="#59BE92"/>
<path d="M13.9058 30.8545V32.4075H15.4743V30.8545H13.9058Z" fill="#59BE92"/>
<path d="M12.3372 30.8545V32.4075H13.9057V30.8545H12.3372Z" fill="#59BE92"/>
<path d="M10.7687 30.8545V32.4075H12.3372V30.8545H10.7687Z" fill="#32B686"/>
<path d="M9.2002 30.8511V32.4041H10.7687V30.8511H9.2002Z" fill="#32B686"/>
<path d="M7.63159 30.8511V32.4041H9.20011V30.8511H7.63159Z" fill="#32B686"/>
<path d="M6.06311 30.8511V32.4041H7.63163V30.8511H6.06311Z" fill="#00AC75"/>
<path d="M4.49463 30.8511V32.4041H6.06315V30.8511H4.49463Z" fill="#00AC75"/>
<path d="M6.06653 29.3015V30.8545H7.63505V29.3015H6.06653Z" fill="#00AC75"/>
<path d="M7.63501 27.7451V29.2981H9.20353V27.7451H7.63501Z" fill="#32B686"/>
<path d="M6.06653 27.7485V29.3015H7.63505V27.7485H6.06653Z" fill="#00AC75"/>
<path d="M4.49805 29.3015V30.8545H6.06657V29.3015H4.49805Z" fill="#00AC75"/>
<path d="M2.92944 32.404V33.957H4.49796V32.404H2.92944Z" fill="#00AC75"/>
<path d="M2.92944 40.1689V41.7219H4.49796V40.1689H2.92944Z" fill="#00AC75"/>
<path d="M26.4539 27.7451V26.1921H24.8853V27.7451H26.4539Z" fill="#59BE92"/>
<path d="M38.9988 29.3015V27.7485H37.4303V29.3015H38.9988Z" fill="#F9D0E2"/>
<path d="M37.4336 30.8511V29.2981H35.8651V30.8511H37.4336Z" fill="#F7BBD5"/>
<path d="M39.0022 30.8511V29.2981H37.4337V30.8511H39.0022Z" fill="#F7BBD5"/>
<path d="M40.5673 30.8511V29.2981H38.9987V30.8511H40.5673Z" fill="#F7BBD5"/>
<path d="M37.4302 29.3015V27.7485H35.8617V29.3015H37.4302Z" fill="#F9D0E2"/>
<path d="M40.5673 29.3015V27.7485H38.9987V29.3015H40.5673Z" fill="#F9D0E2"/>
<path d="M20.1798 30.8511V29.2981H18.6113V30.8511H20.1798Z" fill="#F7BBD5"/>
<path d="M21.7484 30.8511V29.2981H20.1799V30.8511H21.7484Z" fill="#F7BBD5"/>
<path d="M23.3169 30.8511V29.2981H21.7484V30.8511H23.3169Z" fill="#F7BBD5"/>
<path d="M20.1798 29.3015V27.7485H18.6113V29.3015H20.1798Z" fill="#F9D0E2"/>
<path d="M21.7484 29.3015V27.7485H20.1799V29.3015H21.7484Z" fill="#F9D0E2"/>
<path d="M23.3169 29.3015V27.7485H21.7484V29.3015H23.3169Z" fill="#F9D0E2"/>
<path d="M24.8854 26.1956V24.6426H23.3169V26.1956H24.8854Z" fill="#184742"/>
<path d="M26.454 27.752V26.199H24.8855V27.752H26.454Z" fill="white"/>
<path d="M26.454 26.1956V24.6426H24.8855V26.1956H26.454Z" fill="#184742"/>
<path d="M24.8854 27.7486V26.1956H23.3169V27.7486H24.8854Z" fill="#184742"/>
<path d="M34.2965 26.1956V24.6426H32.728V26.1956H34.2965Z" fill="#184742"/>
<path d="M35.8651 27.7486V26.1956H34.2966V27.7486H35.8651Z" fill="white"/>
<path d="M34.2965 27.7486V26.1956H32.728V27.7486H34.2965Z" fill="#184742"/>
<path d="M35.8651 26.1956V24.6426H34.2966V26.1956H35.8651Z" fill="#184742"/>
<path d="M26.4539 30.8545V29.3015H24.8853V30.8545H26.4539Z" fill="#184742"/>
<path d="M28.0225 32.4075V30.8545H26.4539V32.4075H28.0225Z" fill="#184742"/>
<path d="M29.5909 32.4075V30.8545H28.0224V32.4075H29.5909Z" fill="#184742"/>
<path d="M34.2965 30.8511V29.2981H32.728V30.8511H34.2965Z" fill="#184742"/>
<path d="M32.728 32.4041V30.8511H31.1595V32.4041H32.728Z" fill="#184742"/>
<path d="M31.1594 32.4075V30.8545H29.5909V32.4075H31.1594Z" fill="#184742"/>
<path d="M52.394 45.3807V44.077H51.5162V42.6992H50.4921V41.4662H49.7606V39.2934H48.6616V38.2794H48.0015V36.9016H47.1951V35.5237H46.2424V34.7253H28.5906V36.1739H26.835V36.9723H14.6849V39.29H8.09778V44.3768H9.48937V46.7687H10.3672V49.0156H11.245V50.828H12.344V52.6404H13.1504V54.2339H14.3957V55.8273H14.6883V58.0001H19.8974V56.8413H24.29V55.6824H27.3623V54.884H38.6346V53.075H42.4419V51.9869H47.0522V50.828H53.5645V45.3807H52.394Z" fill="#184742"/>
<path d="M51.0331 45.1819H50.1518V43.8074H49.1277V42.5744H48.3962V40.4016H47.3006V39.3876H46.6405V38.0098H45.8342V36.6319H44.8849V35.8369H29.955V37.2855H28.1959V38.0805H16.0493V40.4016H9.46216V42.79H10.8504V45.1819H11.7282V47.4288H12.6094V49.2412H13.705V51.0536H14.5114V52.647H15.7567V54.2405H16.0493V56.4133H18.5364V55.2545H22.929V54.0956H26.0014V53.3006H37.2736V51.5084H37.3485L38.029 51.4882H41.0776V50.4001H45.6879V49.2412H52.2035V46.4889H51.0331V45.1819Z" fill="#F7DC19"/>
<path d="M51.4686 43.612H50.5908V42.2342H49.5666V41.0012H48.8351V38.8283H47.7361V37.8143H47.0761V36.4365H46.2731V35.0587H45.3204V34.2637H31.7515V35.7122H29.9959V36.5106H17.8458V38.8283H11.2587V39.8727H12.6503V42.2645H13.5281V44.5081H14.4059V46.3205H15.5049V48.1329H16.3079V49.7263H17.5532V51.3197H17.8492L17.8458 53.4959H18.9754V52.3371H23.3645V51.1749H26.4403V50.3798H37.7092V48.5674H41.5165V47.4793H46.1268V46.3205H52.639V44.9157H51.4686V43.612Z" fill="white"/>
<path d="M52.8296 43.5682V42.2645H51.9517V40.8867H50.9276V39.6537H50.1961V37.4809H49.0971V36.4669H48.437V35.0891H47.6307V33.7112H46.678V32.9128H30.3871V34.3614H28.6315V35.1598H16.4814V37.4775H9.89429V41.2168H11.2859V43.6087H12.1637V45.8556H13.0415V47.668H14.1405V49.4804H14.9469V51.0738H16.1922V52.6673H16.4848V54.8401H20.3329V53.6813H24.7255V52.5224H27.7979V51.724H39.0701V49.9116H42.8775V48.8235H47.4878V47.6647H54V43.5649H52.8296V43.5682ZM52.639 46.3205H46.1268V47.4794H41.5165V48.5675H37.7092V50.3799H26.4369V51.1783H23.3645V52.3371H18.972V53.496H17.8458V51.3231H17.5532V49.7297H16.3079V48.1363H15.5015V46.3239H14.4025V44.5115H13.5247V42.2645H12.6469V39.8727H11.2553V38.8284H17.8424V36.5107H29.9925V35.7123H31.7481V34.2637H45.317V35.0621H46.2697V36.4399H47.0761V37.8178H47.7361V38.8318H48.8351V41.0046H49.5666V42.2376H50.5908V43.6154H51.4686V44.9191H52.639V46.3239V46.3205Z" fill="#184742"/>
<path d="M39.145 48.6147H37.8079V49.9387H39.145V48.6147Z" fill="#184742"/>
<path d="M38.3148 47.4221H36.9777V48.746H38.3148V47.4221Z" fill="#184742"/>
<path d="M37.4846 46.2329H36.1475V47.5568H37.4846V46.2329Z" fill="#184742"/>
<path d="M36.651 45.0405H35.3138V46.3645H36.651V45.0405Z" fill="#184742"/>
<path d="M35.8208 43.8479H34.4836V45.1718H35.8208V43.8479Z" fill="#184742"/>
<path d="M34.9906 42.6587H33.6534V43.9826H34.9906V42.6587Z" fill="#184742"/>
<path d="M34.157 41.4663H32.8198V42.7902H34.157V41.4663Z" fill="#184742"/>
<path d="M33.3269 40.2771H31.9897V41.601H33.3269V40.2771Z" fill="#184742"/>
<path d="M32.4933 39.0845H31.1561V40.4084H32.4933V39.0845Z" fill="#184742"/>
<path d="M31.6631 37.8921H30.3259V39.216H31.6631V37.8921Z" fill="#184742"/>
<path d="M30.8329 36.7029H29.4957V38.0268H30.8329V36.7029Z" fill="#184742"/>
<path d="M29.9993 35.5103H28.6621V36.8342H29.9993V35.5103Z" fill="#184742"/>
<path d="M31.2927 46.527L32.724 46.7056L32.8265 45.9001L31.3952 45.7215L31.2927 46.527Z" fill="#184742"/>
<path d="M24.0995 47.8275L26.0034 48.0649L26.1059 47.2594L24.202 47.022L24.0995 47.8275Z" fill="#184742"/>
<path d="M28.5447 46.9659L31.198 47.2969L31.3005 46.4914L28.6471 46.1604L28.5447 46.9659Z" fill="#184742"/>
<path d="M26.0728 47.4742L28.5304 47.7808L28.6329 46.9753L26.1753 46.6687L26.0728 47.4742Z" fill="#184742"/>
<path d="M26.5893 44.1462L28.0206 44.3247L28.1231 43.5192L26.6918 43.3407L26.5893 44.1462Z" fill="#184742"/>
<path d="M19.3961 45.4466L21.3 45.6841L21.4025 44.8786L19.4986 44.6411L19.3961 45.4466Z" fill="#184742"/>
<path d="M23.8349 44.5812L26.4883 44.9121L26.5908 44.1066L23.9374 43.7757L23.8349 44.5812Z" fill="#184742"/>
<path d="M21.3695 45.0934L23.827 45.3999L23.9295 44.5944L21.472 44.2879L21.3695 45.0934Z" fill="#184742"/>
<path d="M23.2294 41.4045L24.6608 41.583L24.7633 40.7775L23.3319 40.599L23.2294 41.4045Z" fill="#184742"/>
<path d="M16.033 42.7047L17.9369 42.9421L18.0394 42.1366L16.1355 41.8992L16.033 42.7047Z" fill="#184742"/>
<path d="M20.4752 41.8363L23.1285 42.1672L23.231 41.3617L20.5777 41.0308L20.4752 41.8363Z" fill="#184742"/>
<path d="M18.0096 42.3483L20.4672 42.6548L20.5697 41.8493L18.1121 41.5428L18.0096 42.3483Z" fill="#184742"/>
<path d="M46.8493 44.1996L48.2806 44.3782L48.3831 43.5727L46.9518 43.3941L46.8493 44.1996Z" fill="#184742"/>
<path d="M39.6528 45.4998L41.5568 45.7373L41.6593 44.9318L39.7553 44.6943L39.6528 45.4998Z" fill="#184742"/>
<path d="M44.0985 44.6346L46.7518 44.9656L46.8543 44.1601L44.201 43.8291L44.0985 44.6346Z" fill="#184742"/>
<path d="M41.6295 45.1468L44.087 45.4534L44.1895 44.6479L41.732 44.3413L41.6295 45.1468Z" fill="#184742"/>
<path d="M44.7631 41.5466L46.1945 41.7251L46.2969 40.9196L44.8656 40.7411L44.7631 41.5466Z" fill="#184742"/>
<path d="M37.57 42.847L39.4739 43.0845L39.5764 42.279L37.6724 42.0415L37.57 42.847Z" fill="#184742"/>
<path d="M42.0122 41.9816L44.6655 42.3125L44.768 41.507L42.1147 41.176L42.0122 41.9816Z" fill="#184742"/>
<path d="M39.5432 42.4938L42.0007 42.8003L42.1032 41.9948L39.6457 41.6883L39.5432 42.4938Z" fill="#184742"/>
<path d="M42.5466 38.6247L43.9779 38.8032L44.0804 37.9977L42.6491 37.8192L42.5466 38.6247Z" fill="#184742"/>
<path d="M35.3534 39.9249L37.2573 40.1624L37.3598 39.3568L35.4559 39.1194L35.3534 39.9249Z" fill="#184742"/>
<path d="M39.7956 39.0597L42.449 39.3906L42.5515 38.5851L39.8981 38.2542L39.7956 39.0597Z" fill="#184742"/>
<path d="M37.33 39.5719L39.7876 39.8784L39.8901 39.0729L37.4325 38.7664L37.33 39.5719Z" fill="#184742"/>
<path d="M17.4818 38.0065L17.7948 37.2923L17.0769 36.9824L17.3899 36.2716L16.672 35.9617L16.9851 35.2509L16.2671 34.9376L16.5802 34.2268L15.8623 33.9168L16.1753 33.206L15.4574 32.8927L15.7704 32.1819L15.0525 31.872L15.3655 31.1612L14.6476 30.8513L14.9606 30.1371L14.2427 29.8272L14.5557 29.1164L13.8378 28.8064L14.1508 28.0922L13.4329 27.7823L13.7459 27.0715L12.3101 26.4517L11.6807 27.8733L12.3986 28.1832L12.0856 28.894L12.8035 29.2073L12.4904 29.9181L13.2084 30.228L12.8953 30.9389L13.6132 31.2521L13.3002 31.963L14.0181 32.2729L13.7051 32.9837L14.423 33.2936L14.11 34.0078L14.8279 34.3177L14.5149 35.0285L15.2328 35.3385L14.9198 36.0493L15.6377 36.3626L15.3247 37.0734L16.0426 37.3833L15.7296 38.0941L16.4475 38.4074L16.1344 39.1182L17.0021 39.4921L17.5703 39.7381L17.8867 39.0273L18.1997 38.3164L17.4818 38.0065Z" fill="#184742"/>
<path d="M17.9241 40.624L15.2396 39.4617L15.5526 38.7509L14.8347 38.441L15.1477 37.7302L14.4298 37.4203L14.7428 36.7094L14.0249 36.3995L14.3379 35.6887L13.62 35.3788L13.933 34.668L13.2151 34.3581L13.5281 33.6472L12.8102 33.3373L13.1232 32.6265L12.4053 32.3166L12.7183 31.6058L12.0004 31.2958L12.3135 30.585L11.5955 30.2751L11.9086 29.5643L11.1907 29.2544L11.5037 28.5436L10.7858 28.2336L11.9596 25.5757L14.6441 26.7379L14.3311 27.4487L15.049 27.7586L14.736 28.4695L15.4539 28.7794L15.1409 29.4902L15.8588 29.8001L15.5458 30.5109L16.2637 30.8208L15.9507 31.5317L16.6686 31.8416L16.3555 32.5524L17.0735 32.8623L16.7604 33.5731L17.4783 33.8831L17.1653 34.5939L17.8832 34.9038L17.5702 35.6146L18.2881 35.9245L17.9751 36.6353L18.693 36.9453L18.38 37.6561L19.0979 37.966L17.9275 40.624H17.9241ZM17.0292 38.7678L17.2198 38.8486L17.3014 38.66L17.1109 38.5791L17.0292 38.7678ZM16.6243 37.747L16.8149 37.8279L16.8965 37.6392L16.706 37.5584L16.6243 37.747ZM16.2194 36.7263L16.41 36.8071L16.4916 36.6185L16.3011 36.5376L16.2194 36.7263ZM15.8146 35.7022L16.0051 35.783L16.0868 35.5944L15.8962 35.5135L15.8146 35.7022ZM15.4097 34.6815L15.6002 34.7623L15.6819 34.5737L15.4913 34.4928L15.4097 34.6815ZM15.0048 33.6574L15.1953 33.7382L15.277 33.5495L15.0864 33.4687L15.0048 33.6574ZM14.5999 32.6366L14.7904 32.7175L14.8721 32.5288L14.6816 32.448L14.5999 32.6366ZM14.195 31.6125L14.3855 31.6934L14.4672 31.5047L14.2767 31.4239L14.195 31.6125ZM13.7935 30.5918L13.9841 30.6726L14.0657 30.484L13.8752 30.4031L13.7935 30.5918ZM13.3886 29.571L13.5792 29.6519L13.6608 29.4632L13.4703 29.3824L13.3886 29.571ZM12.9837 28.5469L13.1743 28.6278L13.2559 28.4391L13.0654 28.3583L12.9837 28.5469ZM12.5788 27.5262L12.7694 27.607L12.851 27.4184L12.6605 27.3375L12.5788 27.5262Z" fill="#184742"/>
<path d="M17.8867 39.0271L17.5703 39.7379L17.0021 39.492" fill="#2C2E1D"/>
<path d="M17.002 39.492L16.1344 39.1181L16.7604 37.6931L18.1997 38.3163L17.8867 39.0271" fill="#FFDDBB"/>
<path d="M16.3588 36.6713L15.7311 38.0945L17.1685 38.716L17.7962 37.2928L16.3588 36.6713Z" fill="#1574FF"/>
<path d="M15.9497 35.6483L15.322 37.0715L16.7595 37.693L17.3872 36.2698L15.9497 35.6483Z" fill="#1574FF"/>
<path d="M15.5473 34.6271L14.9196 36.0503L16.357 36.6718L16.9847 35.2486L15.5473 34.6271Z" fill="#1574FF"/>
<path d="M15.1448 33.6056L14.5171 35.0288L15.9545 35.6503L16.5822 34.2271L15.1448 33.6056Z" fill="#1574FF"/>
<path d="M14.7392 32.5829L14.1115 34.0061L15.5489 34.6276L16.1766 33.2044L14.7392 32.5829Z" fill="#1574FF"/>
<path d="M14.3331 31.5614L13.7054 32.9846L15.1429 33.6061L15.7706 32.1829L14.3331 31.5614Z" fill="#1574FF"/>
<path d="M13.9276 30.5387L13.2999 31.9619L14.7374 32.5834L15.3651 31.1602L13.9276 30.5387Z" fill="#1574FF"/>
<path d="M13.525 29.5172L12.8973 30.9404L14.3348 31.5619L14.9625 30.1387L13.525 29.5172Z" fill="#1574FF"/>
<path d="M13.116 28.4945L12.4883 29.9177L13.9257 30.5392L14.5534 29.116L13.116 28.4945Z" fill="#1574FF"/>
<path d="M12.3111 26.4515L11.6833 27.8748L13.1208 28.4962L13.7485 27.073L12.3111 26.4515Z" fill="#E23927"/>
<path d="M12.7135 27.473L12.0858 28.8962L13.5233 29.5177L14.151 28.0945L12.7135 27.473Z" fill="#1574FF"/>
<path d="M41.9077 38.0366L40.8394 36.898L41.9894 35.8435L43.0543 36.9822L44.2044 35.9244L45.3544 34.87L46.5044 33.8122L47.6544 32.7577L48.8045 31.7L49.8694 32.8386L48.7194 33.893L47.5694 34.9508L46.4227 36.0052L45.2727 37.063L44.1227 38.1208L42.9727 39.1752L41.9077 38.0366Z" fill="#184742"/>
<path d="M51.7918 32.9094L48.8759 29.7966L43.1258 35.0755L42.0608 33.9402L38.917 36.8272L42.9012 41.0786L51.7918 32.9094Z" fill="#184742"/>
<path d="M45.2714 37.0576L46.4211 36.0012L45.3542 34.8628L44.2045 35.9192L45.2714 37.0576Z" fill="#008459"/>
<path d="M46.4208 36.0034L47.5706 34.947L46.5036 33.8086L45.3539 34.865L46.4208 36.0034Z" fill="#008459"/>
<path d="M47.5713 34.9433L48.7211 33.887L47.6541 32.7486L46.5044 33.805L47.5713 34.9433Z" fill="#008459"/>
<path d="M48.7207 33.8891L49.8705 32.8328L48.8036 31.6944L47.6538 32.7508L48.7207 33.8891Z" fill="#008459"/>
<path d="M44.1219 38.1164L45.2716 37.0601L44.2047 35.9217L43.0549 36.978L44.1219 38.1164Z" fill="#008459"/>
<path d="M42.9723 39.1706L44.1221 38.1143L43.0551 36.9759L41.9054 38.0322L42.9723 39.1706Z" fill="#008459"/>
<path d="M41.9076 38.0327L43.0574 36.9763L41.9905 35.8379L40.8407 36.8943L41.9076 38.0327Z" fill="#008459"/>
<path d="M6.27747 27.8058L7.42408 26.748L8.49245 27.88L9.56421 29.0152L10.636 30.1505L11.7043 31.2858L12.7761 32.421L13.9227 31.3599L14.9911 32.4952L13.8445 33.5563L12.7013 34.6141L11.6295 33.4788L10.5577 32.3469L9.48936 31.2117L8.41759 30.0764L7.34583 28.9411L6.27747 27.8058Z" fill="#184742"/>
<path d="M4.35168 27.7418L12.6332 36.5208L16.9169 32.5591L13.9874 29.4565L12.8408 30.5143L7.48873 24.8413L4.35168 27.7418Z" fill="#184742"/>
<path d="M11.7067 31.2853L10.636 30.1504L9.48978 31.2105L10.5605 32.3454L11.7067 31.2853Z" fill="#008459"/>
<path d="M10.6358 30.149L9.56506 29.0142L8.41885 30.0743L9.48958 31.2092L10.6358 30.149Z" fill="#008459"/>
<path d="M9.56463 29.0179L8.4939 27.8831L7.34769 28.9432L8.41842 30.0781L9.56463 29.0179Z" fill="#008459"/>
<path d="M8.4937 27.8817L7.42297 26.7468L6.27676 27.807L7.34749 28.9418L8.4937 27.8817Z" fill="#008459"/>
<path d="M12.7778 32.4212L11.707 31.2864L10.5608 32.3465L11.6316 33.4814L12.7778 32.4212Z" fill="#008459"/>
<path d="M13.8464 33.5548L12.7756 32.4199L11.6294 33.4801L12.7002 34.6149L13.8464 33.5548Z" fill="#008459"/>
<path d="M14.9938 32.4945L13.9231 31.3596L12.7769 32.4198L13.8476 33.5546L14.9938 32.4945Z" fill="#008459"/>
</g>
<defs>
<clipPath id="clip0_4712_81129">
<rect width="54" height="58" fill="white"/>
</clipPath>
</defs>
</svg>
