<svg width="62" height="63" viewBox="0 0 62 63" fill="none" xmlns="http://www.w3.org/2000/svg">
<g clip-path="url(#clip0_4703_82650)">
<path d="M29.1399 53.4232V51.8334H32.3958V50.2004H34.0252L34.0237 48.5674H36.0823V50.2004H37.7103V51.8334H40.9676V53.4649L41.7816 53.4679H46.2346H53.5617V51.8334H56.8176V50.2004H58.447L58.4455 48.5674H60.0734V32.6678H58.4455V27.3337H56.8176V25.6992H58.4455V24.0662H60.0734V20.8001H61.7028V8.16658H60.0734V4.89905H58.4455V3.26604H56.8176V1.63302H53.5617V0H40.9676V1.63302H37.7103V3.26604H36.0823V4.89905H34.0237V3.26604H32.3958V1.63302H29.1399V0H16.5458V1.63302H13.2884V3.26604H11.6605V4.89905H10.0326V8.16658H8.40466V20.8001H10.0326V24.0662H11.6605V25.6992H13.2884V27.7673H11.6605V29.4003H10.0326V32.6678H8.40466V45.3013H10.0326V48.5674H11.6605V50.2004H13.2884V51.8334H16.5458V53.4679H24.6854" fill="#184742"/>
<path d="M57.0331 34.0851H58.661V32.4521V30.8191H57.0331V32.4521V34.0851Z" fill="#184742"/>
<path d="M60.075 29.4004H55.6205V35.5019H60.075V29.4004Z" fill="#184742"/>
<path d="M53.7771 29.1845H55.405V27.5515H53.7771H52.1492V29.1845H53.7771Z" fill="#184742"/>
<path d="M57.0331 29.1843H55.4052V30.8173H57.0331V29.1843Z" fill="#184742"/>
<path d="M58.6609 35.718V37.351V38.984V40.617V42.2515V43.8846H60.2888V42.2515V40.617V38.984V37.351V35.718V34.085H58.6609V35.718Z" fill="#184742"/>
<path d="M61.7029 32.6677H57.2484V45.3013H61.7029V32.6677Z" fill="#184742"/>
<path d="M40.9677 53.4681H41.7816L40.9677 53.4651V53.4681Z" fill="#184742"/>
<path d="M17.9584 47.1504H16.3304V48.7834H17.9584V47.1504Z" fill="#0DAE89"/>
<path d="M16.3304 47.1504H14.7025V48.7834H16.3304V47.1504Z" fill="#0DAE89"/>
<path d="M14.7009 47.1491V45.5161H13.073V47.1491H14.7009Z" fill="#00AC75"/>
<path d="M14.7009 45.5161V43.8831H13.073V45.5161H14.7009Z" fill="#00AC75"/>
<path d="M13.0731 37.351V35.718H11.4452V37.351H13.0731Z" fill="#00AC75"/>
<path d="M13.0746 38.9838V37.3508H11.4467V38.9838H13.0746Z" fill="#00AC75"/>
<path d="M13.0746 40.6169V38.9839H11.4467V40.6169H13.0746Z" fill="#00AC75"/>
<path d="M13.0746 42.25V40.6169H11.4467V42.25H13.0746Z" fill="#00AC75"/>
<path d="M13.0731 43.883V42.25H11.4452V43.883H13.0731Z" fill="#00AC75"/>
<path d="M13.0731 35.7163V34.0833H11.4452V35.7163H13.0731Z" fill="#00AC75"/>
<path d="M13.0731 12.8527V11.2197H11.4452V12.8527H13.0731Z" fill="#00AC75"/>
<path d="M13.0731 14.4856V12.8525H11.4452V14.4856H13.0731Z" fill="#00AC75"/>
<path d="M13.0746 16.1189V14.4858H11.4467V16.1189H13.0746Z" fill="#00AC75"/>
<path d="M13.0746 17.7517V16.1187H11.4467V17.7517H13.0746Z" fill="#00AC75"/>
<path d="M13.0746 19.385V17.752H11.4467V19.385H13.0746Z" fill="#00AC75"/>
<path d="M13.0731 11.2182V9.58521H11.4452V11.2182H13.0731Z" fill="#00AC75"/>
<path d="M14.7009 12.851V11.218H13.073V12.851H14.7009Z" fill="#00AC75"/>
<path d="M14.7025 14.4856V12.8525H13.0746V14.4856H14.7025Z" fill="#00AC75"/>
<path d="M14.7025 16.1189V14.4858H13.0746V16.1189H14.7025Z" fill="#00AC75"/>
<path d="M14.7025 17.7517V16.1187H13.0746V17.7517H14.7025Z" fill="#00AC75"/>
<path d="M14.7025 19.385V17.752H13.0746V19.385H14.7025Z" fill="#00AC75"/>
<path d="M14.7009 21.0146V19.3816H13.073V21.0146H14.7009Z" fill="#00AC75"/>
<path d="M14.7025 22.6479V21.0149H13.0746V22.6479H14.7025Z" fill="#00AC75"/>
<path d="M14.7009 11.2182V9.58521H13.073V11.2182H14.7009Z" fill="#00AC75"/>
<path d="M14.7009 9.58224V7.94922H13.073V9.58224H14.7009Z" fill="#00AC75"/>
<path d="M14.7025 7.94625V6.31323H13.0746V7.94625H14.7025Z" fill="#00AC75"/>
<path d="M16.3304 6.32052V4.6875H14.7025V6.32052H16.3304Z" fill="#00AC75"/>
<path d="M17.9584 6.32052V4.6875H16.3305V6.32052H17.9584Z" fill="#00AC75"/>
<path d="M16.3304 12.8527V11.2197H14.7025V12.8527H16.3304Z" fill="#00AC75"/>
<path d="M16.3304 14.4856V12.8525H14.7025V14.4856H16.3304Z" fill="#00AC75"/>
<path d="M16.3304 16.1203V14.4873H14.7025V16.1203H16.3304Z" fill="#00AC75"/>
<path d="M16.3304 17.7531V16.1201H14.7025V17.7531H16.3304Z" fill="#00AC75"/>
<path d="M16.3304 19.3862V17.7532H14.7025V19.3862H16.3304Z" fill="#00AC75"/>
<path d="M16.329 11.2197V9.58667H14.7011V11.2197H16.329Z" fill="#00AC75"/>
<path d="M17.9584 12.8527V11.2197H16.3305V12.8527H17.9584Z" fill="#32B686"/>
<path d="M17.9584 14.4856V12.8525H16.3305V14.4856H17.9584Z" fill="#32B686"/>
<path d="M17.9584 16.1189V14.4858H16.3305V16.1189H17.9584Z" fill="#32B686"/>
<path d="M17.9584 17.7531V16.1201H16.3305V17.7531H17.9584Z" fill="#32B686"/>
<path d="M17.9584 19.3862V17.7532H16.3304V19.3862H17.9584Z" fill="#32B686"/>
<path d="M17.9584 11.2197V9.58667H16.3304V11.2197H17.9584Z" fill="#32B686"/>
<path d="M19.5863 12.8527V11.2197H17.9584V12.8527H19.5863Z" fill="#32B686"/>
<path d="M19.5863 14.4856V12.8525H17.9584V14.4856H19.5863Z" fill="#86CBA8"/>
<path d="M19.5863 16.1189V14.4858H17.9584V16.1189H19.5863Z" fill="#86CBA8"/>
<path d="M19.5863 17.7517V16.1187H17.9584V17.7517H19.5863Z" fill="#59BE92"/>
<path d="M19.5863 19.3862V17.7532H17.9584V19.3862H19.5863Z" fill="#86CBA8"/>
<path d="M19.5863 11.2197V9.58667H17.9584V11.2197H19.5863Z" fill="#32B686"/>
<path d="M21.2142 12.8527V11.2197H19.5863V12.8527H21.2142Z" fill="#59BE92"/>
<path d="M21.2142 14.4856V12.8525H19.5863V14.4856H21.2142Z" fill="#59BE92"/>
<path d="M21.2142 16.1189V14.4858H19.5863V16.1189H21.2142Z" fill="#59BE92"/>
<path d="M21.2142 17.7517V16.1187H19.5863V17.7517H21.2142Z" fill="#59BE92"/>
<path d="M21.2157 19.385V17.752H19.5878V19.385H21.2157Z" fill="#59BE92"/>
<path d="M21.2142 11.2197V9.58667H19.5863V11.2197H21.2142Z" fill="#86CBA8"/>
<path d="M22.8422 12.8527V11.2197H21.2142V12.8527H22.8422Z" fill="#59BE92"/>
<path d="M22.8422 14.4856V12.8525H21.2142V14.4856H22.8422Z" fill="#59BE92"/>
<path d="M22.8422 16.1189V14.4858H21.2142V16.1189H22.8422Z" fill="#59BE92"/>
<path d="M22.8436 17.7517V16.1187H21.2157V17.7517H22.8436Z" fill="#59BE92"/>
<path d="M22.8436 19.385V17.752H21.2157V19.385H22.8436Z" fill="#59BE92"/>
<path d="M22.8422 11.2197V9.58667H21.2142V11.2197H22.8422Z" fill="#59BE92"/>
<path d="M24.4701 12.8527V11.2197H22.8422V12.8527H24.4701Z" fill="#59BE92"/>
<path d="M24.4701 14.4856V12.8525H22.8422V14.4856H24.4701Z" fill="#59BE92"/>
<path d="M24.4716 16.1189V14.4858H22.8436V16.1189H24.4716Z" fill="#59BE92"/>
<path d="M24.4716 17.7517V16.1187H22.8436V17.7517H24.4716Z" fill="#59BE92"/>
<path d="M24.4716 19.385V17.752H22.8436V19.385H24.4716Z" fill="#59BE92"/>
<path d="M24.4701 11.2182V9.58521H22.8422V11.2182H24.4701Z" fill="#59BE92"/>
<path d="M26.098 12.851V11.218H24.4701V12.851H26.098Z" fill="#59BE92"/>
<path d="M26.0995 14.4856V12.8525H24.4716V14.4856H26.0995Z" fill="#59BE92"/>
<path d="M26.0995 16.1189V14.4858H24.4716V16.1189H26.0995Z" fill="#59BE92"/>
<path d="M26.0995 17.7517V16.1187H24.4716V17.7517H26.0995Z" fill="#59BE92"/>
<path d="M26.0995 19.385V17.752H24.4716V19.385H26.0995Z" fill="#59BE92"/>
<path d="M26.098 11.2182V9.58521H24.4701V11.2182H26.098Z" fill="#59BE92"/>
<path d="M27.7274 12.8527V11.2197H26.0995V12.8527H27.7274Z" fill="#59BE92"/>
<path d="M27.7274 14.4856V12.8525H26.0995V14.4856H27.7274Z" fill="#59BE92"/>
<path d="M27.7274 16.1203V14.4873H26.0995V16.1203H27.7274Z" fill="#59BE92"/>
<path d="M27.7274 17.7531V16.1201H26.0995V17.7531H27.7274Z" fill="#59BE92"/>
<path d="M27.7274 19.3862V17.7532H26.0995V19.3862H27.7274Z" fill="#59BE92"/>
<path d="M29.3553 19.3862V17.7532H27.7274V19.3862H29.3553Z" fill="#59BE92"/>
<path d="M27.7258 11.2197V9.58667H26.0979V11.2197H27.7258Z" fill="#59BE92"/>
<path d="M29.3553 12.8527V11.2197H27.7274V12.8527H29.3553Z" fill="#59BE92"/>
<path d="M29.3553 14.4856V12.8525H27.7274V14.4856H29.3553Z" fill="#59BE92"/>
<path d="M29.3553 16.1189V14.4858H27.7274V16.1189H29.3553Z" fill="#59BE92"/>
<path d="M29.3553 11.2197V9.58667H27.7274V11.2197H29.3553Z" fill="#59BE92"/>
<path d="M30.9833 12.8527V11.2197H29.3554V12.8527H30.9833Z" fill="#59BE92"/>
<path d="M30.9833 14.4856V12.8525H29.3554V14.4856H30.9833Z" fill="#59BE92"/>
<path d="M30.9833 16.1189V14.4858H29.3554V16.1189H30.9833Z" fill="#59BE92"/>
<path d="M30.9833 11.2197V9.58667H29.3554V11.2197H30.9833Z" fill="#59BE92"/>
<path d="M32.6111 12.8527V11.2197H30.9832V12.8527H32.6111Z" fill="#59BE92"/>
<path d="M32.6111 14.4856V12.8525H30.9832V14.4856H32.6111Z" fill="#59BE92"/>
<path d="M32.6111 16.1189V14.4858H30.9832V16.1189H32.6111Z" fill="#59BE92"/>
<path d="M32.6111 11.2197V9.58667H30.9832V11.2197H32.6111Z" fill="#59BE92"/>
<path d="M16.3304 9.5837V7.95068H14.7025V9.5837H16.3304Z" fill="#00AC75"/>
<path d="M17.9584 9.5837V7.95068H16.3305V9.5837H17.9584Z" fill="#32B686"/>
<path d="M19.5863 9.5837V7.95068H17.9584V9.5837H19.5863Z" fill="#32B686"/>
<path d="M21.2142 9.5837V7.95068H19.5863V9.5837H21.2142Z" fill="#32B686"/>
<path d="M22.8422 9.5837V7.95068H21.2142V9.5837H22.8422Z" fill="#86CBA8"/>
<path d="M24.4701 9.58224V7.94922H22.8422V9.58224H24.4701Z" fill="#86CBA8"/>
<path d="M26.098 9.58224V7.94922H24.4701V9.58224H26.098Z" fill="#86CBA8"/>
<path d="M27.7274 9.5837V7.95068H26.0995V9.5837H27.7274Z" fill="#86CBA8"/>
<path d="M29.3553 9.5837V7.95068H27.7274V9.5837H29.3553Z" fill="#59BE92"/>
<path d="M30.9833 9.5837V7.95068H29.3554V9.5837H30.9833Z" fill="#86CBA8"/>
<path d="M32.6111 9.5837V7.95068H30.9832V9.5837H32.6111Z" fill="#59BE92"/>
<path d="M16.3304 7.94772V6.3147H14.7025V7.94772H16.3304Z" fill="#00AC75"/>
<path d="M17.9584 7.94772V6.3147H16.3305V7.94772H17.9584Z" fill="#00AC75"/>
<path d="M19.5863 7.94772V6.3147H17.9584V7.94772H19.5863Z" fill="#32B686"/>
<path d="M21.2142 7.94772V6.3147H19.5863V7.94772H21.2142Z" fill="#32B686"/>
<path d="M22.8422 7.94772V6.3147H21.2142V7.94772H22.8422Z" fill="#32B686"/>
<path d="M24.4701 7.94771V6.3147H22.8422V7.94771H24.4701Z" fill="#32B686"/>
<path d="M26.098 7.94625V6.31323H24.4701V7.94625H26.098Z" fill="#32B686"/>
<path d="M27.7274 7.94772V6.3147H26.0995V7.94772H27.7274Z" fill="#32B686"/>
<path d="M29.3553 7.94771V6.3147H27.7274V7.94771H29.3553Z" fill="#32B686"/>
<path d="M30.9833 7.94772V6.3147H29.3554V7.94772H30.9833Z" fill="#32B686"/>
<path d="M19.5863 6.3193V4.68628H17.9584V6.3193H19.5863Z" fill="#00AC75"/>
<path d="M21.2142 6.3193V4.68628H19.5863V6.3193H21.2142Z" fill="#00AC75"/>
<path d="M22.8436 6.3193V4.68628H21.2157V6.3193H22.8436Z" fill="#00AC75"/>
<path d="M24.4716 6.3193V4.68628H22.8436V6.3193H24.4716Z" fill="#00AC75"/>
<path d="M26.0995 6.3193V4.68628H24.4716V6.3193H26.0995Z" fill="#00AC75"/>
<path d="M27.7274 6.32052V4.6875H26.0995V6.32052H27.7274Z" fill="#00AC75"/>
<path d="M19.5863 4.68331V3.05029H17.9584V4.68331H19.5863Z" fill="#00AC75"/>
<path d="M21.2157 4.68331V3.05029H19.5878V4.68331H21.2157Z" fill="#00AC75"/>
<path d="M22.8436 4.68331V3.05029H21.2157V4.68331H22.8436Z" fill="#00AC75"/>
<path d="M24.4716 4.68331V3.05029H22.8436V4.68331H24.4716Z" fill="#00AC75"/>
<path d="M26.0995 4.68331V3.05029H24.4716V4.68331H26.0995Z" fill="#00AC75"/>
<path d="M27.7274 4.68453V3.05151H26.0995V4.68453H27.7274Z" fill="#00AC75"/>
<path d="M29.3553 6.32052V4.6875H27.7274V6.32052H29.3553Z" fill="#00AC75"/>
<path d="M30.9833 6.3193V4.68628H29.3554V6.3193H30.9833Z" fill="#00AC75"/>
<path d="M32.6111 7.94771V6.3147H30.9832V7.94771H32.6111Z" fill="#59BE92"/>
<path d="M34.2391 12.8527V11.2197H32.6112V12.8527H34.2391Z" fill="#59BE92"/>
<path d="M34.2391 14.4856V12.8525H32.6112V14.4856H34.2391Z" fill="#59BE92"/>
<path d="M34.2391 16.1189V14.4858H32.6112V16.1189H34.2391Z" fill="#59BE92"/>
<path d="M29.3553 17.7531V16.1201H27.7274V17.7531H29.3553Z" fill="#59BE92"/>
<path d="M30.9833 17.7517V16.1187H29.3554V17.7517H30.9833Z" fill="#59BE92"/>
<path d="M32.6111 17.7517V16.1187H30.9832V17.7517H32.6111Z" fill="#59BE92"/>
<path d="M34.2406 17.7517V16.1187H32.6127V17.7517H34.2406Z" fill="#59BE92"/>
<path d="M35.8685 16.1189V14.4858H34.2406V16.1189H35.8685Z" fill="#59BE92"/>
<path d="M37.4963 16.1189V14.4858H35.8684V16.1189H37.4963Z" fill="#59BE92"/>
<path d="M35.8685 17.7517V16.1187H34.2406V17.7517H35.8685Z" fill="#59BE92"/>
<path d="M37.4963 17.7517V16.1187H35.8684V17.7517H37.4963Z" fill="#59BE92"/>
<path d="M30.9833 19.3833V17.7502H29.3554V19.3833H30.9833Z" fill="#59BE92"/>
<path d="M32.6111 19.3833V17.7502H30.9832V19.3833H32.6111Z" fill="#59BE92"/>
<path d="M34.2391 19.3818V17.7488H32.6112V19.3818H34.2391Z" fill="#59BE92"/>
<path d="M35.8671 19.3818V17.7488H34.2391V19.3818H35.8671Z" fill="#59BE92"/>
<path d="M37.495 19.3818V17.7488H35.8671V19.3818H37.495Z" fill="#59BE92"/>
<path d="M39.1244 16.1203V14.4873H37.4965V16.1203H39.1244Z" fill="#59BE92"/>
<path d="M39.1244 17.7531V16.1201H37.4965V17.7531H39.1244Z" fill="#59BE92"/>
<path d="M16.329 21.0192V19.3862H14.7011V21.0192H16.329Z" fill="#00AC75"/>
<path d="M16.329 22.6523V21.0193H14.7011V22.6523H16.329Z" fill="#59BE92"/>
<path d="M17.9569 21.0192V19.3862H16.329V21.0192H17.9569Z" fill="#32B686"/>
<path d="M17.9584 22.6523V21.0193H16.3305V22.6523H17.9584Z" fill="#59BE92"/>
<path d="M19.5863 21.0192V19.3862H17.9584V21.0192H19.5863Z" fill="#59BE92"/>
<path d="M19.5863 22.6523V21.0193H17.9584V22.6523H19.5863Z" fill="#59BE92"/>
<path d="M21.2142 21.0192V19.3862H19.5863V21.0192H21.2142Z" fill="#59BE92"/>
<path d="M21.2142 22.6523V21.0193H19.5863V22.6523H21.2142Z" fill="#59BE92"/>
<path d="M22.8422 21.0178V19.3848H21.2142V21.0178H22.8422Z" fill="#59BE92"/>
<path d="M22.8422 22.6523V21.0193H21.2142V22.6523H22.8422Z" fill="#59BE92"/>
<path d="M16.3304 24.2824V22.6494H14.7025V24.2824H16.3304Z" fill="#00AC75"/>
<path d="M17.9584 24.2824V22.6494H16.3304V24.2824H17.9584Z" fill="#59BE92"/>
<path d="M19.5863 24.2824V22.6494H17.9584V24.2824H19.5863Z" fill="#59BE92"/>
<path d="M21.2142 24.2824V22.6494H19.5863V24.2824H21.2142Z" fill="#59BE92"/>
<path d="M22.8422 24.2824V22.6494H21.2142V24.2824H22.8422Z" fill="#59BE92"/>
<path d="M19.5863 25.9152V24.2822H17.9584V25.9152H19.5863Z" fill="#59BE92"/>
<path d="M21.2142 25.9152V24.2822H19.5863V25.9152H21.2142Z" fill="#59BE92"/>
<path d="M22.8436 25.9152V24.2822H21.2157V25.9152H22.8436Z" fill="#59BE92"/>
<path d="M24.4701 21.0178V19.3848H22.8422V21.0178H24.4701Z" fill="#59BE92"/>
<path d="M24.4701 22.6506V21.0176H22.8422V22.6506H24.4701Z" fill="#59BE92"/>
<path d="M26.098 21.0178V19.3848H24.4701V21.0178H26.098Z" fill="#59BE92"/>
<path d="M26.098 22.6506V21.0176H24.4701V22.6506H26.098Z" fill="#59BE92"/>
<path d="M27.7258 21.0192V19.3862H26.0979V21.0192H27.7258Z" fill="#59BE92"/>
<path d="M29.3538 21.0192V19.3862H27.7258V21.0192H29.3538Z" fill="#59BE92"/>
<path d="M30.9833 21.0192V19.3862H29.3554V21.0192H30.9833Z" fill="#59BE92"/>
<path d="M32.6111 21.0192V19.3862H30.9832V21.0192H32.6111Z" fill="#59BE92"/>
<path d="M27.7258 22.6523V21.0193H26.0979V22.6523H27.7258Z" fill="#59BE92"/>
<path d="M29.3553 22.6523V21.0193H27.7274V22.6523H29.3553Z" fill="#59BE92"/>
<path d="M30.9833 22.6523V21.0193H29.3554V22.6523H30.9833Z" fill="#59BE92"/>
<path d="M32.6111 22.6523V21.0193H30.9832V22.6523H32.6111Z" fill="#59BE92"/>
<path d="M34.2391 21.0178V19.3848H32.6112V21.0178H34.2391Z" fill="#59BE92"/>
<path d="M35.8671 21.0178V19.3848H34.2391V21.0178H35.8671Z" fill="#59BE92"/>
<path d="M34.239 22.6523V21.0193H32.6111V22.6523H34.239Z" fill="#59BE92"/>
<path d="M35.8671 22.6506V21.0176H34.2391V22.6506H35.8671Z" fill="#59BE92"/>
<path d="M37.495 21.0178V19.3848H35.8671V21.0178H37.495Z" fill="#59BE92"/>
<path d="M39.1229 19.3833V17.7502H37.495V19.3833H39.1229Z" fill="#59BE92"/>
<path d="M40.7523 19.3833V17.7502H39.1244V19.3833H40.7523Z" fill="#59BE92"/>
<path d="M39.1229 21.0192V19.3862H37.495V21.0192H39.1229Z" fill="#59BE92"/>
<path d="M40.7507 21.0192V19.3862H39.1228V21.0192H40.7507Z" fill="#59BE92"/>
<path d="M37.495 22.6506V21.0176H35.8671V22.6506H37.495Z" fill="#59BE92"/>
<path d="M24.4716 24.2824V22.6494H22.8436V24.2824H24.4716Z" fill="#59BE92"/>
<path d="M24.4716 25.9152V24.2822H22.8436V25.9152H24.4716Z" fill="#59BE92"/>
<path d="M26.0995 24.2824V22.6494H24.4716V24.2824H26.0995Z" fill="#59BE92"/>
<path d="M26.0995 25.9152V24.2822H24.4716V25.9152H26.0995Z" fill="#59BE92"/>
<path d="M27.7274 24.2824V22.6494H26.0995V24.2824H27.7274Z" fill="#59BE92"/>
<path d="M27.7274 25.9167V24.2837H26.0995V25.9167H27.7274Z" fill="#59BE92"/>
<path d="M29.3553 24.2824V22.6494H27.7274V24.2824H29.3553Z" fill="#59BE92"/>
<path d="M29.3553 25.9152V24.2822H27.7274V25.9152H29.3553Z" fill="#59BE92"/>
<path d="M30.9833 25.9152V24.2822H29.3554V25.9152H30.9833Z" fill="#59BE92"/>
<path d="M32.6111 24.2824V22.6494H30.9832V24.2824H32.6111Z" fill="#59BE92"/>
<path d="M30.9833 24.2824V22.6494H29.3554V24.2824H30.9833Z" fill="#59BE92"/>
<path d="M34.2391 24.2824V22.6494H32.6112V24.2824H34.2391Z" fill="#59BE92"/>
<path d="M35.8685 24.2824V22.6494H34.2406V24.2824H35.8685Z" fill="#59BE92"/>
<path d="M37.4963 24.2824V22.6494H35.8684V24.2824H37.4963Z" fill="#59BE92"/>
<path d="M32.6111 25.9152V24.2822H30.9832V25.9152H32.6111Z" fill="#59BE92"/>
<path d="M34.2406 25.9152V24.2822H32.6127V25.9152H34.2406Z" fill="#59BE92"/>
<path d="M35.8685 25.9152V24.2822H34.2406V25.9152H35.8685Z" fill="#59BE92"/>
<path d="M37.4963 25.9152V24.2822H35.8684V25.9152H37.4963Z" fill="#59BE92"/>
<path d="M40.7523 24.2824V22.6494H39.1244V24.2824H40.7523Z" fill="#59BE92"/>
<path d="M39.1244 25.9167V24.2837H37.4965V25.9167H39.1244Z" fill="#59BE92"/>
<path d="M39.1244 24.2854V22.6523H37.4965V24.2854H39.1244Z" fill="#59BE92"/>
<path d="M40.7523 25.9152V24.2822H39.1244V25.9152H40.7523Z" fill="#59BE92"/>
<path d="M42.3802 25.9152V24.2822H40.7523V25.9152H42.3802Z" fill="#59BE92"/>
<path d="M44.0082 25.9152V24.2822H42.3803V25.9152H44.0082Z" fill="#59BE92"/>
<path d="M39.1229 22.6523V21.0193H37.495V22.6523H39.1229Z" fill="#59BE92"/>
<path d="M40.7523 22.6523V21.0193H39.1244V22.6523H40.7523Z" fill="#59BE92"/>
<path d="M47.2639 22.6506V21.0176H45.636V22.6506H47.2639Z" fill="#59BE92"/>
<path d="M48.8918 22.6506V21.0176H47.2639V22.6506H48.8918Z" fill="#59BE92"/>
<path d="M50.5199 22.6523V21.0193H48.892V22.6523H50.5199Z" fill="#59BE92"/>
<path d="M52.1492 22.6523V21.0193H50.5212V22.6523H52.1492Z" fill="#59BE92"/>
<path d="M52.1492 24.2824V22.6494H50.5212V24.2824H52.1492Z" fill="#59BE92"/>
<path d="M52.1492 25.9152V24.2822H50.5212V25.9152H52.1492Z" fill="#59BE92"/>
<path d="M53.7772 22.6523V21.0193H52.1493V22.6523H53.7772Z" fill="#59BE92"/>
<path d="M45.6376 25.9152V24.2822H44.0097V25.9152H45.6376Z" fill="#59BE92"/>
<path d="M24.4716 27.5512V25.9182H22.8436V27.5512H24.4716Z" fill="#59BE92"/>
<path d="M26.0995 27.5512V25.9182H24.4716V27.5512H26.0995Z" fill="#59BE92"/>
<path d="M27.7274 27.5527V25.9197H26.0995V27.5527H27.7274Z" fill="#59BE92"/>
<path d="M29.3553 27.5512V25.9182H27.7274V27.5512H29.3553Z" fill="#59BE92"/>
<path d="M30.9833 27.5512V25.9182H29.3554V27.5512H30.9833Z" fill="#59BE92"/>
<path d="M32.6111 27.5512V25.9182H30.9832V27.5512H32.6111Z" fill="#59BE92"/>
<path d="M34.2391 27.5512V25.9182H32.6112V27.5512H34.2391Z" fill="#59BE92"/>
<path d="M35.8685 27.5512V25.9182H34.2406V27.5512H35.8685Z" fill="#59BE92"/>
<path d="M37.4963 27.5512V25.9182H35.8684V27.5512H37.4963Z" fill="#59BE92"/>
<path d="M39.1244 27.5527V25.9197H37.4965V27.5527H39.1244Z" fill="#59BE92"/>
<path d="M40.7523 27.5512V25.9182H39.1244V27.5512H40.7523Z" fill="#59BE92"/>
<path d="M42.3802 27.5512V25.9182H40.7523V27.5512H42.3802Z" fill="#59BE92"/>
<path d="M44.0082 27.5512V25.9182H42.3803V27.5512H44.0082Z" fill="#59BE92"/>
<path d="M45.636 27.5512V25.9182H44.0081V27.5512H45.636Z" fill="#59BE92"/>
<path d="M47.2655 24.2824V22.6494H45.6376V24.2824H47.2655Z" fill="#59BE92"/>
<path d="M48.8934 24.2824V22.6494H47.2655V24.2824H48.8934Z" fill="#59BE92"/>
<path d="M47.2655 25.9152V24.2822H45.6376V25.9152H47.2655Z" fill="#59BE92"/>
<path d="M48.8934 25.9152V24.2822H47.2655V25.9152H48.8934Z" fill="#59BE92"/>
<path d="M50.5212 24.2824V22.6494H48.8933V24.2824H50.5212Z" fill="#59BE92"/>
<path d="M50.5212 25.9167V24.2837H48.8933V25.9167H50.5212Z" fill="#59BE92"/>
<path d="M34.2391 11.2197V9.58667H32.6112V11.2197H34.2391Z" fill="#59BE92"/>
<path d="M37.495 12.8527V11.2197H35.8671V12.8527H37.495Z" fill="#00AC75"/>
<path d="M37.495 14.4856V12.8525H35.8671V14.4856H37.495Z" fill="#00AC75"/>
<path d="M37.495 11.2182V9.58521H35.8671V11.2182H37.495Z" fill="#00AC75"/>
<path d="M39.1229 12.851V11.218H37.495V12.851H39.1229Z" fill="#00AC75"/>
<path d="M39.1244 14.4856V12.8525H37.4965V14.4856H39.1244Z" fill="#00AC75"/>
<path d="M39.1229 11.2182V9.58521H37.495V11.2182H39.1229Z" fill="#00AC75"/>
<path d="M39.1229 9.58224V7.94922H37.495V9.58224H39.1229Z" fill="#00AC75"/>
<path d="M39.1229 7.94625V6.31323H37.495V7.94625H39.1229Z" fill="#00AC75"/>
<path d="M40.7523 6.32052V4.6875H39.1244V6.32052H40.7523Z" fill="#00AC75"/>
<path d="M42.3802 6.32052V4.6875H40.7523V6.32052H42.3802Z" fill="#00AC75"/>
<path d="M40.7523 12.8527V11.2197H39.1244V12.8527H40.7523Z" fill="#32B686"/>
<path d="M40.7523 14.4856V12.8525H39.1244V14.4856H40.7523Z" fill="#32B686"/>
<path d="M40.7507 11.2197V9.58667H39.1228V11.2197H40.7507Z" fill="#32B686"/>
<path d="M42.3802 12.8527V11.2197H40.7523V12.8527H42.3802Z" fill="#59BE92"/>
<path d="M42.3802 14.4856V12.8525H40.7523V14.4856H42.3802Z" fill="#59BE92"/>
<path d="M42.3802 11.2197V9.58667H40.7523V11.2197H42.3802Z" fill="#32B686"/>
<path d="M44.0082 12.8527V11.2197H42.3803V12.8527H44.0082Z" fill="#59BE92"/>
<path d="M44.0082 14.4856V12.8525H42.3803V14.4856H44.0082Z" fill="#59BE92"/>
<path d="M44.0082 11.2197V9.58667H42.3803V11.2197H44.0082Z" fill="#59BE92"/>
<path d="M45.636 12.8527V11.2197H44.0081V12.8527H45.636Z" fill="#59BE92"/>
<path d="M45.636 14.4856V12.8525H44.0081V14.4856H45.636Z" fill="#59BE92"/>
<path d="M45.636 11.2197V9.58667H44.0081V11.2197H45.636Z" fill="#59BE92"/>
<path d="M47.2639 12.8527V11.2197H45.636V12.8527H47.2639Z" fill="#59BE92"/>
<path d="M47.2639 14.4856V12.8525H45.636V14.4856H47.2639Z" fill="#59BE92"/>
<path d="M47.2639 11.2197V9.58667H45.636V11.2197H47.2639Z" fill="#59BE92"/>
<path d="M48.892 12.8527V11.2197H47.264V12.8527H48.892Z" fill="#59BE92"/>
<path d="M48.892 14.4856V12.8525H47.264V14.4856H48.892Z" fill="#59BE92"/>
<path d="M48.892 11.2182V9.58521H47.264V11.2182H48.892Z" fill="#59BE92"/>
<path d="M50.5199 12.851V11.218H48.892V12.851H50.5199Z" fill="#59BE92"/>
<path d="M50.5212 14.4856V12.8525H48.8933V14.4856H50.5212Z" fill="#59BE92"/>
<path d="M50.5199 11.2182V9.58521H48.892V11.2182H50.5199Z" fill="#59BE92"/>
<path d="M52.1492 12.8527V11.2197H50.5212V12.8527H52.1492Z" fill="#59BE92"/>
<path d="M52.1492 14.4856V12.8525H50.5212V14.4856H52.1492Z" fill="#59BE92"/>
<path d="M52.1478 11.2197V9.58667H50.5199V11.2197H52.1478Z" fill="#59BE92"/>
<path d="M53.7772 12.8527V11.2197H52.1493V12.8527H53.7772Z" fill="#59BE92"/>
<path d="M53.7772 14.4856V12.8525H52.1493V14.4856H53.7772Z" fill="#59BE92"/>
<path d="M53.7772 11.2197V9.58667H52.1493V11.2197H53.7772Z" fill="#86CBA8"/>
<path d="M55.4052 12.8527V11.2197H53.7772V12.8527H55.4052Z" fill="#86CBA8"/>
<path d="M55.4052 14.4856V12.8525H53.7772V14.4856H55.4052Z" fill="#86CBA8"/>
<path d="M55.4052 11.2182V9.58521H53.7772V11.2182H55.4052Z" fill="#32B686"/>
<path d="M57.0331 12.8527V11.2197H55.4052V12.8527H57.0331Z" fill="#32B686"/>
<path d="M57.0331 14.4856V12.8525H55.4052V14.4856H57.0331Z" fill="#32B686"/>
<path d="M57.0331 11.2197V9.58667H55.4052V11.2197H57.0331Z" fill="#00AC75"/>
<path d="M40.7523 9.5837V7.95068H39.1244V9.5837H40.7523Z" fill="#32B686"/>
<path d="M42.3802 9.5837V7.95068H40.7523V9.5837H42.3802Z" fill="#59BE92"/>
<path d="M44.0082 9.5837V7.95068H42.3803V9.5837H44.0082Z" fill="#32B686"/>
<path d="M45.636 9.5837V7.95068H44.0081V9.5837H45.636Z" fill="#59BE92"/>
<path d="M47.2639 9.5837V7.95068H45.636V9.5837H47.2639Z" fill="#59BE92"/>
<path d="M48.892 9.5837V7.95068H47.264V9.5837H48.892Z" fill="#86CBA8"/>
<path d="M50.5199 9.58224V7.94922H48.892V9.58224H50.5199Z" fill="#86CBA8"/>
<path d="M52.1492 9.5837V7.95068H50.5212V9.5837H52.1492Z" fill="#86CBA8"/>
<path d="M53.7772 9.5837V7.95068H52.1493V9.5837H53.7772Z" fill="#32B686"/>
<path d="M55.4052 9.5837V7.95068H53.7772V9.5837H55.4052Z" fill="#32B686"/>
<path d="M57.0331 9.5837V7.95068H55.4052V9.5837H57.0331Z" fill="#00AC75"/>
<path d="M40.7523 7.94771V6.3147H39.1244V7.94771H40.7523Z" fill="#32B686"/>
<path d="M42.3802 7.94771V6.3147H40.7523V7.94771H42.3802Z" fill="#32B686"/>
<path d="M44.0082 7.94772V6.3147H42.3803V7.94772H44.0082Z" fill="#32B686"/>
<path d="M45.636 7.94771V6.3147H44.0081V7.94771H45.636Z" fill="#32B686"/>
<path d="M47.2639 7.94771V6.3147H45.636V7.94771H47.2639Z" fill="#32B686"/>
<path d="M50.5199 7.94625V6.31323H48.892V7.94625H50.5199Z" fill="#32B686"/>
<path d="M48.892 7.94625V6.31323H47.264V7.94625H48.892Z" fill="#32B686"/>
<path d="M52.1492 7.94771V6.3147H50.5212V7.94771H52.1492Z" fill="#32B686"/>
<path d="M53.7772 7.94771V6.3147H52.1493V7.94771H53.7772Z" fill="#00AC75"/>
<path d="M55.4052 7.94771V6.3147H53.7772V7.94771H55.4052Z" fill="#00AC75"/>
<path d="M44.0082 6.3193V4.68628H42.3803V6.3193H44.0082Z" fill="#00AC75"/>
<path d="M45.636 6.3193V4.68628H44.0081V6.3193H45.636Z" fill="#00AC75"/>
<path d="M47.2655 6.3193V4.68628H45.6376V6.3193H47.2655Z" fill="#00AC75"/>
<path d="M48.8934 6.3193V4.68628H47.2655V6.3193H48.8934Z" fill="#00AC75"/>
<path d="M50.5212 6.3193V4.68628H48.8933V6.3193H50.5212Z" fill="#00AC75"/>
<path d="M52.1492 6.32052V4.6875H50.5212V6.32052H52.1492Z" fill="#00AC75"/>
<path d="M44.0082 4.68453V3.05151H42.3803V4.68453H44.0082Z" fill="#00AC75"/>
<path d="M45.6376 4.68331V3.05029H44.0096V4.68331H45.6376Z" fill="#00AC75"/>
<path d="M47.2655 4.68331V3.05029H45.6376V4.68331H47.2655Z" fill="#00AC75"/>
<path d="M48.8934 4.68331V3.05029H47.2655V4.68331H48.8934Z" fill="#00AC75"/>
<path d="M50.5212 4.68331V3.05029H48.8933V4.68331H50.5212Z" fill="#00AC75"/>
<path d="M52.1492 4.68453V3.05151H50.5212V4.68453H52.1492Z" fill="#00AC75"/>
<path d="M53.7772 6.32052V4.6875H52.1493V6.32052H53.7772Z" fill="#00AC75"/>
<path d="M55.4052 6.3193V4.68628H53.7772V6.3193H55.4052Z" fill="#00AC75"/>
<path d="M57.0331 7.94772V6.3147H55.4052V7.94772H57.0331Z" fill="#00AC75"/>
<path d="M58.6609 12.8527V11.2197H57.033V12.8527H58.6609Z" fill="#00AC75"/>
<path d="M58.6609 14.4856V12.8525H57.033V14.4856H58.6609Z" fill="#00AC75"/>
<path d="M40.7523 16.1203V14.4873H39.1244V16.1203H40.7523Z" fill="#59BE92"/>
<path d="M40.7523 17.7531V16.1201H39.1244V17.7531H40.7523Z" fill="#59BE92"/>
<path d="M42.3802 16.1189V14.4858H40.7523V16.1189H42.3802Z" fill="#59BE92"/>
<path d="M42.3802 17.7531V16.1201H40.7523V17.7531H42.3802Z" fill="#59BE92"/>
<path d="M44.0082 16.1189V14.4858H42.3803V16.1189H44.0082Z" fill="#59BE92"/>
<path d="M44.0082 17.7517V16.1187H42.3803V17.7517H44.0082Z" fill="#59BE92"/>
<path d="M45.636 16.1189V14.4858H44.0081V16.1189H45.636Z" fill="#59BE92"/>
<path d="M45.636 17.7517V16.1187H44.0081V17.7517H45.636Z" fill="#59BE92"/>
<path d="M47.2639 16.1189V14.4858H45.636V16.1189H47.2639Z" fill="#59BE92"/>
<path d="M47.2655 17.7517V16.1187H45.6376V17.7517H47.2655Z" fill="#59BE92"/>
<path d="M48.8934 16.1189V14.4858H47.2655V16.1189H48.8934Z" fill="#59BE92"/>
<path d="M48.8934 17.7517V16.1187H47.2655V17.7517H48.8934Z" fill="#59BE92"/>
<path d="M50.5212 16.1189V14.4858H48.8933V16.1189H50.5212Z" fill="#59BE92"/>
<path d="M50.5212 17.7517V16.1187H48.8933V17.7517H50.5212Z" fill="#59BE92"/>
<path d="M52.1492 16.1203V14.4873H50.5212V16.1203H52.1492Z" fill="#59BE92"/>
<path d="M52.1492 17.7531V16.1201H50.5212V17.7531H52.1492Z" fill="#59BE92"/>
<path d="M53.7772 16.1189V14.4858H52.1493V16.1189H53.7772Z" fill="#59BE92"/>
<path d="M53.7772 17.7531V16.1201H52.1493V17.7531H53.7772Z" fill="#59BE92"/>
<path d="M55.4052 16.1189V14.4858H53.7772V16.1189H55.4052Z" fill="#86CBA8"/>
<path d="M55.4052 17.7517V16.1187H53.7772V17.7517H55.4052Z" fill="#86CBA8"/>
<path d="M57.0331 16.1189V14.4858H55.4052V16.1189H57.0331Z" fill="#32B686"/>
<path d="M57.0344 17.7502V16.1172H55.4065V17.7502H57.0344Z" fill="#32B686"/>
<path d="M58.6609 16.1189V14.4858H57.033V16.1189H58.6609Z" fill="#00AC75"/>
<path d="M58.6625 17.7517V16.1187H57.0346V17.7517H58.6625Z" fill="#00AC75"/>
<path d="M42.3802 19.3862V17.7532H40.7523V19.3862H42.3802Z" fill="#59BE92"/>
<path d="M44.0082 19.3862V17.7532H42.3803V19.3862H44.0082Z" fill="#59BE92"/>
<path d="M45.6376 19.385V17.752H44.0096V19.385H45.6376Z" fill="#59BE92"/>
<path d="M47.2655 19.385V17.752H45.6376V19.385H47.2655Z" fill="#59BE92"/>
<path d="M48.8934 19.385V17.752H47.2655V19.385H48.8934Z" fill="#59BE92"/>
<path d="M50.5212 19.385V17.752H48.8933V19.385H50.5212Z" fill="#59BE92"/>
<path d="M52.1492 19.3862V17.7532H50.5212V19.3862H52.1492Z" fill="#59BE92"/>
<path d="M53.7772 19.3862V17.7532H52.1493V19.3862H53.7772Z" fill="#59BE92"/>
<path d="M55.4052 19.3862V17.7532H53.7772V19.3862H55.4052Z" fill="#59BE92"/>
<path d="M57.0344 19.385V17.752H55.4065V19.385H57.0344Z" fill="#32B686"/>
<path d="M42.3787 21.0192V19.3862H40.7507V21.0192H42.3787Z" fill="#59BE92"/>
<path d="M44.0082 21.0193V19.3862H42.3803V21.0193H44.0082Z" fill="#59BE92"/>
<path d="M45.636 21.0192V19.3862H44.0081V21.0192H45.636Z" fill="#59BE92"/>
<path d="M42.3802 22.6523V21.0193H40.7523V22.6523H42.3802Z" fill="#59BE92"/>
<path d="M44.0082 22.6523V21.0193H42.3803V22.6523H44.0082Z" fill="#59BE92"/>
<path d="M45.636 22.6523V21.0193H44.0081V22.6523H45.636Z" fill="#59BE92"/>
<path d="M42.3802 24.2807V22.6477H40.7523V24.2807H42.3802Z" fill="#59BE92"/>
<path d="M44.0082 24.2807V22.6477H42.3803V24.2807H44.0082Z" fill="#59BE92"/>
<path d="M45.636 24.2807V22.6477H44.0081V24.2807H45.636Z" fill="#59BE92"/>
<path d="M47.2639 21.0178V19.3848H45.636V21.0178H47.2639Z" fill="#59BE92"/>
<path d="M48.892 21.0178V19.3848H47.264V21.0178H48.892Z" fill="#59BE92"/>
<path d="M50.5199 21.0178V19.3848H48.892V21.0178H50.5199Z" fill="#59BE92"/>
<path d="M52.1478 21.0192V19.3862H50.5199V21.0192H52.1478Z" fill="#59BE92"/>
<path d="M53.7756 21.0192V19.3862H52.1477V21.0192H53.7756Z" fill="#59BE92"/>
<path d="M55.4052 21.0178V19.3848H53.7772V21.0178H55.4052Z" fill="#32B686"/>
<path d="M57.0331 21.0178V19.3848H55.4052V21.0178H57.0331Z" fill="#32B686"/>
<path d="M55.4052 22.6479V21.0149H53.7772V22.6479H55.4052Z" fill="#32B686"/>
<path d="M53.7772 24.2839V22.6509H52.1493V24.2839H53.7772Z" fill="#59BE92"/>
<path d="M55.4052 24.2807V22.6477H53.7772V24.2807H55.4052Z" fill="#32B686"/>
<path d="M57.0331 22.6494V21.0164H55.4052V22.6494H57.0331Z" fill="#32B686"/>
<path d="M58.6625 19.385V17.752H57.0346V19.385H58.6625Z" fill="#00AC75"/>
<path d="M58.6609 11.2197V9.58667H57.033V11.2197H58.6609Z" fill="#00AC75"/>
<path d="M14.7009 34.0835V32.4504H13.073V34.0835H14.7009Z" fill="#00AC75"/>
<path d="M14.7009 32.4504V30.8174H13.073V32.4504H14.7009Z" fill="#00AC75"/>
<path d="M16.329 32.4519V30.8188H14.7011V32.4519H16.329Z" fill="#00AC75"/>
<path d="M16.3304 30.8188V29.1858H14.7025V30.8188H16.3304Z" fill="#00AC75"/>
<path d="M19.5863 25.9182H17.9584V27.5512H19.5863V25.9182Z" fill="#59BE92"/>
<path d="M17.9584 27.5515H16.3304V29.1845H17.9584V27.5515Z" fill="#59BE92"/>
<path d="M16.3304 27.5515H14.7025V29.1845H16.3304V27.5515Z" fill="#59BE92"/>
<path d="M17.9584 48.7837H16.3304V50.4167H17.9584V48.7837Z" fill="#59BE92"/>
<path d="M16.3304 48.7837H14.7025V50.4167H16.3304V48.7837Z" fill="#59BE92"/>
<path d="M30.9833 48.7837H29.3553V50.4167H30.9833V48.7837Z" fill="#59BE92"/>
<path d="M29.3553 48.7837H27.7274V50.4167H29.3553V48.7837Z" fill="#59BE92"/>
<path d="M13.0731 34.0835V32.4504H11.4452V34.0835H13.0731Z" fill="#59BE92"/>
<path d="M13.0731 32.4504V30.8174H11.4452V32.4504H13.0731Z" fill="#59BE92"/>
<path d="M13.0731 47.1491V45.5161H11.4452V47.1491H13.0731Z" fill="#59BE92"/>
<path d="M13.0731 45.5161V43.8831H11.4452V45.5161H13.0731Z" fill="#59BE92"/>
<path d="M34.2391 47.1506V45.5176H32.6112V47.1506H34.2391Z" fill="#59BE92"/>
<path d="M34.2391 45.5161V43.8831H32.6112V45.5161H34.2391Z" fill="#59BE92"/>
<path d="M11.4452 37.351V35.718H9.81727V37.351H11.4452Z" fill="#59BE92"/>
<path d="M11.4452 38.9838V37.3508H9.81726V38.9838H11.4452Z" fill="#59BE92"/>
<path d="M11.4467 40.6169V38.9839H9.81873V40.6169H11.4467Z" fill="#59BE92"/>
<path d="M11.4467 42.25V40.6169H9.81873V42.25H11.4467Z" fill="#59BE92"/>
<path d="M11.4452 43.883V42.25H9.81727V43.883H11.4452Z" fill="#59BE92"/>
<path d="M11.4452 35.718V34.085H9.81727V35.718H11.4452Z" fill="#59BE92"/>
<path d="M35.8685 40.6169V38.9839H34.2406V40.6169H35.8685Z" fill="#59BE92"/>
<path d="M35.8685 42.25V40.6169H34.2406V42.25H35.8685Z" fill="#59BE92"/>
<path d="M35.8671 43.883V42.25H34.2391V43.883H35.8671Z" fill="#59BE92"/>
<path d="M14.701 29.1843H13.0731V30.8173H14.701V29.1843Z" fill="#59BE92"/>
<path d="M14.701 47.1504H13.0731V48.7834H14.701V47.1504Z" fill="#59BE92"/>
<path d="M32.6112 47.1504H30.9833V48.7834H32.6112V47.1504Z" fill="#59BE92"/>
<path d="M21.2142 25.9182H19.5863V27.5512H21.2142V25.9182Z" fill="#59BE92"/>
<path d="M22.8422 25.9182H21.2142V27.5512H22.8422V25.9182Z" fill="#59BE92"/>
<path d="M19.5863 50.4165H17.9584V52.0495H19.5863V50.4165Z" fill="#59BE92"/>
<path d="M21.2142 50.4165H19.5863V52.0495H21.2142V50.4165Z" fill="#59BE92"/>
<path d="M22.8422 50.4165H21.2142V52.0495H22.8422V50.4165Z" fill="#59BE92"/>
<path d="M24.4701 50.4165H22.8422V52.0495H24.4701V50.4165Z" fill="#59BE92"/>
<path d="M26.098 50.4165H24.4701V52.0495H26.098V50.4165Z" fill="#59BE92"/>
<path d="M27.7274 50.4165H26.0995V52.0495H27.7274V50.4165Z" fill="#59BE92"/>
<path d="M35.8671 11.2168V9.58374H34.2391V11.2168H35.8671Z" fill="#59BE92"/>
<path d="M34.2391 9.5837V7.95068H32.6112V9.5837H34.2391Z" fill="#59BE92"/>
<path d="M34.2391 7.94918V6.31616H32.6112V7.94918H34.2391Z" fill="#59BE92"/>
<path d="M13.0731 9.58224V7.94922H11.4452V9.58224H13.0731Z" fill="#59BE92"/>
<path d="M13.0731 7.94918V6.31616H11.4452V7.94918H13.0731Z" fill="#59BE92"/>
<path d="M13.0731 22.6494V21.0164H11.4452V22.6494H13.0731Z" fill="#59BE92"/>
<path d="M13.0731 21.0146V19.3816H11.4452V21.0146H13.0731Z" fill="#59BE92"/>
<path d="M27.7274 4.68457H29.3553V3.05155H27.7274V4.68457Z" fill="#59BE92"/>
<path d="M29.3554 4.68457H30.9833V3.05155H29.3554V4.68457Z" fill="#59BE92"/>
<path d="M14.7011 4.68457H16.329V3.05155H14.7011V4.68457Z" fill="#59BE92"/>
<path d="M16.3305 4.68457H17.9584V3.05155H16.3305V4.68457Z" fill="#59BE92"/>
<path d="M14.7011 25.917H16.329V24.284H14.7011V25.917Z" fill="#59BE92"/>
<path d="M16.3305 25.917H17.9584V24.284H16.3305V25.917Z" fill="#59BE92"/>
<path d="M24.4716 3.05151H26.0995V1.4185L24.4716 1.4185V3.05151Z" fill="#59BE92"/>
<path d="M22.8436 3.05151H24.4716V1.4185L22.8436 1.4185V3.05151Z" fill="#59BE92"/>
<path d="M21.2157 3.05151H22.8436V1.4185L21.2157 1.4185V3.05151Z" fill="#59BE92"/>
<path d="M19.5863 3.05151H21.2142V1.4185L19.5863 1.4185V3.05151Z" fill="#59BE92"/>
<path d="M17.9584 3.05151H19.5863V1.4185L17.9584 1.4185V3.05151Z" fill="#59BE92"/>
<path d="M26.0979 3.05151H27.7258V1.4185L26.0979 1.4185V3.05151Z" fill="#59BE92"/>
<path d="M21.2157 27.5498H22.8436V25.9168H21.2157V27.5498Z" fill="#59BE92"/>
<path d="M19.5863 27.5498H21.2142V25.9168H19.5863V27.5498Z" fill="#59BE92"/>
<path d="M17.9584 27.5498H19.5863V25.9168H17.9584V27.5498Z" fill="#59BE92"/>
<path d="M32.6111 6.31612V4.68311H30.9832V6.31612H32.6111Z" fill="#59BE92"/>
<path d="M14.7009 6.31612V4.68311H13.073V6.31612H14.7009Z" fill="#59BE92"/>
<path d="M14.7025 24.2824V22.6494H13.0746V24.2824H14.7025Z" fill="#59BE92"/>
<path d="M35.8685 12.8496V11.2166H34.2406V12.8496H35.8685Z" fill="#59BE92"/>
<path d="M35.8685 14.4829V12.8499H34.2406V14.4829H35.8685Z" fill="#59BE92"/>
<path d="M11.4452 11.2168V9.58374H9.81727V11.2168H11.4452Z" fill="#59BE92"/>
<path d="M11.4452 12.8496V11.2166H9.81727V12.8496H11.4452Z" fill="#59BE92"/>
<path d="M11.4467 14.4829V12.8499H9.81873V14.4829H11.4467Z" fill="#59BE92"/>
<path d="M11.4467 16.1157V14.4827H9.81873V16.1157H11.4467Z" fill="#59BE92"/>
<path d="M11.4467 17.749V16.116H9.81873V17.749H11.4467Z" fill="#59BE92"/>
<path d="M11.4452 19.3818V17.7488H9.81727V19.3818H11.4452Z" fill="#59BE92"/>
<path d="M50.5199 27.5498H52.1478V25.9168H50.5199V27.5498Z" fill="#59BE92"/>
<path d="M52.1493 25.917H53.7772V24.284H52.1493V25.917Z" fill="#59BE92"/>
<path d="M53.7772 25.917H55.4052V24.284H53.7772V25.917Z" fill="#59BE92"/>
<path d="M52.1493 4.68457H53.7772V3.05155H52.1493V4.68457Z" fill="#59BE92"/>
<path d="M53.7772 4.68457H55.4052V3.05155H53.7772V4.68457Z" fill="#59BE92"/>
<path d="M39.1228 4.68457H40.7507V3.05155H39.1228V4.68457Z" fill="#59BE92"/>
<path d="M40.7523 4.68457H42.3802V3.05155H40.7523V4.68457Z" fill="#59BE92"/>
<path d="M57.0331 19.3833V21.0164H58.661V19.3833H57.0331Z" fill="#59BE92"/>
<path d="M57.0331 21.0164V22.6494H58.661V21.0164H57.0331Z" fill="#59BE92"/>
<path d="M57.0331 6.31767V7.95068H58.661V6.31767H57.0331Z" fill="#59BE92"/>
<path d="M57.0331 7.95072V9.58374H58.661V7.95072H57.0331Z" fill="#59BE92"/>
<path d="M35.8685 6.31766V7.95068H37.4965V6.31766H35.8685Z" fill="#59BE92"/>
<path d="M35.8685 7.95072V9.58374H37.4965V7.95072H35.8685Z" fill="#59BE92"/>
<path d="M58.6609 16.1172V17.7502H60.2888V16.1172H58.6609Z" fill="#59BE92"/>
<path d="M58.6609 14.4842V16.1172H60.2888V14.4842H58.6609Z" fill="#59BE92"/>
<path d="M58.6609 12.8511V14.4841H60.2888V12.8511H58.6609Z" fill="#59BE92"/>
<path d="M58.6609 11.2168V12.8499H60.2888V11.2168H58.6609Z" fill="#59BE92"/>
<path d="M58.6609 9.58354V11.2166H60.2888V9.58354H58.6609Z" fill="#59BE92"/>
<path d="M58.6625 17.7503V19.3833H60.2904V17.7503H58.6625Z" fill="#59BE92"/>
<path d="M34.2391 12.8511V14.4841H35.8671V12.8511H34.2391Z" fill="#59BE92"/>
<path d="M34.2391 11.2168V12.8499H35.8671V11.2168H34.2391Z" fill="#59BE92"/>
<path d="M34.2391 9.58354V11.2166H35.8671V9.58354H34.2391Z" fill="#59BE92"/>
<path d="M55.4052 24.2822H57.0331V22.6492H55.4052V24.2822Z" fill="#59BE92"/>
<path d="M55.4052 6.31616H57.0331V4.68314H55.4052V6.31616Z" fill="#59BE92"/>
<path d="M37.4965 6.31616H39.1244V4.68314H37.4965V6.31616Z" fill="#59BE92"/>
<path d="M48.8933 27.5498H50.5212V25.9168H48.8933V27.5498Z" fill="#59BE92"/>
<path d="M47.2655 27.5498H48.8934V25.9168H47.2655V27.5498Z" fill="#59BE92"/>
<path d="M45.636 27.5498H47.2639V25.9168H45.636V27.5498Z" fill="#59BE92"/>
<path d="M50.5199 3.05151H52.1478V1.4185L50.5199 1.4185V3.05151Z" fill="#59BE92"/>
<path d="M48.8933 3.05151H50.5212V1.4185L48.8933 1.4185V3.05151Z" fill="#59BE92"/>
<path d="M47.2655 3.05151H48.8934V1.4185L47.2655 1.4185V3.05151Z" fill="#59BE92"/>
<path d="M45.636 3.05151H47.2639V1.4185L45.636 1.4185V3.05151Z" fill="#59BE92"/>
<path d="M44.0081 3.05151H45.636V1.4185L44.0081 1.4185V3.05151Z" fill="#59BE92"/>
<path d="M42.3803 3.05151H44.0082V1.4185L42.3803 1.4185V3.05151Z" fill="#59BE92"/>
<path d="M34.2406 42.2515V43.8845H35.8685V42.2515H34.2406Z" fill="#59BE92"/>
<path d="M35.8685 43.8846V45.5176H37.4965V43.8846H35.8685Z" fill="#59BE92"/>
<path d="M35.8671 45.5174V47.1504H37.495V45.5174H35.8671Z" fill="#59BE92"/>
<path d="M57.0331 43.8846V45.5176H58.661V43.8846H57.0331Z" fill="#59BE92"/>
<path d="M57.0331 45.5174V47.1504H58.661V45.5174H57.0331Z" fill="#59BE92"/>
<path d="M57.0344 30.8189V32.4519H58.6623V30.8189H57.0344Z" fill="#59BE92"/>
<path d="M57.0331 32.4519V34.085H58.661V32.4519H57.0331Z" fill="#59BE92"/>
<path d="M42.3802 48.7837H40.7523V50.4167H42.3802V48.7837Z" fill="#59BE92"/>
<path d="M40.7523 48.7837H39.1244V50.4167H40.7523V48.7837Z" fill="#59BE92"/>
<path d="M55.4051 48.7837H53.7772V50.4167H55.4051V48.7837Z" fill="#59BE92"/>
<path d="M53.7771 48.7837H52.1492V50.4167H53.7771V48.7837Z" fill="#59BE92"/>
<path d="M55.4051 27.5515H53.7772V29.1845H55.4051V27.5515Z" fill="#59BE92"/>
<path d="M53.7771 27.5515H52.1492V29.1845H53.7771V27.5515Z" fill="#59BE92"/>
<path d="M45.6361 50.4165H44.0082V52.0495H45.6361V50.4165Z" fill="#59BE92"/>
<path d="M47.2639 50.4165H45.636V52.0495H47.2639V50.4165Z" fill="#59BE92"/>
<path d="M48.8918 50.4165H47.2639V52.0495H48.8918V50.4165Z" fill="#59BE92"/>
<path d="M50.5199 50.4165H48.892V52.0495H50.5199V50.4165Z" fill="#59BE92"/>
<path d="M52.1492 50.4165H50.5212V52.0495H52.1492V50.4165Z" fill="#59BE92"/>
<path d="M44.0082 50.4165H42.3802V52.0495H44.0082V50.4165Z" fill="#59BE92"/>
<path d="M47.2639 25.9182H45.636V27.5512H47.2639V25.9182Z" fill="#59BE92"/>
<path d="M48.8918 25.9182H47.2639V27.5512H48.8918V25.9182Z" fill="#59BE92"/>
<path d="M50.5199 25.9182H48.892V27.5512H50.5199V25.9182Z" fill="#59BE92"/>
<path d="M52.1492 25.9182H50.5212V27.5512H52.1492V25.9182Z" fill="#59BE92"/>
<path d="M37.495 47.1519V48.7849H39.1229V47.1519H37.495Z" fill="#59BE92"/>
<path d="M55.4052 47.1507V48.7837H57.0331V47.1507H55.4052Z" fill="#59BE92"/>
<path d="M55.4052 29.1858V30.8188H57.0331V29.1858H55.4052Z" fill="#59BE92"/>
<path d="M34.2391 40.6184V42.2515H35.8671V40.6184H34.2391Z" fill="#59BE92"/>
<path d="M34.2391 38.9856V40.6187H35.8671V38.9856H34.2391Z" fill="#59BE92"/>
<path d="M58.6625 42.2515V43.8845H60.2904V42.2515H58.6625Z" fill="#59BE92"/>
<path d="M58.6609 40.6184V42.2515H60.2888V40.6184H58.6609Z" fill="#59BE92"/>
<path d="M58.6609 38.9856V40.6187H60.2888V38.9856H58.6609Z" fill="#59BE92"/>
<path d="M58.6609 37.3523V38.9854H60.2888V37.3523H58.6609Z" fill="#59BE92"/>
<path d="M58.6609 35.7178V37.3508H60.2888V35.7178H58.6609Z" fill="#59BE92"/>
<path d="M58.6609 34.085V35.718H60.2888V34.085H58.6609Z" fill="#59BE92"/>
<path d="M57.0331 40.6184V42.2515H58.661V40.6184H57.0331Z" fill="#00AC75"/>
<path d="M57.0331 38.9839V40.6169H58.661V38.9839H57.0331Z" fill="#00AC75"/>
<path d="M57.0331 37.3509V38.9839H58.661V37.3509H57.0331Z" fill="#00AC75"/>
<path d="M57.0331 35.7178V37.3508H58.661V35.7178H57.0331Z" fill="#00AC75"/>
<path d="M57.0331 34.085V35.718H58.661V34.085H57.0331Z" fill="#00AC75"/>
<path d="M57.0344 42.2515V43.8845H58.6623V42.2515H57.0344Z" fill="#00AC75"/>
<path d="M55.4052 40.617V42.25H57.0331V40.617H55.4052Z" fill="#00AC75"/>
<path d="M55.4052 38.9839V40.6169H57.0331V38.9839H55.4052Z" fill="#00AC75"/>
<path d="M55.4052 37.3509V38.9839H57.0331V37.3509H55.4052Z" fill="#00AC75"/>
<path d="M55.4052 35.7178V37.3508H57.0331V35.7178H55.4052Z" fill="#00AC75"/>
<path d="M55.4052 34.085V35.718H57.0331V34.085H55.4052Z" fill="#00AC75"/>
<path d="M55.4036 32.4534V34.0864H57.0315V32.4534H55.4036Z" fill="#00AC75"/>
<path d="M55.4052 30.8203V32.4534H57.0331V30.8203H55.4052Z" fill="#00AC75"/>
<path d="M55.4052 42.2515V43.8845H57.0331V42.2515H55.4052Z" fill="#00AC75"/>
<path d="M55.4036 43.886V45.519H57.0315V43.886H55.4036Z" fill="#00AC75"/>
<path d="M55.4052 45.522V47.155H57.0331V45.522H55.4052Z" fill="#00AC75"/>
<path d="M53.7772 47.1507V48.7837H55.4051V47.1507H53.7772Z" fill="#00AC75"/>
<path d="M52.1492 47.1507V48.7837H53.7771V47.1507H52.1492Z" fill="#00AC75"/>
<path d="M53.7756 40.617V42.25H55.4036V40.617H53.7756Z" fill="#32B686"/>
<path d="M53.7772 38.9839V40.6169H55.4051V38.9839H53.7772Z" fill="#59BE92"/>
<path d="M53.7772 37.3509V38.9839H55.4051V37.3509H53.7772Z" fill="#32B686"/>
<path d="M53.7772 35.7178V37.3508H55.4051V35.7178H53.7772Z" fill="#32B686"/>
<path d="M53.7772 34.085V35.718H55.4051V34.085H53.7772Z" fill="#32B686"/>
<path d="M53.7772 42.25V43.8831H55.4051V42.25H53.7772Z" fill="#32B686"/>
<path d="M52.1478 40.617V42.25H53.7758V40.617H52.1478Z" fill="#59BE92"/>
<path d="M52.1478 38.9839V40.6169H53.7758V38.9839H52.1478Z" fill="#32B686"/>
<path d="M52.1492 37.3509V38.9839H53.7771V37.3509H52.1492Z" fill="#59BE92"/>
<path d="M52.1492 35.7178V37.3508H53.7771V35.7178H52.1492Z" fill="#59BE92"/>
<path d="M52.1492 34.085V35.718H53.7771V34.085H52.1492Z" fill="#59BE92"/>
<path d="M52.1492 42.25V43.8831H53.7771V42.25H52.1492Z" fill="#32B686"/>
<path d="M50.5199 40.6184V42.2515H52.1478V40.6184H50.5199Z" fill="#32B686"/>
<path d="M50.5199 38.9856V40.6187H52.1478V38.9856H50.5199Z" fill="#59BE92"/>
<path d="M50.5199 37.3523V38.9854H52.1478V37.3523H50.5199Z" fill="#59BE92"/>
<path d="M50.5212 35.7195V37.3525H52.1492V35.7195H50.5212Z" fill="#59BE92"/>
<path d="M50.5212 34.085V35.718H52.1492V34.085H50.5212Z" fill="#59BE92"/>
<path d="M50.5212 42.2515V43.8845H52.1492V42.2515H50.5212Z" fill="#59BE92"/>
<path d="M48.892 40.6184V42.2515H50.5199V40.6184H48.892Z" fill="#59BE92"/>
<path d="M48.892 38.9856V40.6187H50.5199V38.9856H48.892Z" fill="#59BE92"/>
<path d="M48.8918 37.3523V38.9854H50.5198V37.3523H48.8918Z" fill="#59BE92"/>
<path d="M48.892 35.7178V37.3508H50.5199V35.7178H48.892Z" fill="#59BE92"/>
<path d="M48.8934 34.085V35.718H50.5214V34.085H48.8934Z" fill="#59BE92"/>
<path d="M48.8934 42.2515V43.8845H50.5214V42.2515H48.8934Z" fill="#32B686"/>
<path d="M47.2639 40.6184V42.2515H48.8918V40.6184H47.2639Z" fill="#32B686"/>
<path d="M47.2639 38.9856V40.6187H48.8918V38.9856H47.2639Z" fill="#59BE92"/>
<path d="M47.2639 37.3509V38.9839H48.8918V37.3509H47.2639Z" fill="#59BE92"/>
<path d="M47.2639 35.7178V37.3508H48.8918V35.7178H47.2639Z" fill="#59BE92"/>
<path d="M47.2639 34.085V35.718H48.8918V34.085H47.2639Z" fill="#59BE92"/>
<path d="M47.2655 42.2515V43.8845H48.8934V42.2515H47.2655Z" fill="#59BE92"/>
<path d="M45.636 40.6184V42.2515H47.2639V40.6184H45.636Z" fill="#32B686"/>
<path d="M45.636 38.9839V40.6169H47.2639V38.9839H45.636Z" fill="#59BE92"/>
<path d="M45.636 37.3509V38.9839H47.2639V37.3509H45.636Z" fill="#59BE92"/>
<path d="M45.636 35.7178V37.3508H47.2639V35.7178H45.636Z" fill="#59BE92"/>
<path d="M45.636 34.085V35.718H47.2639V34.085H45.636Z" fill="#59BE92"/>
<path d="M45.6376 42.2515V43.8845H47.2655V42.2515H45.6376Z" fill="#32B686"/>
<path d="M44.0082 40.617V42.25H45.6361V40.617H44.0082Z" fill="#32B686"/>
<path d="M44.0082 38.9839V40.6169H45.6361V38.9839H44.0082Z" fill="#59BE92"/>
<path d="M44.0082 37.3509V38.9839H45.6361V37.3509H44.0082Z" fill="#59BE92"/>
<path d="M44.0082 35.7178V37.3508H45.6361V35.7178H44.0082Z" fill="#59BE92"/>
<path d="M44.0082 34.085V35.718H45.6361V34.085H44.0082Z" fill="#59BE92"/>
<path d="M44.0082 42.2515V43.8845H45.6361V42.2515H44.0082Z" fill="#32B686"/>
<path d="M42.3787 40.617V42.25H44.0066V40.617H42.3787Z" fill="#32B686"/>
<path d="M42.3802 38.9839V40.6169H44.0082V38.9839H42.3802Z" fill="#59BE92"/>
<path d="M42.3802 37.3509V38.9839H44.0082V37.3509H42.3802Z" fill="#59BE92"/>
<path d="M42.3802 35.7178V37.3508H44.0082V35.7178H42.3802Z" fill="#59BE92"/>
<path d="M42.3802 34.085V35.718H44.0082V34.085H42.3802Z" fill="#59BE92"/>
<path d="M42.3802 42.25V43.8831H44.0082V42.25H42.3802Z" fill="#32B686"/>
<path d="M40.7507 40.617V42.25H42.3787V40.617H40.7507Z" fill="#32B686"/>
<path d="M40.7523 38.9839V40.6169H42.3802V38.9839H40.7523Z" fill="#32B686"/>
<path d="M40.7523 37.3509V38.9839H42.3802V37.3509H40.7523Z" fill="#59BE92"/>
<path d="M40.7523 42.25V43.8831H42.3802V42.25H40.7523Z" fill="#32B686"/>
<path d="M39.1229 40.617V42.25H40.7508V40.617H39.1229Z" fill="#32B686"/>
<path d="M39.1229 38.9839V40.6169H40.7508V38.9839H39.1229Z" fill="#32B686"/>
<path d="M39.1229 37.3509V38.9839H40.7509V37.3509H39.1229Z" fill="#59BE92"/>
<path d="M39.1244 42.25V43.8831H40.7523V42.25H39.1244Z" fill="#32B686"/>
<path d="M37.495 40.6184V42.2515H39.1229V40.6184H37.495Z" fill="#00AC75"/>
<path d="M37.495 38.9856V40.6187H39.1229V38.9856H37.495Z" fill="#00AC75"/>
<path d="M37.495 37.3523V38.9854H39.1229V37.3523H37.495Z" fill="#59BE92"/>
<path d="M37.4963 42.2515V43.8845H39.1243V42.2515H37.4963Z" fill="#00AC75"/>
<path d="M53.7756 43.886V45.519H55.4036V43.886H53.7756Z" fill="#00AC75"/>
<path d="M52.1478 43.886V45.519H53.7758V43.886H52.1478Z" fill="#00AC75"/>
<path d="M50.5199 43.8875V45.5205H52.1478V43.8875H50.5199Z" fill="#00AC75"/>
<path d="M48.892 43.8875V45.5205H50.5199V43.8875H48.892Z" fill="#00AC75"/>
<path d="M47.2639 43.8875V45.5205H48.8918V43.8875H47.2639Z" fill="#00AC75"/>
<path d="M45.636 43.8875V45.5205H47.2639V43.8875H45.636Z" fill="#00AC75"/>
<path d="M44.0066 43.886V45.519H45.6345V43.886H44.0066Z" fill="#00AC75"/>
<path d="M42.3787 43.886V45.519H44.0066V43.886H42.3787Z" fill="#00AC75"/>
<path d="M40.7507 43.886V45.519H42.3787V43.886H40.7507Z" fill="#00AC75"/>
<path d="M39.1229 43.886V45.519H40.7508V43.886H39.1229Z" fill="#00AC75"/>
<path d="M37.495 43.8875V45.5205H39.1229V43.8875H37.495Z" fill="#00AC75"/>
<path d="M53.7756 45.522V47.155H55.4036V45.522H53.7756Z" fill="#00AC75"/>
<path d="M52.1478 45.522V47.155H53.7758V45.522H52.1478Z" fill="#00AC75"/>
<path d="M50.5199 45.5235V47.1565H52.1478V45.5235H50.5199Z" fill="#00AC75"/>
<path d="M48.8918 45.5235V47.1565H50.5198V45.5235H48.8918Z" fill="#00AC75"/>
<path d="M47.2639 45.5235V47.1565H48.8918V45.5235H47.2639Z" fill="#00AC75"/>
<path d="M45.636 45.5235V47.1565H47.2639V45.5235H45.636Z" fill="#00AC75"/>
<path d="M44.0082 45.522V47.155H45.6361V45.522H44.0082Z" fill="#00AC75"/>
<path d="M42.3787 45.522V47.155H44.0066V45.522H42.3787Z" fill="#00AC75"/>
<path d="M40.7507 45.522V47.155H42.3787V45.522H40.7507Z" fill="#00AC75"/>
<path d="M39.1229 45.522V47.155H40.7509V45.522H39.1229Z" fill="#00AC75"/>
<path d="M50.5212 47.1519V48.7849H52.1492V47.1519H50.5212Z" fill="#0DAE89"/>
<path d="M48.892 47.1507V48.7837H50.5199V47.1507H48.892Z" fill="#0DAE89"/>
<path d="M47.2639 47.1507V48.7837H48.8918V47.1507H47.2639Z" fill="#0DAE89"/>
<path d="M45.636 47.1507V48.7837H47.2639V47.1507H45.636Z" fill="#0DAE89"/>
<path d="M44.0082 47.1507V48.7837H45.6361V47.1507H44.0082Z" fill="#0DAE89"/>
<path d="M42.3802 47.1507V48.7837H44.0082V47.1507H42.3802Z" fill="#0DAE89"/>
<path d="M50.5212 48.7867V50.4197H52.1492V48.7867H50.5212Z" fill="#00AC75"/>
<path d="M48.8918 48.7867V50.4197H50.5198V48.7867H48.8918Z" fill="#00AC75"/>
<path d="M47.2639 48.7867V50.4197H48.8918V48.7867H47.2639Z" fill="#00AC75"/>
<path d="M45.636 48.7867V50.4197H47.2639V48.7867H45.636Z" fill="#00AC75"/>
<path d="M44.0082 48.7867V50.4197H45.6361V48.7867H44.0082Z" fill="#00AC75"/>
<path d="M42.3802 48.7867V50.4197H44.0082V48.7867H42.3802Z" fill="#00AC75"/>
<path d="M40.7523 47.1507V48.7837H42.3802V47.1507H40.7523Z" fill="#0DAE89"/>
<path d="M39.1244 47.1507V48.7837H40.7523V47.1507H39.1244Z" fill="#0DAE89"/>
<path d="M37.495 45.5235V47.1565H39.1229V45.5235H37.495Z" fill="#00AC75"/>
<path d="M35.8671 40.6184V42.2515H37.495V40.6184H35.8671Z" fill="#00AC75"/>
<path d="M35.8671 38.9856V40.6187H37.495V38.9856H35.8671Z" fill="#00AC75"/>
<path d="M35.8671 37.3509V38.9839H37.495V37.3509H35.8671Z" fill="#59BE92"/>
<path d="M40.7523 35.7178V37.3508H42.3802V35.7178H40.7523Z" fill="#59BE92"/>
<path d="M39.1244 35.7178V37.3508H40.7523V35.7178H39.1244Z" fill="#59BE92"/>
<path d="M37.495 35.7178V37.3508H39.1229V35.7178H37.495Z" fill="#59BE92"/>
<path d="M35.8671 35.7178V37.3508H37.495V35.7178H35.8671Z" fill="#59BE92"/>
<path d="M34.239 37.3509V38.9839H35.8669V37.3509H34.239Z" fill="#59BE92"/>
<path d="M32.6111 37.3509V38.9839H34.239V37.3509H32.6111Z" fill="#59BE92"/>
<path d="M34.2391 35.7178V37.3508H35.8671V35.7178H34.2391Z" fill="#59BE92"/>
<path d="M32.6111 35.7178V37.3508H34.239V35.7178H32.6111Z" fill="#59BE92"/>
<path d="M39.1244 34.0862V35.7192H40.7523V34.0862H39.1244Z" fill="#59BE92"/>
<path d="M40.7523 34.0862V35.7192H42.3802V34.0862H40.7523Z" fill="#59BE92"/>
<path d="M37.4963 34.0879V35.7209H39.1243V34.0879H37.4963Z" fill="#59BE92"/>
<path d="M35.8685 34.0879V35.7209H37.4965V34.0879H35.8685Z" fill="#59BE92"/>
<path d="M34.2391 34.0879V35.7209H35.8671V34.0879H34.2391Z" fill="#59BE92"/>
<path d="M32.6111 34.0879V35.7209H34.239V34.0879H32.6111Z" fill="#59BE92"/>
<path d="M30.9833 37.3509V38.9839H32.6112V37.3509H30.9833Z" fill="#59BE92"/>
<path d="M30.9833 35.7178V37.3508H32.6112V35.7178H30.9833Z" fill="#59BE92"/>
<path d="M30.9833 34.085V35.718H32.6112V34.085H30.9833Z" fill="#59BE92"/>
<path d="M29.3553 34.085V35.718H30.9833V34.085H29.3553Z" fill="#59BE92"/>
<path d="M30.9833 32.4519V34.085H32.6112V32.4519H30.9833Z" fill="#59BE92"/>
<path d="M29.3553 32.4519V34.085H30.9833V32.4519H29.3553Z" fill="#59BE92"/>
<path d="M53.7772 32.4519V34.085H55.4051V32.4519H53.7772Z" fill="#32B686"/>
<path d="M53.7772 30.8174V32.4504H55.4051V30.8174H53.7772Z" fill="#32B686"/>
<path d="M52.1492 32.4502V34.0833H53.7771V32.4502H52.1492Z" fill="#59BE92"/>
<path d="M52.1492 30.8174V32.4504H53.7771V30.8174H52.1492Z" fill="#59BE92"/>
<path d="M50.5212 32.4519V34.085H52.1492V32.4519H50.5212Z" fill="#59BE92"/>
<path d="M50.5212 30.8189V32.4519H52.1492V30.8189H50.5212Z" fill="#32B686"/>
<path d="M48.8934 32.4519V34.085H50.5214V32.4519H48.8934Z" fill="#59BE92"/>
<path d="M48.8934 30.8189V32.4519H50.5214V30.8189H48.8934Z" fill="#59BE92"/>
<path d="M47.2655 32.4519V34.085H48.8934V32.4519H47.2655Z" fill="#59BE92"/>
<path d="M47.2655 30.8189V32.4519H48.8934V30.8189H47.2655Z" fill="#59BE92"/>
<path d="M53.7772 29.1873V30.8203H55.4051V29.1873H53.7772Z" fill="#32B686"/>
<path d="M52.1478 29.1873V30.8203H53.7758V29.1873H52.1478Z" fill="#59BE92"/>
<path d="M50.5199 29.1888V30.8218H52.1478V29.1888H50.5199Z" fill="#59BE92"/>
<path d="M48.892 29.1888V30.8218H50.5199V29.1888H48.892Z" fill="#59BE92"/>
<path d="M47.2639 29.1888V30.8218H48.8918V29.1888H47.2639Z" fill="#59BE92"/>
<path d="M50.5199 27.5559V29.189H52.1478V27.5559H50.5199Z" fill="#59BE92"/>
<path d="M48.8918 27.5559V29.189H50.5198V27.5559H48.8918Z" fill="#59BE92"/>
<path d="M47.2639 27.5545V29.1875H48.8918V27.5545H47.2639Z" fill="#59BE92"/>
<path d="M45.636 32.4519V34.085H47.2639V32.4519H45.636Z" fill="#59BE92"/>
<path d="M45.6376 30.8189V32.4519H47.2655V30.8189H45.6376Z" fill="#59BE92"/>
<path d="M44.0082 32.4519V34.085H45.6361V32.4519H44.0082Z" fill="#59BE92"/>
<path d="M44.0082 30.8189V32.4519H45.6361V30.8189H44.0082Z" fill="#59BE92"/>
<path d="M42.3802 32.4519V34.085H44.0082V32.4519H42.3802Z" fill="#59BE92"/>
<path d="M40.7523 32.4502V34.0833H42.3802V32.4502H40.7523Z" fill="#59BE92"/>
<path d="M39.1244 32.4502V34.0833H40.7523V32.4502H39.1244Z" fill="#59BE92"/>
<path d="M37.4963 32.4519V34.085H39.1243V32.4519H37.4963Z" fill="#59BE92"/>
<path d="M42.3802 30.8174V32.4504H44.0082V30.8174H42.3802Z" fill="#59BE92"/>
<path d="M40.7523 30.8174V32.4504H42.3802V30.8174H40.7523Z" fill="#59BE92"/>
<path d="M39.1244 30.8174V32.4504H40.7523V30.8174H39.1244Z" fill="#59BE92"/>
<path d="M37.4963 30.8189V32.4519H39.1243V30.8189H37.4963Z" fill="#59BE92"/>
<path d="M35.8685 32.4519V34.085H37.4965V32.4519H35.8685Z" fill="#59BE92"/>
<path d="M34.2391 32.4519V34.085H35.8671V32.4519H34.2391Z" fill="#59BE92"/>
<path d="M35.8685 30.8189V32.4519H37.4965V30.8189H35.8685Z" fill="#59BE92"/>
<path d="M34.2406 30.8189V32.4519H35.8685V30.8189H34.2406Z" fill="#59BE92"/>
<path d="M32.6111 32.4519V34.085H34.239V32.4519H32.6111Z" fill="#59BE92"/>
<path d="M32.6111 30.8189V32.4519H34.239V30.8189H32.6111Z" fill="#59BE92"/>
<path d="M45.636 29.1873V30.8203H47.2639V29.1873H45.636Z" fill="#59BE92"/>
<path d="M45.636 27.5545V29.1875H47.2639V27.5545H45.636Z" fill="#59BE92"/>
<path d="M44.0082 29.1873V30.8203H45.6361V29.1873H44.0082Z" fill="#59BE92"/>
<path d="M44.0082 27.5545V29.1875H45.6361V27.5545H44.0082Z" fill="#59BE92"/>
<path d="M42.3802 29.1873V30.8203H44.0082V29.1873H42.3802Z" fill="#59BE92"/>
<path d="M42.3802 27.5545V29.1875H44.0082V27.5545H42.3802Z" fill="#59BE92"/>
<path d="M40.7507 29.1873V30.8203H42.3787V29.1873H40.7507Z" fill="#59BE92"/>
<path d="M40.7523 27.5545V29.1875H42.3802V27.5545H40.7523Z" fill="#59BE92"/>
<path d="M39.1229 29.1873V30.8203H40.7508V29.1873H39.1229Z" fill="#59BE92"/>
<path d="M39.1229 27.5545V29.1875H40.7508V27.5545H39.1229Z" fill="#59BE92"/>
<path d="M37.495 29.1888V30.8218H39.1229V29.1888H37.495Z" fill="#59BE92"/>
<path d="M37.495 27.5559V29.189H39.1229V27.5559H37.495Z" fill="#59BE92"/>
<path d="M35.8671 29.1888V30.8218H37.495V29.1888H35.8671Z" fill="#59BE92"/>
<path d="M35.8671 27.5545V29.1875H37.495V27.5545H35.8671Z" fill="#59BE92"/>
<path d="M34.2391 29.1873V30.8203H35.8671V29.1873H34.2391Z" fill="#59BE92"/>
<path d="M32.6111 29.1873V30.8203H34.239V29.1873H32.6111Z" fill="#59BE92"/>
<path d="M30.9833 29.1873V30.8203H32.6112V29.1873H30.9833Z" fill="#59BE92"/>
<path d="M29.3538 29.1873V30.8203H30.9817V29.1873H29.3538Z" fill="#59BE92"/>
<path d="M34.239 27.5545V29.1875H35.8669V27.5545H34.239Z" fill="#59BE92"/>
<path d="M32.6111 27.5545V29.1875H34.239V27.5545H32.6111Z" fill="#59BE92"/>
<path d="M30.9833 27.5545V29.1875H32.6112V27.5545H30.9833Z" fill="#59BE92"/>
<path d="M29.3553 27.5545V29.1875H30.9833V27.5545H29.3553Z" fill="#59BE92"/>
<path d="M27.7258 29.1873V30.8203H29.3538V29.1873H27.7258Z" fill="#59BE92"/>
<path d="M26.098 29.1888V30.8218H27.7259V29.1888H26.098Z" fill="#59BE92"/>
<path d="M27.7258 27.5545V29.1875H29.3538V27.5545H27.7258Z" fill="#59BE92"/>
<path d="M26.098 27.5559V29.189H27.7259V27.5559H26.098Z" fill="#59BE92"/>
<path d="M24.4701 29.1888V30.8218H26.098V29.1888H24.4701Z" fill="#59BE92"/>
<path d="M30.9833 30.8174V32.4504H32.6112V30.8174H30.9833Z" fill="#59BE92"/>
<path d="M29.3553 30.8174V32.4504H30.9833V30.8174H29.3553Z" fill="#59BE92"/>
<path d="M27.7274 30.8174V32.4504H29.3553V30.8174H27.7274Z" fill="#59BE92"/>
<path d="M26.0995 30.8189V32.4519H27.7274V30.8189H26.0995Z" fill="#59BE92"/>
<path d="M24.4716 30.8189V32.4519H26.0995V30.8189H24.4716Z" fill="#59BE92"/>
<path d="M22.8436 30.8189V32.4519H24.4716V30.8189H22.8436Z" fill="#59BE92"/>
<path d="M21.2142 30.8189V32.4519H22.8422V30.8189H21.2142Z" fill="#59BE92"/>
<path d="M19.5863 30.8174V32.4504H21.2142V30.8174H19.5863Z" fill="#32B686"/>
<path d="M17.9584 30.8174V32.4504H19.5863V30.8174H17.9584Z" fill="#32B686"/>
<path d="M17.9584 29.1873V30.8203H19.5863V29.1873H17.9584Z" fill="#32B686"/>
<path d="M17.9584 27.5545V29.1875H19.5863V27.5545H17.9584Z" fill="#32B686"/>
<path d="M16.3304 30.8174V32.4504H17.9584V30.8174H16.3304Z" fill="#32B686"/>
<path d="M24.4701 27.5545V29.1875H26.098V27.5545H24.4701Z" fill="#59BE92"/>
<path d="M22.8422 29.1873V30.8203H24.4701V29.1873H22.8422Z" fill="#59BE92"/>
<path d="M21.2142 29.1873V30.8203H22.8422V29.1873H21.2142Z" fill="#59BE92"/>
<path d="M22.8422 27.5545V29.1875H24.4701V27.5545H22.8422Z" fill="#59BE92"/>
<path d="M21.2142 27.5545V29.1875H22.8422V27.5545H21.2142Z" fill="#59BE92"/>
<path d="M19.5863 29.1873V30.8203H21.2142V29.1873H19.5863Z" fill="#32B686"/>
<path d="M19.5863 27.5545V29.1875H21.2142V27.5545H19.5863Z" fill="#32B686"/>
<path d="M35.8685 42.2515V43.8845H37.4965V42.2515H35.8685Z" fill="#00AC75"/>
<path d="M32.6111 40.6184V42.2515H34.239V40.6184H32.6111Z" fill="#00AC75"/>
<path d="M32.6111 38.9839V40.6169H34.239V38.9839H32.6111Z" fill="#00AC75"/>
<path d="M32.6127 42.2515V43.8845H34.2406V42.2515H32.6127Z" fill="#00AC75"/>
<path d="M30.9833 40.617V42.25H32.6112V40.617H30.9833Z" fill="#00AC75"/>
<path d="M30.9833 38.9839V40.6169H32.6112V38.9839H30.9833Z" fill="#00AC75"/>
<path d="M30.9833 42.2515V43.8845H32.6112V42.2515H30.9833Z" fill="#00AC75"/>
<path d="M30.9833 43.8875V45.5205H32.6112V43.8875H30.9833Z" fill="#00AC75"/>
<path d="M30.9833 45.522V47.155H32.6112V45.522H30.9833Z" fill="#00AC75"/>
<path d="M29.3553 47.1507V48.7837H30.9833V47.1507H29.3553Z" fill="#00AC75"/>
<path d="M27.7274 47.1507V48.7837H29.3553V47.1507H27.7274Z" fill="#00AC75"/>
<path d="M29.3538 40.617V42.25H30.9817V40.617H29.3538Z" fill="#32B686"/>
<path d="M29.3553 38.9839V40.6169H30.9833V38.9839H29.3553Z" fill="#32B686"/>
<path d="M29.3553 42.25V43.8831H30.9833V42.25H29.3553Z" fill="#32B686"/>
<path d="M27.7258 40.617V42.25H29.3538V40.617H27.7258Z" fill="#59BE92"/>
<path d="M27.7258 38.9839V40.6169H29.3538V38.9839H27.7258Z" fill="#59BE92"/>
<path d="M27.7274 42.25V43.8831H29.3553V42.25H27.7274Z" fill="#32B686"/>
<path d="M26.098 40.617V42.25H27.7259V40.617H26.098Z" fill="#32B686"/>
<path d="M26.098 38.9839V40.6169H27.7259V38.9839H26.098Z" fill="#59BE92"/>
<path d="M26.0995 42.25V43.8831H27.7274V42.25H26.0995Z" fill="#32B686"/>
<path d="M24.4701 40.6184V42.2515H26.098V40.6184H24.4701Z" fill="#59BE92"/>
<path d="M24.4701 38.9856V40.6187H26.098V38.9856H24.4701Z" fill="#32B686"/>
<path d="M24.4716 42.2515V43.8845H26.0995V42.2515H24.4716Z" fill="#32B686"/>
<path d="M22.8422 40.6184V42.2515H24.4701V40.6184H22.8422Z" fill="#59BE92"/>
<path d="M22.8422 38.9856V40.6187H24.4701V38.9856H22.8422Z" fill="#59BE92"/>
<path d="M22.8436 42.2515V43.8845H24.4716V42.2515H22.8436Z" fill="#32B686"/>
<path d="M21.2142 40.6184V42.2515H22.8422V40.6184H21.2142Z" fill="#32B686"/>
<path d="M21.2142 38.9839V40.6169H22.8422V38.9839H21.2142Z" fill="#32B686"/>
<path d="M21.2157 42.2515V43.8845H22.8436V42.2515H21.2157Z" fill="#32B686"/>
<path d="M19.5863 40.617V42.25H21.2142V40.617H19.5863Z" fill="#32B686"/>
<path d="M19.5863 38.9839V40.6169H21.2142V38.9839H19.5863Z" fill="#32B686"/>
<path d="M19.5863 42.2515V43.8845H21.2142V42.2515H19.5863Z" fill="#32B686"/>
<path d="M17.9569 40.617V42.25H19.5848V40.617H17.9569Z" fill="#32B686"/>
<path d="M17.9584 38.9839V40.6169H19.5863V38.9839H17.9584Z" fill="#32B686"/>
<path d="M17.9584 42.25V43.8831H19.5863V42.25H17.9584Z" fill="#32B686"/>
<path d="M16.329 40.617V42.25H17.9569V40.617H16.329Z" fill="#32B686"/>
<path d="M16.329 38.9839V40.6169H17.9569V38.9839H16.329Z" fill="#32B686"/>
<path d="M16.3304 42.25V43.8831H17.9584V42.25H16.3304Z" fill="#32B686"/>
<path d="M14.7009 40.617V42.25H16.3289V40.617H14.7009Z" fill="#00AC75"/>
<path d="M14.701 38.9839V40.6169H16.329V38.9839H14.701Z" fill="#00AC75"/>
<path d="M14.7025 42.25V43.8831H16.3304V42.25H14.7025Z" fill="#00AC75"/>
<path d="M13.0731 40.6184V42.2515H14.701V40.6184H13.0731Z" fill="#00AC75"/>
<path d="M13.0731 38.9856V40.6187H14.701V38.9856H13.0731Z" fill="#00AC75"/>
<path d="M13.0746 42.2515V43.8845H14.7025V42.2515H13.0746Z" fill="#00AC75"/>
<path d="M29.3538 43.886V45.519H30.9817V43.886H29.3538Z" fill="#00AC75"/>
<path d="M27.7258 43.886V45.519H29.3538V43.886H27.7258Z" fill="#00AC75"/>
<path d="M26.098 43.886V45.519H27.7259V43.886H26.098Z" fill="#00AC75"/>
<path d="M24.4701 43.8875V45.5205H26.098V43.8875H24.4701Z" fill="#00AC75"/>
<path d="M22.8422 43.8875V45.5205H24.4701V43.8875H22.8422Z" fill="#00AC75"/>
<path d="M21.2142 43.8875V45.5205H22.8422V43.8875H21.2142Z" fill="#00AC75"/>
<path d="M19.5863 43.8875V45.5205H21.2142V43.8875H19.5863Z" fill="#00AC75"/>
<path d="M17.9569 43.886V45.519H19.5848V43.886H17.9569Z" fill="#00AC75"/>
<path d="M16.329 43.886V45.519H17.9569V43.886H16.329Z" fill="#00AC75"/>
<path d="M14.7009 43.886V45.519H16.3289V43.886H14.7009Z" fill="#00AC75"/>
<path d="M13.0731 43.8875V45.5205H14.701V43.8875H13.0731Z" fill="#00AC75"/>
<path d="M29.3538 45.522V47.155H30.9817V45.522H29.3538Z" fill="#00AC75"/>
<path d="M27.7258 45.522V47.155H29.3538V45.522H27.7258Z" fill="#00AC75"/>
<path d="M26.098 45.522V47.155H27.7259V45.522H26.098Z" fill="#00AC75"/>
<path d="M24.4701 45.5235V47.1565H26.098V45.5235H24.4701Z" fill="#00AC75"/>
<path d="M22.8422 45.5235V47.1565H24.4701V45.5235H22.8422Z" fill="#00AC75"/>
<path d="M19.5863 45.522V47.155H21.2142V45.522H19.5863Z" fill="#00AC75"/>
<path d="M21.2142 45.522V47.155H22.8422V45.522H21.2142Z" fill="#00AC75"/>
<path d="M17.9569 45.522V47.155H19.5848V45.522H17.9569Z" fill="#00AC75"/>
<path d="M16.329 45.522V47.155H17.9569V45.522H16.329Z" fill="#00AC75"/>
<path d="M14.7009 45.522V47.155H16.3289V45.522H14.7009Z" fill="#00AC75"/>
<path d="M26.0995 47.1507V48.7837H27.7274V47.1507H26.0995Z" fill="#00AC75"/>
<path d="M24.4701 47.1507V48.7837H26.098V47.1507H24.4701Z" fill="#00AC75"/>
<path d="M22.8422 47.1507V48.7837H24.4701V47.1507H22.8422Z" fill="#00AC75"/>
<path d="M21.2142 47.1507V48.7837H22.8422V47.1507H21.2142Z" fill="#00AC75"/>
<path d="M19.5863 47.1507V48.7837H21.2142V47.1507H19.5863Z" fill="#00AC75"/>
<path d="M17.9584 47.1507V48.7837H19.5863V47.1507H17.9584Z" fill="#00AC75"/>
<path d="M26.0995 48.7867V50.4197H27.7274V48.7867H26.0995Z" fill="#0DAE89"/>
<path d="M24.4716 48.7867V50.4197H26.0995V48.7867H24.4716Z" fill="#0DAE89"/>
<path d="M22.8422 48.7867V50.4197H24.4701V48.7867H22.8422Z" fill="#0DAE89"/>
<path d="M21.2142 48.7867V50.4197H22.8422V48.7867H21.2142Z" fill="#0DAE89"/>
<path d="M19.5863 48.7867V50.4197H21.2142V48.7867H19.5863Z" fill="#0DAE89"/>
<path d="M17.9584 48.7867V50.4197H19.5863V48.7867H17.9584Z" fill="#0DAE89"/>
<path d="M16.3304 47.1507V48.7837H17.9584V47.1507H16.3304Z" fill="#00AC75"/>
<path d="M14.7025 47.1507V48.7837H16.3304V47.1507H14.7025Z" fill="#00AC75"/>
<path d="M13.0731 45.5235V47.1565H14.701V45.5235H13.0731Z" fill="#00AC75"/>
<path d="M11.4452 40.6184V42.2515H13.0731V40.6184H11.4452Z" fill="#00AC75"/>
<path d="M11.4452 38.9856V40.6187H13.0731V38.9856H11.4452Z" fill="#00AC75"/>
<path d="M29.3553 37.3509V38.9839H30.9833V37.3509H29.3553Z" fill="#59BE92"/>
<path d="M29.3553 35.7178V37.3508H30.9833V35.7178H29.3553Z" fill="#59BE92"/>
<path d="M27.7274 37.3509V38.9839H29.3553V37.3509H27.7274Z" fill="#59BE92"/>
<path d="M27.7274 35.7178V37.3508H29.3553V35.7178H27.7274Z" fill="#59BE92"/>
<path d="M26.098 37.3509V38.9839H27.7259V37.3509H26.098Z" fill="#59BE92"/>
<path d="M26.0995 35.7178V37.3508H27.7274V35.7178H26.0995Z" fill="#59BE92"/>
<path d="M24.4701 37.3523V38.9854H26.098V37.3523H24.4701Z" fill="#59BE92"/>
<path d="M24.4701 35.7178V37.3508H26.098V35.7178H24.4701Z" fill="#59BE92"/>
<path d="M22.8422 37.3509V38.9839H24.4701V37.3509H22.8422Z" fill="#59BE92"/>
<path d="M22.8422 35.7178V37.3508H24.4701V35.7178H22.8422Z" fill="#59BE92"/>
<path d="M21.2142 37.3509V38.9839H22.8422V37.3509H21.2142Z" fill="#59BE92"/>
<path d="M21.2142 35.7178V37.3508H22.8422V35.7178H21.2142Z" fill="#59BE92"/>
<path d="M19.5863 37.3509V38.9839H21.2142V37.3509H19.5863Z" fill="#32B686"/>
<path d="M19.5863 35.7178V37.3508H21.2142V35.7178H19.5863Z" fill="#32B686"/>
<path d="M17.9584 37.3509V38.9839H19.5863V37.3509H17.9584Z" fill="#32B686"/>
<path d="M17.9584 35.7178V37.3508H19.5863V35.7178H17.9584Z" fill="#32B686"/>
<path d="M16.3304 37.3509V38.9839H17.9584V37.3509H16.3304Z" fill="#32B686"/>
<path d="M16.3304 35.7178V37.3508H17.9584V35.7178H16.3304Z" fill="#32B686"/>
<path d="M14.7009 37.3509V38.9839H16.3289V37.3509H14.7009Z" fill="#00AC75"/>
<path d="M14.7025 35.7178V37.3508H16.3304V35.7178H14.7025Z" fill="#00AC75"/>
<path d="M13.0731 37.3523V38.9854H14.701V37.3523H13.0731Z" fill="#00AC75"/>
<path d="M13.0731 35.7178V37.3508H14.701V35.7178H13.0731Z" fill="#00AC75"/>
<path d="M11.4452 37.3509V38.9839H13.0731V37.3509H11.4452Z" fill="#00AC75"/>
<path d="M11.4452 35.7178V37.3508H13.0731V35.7178H11.4452Z" fill="#00AC75"/>
<path d="M27.7274 34.085V35.718H29.3553V34.085H27.7274Z" fill="#59BE92"/>
<path d="M26.0995 34.0835V35.7166H27.7274V34.0835H26.0995Z" fill="#59BE92"/>
<path d="M24.4716 34.085V35.718H26.0995V34.085H24.4716Z" fill="#59BE92"/>
<path d="M22.8422 34.085V35.718H24.4701V34.085H22.8422Z" fill="#59BE92"/>
<path d="M21.2142 34.085V35.718H22.8422V34.085H21.2142Z" fill="#59BE92"/>
<path d="M19.5863 34.085V35.718H21.2142V34.085H19.5863Z" fill="#32B686"/>
<path d="M17.9584 34.085V35.718H19.5863V34.085H17.9584Z" fill="#32B686"/>
<path d="M16.3304 34.085V35.718H17.9584V34.085H16.3304Z" fill="#32B686"/>
<path d="M14.7025 34.0835V35.7166H16.3304V34.0835H14.7025Z" fill="#00AC75"/>
<path d="M13.0746 34.085V35.718H14.7025V34.085H13.0746Z" fill="#00AC75"/>
<path d="M27.7274 32.4502V34.0833H29.3553V32.4502H27.7274Z" fill="#59BE92"/>
<path d="M26.0995 32.4502V34.0833H27.7274V32.4502H26.0995Z" fill="#59BE92"/>
<path d="M24.4716 32.4519V34.085H26.0995V32.4519H24.4716Z" fill="#59BE92"/>
<path d="M22.8436 32.4519V34.085H24.4716V32.4519H22.8436Z" fill="#59BE92"/>
<path d="M21.2142 32.4519V34.085H22.8422V32.4519H21.2142Z" fill="#59BE92"/>
<path d="M19.5863 32.4519V34.085H21.2142V32.4519H19.5863Z" fill="#32B686"/>
<path d="M17.9584 32.4519V34.085H19.5863V32.4519H17.9584Z" fill="#32B686"/>
<path d="M16.3304 32.4502V34.0833H17.9584V32.4502H16.3304Z" fill="#32B686"/>
<path d="M14.7025 32.4502V34.0833H16.3304V32.4502H14.7025Z" fill="#00AC75"/>
<path d="M13.0746 32.4519V34.085H14.7025V32.4519H13.0746Z" fill="#00AC75"/>
<path d="M14.7009 30.8204V32.4534H16.3289V30.8204H14.7009Z" fill="#00AC75"/>
<path d="M16.329 29.1858V30.8188H17.9569V29.1858H16.329Z" fill="#32B686"/>
<path d="M14.7009 29.1888V30.8218H16.3289V29.1888H14.7009Z" fill="#00AC75"/>
<path d="M13.0731 30.8218V32.4548H14.701V30.8218H13.0731Z" fill="#00AC75"/>
<path d="M11.4452 34.085V35.718H13.0731V34.085H11.4452Z" fill="#00AC75"/>
<path d="M11.4467 42.2515V43.8845H13.0746V42.2515H11.4467Z" fill="#00AC75"/>
<path d="M35.8671 29.1799V27.5469H34.2391V29.1799H35.8671Z" fill="#59BE92"/>
<path d="M45.636 25.1003V23.4673H44.0081V25.1003H45.636Z" fill="#F9D0E2"/>
<path d="M44.0082 26.7319V25.0989H42.3803V26.7319H44.0082Z" fill="#F7BBD5"/>
<path d="M45.6376 26.7319V25.0989H44.0096V26.7319H45.6376Z" fill="#F7BBD5"/>
<path d="M47.2655 26.7319V25.0989H45.6376V26.7319H47.2655Z" fill="#F7BBD5"/>
<path d="M44.0082 25.1018V23.4688H42.3803V25.1018H44.0082Z" fill="#F9D0E2"/>
<path d="M47.2639 25.1018V23.4688H45.636V25.1018H47.2639Z" fill="#F9D0E2"/>
<path d="M26.0995 26.7319V25.0989H24.4716V26.7319H26.0995Z" fill="#F7BBD5"/>
<path d="M27.7274 26.7319V25.0989H26.0995V26.7319H27.7274Z" fill="#F7BBD5"/>
<path d="M29.3553 26.7336V25.1006H27.7274V26.7336H29.3553Z" fill="#F7BBD5"/>
<path d="M26.098 25.1018V23.4688H24.4701V25.1018H26.098Z" fill="#F9D0E2"/>
<path d="M27.7258 25.1018V23.4688H26.0979V25.1018H27.7258Z" fill="#F9D0E2"/>
<path d="M29.3553 25.1018V23.4688H27.7274V25.1018H29.3553Z" fill="#F9D0E2"/>
<path d="M30.9833 21.8359V20.2029H29.3554V21.8359H30.9833Z" fill="#184742"/>
<path d="M32.6111 21.8359V20.2029H30.9832V21.8359H32.6111Z" fill="white"/>
<path d="M30.9833 23.4687V21.8357H29.3554V23.4687H30.9833Z" fill="#184742"/>
<path d="M32.6111 23.4687V21.8357H30.9832V23.4687H32.6111Z" fill="#184742"/>
<path d="M40.7507 21.8359V20.2029H39.1228V21.8359H40.7507Z" fill="#184742"/>
<path d="M42.3802 21.8359V20.2029H40.7523V21.8359H42.3802Z" fill="white"/>
<path d="M40.7523 23.4687V21.8357H39.1244V23.4687H40.7523Z" fill="#184742"/>
<path d="M42.3802 23.4687V21.8357H40.7523V23.4687H42.3802Z" fill="#184742"/>
<path d="M32.6111 26.7319V25.0989H30.9832V26.7319H32.6111Z" fill="#184742"/>
<path d="M34.2406 28.365V26.7319H32.6127V28.365H34.2406Z" fill="#184742"/>
<path d="M35.8685 28.365V26.7319H34.2406V28.365H35.8685Z" fill="#184742"/>
<path d="M40.7523 26.7336V25.1006H39.1244V26.7336H40.7523Z" fill="#184742"/>
<path d="M39.1243 28.3664V26.7334H37.4963V28.3664H39.1243Z" fill="#184742"/>
<path d="M37.4963 28.365V26.7319H35.8684V28.365H37.4963Z" fill="#184742"/>
<path d="M47.0501 52.0496H42.6654V55.5316H40.9677V60.0001H47.0486V55.5331H47.0501V52.0496Z" fill="#184742"/>
<path d="M45.636 58.583V56.95H44.0081V58.583H45.636Z" fill="#008459"/>
<path d="M44.0082 58.583V56.95H42.3803V58.583H44.0082Z" fill="#008459"/>
<path d="M45.636 56.9502V55.3171H44.0081V56.9502H45.636Z" fill="#008459"/>
<path d="M45.636 55.3154V53.6824H44.0081V55.3154H45.636Z" fill="#008459"/>
<path d="M45.6376 53.6826V52.0496H44.0096V53.6826H45.6376Z" fill="#008459"/>
<path d="M28.0779 52.0496H23.6932V55.5316H21.9955V60.0001H28.0779V55.5331V52.0496Z" fill="#184742"/>
<path d="M26.6638 58.583V56.95H25.0359V58.583H26.6638Z" fill="#008459"/>
<path d="M25.036 58.583V56.95H23.4081V58.583H25.036Z" fill="#008459"/>
<path d="M26.6638 56.9487V55.3157H25.0359V56.9487H26.6638Z" fill="#008459"/>
<path d="M26.6638 55.3154V53.6824H25.0359V55.3154H26.6638Z" fill="#008459"/>
<path d="M26.6654 53.6826V52.0496H25.0375V53.6826H26.6654Z" fill="#008459"/>
<path d="M21.7059 33.8182V30.2869H20.9335V26.8182H20.1953V23.3674H19.2997V19.857H18.3119V16.3481H14.4203V17.1408H11.2982V18.0467H7.91311V19.0644H4.63943V19.857H2.64612V23.3376H3.15856V25.6024H3.47493V28.0922H4.37356V30.2988H4.97809V32.6888H5.50241V35.1785H5.81136V37.4537H6.25696V39.8198H7.37096V41.3902H11.42V40.5648H14.7872V39.6559H18.1218V38.6993H21.5693V37.8798H22.5897V33.8182H21.7059Z" fill="#184742"/>
<path d="M18.1857 20.9746H3.76013V22.2202H18.1857V20.9746Z" fill="#FFDC78"/>
<path d="M18.1857 22.2202H4.81323V23.4658H18.1857V22.2202Z" fill="#FFDC78"/>
<path d="M19.0829 24.4846H5.55151V25.7302H19.0829V24.4846Z" fill="#FFDC78"/>
<path d="M19.0813 26.9746H5.8678V28.2202H19.0813V26.9746Z" fill="#FFDC78"/>
<path d="M19.8196 29.1812H6.61646V30.4268H19.8196V29.1812Z" fill="#FFDC78"/>
<path d="M10.3059 33.8464H7.74817V35.0921H10.3059V33.8464Z" fill="#FFDC78"/>
<path d="M17.0078 36.3362H8.04529V37.5818H17.0078V36.3362Z" fill="#FFDC78"/>
<path d="M13.6732 38.7021H8.29932V39.6304H13.6732V38.7021Z" fill="#FFDC78"/>
<path d="M10.7056 39.5649H8.29932V40.3576H10.7056V39.5649Z" fill="#FFDC78"/>
<path d="M18.1872 23.2393H4.27258V24.4849H18.1872V23.2393Z" fill="#FFDC78"/>
<path d="M19.0813 25.729H4.58887V26.9746H19.0813V25.729Z" fill="#FFDC78"/>
<path d="M15.925 23.625H14.4219V24.4832H15.925V23.625Z" fill="#FFDC78"/>
<path d="M19.8195 27.9373H5.27661V29.1829H19.8195V27.9373Z" fill="#FFDC78"/>
<path d="M19.8195 30.3257H6.09204V31.5713H19.8195V30.3257Z" fill="#FFDC78"/>
<path d="M9.1742 32.8154H6.61646V34.0611H9.1742V32.8154Z" fill="#FFDC78"/>
<path d="M9.92871 31.5713H7.37097V32.8169H9.92871V31.5713Z" fill="#FFDC78"/>
<path d="M17.9346 35.0906H6.92529V36.3362H17.9346V35.0906Z" fill="#FFDC78"/>
<path d="M20.5918 31.4045H7.74817V35.3068H20.5918V31.4045Z" fill="#FFDC78"/>
<path d="M13.6732 37.5818H7.37097V38.8304H13.6732V37.5818Z" fill="#FFDC78"/>
<path d="M17.0078 37.2942H10.7056V38.5398H17.0078V37.2942Z" fill="#FFDC78"/>
<path d="M20.4552 36.3362H14.153V37.5818H20.4552V36.3362Z" fill="#FFDC78"/>
<path d="M21.4757 34.9355H15.1735V36.7623H21.4757V34.9355Z" fill="#FFDC78"/>
<path d="M17.198 17.4656H15.5344V18.7112H17.198V17.4656Z" fill="#FFDC78"/>
<path d="M17.1979 20.1816H5.75342V21.4273H17.1979V20.1816Z" fill="#FFDC78"/>
<path d="M17.1994 19.1641H9.0271V20.4097H17.1994V19.1641Z" fill="#FFDC78"/>
<path d="M17.198 18.2581H12.4122V19.5037H17.198V18.2581Z" fill="#FFDC78"/>
<path d="M8.65135 26.1165H7.14819V26.9747H8.65135V26.1165Z" fill="#FFDC78"/>
<path d="M11.6295 25.2998H8.6499V26.158H11.6295V25.2998Z" fill="#FFDC78"/>
<path d="M14.606 24.4417H11.1897V25.2999H14.606V24.4417Z" fill="#FFDC78"/>
<path d="M8.40037 23.1096H6.89722V23.9678H8.40037V23.1096Z" fill="#FFDC78"/>
<path d="M15.6725 20.8047H13.6703V21.6629H15.6725V20.8047Z" fill="#FFDC78"/>
<path d="M11.1898 22.2932H8.40039V23.1514H11.1898V22.2932Z" fill="#FFDC78"/>
<path d="M13.6733 21.4348H11.0918V22.293H13.6733V21.4348Z" fill="#FFDC78"/>
<path d="M25.5157 36.3345V32.8033H24.7433V29.3346H24.0051V25.8838H23.1095V22.3734H22.1232V18.8645H18.2302V19.6572H15.108V20.5631H11.7229V21.5807H8.45073V22.3734H6.45593V25.854H6.96837V28.1188H7.28623V30.6085H8.18337V32.8152H8.78939V35.2051H9.31371V37.6949H9.62118V39.9701H10.0683V42.3362H11.1823V43.9066H15.2298V43.0811H18.5985V42.1723H21.9316V41.2157H25.3791V40.3962H26.3995V36.3345H25.5157Z" fill="#184742"/>
<path d="M21.9955 23.491H7.56995V24.7366H21.9955V23.491Z" fill="#1F70FF"/>
<path d="M21.9956 24.7366H8.62317V25.9822H21.9956V24.7366Z" fill="#1F70FF"/>
<path d="M22.8927 27.0012H9.36133V28.2468H22.8927V27.0012Z" fill="#1F70FF"/>
<path d="M22.8926 29.4912H9.67908V30.7368H22.8926V29.4912Z" fill="#1F70FF"/>
<path d="M23.6309 31.6978H10.4277V32.9434H23.6309V31.6978Z" fill="#1F70FF"/>
<path d="M14.1158 36.3628H11.5581V37.6084H14.1158V36.3628Z" fill="#1F70FF"/>
<path d="M20.8177 38.8525H11.8552V40.0982H20.8177V38.8525Z" fill="#1F70FF"/>
<path d="M17.4845 41.2188H12.1106V42.147H17.4845V41.2188Z" fill="#1F70FF"/>
<path d="M14.5168 42.0813H12.1106V42.874H14.5168V42.0813Z" fill="#1F70FF"/>
<path d="M21.997 25.7559H8.0824V27.0015H21.997V25.7559Z" fill="#1F70FF"/>
<path d="M22.8928 28.2456H8.40039V29.4912H22.8928V28.2456Z" fill="#1F70FF"/>
<path d="M19.735 26.1416H18.2318V26.9998H19.735V26.1416Z" fill="#1F70FF"/>
<path d="M23.6294 30.4536H9.08655V31.6992H23.6294V30.4536Z" fill="#1F70FF"/>
<path d="M23.6309 32.842H9.90344V34.0877H23.6309V32.842Z" fill="#1F70FF"/>
<path d="M12.9855 35.3318H10.4277V36.5774H12.9855V35.3318Z" fill="#1F70FF"/>
<path d="M13.7401 34.0876H11.1824V35.3333H13.7401V34.0876Z" fill="#1F70FF"/>
<path d="M21.7445 37.6069H10.7352V38.8526H21.7445V37.6069Z" fill="#1F70FF"/>
<path d="M24.4018 33.9209H11.5581V37.8232H24.4018V33.9209Z" fill="#1F70FF"/>
<path d="M17.4846 40.0981H11.1824V41.3467H17.4846V40.0981Z" fill="#1F70FF"/>
<path d="M20.8176 39.8105H14.5154V41.0562H20.8176V39.8105Z" fill="#1F70FF"/>
<path d="M24.265 38.8525H17.9628V40.0982H24.265V38.8525Z" fill="#1F70FF"/>
<path d="M25.2855 37.4519H18.9833V39.2786H25.2855V37.4519Z" fill="#1F70FF"/>
<path d="M21.0078 19.9819H19.3442V21.2276H21.0078V19.9819Z" fill="#1F70FF"/>
<path d="M21.0093 22.6982H9.56482V23.9439H21.0093V22.6982Z" fill="#1F70FF"/>
<path d="M21.0093 21.6804H12.837V22.926H21.0093V21.6804Z" fill="#1F70FF"/>
<path d="M21.0078 20.7747H16.222V22.0203H21.0078V20.7747Z" fill="#1F70FF"/>
<path d="M12.4612 28.6328H10.958V29.491H12.4612V28.6328Z" fill="#1F70FF"/>
<path d="M15.4408 27.8164H12.4612V28.6746H15.4408V27.8164Z" fill="#1F70FF"/>
<path d="M18.4159 26.958H14.9996V27.8162H18.4159V26.958Z" fill="#1F70FF"/>
<path d="M12.2102 25.626H10.707V26.4842H12.2102V25.626Z" fill="#1F70FF"/>
<path d="M19.4825 23.321H17.4802V24.1793H19.4825V23.321Z" fill="#1F70FF"/>
<path d="M14.9997 24.8096H12.2102V25.6678H14.9997V24.8096Z" fill="#1F70FF"/>
<path d="M17.4846 23.9512H14.9031V24.8094H17.4846V23.9512Z" fill="#1F70FF"/>
<path d="M29.7341 37.9646V34.4334H28.9617V30.9662H28.2235V27.5139H27.3279V24.005H26.3416V20.4946H22.4485V21.2873H19.3264V22.1932H15.9413V23.2124H12.6691V24.005H10.6743V27.4841H11.1868V29.7489H11.5046V32.2401H12.4018V34.4468H13.0078V36.8352H13.5321V39.3265H13.8396V41.6002H14.2866V43.9663H15.4006V45.5367H19.4482V44.7113H22.8169V43.8039H26.15V42.8458H29.5975V42.0278H30.6179V37.9646H29.7341Z" fill="#184742"/>
<path d="M26.2139 25.1226H11.7883V26.3682H26.2139V25.1226Z" fill="#F7F8F2"/>
<path d="M26.214 26.3667H12.8416V27.6123H26.214V26.3667Z" fill="#F7F8F2"/>
<path d="M27.1111 28.6313H13.5797V29.877H27.1111V28.6313Z" fill="#F7F8F2"/>
<path d="M27.111 31.1226H13.8975V32.3682H27.111V31.1226Z" fill="#F7F8F2"/>
<path d="M27.8492 33.3293H14.6461V34.575H27.8492V33.3293Z" fill="#F7F8F2"/>
<path d="M18.3342 37.9929H15.7765V39.2385H18.3342V37.9929Z" fill="#F7F8F2"/>
<path d="M25.0361 40.4827H16.0736V41.7283H25.0361V40.4827Z" fill="#F7F8F2"/>
<path d="M21.7029 42.8486H16.329V43.7769H21.7029V42.8486Z" fill="#F7F8F2"/>
<path d="M18.7352 43.7114H16.329V44.5041H18.7352V43.7114Z" fill="#F7F8F2"/>
<path d="M26.2154 27.386H12.3008V28.6316H26.2154V27.386Z" fill="#F7F8F2"/>
<path d="M27.111 29.877H12.6187V31.1226H27.111V29.877Z" fill="#F7F8F2"/>
<path d="M23.9532 27.7732H22.4501V28.6314H23.9532V27.7732Z" fill="#184742"/>
<path d="M27.8477 32.0837H13.3048V33.3294H27.8477V32.0837Z" fill="#F7F8F2"/>
<path d="M27.8493 34.4722H14.1218V35.7178H27.8493V34.4722Z" fill="#F7F8F2"/>
<path d="M17.2039 36.9634H14.6461V38.209H17.2039V36.9634Z" fill="#F7F8F2"/>
<path d="M17.9585 35.7178H15.4008V36.9634H17.9585V35.7178Z" fill="#F7F8F2"/>
<path d="M25.9629 39.2385H14.9536V40.4841H25.9629V39.2385Z" fill="#F7F8F2"/>
<path d="M28.6202 35.551H15.7765V39.4533H28.6202V35.551Z" fill="#F7F8F2"/>
<path d="M21.703 41.7283H15.4008V42.9769H21.703V41.7283Z" fill="#F7F8F2"/>
<path d="M25.036 41.4407H18.7338V42.6863H25.036V41.4407Z" fill="#F7F8F2"/>
<path d="M28.4834 40.4827H22.1812V41.7283H28.4834V40.4827Z" fill="#F7F8F2"/>
<path d="M29.5039 39.082H23.2017V40.9087H29.5039V39.082Z" fill="#F7F8F2"/>
<path d="M25.2262 21.6121H23.5626V22.8577H25.2262V21.6121Z" fill="#F7F8F2"/>
<path d="M25.2276 24.3298H13.7831V25.5755H25.2276V24.3298Z" fill="#F7F8F2"/>
<path d="M25.2277 23.3105H17.0554V24.5562H25.2277V23.3105Z" fill="#F7F8F2"/>
<path d="M25.2262 22.4045H20.4404V23.6502H25.2262V22.4045Z" fill="#F7F8F2"/>
<path d="M16.6795 30.2629H15.1764V31.1212H16.6795V30.2629Z" fill="#184742"/>
<path d="M19.6591 29.4478H16.6796V30.306H19.6591V29.4478Z" fill="#184742"/>
<path d="M22.6342 28.5881H19.2179V29.4464H22.6342V28.5881Z" fill="#184742"/>
<path d="M16.4286 27.2561H14.9254V28.1143H16.4286V27.2561Z" fill="#184742"/>
<path d="M23.7008 24.9526H21.6986V25.8109H23.7008V24.9526Z" fill="#184742"/>
<path d="M19.218 26.4412H16.4286V27.2994H19.218V26.4412Z" fill="#184742"/>
<path d="M21.703 25.5828H19.1215V26.441H21.703V25.5828Z" fill="#184742"/>
<path d="M8.08244 31.501H3.69773L2 31.4995V33.4514V37.9198H8.08244V33.4529V31.501Z" fill="#184742"/>
<path d="M6.66833 36.5012V34.8682H5.04041V36.5012H6.66833Z" fill="#008459"/>
<path d="M5.04041 34.8684V33.2354H3.41248V34.8684H5.04041Z" fill="#008459"/>
<path d="M5.04041 36.5026V34.8696H3.41248V36.5026H5.04041Z" fill="#008459"/>
<path d="M6.66833 34.8684V33.2354H5.04041V34.8684H6.66833Z" fill="#008459"/>
<path d="M50.7649 36.162L49.9658 34.739L51.3843 33.9374L52.1834 35.3603L53.6019 34.5587L55.0204 33.7571L56.4389 32.9555L57.8574 32.1539L59.2759 31.3523L60.075 32.7752L58.6565 33.5768L57.238 34.3784L55.8195 35.1801L54.401 35.9817L52.9825 36.7833L51.564 37.5849L50.7649 36.162Z" fill="#184742"/>
<path d="M61.9999 33.3145L59.8135 29.4211L53.9539 32.8868L52.9364 31.3373L48.0408 34.201L51.0263 39.5158L61.9999 33.3145Z" fill="#184742"/>
<path d="M54.402 35.9831L55.8203 35.1814L55.0212 33.7587L53.6029 34.5603L54.402 35.9831Z" fill="#008459"/>
<path d="M55.8207 35.1808L57.239 34.3792L56.4399 32.9564L55.0216 33.7581L55.8207 35.1808Z" fill="#008459"/>
<path d="M57.2393 34.38L58.6576 33.5784L57.8584 32.1557L56.4402 32.9573L57.2393 34.38Z" fill="#008459"/>
<path d="M58.6564 33.5778L60.0747 32.7761L59.2756 31.3534L57.8573 32.1551L58.6564 33.5778Z" fill="#008459"/>
<path d="M52.9826 36.7841L54.4009 35.9824L53.6017 34.5597L52.1835 35.3614L52.9826 36.7841Z" fill="#008459"/>
<path d="M51.564 37.5849L52.9823 36.7832L52.1831 35.3605L50.7649 36.1621L51.564 37.5849Z" fill="#008459"/>
<path d="M50.7657 36.1635L52.184 35.3618L51.3848 33.9391L49.9665 34.7408L50.7657 36.1635Z" fill="#008459"/>
<path d="M52.1829 35.3612L53.6012 34.5596L52.802 33.1369L51.3838 33.9385L52.1829 35.3612Z" fill="#008459"/>
</g>
<defs>
<clipPath id="clip0_4703_82650">
<rect width="60" height="60" fill="white" transform="translate(2)"/>
</clipPath>
</defs>
</svg>
