<svg width="163" height="13" viewBox="0 0 163 13" fill="none" xmlns="http://www.w3.org/2000/svg">
<path d="M7.50005 11.25V12.5H4.57764e-05C4.57764e-05 4.16667 4.57764e-05 0 4.57764e-05 0H7.50005V1.25H8.75005V5H7.50005V6.25H8.75005C8.75005 9.58333 8.75005 11.25 8.75005 11.25H7.50005ZM2.50005 10H6.25005C6.25005 8.33333 6.25005 7.5 6.25005 7.5H2.50005C2.50005 9.16667 2.50005 10 2.50005 10ZM2.50005 5H6.25005C6.25005 3.33333 6.25005 2.5 6.25005 2.5H2.50005C2.50005 4.16667 2.50005 5 2.50005 5ZM15.85 11.25V12.5H12.1V11.25H10.85V10H9.60004C9.60004 5 9.60004 2.5 9.60004 2.5H10.85V1.25H12.1V0H15.85V1.25H17.1V2.5H18.35C18.35 7.5 18.35 10 18.35 10H17.1V11.25H15.85ZM13.35 10H14.6V8.75H15.85C15.85 5.41667 15.85 3.75 15.85 3.75H14.6V2.5H13.35V3.75H12.1C12.1 7.08333 12.1 8.75 12.1 8.75H13.35V10ZM25.45 11.25V12.5H21.7V11.25H20.45V10H19.2C19.2 5 19.2 2.5 19.2 2.5H20.45V1.25H21.7V0H25.45V1.25H26.7V2.5H27.95C27.95 7.5 27.95 10 27.95 10H26.7V11.25H25.45ZM22.95 10H24.2V8.75H25.45C25.45 5.41667 25.45 3.75 25.45 3.75H24.2V2.5H22.95V3.75H21.7C21.7 7.08333 21.7 8.75 21.7 8.75H22.95V10ZM28.8 0H31.3V3.75H32.55V2.5H33.8V1.25H35.05V0H37.55C37.55 1.66667 37.55 2.5 37.55 2.5H36.3V3.75H35.05V5H33.8C33.8 6.66667 33.8 7.5 33.8 7.5H35.05V8.75H36.3V10H37.55C37.55 11.6667 37.55 12.5 37.55 12.5H35.05V11.25H33.8V10H32.55V8.75H31.3V12.5H28.8C28.8 4.16667 28.8 0 28.8 0ZM48 0H50.5C50.5 6.66667 50.5 10 50.5 10H56.75C56.75 11.6667 56.75 12.5 56.75 12.5H48C48 4.16667 48 0 48 0ZM65.1 11.25V12.5H58.85V11.25H57.6V0H60.1C60.1 6.66667 60.1 10 60.1 10H63.85C63.85 3.33333 63.85 0 63.85 0H66.35V11.25H65.1ZM74.7 11.25V12.5H69.7V11.25H68.45V10H67.2C67.2 5 67.2 2.5 67.2 2.5H68.45V1.25H69.7V0H74.7V1.25H75.95C75.95 2.91667 75.95 3.75 75.95 3.75H73.45V2.5H70.95V3.75H69.7C69.7 7.08333 69.7 8.75 69.7 8.75H70.95V10H73.45V8.75H75.95C75.95 10.4167 75.95 11.25 75.95 11.25H74.7ZM76.8 0H79.3V3.75H80.55V2.5H81.8V1.25H83.05V0H85.55C85.55 1.66667 85.55 2.5 85.55 2.5H84.3V3.75H83.05V5H81.8C81.8 6.66667 81.8 7.5 81.8 7.5H83.05V8.75H84.3V10H85.55C85.55 11.6667 85.55 12.5 85.55 12.5H83.05V11.25H81.8V10H80.55V8.75H79.3V12.5H76.8C76.8 4.16667 76.8 0 76.8 0ZM96 0H98.5V1.25H99.75V2.5H101V1.25H102.25V0H104.75C104.75 8.33333 104.75 12.5 104.75 12.5H102.25C102.25 7.5 102.25 5 102.25 5H101V6.25H99.75V5H98.5C98.5 10 98.5 12.5 98.5 12.5H96C96 4.16667 96 0 96 0ZM106.85 10H108.1C108.1 5 108.1 2.5 108.1 2.5H106.85C106.85 0.833333 106.85 0 106.85 0H111.85C111.85 1.66667 111.85 2.5 111.85 2.5H110.6C110.6 7.5 110.6 10 110.6 10H111.85C111.85 11.6667 111.85 12.5 111.85 12.5H106.85C106.85 10.8333 106.85 10 106.85 10ZM122.7 11.25V12.5H116.45V11.25H115.2C115.2 9.58333 115.2 8.75 115.2 8.75H117.7V10H121.45C121.45 8.33333 121.45 7.5 121.45 7.5H116.45V6.25H115.2C115.2 2.91667 115.2 1.25 115.2 1.25H116.45V0H122.7V1.25H123.95C123.95 2.91667 123.95 3.75 123.95 3.75H121.45V2.5H117.7C117.7 4.16667 117.7 5 117.7 5H122.7V6.25H123.95C123.95 9.58333 123.95 11.25 123.95 11.25H122.7ZM132.3 11.25V12.5H126.05V11.25H124.8C124.8 9.58333 124.8 8.75 124.8 8.75H127.3V10H131.05C131.05 8.33333 131.05 7.5 131.05 7.5H126.05V6.25H124.8C124.8 2.91667 124.8 1.25 124.8 1.25H126.05V0H132.3V1.25H133.55C133.55 2.91667 133.55 3.75 133.55 3.75H131.05V2.5H127.3C127.3 4.16667 127.3 5 127.3 5H132.3V6.25H133.55C133.55 9.58333 133.55 11.25 133.55 11.25H132.3ZM135.65 10H136.9C136.9 5 136.9 2.5 136.9 2.5H135.65C135.65 0.833333 135.65 0 135.65 0H140.65C140.65 1.66667 140.65 2.5 140.65 2.5H139.4C139.4 7.5 139.4 10 139.4 10H140.65C140.65 11.6667 140.65 12.5 140.65 12.5H135.65C135.65 10.8333 135.65 10 135.65 10ZM150.25 11.25V12.5H146.5V11.25H145.25V10H144C144 5 144 2.5 144 2.5H145.25V1.25H146.5V0H150.25V1.25H151.5V2.5H152.75C152.75 7.5 152.75 10 152.75 10H151.5V11.25H150.25ZM147.75 10H149V8.75H150.25C150.25 5.41667 150.25 3.75 150.25 3.75H149V2.5H147.75V3.75H146.5C146.5 7.08333 146.5 8.75 146.5 8.75H147.75V10ZM153.6 0H156.1C156.1 1.66667 156.1 2.5 156.1 2.5H157.35V3.75H158.6V5H159.85C159.85 1.66667 159.85 0 159.85 0H162.35C162.35 8.33333 162.35 12.5 162.35 12.5H159.85V8.75H158.6V7.5H157.35V6.25H156.1V12.5H153.6C153.6 4.16667 153.6 0 153.6 0Z" fill="#303030"/>
</svg>
