<svg width="19" height="20" viewBox="0 0 19 20" fill="none" xmlns="http://www.w3.org/2000/svg">
<rect y="2" width="1" height="1" fill="black"/>
<rect x="1" y="1" width="1" height="1" fill="black"/>
<rect x="2" width="1" height="1" fill="black"/>
<rect x="3" width="1" height="1" fill="black"/>
<rect x="4" width="1" height="1" fill="black"/>
<rect x="5" width="1" height="1" fill="black"/>
<rect x="6" width="1" height="1" fill="black"/>
<rect x="7" width="1" height="1" fill="black"/>
<rect x="8" width="1" height="1" fill="black"/>
<rect x="9" width="1" height="1" fill="black"/>
<rect x="10" width="1" height="1" fill="black"/>
<rect x="11" width="1" height="1" fill="black"/>
<rect y="3" width="1" height="1" fill="black"/>
<rect y="4" width="1" height="1" fill="black"/>
<rect y="5" width="1" height="1" fill="black"/>
<rect y="6" width="1" height="1" fill="black"/>
<rect y="7" width="1" height="1" fill="black"/>
<rect y="8" width="1" height="1" fill="black"/>
<rect y="9" width="1" height="1" fill="black"/>
<rect y="10" width="1" height="1" fill="black"/>
<rect y="11" width="1" height="1" fill="black"/>
<rect y="12" width="1" height="1" fill="black"/>
<rect y="13" width="1" height="1" fill="black"/>
<rect y="14" width="1" height="1" fill="black"/>
<rect y="15" width="1" height="1" fill="black"/>
<rect x="3" y="13" width="1" height="1" fill="black"/>
<rect x="4" y="13" width="1" height="1" fill="black"/>
<rect x="5" y="13" width="1" height="1" fill="black"/>
<rect x="6" y="13" width="1" height="1" fill="black"/>
<rect x="7" y="13" width="1" height="1" fill="black"/>
<rect x="8" y="13" width="1" height="1" fill="black"/>
<rect x="9" y="13" width="1" height="1" fill="black"/>
<rect x="10" y="13" width="1" height="1" fill="black"/>
<rect x="11" y="13" width="1" height="1" fill="black"/>
<rect x="12" y="13" width="1" height="1" fill="black"/>
<rect x="3" y="15" width="1" height="1" fill="black"/>
<rect x="4" y="15" width="1" height="1" fill="black"/>
<rect x="5" y="15" width="1" height="1" fill="black"/>
<rect x="6" y="15" width="1" height="1" fill="black"/>
<rect x="7" y="15" width="1" height="1" fill="black"/>
<rect x="8" y="15" width="1" height="1" fill="black"/>
<rect x="9" y="15" width="1" height="1" fill="black"/>
<rect x="10" y="15" width="1" height="1" fill="black"/>
<rect x="11" y="15" width="1" height="1" fill="black"/>
<rect y="16" width="1" height="1" fill="black"/>
<rect y="17" width="1" height="1" fill="black"/>
<rect y="18" width="1" height="1" fill="black"/>
<rect x="1" y="19" width="1" height="1" fill="black"/>
<rect x="2" y="19" width="1" height="1" fill="black"/>
<rect x="3" y="19" width="1" height="1" fill="black"/>
<rect x="4" y="19" width="1" height="1" fill="black"/>
<rect x="5" y="19" width="1" height="1" fill="black"/>
<rect x="6" y="19" width="1" height="1" fill="black"/>
<rect x="7" y="19" width="1" height="1" fill="black"/>
<rect x="8" y="19" width="1" height="1" fill="black"/>
<rect x="9" y="19" width="1" height="1" fill="black"/>
<rect x="10" y="19" width="1" height="1" fill="black"/>
<rect x="11" y="19" width="1" height="1" fill="black"/>
<rect x="12" y="19" width="1" height="1" fill="black"/>
<rect x="13" y="19" width="1" height="1" fill="black"/>
<rect x="14" y="19" width="1" height="1" fill="black"/>
<rect x="15" y="19" width="1" height="1" fill="black"/>
<rect x="16" y="19" width="1" height="1" fill="black"/>
<rect x="17" y="19" width="1" height="1" fill="black"/>
<rect x="18" y="18" width="1" height="1" fill="black"/>
<rect x="18" y="17" width="1" height="1" fill="black"/>
<rect x="18" y="16" width="1" height="1" fill="black"/>
<rect x="18" y="15" width="1" height="1" fill="black"/>
<rect x="18" y="14" width="1" height="1" fill="black"/>
<rect x="18" y="13" width="1" height="1" fill="black"/>
<rect x="18" y="12" width="1" height="1" fill="black"/>
<rect x="18" y="11" width="1" height="1" fill="black"/>
<rect x="18" y="10" width="1" height="1" fill="black"/>
<rect x="18" y="9" width="1" height="1" fill="black"/>
<rect x="18" y="8" width="1" height="1" fill="black"/>
<rect x="18" y="7" width="1" height="1" fill="black"/>
<rect x="18" y="6" width="1" height="1" fill="black"/>
<rect x="17" y="5" width="1" height="1" fill="black"/>
<rect x="16" y="4" width="1" height="1" fill="black"/>
<rect x="15" y="3" width="1" height="1" fill="black"/>
<rect x="14" y="2" width="1" height="1" fill="black"/>
<rect x="13" y="1" width="1" height="1" fill="black"/>
<rect x="12" y="1" width="1" height="1" fill="black"/>
<rect x="11" y="2" width="1" height="1" fill="black"/>
<rect x="11" y="3" width="1" height="1" fill="black"/>
<rect x="11" y="4" width="1" height="1" fill="black"/>
<rect x="11" y="5" width="1" height="1" fill="black"/>
<rect x="11" y="6" width="1" height="1" fill="black"/>
<rect x="12" y="7" width="1" height="1" fill="black"/>
<rect x="13" y="7" width="1" height="1" fill="black"/>
<rect x="14" y="7" width="1" height="1" fill="black"/>
<rect x="15" y="7" width="1" height="1" fill="black"/>
<rect x="16" y="7" width="1" height="1" fill="black"/>
<rect x="17" y="7" width="1" height="1" fill="black"/>
<rect x="11" y="1" width="1" height="1" fill="black"/>
</svg>
