<svg width="24" height="24" viewBox="0 0 24 24" fill="none" xmlns="http://www.w3.org/2000/svg">
<path d="M19.1437 5.80625H16.2875V2.95H17.2375V2H3.90625V22H20.0938V4.85625H19.1437V5.80625ZM19.1437 21.05H4.85625V2.95H15.3312V6.7625H19.1437V21.05Z" fill="black"/>
<path d="M16.3755 5H10.1255V6.52H16.3755V5Z" fill="black"/>
<path d="M16.3755 10.3799H10.1255V11.8999H16.3755V10.3799Z" fill="black"/>
<path d="M16.3755 15.3799H10.1255V16.8999H16.3755V15.3799Z" fill="black"/>
<path d="M16.3755 20.3799H10.1255V21.8999H16.3755V20.3799Z" fill="black"/>
<path d="M8.96582 6.76245H7.05957V8.6687H8.96582V6.76245Z" fill="black"/>
<path d="M8.96582 10.125H7.05957V12.0313H8.96582V10.125Z" fill="black"/>
<path d="M8.96582 13.25H7.05957V15.1563H8.96582V13.25Z" fill="black"/>
<path d="M8.96582 16.375H7.05957V18.2813H8.96582V16.375Z" fill="black"/>
<path d="M19.1438 3.90625H18.1938V4.85625H19.1438V3.90625Z" fill="black"/>
<path d="M18.194 2.94995H17.2378V3.9062H18.194V2.94995Z" fill="black"/>
</svg>
