<svg width="25" height="24" viewBox="0 0 25 24" fill="none" xmlns="http://www.w3.org/2000/svg">
<g id="content-files-folder-open" clip-path="url(#clip0_3135_39047)">
<g id="Group">
<path id="Vector" d="M23.5206 2.28408H22.3806V1.14408H21.2406V-0.00341797H5.23561V9.14658H1.80811V10.2866H7.52311V9.14658H6.38311V1.14408H18.9531V5.71158H23.5206V17.1416H22.3806V19.4291H23.5206V22.8566H24.6681V3.43158H23.5206V2.28408Z" fill="#000001"/>
<path id="Vector_2" d="M23.5203 22.8564H6.38281V23.9964H23.5203V22.8564Z" fill="#000001"/>
<path id="Vector_3" d="M22.3807 14.854H21.2407V17.1415H22.3807V14.854Z" fill="#000001"/>
<path id="Vector_4" d="M21.2403 12.5742H20.0928V14.8542H21.2403V12.5742Z" fill="#000001"/>
<path id="Vector_5" d="M20.0929 11.4268H8.67041V12.5743H20.0929V11.4268Z" fill="#000001"/>
<path id="Vector_6" d="M16.6654 5.71191H15.5254V6.85941H16.6654V5.71191Z" fill="#000001"/>
<path id="Vector_7" d="M15.5256 7.99902H12.0981V9.14652H15.5256V7.99902Z" fill="#000001"/>
<path id="Vector_8" d="M12.0977 5.71191H10.9502V6.85941H12.0977V5.71191Z" fill="#000001"/>
<path id="Vector_9" d="M8.67045 10.2866H7.52295V11.4266H8.67045V10.2866Z" fill="#000001"/>
<path id="Vector_10" d="M6.38285 20.5693H5.23535V22.8568H6.38285V20.5693Z" fill="#000001"/>
<path id="Vector_11" d="M5.23521 18.2891H4.09521V20.5691H5.23521V18.2891Z" fill="#000001"/>
<path id="Vector_12" d="M4.09557 16.0015H2.95557V18.289H4.09557V16.0015Z" fill="#000001"/>
<path id="Vector_13" d="M2.95561 13.7139H1.80811V16.0014H2.95561V13.7139Z" fill="#000001"/>
<path id="Vector_14" d="M1.80797 10.2866H0.667969V13.7141H1.80797V10.2866Z" fill="#000001"/>
</g>
</g>
<defs>
<clipPath id="clip0_3135_39047">
<rect width="24" height="24" fill="white" transform="translate(0.666504)"/>
</clipPath>
</defs>
</svg>
