<svg width="88" height="65" viewBox="0 0 88 65" fill="none" xmlns="http://www.w3.org/2000/svg">
<g clip-path="url(#clip0_4697_124559)">
<path d="M33.4726 57.238V55.5334H36.9691V53.7871H38.7192V52.0369H40.9325V53.7871H42.6826V55.5334H46.1829V57.2835H47.056H51.8433H59.717V55.5334H63.2172V53.7871H64.9673V52.0369H66.7175V34.9988H64.9673V29.2852H63.2172V27.5351H64.9673V25.785H66.7175V22.2847H68.4676V8.75065H66.7175V5.25039H64.9673V3.50026H63.2172V1.75013H59.717V0H46.1829V1.75013H42.6826V3.50026H40.9325V5.25039H38.7192V3.50026H36.9691V1.75013H33.4726V0H19.9347V1.75013H16.4345V3.50026H14.6843V5.25039H12.9342V8.75065H11.1841V22.2847H12.9342V25.785H14.6843V27.5351H16.4345V29.7484H14.6843V31.4985H12.9342V34.9988H11.1841V48.5367H12.9342V52.0369H14.6843V53.7871H16.4345V55.5334H19.9347V57.2835H28.6854" fill="#184742"/>
<path d="M16.689 30.0368L15.7171 28.5828L14.2631 29.5508L12.8053 30.5227L11.3513 31.4908L9.89345 32.4627L8.43943 33.4345L7.46756 31.9767L6.01355 32.9486L6.98163 34.4026L7.9535 35.8604L9.40751 34.8885L10.8653 33.9205L12.3193 32.9486L13.7771 31.9767L15.2312 31.0086L16.689 30.0368Z" fill="#184742"/>
<path d="M18.7959 30.4582L7.53203 37.9675L3.90649 32.5273L7.88889 29.8698L8.86076 31.3276L16.1384 26.4758L18.7959 30.4582Z" fill="#184742"/>
<path d="M10.8646 33.9154L12.3209 32.9448L11.3504 31.4885L9.89402 32.459L10.8646 33.9154Z" fill="#008459"/>
<path d="M12.3201 32.9471L13.7765 31.9766L12.8059 30.5202L11.3496 31.4907L12.3201 32.9471Z" fill="#008459"/>
<path d="M13.7789 31.9769L15.2352 31.0063L14.2647 29.55L12.8083 30.5205L13.7789 31.9769Z" fill="#008459"/>
<path d="M15.2324 31.0057L16.6887 30.0352L15.7182 28.5788L14.2618 29.5493L15.2324 31.0057Z" fill="#008459"/>
<path d="M9.40777 34.8888L10.8641 33.9182L9.89359 32.4618L8.43723 33.4324L9.40777 34.8888Z" fill="#008459"/>
<path d="M7.95599 35.857L9.41235 34.8865L8.44181 33.4301L6.98545 34.4006L7.95599 35.857Z" fill="#008459"/>
<path d="M6.98467 34.4034L8.44104 33.4329L7.4705 31.9765L6.01413 32.947L6.98467 34.4034Z" fill="#008459"/>
<path d="M73.9344 27.1935L72.9664 25.7395L71.5086 26.7076L72.4804 28.1654L71.0226 29.1335L69.5686 30.1053L68.1108 31.0772L66.6568 32.0453L65.199 33.0172L66.1708 34.475L67.6249 33.5031L69.0827 32.5312L70.5367 31.5631L71.9945 30.5913L73.4485 29.6194L74.9063 28.6513L73.9344 27.1935Z" fill="#184742"/>
<path d="M65.7494 36.578L63.0919 32.5956L70.3734 27.7438L69.4015 26.286L73.3877 23.6323L77.0132 29.0725L65.7494 36.578Z" fill="#184742"/>
<path d="M71.0277 29.1396L69.5713 30.1101L70.5418 31.5665L71.9982 30.5959L71.0277 29.1396Z" fill="#008459"/>
<path d="M69.5656 30.1117L68.1093 31.0823L69.0798 32.5386L70.5362 31.5681L69.5656 30.1117Z" fill="#008459"/>
<path d="M68.1125 31.0815L66.6561 32.052L67.6267 33.5084L69.083 32.5378L68.1125 31.0815Z" fill="#008459"/>
<path d="M66.6542 32.0502L65.1979 33.0208L66.1684 34.4771L67.6248 33.5066L66.6542 32.0502Z" fill="#008459"/>
<path d="M72.4808 28.1698L71.0244 29.1404L71.995 30.5967L73.4513 29.6262L72.4808 28.1698Z" fill="#008459"/>
<path d="M73.937 27.1979L72.4806 28.1685L73.4511 29.6248L74.9075 28.6543L73.937 27.1979Z" fill="#008459"/>
<path d="M72.9674 25.7448L71.511 26.7153L72.4815 28.1717L73.9379 27.2012L72.9674 25.7448Z" fill="#008459"/>
<path d="M63.4489 36.5173H65.199V34.7672V33.0171H63.4489V34.7672V36.5173Z" fill="#184742"/>
<path d="M66.7175 31.4985H61.9303V38.0359H66.7175V31.4985Z" fill="#184742"/>
<path d="M59.9486 31.2668H61.6987V29.5205H59.9486H58.1985V31.2668H59.9486Z" fill="#184742"/>
<path d="M63.4489 31.2668H61.6987V33.017H63.4489V31.2668Z" fill="#184742"/>
<path d="M65.199 38.2675V40.0176V41.7677V43.5178V45.268V47.0181H66.9491V45.268V43.5178V41.7677V40.0176V38.2675V36.5173H65.199V38.2675Z" fill="#184742"/>
<path d="M68.4677 34.9988H63.6804V48.5367H68.4677V34.9988Z" fill="#184742"/>
<path d="M21.4534 50.5183H19.7032V52.2684H21.4534V50.5183Z" fill="#0DAE89"/>
<path d="M19.7031 50.5183H17.953V52.2684H19.7031V50.5183Z" fill="#0DAE89"/>
<path d="M17.953 50.5145V48.7644H16.2029V50.5145H17.953Z" fill="#00AC75"/>
<path d="M17.953 48.7682V47.0181H16.2029V48.7682H17.953Z" fill="#00AC75"/>
<path d="M16.203 40.0177V38.2676H14.4529V40.0177H16.203Z" fill="#00AC75"/>
<path d="M16.203 41.7677V40.0176H14.4529V41.7677H16.203Z" fill="#00AC75"/>
<path d="M16.203 43.5177V41.7676H14.4529V43.5177H16.203Z" fill="#00AC75"/>
<path d="M16.203 45.268V43.5178H14.4529V45.268H16.203Z" fill="#00AC75"/>
<path d="M16.203 47.0182V45.2681H14.4529V47.0182H16.203Z" fill="#00AC75"/>
<path d="M16.203 38.2675V36.5173H14.4529V38.2675H16.203Z" fill="#00AC75"/>
<path d="M16.203 13.7694V12.0193H14.4529V13.7694H16.203Z" fill="#00AC75"/>
<path d="M16.203 15.5197V13.7695H14.4529V15.5197H16.203Z" fill="#00AC75"/>
<path d="M16.203 17.2697V15.5195H14.4529V17.2697H16.203Z" fill="#00AC75"/>
<path d="M16.203 19.0197V17.2695H14.4529V19.0197H16.203Z" fill="#00AC75"/>
<path d="M16.203 20.7699V19.0198H14.4529V20.7699H16.203Z" fill="#00AC75"/>
<path d="M16.2068 12.0194V10.2693H14.4567V12.0194H16.2068Z" fill="#00AC75"/>
<path d="M17.953 13.7694V12.0193H16.2029V13.7694H17.953Z" fill="#00AC75"/>
<path d="M17.953 15.5197V13.7695H16.2029V15.5197H17.953Z" fill="#00AC75"/>
<path d="M17.953 17.2697V15.5195H16.2029V17.2697H17.953Z" fill="#00AC75"/>
<path d="M17.953 19.0197V17.2695H16.2029V19.0197H17.953Z" fill="#00AC75"/>
<path d="M17.953 20.7699V19.0198H16.2029V20.7699H17.953Z" fill="#00AC75"/>
<path d="M17.953 22.5162V20.7661H16.2029V22.5162H17.953Z" fill="#00AC75"/>
<path d="M17.953 24.2665V22.5164H16.2029V24.2665H17.953Z" fill="#00AC75"/>
<path d="M17.953 12.0194V10.2693H16.2029V12.0194H17.953Z" fill="#00AC75"/>
<path d="M17.953 10.2655V8.51538H16.2029V10.2655H17.953Z" fill="#00AC75"/>
<path d="M17.953 8.51527V6.76514H16.2029V8.51527H17.953Z" fill="#00AC75"/>
<path d="M19.7032 6.76893V5.0188H17.9531V6.76893H19.7032Z" fill="#00AC75"/>
<path d="M21.4534 6.77259V5.02246H19.7032V6.77259H21.4534Z" fill="#00AC75"/>
<path d="M19.7032 13.7694V12.0193H17.9531V13.7694H19.7032Z" fill="#00AC75"/>
<path d="M19.7031 15.5197V13.7695H17.953V15.5197H19.7031Z" fill="#00AC75"/>
<path d="M19.7031 17.2697V15.5195H17.953V17.2697H19.7031Z" fill="#00AC75"/>
<path d="M19.7031 19.0197V17.2695H17.953V19.0197H19.7031Z" fill="#00AC75"/>
<path d="M19.7032 20.7699V19.0198H17.9531V20.7699H19.7032Z" fill="#00AC75"/>
<path d="M19.7032 12.0194V10.2693H17.9531V12.0194H19.7032Z" fill="#00AC75"/>
<path d="M21.4534 13.7694V12.0193H19.7032V13.7694H21.4534Z" fill="#32B686"/>
<path d="M21.4534 15.5197V13.7695H19.7032V15.5197H21.4534Z" fill="#32B686"/>
<path d="M21.4534 17.2697V15.5195H19.7032V17.2697H21.4534Z" fill="#32B686"/>
<path d="M21.4534 19.0197V17.2695H19.7032V19.0197H21.4534Z" fill="#32B686"/>
<path d="M21.4534 20.7699V19.0198H19.7032V20.7699H21.4534Z" fill="#32B686"/>
<path d="M21.4534 12.0194V10.2693H19.7032V12.0194H21.4534Z" fill="#32B686"/>
<path d="M23.2035 13.7694V12.0193H21.4534V13.7694H23.2035Z" fill="#32B686"/>
<path d="M23.2035 15.5197V13.7695H21.4534V15.5197H23.2035Z" fill="#86CBA8"/>
<path d="M23.2035 17.2697V15.5195H21.4534V17.2697H23.2035Z" fill="#86CBA8"/>
<path d="M23.2035 19.0197V17.2695H21.4534V19.0197H23.2035Z" fill="#59BE92"/>
<path d="M23.2035 20.7699V19.0198H21.4534V20.7699H23.2035Z" fill="#86CBA8"/>
<path d="M23.2035 12.0194V10.2693H21.4534V12.0194H23.2035Z" fill="#32B686"/>
<path d="M24.9536 13.7694V12.0193H23.2035V13.7694H24.9536Z" fill="#59BE92"/>
<path d="M24.9536 15.5197V13.7695H23.2035V15.5197H24.9536Z" fill="#59BE92"/>
<path d="M24.9536 17.2697V15.5195H23.2035V17.2697H24.9536Z" fill="#59BE92"/>
<path d="M24.9536 19.0197V17.2695H23.2035V19.0197H24.9536Z" fill="#59BE92"/>
<path d="M24.9536 20.7699V19.0198H23.2035V20.7699H24.9536Z" fill="#59BE92"/>
<path d="M24.9536 12.0194V10.2693H23.2035V12.0194H24.9536Z" fill="#86CBA8"/>
<path d="M26.7036 13.7694V12.0193H24.9535V13.7694H26.7036Z" fill="#59BE92"/>
<path d="M26.7036 15.5197V13.7695H24.9535V15.5197H26.7036Z" fill="#59BE92"/>
<path d="M26.7036 17.2697V15.5195H24.9535V17.2697H26.7036Z" fill="#59BE92"/>
<path d="M26.7036 19.0197V17.2695H24.9535V19.0197H26.7036Z" fill="#59BE92"/>
<path d="M26.7036 20.7699V19.0198H24.9535V20.7699H26.7036Z" fill="#59BE92"/>
<path d="M26.7036 12.0231V10.2729H24.9535V12.0231H26.7036Z" fill="#59BE92"/>
<path d="M28.4539 13.7733V12.0232H26.7037V13.7733H28.4539Z" fill="#59BE92"/>
<path d="M28.4539 15.5197V13.7695H26.7037V15.5197H28.4539Z" fill="#59BE92"/>
<path d="M28.4539 17.2697V15.5195H26.7037V17.2697H28.4539Z" fill="#59BE92"/>
<path d="M28.4539 19.0197V17.2695H26.7037V19.0197H28.4539Z" fill="#59BE92"/>
<path d="M28.4539 20.7699V19.0198H26.7037V20.7699H28.4539Z" fill="#59BE92"/>
<path d="M28.4539 12.0231V10.2729H26.7037V12.0231H28.4539Z" fill="#59BE92"/>
<path d="M30.204 13.7733V12.0232H28.4538V13.7733H30.204Z" fill="#59BE92"/>
<path d="M30.204 15.5233V13.7732H28.4538V15.5233H30.204Z" fill="#59BE92"/>
<path d="M30.204 17.2697V15.5195H28.4538V17.2697H30.204Z" fill="#59BE92"/>
<path d="M30.204 19.0197V17.2695H28.4539V19.0197H30.204Z" fill="#59BE92"/>
<path d="M30.204 20.7699V19.0198H28.4538V20.7699H30.204Z" fill="#59BE92"/>
<path d="M30.204 12.0231V10.2729H28.4538V12.0231H30.204Z" fill="#59BE92"/>
<path d="M31.954 13.7733V12.0232H30.2038V13.7733H31.954Z" fill="#59BE92"/>
<path d="M31.954 15.5233V13.7732H30.2038V15.5233H31.954Z" fill="#59BE92"/>
<path d="M31.954 17.2733V15.5232H30.2038V17.2733H31.954Z" fill="#59BE92"/>
<path d="M31.954 19.0197V17.2695H30.2039V19.0197H31.954Z" fill="#59BE92"/>
<path d="M31.954 20.7699V19.0198H30.2038V20.7699H31.954Z" fill="#59BE92"/>
<path d="M33.7004 20.7699V19.0198H31.9503V20.7699H33.7004Z" fill="#59BE92"/>
<path d="M31.954 12.0231V10.2729H30.2038V12.0231H31.954Z" fill="#59BE92"/>
<path d="M33.7042 13.7733V12.0232H31.9541V13.7733H33.7042Z" fill="#59BE92"/>
<path d="M33.7042 15.5233V13.7732H31.9541V15.5233H33.7042Z" fill="#59BE92"/>
<path d="M33.7042 17.2733V15.5232H31.9541V17.2733H33.7042Z" fill="#59BE92"/>
<path d="M33.7042 12.0231V10.2729H31.9541V12.0231H33.7042Z" fill="#59BE92"/>
<path d="M35.4543 13.7694V12.0193H33.7042V13.7694H35.4543Z" fill="#59BE92"/>
<path d="M35.4543 15.5197V13.7695H33.7042V15.5197H35.4543Z" fill="#59BE92"/>
<path d="M35.4543 17.2697V15.5195H33.7042V17.2697H35.4543Z" fill="#59BE92"/>
<path d="M35.4543 12.0194V10.2693H33.7042V12.0194H35.4543Z" fill="#59BE92"/>
<path d="M37.2045 13.7694V12.0193H35.4543V13.7694H37.2045Z" fill="#59BE92"/>
<path d="M37.2045 15.5197V13.7695H35.4543V15.5197H37.2045Z" fill="#59BE92"/>
<path d="M37.2007 17.2697V15.5195H35.4506V17.2697H37.2007Z" fill="#59BE92"/>
<path d="M37.2045 12.0194V10.2693H35.4543V12.0194H37.2045Z" fill="#59BE92"/>
<path d="M19.7031 10.2692V8.51904H17.953V10.2692H19.7031Z" fill="#00AC75"/>
<path d="M21.4534 10.2692V8.51904H19.7032V10.2692H21.4534Z" fill="#32B686"/>
<path d="M23.2035 10.2692V8.51904H21.4534V10.2692H23.2035Z" fill="#32B686"/>
<path d="M24.9536 10.2692V8.51904H23.2035V10.2692H24.9536Z" fill="#32B686"/>
<path d="M26.6998 10.2692V8.51904H24.9497V10.2692H26.6998Z" fill="#86CBA8"/>
<path d="M28.4501 10.2692V8.51904H26.6999V10.2692H28.4501Z" fill="#86CBA8"/>
<path d="M30.2002 10.2692V8.51904H28.4501V10.2692H30.2002Z" fill="#86CBA8"/>
<path d="M31.9502 10.2692V8.51904H30.2001V10.2692H31.9502Z" fill="#86CBA8"/>
<path d="M33.7004 10.2692V8.51904H31.9503V10.2692H33.7004Z" fill="#59BE92"/>
<path d="M35.4506 10.2655V8.51538H33.7004V10.2655H35.4506Z" fill="#86CBA8"/>
<path d="M37.2007 10.2655V8.51538H35.4506V10.2655H37.2007Z" fill="#59BE92"/>
<path d="M19.7032 8.51527V6.76514H17.9531V8.51527H19.7032Z" fill="#00AC75"/>
<path d="M21.4534 8.51526V6.76514H19.7032V8.51526H21.4534Z" fill="#00AC75"/>
<path d="M23.2035 8.51527V6.76514H21.4534V8.51527H23.2035Z" fill="#32B686"/>
<path d="M24.9536 8.51527V6.76514H23.2035V8.51527H24.9536Z" fill="#32B686"/>
<path d="M26.7036 8.51526V6.76514H24.9535V8.51526H26.7036Z" fill="#32B686"/>
<path d="M28.4539 8.51527V6.76514H26.7037V8.51527H28.4539Z" fill="#32B686"/>
<path d="M30.204 8.51527V6.76514H28.4538V8.51527H30.204Z" fill="#32B686"/>
<path d="M31.954 8.51527V6.76514H30.2038V8.51527H31.954Z" fill="#32B686"/>
<path d="M33.7004 8.51527V6.76514H31.9503V8.51527H33.7004Z" fill="#32B686"/>
<path d="M35.4506 8.51527V6.76514H33.7004V8.51527H35.4506Z" fill="#32B686"/>
<path d="M23.1997 6.77259V5.02246H21.4496V6.77259H23.1997Z" fill="#00AC75"/>
<path d="M24.9498 6.77259V5.02246H23.1997V6.77259H24.9498Z" fill="#00AC75"/>
<path d="M26.6998 6.77259V5.02246H24.9497V6.77259H26.6998Z" fill="#00AC75"/>
<path d="M28.4501 6.77259V5.02246H26.6999V6.77259H28.4501Z" fill="#00AC75"/>
<path d="M30.2002 6.77259V5.02246H28.4501V6.77259H30.2002Z" fill="#00AC75"/>
<path d="M31.9502 6.77259V5.02246H30.2001V6.77259H31.9502Z" fill="#00AC75"/>
<path d="M23.2035 5.01893V3.2688H21.4534V5.01893H23.2035Z" fill="#00AC75"/>
<path d="M24.9536 5.01893V3.2688H23.2035V5.01893H24.9536Z" fill="#00AC75"/>
<path d="M26.7036 5.01893V3.2688H24.9535V5.01893H26.7036Z" fill="#00AC75"/>
<path d="M28.4539 5.01893V3.2688H26.7037V5.01893H28.4539Z" fill="#00AC75"/>
<path d="M30.204 5.01893V3.2688H28.4538V5.01893H30.204Z" fill="#00AC75"/>
<path d="M31.9502 5.01893V3.2688H30.2001V5.01893H31.9502Z" fill="#00AC75"/>
<path d="M33.7004 6.77259V5.02246H31.9503V6.77259H33.7004Z" fill="#00AC75"/>
<path d="M35.4506 6.76893V5.0188H33.7004V6.76893H35.4506Z" fill="#00AC75"/>
<path d="M37.2007 8.51527V6.76514H35.4506V8.51527H37.2007Z" fill="#59BE92"/>
<path d="M38.9546 13.7694V12.0193H37.2045V13.7694H38.9546Z" fill="#59BE92"/>
<path d="M38.9508 15.5197V13.7695H37.2007V15.5197H38.9508Z" fill="#59BE92"/>
<path d="M38.9508 17.2697V15.5195H37.2007V17.2697H38.9508Z" fill="#59BE92"/>
<path d="M33.7042 19.0236V17.2734H31.9541V19.0236H33.7042Z" fill="#59BE92"/>
<path d="M35.4506 19.0197V17.2695H33.7004V19.0197H35.4506Z" fill="#59BE92"/>
<path d="M37.2007 19.0197V17.2695H35.4506V19.0197H37.2007Z" fill="#59BE92"/>
<path d="M38.9508 19.0197V17.2695H37.2007V19.0197H38.9508Z" fill="#59BE92"/>
<path d="M40.7009 17.2697V15.5195H38.9508V17.2697H40.7009Z" fill="#59BE92"/>
<path d="M42.451 17.2697V15.5195H40.7009V17.2697H42.451Z" fill="#59BE92"/>
<path d="M40.7009 19.0197V17.2695H38.9508V19.0197H40.7009Z" fill="#59BE92"/>
<path d="M42.451 19.0197V17.2695H40.7009V19.0197H42.451Z" fill="#59BE92"/>
<path d="M35.4543 20.7662V19.0161H33.7042V20.7662H35.4543Z" fill="#59BE92"/>
<path d="M37.2045 20.7662V19.0161H35.4543V20.7662H37.2045Z" fill="#59BE92"/>
<path d="M38.9508 20.7662V19.0161H37.2007V20.7662H38.9508Z" fill="#59BE92"/>
<path d="M40.7009 20.7662V19.0161H38.9508V20.7662H40.7009Z" fill="#59BE92"/>
<path d="M42.451 20.7662V19.0161H40.7009V20.7662H42.451Z" fill="#59BE92"/>
<path d="M44.2012 17.2697V15.5195H42.451V17.2697H44.2012Z" fill="#59BE92"/>
<path d="M44.2012 19.0197V17.2695H42.451V19.0197H44.2012Z" fill="#59BE92"/>
<path d="M19.7032 22.5201V20.77H17.9531V22.5201H19.7032Z" fill="#00AC75"/>
<path d="M19.7032 24.2704V22.5203H17.9531V24.2704H19.7032Z" fill="#59BE92"/>
<path d="M21.4534 22.5201V20.77H19.7032V22.5201H21.4534Z" fill="#32B686"/>
<path d="M21.4534 24.2704V22.5203H19.7032V24.2704H21.4534Z" fill="#59BE92"/>
<path d="M23.2035 22.5201V20.77H21.4534V22.5201H23.2035Z" fill="#59BE92"/>
<path d="M23.2035 24.2704V22.5203H21.4534V24.2704H23.2035Z" fill="#59BE92"/>
<path d="M24.9536 22.5202V20.77H23.2035V22.5202H24.9536Z" fill="#59BE92"/>
<path d="M24.9536 24.2704V22.5203H23.2035V24.2704H24.9536Z" fill="#59BE92"/>
<path d="M26.7036 22.5201V20.77H24.9535V22.5201H26.7036Z" fill="#59BE92"/>
<path d="M26.7036 24.2704V22.5203H24.9535V24.2704H26.7036Z" fill="#59BE92"/>
<path d="M19.7032 26.0165V24.2664H17.9531V26.0165H19.7032Z" fill="#00AC75"/>
<path d="M21.4534 26.0165V24.2664H19.7032V26.0165H21.4534Z" fill="#59BE92"/>
<path d="M23.2035 26.0165V24.2664H21.4534V26.0165H23.2035Z" fill="#59BE92"/>
<path d="M24.9536 26.0165V24.2664H23.2035V26.0165H24.9536Z" fill="#59BE92"/>
<path d="M26.7036 26.0165V24.2664H24.9535V26.0165H26.7036Z" fill="#59BE92"/>
<path d="M23.2035 27.7667V26.0166H21.4534V27.7667H23.2035Z" fill="#59BE92"/>
<path d="M24.9536 27.7667V26.0166H23.2035V27.7667H24.9536Z" fill="#59BE92"/>
<path d="M26.7036 27.7667V26.0166H24.9535V27.7667H26.7036Z" fill="#59BE92"/>
<path d="M28.4539 22.5201V20.77H26.7037V22.5201H28.4539Z" fill="#59BE92"/>
<path d="M28.4539 24.2704V22.5203H26.7037V24.2704H28.4539Z" fill="#59BE92"/>
<path d="M30.204 22.5201V20.77H28.4538V22.5201H30.204Z" fill="#59BE92"/>
<path d="M30.2002 24.2704V22.5203H28.4501V24.2704H30.2002Z" fill="#59BE92"/>
<path d="M31.9502 22.5201V20.77H30.2001V22.5201H31.9502Z" fill="#59BE92"/>
<path d="M33.7004 22.5201V20.77H31.9503V22.5201H33.7004Z" fill="#59BE92"/>
<path d="M35.4506 22.5162V20.7661H33.7004V22.5162H35.4506Z" fill="#59BE92"/>
<path d="M37.2007 22.5201V20.77H35.4506V22.5201H37.2007Z" fill="#59BE92"/>
<path d="M31.9502 24.2704V22.5203H30.2001V24.2704H31.9502Z" fill="#59BE92"/>
<path d="M33.7004 24.2704V22.5203H31.9503V24.2704H33.7004Z" fill="#59BE92"/>
<path d="M35.4506 24.2665V22.5164H33.7004V24.2665H35.4506Z" fill="#59BE92"/>
<path d="M37.2007 24.2665V22.5164H35.4506V24.2665H37.2007Z" fill="#59BE92"/>
<path d="M38.9508 22.5201V20.77H37.2007V22.5201H38.9508Z" fill="#59BE92"/>
<path d="M40.7009 22.5201V20.77H38.9508V22.5201H40.7009Z" fill="#59BE92"/>
<path d="M38.9508 24.2704V22.5203H37.2007V24.2704H38.9508Z" fill="#59BE92"/>
<path d="M40.7009 24.2704V22.5203H38.9508V24.2704H40.7009Z" fill="#59BE92"/>
<path d="M42.451 22.5201V20.77H40.7009V22.5201H42.451Z" fill="#59BE92"/>
<path d="M44.2012 20.7662V19.0161H42.451V20.7662H44.2012Z" fill="#59BE92"/>
<path d="M45.9513 20.7662V19.0161H44.2012V20.7662H45.9513Z" fill="#59BE92"/>
<path d="M44.2012 22.5201V20.77H42.451V22.5201H44.2012Z" fill="#59BE92"/>
<path d="M45.9513 22.5201V20.77H44.2012V22.5201H45.9513Z" fill="#59BE92"/>
<path d="M42.451 24.2704V22.5203H40.7009V24.2704H42.451Z" fill="#59BE92"/>
<path d="M28.4539 26.0165V24.2664H26.7037V26.0165H28.4539Z" fill="#59BE92"/>
<path d="M28.4539 27.7667V26.0166H26.7037V27.7667H28.4539Z" fill="#59BE92"/>
<path d="M30.204 26.0165V24.2664H28.4538V26.0165H30.204Z" fill="#59BE92"/>
<path d="M30.204 27.7667V26.0166H28.4538V27.7667H30.204Z" fill="#59BE92"/>
<path d="M31.954 26.0165V24.2664H30.2038V26.0165H31.954Z" fill="#59BE92"/>
<path d="M31.9502 27.7667V26.0166H30.2001V27.7667H31.9502Z" fill="#59BE92"/>
<path d="M33.7004 26.0165V24.2664H31.9503V26.0165H33.7004Z" fill="#59BE92"/>
<path d="M33.7004 27.7667V26.0166H31.9503V27.7667H33.7004Z" fill="#59BE92"/>
<path d="M35.4506 27.7628V26.0127H33.7004V27.7628H35.4506Z" fill="#59BE92"/>
<path d="M37.2007 26.0165V24.2664H35.4506V26.0165H37.2007Z" fill="#59BE92"/>
<path d="M35.4506 26.0165V24.2664H33.7004V26.0165H35.4506Z" fill="#59BE92"/>
<path d="M38.9508 26.0165V24.2664H37.2007V26.0165H38.9508Z" fill="#59BE92"/>
<path d="M40.7009 26.0165V24.2664H38.9508V26.0165H40.7009Z" fill="#59BE92"/>
<path d="M42.451 26.0165V24.2664H40.7009V26.0165H42.451Z" fill="#59BE92"/>
<path d="M37.2007 27.7667V26.0166H35.4506V27.7667H37.2007Z" fill="#59BE92"/>
<path d="M38.9508 27.7667V26.0166H37.2007V27.7667H38.9508Z" fill="#59BE92"/>
<path d="M40.7009 27.7667V26.0166H38.9508V27.7667H40.7009Z" fill="#59BE92"/>
<path d="M42.451 27.7667V26.0166H40.7009V27.7667H42.451Z" fill="#59BE92"/>
<path d="M45.9513 26.0165V24.2664H44.2012V26.0165H45.9513Z" fill="#59BE92"/>
<path d="M44.2012 27.7667V26.0166H42.451V27.7667H44.2012Z" fill="#59BE92"/>
<path d="M44.2012 26.0204V24.2703H42.451V26.0204H44.2012Z" fill="#59BE92"/>
<path d="M45.9513 27.7667V26.0166H44.2012V27.7667H45.9513Z" fill="#59BE92"/>
<path d="M47.7014 27.7667V26.0166H45.9513V27.7667H47.7014Z" fill="#59BE92"/>
<path d="M49.4515 27.7667V26.0166H47.7014V27.7667H49.4515Z" fill="#59BE92"/>
<path d="M44.2012 24.2704V22.5203H42.451V24.2704H44.2012Z" fill="#59BE92"/>
<path d="M45.9513 24.2704V22.5203H44.2012V24.2704H45.9513Z" fill="#59BE92"/>
<path d="M52.9481 24.2704V22.5203H51.198V24.2704H52.9481Z" fill="#59BE92"/>
<path d="M54.6981 24.2704V22.5203H52.948V24.2704H54.6981Z" fill="#59BE92"/>
<path d="M56.4484 24.2704V22.5203H54.6982V24.2704H56.4484Z" fill="#59BE92"/>
<path d="M58.1985 24.2665V22.5164H56.4484V24.2665H58.1985Z" fill="#59BE92"/>
<path d="M58.1985 26.0165V24.2664H56.4484V26.0165H58.1985Z" fill="#59BE92"/>
<path d="M58.1985 27.7628V26.0127H56.4484V27.7628H58.1985Z" fill="#59BE92"/>
<path d="M59.9485 24.2665V22.5164H58.1984V24.2665H59.9485Z" fill="#59BE92"/>
<path d="M51.2017 27.7667V26.0166H49.4515V27.7667H51.2017Z" fill="#59BE92"/>
<path d="M28.4501 29.5204V27.7703H26.6999V29.5204H28.4501Z" fill="#59BE92"/>
<path d="M30.2002 29.5204V27.7703H28.4501V29.5204H30.2002Z" fill="#59BE92"/>
<path d="M31.9502 29.5204V27.7703H30.2001V29.5204H31.9502Z" fill="#59BE92"/>
<path d="M33.7004 29.5204V27.7703H31.9503V29.5204H33.7004Z" fill="#59BE92"/>
<path d="M35.4506 29.5167V27.7666H33.7004V29.5167H35.4506Z" fill="#59BE92"/>
<path d="M37.2007 29.5167V27.7666H35.4506V29.5167H37.2007Z" fill="#59BE92"/>
<path d="M38.9508 29.5167V27.7666H37.2007V29.5167H38.9508Z" fill="#59BE92"/>
<path d="M40.7009 29.5167V27.7666H38.9508V29.5167H40.7009Z" fill="#59BE92"/>
<path d="M42.451 29.5167V27.7666H40.7009V29.5167H42.451Z" fill="#59BE92"/>
<path d="M44.2012 29.5204V27.7703H42.451V29.5204H44.2012Z" fill="#59BE92"/>
<path d="M45.9513 29.5204V27.7703H44.2012V29.5204H45.9513Z" fill="#59BE92"/>
<path d="M47.6978 29.5204V27.7703H45.9476V29.5204H47.6978Z" fill="#59BE92"/>
<path d="M49.4478 29.5204V27.7703H47.6976V29.5204H49.4478Z" fill="#59BE92"/>
<path d="M51.1979 29.5204V27.7703H49.4477V29.5204H51.1979Z" fill="#59BE92"/>
<path d="M52.9519 26.0165V24.2664H51.2018V26.0165H52.9519Z" fill="#59BE92"/>
<path d="M54.7019 26.0165V24.2664H52.9518V26.0165H54.7019Z" fill="#59BE92"/>
<path d="M52.9519 27.7667V26.0166H51.2018V27.7667H52.9519Z" fill="#59BE92"/>
<path d="M54.6981 27.7667V26.0166H52.948V27.7667H54.6981Z" fill="#59BE92"/>
<path d="M56.4484 26.0165V24.2664H54.6982V26.0165H56.4484Z" fill="#59BE92"/>
<path d="M56.4484 27.7667V26.0166H54.6982V27.7667H56.4484Z" fill="#59BE92"/>
<path d="M38.9546 12.0194V10.2693H37.2045V12.0194H38.9546Z" fill="#59BE92"/>
<path d="M42.451 13.7694V12.0193H40.7009V13.7694H42.451Z" fill="#00AC75"/>
<path d="M42.451 15.5197V13.7695H40.7009V15.5197H42.451Z" fill="#00AC75"/>
<path d="M42.451 12.0194V10.2693H40.7009V12.0194H42.451Z" fill="#00AC75"/>
<path d="M44.2012 13.7694V12.0193H42.451V13.7694H44.2012Z" fill="#00AC75"/>
<path d="M44.2012 15.5197V13.7695H42.451V15.5197H44.2012Z" fill="#00AC75"/>
<path d="M44.2012 12.0194V10.2693H42.451V12.0194H44.2012Z" fill="#00AC75"/>
<path d="M44.2012 10.2692V8.51904H42.451V10.2692H44.2012Z" fill="#00AC75"/>
<path d="M44.2012 8.51527V6.76514H42.451V8.51527H44.2012Z" fill="#00AC75"/>
<path d="M45.9475 6.77259V5.02246H44.1974V6.77259H45.9475Z" fill="#00AC75"/>
<path d="M47.6978 6.77259V5.02246H45.9476V6.77259H47.6978Z" fill="#00AC75"/>
<path d="M45.9513 13.7694V12.0193H44.2012V13.7694H45.9513Z" fill="#32B686"/>
<path d="M45.9513 15.5197V13.7695H44.2012V15.5197H45.9513Z" fill="#32B686"/>
<path d="M45.9513 12.0194V10.2693H44.2012V12.0194H45.9513Z" fill="#32B686"/>
<path d="M47.7014 13.7694V12.0193H45.9513V13.7694H47.7014Z" fill="#59BE92"/>
<path d="M47.7014 15.5197V13.7695H45.9513V15.5197H47.7014Z" fill="#59BE92"/>
<path d="M47.7014 12.0194V10.2693H45.9513V12.0194H47.7014Z" fill="#32B686"/>
<path d="M49.4515 13.7694V12.0193H47.7014V13.7694H49.4515Z" fill="#59BE92"/>
<path d="M49.4515 15.5197V13.7695H47.7014V15.5197H49.4515Z" fill="#59BE92"/>
<path d="M49.4515 12.0231V10.2729H47.7014V12.0231H49.4515Z" fill="#59BE92"/>
<path d="M51.2017 13.7733V12.0232H49.4515V13.7733H51.2017Z" fill="#59BE92"/>
<path d="M51.2017 15.5197V13.7695H49.4515V15.5197H51.2017Z" fill="#59BE92"/>
<path d="M51.2017 12.0231V10.2729H49.4515V12.0231H51.2017Z" fill="#59BE92"/>
<path d="M52.9519 13.7733V12.0232H51.2018V13.7733H52.9519Z" fill="#59BE92"/>
<path d="M52.9519 15.5233V13.7732H51.2018V15.5233H52.9519Z" fill="#59BE92"/>
<path d="M52.9519 12.0231V10.2729H51.2018V12.0231H52.9519Z" fill="#59BE92"/>
<path d="M54.7019 13.7733V12.0232H52.9518V13.7733H54.7019Z" fill="#59BE92"/>
<path d="M54.7019 15.5233V13.7732H52.9518V15.5233H54.7019Z" fill="#59BE92"/>
<path d="M54.7019 12.0231V10.2729H52.9518V12.0231H54.7019Z" fill="#59BE92"/>
<path d="M56.4521 13.7694V12.0193H54.702V13.7694H56.4521Z" fill="#59BE92"/>
<path d="M56.4521 15.5197V13.7695H54.702V15.5197H56.4521Z" fill="#59BE92"/>
<path d="M56.4521 12.0194V10.2693H54.702V12.0194H56.4521Z" fill="#59BE92"/>
<path d="M58.2023 13.7694V12.0193H56.4521V13.7694H58.2023Z" fill="#59BE92"/>
<path d="M58.2023 15.5197V13.7695H56.4521V15.5197H58.2023Z" fill="#59BE92"/>
<path d="M58.2023 12.0194V10.2693H56.4521V12.0194H58.2023Z" fill="#59BE92"/>
<path d="M59.9523 13.7694V12.0193H58.2021V13.7694H59.9523Z" fill="#59BE92"/>
<path d="M59.9485 15.5197V13.7695H58.1984V15.5197H59.9485Z" fill="#59BE92"/>
<path d="M59.9523 12.0194V10.2693H58.2021V12.0194H59.9523Z" fill="#86CBA8"/>
<path d="M61.6987 13.7694V12.0193H59.9486V13.7694H61.6987Z" fill="#86CBA8"/>
<path d="M61.6987 15.5197V13.7695H59.9486V15.5197H61.6987Z" fill="#86CBA8"/>
<path d="M61.6987 12.0194V10.2693H59.9486V12.0194H61.6987Z" fill="#32B686"/>
<path d="M63.4489 13.7694V12.0193H61.6987V13.7694H63.4489Z" fill="#32B686"/>
<path d="M63.4489 15.5197V13.7695H61.6987V15.5197H63.4489Z" fill="#32B686"/>
<path d="M63.4489 12.0194V10.2693H61.6987V12.0194H63.4489Z" fill="#00AC75"/>
<path d="M45.9513 10.2692V8.51904H44.2012V10.2692H45.9513Z" fill="#32B686"/>
<path d="M47.6978 10.2692V8.51904H45.9476V10.2692H47.6978Z" fill="#59BE92"/>
<path d="M49.4478 10.2692V8.51904H47.6976V10.2692H49.4478Z" fill="#32B686"/>
<path d="M51.1979 10.2692V8.51904H49.4477V10.2692H51.1979Z" fill="#59BE92"/>
<path d="M52.9481 10.2692V8.51904H51.198V10.2692H52.9481Z" fill="#59BE92"/>
<path d="M54.6981 10.2692V8.51904H52.948V10.2692H54.6981Z" fill="#86CBA8"/>
<path d="M56.4484 10.2655V8.51538H54.6982V10.2655H56.4484Z" fill="#86CBA8"/>
<path d="M58.1985 10.2655V8.51538H56.4484V10.2655H58.1985Z" fill="#86CBA8"/>
<path d="M59.9485 10.2655V8.51538H58.1984V10.2655H59.9485Z" fill="#32B686"/>
<path d="M61.6987 10.2655V8.51538H59.9486V10.2655H61.6987Z" fill="#32B686"/>
<path d="M63.4489 10.2655V8.51538H61.6987V10.2655H63.4489Z" fill="#00AC75"/>
<path d="M45.9513 8.51527V6.76514H44.2012V8.51527H45.9513Z" fill="#32B686"/>
<path d="M47.7014 8.51527V6.76514H45.9513V8.51527H47.7014Z" fill="#32B686"/>
<path d="M49.4515 8.51526V6.76514H47.7014V8.51526H49.4515Z" fill="#32B686"/>
<path d="M51.2017 8.51527V6.76514H49.4515V8.51527H51.2017Z" fill="#32B686"/>
<path d="M52.9519 8.51527V6.76514H51.2018V8.51527H52.9519Z" fill="#32B686"/>
<path d="M56.4484 8.51527V6.76514H54.6982V8.51527H56.4484Z" fill="#32B686"/>
<path d="M54.7019 8.51527V6.76514H52.9518V8.51527H54.7019Z" fill="#32B686"/>
<path d="M58.1985 8.51527V6.76514H56.4484V8.51527H58.1985Z" fill="#32B686"/>
<path d="M59.9485 8.51527V6.76514H58.1984V8.51527H59.9485Z" fill="#00AC75"/>
<path d="M61.6987 8.51527V6.76514H59.9486V8.51527H61.6987Z" fill="#00AC75"/>
<path d="M49.4478 6.77259V5.02246H47.6976V6.77259H49.4478Z" fill="#00AC75"/>
<path d="M51.1979 6.77259V5.02246H49.4477V6.77259H51.1979Z" fill="#00AC75"/>
<path d="M52.9481 6.77259V5.02246H51.198V6.77259H52.9481Z" fill="#00AC75"/>
<path d="M54.6981 6.77259V5.02246H52.948V6.77259H54.6981Z" fill="#00AC75"/>
<path d="M56.4484 6.76893V5.0188H54.6982V6.76893H56.4484Z" fill="#00AC75"/>
<path d="M58.1985 6.76893V5.0188H56.4484V6.76893H58.1985Z" fill="#00AC75"/>
<path d="M49.4515 5.01893V3.2688H47.7014V5.01893H49.4515Z" fill="#00AC75"/>
<path d="M51.2017 5.01893V3.2688H49.4515V5.01893H51.2017Z" fill="#00AC75"/>
<path d="M52.9481 5.01893V3.2688H51.198V5.01893H52.9481Z" fill="#00AC75"/>
<path d="M54.6981 5.01893V3.2688H52.948V5.01893H54.6981Z" fill="#00AC75"/>
<path d="M56.4484 5.01502V3.26489H54.6982V5.01502H56.4484Z" fill="#00AC75"/>
<path d="M58.1985 5.01502V3.26489H56.4484V5.01502H58.1985Z" fill="#00AC75"/>
<path d="M59.9485 6.76893V5.0188H58.1984V6.76893H59.9485Z" fill="#00AC75"/>
<path d="M61.6987 6.76893V5.0188H59.9486V6.76893H61.6987Z" fill="#00AC75"/>
<path d="M63.4489 8.51527V6.76514H61.6987V8.51527H63.4489Z" fill="#00AC75"/>
<path d="M65.199 13.7694V12.0193H63.4488V13.7694H65.199Z" fill="#00AC75"/>
<path d="M65.199 15.5197V13.7695H63.4488V15.5197H65.199Z" fill="#00AC75"/>
<path d="M45.9513 17.2697V15.5195H44.2012V17.2697H45.9513Z" fill="#59BE92"/>
<path d="M45.9513 19.0197V17.2695H44.2012V19.0197H45.9513Z" fill="#59BE92"/>
<path d="M47.7014 17.2697V15.5195H45.9513V17.2697H47.7014Z" fill="#59BE92"/>
<path d="M47.7014 19.0197V17.2695H45.9513V19.0197H47.7014Z" fill="#59BE92"/>
<path d="M49.4515 17.2697V15.5195H47.7014V17.2697H49.4515Z" fill="#59BE92"/>
<path d="M49.4515 19.0197V17.2695H47.7014V19.0197H49.4515Z" fill="#59BE92"/>
<path d="M51.2017 17.2697V15.5195H49.4515V17.2697H51.2017Z" fill="#59BE92"/>
<path d="M51.2017 19.0197V17.2695H49.4515V19.0197H51.2017Z" fill="#59BE92"/>
<path d="M52.9519 17.2697V15.5195H51.2018V17.2697H52.9519Z" fill="#59BE92"/>
<path d="M52.9519 19.0197V17.2695H51.2018V19.0197H52.9519Z" fill="#59BE92"/>
<path d="M54.7019 17.2733V15.5232H52.9518V17.2733H54.7019Z" fill="#59BE92"/>
<path d="M54.7019 19.0197V17.2695H52.9518V19.0197H54.7019Z" fill="#59BE92"/>
<path d="M56.4521 17.2697V15.5195H54.702V17.2697H56.4521Z" fill="#59BE92"/>
<path d="M56.4484 19.0197V17.2695H54.6982V19.0197H56.4484Z" fill="#59BE92"/>
<path d="M58.1985 17.2697V15.5195H56.4484V17.2697H58.1985Z" fill="#59BE92"/>
<path d="M58.1985 19.0197V17.2695H56.4484V19.0197H58.1985Z" fill="#59BE92"/>
<path d="M59.9485 17.2697V15.5195H58.1984V17.2697H59.9485Z" fill="#59BE92"/>
<path d="M59.9485 19.0197V17.2695H58.1984V19.0197H59.9485Z" fill="#59BE92"/>
<path d="M61.6987 17.2697V15.5195H59.9486V17.2697H61.6987Z" fill="#86CBA8"/>
<path d="M61.6987 19.0197V17.2695H59.9486V19.0197H61.6987Z" fill="#86CBA8"/>
<path d="M63.4489 17.2697V15.5195H61.6987V17.2697H63.4489Z" fill="#32B686"/>
<path d="M63.4489 19.016V17.2659H61.6987V19.016H63.4489Z" fill="#32B686"/>
<path d="M65.199 17.2697V15.5195H63.4488V17.2697H65.199Z" fill="#00AC75"/>
<path d="M65.199 19.0197V17.2695H63.4488V19.0197H65.199Z" fill="#00AC75"/>
<path d="M47.7014 20.7699V19.0198H45.9513V20.7699H47.7014Z" fill="#59BE92"/>
<path d="M49.4515 20.7699V19.0198H47.7014V20.7699H49.4515Z" fill="#59BE92"/>
<path d="M51.2017 20.7699V19.0198H49.4515V20.7699H51.2017Z" fill="#59BE92"/>
<path d="M52.9519 20.7699V19.0198H51.2018V20.7699H52.9519Z" fill="#59BE92"/>
<path d="M54.6981 20.7699V19.0198H52.948V20.7699H54.6981Z" fill="#59BE92"/>
<path d="M56.4484 20.7662V19.0161H54.6982V20.7662H56.4484Z" fill="#59BE92"/>
<path d="M58.1985 20.7699V19.0198H56.4484V20.7699H58.1985Z" fill="#59BE92"/>
<path d="M59.9485 20.7699V19.0198H58.1984V20.7699H59.9485Z" fill="#59BE92"/>
<path d="M61.6987 20.7699V19.0198H59.9486V20.7699H61.6987Z" fill="#59BE92"/>
<path d="M63.4489 20.7699V19.0198H61.6987V20.7699H63.4489Z" fill="#32B686"/>
<path d="M47.7014 22.5201V20.77H45.9513V22.5201H47.7014Z" fill="#59BE92"/>
<path d="M49.4515 22.5201V20.77H47.7014V22.5201H49.4515Z" fill="#59BE92"/>
<path d="M51.2017 22.5201V20.77H49.4515V22.5201H51.2017Z" fill="#59BE92"/>
<path d="M47.7014 24.2704V22.5203H45.9513V24.2704H47.7014Z" fill="#59BE92"/>
<path d="M49.4515 24.2704V22.5203H47.7014V24.2704H49.4515Z" fill="#59BE92"/>
<path d="M51.1979 24.2704V22.5203H49.4477V24.2704H51.1979Z" fill="#59BE92"/>
<path d="M47.6978 26.0165V24.2664H45.9476V26.0165H47.6978Z" fill="#59BE92"/>
<path d="M49.4478 26.0165V24.2664H47.6976V26.0165H49.4478Z" fill="#59BE92"/>
<path d="M51.1979 26.0165V24.2664H49.4477V26.0165H51.1979Z" fill="#59BE92"/>
<path d="M52.9481 22.5201V20.77H51.198V22.5201H52.9481Z" fill="#59BE92"/>
<path d="M54.6981 22.5201V20.77H52.948V22.5201H54.6981Z" fill="#59BE92"/>
<path d="M56.4484 22.5162V20.7661H54.6982V22.5162H56.4484Z" fill="#59BE92"/>
<path d="M58.1985 22.5162V20.7661H56.4484V22.5162H58.1985Z" fill="#59BE92"/>
<path d="M59.9485 22.5201V20.77H58.1984V22.5201H59.9485Z" fill="#59BE92"/>
<path d="M61.6987 22.5162V20.7661H59.9486V22.5162H61.6987Z" fill="#32B686"/>
<path d="M63.4489 22.5162V20.7661H61.6987V22.5162H63.4489Z" fill="#32B686"/>
<path d="M61.6987 24.2628V22.5127H59.9486V24.2628H61.6987Z" fill="#32B686"/>
<path d="M59.9523 26.0165V24.2664H58.2021V26.0165H59.9523Z" fill="#59BE92"/>
<path d="M61.6987 26.0128V24.2627H59.9486V26.0128H61.6987Z" fill="#32B686"/>
<path d="M63.4489 24.2665V22.5164H61.6987V24.2665H63.4489Z" fill="#32B686"/>
<path d="M65.199 20.7699V19.0198H63.4488V20.7699H65.199Z" fill="#00AC75"/>
<path d="M65.199 12.0194V10.2693H63.4488V12.0194H65.199Z" fill="#00AC75"/>
<path d="M17.953 36.5175V34.7673H16.2029V36.5175H17.953Z" fill="#00AC75"/>
<path d="M17.9568 34.7672V33.0171H16.2067V34.7672H17.9568Z" fill="#00AC75"/>
<path d="M19.7031 34.7672V33.0171H17.953V34.7672H19.7031Z" fill="#00AC75"/>
<path d="M19.7069 33.017V31.2668H17.9568V33.017H19.7069Z" fill="#00AC75"/>
<path d="M23.2035 27.7703H21.4534V29.5204H23.2035V27.7703Z" fill="#59BE92"/>
<path d="M21.4534 29.5205H19.7032V31.2706H21.4534V29.5205Z" fill="#59BE92"/>
<path d="M19.7031 29.5205H17.953V31.2706H19.7031V29.5205Z" fill="#59BE92"/>
<path d="M21.4534 52.2686H19.7032V54.0187H21.4534V52.2686Z" fill="#59BE92"/>
<path d="M19.7031 52.2686H17.953V54.0187H19.7031V52.2686Z" fill="#59BE92"/>
<path d="M35.4506 52.2686H33.7004V54.0187H35.4506V52.2686Z" fill="#59BE92"/>
<path d="M33.7041 52.2686H31.954V54.0187H33.7041V52.2686Z" fill="#59BE92"/>
<path d="M16.2068 36.5175V34.7673H14.4567V36.5175H16.2068Z" fill="#59BE92"/>
<path d="M16.2068 34.7672V33.0171H14.4567V34.7672H16.2068Z" fill="#59BE92"/>
<path d="M16.203 50.5145V48.7644H14.4529V50.5145H16.203Z" fill="#59BE92"/>
<path d="M16.203 48.7645V47.0144H14.4529V48.7645H16.203Z" fill="#59BE92"/>
<path d="M38.9508 50.5145V48.7644H37.2007V50.5145H38.9508Z" fill="#59BE92"/>
<path d="M38.9508 48.7645V47.0144H37.2007V48.7645H38.9508Z" fill="#59BE92"/>
<path d="M14.4528 40.0177V38.2676H12.7026V40.0177H14.4528Z" fill="#59BE92"/>
<path d="M14.4528 41.7677V40.0176H12.7026V41.7677H14.4528Z" fill="#59BE92"/>
<path d="M14.4528 43.5177V41.7676H12.7026V43.5177H14.4528Z" fill="#59BE92"/>
<path d="M14.4528 45.268V43.5178H12.7026V45.268H14.4528Z" fill="#59BE92"/>
<path d="M14.4528 47.0143V45.2642H12.7026V47.0143H14.4528Z" fill="#59BE92"/>
<path d="M14.4565 38.2675V36.5173H12.7064V38.2675H14.4565Z" fill="#59BE92"/>
<path d="M40.7009 43.5177V41.7676H38.9508V43.5177H40.7009Z" fill="#59BE92"/>
<path d="M40.7009 45.268V43.5178H38.9508V45.268H40.7009Z" fill="#59BE92"/>
<path d="M40.7009 47.0182V45.2681H38.9508V47.0182H40.7009Z" fill="#59BE92"/>
<path d="M17.9531 31.2668H16.203V33.017H17.9531V31.2668Z" fill="#59BE92"/>
<path d="M17.9531 50.5183H16.203V52.2684H17.9531V50.5183Z" fill="#59BE92"/>
<path d="M37.2007 50.5183H35.4506V52.2684H37.2007V50.5183Z" fill="#59BE92"/>
<path d="M24.9536 27.7703H23.2035V29.5204H24.9536V27.7703Z" fill="#59BE92"/>
<path d="M26.7037 27.7703H24.9536V29.5204H26.7037V27.7703Z" fill="#59BE92"/>
<path d="M23.2035 54.0146H21.4534V55.7648H23.2035V54.0146Z" fill="#59BE92"/>
<path d="M24.9536 54.0146H23.2035V55.7648H24.9536V54.0146Z" fill="#59BE92"/>
<path d="M26.7037 54.0146H24.9536V55.7648H26.7037V54.0146Z" fill="#59BE92"/>
<path d="M28.4537 54.0146H26.7036V55.7648H28.4537V54.0146Z" fill="#59BE92"/>
<path d="M30.204 54.0146H28.4539V55.7648H30.204V54.0146Z" fill="#59BE92"/>
<path d="M31.9541 54.0146H30.204V55.7648H31.9541V54.0146Z" fill="#59BE92"/>
<path d="M40.7009 12.0155V10.2654H38.9508V12.0155H40.7009Z" fill="#59BE92"/>
<path d="M38.9508 10.2655V8.51538H37.2007V10.2655H38.9508Z" fill="#59BE92"/>
<path d="M38.9508 8.51527V6.76514H37.2007V8.51527H38.9508Z" fill="#59BE92"/>
<path d="M16.203 10.2655V8.51538H14.4529V10.2655H16.203Z" fill="#59BE92"/>
<path d="M16.203 8.51527V6.76514H14.4529V8.51527H16.203Z" fill="#59BE92"/>
<path d="M16.203 24.2665V22.5164H14.4529V24.2665H16.203Z" fill="#59BE92"/>
<path d="M16.203 22.5162V20.7661H14.4529V22.5162H16.203Z" fill="#59BE92"/>
<path d="M31.9503 5.0188H33.7004V3.26867H31.9503V5.0188Z" fill="#59BE92"/>
<path d="M33.7042 5.0188H35.4543V3.26867H33.7042V5.0188Z" fill="#59BE92"/>
<path d="M17.953 5.0188H19.7031V3.26867H17.953V5.0188Z" fill="#59BE92"/>
<path d="M19.7032 5.0188H21.4534V3.26867H19.7032V5.0188Z" fill="#59BE92"/>
<path d="M17.953 27.7666H19.7031V26.0165H17.953V27.7666Z" fill="#59BE92"/>
<path d="M19.7032 27.7666H21.4534V26.0165H19.7032V27.7666Z" fill="#59BE92"/>
<path d="M28.4501 3.2688H30.2002V1.51867L28.4501 1.51867V3.2688Z" fill="#59BE92"/>
<path d="M26.6999 3.2688H28.4501V1.51867L26.6999 1.51867V3.2688Z" fill="#59BE92"/>
<path d="M24.9535 3.2688H26.7036V1.51867L24.9535 1.51867V3.2688Z" fill="#59BE92"/>
<path d="M23.2035 3.2688H24.9536V1.51867L23.2035 1.51867V3.2688Z" fill="#59BE92"/>
<path d="M21.4534 3.2688H23.2035V1.51867L21.4534 1.51867V3.2688Z" fill="#59BE92"/>
<path d="M30.2001 3.2688H31.9502V1.51867L30.2001 1.51867V3.2688Z" fill="#59BE92"/>
<path d="M24.9535 29.5168H26.7036V27.7667H24.9535V29.5168Z" fill="#59BE92"/>
<path d="M23.2035 29.5168H24.9536V27.7667H23.2035V29.5168Z" fill="#59BE92"/>
<path d="M21.4534 29.5168H23.2035V27.7667H21.4534V29.5168Z" fill="#59BE92"/>
<path d="M37.2007 6.76502V5.01489H35.4506V6.76502H37.2007Z" fill="#59BE92"/>
<path d="M17.953 6.76893V5.0188H16.2029V6.76893H17.953Z" fill="#59BE92"/>
<path d="M17.953 26.0165V24.2664H16.2029V26.0165H17.953Z" fill="#59BE92"/>
<path d="M40.7009 13.7655V12.0154H38.9508V13.7655H40.7009Z" fill="#59BE92"/>
<path d="M40.7047 15.5158V13.7656H38.9546V15.5158H40.7047Z" fill="#59BE92"/>
<path d="M14.4528 12.0155V10.2654H12.7026V12.0155H14.4528Z" fill="#59BE92"/>
<path d="M14.4528 13.7655V12.0154H12.7026V13.7655H14.4528Z" fill="#59BE92"/>
<path d="M14.4565 15.5158V13.7656H12.7064V15.5158H14.4565Z" fill="#59BE92"/>
<path d="M14.4565 17.266V15.5159H12.7064V17.266H14.4565Z" fill="#59BE92"/>
<path d="M14.4565 19.016V17.2659H12.7064V19.016H14.4565Z" fill="#59BE92"/>
<path d="M14.4565 20.7662V19.0161H12.7064V20.7662H14.4565Z" fill="#59BE92"/>
<path d="M56.4521 29.5168H58.2023V27.7667H56.4521V29.5168Z" fill="#59BE92"/>
<path d="M58.2021 27.7666H59.9523V26.0165H58.2021V27.7666Z" fill="#59BE92"/>
<path d="M59.9486 27.7666H61.6987V26.0165H59.9486V27.7666Z" fill="#59BE92"/>
<path d="M58.2021 5.0188H59.9523V3.26867H58.2021V5.0188Z" fill="#59BE92"/>
<path d="M59.9486 5.0188H61.6987V3.26867H59.9486V5.0188Z" fill="#59BE92"/>
<path d="M44.2012 5.0188H45.9513V3.26867H44.2012V5.0188Z" fill="#59BE92"/>
<path d="M45.9513 5.0188H47.7014V3.26867H45.9513V5.0188Z" fill="#59BE92"/>
<path d="M63.4489 20.7662V22.5164H65.199V20.7662H63.4489Z" fill="#59BE92"/>
<path d="M63.4489 22.5162V24.2664H65.199V22.5162H63.4489Z" fill="#59BE92"/>
<path d="M63.4489 6.76891V8.51904H65.199V6.76891H63.4489Z" fill="#59BE92"/>
<path d="M63.4489 8.51916V10.2693H65.199V8.51916H63.4489Z" fill="#59BE92"/>
<path d="M40.7009 6.76891V8.51904H42.4511V6.76891H40.7009Z" fill="#59BE92"/>
<path d="M40.7009 8.51916V10.2693H42.4511V8.51916H40.7009Z" fill="#59BE92"/>
<path d="M65.199 17.266V19.0161H66.9491V17.266H65.199Z" fill="#59BE92"/>
<path d="M65.199 15.5157V17.2659H66.9491V15.5157H65.199Z" fill="#59BE92"/>
<path d="M65.199 13.7657V15.5159H66.9491V13.7657H65.199Z" fill="#59BE92"/>
<path d="M65.2028 12.0194V13.7695H66.9529V12.0194H65.2028Z" fill="#59BE92"/>
<path d="M65.199 10.2692V12.0193H66.9491V10.2692H65.199Z" fill="#59BE92"/>
<path d="M65.199 19.016V20.7661H66.9491V19.016H65.199Z" fill="#59BE92"/>
<path d="M38.9508 13.7694V15.5195H40.7009V13.7694H38.9508Z" fill="#59BE92"/>
<path d="M38.9546 12.0194V13.7695H40.7047V12.0194H38.9546Z" fill="#59BE92"/>
<path d="M38.9546 10.2692V12.0193H40.7047V10.2692H38.9546Z" fill="#59BE92"/>
<path d="M61.6987 26.0166H63.4489V24.2665H61.6987V26.0166Z" fill="#59BE92"/>
<path d="M61.6987 6.7688H63.4489V5.01867H61.6987V6.7688Z" fill="#59BE92"/>
<path d="M42.451 6.7688H44.2012V5.01867H42.451V6.7688Z" fill="#59BE92"/>
<path d="M54.702 29.5168H56.4521V27.7667H54.702V29.5168Z" fill="#59BE92"/>
<path d="M52.948 29.5168H54.6981V27.7667H52.948V29.5168Z" fill="#59BE92"/>
<path d="M51.198 29.5168H52.9481V27.7667H51.198V29.5168Z" fill="#59BE92"/>
<path d="M56.4521 3.2688H58.2023V1.51867L56.4521 1.51867V3.2688Z" fill="#59BE92"/>
<path d="M54.702 3.2688H56.4521V1.51867L54.702 1.51867V3.2688Z" fill="#59BE92"/>
<path d="M52.948 3.2688H54.6981V1.51867L52.948 1.51867V3.2688Z" fill="#59BE92"/>
<path d="M51.198 3.2688H52.9481V1.51867L51.198 1.51867V3.2688Z" fill="#59BE92"/>
<path d="M49.4477 3.2688H51.1979V1.51867L49.4477 1.51867V3.2688Z" fill="#59BE92"/>
<path d="M47.7014 3.2688H49.4515V1.51867L47.7014 1.51867V3.2688Z" fill="#59BE92"/>
<path d="M38.9508 45.2679V47.0181H40.7009V45.2679H38.9508Z" fill="#59BE92"/>
<path d="M40.7009 47.0182V48.7683H42.4511V47.0182H40.7009Z" fill="#59BE92"/>
<path d="M40.7009 48.7682V50.5183H42.4511V48.7682H40.7009Z" fill="#59BE92"/>
<path d="M63.4489 47.0182V48.7683H65.199V47.0182H63.4489Z" fill="#59BE92"/>
<path d="M63.4489 48.7682V50.5183H65.199V48.7682H63.4489Z" fill="#59BE92"/>
<path d="M63.4489 33.0172V34.7673H65.199V33.0172H63.4489Z" fill="#59BE92"/>
<path d="M63.4489 34.7672V36.5173H65.199V34.7672H63.4489Z" fill="#59BE92"/>
<path d="M47.7014 52.2686H45.9513V54.0187H47.7014V52.2686Z" fill="#59BE92"/>
<path d="M45.9513 52.2686H44.2012V54.0187H45.9513V52.2686Z" fill="#59BE92"/>
<path d="M61.6986 52.2686H59.9485V54.0187H61.6986V52.2686Z" fill="#59BE92"/>
<path d="M59.9486 52.2686H58.1985V54.0187H59.9486V52.2686Z" fill="#59BE92"/>
<path d="M61.6986 29.5205H59.9485V31.2706H61.6986V29.5205Z" fill="#59BE92"/>
<path d="M59.9486 29.5205H58.1985V31.2706H59.9486V29.5205Z" fill="#59BE92"/>
<path d="M51.2017 54.0146H49.4515V55.7648H51.2017V54.0146Z" fill="#59BE92"/>
<path d="M52.9518 54.0146H51.2017V55.7648H52.9518V54.0146Z" fill="#59BE92"/>
<path d="M54.702 54.0146H52.9519V55.7648H54.702V54.0146Z" fill="#59BE92"/>
<path d="M56.4482 54.0146H54.6981V55.7648H56.4482V54.0146Z" fill="#59BE92"/>
<path d="M58.1985 54.0146H56.4484V55.7648H58.1985V54.0146Z" fill="#59BE92"/>
<path d="M49.4515 54.0146H47.7014V55.7648H49.4515V54.0146Z" fill="#59BE92"/>
<path d="M52.9518 27.7703H51.2017V29.5204H52.9518V27.7703Z" fill="#59BE92"/>
<path d="M54.702 27.7703H52.9519V29.5204H54.702V27.7703Z" fill="#59BE92"/>
<path d="M56.4482 27.7703H54.6981V29.5204H56.4482V27.7703Z" fill="#59BE92"/>
<path d="M58.1985 27.7703H56.4484V29.5204H58.1985V27.7703Z" fill="#59BE92"/>
<path d="M42.451 50.5184V52.2686H44.2012V50.5184H42.451Z" fill="#59BE92"/>
<path d="M61.7025 50.5184V52.2686H63.4526V50.5184H61.7025Z" fill="#59BE92"/>
<path d="M61.6987 31.2709V33.021H63.4489V31.2709H61.6987Z" fill="#59BE92"/>
<path d="M38.9508 43.5179V45.2681H40.7009V43.5179H38.9508Z" fill="#59BE92"/>
<path d="M38.9508 41.7677V43.5178H40.7009V41.7677H38.9508Z" fill="#59BE92"/>
<path d="M65.199 45.2679V47.0181H66.9491V45.2679H65.199Z" fill="#59BE92"/>
<path d="M65.199 43.5179V45.2681H66.9491V43.5179H65.199Z" fill="#59BE92"/>
<path d="M65.199 41.7677V43.5178H66.9491V41.7677H65.199Z" fill="#59BE92"/>
<path d="M65.199 40.0174V41.7676H66.9491V40.0174H65.199Z" fill="#59BE92"/>
<path d="M65.199 38.2674V40.0176H66.9491V38.2674H65.199Z" fill="#59BE92"/>
<path d="M65.199 36.5174V38.2676H66.9491V36.5174H65.199Z" fill="#59BE92"/>
<path d="M63.4489 43.5179V45.2681H65.199V43.5179H63.4489Z" fill="#00AC75"/>
<path d="M63.4489 41.7677V43.5178H65.199V41.7677H63.4489Z" fill="#00AC75"/>
<path d="M63.4489 40.0174V41.7676H65.199V40.0174H63.4489Z" fill="#00AC75"/>
<path d="M63.4489 38.2674V40.0176H65.199V38.2674H63.4489Z" fill="#00AC75"/>
<path d="M63.4489 36.5174V38.2676H65.199V36.5174H63.4489Z" fill="#00AC75"/>
<path d="M63.4489 45.2679V47.0181H65.199V45.2679H63.4489Z" fill="#00AC75"/>
<path d="M61.6987 43.5179V45.2681H63.4489V43.5179H61.6987Z" fill="#00AC75"/>
<path d="M61.6987 41.7677V43.5178H63.4489V41.7677H61.6987Z" fill="#00AC75"/>
<path d="M61.6987 40.0174V41.7676H63.4489V40.0174H61.6987Z" fill="#00AC75"/>
<path d="M61.6987 38.2674V40.0176H63.4489V38.2674H61.6987Z" fill="#00AC75"/>
<path d="M61.6987 36.5174V38.2676H63.4489V36.5174H61.6987Z" fill="#00AC75"/>
<path d="M61.6987 34.7709V36.521H63.4489V34.7709H61.6987Z" fill="#00AC75"/>
<path d="M61.6987 33.0209V34.771H63.4489V33.0209H61.6987Z" fill="#00AC75"/>
<path d="M61.6987 45.2679V47.0181H63.4489V45.2679H61.6987Z" fill="#00AC75"/>
<path d="M61.7025 47.0218V48.772H63.4526V47.0218H61.7025Z" fill="#00AC75"/>
<path d="M61.6987 48.7721V50.5222H63.4489V48.7721H61.6987Z" fill="#00AC75"/>
<path d="M59.9523 50.5184V52.2686H61.7024V50.5184H59.9523Z" fill="#00AC75"/>
<path d="M58.2023 50.5184V52.2686H59.9524V50.5184H58.2023Z" fill="#00AC75"/>
<path d="M59.9485 43.5179V45.2681H61.6986V43.5179H59.9485Z" fill="#32B686"/>
<path d="M59.9485 41.7677V43.5178H61.6986V41.7677H59.9485Z" fill="#59BE92"/>
<path d="M59.9485 40.0174V41.7676H61.6986V40.0174H59.9485Z" fill="#32B686"/>
<path d="M59.9485 38.2674V40.0176H61.6986V38.2674H59.9485Z" fill="#32B686"/>
<path d="M59.9485 36.5174V38.2676H61.6986V36.5174H59.9485Z" fill="#32B686"/>
<path d="M59.9485 45.2679V47.0181H61.6986V45.2679H59.9485Z" fill="#32B686"/>
<path d="M58.1985 43.5179V45.2681H59.9486V43.5179H58.1985Z" fill="#59BE92"/>
<path d="M58.1985 41.7677V43.5178H59.9486V41.7677H58.1985Z" fill="#32B686"/>
<path d="M58.1985 40.0174V41.7676H59.9486V40.0174H58.1985Z" fill="#59BE92"/>
<path d="M58.1985 38.2674V40.0176H59.9486V38.2674H58.1985Z" fill="#59BE92"/>
<path d="M58.1985 36.5174V38.2676H59.9486V36.5174H58.1985Z" fill="#59BE92"/>
<path d="M58.1985 45.2679V47.0181H59.9486V45.2679H58.1985Z" fill="#32B686"/>
<path d="M56.4484 43.5179V45.2681H58.1985V43.5179H56.4484Z" fill="#32B686"/>
<path d="M56.4484 41.7677V43.5178H58.1985V41.7677H56.4484Z" fill="#59BE92"/>
<path d="M56.4484 40.0174V41.7676H58.1985V40.0174H56.4484Z" fill="#59BE92"/>
<path d="M56.4484 38.2674V40.0176H58.1985V38.2674H56.4484Z" fill="#59BE92"/>
<path d="M56.4484 36.5211V38.2712H58.1985V36.5211H56.4484Z" fill="#59BE92"/>
<path d="M56.4521 45.2679V47.0181H58.2023V45.2679H56.4521Z" fill="#59BE92"/>
<path d="M54.7019 43.5179V45.2681H56.452V43.5179H54.7019Z" fill="#59BE92"/>
<path d="M54.6981 41.7677V43.5178H56.4482V41.7677H54.6981Z" fill="#59BE92"/>
<path d="M54.6981 40.0174V41.7676H56.4482V40.0174H54.6981Z" fill="#59BE92"/>
<path d="M54.6981 38.2714V40.0215H56.4482V38.2714H54.6981Z" fill="#59BE92"/>
<path d="M54.6981 36.5211V38.2712H56.4482V36.5211H54.6981Z" fill="#59BE92"/>
<path d="M54.7019 45.2679V47.0181H56.452V45.2679H54.7019Z" fill="#32B686"/>
<path d="M52.9519 43.514V45.2642H54.702V43.514H52.9519Z" fill="#32B686"/>
<path d="M52.9519 41.764V43.5142H54.702V41.764H52.9519Z" fill="#59BE92"/>
<path d="M52.9481 40.0174V41.7676H54.6982V40.0174H52.9481Z" fill="#59BE92"/>
<path d="M52.9481 38.2674V40.0176H54.6982V38.2674H52.9481Z" fill="#59BE92"/>
<path d="M52.9481 36.5174V38.2676H54.6982V36.5174H52.9481Z" fill="#59BE92"/>
<path d="M52.9519 45.2643V47.0144H54.702V45.2643H52.9519Z" fill="#59BE92"/>
<path d="M51.2017 43.514V45.2642H52.9518V43.514H51.2017Z" fill="#32B686"/>
<path d="M51.2017 41.7677V43.5178H52.9518V41.7677H51.2017Z" fill="#59BE92"/>
<path d="M51.2017 40.0174V41.7676H52.9518V40.0174H51.2017Z" fill="#59BE92"/>
<path d="M51.1979 38.2674V40.0176H52.948V38.2674H51.1979Z" fill="#59BE92"/>
<path d="M51.1979 36.5174V38.2676H52.948V36.5174H51.1979Z" fill="#59BE92"/>
<path d="M51.2017 45.2643V47.0144H52.9518V45.2643H51.2017Z" fill="#32B686"/>
<path d="M49.4515 43.5179V45.2681H51.2017V43.5179H49.4515Z" fill="#32B686"/>
<path d="M49.4515 41.7677V43.5178H51.2017V41.7677H49.4515Z" fill="#59BE92"/>
<path d="M49.4515 40.0174V41.7676H51.2017V40.0174H49.4515Z" fill="#59BE92"/>
<path d="M49.4515 38.2674V40.0176H51.2017V38.2674H49.4515Z" fill="#59BE92"/>
<path d="M49.4478 36.5174V38.2676H51.1979V36.5174H49.4478Z" fill="#59BE92"/>
<path d="M49.4515 45.2643V47.0144H51.2017V45.2643H49.4515Z" fill="#32B686"/>
<path d="M47.7014 43.5179V45.2681H49.4515V43.5179H47.7014Z" fill="#32B686"/>
<path d="M47.7014 41.7677V43.5178H49.4515V41.7677H47.7014Z" fill="#59BE92"/>
<path d="M47.7014 40.0175V41.7676H49.4515V40.0175H47.7014Z" fill="#59BE92"/>
<path d="M47.7014 38.2675V40.0176H49.4515V38.2675H47.7014Z" fill="#59BE92"/>
<path d="M47.7014 36.5175V38.2676H49.4515V36.5175H47.7014Z" fill="#59BE92"/>
<path d="M47.7014 45.2679V47.0181H49.4515V45.2679H47.7014Z" fill="#32B686"/>
<path d="M45.9513 43.5179V45.2681H47.7014V43.5179H45.9513Z" fill="#32B686"/>
<path d="M45.9513 41.7677V43.5178H47.7014V41.7677H45.9513Z" fill="#32B686"/>
<path d="M45.9513 40.0174V41.7676H47.7014V40.0174H45.9513Z" fill="#59BE92"/>
<path d="M45.9513 45.2679V47.0181H47.7014V45.2679H45.9513Z" fill="#32B686"/>
<path d="M44.2012 43.5179V45.2681H45.9513V43.5179H44.2012Z" fill="#32B686"/>
<path d="M44.2012 41.7677V43.5178H45.9513V41.7677H44.2012Z" fill="#32B686"/>
<path d="M44.2012 40.0174V41.7676H45.9513V40.0174H44.2012Z" fill="#59BE92"/>
<path d="M44.2012 45.2679V47.0181H45.9513V45.2679H44.2012Z" fill="#32B686"/>
<path d="M42.451 43.5179V45.2681H44.2012V43.5179H42.451Z" fill="#00AC75"/>
<path d="M42.451 41.7677V43.5178H44.2012V41.7677H42.451Z" fill="#00AC75"/>
<path d="M42.451 40.0174V41.7676H44.2012V40.0174H42.451Z" fill="#59BE92"/>
<path d="M42.451 45.2679V47.0181H44.2012V45.2679H42.451Z" fill="#00AC75"/>
<path d="M59.9523 47.0218V48.772H61.7024V47.0218H59.9523Z" fill="#00AC75"/>
<path d="M58.2023 47.0218V48.772H59.9524V47.0218H58.2023Z" fill="#00AC75"/>
<path d="M56.4521 47.0218V48.772H58.2023V47.0218H56.4521Z" fill="#00AC75"/>
<path d="M54.7019 47.0218V48.772H56.452V47.0218H54.7019Z" fill="#00AC75"/>
<path d="M52.9519 47.0182V48.7683H54.702V47.0182H52.9519Z" fill="#00AC75"/>
<path d="M51.2017 47.0182V48.7683H52.9518V47.0182H51.2017Z" fill="#00AC75"/>
<path d="M49.4515 47.0182V48.7683H51.2017V47.0182H49.4515Z" fill="#00AC75"/>
<path d="M47.7014 47.0182V48.7683H49.4515V47.0182H47.7014Z" fill="#00AC75"/>
<path d="M45.9513 47.0182V48.7683H47.7014V47.0182H45.9513Z" fill="#00AC75"/>
<path d="M44.2012 47.0182V48.7683H45.9513V47.0182H44.2012Z" fill="#00AC75"/>
<path d="M42.451 47.0182V48.7683H44.2012V47.0182H42.451Z" fill="#00AC75"/>
<path d="M59.9485 48.7721V50.5222H61.6986V48.7721H59.9485Z" fill="#00AC75"/>
<path d="M58.1985 48.7721V50.5222H59.9486V48.7721H58.1985Z" fill="#00AC75"/>
<path d="M56.4484 48.7721V50.5222H58.1985V48.7721H56.4484Z" fill="#00AC75"/>
<path d="M54.6981 48.7757V50.5259H56.4482V48.7757H54.6981Z" fill="#00AC75"/>
<path d="M52.9481 48.7721V50.5222H54.6982V48.7721H52.9481Z" fill="#00AC75"/>
<path d="M51.1979 48.7721V50.5222H52.948V48.7721H51.1979Z" fill="#00AC75"/>
<path d="M49.4515 48.7721V50.5222H51.2017V48.7721H49.4515Z" fill="#00AC75"/>
<path d="M47.7014 48.7721V50.5222H49.4515V48.7721H47.7014Z" fill="#00AC75"/>
<path d="M45.9513 48.7721V50.5222H47.7014V48.7721H45.9513Z" fill="#00AC75"/>
<path d="M44.2012 48.7721V50.5222H45.9513V48.7721H44.2012Z" fill="#00AC75"/>
<path d="M56.4521 50.5184V52.2686H58.2023V50.5184H56.4521Z" fill="#0DAE89"/>
<path d="M54.7019 50.5184V52.2686H56.452V50.5184H54.7019Z" fill="#0DAE89"/>
<path d="M52.9519 50.5145V52.2646H54.702V50.5145H52.9519Z" fill="#0DAE89"/>
<path d="M51.2017 50.5145V52.2646H52.9518V50.5145H51.2017Z" fill="#0DAE89"/>
<path d="M49.4515 50.5145V52.2646H51.2017V50.5145H49.4515Z" fill="#0DAE89"/>
<path d="M47.7015 50.5145V52.2646H49.4517V50.5145H47.7015Z" fill="#0DAE89"/>
<path d="M56.4484 52.2723V54.0225H58.1985V52.2723H56.4484Z" fill="#00AC75"/>
<path d="M54.6981 52.2723V54.0225H56.4482V52.2723H54.6981Z" fill="#00AC75"/>
<path d="M52.9481 52.2687V54.0188H54.6982V52.2687H52.9481Z" fill="#00AC75"/>
<path d="M51.1979 52.2687V54.0188H52.948V52.2687H51.1979Z" fill="#00AC75"/>
<path d="M49.4478 52.2687V54.0188H51.1979V52.2687H49.4478Z" fill="#00AC75"/>
<path d="M47.6976 52.2687V54.0188H49.4478V52.2687H47.6976Z" fill="#00AC75"/>
<path d="M45.9513 50.5145V52.2646H47.7014V50.5145H45.9513Z" fill="#0DAE89"/>
<path d="M44.2012 50.5145V52.2646H45.9513V50.5145H44.2012Z" fill="#0DAE89"/>
<path d="M42.451 48.7721V50.5222H44.2012V48.7721H42.451Z" fill="#00AC75"/>
<path d="M40.7009 43.5179V45.2681H42.4511V43.5179H40.7009Z" fill="#00AC75"/>
<path d="M40.7009 41.7677V43.5178H42.4511V41.7677H40.7009Z" fill="#00AC75"/>
<path d="M40.7009 40.0174V41.7676H42.4511V40.0174H40.7009Z" fill="#59BE92"/>
<path d="M45.9513 38.2674V40.0176H47.7014V38.2674H45.9513Z" fill="#59BE92"/>
<path d="M44.2012 38.2674V40.0176H45.9513V38.2674H44.2012Z" fill="#59BE92"/>
<path d="M42.451 38.2674V40.0176H44.2012V38.2674H42.451Z" fill="#59BE92"/>
<path d="M40.7009 38.2674V40.0176H42.4511V38.2674H40.7009Z" fill="#59BE92"/>
<path d="M38.9508 40.0174V41.7676H40.7009V40.0174H38.9508Z" fill="#59BE92"/>
<path d="M37.2007 40.0174V41.7676H38.9508V40.0174H37.2007Z" fill="#59BE92"/>
<path d="M38.9508 38.2674V40.0176H40.7009V38.2674H38.9508Z" fill="#59BE92"/>
<path d="M37.2007 38.2674V40.0176H38.9508V38.2674H37.2007Z" fill="#59BE92"/>
<path d="M44.2012 36.5211V38.2712H45.9513V36.5211H44.2012Z" fill="#59BE92"/>
<path d="M45.9513 36.5211V38.2712H47.7014V36.5211H45.9513Z" fill="#59BE92"/>
<path d="M42.451 36.5211V38.2712H44.2012V36.5211H42.451Z" fill="#59BE92"/>
<path d="M40.7009 36.5211V38.2712H42.4511V36.5211H40.7009Z" fill="#59BE92"/>
<path d="M38.9508 36.5211V38.2712H40.7009V36.5211H38.9508Z" fill="#59BE92"/>
<path d="M37.2007 36.5211V38.2712H38.9508V36.5211H37.2007Z" fill="#59BE92"/>
<path d="M35.4506 40.0174V41.7676H37.2007V40.0174H35.4506Z" fill="#59BE92"/>
<path d="M35.4506 38.2674V40.0176H37.2007V38.2674H35.4506Z" fill="#59BE92"/>
<path d="M35.4506 36.5174V38.2676H37.2007V36.5174H35.4506Z" fill="#59BE92"/>
<path d="M33.7004 36.5211V38.2712H35.4506V36.5211H33.7004Z" fill="#59BE92"/>
<path d="M35.4506 34.7709V36.521H37.2007V34.7709H35.4506Z" fill="#59BE92"/>
<path d="M33.7004 34.7709V36.521H35.4506V34.7709H33.7004Z" fill="#59BE92"/>
<path d="M59.9485 34.7672V36.5173H61.6986V34.7672H59.9485Z" fill="#32B686"/>
<path d="M59.9485 33.0209V34.771H61.6986V33.0209H59.9485Z" fill="#32B686"/>
<path d="M58.1985 34.7709V36.521H59.9486V34.7709H58.1985Z" fill="#59BE92"/>
<path d="M58.1985 33.0209V34.771H59.9486V33.0209H58.1985Z" fill="#59BE92"/>
<path d="M56.4484 34.7709V36.521H58.1985V34.7709H56.4484Z" fill="#59BE92"/>
<path d="M56.4484 33.0209V34.771H58.1985V33.0209H56.4484Z" fill="#32B686"/>
<path d="M54.6981 34.7709V36.521H56.4482V34.7709H54.6981Z" fill="#59BE92"/>
<path d="M54.6981 33.0209V34.771H56.4482V33.0209H54.6981Z" fill="#59BE92"/>
<path d="M52.9481 34.7672V36.5173H54.6982V34.7672H52.9481Z" fill="#59BE92"/>
<path d="M52.9481 33.0172V34.7673H54.6982V33.0172H52.9481Z" fill="#59BE92"/>
<path d="M59.9485 31.2709V33.021H61.6986V31.2709H59.9485Z" fill="#32B686"/>
<path d="M58.1985 31.2709V33.021H59.9486V31.2709H58.1985Z" fill="#59BE92"/>
<path d="M56.4484 31.2745V33.0247H58.1985V31.2745H56.4484Z" fill="#59BE92"/>
<path d="M54.6981 31.2745V33.0247H56.4482V31.2745H54.6981Z" fill="#59BE92"/>
<path d="M52.9481 31.2709V33.021H54.6982V31.2709H52.9481Z" fill="#59BE92"/>
<path d="M56.4484 29.5243V31.2744H58.1985V29.5243H56.4484Z" fill="#59BE92"/>
<path d="M54.6981 29.5243V31.2744H56.4482V29.5243H54.6981Z" fill="#59BE92"/>
<path d="M52.9481 29.5206V31.2708H54.6982V29.5206H52.9481Z" fill="#59BE92"/>
<path d="M51.1979 34.7672V36.5173H52.948V34.7672H51.1979Z" fill="#59BE92"/>
<path d="M51.1979 33.0172V34.7673H52.948V33.0172H51.1979Z" fill="#59BE92"/>
<path d="M49.4478 34.7672V36.5173H51.1979V34.7672H49.4478Z" fill="#59BE92"/>
<path d="M49.4478 33.0172V34.7673H51.1979V33.0172H49.4478Z" fill="#59BE92"/>
<path d="M47.6978 34.7672V36.5173H49.4479V34.7672H47.6978Z" fill="#59BE92"/>
<path d="M45.9513 34.7672V36.5173H47.7014V34.7672H45.9513Z" fill="#59BE92"/>
<path d="M44.2012 34.7672V36.5173H45.9513V34.7672H44.2012Z" fill="#59BE92"/>
<path d="M42.451 34.7672V36.5173H44.2012V34.7672H42.451Z" fill="#59BE92"/>
<path d="M47.6978 33.0172V34.7673H49.4479V33.0172H47.6978Z" fill="#59BE92"/>
<path d="M45.9475 33.0172V34.7673H47.6976V33.0172H45.9475Z" fill="#59BE92"/>
<path d="M44.2012 33.0172V34.7673H45.9513V33.0172H44.2012Z" fill="#59BE92"/>
<path d="M42.451 33.0172V34.7673H44.2012V33.0172H42.451Z" fill="#59BE92"/>
<path d="M40.7009 34.7672V36.5173H42.4511V34.7672H40.7009Z" fill="#59BE92"/>
<path d="M38.9508 34.7672V36.5173H40.7009V34.7672H38.9508Z" fill="#59BE92"/>
<path d="M40.7009 33.0172V34.7673H42.4511V33.0172H40.7009Z" fill="#59BE92"/>
<path d="M38.9508 33.0172V34.7673H40.7009V33.0172H38.9508Z" fill="#59BE92"/>
<path d="M37.2007 34.7672V36.5173H38.9508V34.7672H37.2007Z" fill="#59BE92"/>
<path d="M37.2007 33.0209V34.771H38.9508V33.0209H37.2007Z" fill="#59BE92"/>
<path d="M51.1979 31.2709V33.021H52.948V31.2709H51.1979Z" fill="#59BE92"/>
<path d="M51.1979 29.5206V31.2708H52.948V29.5206H51.1979Z" fill="#59BE92"/>
<path d="M49.4478 31.2709V33.021H51.1979V31.2709H49.4478Z" fill="#59BE92"/>
<path d="M49.4478 29.5206V31.2708H51.1979V29.5206H49.4478Z" fill="#59BE92"/>
<path d="M47.7014 31.2709V33.021H49.4515V31.2709H47.7014Z" fill="#59BE92"/>
<path d="M47.6978 29.5206V31.2708H49.4479V29.5206H47.6978Z" fill="#59BE92"/>
<path d="M45.9513 31.2709V33.021H47.7014V31.2709H45.9513Z" fill="#59BE92"/>
<path d="M45.9513 29.5206V31.2708H47.7014V29.5206H45.9513Z" fill="#59BE92"/>
<path d="M44.2012 31.2709V33.021H45.9513V31.2709H44.2012Z" fill="#59BE92"/>
<path d="M44.2012 29.5206V31.2708H45.9513V29.5206H44.2012Z" fill="#59BE92"/>
<path d="M42.451 31.2709V33.021H44.2012V31.2709H42.451Z" fill="#59BE92"/>
<path d="M42.451 29.5206V31.2708H44.2012V29.5206H42.451Z" fill="#59BE92"/>
<path d="M40.7009 31.2709V33.021H42.4511V31.2709H40.7009Z" fill="#59BE92"/>
<path d="M40.7009 29.5206V31.2708H42.4511V29.5206H40.7009Z" fill="#59BE92"/>
<path d="M38.9508 31.2709V33.021H40.7009V31.2709H38.9508Z" fill="#59BE92"/>
<path d="M37.2007 31.2709V33.021H38.9508V31.2709H37.2007Z" fill="#59BE92"/>
<path d="M35.4506 31.2709V33.021H37.2007V31.2709H35.4506Z" fill="#59BE92"/>
<path d="M33.7004 31.2709V33.021H35.4506V31.2709H33.7004Z" fill="#59BE92"/>
<path d="M38.9508 29.5206V31.2708H40.7009V29.5206H38.9508Z" fill="#59BE92"/>
<path d="M37.2007 29.5206V31.2708H38.9508V29.5206H37.2007Z" fill="#59BE92"/>
<path d="M35.4506 29.5206V31.2708H37.2007V29.5206H35.4506Z" fill="#59BE92"/>
<path d="M33.7004 29.5243V31.2744H35.4506V29.5243H33.7004Z" fill="#59BE92"/>
<path d="M31.9502 31.2745V33.0247H33.7003V31.2745H31.9502Z" fill="#59BE92"/>
<path d="M30.2002 31.2709V33.021H31.9503V31.2709H30.2002Z" fill="#59BE92"/>
<path d="M31.9502 29.5243V31.2744H33.7003V29.5243H31.9502Z" fill="#59BE92"/>
<path d="M30.2002 29.5206V31.2708H31.9503V29.5206H30.2002Z" fill="#59BE92"/>
<path d="M28.4501 31.2709V33.021H30.2002V31.2709H28.4501Z" fill="#59BE92"/>
<path d="M35.4506 33.0209V34.771H37.2007V33.0209H35.4506Z" fill="#59BE92"/>
<path d="M33.7004 33.0209V34.771H35.4506V33.0209H33.7004Z" fill="#59BE92"/>
<path d="M31.9502 33.0209V34.771H33.7003V33.0209H31.9502Z" fill="#59BE92"/>
<path d="M30.2002 33.0172V34.7673H31.9503V33.0172H30.2002Z" fill="#59BE92"/>
<path d="M28.4501 33.0172V34.7673H30.2002V33.0172H28.4501Z" fill="#59BE92"/>
<path d="M26.6998 33.0172V34.7673H28.45V33.0172H26.6998Z" fill="#59BE92"/>
<path d="M24.9498 33.0172V34.7673H26.7V33.0172H24.9498Z" fill="#59BE92"/>
<path d="M23.1997 33.0172V34.7673H24.9498V33.0172H23.1997Z" fill="#32B686"/>
<path d="M21.4534 33.0172V34.7673H23.2035V33.0172H21.4534Z" fill="#32B686"/>
<path d="M21.4534 31.2709V33.021H23.2035V31.2709H21.4534Z" fill="#32B686"/>
<path d="M21.4534 29.5206V31.2708H23.2035V29.5206H21.4534Z" fill="#32B686"/>
<path d="M19.7032 33.0172V34.7673H21.4534V33.0172H19.7032Z" fill="#32B686"/>
<path d="M28.4501 29.5206V31.2708H30.2002V29.5206H28.4501Z" fill="#59BE92"/>
<path d="M26.6998 31.2709V33.021H28.45V31.2709H26.6998Z" fill="#59BE92"/>
<path d="M24.9536 31.2709V33.021H26.7037V31.2709H24.9536Z" fill="#59BE92"/>
<path d="M26.6998 29.5206V31.2708H28.45V29.5206H26.6998Z" fill="#59BE92"/>
<path d="M24.9498 29.5206V31.2708H26.7V29.5206H24.9498Z" fill="#59BE92"/>
<path d="M23.2035 31.2709V33.021H24.9536V31.2709H23.2035Z" fill="#32B686"/>
<path d="M23.2035 29.5206V31.2708H24.9536V29.5206H23.2035Z" fill="#32B686"/>
<path d="M40.7009 45.2679V47.0181H42.4511V45.2679H40.7009Z" fill="#00AC75"/>
<path d="M37.2007 43.5179V45.2681H38.9508V43.5179H37.2007Z" fill="#00AC75"/>
<path d="M37.2007 41.7677V43.5178H38.9508V41.7677H37.2007Z" fill="#00AC75"/>
<path d="M37.2007 45.2679V47.0181H38.9508V45.2679H37.2007Z" fill="#00AC75"/>
<path d="M35.4506 43.5179V45.2681H37.2007V43.5179H35.4506Z" fill="#00AC75"/>
<path d="M35.4506 41.7677V43.5178H37.2007V41.7677H35.4506Z" fill="#00AC75"/>
<path d="M35.4543 45.2679V47.0181H37.2045V45.2679H35.4543Z" fill="#00AC75"/>
<path d="M35.4543 47.0218V48.772H37.2045V47.0218H35.4543Z" fill="#00AC75"/>
<path d="M35.4506 48.7721V50.5222H37.2007V48.7721H35.4506Z" fill="#00AC75"/>
<path d="M33.7042 50.5184V52.2686H35.4543V50.5184H33.7042Z" fill="#00AC75"/>
<path d="M31.954 50.5145V52.2646H33.7041V50.5145H31.954Z" fill="#00AC75"/>
<path d="M33.7042 43.5179V45.2681H35.4544V43.5179H33.7042Z" fill="#32B686"/>
<path d="M33.7004 41.7677V43.5178H35.4506V41.7677H33.7004Z" fill="#32B686"/>
<path d="M33.7042 45.2679V47.0181H35.4544V45.2679H33.7042Z" fill="#32B686"/>
<path d="M31.954 43.514V45.2642H33.7041V43.514H31.954Z" fill="#59BE92"/>
<path d="M31.954 41.764V43.5142H33.7041V41.764H31.954Z" fill="#59BE92"/>
<path d="M31.954 45.2643V47.0144H33.7041V45.2643H31.954Z" fill="#32B686"/>
<path d="M30.204 43.514V45.2642H31.9541V43.514H30.204Z" fill="#32B686"/>
<path d="M30.204 41.7677V43.5178H31.9541V41.7677H30.204Z" fill="#59BE92"/>
<path d="M30.204 45.2643V47.0144H31.9541V45.2643H30.204Z" fill="#32B686"/>
<path d="M28.4539 43.5179V45.2681H30.204V43.5179H28.4539Z" fill="#59BE92"/>
<path d="M28.4539 41.7677V43.5178H30.204V41.7677H28.4539Z" fill="#32B686"/>
<path d="M28.4539 45.2643V47.0144H30.204V45.2643H28.4539Z" fill="#32B686"/>
<path d="M26.7036 43.5179V45.2681H28.4537V43.5179H26.7036Z" fill="#59BE92"/>
<path d="M26.7036 41.7677V43.5178H28.4537V41.7677H26.7036Z" fill="#59BE92"/>
<path d="M26.7036 45.2679V47.0181H28.4537V45.2679H26.7036Z" fill="#32B686"/>
<path d="M24.9536 43.5179V45.2681H26.7037V43.5179H24.9536Z" fill="#32B686"/>
<path d="M24.9536 41.7677V43.5178H26.7037V41.7677H24.9536Z" fill="#32B686"/>
<path d="M24.9536 45.2679V47.0181H26.7037V45.2679H24.9536Z" fill="#32B686"/>
<path d="M23.2035 43.5179V45.2681H24.9536V43.5179H23.2035Z" fill="#32B686"/>
<path d="M23.2035 41.7677V43.5178H24.9536V41.7677H23.2035Z" fill="#32B686"/>
<path d="M23.2035 45.2679V47.0181H24.9536V45.2679H23.2035Z" fill="#32B686"/>
<path d="M21.4534 43.5179V45.2681H23.2035V43.5179H21.4534Z" fill="#32B686"/>
<path d="M21.4534 41.7677V43.5178H23.2035V41.7677H21.4534Z" fill="#32B686"/>
<path d="M21.4534 45.2679V47.0181H23.2035V45.2679H21.4534Z" fill="#32B686"/>
<path d="M19.7031 43.5179V45.2681H21.4533V43.5179H19.7031Z" fill="#32B686"/>
<path d="M19.7031 41.7677V43.5178H21.4533V41.7677H19.7031Z" fill="#32B686"/>
<path d="M19.7031 45.2679V47.0181H21.4533V45.2679H19.7031Z" fill="#32B686"/>
<path d="M17.953 43.5179V45.2681H19.7031V43.5179H17.953Z" fill="#00AC75"/>
<path d="M17.953 41.7677V43.5178H19.7031V41.7677H17.953Z" fill="#00AC75"/>
<path d="M17.953 45.2679V47.0181H19.7031V45.2679H17.953Z" fill="#00AC75"/>
<path d="M16.203 43.5179V45.2681H17.9531V43.5179H16.203Z" fill="#00AC75"/>
<path d="M16.203 41.7677V43.5178H17.9531V41.7677H16.203Z" fill="#00AC75"/>
<path d="M16.203 45.2679V47.0181H17.9531V45.2679H16.203Z" fill="#00AC75"/>
<path d="M33.7042 47.0218V48.772H35.4544V47.0218H33.7042Z" fill="#00AC75"/>
<path d="M31.954 47.0182V48.7683H33.7041V47.0182H31.954Z" fill="#00AC75"/>
<path d="M30.204 47.0182V48.7683H31.9541V47.0182H30.204Z" fill="#00AC75"/>
<path d="M28.4539 47.0182V48.7683H30.204V47.0182H28.4539Z" fill="#00AC75"/>
<path d="M26.7036 47.0182V48.7683H28.4537V47.0182H26.7036Z" fill="#00AC75"/>
<path d="M24.9536 47.0182V48.7683H26.7037V47.0182H24.9536Z" fill="#00AC75"/>
<path d="M23.2035 47.0182V48.7683H24.9536V47.0182H23.2035Z" fill="#00AC75"/>
<path d="M21.4534 47.0182V48.7683H23.2035V47.0182H21.4534Z" fill="#00AC75"/>
<path d="M19.7069 47.0182V48.7683H21.457V47.0182H19.7069Z" fill="#00AC75"/>
<path d="M17.9568 47.0218V48.772H19.7069V47.0218H17.9568Z" fill="#00AC75"/>
<path d="M16.2068 47.0218V48.772H17.9569V47.0218H16.2068Z" fill="#00AC75"/>
<path d="M33.7004 48.7757V50.5259H35.4506V48.7757H33.7004Z" fill="#00AC75"/>
<path d="M31.9502 48.7721V50.5222H33.7003V48.7721H31.9502Z" fill="#00AC75"/>
<path d="M30.2002 48.7721V50.5222H31.9503V48.7721H30.2002Z" fill="#00AC75"/>
<path d="M28.4501 48.7721V50.5222H30.2002V48.7721H28.4501Z" fill="#00AC75"/>
<path d="M26.7036 48.7721V50.5222H28.4537V48.7721H26.7036Z" fill="#00AC75"/>
<path d="M23.2035 48.7721V50.5222H24.9536V48.7721H23.2035Z" fill="#00AC75"/>
<path d="M24.9536 48.7721V50.5222H26.7037V48.7721H24.9536Z" fill="#00AC75"/>
<path d="M21.4534 48.7721V50.5222H23.2035V48.7721H21.4534Z" fill="#00AC75"/>
<path d="M19.7032 48.7721V50.5222H21.4534V48.7721H19.7032Z" fill="#00AC75"/>
<path d="M17.953 48.7721V50.5222H19.7031V48.7721H17.953Z" fill="#00AC75"/>
<path d="M30.204 50.5145V52.2646H31.9541V50.5145H30.204Z" fill="#00AC75"/>
<path d="M28.4539 50.5145V52.2646H30.204V50.5145H28.4539Z" fill="#00AC75"/>
<path d="M26.7036 50.5145V52.2646H28.4537V50.5145H26.7036Z" fill="#00AC75"/>
<path d="M24.9536 50.5145V52.2646H26.7037V50.5145H24.9536Z" fill="#00AC75"/>
<path d="M23.2035 50.5145V52.2646H24.9536V50.5145H23.2035Z" fill="#00AC75"/>
<path d="M21.4534 50.5184V52.2686H23.2035V50.5184H21.4534Z" fill="#00AC75"/>
<path d="M30.2002 52.2687V54.0188H31.9503V52.2687H30.2002Z" fill="#0DAE89"/>
<path d="M28.4501 52.2687V54.0188H30.2002V52.2687H28.4501Z" fill="#0DAE89"/>
<path d="M26.6998 52.2687V54.0188H28.45V52.2687H26.6998Z" fill="#0DAE89"/>
<path d="M24.9536 52.2687V54.0188H26.7037V52.2687H24.9536Z" fill="#0DAE89"/>
<path d="M23.2035 52.2687V54.0188H24.9536V52.2687H23.2035Z" fill="#0DAE89"/>
<path d="M21.4534 52.2687V54.0188H23.2035V52.2687H21.4534Z" fill="#0DAE89"/>
<path d="M19.7032 50.5184V52.2686H21.4534V50.5184H19.7032Z" fill="#00AC75"/>
<path d="M17.953 50.5184V52.2686H19.7031V50.5184H17.953Z" fill="#00AC75"/>
<path d="M16.203 48.7721V50.5222H17.9531V48.7721H16.203Z" fill="#00AC75"/>
<path d="M14.4528 43.5179V45.2681H16.2029V43.5179H14.4528Z" fill="#00AC75"/>
<path d="M14.4528 41.7677V43.5178H16.2029V41.7677H14.4528Z" fill="#00AC75"/>
<path d="M33.7004 40.0174V41.7676H35.4506V40.0174H33.7004Z" fill="#59BE92"/>
<path d="M33.7004 38.2714V40.0215H35.4506V38.2714H33.7004Z" fill="#59BE92"/>
<path d="M31.9502 40.0174V41.7676H33.7003V40.0174H31.9502Z" fill="#59BE92"/>
<path d="M31.9502 38.2674V40.0176H33.7003V38.2674H31.9502Z" fill="#59BE92"/>
<path d="M30.204 40.0174V41.7676H31.9541V40.0174H30.204Z" fill="#59BE92"/>
<path d="M30.2002 38.2674V40.0176H31.9503V38.2674H30.2002Z" fill="#59BE92"/>
<path d="M28.4539 40.0174V41.7676H30.204V40.0174H28.4539Z" fill="#59BE92"/>
<path d="M28.4539 38.2674V40.0176H30.204V38.2674H28.4539Z" fill="#59BE92"/>
<path d="M26.7036 40.0174V41.7676H28.4537V40.0174H26.7036Z" fill="#59BE92"/>
<path d="M26.7036 38.2674V40.0176H28.4537V38.2674H26.7036Z" fill="#59BE92"/>
<path d="M24.9536 40.0175V41.7676H26.7037V40.0175H24.9536Z" fill="#59BE92"/>
<path d="M24.9536 38.2675V40.0176H26.7037V38.2675H24.9536Z" fill="#59BE92"/>
<path d="M23.2035 40.0174V41.7676H24.9536V40.0174H23.2035Z" fill="#32B686"/>
<path d="M23.2035 38.2674V40.0176H24.9536V38.2674H23.2035Z" fill="#32B686"/>
<path d="M21.4534 40.0174V41.7676H23.2035V40.0174H21.4534Z" fill="#32B686"/>
<path d="M21.4534 38.2674V40.0176H23.2035V38.2674H21.4534Z" fill="#32B686"/>
<path d="M19.7032 40.0174V41.7676H21.4534V40.0174H19.7032Z" fill="#32B686"/>
<path d="M19.7032 38.2674V40.0176H21.4534V38.2674H19.7032Z" fill="#32B686"/>
<path d="M17.953 40.0174V41.7676H19.7031V40.0174H17.953Z" fill="#00AC75"/>
<path d="M17.953 38.2674V40.0176H19.7031V38.2674H17.953Z" fill="#00AC75"/>
<path d="M16.203 40.0174V41.7676H17.9531V40.0174H16.203Z" fill="#00AC75"/>
<path d="M16.203 38.2674V40.0176H17.9531V38.2674H16.203Z" fill="#00AC75"/>
<path d="M14.4528 40.0174V41.7676H16.2029V40.0174H14.4528Z" fill="#00AC75"/>
<path d="M14.4528 38.2674V40.0176H16.2029V38.2674H14.4528Z" fill="#00AC75"/>
<path d="M31.9502 36.5174V38.2676H33.7003V36.5174H31.9502Z" fill="#59BE92"/>
<path d="M30.2002 36.5174V38.2676H31.9503V36.5174H30.2002Z" fill="#59BE92"/>
<path d="M28.4501 36.5174V38.2676H30.2002V36.5174H28.4501Z" fill="#59BE92"/>
<path d="M26.7036 36.5174V38.2676H28.4537V36.5174H26.7036Z" fill="#59BE92"/>
<path d="M24.9536 36.5175V38.2676H26.7037V36.5175H24.9536Z" fill="#59BE92"/>
<path d="M23.2035 36.5174V38.2676H24.9536V36.5174H23.2035Z" fill="#32B686"/>
<path d="M21.4534 36.5174V38.2676H23.2035V36.5174H21.4534Z" fill="#32B686"/>
<path d="M19.7032 36.5174V38.2676H21.4534V36.5174H19.7032Z" fill="#32B686"/>
<path d="M17.953 36.5174V38.2676H19.7031V36.5174H17.953Z" fill="#00AC75"/>
<path d="M16.203 36.5174V38.2676H17.9531V36.5174H16.203Z" fill="#00AC75"/>
<path d="M31.9502 34.7672V36.5173H33.7003V34.7672H31.9502Z" fill="#59BE92"/>
<path d="M30.2002 34.7672V36.5173H31.9503V34.7672H30.2002Z" fill="#59BE92"/>
<path d="M28.4501 34.7672V36.5173H30.2002V34.7672H28.4501Z" fill="#59BE92"/>
<path d="M26.6998 34.7672V36.5173H28.45V34.7672H26.6998Z" fill="#59BE92"/>
<path d="M24.9536 34.7672V36.5173H26.7037V34.7672H24.9536Z" fill="#59BE92"/>
<path d="M23.2035 34.7672V36.5173H24.9536V34.7672H23.2035Z" fill="#32B686"/>
<path d="M21.4534 34.7672V36.5173H23.2035V34.7672H21.4534Z" fill="#32B686"/>
<path d="M19.7032 34.7672V36.5173H21.4534V34.7672H19.7032Z" fill="#32B686"/>
<path d="M17.953 34.7672V36.5173H19.7031V34.7672H17.953Z" fill="#00AC75"/>
<path d="M16.203 34.7672V36.5173H17.9531V34.7672H16.203Z" fill="#00AC75"/>
<path d="M17.953 33.0209V34.771H19.7031V33.0209H17.953Z" fill="#00AC75"/>
<path d="M19.7032 31.2709V33.021H21.4534V31.2709H19.7032Z" fill="#32B686"/>
<path d="M17.9568 31.2745V33.0247H19.7069V31.2745H17.9568Z" fill="#00AC75"/>
<path d="M16.203 33.0209V34.771H17.9531V33.0209H16.203Z" fill="#00AC75"/>
<path d="M14.4528 36.5174V38.2676H16.2029V36.5174H14.4528Z" fill="#00AC75"/>
<path d="M14.4528 45.2679V47.0181H16.2029V45.2679H14.4528Z" fill="#00AC75"/>
<path d="M40.7047 31.2631V29.5129H38.9546V31.2631H40.7047Z" fill="#59BE92"/>
<path d="M51.2017 28.6398V26.8896H49.4515V28.6398H51.2017Z" fill="#F9D0E2"/>
<path d="M49.4478 30.39V28.6399H47.6976V30.39H49.4478Z" fill="#F7BBD5"/>
<path d="M51.1979 30.39V28.6399H49.4477V30.39H51.1979Z" fill="#F7BBD5"/>
<path d="M52.948 30.39V28.6399H51.1979V30.39H52.948Z" fill="#F7BBD5"/>
<path d="M49.4515 28.6437V26.8936H47.7014V28.6437H49.4515Z" fill="#F9D0E2"/>
<path d="M52.9518 28.6437V26.8936H51.2017V28.6437H52.9518Z" fill="#F9D0E2"/>
<path d="M30.2002 30.39V28.6399H28.4501V30.39H30.2002Z" fill="#F7BBD5"/>
<path d="M31.9502 30.39V28.6399H30.2001V30.39H31.9502Z" fill="#F7BBD5"/>
<path d="M33.7004 30.3864V28.6362H31.9503V30.3864H33.7004Z" fill="#F7BBD5"/>
<path d="M30.204 28.6437V26.8936H28.4538V28.6437H30.204Z" fill="#F9D0E2"/>
<path d="M31.954 28.6437V26.8936H30.2038V28.6437H31.954Z" fill="#F9D0E2"/>
<path d="M33.7042 28.6398V26.8896H31.9541V28.6398H33.7042Z" fill="#F9D0E2"/>
<path d="M35.4506 25.1398V23.3896H33.7004V25.1398H35.4506Z" fill="#184742"/>
<path d="M37.2006 25.1398V23.3896H35.4504V25.1398H37.2006Z" fill="white"/>
<path d="M35.4543 26.8898V25.1396H33.7042V26.8898H35.4543Z" fill="#184742"/>
<path d="M37.2045 26.8898V25.1396H35.4543V26.8898H37.2045Z" fill="#184742"/>
<path d="M45.9475 25.1434V23.3933H44.1974V25.1434H45.9475Z" fill="#184742"/>
<path d="M47.6976 25.1434V23.3933H45.9475V25.1434H47.6976Z" fill="white"/>
<path d="M45.9513 26.8898V25.1396H44.2012V26.8898H45.9513Z" fill="#184742"/>
<path d="M47.7014 26.8937V25.1436H45.9513V26.8937H47.7014Z" fill="#184742"/>
<path d="M37.2006 30.3864V28.6362H35.4504V30.3864H37.2006Z" fill="#184742"/>
<path d="M38.9508 32.1364V30.3862H37.2007V32.1364H38.9508Z" fill="#184742"/>
<path d="M40.7009 32.1364V30.3862H38.9508V32.1364H40.7009Z" fill="#184742"/>
<path d="M45.9513 30.39V28.6399H44.2012V30.39H45.9513Z" fill="#184742"/>
<path d="M44.2012 32.1364V30.3862H42.451V32.1364H44.2012Z" fill="#184742"/>
<path d="M42.451 32.1364V30.3862H40.7009V32.1364H42.451Z" fill="#184742"/>
<path d="M33.4727 55.7649H28.7576V59.4967H26.9353V64.284H33.4727V59.4967V55.7649Z" fill="#184742"/>
<path d="M31.954 62.7692V61.019H30.2038V62.7692H31.954Z" fill="#008459"/>
<path d="M30.204 62.7655V61.0154H28.4538V62.7655H30.204Z" fill="#008459"/>
<path d="M31.954 61.0189V59.2688H30.2038V61.0189H31.954Z" fill="#008459"/>
<path d="M31.954 59.2689V57.5188H30.2038V59.2689H31.954Z" fill="#008459"/>
<path d="M31.954 57.5189V55.7688H30.2038V57.5189H31.954Z" fill="#008459"/>
<path d="M52.7203 55.7649H48.009V59.4967H46.183V64.284H52.7203V59.4967V55.7649Z" fill="#184742"/>
<path d="M51.2017 62.7655V61.0154H49.4515V62.7655H51.2017Z" fill="#008459"/>
<path d="M49.4515 62.7655V61.0154H47.7014V62.7655H49.4515Z" fill="#008459"/>
<path d="M51.2017 61.0153V59.2651H49.4515V61.0153H51.2017Z" fill="#008459"/>
<path d="M51.2017 59.2689V57.5188H49.4515V59.2689H51.2017Z" fill="#008459"/>
<path d="M51.2017 57.5189V55.7688H49.4515V57.5189H51.2017Z" fill="#008459"/>
<path d="M15.7436 37.736V34.828H15.1058V31.9731H14.4984V29.1296H13.7581V26.2406H12.9418V23.3516H9.72632V24.0045H7.14858V24.7486H4.35065V25.5876H1.64763V26.2406H0V29.1069H0.421398V30.9709H0.683348V33.0209H1.42744V34.8394H1.92856V36.8059H2.36135V38.8598H2.6157V40.7314H2.98395V42.6789H3.90267V43.9735H7.24728V43.2939H10.03V42.546H12.7862V41.7564H15.6335V41.0844H16.4763V37.736H15.7436Z" fill="#184742"/>
<path d="M12.8355 27.1594H0.918701V28.1844H12.8355V27.1594Z" fill="#1F70FF"/>
<path d="M12.8393 28.1843H1.79187V29.2093H12.8393V28.1843Z" fill="#1F70FF"/>
<path d="M13.5758 30.052H2.39929V31.077H13.5758V30.052Z" fill="#1F70FF"/>
<path d="M13.5758 32.1021H2.66125V33.1271H13.5758V32.1021Z" fill="#1F70FF"/>
<path d="M14.187 33.9204H3.28003V34.9454H14.187V33.9204Z" fill="#1F70FF"/>
<path d="M6.32857 37.7588H4.21399V38.7838H6.32857V37.7588Z" fill="#1F70FF"/>
<path d="M11.8636 39.8125H4.46069V40.8375H11.8636V39.8125Z" fill="#1F70FF"/>
<path d="M9.10752 41.76H4.66956V42.5231H9.10752V41.76Z" fill="#1F70FF"/>
<path d="M6.65506 42.47H4.66956V43.1229H6.65506V42.47Z" fill="#1F70FF"/>
<path d="M12.8394 29.0271H1.34399V30.0521H12.8394V29.0271Z" fill="#1F70FF"/>
<path d="M13.5797 31.0771H1.60596V32.1022H13.5797V31.0771Z" fill="#1F70FF"/>
<path d="M10.9677 29.3423H9.72632V30.0484H10.9677V29.3423Z" fill="#184742"/>
<path d="M14.1872 32.8918H2.17163V33.9169H14.1872V32.8918Z" fill="#1F70FF"/>
<path d="M14.1871 34.8621H2.84729V35.8871H14.1871V34.8621Z" fill="#1F70FF"/>
<path d="M5.39461 36.9124H3.28003V37.9374H5.39461V36.9124Z" fill="#1F70FF"/>
<path d="M6.01729 35.8872H3.90271V36.9122H6.01729V35.8872Z" fill="#1F70FF"/>
<path d="M12.6305 38.7876H3.53442V39.8126H12.6305V38.7876Z" fill="#1F70FF"/>
<path d="M14.8249 35.7505H4.21399V38.966H14.8249V35.7505Z" fill="#1F70FF"/>
<path d="M9.10754 40.8376H3.90271V41.8665H9.10754V40.8376Z" fill="#1F70FF"/>
<path d="M11.8638 40.5984H6.65894V41.6234H11.8638V40.5984Z" fill="#1F70FF"/>
<path d="M14.7109 39.8125H9.5061V40.8375H14.7109V39.8125Z" fill="#1F70FF"/>
<path d="M15.5538 38.6584H10.349V40.1618H15.5538V38.6584Z" fill="#1F70FF"/>
<path d="M12.0232 24.2703H10.6489V25.2953H12.0232V24.2703Z" fill="#1F70FF"/>
<path d="M12.0194 26.5061H2.56641V27.5311H12.0194V26.5061Z" fill="#1F70FF"/>
<path d="M12.0192 25.6672H5.26929V26.6923H12.0192V25.6672Z" fill="#1F70FF"/>
<path d="M12.0194 24.9231H8.06738V25.9481H12.0194V24.9231Z" fill="#1F70FF"/>
<path d="M4.96187 31.396H3.72046V32.1021H4.96187V31.396Z" fill="#184742"/>
<path d="M7.42576 30.7241H4.96191V31.4302H7.42576V30.7241Z" fill="#184742"/>
<path d="M9.8782 30.0142H7.0575V30.7203H9.8782V30.0142Z" fill="#184742"/>
<path d="M4.75301 28.917H3.5116V29.6231H4.75301V28.917Z" fill="#184742"/>
<path d="M10.7626 27.0225H9.10742V27.7286H10.7626V27.0225Z" fill="#184742"/>
<path d="M7.05745 28.2449H4.75305V28.951H7.05745V28.2449Z" fill="#184742"/>
<path d="M9.11135 27.5388H6.97778V28.2449H9.11135V27.5388Z" fill="#184742"/>
<path d="M75.879 28.1371L74.1367 28.1648L74.1644 29.9071L75.9067 29.8794L75.879 28.1371Z" fill="#E874A9"/>
<path d="M77.4406 26.5215L72.5249 26.5996L72.603 31.5153L77.5187 31.4372L77.4406 26.5215Z" fill="#F5A5C5"/>
<path d="M77.621 28.1095L75.8787 28.1372L75.9063 29.8795L77.6487 29.8519L77.621 28.1095Z" fill="#E874A9"/>
<path d="M79.1786 26.49L74.2629 26.5681L74.341 31.4838L79.2567 31.4057L79.1786 26.49Z" fill="#F5A5C5"/>
<path d="M74.1409 28.1608L72.3986 28.1885L72.4262 29.9308L74.1685 29.9031L74.1409 28.1608Z" fill="#E874A9"/>
<path d="M75.6986 26.5452L70.783 26.6233L70.861 31.539L75.7767 31.4609L75.6986 26.5452Z" fill="#F5A5C5"/>
<path d="M76.0525 29.5009L74.3102 29.5286L74.3379 31.2709L76.0802 31.2432L76.0525 29.5009Z" fill="#E874A9"/>
<path d="M77.6139 27.8814L72.6982 27.9595L72.7763 32.8752L77.692 32.7971L77.6139 27.8814Z" fill="#F5A5C5"/>
<path d="M74.0581 22.943L72.3158 22.9707L72.3435 24.713L74.0858 24.6853L74.0581 22.943Z" fill="#E874A9"/>
<path d="M75.6195 21.3272L70.7039 21.4053L70.7819 26.321L75.6976 26.2429L75.6195 21.3272Z" fill="#F5A5C5"/>
<path d="M72.3124 22.9667L70.5701 22.9944L70.5977 24.7367L72.3401 24.709L72.3124 22.9667Z" fill="#E874A9"/>
<path d="M73.8773 21.3534L68.9617 21.4324L69.0406 26.348L73.9563 26.2691L73.8773 21.3534Z" fill="#F5A5C5"/>
<path d="M73.1666 21.7917L71.4243 21.8193L71.452 23.5617L73.1943 23.534L73.1666 21.7917Z" fill="#E874A9"/>
<path d="M74.7282 20.1761L69.8125 20.2542L69.8906 25.1698L74.8063 25.0918L74.7282 20.1761Z" fill="#F5A5C5"/>
<path d="M78.1836 21.7121L76.4413 21.7397L76.469 23.4821L78.2113 23.4544L78.1836 21.7121Z" fill="#E874A9"/>
<path d="M79.7445 20.0939L74.8289 20.1729L74.9078 25.0885L79.8235 25.0096L79.7445 20.0939Z" fill="#F5A5C5"/>
<path d="M79.2761 22.86L77.5338 22.8877L77.5615 24.63L79.3038 24.6023L79.2761 22.86Z" fill="#E874A9"/>
<path d="M80.8372 21.2416L75.9215 21.3206L76.0004 26.2362L80.9161 26.1573L80.8372 21.2416Z" fill="#F5A5C5"/>
<path d="M77.538 22.8839L75.7957 22.9116L75.8233 24.6539L77.5656 24.6263L77.538 22.8839Z" fill="#E874A9"/>
<path d="M79.0956 21.2681L74.1799 21.3462L74.258 26.2619L79.1737 26.1838L79.0956 21.2681Z" fill="#F5A5C5"/>
<path d="M72.3438 24.7123L70.6014 24.74L70.6291 26.4823L72.3714 26.4546L72.3438 24.7123Z" fill="#E874A9"/>
<path d="M73.9014 23.0928L68.9857 23.1709L69.0638 28.0866L73.9795 28.0085L73.9014 23.0928Z" fill="#F5A5C5"/>
<path d="M70.6019 24.7362L68.8596 24.7639L68.8873 26.5062L70.6296 26.4786L70.6019 24.7362Z" fill="#E874A9"/>
<path d="M72.1634 23.1243L67.2477 23.2024L67.3258 28.1181L72.2414 28.04L72.1634 23.1243Z" fill="#F5A5C5"/>
<path d="M75.8237 24.6532L74.0814 24.6809L74.1091 26.4232L75.8514 26.3955L75.8237 24.6532Z" fill="#E874A9"/>
<path d="M77.3852 23.0376L72.4695 23.1157L72.5476 28.0314L77.4632 27.9533L77.3852 23.0376Z" fill="#F5A5C5"/>
<path d="M74.0819 24.6811L72.3396 24.7087L72.3673 26.4511L74.1096 26.4234L74.0819 24.6811Z" fill="#E874A9"/>
<path d="M75.6471 23.0652L70.7314 23.1433L70.8095 28.059L75.7252 27.9809L75.6471 23.0652Z" fill="#F5A5C5"/>
<path d="M72.3715 26.4504L70.6292 26.478L70.6568 28.2203L72.3991 28.1927L72.3715 26.4504Z" fill="#E874A9"/>
<path d="M73.9329 24.8348L69.0172 24.9128L69.0953 29.8285L74.011 29.7505L73.9329 24.8348Z" fill="#F5A5C5"/>
<path d="M74.1133 26.4228L72.371 26.4504L72.3986 28.1928L74.141 28.1651L74.1133 26.4228Z" fill="#E874A9"/>
<path d="M75.6713 24.8053L70.7556 24.8843L70.8346 29.8L75.7502 29.721L75.6713 24.8053Z" fill="#F5A5C5"/>
<path d="M75.8514 26.3952L74.1091 26.4229L74.1368 28.1652L75.8791 28.1375L75.8514 26.3952Z" fill="#E874A9"/>
<path d="M77.4129 24.7796L72.4972 24.8577L72.5753 29.7734L77.491 29.6953L77.4129 24.7796Z" fill="#F5A5C5"/>
<path d="M77.5895 26.3676L75.8472 26.3953L75.8748 28.1376L77.6172 28.1099L77.5895 26.3676Z" fill="#E874A9"/>
<path d="M79.1551 24.7494L74.2394 24.8284L74.3183 29.744L79.234 29.6651L79.1551 24.7494Z" fill="#F5A5C5"/>
<path d="M77.5656 24.6296L75.8232 24.6572L75.8509 26.3995L77.5932 26.3719L77.5656 24.6296Z" fill="#E874A9"/>
<path d="M79.1271 23.0098L74.2114 23.0879L74.2895 28.0036L79.2052 27.9255L79.1271 23.0098Z" fill="#F5A5C5"/>
<path d="M79.3075 24.5981L77.5652 24.6257L77.5929 26.3681L79.3352 26.3404L79.3075 24.5981Z" fill="#E874A9"/>
<path d="M80.8651 22.9822L75.9495 23.0603L76.0275 27.976L80.9432 27.8979L80.8651 22.9822Z" fill="#F5A5C5"/>
<path d="M79.3313 26.34L77.589 26.3677L77.6167 28.11L79.359 28.0823L79.3313 26.34Z" fill="#E874A9"/>
<path d="M80.8966 24.7242L75.981 24.8022L76.059 29.7179L80.9747 29.6399L80.8966 24.7242Z" fill="#F5A5C5"/>
<path d="M81.0455 24.5705L79.3032 24.5981L79.3309 26.3405L81.0732 26.3128L81.0455 24.5705Z" fill="#E874A9"/>
<path d="M82.6071 22.9546L77.6914 23.0327L77.7695 27.9484L82.6852 27.8703L82.6071 22.9546Z" fill="#F5A5C5"/>
<path d="M75.879 28.1371L74.1367 28.1648L74.1644 29.9071L75.9067 29.8794L75.879 28.1371Z" fill="#ED3680"/>
<path d="M77.621 28.1095L75.8787 28.1372L75.9063 29.8795L77.6487 29.8519L77.621 28.1095Z" fill="#ED3680"/>
<path d="M74.1409 28.1608L72.3986 28.1885L72.4262 29.9308L74.1685 29.9031L74.1409 28.1608Z" fill="#ED3680"/>
<path d="M76.0525 29.5009L74.3102 29.5286L74.3379 31.2709L76.0802 31.2432L76.0525 29.5009Z" fill="#ED3680"/>
<path d="M74.0581 22.943L72.3158 22.9707L72.3435 24.713L74.0858 24.6853L74.0581 22.943Z" fill="#ED589F"/>
<path d="M72.3123 22.9667L70.5699 22.9944L70.5976 24.7367L72.3399 24.709L72.3123 22.9667Z" fill="#ED3680"/>
<path d="M73.1666 21.7917L71.4243 21.8193L71.452 23.5617L73.1943 23.534L73.1666 21.7917Z" fill="#ED589F"/>
<path d="M78.1836 21.7121L76.4413 21.7397L76.469 23.4821L78.2113 23.4544L78.1836 21.7121Z" fill="#EF64A2"/>
<path d="M79.2761 22.86L77.5338 22.8877L77.5615 24.63L79.3038 24.6023L79.2761 22.86Z" fill="#EF64A2"/>
<path d="M77.538 22.8839L75.7957 22.9116L75.8233 24.6539L77.5656 24.6263L77.538 22.8839Z" fill="#EF64A2"/>
<path d="M72.3438 24.7123L70.6014 24.74L70.6291 26.4823L72.3714 26.4546L72.3438 24.7123Z" fill="#ED3680"/>
<path d="M70.6019 24.7362L68.8596 24.7639L68.8873 26.5062L70.6296 26.4786L70.6019 24.7362Z" fill="#ED3680"/>
<path d="M75.8237 24.6532L74.0814 24.6809L74.1091 26.4232L75.8514 26.3955L75.8237 24.6532Z" fill="#EF64A2"/>
<path d="M74.0819 24.6808L72.3396 24.7085L72.3673 26.4508L74.1096 26.4231L74.0819 24.6808Z" fill="#ED589F"/>
<path d="M72.3715 26.4504L70.6292 26.478L70.6568 28.2203L72.3991 28.1927L72.3715 26.4504Z" fill="#ED3680"/>
<path d="M74.1133 26.4228L72.371 26.4504L72.3986 28.1928L74.141 28.1651L74.1133 26.4228Z" fill="#ED589F"/>
<path d="M75.8514 26.3952L74.1091 26.4229L74.1368 28.1652L75.8791 28.1375L75.8514 26.3952Z" fill="#ED589F"/>
<path d="M77.5895 26.3676L75.8472 26.3953L75.8748 28.1376L77.6172 28.1099L77.5895 26.3676Z" fill="#ED589F"/>
<path d="M77.5657 24.6296L75.8234 24.6572L75.851 26.3995L77.5934 26.3719L77.5657 24.6296Z" fill="#EF64A2"/>
<path d="M79.3075 24.5981L77.5652 24.6257L77.5929 26.3681L79.3352 26.3404L79.3075 24.5981Z" fill="#EF64A2"/>
<path d="M79.3313 26.3398L77.589 26.3674L77.6167 28.1097L79.359 28.0821L79.3313 26.3398Z" fill="#EF64A2"/>
<path d="M81.0455 24.5705L79.3032 24.5981L79.3309 26.3405L81.0732 26.3128L81.0455 24.5705Z" fill="#EF64A2"/>
<path d="M77.9046 9.40271L76.9897 9.41724L77.0043 10.332L77.9191 10.3175L77.9046 9.40271Z" fill="#E874A9"/>
<path d="M78.7264 8.55416L76.1414 8.59521L76.1824 11.1802L78.7674 11.1392L78.7264 8.55416Z" fill="#F5A5C5"/>
<path d="M78.8191 9.39196L77.9043 9.40649L77.9188 10.3213L78.8336 10.3068L78.8191 9.39196Z" fill="#E874A9"/>
<path d="M79.6371 8.53981L77.0559 8.58081L77.0969 11.162L79.6781 11.121L79.6371 8.53981Z" fill="#F5A5C5"/>
<path d="M76.99 9.41735L76.0752 9.43188L76.0897 10.3467L77.0045 10.3322L76.99 9.41735Z" fill="#E874A9"/>
<path d="M77.808 8.56496L75.2268 8.60596L75.2679 11.191L77.8491 11.15L77.808 8.56496Z" fill="#F5A5C5"/>
<path d="M77.9956 10.1224L77.0808 10.137L77.0953 11.0518L78.0102 11.0372L77.9956 10.1224Z" fill="#E874A9"/>
<path d="M78.8175 9.27394L76.2363 9.31494L76.2774 11.8999L78.8586 11.8589L78.8175 9.27394Z" fill="#F5A5C5"/>
<path d="M76.9502 6.67736L76.0354 6.69189L76.0499 7.60671L76.9647 7.59217L76.9502 6.67736Z" fill="#E874A9"/>
<path d="M77.772 5.82491L75.187 5.86597L75.228 8.44718L77.813 8.40612L77.772 5.82491Z" fill="#F5A5C5"/>
<path d="M76.0355 6.68811L75.1207 6.70264L75.1353 7.61745L76.0501 7.60292L76.0355 6.68811Z" fill="#E874A9"/>
<path d="M76.8545 5.83764L74.2695 5.87915L74.311 8.46415L76.896 8.42264L76.8545 5.83764Z" fill="#F5A5C5"/>
<path d="M76.4813 6.0736L75.5665 6.08813L75.5811 7.00295L76.4959 6.98842L76.4813 6.0736Z" fill="#E874A9"/>
<path d="M77.2994 5.22145L74.7181 5.26245L74.7592 7.84746L77.3404 7.80646L77.2994 5.22145Z" fill="#F5A5C5"/>
<path d="M79.115 6.02795L78.2002 6.04248L78.2147 6.95729L79.1295 6.94276L79.115 6.02795Z" fill="#E874A9"/>
<path d="M79.9375 5.17699L77.3525 5.21851L77.394 7.79971L79.979 7.7582L79.9375 5.17699Z" fill="#F5A5C5"/>
<path d="M79.6902 6.63366L78.7754 6.64819L78.7899 7.563L79.7047 7.54847L79.6902 6.63366Z" fill="#E874A9"/>
<path d="M80.5165 5.7788L77.9315 5.82031L77.973 8.40531L80.558 8.3638L80.5165 5.7788Z" fill="#F5A5C5"/>
<path d="M78.7755 6.64807L77.8607 6.6626L77.8752 7.57741L78.7901 7.56288L78.7755 6.64807Z" fill="#E874A9"/>
<path d="M79.6012 5.7961L77.0162 5.83716L77.0573 8.42216L79.6423 8.3811L79.6012 5.7961Z" fill="#F5A5C5"/>
<path d="M76.0501 7.60266L75.1353 7.61719L75.1498 8.532L76.0646 8.51747L76.0501 7.60266Z" fill="#E874A9"/>
<path d="M76.8682 6.75026L74.287 6.79126L74.328 9.37627L76.9093 9.33527L76.8682 6.75026Z" fill="#F5A5C5"/>
<path d="M75.1355 7.61706L74.2207 7.63159L74.2352 8.5464L75.15 8.53187L75.1355 7.61706Z" fill="#E874A9"/>
<path d="M75.9573 6.76875L73.3723 6.80981L73.4133 9.39103L75.9983 9.34997L75.9573 6.76875Z" fill="#F5A5C5"/>
<path d="M77.8755 7.57727L76.9607 7.5918L76.9752 8.50661L77.89 8.49208L77.8755 7.57727Z" fill="#E874A9"/>
<path d="M78.6973 6.72511L76.1161 6.76611L76.1571 9.35112L78.7384 9.31012L78.6973 6.72511Z" fill="#F5A5C5"/>
<path d="M76.9647 7.58801L76.0499 7.60254L76.0645 8.51735L76.9793 8.50282L76.9647 7.58801Z" fill="#E874A9"/>
<path d="M77.7867 6.7397L75.2017 6.78076L75.2427 9.36577L77.8277 9.32471L77.7867 6.7397Z" fill="#F5A5C5"/>
<path d="M76.0646 8.51721L75.1498 8.53174L75.1643 9.44655L76.0791 9.43202L76.0646 8.51721Z" fill="#E874A9"/>
<path d="M76.8864 7.66499L74.3014 7.70605L74.3425 10.2911L76.9275 10.25L76.8864 7.66499Z" fill="#F5A5C5"/>
<path d="M76.9755 8.50256L76.0607 8.51709L76.0752 9.4319L76.99 9.41737L76.9755 8.50256Z" fill="#E874A9"/>
<path d="M77.8022 7.65575L75.2172 7.69727L75.2586 10.2785L77.8436 10.237L77.8022 7.65575Z" fill="#F5A5C5"/>
<path d="M77.89 8.48815L76.9752 8.50269L76.9898 9.4175L77.9046 9.40297L77.89 8.48815Z" fill="#E874A9"/>
<path d="M78.7118 7.6396L76.1268 7.68066L76.1679 10.2657L78.7529 10.2246L78.7118 7.6396Z" fill="#F5A5C5"/>
<path d="M78.8046 8.47741L77.8898 8.49194L77.9043 9.40675L78.8191 9.39222L78.8046 8.47741Z" fill="#E874A9"/>
<path d="M79.6276 7.6228L77.0426 7.66431L77.0841 10.2493L79.6691 10.2078L79.6276 7.6228Z" fill="#F5A5C5"/>
<path d="M78.7901 7.56286L77.8752 7.57739L77.8898 8.4922L78.8046 8.47767L78.7901 7.56286Z" fill="#E874A9"/>
<path d="M79.6156 6.71065L77.0306 6.75171L77.0716 9.33292L79.6566 9.29186L79.6156 6.71065Z" fill="#F5A5C5"/>
<path d="M79.7046 7.54821L78.7898 7.56274L78.8043 8.47756L79.7191 8.46302L79.7046 7.54821Z" fill="#E874A9"/>
<path d="M80.5227 6.69606L77.9415 6.73706L77.9825 9.31827L80.5637 9.27727L80.5227 6.69606Z" fill="#F5A5C5"/>
<path d="M79.7193 8.46276L78.8044 8.47729L78.819 9.39211L79.7338 9.37758L79.7193 8.46276Z" fill="#E874A9"/>
<path d="M80.5411 7.6108L77.9561 7.65186L77.9971 10.2369L80.5821 10.1958L80.5411 7.6108Z" fill="#F5A5C5"/>
<path d="M80.6193 7.5299L79.7045 7.54443L79.719 8.45924L80.6338 8.44471L80.6193 7.5299Z" fill="#E874A9"/>
<path d="M81.4411 6.6816L78.8561 6.72266L78.8971 9.30766L81.4821 9.2666L81.4411 6.6816Z" fill="#F5A5C5"/>
<path d="M77.9046 9.40271L76.9897 9.41724L77.0043 10.332L77.9191 10.3175L77.9046 9.40271Z" fill="#ED3680"/>
<path d="M78.8191 9.39196L77.9043 9.40649L77.9188 10.3213L78.8336 10.3068L78.8191 9.39196Z" fill="#ED3680"/>
<path d="M76.99 9.41735L76.0752 9.43188L76.0897 10.3467L77.0045 10.3322L76.99 9.41735Z" fill="#ED3680"/>
<path d="M77.9956 10.1224L77.0808 10.137L77.0953 11.0518L78.0102 11.0372L77.9956 10.1224Z" fill="#ED3680"/>
<path d="M76.9502 6.67736L76.0354 6.69189L76.0499 7.60671L76.9647 7.59217L76.9502 6.67736Z" fill="#ED589F"/>
<path d="M76.0355 6.68811L75.1207 6.70264L75.1353 7.61745L76.0501 7.60292L76.0355 6.68811Z" fill="#ED3680"/>
<path d="M76.4813 6.0736L75.5665 6.08813L75.5811 7.00295L76.4959 6.98842L76.4813 6.0736Z" fill="#ED589F"/>
<path d="M79.115 6.02795L78.2002 6.04248L78.2147 6.95729L79.1295 6.94276L79.115 6.02795Z" fill="#EF64A2"/>
<path d="M79.6902 6.63366L78.7754 6.64819L78.7899 7.563L79.7047 7.54847L79.6902 6.63366Z" fill="#EF64A2"/>
<path d="M78.7755 6.64807L77.8607 6.6626L77.8752 7.57741L78.7901 7.56288L78.7755 6.64807Z" fill="#EF64A2"/>
<path d="M76.0501 7.60266L75.1353 7.61719L75.1498 8.532L76.0646 8.51747L76.0501 7.60266Z" fill="#ED3680"/>
<path d="M75.1355 7.61706L74.2207 7.63159L74.2352 8.5464L75.15 8.53187L75.1355 7.61706Z" fill="#ED3680"/>
<path d="M77.8755 7.57727L76.9607 7.5918L76.9752 8.50661L77.89 8.49208L77.8755 7.57727Z" fill="#EF64A2"/>
<path d="M76.9647 7.58801L76.0499 7.60254L76.0645 8.51735L76.9793 8.50282L76.9647 7.58801Z" fill="#ED589F"/>
<path d="M76.0646 8.51721L75.1498 8.53174L75.1643 9.44655L76.0791 9.43202L76.0646 8.51721Z" fill="#ED3680"/>
<path d="M76.9755 8.50256L76.0607 8.51709L76.0752 9.4319L76.99 9.41737L76.9755 8.50256Z" fill="#ED589F"/>
<path d="M77.89 8.48815L76.9752 8.50269L76.9898 9.4175L77.9046 9.40297L77.89 8.48815Z" fill="#ED589F"/>
<path d="M78.8046 8.47741L77.8898 8.49194L77.9043 9.40675L78.8191 9.39222L78.8046 8.47741Z" fill="#ED589F"/>
<path d="M78.7901 7.56286L77.8752 7.57739L77.8898 8.4922L78.8046 8.47767L78.7901 7.56286Z" fill="#EF64A2"/>
<path d="M79.7046 7.54821L78.7898 7.56274L78.8043 8.47756L79.7191 8.46302L79.7046 7.54821Z" fill="#EF64A2"/>
<path d="M79.7193 8.46276L78.8044 8.47729L78.819 9.39211L79.7338 9.37758L79.7193 8.46276Z" fill="#EF64A2"/>
<path d="M80.6193 7.5299L79.7045 7.54443L79.719 8.45924L80.6338 8.44471L80.6193 7.5299Z" fill="#EF64A2"/>
<path d="M85.6007 14.0635L84.9857 14.0732L84.9955 14.6882L85.6104 14.6784L85.6007 14.0635Z" fill="#E874A9"/>
<path d="M86.1496 13.4888L84.4149 13.5164L84.4425 15.2511L86.1772 15.2235L86.1496 13.4888Z" fill="#F5A5C5"/>
<path d="M86.2116 14.0535L85.5967 14.0632L85.6064 14.6782L86.2214 14.6684L86.2116 14.0535Z" fill="#E874A9"/>
<path d="M86.7645 13.479L85.0298 13.5066L85.0573 15.2413L86.7921 15.2138L86.7645 13.479Z" fill="#F5A5C5"/>
<path d="M84.9858 14.073L84.3708 14.0828L84.3806 14.6977L84.9956 14.6879L84.9858 14.073Z" fill="#E874A9"/>
<path d="M85.5349 13.4986L83.8002 13.5261L83.8277 15.2608L85.5624 15.2333L85.5349 13.4986Z" fill="#F5A5C5"/>
<path d="M85.6614 14.5444L85.0465 14.5542L85.0563 15.1691L85.6712 15.1594L85.6614 14.5444Z" fill="#E874A9"/>
<path d="M86.2106 13.97L84.4758 13.9976L84.5034 15.7323L86.2381 15.7047L86.2106 13.97Z" fill="#F5A5C5"/>
<path d="M84.9528 12.2249L84.3379 12.2346L84.3477 12.8496L84.9626 12.8398L84.9528 12.2249Z" fill="#E874A9"/>
<path d="M85.5019 11.6543L83.7672 11.6819L83.7948 13.4166L85.5295 13.3891L85.5019 11.6543Z" fill="#F5A5C5"/>
<path d="M84.338 12.2385L83.723 12.2483L83.7328 12.8632L84.3477 12.8535L84.338 12.2385Z" fill="#E874A9"/>
<path d="M84.8889 11.6606L83.1542 11.6885L83.182 13.4232L84.9167 13.3953L84.8889 11.6606Z" fill="#F5A5C5"/>
<path d="M84.639 11.8237L84.024 11.8335L84.0338 12.4484L84.6488 12.4387L84.639 11.8237Z" fill="#E874A9"/>
<path d="M85.188 11.2493L83.4532 11.2769L83.4808 13.0116L85.2155 12.984L85.188 11.2493Z" fill="#F5A5C5"/>
<path d="M86.4111 11.7957L85.7961 11.8054L85.8059 12.4204L86.4208 12.4106L86.4111 11.7957Z" fill="#E874A9"/>
<path d="M86.9619 11.2175L85.2272 11.2454L85.255 12.9801L86.9898 12.9522L86.9619 11.2175Z" fill="#F5A5C5"/>
<path d="M86.7972 12.1995L86.1823 12.2092L86.192 12.8242L86.807 12.8144L86.7972 12.1995Z" fill="#E874A9"/>
<path d="M87.348 11.625L85.6133 11.6528L85.6411 13.3876L87.3759 13.3597L87.348 11.625Z" fill="#F5A5C5"/>
<path d="M86.1823 12.2092L85.5674 12.219L85.5772 12.8339L86.1921 12.8242L86.1823 12.2092Z" fill="#E874A9"/>
<path d="M86.7353 11.6385L85.0006 11.666L85.0282 13.4007L86.7629 13.3732L86.7353 11.6385Z" fill="#F5A5C5"/>
<path d="M84.3516 12.8533L83.7367 12.863L83.7465 13.478L84.3614 13.4682L84.3516 12.8533Z" fill="#E874A9"/>
<path d="M84.9007 12.2786L83.166 12.3062L83.1936 14.0409L84.9283 14.0133L84.9007 12.2786Z" fill="#F5A5C5"/>
<path d="M83.7369 12.863L83.1219 12.8728L83.1317 13.4877L83.7466 13.478L83.7369 12.863Z" fill="#E874A9"/>
<path d="M84.2859 12.2886L82.5511 12.3162L82.5787 14.0509L84.3134 14.0233L84.2859 12.2886Z" fill="#F5A5C5"/>
<path d="M85.5773 12.8337L84.9624 12.8435L84.9722 13.4584L85.5871 13.4487L85.5773 12.8337Z" fill="#E874A9"/>
<path d="M86.1302 12.2593L84.3955 12.2869L84.4231 14.0216L86.1578 13.994L86.1302 12.2593Z" fill="#F5A5C5"/>
<path d="M84.9626 12.8398L84.3477 12.8496L84.3574 13.4645L84.9724 13.4548L84.9626 12.8398Z" fill="#E874A9"/>
<path d="M85.5155 12.2691L83.7808 12.2966L83.8083 14.0314L85.543 14.0038L85.5155 12.2691Z" fill="#F5A5C5"/>
<path d="M84.3575 13.468L83.7426 13.4778L83.7523 14.0927L84.3673 14.083L84.3575 13.468Z" fill="#E874A9"/>
<path d="M84.9066 12.8938L83.1719 12.9214L83.1994 14.6561L84.9342 14.6286L84.9066 12.8938Z" fill="#F5A5C5"/>
<path d="M84.9724 13.4585L84.3574 13.4683L84.3672 14.0832L84.9821 14.0734L84.9724 13.4585Z" fill="#E874A9"/>
<path d="M85.5234 12.884L83.7887 12.9119L83.8166 14.6466L85.5513 14.6187L85.5234 12.884Z" fill="#F5A5C5"/>
<path d="M85.5871 13.4485L84.9722 13.4583L84.9819 14.0732L85.5969 14.0634L85.5871 13.4485Z" fill="#E874A9"/>
<path d="M86.1362 12.8741L84.4015 12.9016L84.429 14.6363L86.1638 14.6088L86.1362 12.8741Z" fill="#F5A5C5"/>
<path d="M86.2018 13.439L85.5869 13.4487L85.5967 14.0637L86.2116 14.0539L86.2018 13.439Z" fill="#E874A9"/>
<path d="M86.7529 12.8606L85.0182 12.8884L85.046 14.6231L86.7808 14.5953L86.7529 12.8606Z" fill="#F5A5C5"/>
<path d="M86.1921 12.824L85.5771 12.8337L85.5869 13.4487L86.2019 13.4389L86.1921 12.824Z" fill="#E874A9"/>
<path d="M86.7451 12.2535L85.0104 12.281L85.0379 14.0157L86.7727 13.9882L86.7451 12.2535Z" fill="#F5A5C5"/>
<path d="M86.807 12.8142L86.192 12.824L86.2018 13.4389L86.8167 13.4291L86.807 12.8142Z" fill="#E874A9"/>
<path d="M87.3561 12.2398L85.6213 12.2673L85.6489 14.0021L87.3836 13.9745L87.3561 12.2398Z" fill="#F5A5C5"/>
<path d="M86.8166 13.4292L86.2017 13.439L86.2114 14.0539L86.8264 14.0441L86.8166 13.4292Z" fill="#E874A9"/>
<path d="M87.3657 12.8545L85.631 12.8821L85.6585 14.6168L87.3933 14.5893L87.3657 12.8545Z" fill="#F5A5C5"/>
<path d="M87.4217 12.8044L86.8068 12.8142L86.8165 13.4291L87.4315 13.4194L87.4217 12.8044Z" fill="#E874A9"/>
<path d="M87.9708 12.23L86.2361 12.2576L86.2636 13.9923L87.9984 13.9647L87.9708 12.23Z" fill="#F5A5C5"/>
<path d="M85.6007 14.0635L84.9857 14.0732L84.9955 14.6882L85.6104 14.6784L85.6007 14.0635Z" fill="#ED3680"/>
<path d="M86.2116 14.0535L85.5967 14.0632L85.6064 14.6782L86.2214 14.6684L86.2116 14.0535Z" fill="#ED3680"/>
<path d="M84.9858 14.073L84.3708 14.0828L84.3806 14.6977L84.9956 14.6879L84.9858 14.073Z" fill="#ED3680"/>
<path d="M85.6614 14.5444L85.0465 14.5542L85.0563 15.1691L85.6712 15.1594L85.6614 14.5444Z" fill="#ED3680"/>
<path d="M84.9527 12.2249L84.3378 12.2346L84.3475 12.8496L84.9625 12.8398L84.9527 12.2249Z" fill="#ED589F"/>
<path d="M84.338 12.2385L83.723 12.2483L83.7328 12.8632L84.3477 12.8535L84.338 12.2385Z" fill="#ED3680"/>
<path d="M84.639 11.8237L84.024 11.8335L84.0338 12.4484L84.6488 12.4387L84.639 11.8237Z" fill="#ED589F"/>
<path d="M86.4111 11.7957L85.7961 11.8054L85.8059 12.4204L86.4208 12.4106L86.4111 11.7957Z" fill="#EF64A2"/>
<path d="M86.7972 12.1995L86.1823 12.2092L86.192 12.8242L86.807 12.8144L86.7972 12.1995Z" fill="#EF64A2"/>
<path d="M86.1823 12.2092L85.5674 12.219L85.5772 12.8339L86.1921 12.8242L86.1823 12.2092Z" fill="#EF64A2"/>
<path d="M84.3515 12.8533L83.7366 12.863L83.7463 13.478L84.3613 13.4682L84.3515 12.8533Z" fill="#ED3680"/>
<path d="M83.7369 12.863L83.1219 12.8728L83.1317 13.4877L83.7466 13.478L83.7369 12.863Z" fill="#ED3680"/>
<path d="M85.5773 12.8337L84.9624 12.8435L84.9722 13.4584L85.5871 13.4487L85.5773 12.8337Z" fill="#EF64A2"/>
<path d="M84.9626 12.8398L84.3477 12.8496L84.3574 13.4645L84.9724 13.4548L84.9626 12.8398Z" fill="#ED589F"/>
<path d="M84.3575 13.468L83.7426 13.4778L83.7523 14.0927L84.3673 14.083L84.3575 13.468Z" fill="#ED3680"/>
<path d="M84.9724 13.4583L84.3574 13.468L84.3672 14.083L84.9821 14.0732L84.9724 13.4583Z" fill="#ED589F"/>
<path d="M85.5871 13.4485L84.9722 13.4583L84.9819 14.0732L85.5969 14.0634L85.5871 13.4485Z" fill="#ED589F"/>
<path d="M86.2018 13.439L85.5869 13.4487L85.5967 14.0637L86.2116 14.0539L86.2018 13.439Z" fill="#ED589F"/>
<path d="M86.1921 12.824L85.5771 12.8337L85.5869 13.4487L86.2019 13.4389L86.1921 12.824Z" fill="#EF64A2"/>
<path d="M86.807 12.8142L86.192 12.824L86.2018 13.4389L86.8167 13.4291L86.807 12.8142Z" fill="#EF64A2"/>
<path d="M86.8166 13.4292L86.2017 13.439L86.2114 14.0539L86.8264 14.0441L86.8166 13.4292Z" fill="#EF64A2"/>
<path d="M87.4217 12.8044L86.8068 12.8142L86.8165 13.4291L87.4315 13.4194L87.4217 12.8044Z" fill="#EF64A2"/>
</g>
<defs>
<clipPath id="clip0_4697_124559">
<rect width="88" height="64.284" fill="white"/>
</clipPath>
</defs>
</svg>
