<svg width="16" height="16" viewBox="0 0 16 16" fill="none" xmlns="http://www.w3.org/2000/svg">
<g id="&#237;&#129;&#180;&#235;&#161;&#156;&#235;&#178;&#132;" clip-path="url(#clip0_3143_46083)">
<path id="Union" fill-rule="evenodd" clip-rule="evenodd" d="M2.49984 0.666504H6.1665V1.27767H6.77762V1.88867H7.38873V2.49978H6.1665V2.49984H9.83317V1.88878H9.83306V2.49978H8.61084V1.88867H9.22217V1.27767H9.83317V0.666504H13.4998L13.4998 1.27767H14.1109V1.88867H14.7221V2.49978H13.4998L13.4998 2.49984H15.3332V6.1665H14.7221V7.69428H13.8053V8.30534H14.7221V9.83312H13.8053V9.83317H15.3332V13.4998L14.7221 13.4998V14.1109H13.4998V14.111H14.1109V14.7221H13.4998L13.4998 15.3332H9.83317V14.7221H9.22217V14.111H9.83317V13.4998L9.83306 13.4998V14.1109H8.61084V13.4998H7.38873V14.1109H6.1665V14.111H6.77762V14.7221H6.1665V15.3332H2.49984V14.7221H1.88883V14.111H2.49984V13.4998L2.49973 13.4998V14.1109H1.27751V13.4998L0.666504 13.4998V9.83317H2.19417V9.83312H1.27751V8.30534H2.19417V7.69428H1.27751V6.1665H0.666504V2.49984H2.49984V1.88878H2.49973V2.49978H1.27751V1.88867H1.88883V1.27767H2.49984V0.666504Z" fill="#31353D"/>
<g id="Group 8">
<path id="Vector" d="M15.9999 2.28467H15.2349V6.09467H15.9999V2.28467Z" fill="#31353D"/>
<path id="Vector_2" d="M15.2346 6.09497H14.4746V7.61997H15.2346V6.09497Z" fill="#31353D"/>
<path id="Vector_3" d="M15.2346 1.52466H14.4746V2.28466H15.2346V1.52466Z" fill="#31353D"/>
<path id="Vector_4" d="M14.4748 7.61987H13.7148V8.37987H14.4748V7.61987Z" fill="#31353D"/>
<path id="Vector_5" d="M14.4748 3.04468H13.7148V4.56968H14.4748V3.04468Z" fill="#31353D"/>
<path id="Vector_6" d="M14.4748 0.76001H13.7148V1.52501H14.4748V0.76001Z" fill="#31353D"/>
<path id="Vector_7" d="M13.7147 2.28467H12.9497V3.04467H13.7147V2.28467Z" fill="#31353D"/>
<path id="Vector_8" d="M12.9498 1.52466H11.4248V2.28466H12.9498V1.52466Z" fill="#31353D"/>
<path id="Vector_9" d="M13.7148 -0.000244141H9.90479V0.759756H13.7148V-0.000244141Z" fill="#31353D"/>
<path id="Vector_10" d="M9.90465 0.76001H9.13965V1.52501H9.90465V0.76001Z" fill="#31353D"/>
<path id="Vector_11" d="M9.13988 1.52466H8.37988V2.28466H9.13988V1.52466Z" fill="#31353D"/>
<path id="Vector_12" d="M8.38012 2.28467H7.62012V3.04467H8.38012V2.28467Z" fill="#31353D"/>
<path id="Vector_13" d="M7.61949 1.52466H6.85449V2.28466H7.61949V1.52466Z" fill="#31353D"/>
<path id="Vector_14" d="M6.85473 0.76001H6.09473V1.52501H6.85473V0.76001Z" fill="#31353D"/>
<path id="Vector_15" d="M6.09467 -0.000244141H2.28467V0.759756H6.09467V-0.000244141Z" fill="#31353D"/>
<path id="Vector_16" d="M2.2849 7.61987H1.5249V8.37987H2.2849V7.61987Z" fill="#31353D"/>
<path id="Vector_17" d="M2.2849 0.76001H1.5249V1.52501H2.2849V0.76001Z" fill="#31353D"/>
<path id="Vector_18" d="M1.52477 6.09497H0.759766V7.61997H1.52477V6.09497Z" fill="#31353D"/>
<path id="Vector_19" d="M1.52477 1.52466H0.759766V2.28466H1.52477V1.52466Z" fill="#31353D"/>
<path id="Vector_20" d="M0.76 2.28467H0V6.09467H0.76V2.28467Z" fill="#31353D"/>
<path id="Vector_21" d="M-0.000351906 13.6899L0.764648 13.6899L0.764649 9.87994L-0.000351573 9.87994L-0.000351906 13.6899Z" fill="#31353D"/>
<path id="Vector_22" d="M0.764903 9.88013L1.5249 9.88013L1.5249 8.35513L0.764903 8.35513L0.764903 9.88013Z" fill="#31353D"/>
<path id="Vector_23" d="M0.764903 14.45L1.5249 14.45L1.5249 13.69L0.764903 13.69L0.764903 14.45Z" fill="#31353D"/>
<path id="Vector_24" d="M1.52516 8.35474L2.28516 8.35474L2.28516 7.59474L1.52516 7.59474L1.52516 8.35474Z" fill="#31353D"/>
<path id="Vector_25" d="M1.52516 12.9302L2.28516 12.9302L2.28516 11.4052L1.52516 11.4052L1.52516 12.9302Z" fill="#31353D"/>
<path id="Vector_26" d="M1.52467 15.2151L2.28467 15.2151L2.28467 14.4501L1.52467 14.4501L1.52467 15.2151Z" fill="#31353D"/>
<path id="Vector_27" d="M2.2848 13.6899L3.0498 13.6899L3.0498 12.9299L2.2848 12.9299L2.2848 13.6899Z" fill="#31353D"/>
<path id="Vector_28" d="M3.04971 14.45L4.57471 14.45L4.57471 13.69L3.04971 13.69L3.04971 14.45Z" fill="#31353D"/>
<path id="Vector_29" d="M2.28473 15.9751L6.09473 15.9751L6.09473 15.2151L2.28473 15.2151L2.28473 15.9751Z" fill="#31353D"/>
<path id="Vector_30" d="M6.09486 15.2151L6.85986 15.2151L6.85986 14.4501L6.09486 14.4501L6.09486 15.2151Z" fill="#31353D"/>
<path id="Vector_31" d="M6.86012 14.45L7.62012 14.45L7.62012 13.69L6.86012 13.69L6.86012 14.45Z" fill="#31353D"/>
<path id="Vector_32" d="M7.61988 13.6899L8.37988 13.6899L8.37988 12.9299L7.61988 12.9299L7.61988 13.6899Z" fill="#31353D"/>
<path id="Vector_33" d="M8.38002 14.45L9.14502 14.45L9.14502 13.69L8.38002 13.69L8.38002 14.45Z" fill="#31353D"/>
<path id="Vector_34" d="M9.14478 15.2151L9.90479 15.2151L9.90479 14.4501L9.14478 14.4501L9.14478 15.2151Z" fill="#31353D"/>
<path id="Vector_35" d="M9.90484 15.9751L13.7148 15.9751L13.7148 15.2151L9.90484 15.2151L9.90484 15.9751Z" fill="#31353D"/>
<path id="Vector_36" d="M13.7146 8.35474L14.4746 8.35474L14.4746 7.59474L13.7146 7.59474L13.7146 8.35474Z" fill="#31353D"/>
<path id="Vector_37" d="M13.7146 15.2151L14.4746 15.2151L14.4746 14.4501L13.7146 14.4501L13.7146 15.2151Z" fill="#31353D"/>
<path id="Vector_38" d="M14.4747 9.88013L15.2397 9.88013L15.2397 8.35513L14.4747 8.35513L14.4747 9.88013Z" fill="#31353D"/>
<path id="Vector_39" d="M14.4747 14.45L15.2397 14.45L15.2397 13.69L14.4747 13.69L14.4747 14.45Z" fill="#31353D"/>
<path id="Vector_40" d="M15.24 13.6899L16 13.6899L16 9.87994L15.24 9.87994L15.24 13.6899Z" fill="#31353D"/>
</g>
<g id="Group 10">
<path id="Vector_41" d="M10.333 7.33325H9.33301V8.33325H10.333V7.33325Z" fill="#31353D"/>
<path id="Vector_42" d="M9.33301 5.33325H8.33301V6.33325H9.33301V5.33325Z" fill="#31353D"/>
<path id="Vector_43" d="M9.33301 8.33325H6.33301V9.33325H9.33301V8.33325Z" fill="#31353D"/>
<path id="Vector_44" d="M7.33301 5.33325H6.33301V6.33325H7.33301V5.33325Z" fill="#31353D"/>
<path id="Vector_45" d="M6.33301 7.33325H5.33301V8.33325H6.33301V7.33325Z" fill="#31353D"/>
</g>
</g>
<defs>
<clipPath id="clip0_3143_46083">
<rect width="16" height="16" fill="white"/>
</clipPath>
</defs>
</svg>
