<svg width="52" height="63" viewBox="0 0 52 63" fill="none" xmlns="http://www.w3.org/2000/svg">
<g clip-path="url(#clip0_4703_83711)">
<path d="M4.59351 10.3169V8.82739H3.06234V10.3169H4.59351Z" fill="#FF4800"/>
<path d="M4.59351 11.8064V10.3169H3.06234V11.8064H4.59351Z" fill="#FF4800"/>
<path d="M6.12463 10.3169V8.82739H4.59346V10.3169H6.12463Z" fill="#FF4800"/>
<path d="M3.06238 8.82743V7.33789H1.53121V8.82743H3.06238Z" fill="#FF4800"/>
<path d="M3.06238 10.3169V8.82739H1.53121V10.3169H3.06238Z" fill="#FF4800"/>
<path d="M3.06238 11.8064V10.3169H1.53121V11.8064H3.06238Z" fill="#FF4800"/>
<path d="M3.06238 13.2959V11.8064H1.53121V13.2959H3.06238Z" fill="#FF4800"/>
<path d="M15.3083 11.8064V10.3169H13.7772V11.8064H15.3083Z" fill="#FF4800"/>
<path d="M15.3083 13.2959V11.8064H13.7772V13.2959H15.3083Z" fill="#FF4800"/>
<path d="M1.53113 13.2959V11.8064H-4.24385e-05V13.2959H1.53113Z" fill="#FF4800"/>
<path d="M1.53113 14.7854V13.2959H-4.11272e-05V14.7854H1.53113Z" fill="#FF4800"/>
<path d="M1.53113 16.2749V14.7854H-4.24385e-05V16.2749H1.53113Z" fill="#FF4800"/>
<path d="M1.53113 17.7647V16.2751H-4.24385e-05V17.7647H1.53113Z" fill="#FF4800"/>
<path d="M3.06238 19.2542V17.7646H1.53121V19.2542H3.06238Z" fill="#FF4800"/>
<path d="M15.3083 19.251V17.7615H13.7772V19.251H15.3083Z" fill="#FF4800"/>
<path d="M16.8396 17.7647V16.2751H15.3084V17.7647H16.8396Z" fill="#FF4800"/>
<path d="M16.8396 16.2749V14.7854H15.3084V16.2749H16.8396Z" fill="#FF4800"/>
<path d="M16.8396 14.7854V13.2959H15.3084V14.7854H16.8396Z" fill="#FF4800"/>
<path d="M4.59351 20.7437V19.2542H3.06234V20.7437H4.59351Z" fill="#FF4800"/>
<path d="M6.12134 20.7437V19.2542H4.59017V20.7437H6.12134Z" fill="#FFB763"/>
<path d="M7.65259 20.7437V19.2542H6.12142V20.7437H7.65259Z" fill="#FAF05D"/>
<path d="M9.18372 20.7437V19.2542H7.65255V20.7437H9.18372Z" fill="#FAF05D"/>
<path d="M10.7148 20.7437V19.2542H9.18367V20.7437H10.7148Z" fill="#FAF05D"/>
<path d="M7.65259 19.2542V17.7646H6.12142V19.2542H7.65259Z" fill="#FAF05D"/>
<path d="M7.65588 17.7647V16.2751H6.12471V17.7647H7.65588Z" fill="#FAF05D"/>
<path d="M9.18372 17.7647V16.2751H7.65255V17.7647H9.18372Z" fill="#FAF05D"/>
<path d="M9.18372 19.2542V17.7646H7.65255V19.2542H9.18372Z" fill="#FAF05D"/>
<path d="M10.7148 19.2542V17.7646H9.18367V19.2542H10.7148Z" fill="#FAF05D"/>
<path d="M12.2461 19.251V17.7615H10.7149V19.251H12.2461Z" fill="#FAF05D"/>
<path d="M10.7148 17.7647V16.2751H9.18367V17.7647H10.7148Z" fill="#FAF05D"/>
<path d="M12.2461 17.7613V16.2717H10.7149V17.7613H12.2461Z" fill="#FAF05D"/>
<path d="M12.2461 20.7405V19.251H10.7149V20.7405H12.2461Z" fill="#FFB763"/>
<path d="M13.7772 19.251V17.7615H12.2461V19.251H13.7772Z" fill="#FFB763"/>
<path d="M15.3083 17.7647V16.2751H13.7772V17.7647H15.3083Z" fill="#FF4800"/>
<path d="M15.3083 16.2749V14.7854H13.7772V16.2749H15.3083Z" fill="#FF4800"/>
<path d="M15.3083 14.7854V13.2959H13.7772V14.7854H15.3083Z" fill="#FF4800"/>
<path d="M13.7772 14.7854V13.2959H12.2461V14.7854H13.7772Z" fill="#FFB763"/>
<path d="M13.7772 16.2749V14.7854H12.2461V16.2749H13.7772Z" fill="#FFB763"/>
<path d="M13.7772 17.7613V16.2717H12.2461V17.7613H13.7772Z" fill="#FFB763"/>
<path d="M4.59351 19.2542V17.7646H3.06234V19.2542H4.59351Z" fill="#FFB763"/>
<path d="M3.06238 17.7647V16.2751H1.53121V17.7647H3.06238Z" fill="#FF4800"/>
<path d="M3.06238 16.2749V14.7854H1.53121V16.2749H3.06238Z" fill="#FF4800"/>
<path d="M4.59351 16.2749V14.7854H3.06234V16.2749H4.59351Z" fill="#FFB763"/>
<path d="M4.59351 17.7647V16.2751H3.06234V17.7647H4.59351Z" fill="#FFB763"/>
<path d="M6.12463 19.2542V17.7646H4.59346V19.2542H6.12463Z" fill="#FFB763"/>
<path d="M6.12463 17.7647V16.2751H4.59346V17.7647H6.12463Z" fill="#FFB763"/>
<path d="M3.06238 14.7854V13.2959H1.53121V14.7854H3.06238Z" fill="#FF4800"/>
<path d="M4.59351 14.7854V13.2959H3.06234V14.7854H4.59351Z" fill="#FFB763"/>
<path d="M6.12463 16.2749V14.7854H4.59346V16.2749H6.12463Z" fill="#FAF05D"/>
<path d="M7.65588 16.2749V14.7854H6.12471V16.2749H7.65588Z" fill="#FAF05D"/>
<path d="M6.12463 14.7854V13.2959H4.59346V14.7854H6.12463Z" fill="#FFB763"/>
<path d="M7.65588 14.7854V13.2959H6.12471V14.7854H7.65588Z" fill="#FAF05D"/>
<path d="M9.18701 16.2749V14.7854H7.65584V16.2749H9.18701Z" fill="#FAF05D"/>
<path d="M10.7148 16.2749V14.7854H9.18367V16.2749H10.7148Z" fill="#FAF05D"/>
<path d="M9.18701 14.7854V13.2959H7.65584V14.7854H9.18701Z" fill="#FAF05D"/>
<path d="M10.7181 14.7854V13.2959H9.18697V14.7854H10.7181Z" fill="#FFB763"/>
<path d="M12.2461 16.2749V14.7854H10.7149V16.2749H12.2461Z" fill="#FFB763"/>
<path d="M12.2461 14.7854V13.2959H10.7149V14.7854H12.2461Z" fill="#FFB763"/>
<path d="M4.59351 13.2959V11.8064H3.06234V13.2959H4.59351Z" fill="#FF4800"/>
<path d="M6.12463 13.2959V11.8064H4.59346V13.2959H6.12463Z" fill="#FFB763"/>
<path d="M6.12463 11.8064V10.3169H4.59346V11.8064H6.12463Z" fill="#FF4800"/>
<path d="M7.65588 10.3169V8.82739H6.12471V10.3169H7.65588Z" fill="#FFB763"/>
<path d="M7.65588 11.8064V10.3169H6.12471V11.8064H7.65588Z" fill="#FFB763"/>
<path d="M12.2494 5.8516V4.36206H10.7182V5.8516H12.2494Z" fill="#FF4800"/>
<path d="M10.7148 7.35404V5.8645H9.18367V7.35404H10.7148Z" fill="#FF4800"/>
<path d="M9.18701 8.8306V7.34106H7.65584V8.8306H9.18701Z" fill="#FFB763"/>
<path d="M12.2494 8.82743V7.33789H10.7182V8.82743H12.2494Z" fill="#FF4800"/>
<path d="M10.7181 8.8306V7.34106H9.18697V8.8306H10.7181Z" fill="#FFB763"/>
<path d="M9.18701 10.3201V8.83057H7.65584V10.3201H9.18701Z" fill="#FFB763"/>
<path d="M10.7181 10.3201V8.83057H9.18697V10.3201H10.7181Z" fill="#FFB763"/>
<path d="M9.18701 11.8096V10.3201H7.65584V11.8096H9.18701Z" fill="#FFB763"/>
<path d="M10.7181 11.8096V10.3201H9.18697V11.8096H10.7181Z" fill="#FFB763"/>
<path d="M7.65588 13.2959V11.8064H6.12471V13.2959H7.65588Z" fill="#FFB763"/>
<path d="M9.18701 13.2959V11.8064H7.65584V13.2959H9.18701Z" fill="#FAF05D"/>
<path d="M10.7181 13.2959V11.8064H9.18697V13.2959H10.7181Z" fill="#FFB763"/>
<path d="M12.2494 11.8096V10.3201H10.7182V11.8096H12.2494Z" fill="#FFB763"/>
<path d="M12.2494 13.2991V11.8096H10.7182V13.2991H12.2494Z" fill="#FFB763"/>
<path d="M12.2494 10.3169V8.82739H10.7182V10.3169H12.2494Z" fill="#FF4800"/>
<path d="M13.7772 11.8064V10.3169H12.2461V11.8064H13.7772Z" fill="#FF4800"/>
<path d="M13.7772 13.3025V11.813H12.2461V13.3025H13.7772Z" fill="#FF4800"/>
<path d="M12.2461 7.35087V5.86133H10.7149V7.35087H12.2461Z" fill="#FF4800"/>
<path d="M13.7772 20.7405V19.251H12.2461V20.7405H13.7772Z" fill="#FF4800"/>
<path d="M6.12134 22.2332V20.7437H4.59017V22.2332H6.12134Z" fill="#FF4800"/>
<path d="M7.65259 22.2332V20.7437H6.12142V22.2332H7.65259Z" fill="#FF4800"/>
<path d="M9.18372 22.2332V20.7437H7.65255V22.2332H9.18372Z" fill="#FF4800"/>
<path d="M10.7148 22.2332V20.7437H9.18367V22.2332H10.7148Z" fill="#FF4800"/>
<path d="M12.2461 22.2332V20.7437H10.7149V22.2332H12.2461Z" fill="#FF4800"/>
<path d="M6.12463 8.8306V7.34106H4.59346V8.8306H6.12463Z" fill="#FF4800"/>
<path d="M7.65588 7.3411V5.85156H6.12471V7.3411H7.65588Z" fill="#FF4800"/>
<path d="M7.65588 8.8306V7.34106H6.12471V8.8306H7.65588Z" fill="#FF4800"/>
<path d="M9.18701 5.8516V4.36206H7.65584V5.8516H9.18701Z" fill="#FF4800"/>
<path d="M9.18701 7.3411V5.85156H7.65584V7.3411H9.18701Z" fill="#FF4800"/>
<path d="M10.7181 5.8516V4.36206H9.18697V5.8516H10.7181Z" fill="#FF4800"/>
<path d="M10.7181 4.41703V2.92749H9.18697V4.41703H10.7181Z" fill="#FF4800"/>
<path d="M12.2494 4.41361V2.92407H10.7182V4.41361H12.2494Z" fill="#FF4800"/>
<path d="M13.7772 10.2879V8.79834H12.2461V10.2879H13.7772Z" fill="#FF4800"/>
<path d="M15.3116 8.84037V7.35083H13.7805V8.84037H15.3116Z" fill="#FF4800"/>
<path d="M13.7805 8.84037V7.35083H12.2493V8.84037H13.7805Z" fill="#FF4800"/>
<path d="M13.7805 4.41361V2.92407H12.2493V4.41361H13.7805Z" fill="#FF4800"/>
<path d="M15.3083 5.87406V4.38452H13.7772V5.87406H15.3083Z" fill="#FF4800"/>
<path d="M13.7772 5.87406V4.38452H12.2461V5.87406H13.7772Z" fill="#FF4800"/>
<path d="M13.7772 7.35087V5.86133H12.2461V7.35087H13.7772Z" fill="#FF4800"/>
<path d="M12.2461 2.97587V1.48633H10.7149V2.97587H12.2461Z" fill="#FF4800"/>
<path d="M10.7181 1.48954V0L9.18697 0V1.48954H10.7181Z" fill="#FF4800"/>
<path d="M45.7259 35.6747V33.7877H47.2571V32.2982H48.7882V29.3223H50.3194V17.8002H48.7882V14.8212H47.2571V13.3316H45.7259V11.8421H42.6635V10.3525H30.8194V11.8421H27.7604V13.3316H26.2292V14.8212H24.2928V13.3316H22.7617V11.8421H19.6993V10.3525H7.85849V11.8421H4.79615V13.3316H3.26498V14.8212H1.73381V17.8002H0.202637V29.3223H1.73381V32.2982H3.26498V33.7877H4.79615V35.6747H3.26498V37.1642H1.73381V40.1433H0.202637V51.6622H1.73381V54.6412H3.26498V56.1308H4.79615V57.6203H7.85849V59.1098H15.511H19.6993V57.6203H22.7617V56.1308H24.2928V54.6412H26.2292V56.1308H27.7604V57.6203H30.8194V59.1098H31.5866H35.7749H42.6635V57.6203H45.7259V56.1308H47.2571V54.6412H48.7882V51.6622H50.3194V40.1433H48.7882V37.1642H47.2571V35.6747H45.7292H45.7259Z" fill="#184742"/>
<path d="M9.18705 53.5105H7.65588V55H9.18705V53.5105Z" fill="#0DAE89"/>
<path d="M7.6558 53.5105H6.12463V55H7.6558V53.5105Z" fill="#0DAE89"/>
<path d="M6.12463 53.5105V52.021H4.59346V53.5105H6.12463Z" fill="#00AC75"/>
<path d="M6.12463 52.021V50.5315H4.59346V52.021H6.12463Z" fill="#00AC75"/>
<path d="M4.59351 44.5733V43.0837H3.06234V44.5733H4.59351Z" fill="#00AC75"/>
<path d="M4.59351 46.0628V44.5732H3.06234V46.0628H4.59351Z" fill="#00AC75"/>
<path d="M4.59351 47.5523V46.0627H3.06234V47.5523H4.59351Z" fill="#00AC75"/>
<path d="M4.59351 49.0418V47.5522H3.06234V49.0418H4.59351Z" fill="#00AC75"/>
<path d="M4.59351 50.5313V49.0417H3.06234V50.5313H4.59351Z" fill="#00AC75"/>
<path d="M4.59351 43.0838V41.5942H3.06234V43.0838H4.59351Z" fill="#00AC75"/>
<path d="M4.59351 22.2334V20.7439H3.06234V22.2334H4.59351Z" fill="#00AC75"/>
<path d="M4.59351 23.7229V22.2334H3.06234V23.7229H4.59351Z" fill="#00AC75"/>
<path d="M4.59351 25.2124V23.7229H3.06234V25.2124H4.59351Z" fill="#00AC75"/>
<path d="M4.59351 26.7019V25.2124H3.06234V26.7019H4.59351Z" fill="#00AC75"/>
<path d="M4.59351 28.1914V26.7019H3.06234V28.1914H4.59351Z" fill="#00AC75"/>
<path d="M4.59351 20.7471V19.2576H3.06234V20.7471H4.59351Z" fill="#00AC75"/>
<path d="M6.12463 22.2366V20.7471H4.59346V22.2366H6.12463Z" fill="#00AC75"/>
<path d="M6.12463 23.7229V22.2334H4.59346V23.7229H6.12463Z" fill="#00AC75"/>
<path d="M6.12463 25.2124V23.7229H4.59346V25.2124H6.12463Z" fill="#00AC75"/>
<path d="M6.12463 26.7019V25.2124H4.59346V26.7019H6.12463Z" fill="#00AC75"/>
<path d="M6.12463 28.1914V26.7019H4.59346V28.1914H6.12463Z" fill="#00AC75"/>
<path d="M6.12463 29.6778V28.1882H4.59346V29.6778H6.12463Z" fill="#00AC75"/>
<path d="M6.12463 31.1675V29.678H4.59346V31.1675H6.12463Z" fill="#00AC75"/>
<path d="M6.12463 20.7471V19.2576H4.59346V20.7471H6.12463Z" fill="#00AC75"/>
<path d="M6.12463 19.2544V17.7649H4.59346V19.2544H6.12463Z" fill="#00AC75"/>
<path d="M6.12463 17.7615V16.272H4.59346V17.7615H6.12463Z" fill="#00AC75"/>
<path d="M7.65247 16.2786V14.7891H6.1213V16.2786H7.65247Z" fill="#00AC75"/>
<path d="M9.18372 16.2786V14.7891H7.65255V16.2786H9.18372Z" fill="#00AC75"/>
<path d="M7.65588 22.2366V20.7471H6.12471V22.2366H7.65588Z" fill="#00AC75"/>
<path d="M7.65588 23.7261V22.2366H6.12471V23.7261H7.65588Z" fill="#00AC75"/>
<path d="M7.65588 25.2124V23.7229H6.12471V25.2124H7.65588Z" fill="#00AC75"/>
<path d="M7.65588 26.7019V25.2124H6.12471V26.7019H7.65588Z" fill="#00AC75"/>
<path d="M7.65588 28.1914V26.7019H6.12471V28.1914H7.65588Z" fill="#00AC75"/>
<path d="M7.65588 20.7471V19.2576H6.12471V20.7471H7.65588Z" fill="#00AC75"/>
<path d="M9.18701 22.2366V20.7471H7.65584V22.2366H9.18701Z" fill="#32B686"/>
<path d="M9.18701 23.7261V22.2366H7.65584V23.7261H9.18701Z" fill="#32B686"/>
<path d="M9.18701 25.2156V23.7261H7.65584V25.2156H9.18701Z" fill="#32B686"/>
<path d="M9.18701 26.7019V25.2124H7.65584V26.7019H9.18701Z" fill="#32B686"/>
<path d="M9.18701 28.1914V26.7019H7.65584V28.1914H9.18701Z" fill="#32B686"/>
<path d="M9.18701 20.7471V19.2576H7.65584V20.7471H9.18701Z" fill="#32B686"/>
<path d="M10.7181 22.2366V20.7471H9.18697V22.2366H10.7181Z" fill="#32B686"/>
<path d="M10.7181 23.7261V22.2366H9.18697V23.7261H10.7181Z" fill="#86CBA8"/>
<path d="M10.7181 25.2156V23.7261H9.18697V25.2156H10.7181Z" fill="#86CBA8"/>
<path d="M10.7181 26.7054V25.2158H9.18697V26.7054H10.7181Z" fill="#59BE92"/>
<path d="M10.7181 28.1914V26.7019H9.18697V28.1914H10.7181Z" fill="#86CBA8"/>
<path d="M10.7181 20.7471V19.2576H9.18697V20.7471H10.7181Z" fill="#32B686"/>
<path d="M12.2494 22.2366V20.7471H10.7182V22.2366H12.2494Z" fill="#59BE92"/>
<path d="M12.2494 23.7261V22.2366H10.7182V23.7261H12.2494Z" fill="#59BE92"/>
<path d="M12.2494 25.2156V23.7261H10.7182V25.2156H12.2494Z" fill="#59BE92"/>
<path d="M12.2494 26.7054V25.2158H10.7182V26.7054H12.2494Z" fill="#59BE92"/>
<path d="M12.2494 28.1949V26.7053H10.7182V28.1949H12.2494Z" fill="#59BE92"/>
<path d="M12.2494 20.7471V19.2576H10.7182V20.7471H12.2494Z" fill="#86CBA8"/>
<path d="M13.7805 22.2334V20.7439H12.2493V22.2334H13.7805Z" fill="#59BE92"/>
<path d="M13.7805 23.7229V22.2334H12.2493V23.7229H13.7805Z" fill="#59BE92"/>
<path d="M13.7805 25.2124V23.7229H12.2493V25.2124H13.7805Z" fill="#59BE92"/>
<path d="M13.7805 26.7019V25.2124H12.2493V26.7019H13.7805Z" fill="#59BE92"/>
<path d="M13.7772 28.1914V26.7019H12.2461V28.1914H13.7772Z" fill="#59BE92"/>
<path d="M13.7805 20.7439V19.2544H12.2493V20.7439H13.7805Z" fill="#59BE92"/>
<path d="M15.3116 22.2334V20.7439H13.7805V22.2334H15.3116Z" fill="#59BE92"/>
<path d="M15.3116 23.7229V22.2334H13.7805V23.7229H15.3116Z" fill="#59BE92"/>
<path d="M15.3116 25.2124V23.7229H13.7805V25.2124H15.3116Z" fill="#59BE92"/>
<path d="M15.3083 26.7019V25.2124H13.7772V26.7019H15.3083Z" fill="#59BE92"/>
<path d="M15.3083 28.1914V26.7019H13.7772V28.1914H15.3083Z" fill="#59BE92"/>
<path d="M15.3116 20.7439V19.2544H13.7805V20.7439H15.3116Z" fill="#59BE92"/>
<path d="M16.8429 22.2334V20.7439H15.3117V22.2334H16.8429Z" fill="#59BE92"/>
<path d="M16.8429 23.7229V22.2334H15.3117V23.7229H16.8429Z" fill="#59BE92"/>
<path d="M16.8395 25.2124V23.7229H15.3083V25.2124H16.8395Z" fill="#59BE92"/>
<path d="M16.8395 26.7019V25.2124H15.3083V26.7019H16.8395Z" fill="#59BE92"/>
<path d="M16.8395 28.1914V26.7019H15.3083V28.1914H16.8395Z" fill="#59BE92"/>
<path d="M16.8429 20.7439V19.2544H15.3117V20.7439H16.8429Z" fill="#59BE92"/>
<path d="M18.374 22.2334V20.7439H16.8429V22.2334H18.374Z" fill="#59BE92"/>
<path d="M18.3707 23.7229V22.2334H16.8396V23.7229H18.3707Z" fill="#59BE92"/>
<path d="M18.3707 25.2124V23.7229H16.8396V25.2124H18.3707Z" fill="#59BE92"/>
<path d="M18.3707 26.7019V25.2124H16.8396V26.7019H18.3707Z" fill="#59BE92"/>
<path d="M18.374 20.7439V19.2544H16.8429V20.7439H18.374Z" fill="#59BE92"/>
<path d="M19.9019 22.2334V20.7439H18.3707V22.2334H19.9019Z" fill="#59BE92"/>
<path d="M19.9019 23.7229V22.2334H18.3707V23.7229H19.9019Z" fill="#59BE92"/>
<path d="M19.9019 25.2124V23.7229H18.3707V25.2124H19.9019Z" fill="#59BE92"/>
<path d="M19.9052 20.7439V19.2544H18.374V20.7439H19.9052Z" fill="#59BE92"/>
<path d="M21.4331 22.2334V20.7439H19.9019V22.2334H21.4331Z" fill="#59BE92"/>
<path d="M21.433 23.7229V22.2334H19.9018V23.7229H21.433Z" fill="#59BE92"/>
<path d="M21.433 25.2124V23.7229H19.9018V25.2124H21.433Z" fill="#59BE92"/>
<path d="M21.433 20.7439V19.2544H19.9018V20.7439H21.433Z" fill="#59BE92"/>
<path d="M22.9642 22.2334V20.7439H21.4331V22.2334H22.9642Z" fill="#59BE92"/>
<path d="M22.9642 23.7229V22.2334H21.4331V23.7229H22.9642Z" fill="#59BE92"/>
<path d="M22.9642 25.2124V23.7229H21.4331V25.2124H22.9642Z" fill="#59BE92"/>
<path d="M22.9642 20.7439V19.2544H21.4331V20.7439H22.9642Z" fill="#59BE92"/>
<path d="M7.65247 19.2544V17.7649H6.1213V19.2544H7.65247Z" fill="#00AC75"/>
<path d="M9.18372 19.2544V17.7649H7.65255V19.2544H9.18372Z" fill="#32B686"/>
<path d="M10.7148 19.2544V17.7649H9.18367V19.2544H10.7148Z" fill="#32B686"/>
<path d="M12.246 19.2544V17.7649H10.7148V19.2544H12.246Z" fill="#32B686"/>
<path d="M13.7772 19.251V17.7615H12.2461V19.251H13.7772Z" fill="#86CBA8"/>
<path d="M15.3083 19.251V17.7615H13.7772V19.251H15.3083Z" fill="#86CBA8"/>
<path d="M16.8395 19.251V17.7615H15.3083V19.251H16.8395Z" fill="#86CBA8"/>
<path d="M18.3707 19.2544V17.7649H16.8396V19.2544H18.3707Z" fill="#86CBA8"/>
<path d="M19.9019 19.2544V17.7649H18.3707V19.2544H19.9019Z" fill="#59BE92"/>
<path d="M21.433 19.2544V17.7649H19.9018V19.2544H21.433Z" fill="#86CBA8"/>
<path d="M22.9642 19.2544V17.7649H21.4331V19.2544H22.9642Z" fill="#59BE92"/>
<path d="M7.65588 17.7615V16.272H6.12471V17.7615H7.65588Z" fill="#00AC75"/>
<path d="M9.18701 17.7615V16.272H7.65584V17.7615H9.18701Z" fill="#00AC75"/>
<path d="M10.7181 17.7615V16.272H9.18697V17.7615H10.7181Z" fill="#32B686"/>
<path d="M12.2494 17.7647V16.2751H10.7182V17.7647H12.2494Z" fill="#32B686"/>
<path d="M13.7772 17.7615V16.272H12.2461V17.7615H13.7772Z" fill="#32B686"/>
<path d="M15.3083 17.7615V16.272H13.7772V17.7615H15.3083Z" fill="#32B686"/>
<path d="M16.8395 17.7615V16.272H15.3083V17.7615H16.8395Z" fill="#32B686"/>
<path d="M18.3707 17.7615V16.272H16.8396V17.7615H18.3707Z" fill="#32B686"/>
<path d="M19.9019 17.7615V16.272H18.3707V17.7615H19.9019Z" fill="#32B686"/>
<path d="M21.433 17.7615V16.272H19.9018V17.7615H21.433Z" fill="#32B686"/>
<path d="M10.7148 16.2786V14.7891H9.18367V16.2786H10.7148Z" fill="#00AC75"/>
<path d="M12.246 16.2786V14.7891H10.7148V16.2786H12.246Z" fill="#00AC75"/>
<path d="M13.7772 16.2752V14.7856H12.2461V16.2752H13.7772Z" fill="#00AC75"/>
<path d="M15.3083 16.2752V14.7856H13.7772V16.2752H15.3083Z" fill="#00AC75"/>
<path d="M16.8395 16.2752V14.7856H15.3083V16.2752H16.8395Z" fill="#00AC75"/>
<path d="M18.3707 16.2752V14.7856H16.8396V16.2752H18.3707Z" fill="#00AC75"/>
<path d="M10.7181 14.7857V13.2961H9.18697V14.7857H10.7181Z" fill="#00AC75"/>
<path d="M12.246 14.7857V13.2961H10.7148V14.7857H12.246Z" fill="#00AC75"/>
<path d="M13.7772 14.7857V13.2961H12.2461V14.7857H13.7772Z" fill="#00AC75"/>
<path d="M15.3083 14.7857V13.2961H13.7772V14.7857H15.3083Z" fill="#00AC75"/>
<path d="M16.8395 14.7857V13.2961H15.3083V14.7857H16.8395Z" fill="#00AC75"/>
<path d="M18.3707 14.7857V13.2961H16.8396V14.7857H18.3707Z" fill="#00AC75"/>
<path d="M19.9019 16.2752V14.7856H18.3707V16.2752H19.9019Z" fill="#00AC75"/>
<path d="M21.433 16.2786V14.7891H19.9018V16.2786H21.433Z" fill="#00AC75"/>
<path d="M22.9642 17.7615V16.272H21.4331V17.7615H22.9642Z" fill="#59BE92"/>
<path d="M24.4954 22.2334V20.7439H22.9642V22.2334H24.4954Z" fill="#59BE92"/>
<path d="M24.4954 23.7229V22.2334H22.9642V23.7229H24.4954Z" fill="#59BE92"/>
<path d="M24.4954 25.2124V23.7229H22.9642V25.2124H24.4954Z" fill="#59BE92"/>
<path d="M19.9019 28.1914V26.7019H18.3707V28.1914H19.9019Z" fill="#59BE92"/>
<path d="M18.3707 28.1914V26.7019H16.8396V28.1914H18.3707Z" fill="#59BE92"/>
<path d="M19.9019 26.7019V25.2124H18.3707V26.7019H19.9019Z" fill="#59BE92"/>
<path d="M21.433 26.7019V25.2124H19.9018V26.7019H21.433Z" fill="#59BE92"/>
<path d="M21.433 28.1914V26.7019H19.9018V28.1914H21.433Z" fill="#59BE92"/>
<path d="M22.9642 26.7019V25.2124H21.4331V26.7019H22.9642Z" fill="#59BE92"/>
<path d="M24.4954 26.7019V25.2124H22.9642V26.7019H24.4954Z" fill="#59BE92"/>
<path d="M26.0266 25.2124V23.7229H24.4954V25.2124H26.0266Z" fill="#59BE92"/>
<path d="M27.5577 25.2124V23.7229H26.0266V25.2124H27.5577Z" fill="#59BE92"/>
<path d="M26.0266 26.7019V25.2124H24.4954V26.7019H26.0266Z" fill="#59BE92"/>
<path d="M27.5577 26.7019V25.2124H26.0266V26.7019H27.5577Z" fill="#59BE92"/>
<path d="M24.4954 28.1883V26.6987H22.9642V28.1883H24.4954Z" fill="#59BE92"/>
<path d="M24.4954 29.6812V28.1917H22.9642V29.6812H24.4954Z" fill="#59BE92"/>
<path d="M24.4954 31.1707V29.6812H22.9642V31.1707H24.4954Z" fill="#59BE92"/>
<path d="M24.4954 32.657V31.1675H22.9642V32.657H24.4954Z" fill="#59BE92"/>
<path d="M26.0266 28.1883V26.6987H24.4954V28.1883H26.0266Z" fill="#59BE92"/>
<path d="M29.0889 25.2124V23.7229H27.5577V25.2124H29.0889Z" fill="#59BE92"/>
<path d="M29.0889 26.7019V25.2124H27.5577V26.7019H29.0889Z" fill="#59BE92"/>
<path d="M30.6201 26.7054V25.2158H29.0889V26.7054H30.6201Z" fill="#59BE92"/>
<path d="M7.65588 29.6812V28.1917H6.12471V29.6812H7.65588Z" fill="#00AC75"/>
<path d="M7.65588 31.1707V29.6812H6.12471V31.1707H7.65588Z" fill="#59BE92"/>
<path d="M9.18701 29.6812V28.1917H7.65584V29.6812H9.18701Z" fill="#32B686"/>
<path d="M9.18701 31.1707V29.6812H7.65584V31.1707H9.18701Z" fill="#59BE92"/>
<path d="M10.7181 29.6812V28.1917H9.18697V29.6812H10.7181Z" fill="#59BE92"/>
<path d="M10.7148 31.1707V29.6812H9.18367V31.1707H10.7148Z" fill="#59BE92"/>
<path d="M12.246 29.6812V28.1917H10.7148V29.6812H12.246Z" fill="#59BE92"/>
<path d="M12.246 31.1707V29.6812H10.7148V31.1707H12.246Z" fill="#59BE92"/>
<path d="M13.7772 29.6812V28.1917H12.2461V29.6812H13.7772Z" fill="#59BE92"/>
<path d="M13.7772 31.1675V29.678H12.2461V31.1675H13.7772Z" fill="#59BE92"/>
<path d="M7.65588 32.657V31.1675H6.12471V32.657H7.65588Z" fill="#00AC75"/>
<path d="M9.18701 32.657V31.1675H7.65584V32.657H9.18701Z" fill="#59BE92"/>
<path d="M10.7181 32.657V31.1675H9.18697V32.657H10.7181Z" fill="#59BE92"/>
<path d="M12.2494 32.6602V31.1707H10.7182V32.6602H12.2494Z" fill="#59BE92"/>
<path d="M13.7772 32.657V31.1675H12.2461V32.657H13.7772Z" fill="#59BE92"/>
<path d="M10.7181 34.1465V32.657H9.18697V34.1465H10.7181Z" fill="#59BE92"/>
<path d="M12.246 34.1465V32.657H10.7148V34.1465H12.246Z" fill="#59BE92"/>
<path d="M13.7772 34.1465V32.657H12.2461V34.1465H13.7772Z" fill="#59BE92"/>
<path d="M15.3083 29.6812V28.1917H13.7772V29.6812H15.3083Z" fill="#59BE92"/>
<path d="M16.8395 31.1707V29.6812H15.3083V31.1707H16.8395Z" fill="#59BE92"/>
<path d="M18.3707 29.6812V28.1917H16.8396V29.6812H18.3707Z" fill="#59BE92"/>
<path d="M16.8395 29.6812V28.1917H15.3083V29.6812H16.8395Z" fill="#59BE92"/>
<path d="M19.9019 29.6812V28.1917H18.3707V29.6812H19.9019Z" fill="#59BE92"/>
<path d="M21.433 29.6812V28.1917H19.9018V29.6812H21.433Z" fill="#59BE92"/>
<path d="M22.9642 29.6812V28.1917H21.4331V29.6812H22.9642Z" fill="#59BE92"/>
<path d="M22.9642 28.1914V26.7019H21.4331V28.1914H22.9642Z" fill="#59BE92"/>
<path d="M18.3707 31.1707V29.6812H16.8396V31.1707H18.3707Z" fill="#59BE92"/>
<path d="M19.9019 31.1707V29.6812H18.3707V31.1707H19.9019Z" fill="#59BE92"/>
<path d="M21.433 31.1707V29.6812H19.9018V31.1707H21.433Z" fill="#59BE92"/>
<path d="M22.9642 31.1707V29.6812H21.4331V31.1707H22.9642Z" fill="#59BE92"/>
<path d="M26.0266 29.6812V28.1917H24.4954V29.6812H26.0266Z" fill="#59BE92"/>
<path d="M26.0266 31.1707V29.6812H24.4954V31.1707H26.0266Z" fill="#59BE92"/>
<path d="M27.5577 29.6812V28.1917H26.0266V29.6812H27.5577Z" fill="#59BE92"/>
<path d="M29.0889 28.1914V26.7019H27.5577V28.1914H29.0889Z" fill="#59BE92"/>
<path d="M27.5577 28.1914V26.7019H26.0266V28.1914H27.5577Z" fill="#59BE92"/>
<path d="M30.6201 28.1914V26.7019H29.0889V28.1914H30.6201Z" fill="#59BE92"/>
<path d="M29.0889 29.6812V28.1917H27.5577V29.6812H29.0889Z" fill="#59BE92"/>
<path d="M30.6201 29.6812V28.1917H29.0889V29.6812H30.6201Z" fill="#59BE92"/>
<path d="M27.5577 31.1707V29.6812H26.0266V31.1707H27.5577Z" fill="#59BE92"/>
<path d="M15.3083 34.1465V32.657H13.7772V34.1465H15.3083Z" fill="#59BE92"/>
<path d="M16.8395 32.657V31.1675H15.3083V32.657H16.8395Z" fill="#59BE92"/>
<path d="M15.3083 31.1707V29.6812H13.7772V31.1707H15.3083Z" fill="#59BE92"/>
<path d="M15.3083 32.657V31.1675H13.7772V32.657H15.3083Z" fill="#59BE92"/>
<path d="M16.8395 34.1465V32.657H15.3083V34.1465H16.8395Z" fill="#59BE92"/>
<path d="M18.3707 32.657V31.1675H16.8396V32.657H18.3707Z" fill="#59BE92"/>
<path d="M18.3707 34.1465V32.657H16.8396V34.1465H18.3707Z" fill="#59BE92"/>
<path d="M19.9019 32.657V31.1675H18.3707V32.657H19.9019Z" fill="#59BE92"/>
<path d="M19.9019 34.1465V32.657H18.3707V34.1465H19.9019Z" fill="#59BE92"/>
<path d="M19.9019 35.6392V34.1497H18.3707V35.6392H19.9019Z" fill="#59BE92"/>
<path d="M21.433 34.1465V32.657H19.9018V34.1465H21.433Z" fill="#59BE92"/>
<path d="M22.9642 32.657V31.1675H21.4331V32.657H22.9642Z" fill="#59BE92"/>
<path d="M21.433 32.657V31.1675H19.9018V32.657H21.433Z" fill="#59BE92"/>
<path d="M26.0266 32.657V31.1675H24.4954V32.657H26.0266Z" fill="#59BE92"/>
<path d="M27.5577 32.657V31.1675H26.0266V32.657H27.5577Z" fill="#59BE92"/>
<path d="M29.0889 32.657V31.1675H27.5577V32.657H29.0889Z" fill="#59BE92"/>
<path d="M24.4954 34.1465V32.657H22.9642V34.1465H24.4954Z" fill="#59BE92"/>
<path d="M22.9642 34.1465V32.657H21.4331V34.1465H22.9642Z" fill="#59BE92"/>
<path d="M26.0266 34.1465V32.657H24.4954V34.1465H26.0266Z" fill="#59BE92"/>
<path d="M30.6201 32.657V31.1675H29.0889V32.657H30.6201Z" fill="#59BE92"/>
<path d="M29.0889 34.1465V32.657H27.5577V34.1465H29.0889Z" fill="#59BE92"/>
<path d="M27.5577 34.1465V32.657H26.0266V34.1465H27.5577Z" fill="#59BE92"/>
<path d="M30.6201 34.1465V32.657H29.0889V34.1465H30.6201Z" fill="#59BE92"/>
<path d="M30.6167 35.6392V34.1497H29.0855V35.6392H30.6167Z" fill="#59BE92"/>
<path d="M32.1479 34.1465V32.657H30.6168V34.1465H32.1479Z" fill="#59BE92"/>
<path d="M33.6791 34.1465V32.657H32.1479V34.1465H33.6791Z" fill="#59BE92"/>
<path d="M29.0889 31.1707V29.6812H27.5577V31.1707H29.0889Z" fill="#59BE92"/>
<path d="M30.6167 31.1707V29.6812H29.0855V31.1707H30.6167Z" fill="#59BE92"/>
<path d="M36.7415 31.1707V29.6812H35.2103V31.1707H36.7415Z" fill="#59BE92"/>
<path d="M38.2726 31.1707V29.6812H36.7414V31.1707H38.2726Z" fill="#59BE92"/>
<path d="M39.8037 31.1707V29.6812H38.2725V31.1707H39.8037Z" fill="#59BE92"/>
<path d="M41.335 31.1707V29.6812H39.8038V31.1707H41.335Z" fill="#59BE92"/>
<path d="M41.335 32.657V31.1675H39.8038V32.657H41.335Z" fill="#59BE92"/>
<path d="M41.335 34.1465V32.657H39.8038V34.1465H41.335Z" fill="#59BE92"/>
<path d="M42.8661 31.1707V29.6812H41.3349V31.1707H42.8661Z" fill="#59BE92"/>
<path d="M35.2102 34.1465V32.657H33.679V34.1465H35.2102Z" fill="#59BE92"/>
<path d="M15.3083 35.636V34.1465H13.7772V35.636H15.3083Z" fill="#59BE92"/>
<path d="M16.8395 35.636V34.1465H15.3083V35.636H16.8395Z" fill="#59BE92"/>
<path d="M18.3707 35.636V34.1465H16.8396V35.636H18.3707Z" fill="#59BE92"/>
<path d="M21.433 35.6392V34.1497H19.9018V35.6392H21.433Z" fill="#59BE92"/>
<path d="M22.9642 35.6392V34.1497H21.4331V35.6392H22.9642Z" fill="#59BE92"/>
<path d="M24.4954 35.6392V34.1497H22.9642V35.6392H24.4954Z" fill="#59BE92"/>
<path d="M26.0232 35.6392V34.1497H24.492V35.6392H26.0232Z" fill="#59BE92"/>
<path d="M27.5544 35.6392V34.1497H26.0233V35.6392H27.5544Z" fill="#59BE92"/>
<path d="M29.0856 35.6392V34.1497H27.5544V35.6392H29.0856Z" fill="#59BE92"/>
<path d="M32.1479 35.6392V34.1497H30.6168V35.6392H32.1479Z" fill="#59BE92"/>
<path d="M33.6791 35.636V34.1465H32.1479V35.636H33.6791Z" fill="#59BE92"/>
<path d="M35.2102 35.636V34.1465H33.679V35.636H35.2102Z" fill="#59BE92"/>
<path d="M36.7415 32.657V31.1675H35.2103V32.657H36.7415Z" fill="#59BE92"/>
<path d="M38.2726 32.657V31.1675H36.7414V32.657H38.2726Z" fill="#59BE92"/>
<path d="M36.7415 34.1465V32.657H35.2103V34.1465H36.7415Z" fill="#59BE92"/>
<path d="M38.2726 34.1465V32.657H36.7414V34.1465H38.2726Z" fill="#59BE92"/>
<path d="M39.8037 32.657V31.1675H38.2725V32.657H39.8037Z" fill="#59BE92"/>
<path d="M39.8037 34.1465V32.657H38.2725V34.1465H39.8037Z" fill="#59BE92"/>
<path d="M24.4954 20.7439V19.2544H22.9642V20.7439H24.4954Z" fill="#59BE92"/>
<path d="M27.5577 22.2366V20.7471H26.0266V22.2366H27.5577Z" fill="#00AC75"/>
<path d="M27.5577 23.7261V22.2366H26.0266V23.7261H27.5577Z" fill="#00AC75"/>
<path d="M27.5577 20.7471V19.2576H26.0266V20.7471H27.5577Z" fill="#00AC75"/>
<path d="M29.0889 22.2366V20.7471H27.5577V22.2366H29.0889Z" fill="#00AC75"/>
<path d="M29.0889 23.7261V22.2366H27.5577V23.7261H29.0889Z" fill="#00AC75"/>
<path d="M29.0889 20.7471V19.2576H27.5577V20.7471H29.0889Z" fill="#00AC75"/>
<path d="M29.0856 19.2544V17.7649H27.5544V19.2544H29.0856Z" fill="#00AC75"/>
<path d="M29.0889 17.7615V16.272H27.5577V17.7615H29.0889Z" fill="#00AC75"/>
<path d="M30.6167 16.2786V14.7891H29.0855V16.2786H30.6167Z" fill="#00AC75"/>
<path d="M32.1479 16.2752V14.7856H30.6168V16.2752H32.1479Z" fill="#00AC75"/>
<path d="M30.6201 22.2366V20.7471H29.0889V22.2366H30.6201Z" fill="#32B686"/>
<path d="M30.6201 23.7261V22.2366H29.0889V23.7261H30.6201Z" fill="#32B686"/>
<path d="M30.6201 20.7471V19.2576H29.0889V20.7471H30.6201Z" fill="#32B686"/>
<path d="M32.1512 22.2334V20.7439H30.6201V22.2334H32.1512Z" fill="#59BE92"/>
<path d="M32.1512 23.7229V22.2334H30.6201V23.7229H32.1512Z" fill="#59BE92"/>
<path d="M32.1512 20.7439V19.2544H30.6201V20.7439H32.1512Z" fill="#32B686"/>
<path d="M33.6824 22.2334V20.7439H32.1512V22.2334H33.6824Z" fill="#59BE92"/>
<path d="M33.6824 23.7229V22.2334H32.1512V23.7229H33.6824Z" fill="#59BE92"/>
<path d="M33.6824 20.7439V19.2544H32.1512V20.7439H33.6824Z" fill="#59BE92"/>
<path d="M35.2136 22.2334V20.7439H33.6825V22.2334H35.2136Z" fill="#59BE92"/>
<path d="M35.2136 23.7229V22.2334H33.6825V23.7229H35.2136Z" fill="#59BE92"/>
<path d="M35.2136 20.7439V19.2544H33.6825V20.7439H35.2136Z" fill="#59BE92"/>
<path d="M36.7448 22.2334V20.7439H35.2136V22.2334H36.7448Z" fill="#59BE92"/>
<path d="M36.7415 23.7229V22.2334H35.2103V23.7229H36.7415Z" fill="#59BE92"/>
<path d="M36.7448 20.7439V19.2544H35.2136V20.7439H36.7448Z" fill="#59BE92"/>
<path d="M38.2726 22.2334V20.7439H36.7414V22.2334H38.2726Z" fill="#59BE92"/>
<path d="M38.2726 23.7229V22.2334H36.7414V23.7229H38.2726Z" fill="#59BE92"/>
<path d="M38.2759 20.7439V19.2544H36.7447V20.7439H38.2759Z" fill="#59BE92"/>
<path d="M39.8037 22.2334V20.7439H38.2725V22.2334H39.8037Z" fill="#59BE92"/>
<path d="M39.8037 23.7229V22.2334H38.2725V23.7229H39.8037Z" fill="#59BE92"/>
<path d="M39.8037 20.7439V19.2544H38.2725V20.7439H39.8037Z" fill="#59BE92"/>
<path d="M41.335 22.2334V20.7439H39.8038V22.2334H41.335Z" fill="#59BE92"/>
<path d="M41.335 23.7229V22.2334H39.8038V23.7229H41.335Z" fill="#59BE92"/>
<path d="M41.335 20.7439V19.2544H39.8038V20.7439H41.335Z" fill="#59BE92"/>
<path d="M42.8661 22.2334V20.7439H41.3349V22.2334H42.8661Z" fill="#59BE92"/>
<path d="M42.8661 23.7229V22.2334H41.3349V23.7229H42.8661Z" fill="#59BE92"/>
<path d="M42.8661 20.7439V19.2544H41.3349V20.7439H42.8661Z" fill="#86CBA8"/>
<path d="M44.3972 22.2334V20.7439H42.866V22.2334H44.3972Z" fill="#86CBA8"/>
<path d="M44.3972 23.7229V22.2334H42.866V23.7229H44.3972Z" fill="#86CBA8"/>
<path d="M44.3972 20.7439V19.2544H42.866V20.7439H44.3972Z" fill="#32B686"/>
<path d="M45.9285 22.2366V20.7471H44.3973V22.2366H45.9285Z" fill="#32B686"/>
<path d="M45.9285 23.7229V22.2334H44.3973V23.7229H45.9285Z" fill="#32B686"/>
<path d="M45.9285 20.7471V19.2576H44.3973V20.7471H45.9285Z" fill="#00AC75"/>
<path d="M30.6167 19.2544V17.7649H29.0855V19.2544H30.6167Z" fill="#32B686"/>
<path d="M32.1479 19.251V17.7615H30.6168V19.251H32.1479Z" fill="#59BE92"/>
<path d="M33.6791 19.251V17.7615H32.1479V19.251H33.6791Z" fill="#32B686"/>
<path d="M35.2102 19.251V17.7615H33.679V19.251H35.2102Z" fill="#59BE92"/>
<path d="M36.7415 19.251V17.7615H35.2103V19.251H36.7415Z" fill="#59BE92"/>
<path d="M38.2726 19.2544V17.7649H36.7414V19.2544H38.2726Z" fill="#86CBA8"/>
<path d="M39.8037 19.2544V17.7649H38.2725V19.2544H39.8037Z" fill="#86CBA8"/>
<path d="M41.335 19.2544V17.7649H39.8038V19.2544H41.335Z" fill="#86CBA8"/>
<path d="M42.8661 19.2544V17.7649H41.3349V19.2544H42.8661Z" fill="#32B686"/>
<path d="M44.3972 19.2544V17.7649H42.866V19.2544H44.3972Z" fill="#32B686"/>
<path d="M45.9252 19.2544V17.7649H44.394V19.2544H45.9252Z" fill="#00AC75"/>
<path d="M30.6201 17.7647V16.2751H29.0889V17.7647H30.6201Z" fill="#32B686"/>
<path d="M32.1512 17.7615V16.272H30.6201V17.7615H32.1512Z" fill="#32B686"/>
<path d="M33.6791 17.7615V16.272H32.1479V17.7615H33.6791Z" fill="#32B686"/>
<path d="M35.2102 17.7615V16.272H33.679V17.7615H35.2102Z" fill="#32B686"/>
<path d="M36.7415 17.7615V16.272H35.2103V17.7615H36.7415Z" fill="#32B686"/>
<path d="M39.8037 17.7615V16.272H38.2725V17.7615H39.8037Z" fill="#32B686"/>
<path d="M38.2726 17.7615V16.272H36.7414V17.7615H38.2726Z" fill="#32B686"/>
<path d="M41.335 17.7615V16.272H39.8038V17.7615H41.335Z" fill="#32B686"/>
<path d="M42.8661 17.7615V16.272H41.3349V17.7615H42.8661Z" fill="#00AC75"/>
<path d="M44.3972 17.7615V16.272H42.866V17.7615H44.3972Z" fill="#00AC75"/>
<path d="M33.6791 16.2752V14.7856H32.1479V16.2752H33.6791Z" fill="#00AC75"/>
<path d="M35.2102 16.2752V14.7856H33.679V16.2752H35.2102Z" fill="#00AC75"/>
<path d="M36.7415 16.2752V14.7856H35.2103V16.2752H36.7415Z" fill="#00AC75"/>
<path d="M38.2726 16.2752V14.7856H36.7414V16.2752H38.2726Z" fill="#00AC75"/>
<path d="M39.8037 16.2786V14.7891H38.2725V16.2786H39.8037Z" fill="#00AC75"/>
<path d="M41.335 16.2786V14.7891H39.8038V16.2786H41.335Z" fill="#00AC75"/>
<path d="M33.6791 14.7857V13.2961H32.1479V14.7857H33.6791Z" fill="#00AC75"/>
<path d="M35.2102 14.7857V13.2961H33.679V14.7857H35.2102Z" fill="#00AC75"/>
<path d="M36.7415 14.7857V13.2961H35.2103V14.7857H36.7415Z" fill="#00AC75"/>
<path d="M38.2726 14.7857V13.2961H36.7414V14.7857H38.2726Z" fill="#00AC75"/>
<path d="M39.8037 14.7857V13.2961H38.2725V14.7857H39.8037Z" fill="#00AC75"/>
<path d="M41.335 14.7857V13.2961H39.8038V14.7857H41.335Z" fill="#00AC75"/>
<path d="M42.8661 16.2786V14.7891H41.3349V16.2786H42.8661Z" fill="#00AC75"/>
<path d="M44.3939 16.2786V14.7891H42.8628V16.2786H44.3939Z" fill="#00AC75"/>
<path d="M45.9285 17.7615V16.272H44.3973V17.7615H45.9285Z" fill="#00AC75"/>
<path d="M47.4596 22.2366V20.7471H45.9284V22.2366H47.4596Z" fill="#00AC75"/>
<path d="M47.4596 23.7261V22.2366H45.9284V23.7261H47.4596Z" fill="#00AC75"/>
<path d="M30.6201 25.2156V23.7261H29.0889V25.2156H30.6201Z" fill="#59BE92"/>
<path d="M32.1512 25.2124V23.7229H30.6201V25.2124H32.1512Z" fill="#59BE92"/>
<path d="M32.1512 26.7019V25.2124H30.6201V26.7019H32.1512Z" fill="#59BE92"/>
<path d="M33.6824 25.2124V23.7229H32.1512V25.2124H33.6824Z" fill="#59BE92"/>
<path d="M33.6791 26.7019V25.2124H32.1479V26.7019H33.6791Z" fill="#59BE92"/>
<path d="M33.6824 28.1883V26.6987H32.1512V28.1883H33.6824Z" fill="#59BE92"/>
<path d="M35.2102 25.2124V23.7229H33.679V25.2124H35.2102Z" fill="#59BE92"/>
<path d="M35.2102 26.7019V25.2124H33.679V26.7019H35.2102Z" fill="#59BE92"/>
<path d="M36.7415 25.2124V23.7229H35.2103V25.2124H36.7415Z" fill="#59BE92"/>
<path d="M36.7415 26.7019V25.2124H35.2103V26.7019H36.7415Z" fill="#59BE92"/>
<path d="M38.2726 25.2124V23.7229H36.7414V25.2124H38.2726Z" fill="#59BE92"/>
<path d="M38.2726 26.7019V25.2124H36.7414V26.7019H38.2726Z" fill="#59BE92"/>
<path d="M39.8037 25.2124V23.7229H38.2725V25.2124H39.8037Z" fill="#59BE92"/>
<path d="M39.8037 26.7019V25.2124H38.2725V26.7019H39.8037Z" fill="#59BE92"/>
<path d="M41.335 25.2124V23.7229H39.8038V25.2124H41.335Z" fill="#59BE92"/>
<path d="M41.335 26.7019V25.2124H39.8038V26.7019H41.335Z" fill="#59BE92"/>
<path d="M42.8661 25.2124V23.7229H41.3349V25.2124H42.8661Z" fill="#59BE92"/>
<path d="M42.8661 26.7019V25.2124H41.3349V26.7019H42.8661Z" fill="#59BE92"/>
<path d="M44.3972 25.2124V23.7229H42.866V25.2124H44.3972Z" fill="#86CBA8"/>
<path d="M44.3972 26.7019V25.2124H42.866V26.7019H44.3972Z" fill="#86CBA8"/>
<path d="M45.9285 25.2124V23.7229H44.3973V25.2124H45.9285Z" fill="#32B686"/>
<path d="M45.9252 26.7019V25.2124H44.394V26.7019H45.9252Z" fill="#32B686"/>
<path d="M47.4596 25.2124V23.7229H45.9284V25.2124H47.4596Z" fill="#00AC75"/>
<path d="M47.4596 26.7019V25.2124H45.9284V26.7019H47.4596Z" fill="#00AC75"/>
<path d="M32.1479 28.1914V26.7019H30.6168V28.1914H32.1479Z" fill="#59BE92"/>
<path d="M35.2102 28.1914V26.7019H33.679V28.1914H35.2102Z" fill="#59BE92"/>
<path d="M35.2102 29.6812V28.1917H33.679V29.6812H35.2102Z" fill="#59BE92"/>
<path d="M35.2102 31.1675V29.678H33.679V31.1675H35.2102Z" fill="#59BE92"/>
<path d="M36.7415 28.1914V26.7019H35.2103V28.1914H36.7415Z" fill="#59BE92"/>
<path d="M38.2726 28.1914V26.7019H36.7414V28.1914H38.2726Z" fill="#59BE92"/>
<path d="M39.8037 28.1914V26.7019H38.2725V28.1914H39.8037Z" fill="#59BE92"/>
<path d="M41.335 28.1914V26.7019H39.8038V28.1914H41.335Z" fill="#59BE92"/>
<path d="M42.8661 28.1914V26.7019H41.3349V28.1914H42.8661Z" fill="#59BE92"/>
<path d="M44.3972 28.1914V26.7019H42.866V28.1914H44.3972Z" fill="#59BE92"/>
<path d="M45.9285 28.1914V26.7019H44.3973V28.1914H45.9285Z" fill="#32B686"/>
<path d="M32.1479 29.6778V28.1882H30.6168V29.6778H32.1479Z" fill="#59BE92"/>
<path d="M33.6791 29.6812V28.1917H32.1479V29.6812H33.6791Z" fill="#59BE92"/>
<path d="M32.1479 31.1675V29.678H30.6168V31.1675H32.1479Z" fill="#59BE92"/>
<path d="M33.6791 31.1675V29.678H32.1479V31.1675H33.6791Z" fill="#59BE92"/>
<path d="M32.1479 32.6536V31.1641H30.6168V32.6536H32.1479Z" fill="#59BE92"/>
<path d="M33.6791 32.6536V31.1641H32.1479V32.6536H33.6791Z" fill="#59BE92"/>
<path d="M35.2102 32.6536V31.1641H33.679V32.6536H35.2102Z" fill="#59BE92"/>
<path d="M36.7415 29.6812V28.1917H35.2103V29.6812H36.7415Z" fill="#59BE92"/>
<path d="M38.2726 29.6812V28.1917H36.7414V29.6812H38.2726Z" fill="#59BE92"/>
<path d="M39.8037 29.6812V28.1917H38.2725V29.6812H39.8037Z" fill="#59BE92"/>
<path d="M41.335 29.6812V28.1917H39.8038V29.6812H41.335Z" fill="#59BE92"/>
<path d="M42.8661 29.6812V28.1917H41.3349V29.6812H42.8661Z" fill="#59BE92"/>
<path d="M44.3939 29.6812V28.1917H42.8628V29.6812H44.3939Z" fill="#32B686"/>
<path d="M45.9252 29.6812V28.1917H44.394V29.6812H45.9252Z" fill="#32B686"/>
<path d="M44.3972 31.1675V29.678H42.866V31.1675H44.3972Z" fill="#32B686"/>
<path d="M42.8661 32.657V31.1675H41.3349V32.657H42.8661Z" fill="#59BE92"/>
<path d="M44.3972 32.657V31.1675H42.866V32.657H44.3972Z" fill="#32B686"/>
<path d="M45.9285 31.1675V29.678H44.3973V31.1675H45.9285Z" fill="#32B686"/>
<path d="M47.4596 28.1914V26.7019H45.9284V28.1914H47.4596Z" fill="#00AC75"/>
<path d="M47.4596 20.7471V19.2576H45.9284V20.7471H47.4596Z" fill="#00AC75"/>
<path d="M6.12463 41.5974V40.1079H4.59347V41.5974H6.12463Z" fill="#00AC75"/>
<path d="M6.12463 40.1079V38.6184H4.59346V40.1079H6.12463Z" fill="#00AC75"/>
<path d="M7.65588 40.1079V38.6184H6.12471V40.1079H7.65588Z" fill="#00AC75"/>
<path d="M7.65247 38.6182V37.1287H6.1213V38.6182H7.65247Z" fill="#00AC75"/>
<path d="M10.7182 34.1497H9.18701V35.6392H10.7182V34.1497Z" fill="#59BE92"/>
<path d="M9.18705 35.6392H7.65588V37.1287H9.18705V35.6392Z" fill="#59BE92"/>
<path d="M7.6558 35.6392H6.12463V37.1287H7.6558V35.6392Z" fill="#59BE92"/>
<path d="M9.18705 55H7.65588V56.4895H9.18705V55Z" fill="#59BE92"/>
<path d="M7.6558 55H6.12463V56.4895H7.6558V55Z" fill="#59BE92"/>
<path d="M21.433 55H19.9019V56.4895H21.433V55Z" fill="#59BE92"/>
<path d="M19.9019 55H18.3707V56.4895H19.9019V55Z" fill="#59BE92"/>
<path d="M4.59351 41.5943V40.1047H3.06234V41.5943H4.59351Z" fill="#59BE92"/>
<path d="M4.59351 40.1079V38.6184H3.06234V40.1079H4.59351Z" fill="#59BE92"/>
<path d="M4.59351 53.5105V52.021H3.06234V53.5105H4.59351Z" fill="#59BE92"/>
<path d="M4.59351 52.021V50.5315H3.06234V52.021H4.59351Z" fill="#59BE92"/>
<path d="M24.4954 53.5105V52.021H22.9642V53.5105H24.4954Z" fill="#59BE92"/>
<path d="M24.4954 52.021V50.5315H22.9642V52.021H24.4954Z" fill="#59BE92"/>
<path d="M3.06238 44.5733V43.0837H1.53121V44.5733H3.06238Z" fill="#59BE92"/>
<path d="M3.06238 46.0628V44.5732H1.53121V46.0628H3.06238Z" fill="#59BE92"/>
<path d="M3.06238 47.5523V46.0627H1.53121V47.5523H3.06238Z" fill="#59BE92"/>
<path d="M3.06238 49.0418V47.5522H1.53121V49.0418H3.06238Z" fill="#59BE92"/>
<path d="M3.06238 50.5313V49.0417H1.53121V50.5313H3.06238Z" fill="#59BE92"/>
<path d="M3.06238 43.0838V41.5942H1.53121V43.0838H3.06238Z" fill="#59BE92"/>
<path d="M26.0266 47.5523V46.0627H24.4954V47.5523H26.0266Z" fill="#59BE92"/>
<path d="M26.0266 49.0418V47.5522H24.4954V49.0418H26.0266Z" fill="#59BE92"/>
<path d="M26.0266 50.5313V49.0417H24.4954V50.5313H26.0266Z" fill="#59BE92"/>
<path d="M6.12468 37.1287H4.59351V38.6182H6.12468V37.1287Z" fill="#59BE92"/>
<path d="M6.12468 53.5105H4.59351V55H6.12468V53.5105Z" fill="#59BE92"/>
<path d="M22.9642 53.5105H21.433V55H22.9642V53.5105Z" fill="#59BE92"/>
<path d="M12.2493 34.1497H10.7181V35.6392H12.2493V34.1497Z" fill="#59BE92"/>
<path d="M13.7771 34.1497H12.246V35.6392H13.7771V34.1497Z" fill="#59BE92"/>
<path d="M10.7182 56.4895H9.18701V57.979H10.7182V56.4895Z" fill="#59BE92"/>
<path d="M12.2493 56.4895H10.7181V57.979H12.2493V56.4895Z" fill="#59BE92"/>
<path d="M13.7771 56.4895H12.246V57.979H13.7771V56.4895Z" fill="#59BE92"/>
<path d="M15.3084 56.4895H13.7772V57.979H15.3084V56.4895Z" fill="#59BE92"/>
<path d="M16.8395 56.4895H15.3083V57.979H16.8395V56.4895Z" fill="#59BE92"/>
<path d="M18.3706 56.4895H16.8395V57.979H18.3706V56.4895Z" fill="#59BE92"/>
<path d="M26.0232 20.7439V19.2544H24.492V20.7439H26.0232Z" fill="#59BE92"/>
<path d="M24.4954 19.2544V17.7649H22.9642V19.2544H24.4954Z" fill="#59BE92"/>
<path d="M24.4954 17.7647V16.2751H22.9642V17.7647H24.4954Z" fill="#59BE92"/>
<path d="M4.59351 19.2544V17.7649H3.06234V19.2544H4.59351Z" fill="#59BE92"/>
<path d="M4.59351 17.7647V16.2751H3.06234V17.7647H4.59351Z" fill="#59BE92"/>
<path d="M4.59351 31.1675V29.678H3.06234V31.1675H4.59351Z" fill="#59BE92"/>
<path d="M4.59351 29.6778V28.1882H3.06234V29.6778H4.59351Z" fill="#59BE92"/>
<path d="M18.3707 14.7856H19.9019V13.2961H18.3707V14.7856Z" fill="#59BE92"/>
<path d="M19.9018 14.7856H21.433V13.2961H19.9018V14.7856Z" fill="#59BE92"/>
<path d="M6.1213 14.7856H7.65247V13.2961H6.1213V14.7856Z" fill="#59BE92"/>
<path d="M7.65255 14.7856H9.18372V13.2961H7.65255V14.7856Z" fill="#59BE92"/>
<path d="M6.1213 34.1465H7.65247V32.6569H6.1213V34.1465Z" fill="#59BE92"/>
<path d="M7.65255 34.1465H9.18372V32.6569H7.65255V34.1465Z" fill="#59BE92"/>
<path d="M15.3117 13.2961H16.8429V11.8066H15.3117V13.2961Z" fill="#59BE92"/>
<path d="M13.7805 13.2961H15.3116V11.8066H13.7805V13.2961Z" fill="#59BE92"/>
<path d="M12.2493 13.2961H13.7805V11.8066H12.2493V13.2961Z" fill="#59BE92"/>
<path d="M10.7148 13.2961H12.246V11.8066H10.7148V13.2961Z" fill="#59BE92"/>
<path d="M9.18367 13.2961H10.7148V11.8066H9.18367V13.2961Z" fill="#59BE92"/>
<path d="M16.8396 13.2961H18.3707V11.8066H16.8396V13.2961Z" fill="#59BE92"/>
<path d="M12.2493 35.636H13.7805V34.1464H12.2493V35.636Z" fill="#59BE92"/>
<path d="M10.7148 35.636H12.246V34.1464H10.7148V35.636Z" fill="#59BE92"/>
<path d="M9.18367 35.636H10.7148V34.1464H9.18367V35.636Z" fill="#59BE92"/>
<path d="M22.9642 16.2752V14.7856H21.4331V16.2752H22.9642Z" fill="#59BE92"/>
<path d="M6.12463 16.2752V14.7856H4.59346V16.2752H6.12463Z" fill="#59BE92"/>
<path d="M6.12463 32.657V31.1675H4.59346V32.657H6.12463Z" fill="#59BE92"/>
<path d="M26.0232 22.2334V20.7439H24.492V22.2334H26.0232Z" fill="#59BE92"/>
<path d="M26.0232 23.7229V22.2334H24.492V23.7229H26.0232Z" fill="#59BE92"/>
<path d="M3.06238 20.7439V19.2544H1.53121V20.7439H3.06238Z" fill="#59BE92"/>
<path d="M3.06238 22.2334V20.7439H1.53121V22.2334H3.06238Z" fill="#59BE92"/>
<path d="M3.05896 23.7229V22.2334H1.52779V23.7229H3.05896Z" fill="#59BE92"/>
<path d="M3.06238 25.2093V23.7197H1.53121V25.2093H3.06238Z" fill="#59BE92"/>
<path d="M3.06238 26.6988V25.2092H1.53121V26.6988H3.06238Z" fill="#59BE92"/>
<path d="M3.06238 28.1883V26.6987H1.53121V28.1883H3.06238Z" fill="#59BE92"/>
<path d="M39.8038 35.636H41.335V34.1464H39.8038V35.636Z" fill="#59BE92"/>
<path d="M41.3349 34.1465H42.8661V32.6569H41.3349V34.1465Z" fill="#59BE92"/>
<path d="M42.866 34.1465H44.3972V32.6569H42.866V34.1465Z" fill="#59BE92"/>
<path d="M41.3349 14.7856H42.8661V13.2961H41.3349V14.7856Z" fill="#59BE92"/>
<path d="M42.866 14.7856H44.3972V13.2961H42.866V14.7856Z" fill="#59BE92"/>
<path d="M29.0855 14.7856H30.6167V13.2961H29.0855V14.7856Z" fill="#59BE92"/>
<path d="M30.6201 14.7856H32.1512V13.2961H30.6201V14.7856Z" fill="#59BE92"/>
<path d="M45.9285 28.1884V29.678H47.4596V28.1884H45.9285Z" fill="#59BE92"/>
<path d="M45.9285 29.6779V31.1675H47.4596V29.6779H45.9285Z" fill="#59BE92"/>
<path d="M45.9285 16.2719V17.7615H47.4596V16.2719H45.9285Z" fill="#59BE92"/>
<path d="M45.9285 17.7617V19.2512H47.4596V17.7617H45.9285Z" fill="#59BE92"/>
<path d="M26.0266 16.2719V17.7615H27.5578V16.2719H26.0266Z" fill="#59BE92"/>
<path d="M26.0266 17.7614V19.251H27.5578V17.7614H26.0266Z" fill="#59BE92"/>
<path d="M47.4563 25.2092V26.6987H48.9875V25.2092H47.4563Z" fill="#59BE92"/>
<path d="M47.4563 23.7197V25.2092H48.9875V23.7197H47.4563Z" fill="#59BE92"/>
<path d="M47.4596 22.2302V23.7197H48.9908V22.2302H47.4596Z" fill="#59BE92"/>
<path d="M47.4596 20.7407V22.2302H48.9908V20.7407H47.4596Z" fill="#59BE92"/>
<path d="M47.4596 19.2512V20.7407H48.9908V19.2512H47.4596Z" fill="#59BE92"/>
<path d="M47.4563 26.6987V28.1882H48.9875V26.6987H47.4563Z" fill="#59BE92"/>
<path d="M24.4954 22.2302V23.7197H26.0265V22.2302H24.4954Z" fill="#59BE92"/>
<path d="M24.4954 20.7407V22.2302H26.0265V20.7407H24.4954Z" fill="#59BE92"/>
<path d="M24.4954 19.2512V20.7407H26.0265V19.2512H24.4954Z" fill="#59BE92"/>
<path d="M44.3973 32.657H45.9285V31.1674H44.3973V32.657Z" fill="#59BE92"/>
<path d="M44.3973 16.2751H45.9285V14.7856H44.3973V16.2751Z" fill="#59BE92"/>
<path d="M27.5544 16.2751H29.0856V14.7856H27.5544V16.2751Z" fill="#59BE92"/>
<path d="M38.2725 35.636H39.8037V34.1464H38.2725V35.636Z" fill="#59BE92"/>
<path d="M36.7414 35.636H38.2726V34.1464H36.7414V35.636Z" fill="#59BE92"/>
<path d="M35.2103 35.636H36.7415V34.1464H35.2103V35.636Z" fill="#59BE92"/>
<path d="M39.8038 13.2961H41.335V11.8066H39.8038V13.2961Z" fill="#59BE92"/>
<path d="M38.2725 13.2961H39.8037V11.8066H38.2725V13.2961Z" fill="#59BE92"/>
<path d="M36.7414 13.2961H38.2726V11.8066H36.7414V13.2961Z" fill="#59BE92"/>
<path d="M35.2103 13.2961H36.7415V11.8066H35.2103V13.2961Z" fill="#59BE92"/>
<path d="M33.6825 13.2961H35.2136V11.8066H33.6825V13.2961Z" fill="#59BE92"/>
<path d="M32.1512 13.2961H33.6824V11.8066H32.1512V13.2961Z" fill="#59BE92"/>
<path d="M24.4954 49.042V50.5315H26.0265V49.042H24.4954Z" fill="#59BE92"/>
<path d="M26.0266 50.528V52.0176H27.5578V50.528H26.0266Z" fill="#59BE92"/>
<path d="M26.0266 52.0178V53.5073H27.5578V52.0178H26.0266Z" fill="#59BE92"/>
<path d="M45.9285 50.5315V52.021H47.4596V50.5315H45.9285Z" fill="#59BE92"/>
<path d="M45.9285 52.0178V53.5073H47.4596V52.0178H45.9285Z" fill="#59BE92"/>
<path d="M45.9252 38.6152V40.1047H47.4563V38.6152H45.9252Z" fill="#59BE92"/>
<path d="M45.9252 40.1047V41.5942H47.4563V40.1047H45.9252Z" fill="#59BE92"/>
<path d="M32.1479 55H30.6167V56.4895H32.1479V55Z" fill="#59BE92"/>
<path d="M30.62 55H29.0889V56.4895H30.62V55Z" fill="#59BE92"/>
<path d="M44.3973 55H42.8661V56.4895H44.3973V55Z" fill="#59BE92"/>
<path d="M42.8661 55H41.335V56.4895H42.8661V55Z" fill="#59BE92"/>
<path d="M44.3973 35.6392H42.8661V37.1287H44.3973V35.6392Z" fill="#59BE92"/>
<path d="M42.8661 35.6392H41.335V37.1287H42.8661V35.6392Z" fill="#59BE92"/>
<path d="M35.2102 56.4895H33.6791V57.979H35.2102V56.4895Z" fill="#59BE92"/>
<path d="M36.7414 56.4895H35.2102V57.979H36.7414V56.4895Z" fill="#59BE92"/>
<path d="M38.2726 56.4895H36.7415V57.979H38.2726V56.4895Z" fill="#59BE92"/>
<path d="M39.8038 56.4895H38.2726V57.979H39.8038V56.4895Z" fill="#59BE92"/>
<path d="M41.3349 56.4895H39.8037V57.979H41.3349V56.4895Z" fill="#59BE92"/>
<path d="M33.6791 56.4895H32.1479V57.979H33.6791V56.4895Z" fill="#59BE92"/>
<path d="M36.7414 34.1497H35.2102V35.6392H36.7414V34.1497Z" fill="#59BE92"/>
<path d="M38.2726 34.1497H36.7415V35.6392H38.2726V34.1497Z" fill="#59BE92"/>
<path d="M39.8038 34.1497H38.2726V35.6392H39.8038V34.1497Z" fill="#59BE92"/>
<path d="M41.3349 34.1497H39.8037V35.6392H41.3349V34.1497Z" fill="#59BE92"/>
<path d="M27.5577 53.5073V54.9968H29.0889V53.5073H27.5577Z" fill="#59BE92"/>
<path d="M44.3972 53.5073V54.9968H45.9284V53.5073H44.3972Z" fill="#59BE92"/>
<path d="M44.3972 37.1255V38.615H45.9284V37.1255H44.3972Z" fill="#59BE92"/>
<path d="M24.4954 47.5522V49.0417H26.0265V47.5522H24.4954Z" fill="#59BE92"/>
<path d="M24.4954 46.0627V47.5522H26.0265V46.0627H24.4954Z" fill="#59BE92"/>
<path d="M47.4596 49.042V50.5315H48.9908V49.042H47.4596Z" fill="#59BE92"/>
<path d="M47.4596 47.5522V49.0417H48.9908V47.5522H47.4596Z" fill="#59BE92"/>
<path d="M47.4596 46.0627V47.5522H48.9908V46.0627H47.4596Z" fill="#59BE92"/>
<path d="M47.4596 44.5732V46.0627H48.9908V44.5732H47.4596Z" fill="#59BE92"/>
<path d="M47.4563 43.0837V44.5732H48.9875V43.0837H47.4563Z" fill="#59BE92"/>
<path d="M47.4563 41.5942V43.0837H48.9875V41.5942H47.4563Z" fill="#59BE92"/>
<path d="M45.9285 47.5522V49.0417H47.4596V47.5522H45.9285Z" fill="#00AC75"/>
<path d="M45.9285 46.0627V47.5522H47.4596V46.0627H45.9285Z" fill="#00AC75"/>
<path d="M45.9285 44.5732V46.0627H47.4596V44.5732H45.9285Z" fill="#00AC75"/>
<path d="M45.9252 43.0837V44.5732H47.4563V43.0837H45.9252Z" fill="#00AC75"/>
<path d="M45.9252 41.5942V43.0837H47.4563V41.5942H45.9252Z" fill="#00AC75"/>
<path d="M45.9285 49.042V50.5315H47.4596V49.042H45.9285Z" fill="#00AC75"/>
<path d="M44.3972 47.5522V49.0417H45.9284V47.5522H44.3972Z" fill="#00AC75"/>
<path d="M44.3972 46.0627V47.5522H45.9284V46.0627H44.3972Z" fill="#00AC75"/>
<path d="M44.3972 44.5732V46.0627H45.9284V44.5732H44.3972Z" fill="#00AC75"/>
<path d="M44.3972 43.0837V44.5732H45.9284V43.0837H44.3972Z" fill="#00AC75"/>
<path d="M44.3939 41.5942V43.0837H45.9251V41.5942H44.3939Z" fill="#00AC75"/>
<path d="M44.3972 40.1079V41.5974H45.9284V40.1079H44.3972Z" fill="#00AC75"/>
<path d="M44.3972 38.6184V40.1079H45.9284V38.6184H44.3972Z" fill="#00AC75"/>
<path d="M44.3972 49.042V50.5315H45.9284V49.042H44.3972Z" fill="#00AC75"/>
<path d="M44.3972 50.5315V52.021H45.9284V50.5315H44.3972Z" fill="#00AC75"/>
<path d="M44.3972 52.0241V53.5137H45.9284V52.0241H44.3972Z" fill="#00AC75"/>
<path d="M42.8661 53.5073V54.9968H44.3973V53.5073H42.8661Z" fill="#00AC75"/>
<path d="M41.335 53.5105V55H42.8661V53.5105H41.335Z" fill="#00AC75"/>
<path d="M42.8661 47.5522V49.0417H44.3973V47.5522H42.8661Z" fill="#32B686"/>
<path d="M42.8661 46.0627V47.5522H44.3973V46.0627H42.8661Z" fill="#59BE92"/>
<path d="M42.8661 44.5732V46.0627H44.3973V44.5732H42.8661Z" fill="#32B686"/>
<path d="M42.8661 43.0837V44.5732H44.3973V43.0837H42.8661Z" fill="#32B686"/>
<path d="M42.8661 41.5942V43.0837H44.3973V41.5942H42.8661Z" fill="#32B686"/>
<path d="M42.8661 49.042V50.5315H44.3973V49.042H42.8661Z" fill="#32B686"/>
<path d="M41.335 47.5522V49.0417H42.8661V47.5522H41.335Z" fill="#59BE92"/>
<path d="M41.335 46.0627V47.5522H42.8661V46.0627H41.335Z" fill="#32B686"/>
<path d="M41.335 44.5732V46.0627H42.8661V44.5732H41.335Z" fill="#59BE92"/>
<path d="M41.335 43.0837V44.5732H42.8661V43.0837H41.335Z" fill="#59BE92"/>
<path d="M41.335 41.5942V43.0837H42.8661V41.5942H41.335Z" fill="#59BE92"/>
<path d="M41.335 49.042V50.5315H42.8661V49.042H41.335Z" fill="#32B686"/>
<path d="M39.8037 47.5522V49.0417H41.3349V47.5522H39.8037Z" fill="#32B686"/>
<path d="M39.8037 46.0627V47.5522H41.3349V46.0627H39.8037Z" fill="#59BE92"/>
<path d="M39.8037 44.5732V46.0627H41.3349V44.5732H39.8037Z" fill="#59BE92"/>
<path d="M39.8037 43.0837V44.5732H41.3349V43.0837H39.8037Z" fill="#59BE92"/>
<path d="M39.8037 41.5942V43.0837H41.3349V41.5942H39.8037Z" fill="#59BE92"/>
<path d="M39.8037 49.042V50.5315H41.3349V49.042H39.8037Z" fill="#59BE92"/>
<path d="M38.2726 47.5522V49.0417H39.8038V47.5522H38.2726Z" fill="#59BE92"/>
<path d="M38.2726 46.0627V47.5522H39.8038V46.0627H38.2726Z" fill="#59BE92"/>
<path d="M38.2726 44.5732V46.0627H39.8038V44.5732H38.2726Z" fill="#59BE92"/>
<path d="M38.2726 43.0837V44.5732H39.8038V43.0837H38.2726Z" fill="#59BE92"/>
<path d="M38.2726 41.5942V43.0837H39.8038V41.5942H38.2726Z" fill="#59BE92"/>
<path d="M38.2726 49.042V50.5315H39.8038V49.042H38.2726Z" fill="#32B686"/>
<path d="M36.7415 47.5522V49.0417H38.2726V47.5522H36.7415Z" fill="#32B686"/>
<path d="M36.7415 46.0627V47.5522H38.2726V46.0627H36.7415Z" fill="#59BE92"/>
<path d="M36.7415 44.5732V46.0627H38.2726V44.5732H36.7415Z" fill="#59BE92"/>
<path d="M36.7415 43.0837V44.5732H38.2726V43.0837H36.7415Z" fill="#59BE92"/>
<path d="M36.7415 41.5942V43.0837H38.2726V41.5942H36.7415Z" fill="#59BE92"/>
<path d="M36.7415 49.042V50.5315H38.2726V49.042H36.7415Z" fill="#59BE92"/>
<path d="M35.2102 47.5522V49.0417H36.7414V47.5522H35.2102Z" fill="#32B686"/>
<path d="M35.2102 46.0627V47.5522H36.7414V46.0627H35.2102Z" fill="#59BE92"/>
<path d="M35.2102 44.5732V46.0627H36.7414V44.5732H35.2102Z" fill="#59BE92"/>
<path d="M35.2102 43.0837V44.5732H36.7414V43.0837H35.2102Z" fill="#59BE92"/>
<path d="M35.2102 41.5942V43.0837H36.7414V41.5942H35.2102Z" fill="#59BE92"/>
<path d="M35.2102 49.042V50.5315H36.7414V49.042H35.2102Z" fill="#32B686"/>
<path d="M33.6791 47.5522V49.0417H35.2102V47.5522H33.6791Z" fill="#32B686"/>
<path d="M33.6791 46.0627V47.5522H35.2102V46.0627H33.6791Z" fill="#59BE92"/>
<path d="M33.6791 44.5732V46.0627H35.2102V44.5732H33.6791Z" fill="#59BE92"/>
<path d="M33.6791 43.0837V44.5732H35.2102V43.0837H33.6791Z" fill="#59BE92"/>
<path d="M33.6791 41.5974V43.0869H35.2102V41.5974H33.6791Z" fill="#59BE92"/>
<path d="M33.6791 49.042V50.5315H35.2102V49.042H33.6791Z" fill="#32B686"/>
<path d="M32.1479 47.5522V49.0417H33.6791V47.5522H32.1479Z" fill="#32B686"/>
<path d="M32.1479 46.0627V47.5522H33.6791V46.0627H32.1479Z" fill="#59BE92"/>
<path d="M32.1479 44.5732V46.0627H33.6791V44.5732H32.1479Z" fill="#59BE92"/>
<path d="M32.1479 43.0869V44.5764H33.6791V43.0869H32.1479Z" fill="#59BE92"/>
<path d="M32.1479 41.5974V43.0869H33.6791V41.5974H32.1479Z" fill="#59BE92"/>
<path d="M32.1479 49.042V50.5315H33.6791V49.042H32.1479Z" fill="#32B686"/>
<path d="M30.6201 47.549V49.0386H32.1513V47.549H30.6201Z" fill="#32B686"/>
<path d="M30.6167 46.0627V47.5522H32.1479V46.0627H30.6167Z" fill="#32B686"/>
<path d="M30.6167 44.5764V46.0659H32.1479V44.5764H30.6167Z" fill="#59BE92"/>
<path d="M30.6201 49.042V50.5315H32.1513V49.042H30.6201Z" fill="#32B686"/>
<path d="M29.0889 47.5522V49.0417H30.62V47.5522H29.0889Z" fill="#32B686"/>
<path d="M29.0889 46.0627V47.5522H30.62V46.0627H29.0889Z" fill="#32B686"/>
<path d="M29.0856 44.5732V46.0627H30.6167V44.5732H29.0856Z" fill="#59BE92"/>
<path d="M29.0889 49.0385V50.5281H30.62V49.0385H29.0889Z" fill="#32B686"/>
<path d="M27.5577 47.5522V49.0417H29.0889V47.5522H27.5577Z" fill="#00AC75"/>
<path d="M27.5577 46.0627V47.5522H29.0889V46.0627H27.5577Z" fill="#00AC75"/>
<path d="M27.5544 44.5732V46.0627H29.0856V44.5732H27.5544Z" fill="#59BE92"/>
<path d="M27.5577 49.0385V50.5281H29.0889V49.0385H27.5577Z" fill="#00AC75"/>
<path d="M42.8661 50.5315V52.021H44.3973V50.5315H42.8661Z" fill="#00AC75"/>
<path d="M41.335 50.5315V52.021H42.8661V50.5315H41.335Z" fill="#00AC75"/>
<path d="M39.8037 50.5346V52.0242H41.3349V50.5346H39.8037Z" fill="#00AC75"/>
<path d="M38.2726 50.5346V52.0242H39.8038V50.5346H38.2726Z" fill="#00AC75"/>
<path d="M36.7448 50.5346V52.0242H38.2759V50.5346H36.7448Z" fill="#00AC75"/>
<path d="M35.2136 50.5346V52.0242H36.7448V50.5346H35.2136Z" fill="#00AC75"/>
<path d="M33.6824 50.5346V52.0242H35.2135V50.5346H33.6824Z" fill="#00AC75"/>
<path d="M32.1512 50.5346V52.0242H33.6824V50.5346H32.1512Z" fill="#00AC75"/>
<path d="M30.6201 50.5346V52.0242H32.1513V50.5346H30.6201Z" fill="#00AC75"/>
<path d="M29.0889 50.5315V52.021H30.62V50.5315H29.0889Z" fill="#00AC75"/>
<path d="M27.5577 50.5315V52.021H29.0889V50.5315H27.5577Z" fill="#00AC75"/>
<path d="M42.8661 52.0241V53.5137H44.3973V52.0241H42.8661Z" fill="#00AC75"/>
<path d="M41.335 52.0241V53.5137H42.8661V52.0241H41.335Z" fill="#00AC75"/>
<path d="M39.8037 52.0241V53.5137H41.3349V52.0241H39.8037Z" fill="#00AC75"/>
<path d="M38.2726 52.0241V53.5137H39.8038V52.0241H38.2726Z" fill="#00AC75"/>
<path d="M36.7415 52.0241V53.5137H38.2726V52.0241H36.7415Z" fill="#00AC75"/>
<path d="M35.2102 52.0241V53.5137H36.7414V52.0241H35.2102Z" fill="#00AC75"/>
<path d="M33.6791 52.0241V53.5137H35.2102V52.0241H33.6791Z" fill="#00AC75"/>
<path d="M32.1479 52.0273V53.5168H33.6791V52.0273H32.1479Z" fill="#00AC75"/>
<path d="M30.6167 52.0273V53.5168H32.1479V52.0273H30.6167Z" fill="#00AC75"/>
<path d="M29.0856 52.0241V53.5137H30.6167V52.0241H29.0856Z" fill="#00AC75"/>
<path d="M39.8037 53.5105V55H41.3349V53.5105H39.8037Z" fill="#00AC75"/>
<path d="M38.2726 53.5105V55H39.8038V53.5105H38.2726Z" fill="#00AC75"/>
<path d="M36.7415 53.5105V55H38.2726V53.5105H36.7415Z" fill="#00AC75"/>
<path d="M35.2136 53.5105V55H36.7448V53.5105H35.2136Z" fill="#00AC75"/>
<path d="M33.6824 53.5105V55H35.2135V53.5105H33.6824Z" fill="#00AC75"/>
<path d="M32.1512 53.5105V55H33.6824V53.5105H32.1512Z" fill="#00AC75"/>
<path d="M39.8037 55V56.4895H41.3349V55H39.8037Z" fill="#00AC75"/>
<path d="M38.2726 55V56.4895H39.8038V55H38.2726Z" fill="#00AC75"/>
<path d="M36.7415 55V56.4895H38.2726V55H36.7415Z" fill="#00AC75"/>
<path d="M35.2102 55.0031V56.4927H36.7414V55.0031H35.2102Z" fill="#00AC75"/>
<path d="M33.6791 55.0031V56.4927H35.2102V55.0031H33.6791Z" fill="#00AC75"/>
<path d="M32.1479 55.0031V56.4927H33.6791V55.0031H32.1479Z" fill="#00AC75"/>
<path d="M30.6201 53.5105V55H32.1513V53.5105H30.6201Z" fill="#00AC75"/>
<path d="M29.0889 53.5073V54.9968H30.62V53.5073H29.0889Z" fill="#00AC75"/>
<path d="M27.5544 52.0241V53.5137H29.0856V52.0241H27.5544Z" fill="#00AC75"/>
<path d="M26.0266 47.5522V49.0417H27.5578V47.5522H26.0266Z" fill="#00AC75"/>
<path d="M26.0266 46.0627V47.5522H27.5578V46.0627H26.0266Z" fill="#00AC75"/>
<path d="M26.0266 44.5732V46.0627H27.5578V44.5732H26.0266Z" fill="#59BE92"/>
<path d="M30.6167 43.0869V44.5764H32.1479V43.0869H30.6167Z" fill="#59BE92"/>
<path d="M29.0856 43.0837V44.5732H30.6167V43.0837H29.0856Z" fill="#59BE92"/>
<path d="M27.5544 43.0837V44.5732H29.0856V43.0837H27.5544Z" fill="#59BE92"/>
<path d="M26.0232 43.0837V44.5732H27.5544V43.0837H26.0232Z" fill="#59BE92"/>
<path d="M24.4954 44.5732V46.0627H26.0265V44.5732H24.4954Z" fill="#59BE92"/>
<path d="M22.9642 44.5732V46.0627H24.4954V44.5732H22.9642Z" fill="#59BE92"/>
<path d="M24.4954 43.0837V44.5732H26.0265V43.0837H24.4954Z" fill="#59BE92"/>
<path d="M22.9642 43.0837V44.5732H24.4954V43.0837H22.9642Z" fill="#59BE92"/>
<path d="M29.0856 41.5942V43.0837H30.6167V41.5942H29.0856Z" fill="#59BE92"/>
<path d="M30.6167 41.5974V43.0869H32.1479V41.5974H30.6167Z" fill="#59BE92"/>
<path d="M27.5577 41.5974V43.0869H29.0889V41.5974H27.5577Z" fill="#59BE92"/>
<path d="M26.0266 41.5974V43.0869H27.5578V41.5974H26.0266Z" fill="#59BE92"/>
<path d="M24.4954 41.5974V43.0869H26.0265V41.5974H24.4954Z" fill="#59BE92"/>
<path d="M22.9642 41.5974V43.0869H24.4954V41.5974H22.9642Z" fill="#59BE92"/>
<path d="M21.433 44.5732V46.0627H22.9642V44.5732H21.433Z" fill="#59BE92"/>
<path d="M21.433 43.0837V44.5732H22.9642V43.0837H21.433Z" fill="#59BE92"/>
<path d="M21.433 41.5942V43.0837H22.9642V41.5942H21.433Z" fill="#59BE92"/>
<path d="M19.9019 41.5942V43.0837H21.433V41.5942H19.9019Z" fill="#59BE92"/>
<path d="M21.4331 40.1047V41.5942H22.9643V40.1047H21.4331Z" fill="#59BE92"/>
<path d="M19.9019 40.1047V41.5942H21.433V40.1047H19.9019Z" fill="#59BE92"/>
<path d="M42.8628 40.1047V41.5942H44.394V40.1047H42.8628Z" fill="#32B686"/>
<path d="M42.8628 38.6152V40.1047H44.394V38.6152H42.8628Z" fill="#32B686"/>
<path d="M41.335 40.1047V41.5942H42.8661V40.1047H41.335Z" fill="#59BE92"/>
<path d="M41.3317 38.6152V40.1047H42.8628V38.6152H41.3317Z" fill="#59BE92"/>
<path d="M39.8037 40.1047V41.5942H41.3349V40.1047H39.8037Z" fill="#59BE92"/>
<path d="M39.8037 38.6184V40.1079H41.3349V38.6184H39.8037Z" fill="#32B686"/>
<path d="M38.2726 40.1047V41.5942H39.8038V40.1047H38.2726Z" fill="#59BE92"/>
<path d="M38.2726 38.6152V40.1047H39.8038V38.6152H38.2726Z" fill="#59BE92"/>
<path d="M36.7415 40.1047V41.5942H38.2726V40.1047H36.7415Z" fill="#59BE92"/>
<path d="M36.7415 38.6184V40.1079H38.2726V38.6184H36.7415Z" fill="#59BE92"/>
<path d="M42.8661 37.1289V38.6184H44.3973V37.1289H42.8661Z" fill="#32B686"/>
<path d="M41.335 37.1289V38.6184H42.8661V37.1289H41.335Z" fill="#59BE92"/>
<path d="M39.8037 37.1289V38.6184H41.3349V37.1289H39.8037Z" fill="#59BE92"/>
<path d="M38.2726 37.1289V38.6184H39.8038V37.1289H38.2726Z" fill="#59BE92"/>
<path d="M36.7415 37.1289V38.6184H38.2726V37.1289H36.7415Z" fill="#59BE92"/>
<path d="M39.8037 35.6391V37.1287H41.3349V35.6391H39.8037Z" fill="#59BE92"/>
<path d="M38.2726 35.6391V37.1287H39.8038V35.6391H38.2726Z" fill="#59BE92"/>
<path d="M36.7415 35.6391V37.1287H38.2726V35.6391H36.7415Z" fill="#59BE92"/>
<path d="M35.2102 40.1079V41.5974H36.7414V40.1079H35.2102Z" fill="#59BE92"/>
<path d="M35.2102 38.6184V40.1079H36.7414V38.6184H35.2102Z" fill="#59BE92"/>
<path d="M33.6791 40.1079V41.5974H35.2102V40.1079H33.6791Z" fill="#59BE92"/>
<path d="M33.6791 38.6184V40.1079H35.2102V38.6184H33.6791Z" fill="#59BE92"/>
<path d="M32.1479 40.1079V41.5974H33.6791V40.1079H32.1479Z" fill="#59BE92"/>
<path d="M30.6167 40.1079V41.5974H32.1479V40.1079H30.6167Z" fill="#59BE92"/>
<path d="M29.0856 40.1047V41.5942H30.6167V40.1047H29.0856Z" fill="#59BE92"/>
<path d="M27.5544 40.1047V41.5942H29.0856V40.1047H27.5544Z" fill="#59BE92"/>
<path d="M32.1479 38.6184V40.1079H33.6791V38.6184H32.1479Z" fill="#59BE92"/>
<path d="M30.6167 38.6184V40.1079H32.1479V38.6184H30.6167Z" fill="#59BE92"/>
<path d="M29.0856 38.6152V40.1047H30.6167V38.6152H29.0856Z" fill="#59BE92"/>
<path d="M27.5544 38.6152V40.1047H29.0856V38.6152H27.5544Z" fill="#59BE92"/>
<path d="M26.0232 40.1047V41.5942H27.5544V40.1047H26.0232Z" fill="#59BE92"/>
<path d="M24.4921 40.1047V41.5942H26.0232V40.1047H24.4921Z" fill="#59BE92"/>
<path d="M26.0232 38.6152V40.1047H27.5544V38.6152H26.0232Z" fill="#59BE92"/>
<path d="M24.4921 38.6152V40.1047H26.0232V38.6152H24.4921Z" fill="#59BE92"/>
<path d="M22.9609 40.1047V41.5942H24.4921V40.1047H22.9609Z" fill="#59BE92"/>
<path d="M22.9609 38.6152V40.1047H24.4921V38.6152H22.9609Z" fill="#59BE92"/>
<path d="M35.2102 37.1289V38.6184H36.7414V37.1289H35.2102Z" fill="#59BE92"/>
<path d="M35.2102 35.6391V37.1287H36.7414V35.6391H35.2102Z" fill="#59BE92"/>
<path d="M33.6791 37.1289V38.6184H35.2102V37.1289H33.6791Z" fill="#59BE92"/>
<path d="M33.6791 35.6425V37.1321H35.2102V35.6425H33.6791Z" fill="#59BE92"/>
<path d="M32.1479 37.132V38.6216H33.6791V37.132H32.1479Z" fill="#59BE92"/>
<path d="M32.1479 35.6425V37.1321H33.6791V35.6425H32.1479Z" fill="#59BE92"/>
<path d="M30.6167 37.132V38.6216H32.1479V37.132H30.6167Z" fill="#59BE92"/>
<path d="M30.6167 35.6425V37.1321H32.1479V35.6425H30.6167Z" fill="#59BE92"/>
<path d="M29.0856 37.1289V38.6184H30.6167V37.1289H29.0856Z" fill="#59BE92"/>
<path d="M29.0856 35.6391V37.1287H30.6167V35.6391H29.0856Z" fill="#59BE92"/>
<path d="M27.5544 37.1289V38.6184H29.0856V37.1289H27.5544Z" fill="#59BE92"/>
<path d="M27.5544 35.6391V37.1287H29.0856V35.6391H27.5544Z" fill="#59BE92"/>
<path d="M26.0232 37.1289V38.6184H27.5544V37.1289H26.0232Z" fill="#59BE92"/>
<path d="M26.0232 35.6391V37.1287H27.5544V35.6391H26.0232Z" fill="#59BE92"/>
<path d="M24.4954 37.1289V38.6184H26.0265V37.1289H24.4954Z" fill="#59BE92"/>
<path d="M22.9642 37.1289V38.6184H24.4954V37.1289H22.9642Z" fill="#59BE92"/>
<path d="M21.4331 37.1289V38.6184H22.9643V37.1289H21.4331Z" fill="#59BE92"/>
<path d="M19.9019 37.1289V38.6184H21.433V37.1289H19.9019Z" fill="#59BE92"/>
<path d="M24.4921 35.6391V37.1287H26.0232V35.6391H24.4921Z" fill="#59BE92"/>
<path d="M22.9642 35.6391V37.1287H24.4954V35.6391H22.9642Z" fill="#59BE92"/>
<path d="M21.4331 35.6391V37.1287H22.9643V35.6391H21.4331Z" fill="#59BE92"/>
<path d="M19.9019 35.6391V37.1287H21.433V35.6391H19.9019Z" fill="#59BE92"/>
<path d="M18.3707 37.1289V38.6184H19.9019V37.1289H18.3707Z" fill="#59BE92"/>
<path d="M16.8395 37.1289V38.6184H18.3706V37.1289H16.8395Z" fill="#59BE92"/>
<path d="M18.3707 35.6391V37.1287H19.9019V35.6391H18.3707Z" fill="#59BE92"/>
<path d="M16.8395 35.6391V37.1287H18.3706V35.6391H16.8395Z" fill="#59BE92"/>
<path d="M15.3083 37.1289V38.6184H16.8395V37.1289H15.3083Z" fill="#59BE92"/>
<path d="M21.4297 38.6152V40.1047H22.9609V38.6152H21.4297Z" fill="#59BE92"/>
<path d="M19.9019 38.6152V40.1047H21.433V38.6152H19.9019Z" fill="#59BE92"/>
<path d="M18.3707 38.6152V40.1047H19.9019V38.6152H18.3707Z" fill="#59BE92"/>
<path d="M16.8395 38.6184V40.1079H18.3706V38.6184H16.8395Z" fill="#59BE92"/>
<path d="M15.3083 38.6184V40.1079H16.8395V38.6184H15.3083Z" fill="#59BE92"/>
<path d="M13.7772 38.6184V40.1079H15.3084V38.6184H13.7772Z" fill="#59BE92"/>
<path d="M12.246 38.6184V40.1079H13.7771V38.6184H12.246Z" fill="#59BE92"/>
<path d="M10.7148 38.6184V40.1079H12.246V38.6184H10.7148Z" fill="#32B686"/>
<path d="M9.18372 38.6152V40.1047H10.7149V38.6152H9.18372Z" fill="#32B686"/>
<path d="M9.18372 37.1289V38.6184H10.7149V37.1289H9.18372Z" fill="#32B686"/>
<path d="M9.18372 35.6391V37.1287H10.7149V35.6391H9.18372Z" fill="#32B686"/>
<path d="M7.65247 38.6152V40.1047H9.18364V38.6152H7.65247Z" fill="#32B686"/>
<path d="M15.3083 35.6391V37.1287H16.8395V35.6391H15.3083Z" fill="#59BE92"/>
<path d="M13.7772 37.1289V38.6184H15.3084V37.1289H13.7772Z" fill="#59BE92"/>
<path d="M12.246 37.132V38.6216H13.7771V37.132H12.246Z" fill="#59BE92"/>
<path d="M13.7772 35.6425V37.1321H15.3084V35.6425H13.7772Z" fill="#59BE92"/>
<path d="M12.246 35.6425V37.1321H13.7771V35.6425H12.246Z" fill="#59BE92"/>
<path d="M10.7148 37.132V38.6216H12.246V37.132H10.7148Z" fill="#32B686"/>
<path d="M10.7148 35.6425V37.1321H12.246V35.6425H10.7148Z" fill="#32B686"/>
<path d="M26.0266 49.042V50.5315H27.5578V49.042H26.0266Z" fill="#00AC75"/>
<path d="M22.9642 47.5522V49.0417H24.4954V47.5522H22.9642Z" fill="#00AC75"/>
<path d="M22.9642 46.0627V47.5522H24.4954V46.0627H22.9642Z" fill="#00AC75"/>
<path d="M22.9642 49.042V50.5315H24.4954V49.042H22.9642Z" fill="#00AC75"/>
<path d="M21.433 47.5522V49.0417H22.9642V47.5522H21.433Z" fill="#00AC75"/>
<path d="M21.433 46.0627V47.5522H22.9642V46.0627H21.433Z" fill="#00AC75"/>
<path d="M21.433 49.042V50.5315H22.9642V49.042H21.433Z" fill="#00AC75"/>
<path d="M21.433 50.5315V52.021H22.9642V50.5315H21.433Z" fill="#00AC75"/>
<path d="M21.433 52.0241V53.5137H22.9642V52.0241H21.433Z" fill="#00AC75"/>
<path d="M19.9019 53.5105V55H21.433V53.5105H19.9019Z" fill="#00AC75"/>
<path d="M18.3707 53.5105V55H19.9019V53.5105H18.3707Z" fill="#00AC75"/>
<path d="M19.9019 47.5522V49.0417H21.433V47.5522H19.9019Z" fill="#32B686"/>
<path d="M19.9019 46.0627V47.5522H21.433V46.0627H19.9019Z" fill="#32B686"/>
<path d="M19.9019 49.042V50.5315H21.433V49.042H19.9019Z" fill="#32B686"/>
<path d="M18.3707 47.5522V49.0417H19.9019V47.5522H18.3707Z" fill="#59BE92"/>
<path d="M18.3707 46.0627V47.5522H19.9019V46.0627H18.3707Z" fill="#59BE92"/>
<path d="M18.3707 49.042V50.5315H19.9019V49.042H18.3707Z" fill="#32B686"/>
<path d="M16.8395 47.5522V49.0417H18.3706V47.5522H16.8395Z" fill="#32B686"/>
<path d="M16.8395 46.0627V47.5522H18.3706V46.0627H16.8395Z" fill="#59BE92"/>
<path d="M16.8395 49.042V50.5315H18.3706V49.042H16.8395Z" fill="#32B686"/>
<path d="M15.3083 47.5522V49.0417H16.8395V47.5522H15.3083Z" fill="#59BE92"/>
<path d="M15.3083 46.0627V47.5522H16.8395V46.0627H15.3083Z" fill="#32B686"/>
<path d="M15.3083 49.042V50.5315H16.8395V49.042H15.3083Z" fill="#32B686"/>
<path d="M13.7772 47.5522V49.0417H15.3084V47.5522H13.7772Z" fill="#59BE92"/>
<path d="M13.7772 46.0627V47.5522H15.3084V46.0627H13.7772Z" fill="#59BE92"/>
<path d="M13.7772 49.042V50.5315H15.3084V49.042H13.7772Z" fill="#32B686"/>
<path d="M12.246 47.5522V49.0417H13.7771V47.5522H12.246Z" fill="#32B686"/>
<path d="M12.246 46.0627V47.5522H13.7771V46.0627H12.246Z" fill="#32B686"/>
<path d="M12.2494 49.042V50.5315H13.7806V49.042H12.2494Z" fill="#32B686"/>
<path d="M10.7181 47.549V49.0386H12.2493V47.549H10.7181Z" fill="#32B686"/>
<path d="M10.7148 46.0595V47.5491H12.246V46.0595H10.7148Z" fill="#32B686"/>
<path d="M10.7181 49.0385V50.5281H12.2493V49.0385H10.7181Z" fill="#32B686"/>
<path d="M9.18701 47.549V49.0386H10.7182V47.549H9.18701Z" fill="#32B686"/>
<path d="M9.18701 46.0627V47.5522H10.7182V46.0627H9.18701Z" fill="#32B686"/>
<path d="M9.18701 49.0385V50.5281H10.7182V49.0385H9.18701Z" fill="#32B686"/>
<path d="M7.65588 47.5522V49.0417H9.18705V47.5522H7.65588Z" fill="#32B686"/>
<path d="M7.65588 46.0627V47.5522H9.18705V46.0627H7.65588Z" fill="#32B686"/>
<path d="M7.65588 49.0385V50.5281H9.18705V49.0385H7.65588Z" fill="#32B686"/>
<path d="M6.12463 47.5522V49.0417H7.6558V47.5522H6.12463Z" fill="#00AC75"/>
<path d="M6.12463 46.0627V47.5522H7.6558V46.0627H6.12463Z" fill="#00AC75"/>
<path d="M6.12463 49.042V50.5315H7.6558V49.042H6.12463Z" fill="#00AC75"/>
<path d="M4.59351 47.5522V49.0417H6.12468V47.5522H4.59351Z" fill="#00AC75"/>
<path d="M4.59351 46.0627V47.5522H6.12468V46.0627H4.59351Z" fill="#00AC75"/>
<path d="M4.59351 49.042V50.5315H6.12468V49.042H4.59351Z" fill="#00AC75"/>
<path d="M19.9019 50.5346V52.0242H21.433V50.5346H19.9019Z" fill="#00AC75"/>
<path d="M18.374 50.5346V52.0242H19.9052V50.5346H18.374Z" fill="#00AC75"/>
<path d="M16.8429 50.5346V52.0242H18.3741V50.5346H16.8429Z" fill="#00AC75"/>
<path d="M15.3116 50.5346V52.0242H16.8428V50.5346H15.3116Z" fill="#00AC75"/>
<path d="M13.7805 50.5346V52.0242H15.3117V50.5346H13.7805Z" fill="#00AC75"/>
<path d="M12.2494 50.5346V52.0242H13.7806V50.5346H12.2494Z" fill="#00AC75"/>
<path d="M10.7181 50.5315V52.021H12.2493V50.5315H10.7181Z" fill="#00AC75"/>
<path d="M9.18701 50.5315V52.021H10.7182V50.5315H9.18701Z" fill="#00AC75"/>
<path d="M7.65588 50.5315V52.021H9.18705V50.5315H7.65588Z" fill="#00AC75"/>
<path d="M6.12463 50.5315V52.021H7.6558V50.5315H6.12463Z" fill="#00AC75"/>
<path d="M4.59351 50.5315V52.021H6.12468V50.5315H4.59351Z" fill="#00AC75"/>
<path d="M19.9019 52.0241V53.5137H21.433V52.0241H19.9019Z" fill="#00AC75"/>
<path d="M18.3707 52.0241V53.5137H19.9019V52.0241H18.3707Z" fill="#00AC75"/>
<path d="M16.8395 52.0241V53.5137H18.3706V52.0241H16.8395Z" fill="#00AC75"/>
<path d="M15.3083 52.0241V53.5137H16.8395V52.0241H15.3083Z" fill="#00AC75"/>
<path d="M13.7772 52.0273V53.5168H15.3084V52.0273H13.7772Z" fill="#00AC75"/>
<path d="M10.7148 52.0241V53.5137H12.246V52.0241H10.7148Z" fill="#00AC75"/>
<path d="M12.246 52.0273V53.5168H13.7771V52.0273H12.246Z" fill="#00AC75"/>
<path d="M9.18372 52.0241V53.5137H10.7149V52.0241H9.18372Z" fill="#00AC75"/>
<path d="M7.65247 52.0241V53.5137H9.18364V52.0241H7.65247Z" fill="#00AC75"/>
<path d="M6.12134 52.0241V53.5137H7.65251V52.0241H6.12134Z" fill="#00AC75"/>
<path d="M16.8429 53.5105V55H18.3741V53.5105H16.8429Z" fill="#00AC75"/>
<path d="M15.3116 53.5105V55H16.8428V53.5105H15.3116Z" fill="#00AC75"/>
<path d="M13.7805 53.5105V55H15.3117V53.5105H13.7805Z" fill="#00AC75"/>
<path d="M12.2494 53.5105V55H13.7806V53.5105H12.2494Z" fill="#00AC75"/>
<path d="M10.7181 53.5073V54.9968H12.2493V53.5073H10.7181Z" fill="#00AC75"/>
<path d="M9.18701 53.5073V54.9968H10.7182V53.5073H9.18701Z" fill="#00AC75"/>
<path d="M16.8395 55V56.4895H18.3706V55H16.8395Z" fill="#00AC75"/>
<path d="M15.3083 55.0031V56.4927H16.8395V55.0031H15.3083Z" fill="#00AC75"/>
<path d="M13.7772 55.0031V56.4927H15.3084V55.0031H13.7772Z" fill="#00AC75"/>
<path d="M12.246 55.0031V56.4927H13.7771V55.0031H12.246Z" fill="#00AC75"/>
<path d="M10.7148 55V56.4895H12.246V55H10.7148Z" fill="#00AC75"/>
<path d="M9.18372 55V56.4895H10.7149V55H9.18372Z" fill="#00AC75"/>
<path d="M7.65588 53.5073V54.9968H9.18705V53.5073H7.65588Z" fill="#00AC75"/>
<path d="M6.12463 53.5073V54.9968H7.6558V53.5073H6.12463Z" fill="#00AC75"/>
<path d="M4.59351 52.0241V53.5137H6.12468V52.0241H4.59351Z" fill="#00AC75"/>
<path d="M3.06238 47.5522V49.0417H4.59355V47.5522H3.06238Z" fill="#00AC75"/>
<path d="M3.06238 46.0627V47.5522H4.59355V46.0627H3.06238Z" fill="#00AC75"/>
<path d="M19.9019 44.5732V46.0627H21.433V44.5732H19.9019Z" fill="#59BE92"/>
<path d="M19.9019 43.0837V44.5732H21.433V43.0837H19.9019Z" fill="#59BE92"/>
<path d="M18.3707 44.5732V46.0627H19.9019V44.5732H18.3707Z" fill="#59BE92"/>
<path d="M18.3707 43.0837V44.5732H19.9019V43.0837H18.3707Z" fill="#59BE92"/>
<path d="M16.8395 44.5732V46.0627H18.3706V44.5732H16.8395Z" fill="#59BE92"/>
<path d="M16.8395 43.0837V44.5732H18.3706V43.0837H16.8395Z" fill="#59BE92"/>
<path d="M15.3083 44.5732V46.0627H16.8395V44.5732H15.3083Z" fill="#59BE92"/>
<path d="M15.3083 43.0837V44.5732H16.8395V43.0837H15.3083Z" fill="#59BE92"/>
<path d="M13.7772 44.5732V46.0627H15.3084V44.5732H13.7772Z" fill="#59BE92"/>
<path d="M13.7772 43.0837V44.5732H15.3084V43.0837H13.7772Z" fill="#59BE92"/>
<path d="M12.246 44.5732V46.0627H13.7771V44.5732H12.246Z" fill="#59BE92"/>
<path d="M12.246 43.0869V44.5764H13.7771V43.0869H12.246Z" fill="#59BE92"/>
<path d="M10.7148 44.5732V46.0627H12.246V44.5732H10.7148Z" fill="#32B686"/>
<path d="M10.7148 43.0837V44.5732H12.246V43.0837H10.7148Z" fill="#32B686"/>
<path d="M9.18372 44.5732V46.0627H10.7149V44.5732H9.18372Z" fill="#32B686"/>
<path d="M9.18372 43.0837V44.5732H10.7149V43.0837H9.18372Z" fill="#32B686"/>
<path d="M7.65588 44.5732V46.0627H9.18705V44.5732H7.65588Z" fill="#32B686"/>
<path d="M7.65247 43.0837V44.5732H9.18364V43.0837H7.65247Z" fill="#32B686"/>
<path d="M6.12463 44.5732V46.0627H7.6558V44.5732H6.12463Z" fill="#00AC75"/>
<path d="M6.12463 43.0837V44.5732H7.6558V43.0837H6.12463Z" fill="#00AC75"/>
<path d="M4.59351 44.5732V46.0627H6.12468V44.5732H4.59351Z" fill="#00AC75"/>
<path d="M4.59351 43.0837V44.5732H6.12468V43.0837H4.59351Z" fill="#00AC75"/>
<path d="M3.06238 44.5732V46.0627H4.59355V44.5732H3.06238Z" fill="#00AC75"/>
<path d="M3.06238 43.0837V44.5732H4.59355V43.0837H3.06238Z" fill="#00AC75"/>
<path d="M18.3707 41.5942V43.0837H19.9019V41.5942H18.3707Z" fill="#59BE92"/>
<path d="M16.8395 41.5942V43.0837H18.3706V41.5942H16.8395Z" fill="#59BE92"/>
<path d="M15.3083 41.5942V43.0837H16.8395V41.5942H15.3083Z" fill="#59BE92"/>
<path d="M13.7772 41.5974V43.0869H15.3084V41.5974H13.7772Z" fill="#59BE92"/>
<path d="M12.246 41.5974V43.0869H13.7771V41.5974H12.246Z" fill="#59BE92"/>
<path d="M10.7148 41.5942V43.0837H12.246V41.5942H10.7148Z" fill="#32B686"/>
<path d="M9.18372 41.5942V43.0837H10.7149V41.5942H9.18372Z" fill="#32B686"/>
<path d="M7.65247 41.5942V43.0837H9.18364V41.5942H7.65247Z" fill="#32B686"/>
<path d="M6.12134 41.5942V43.0837H7.65251V41.5942H6.12134Z" fill="#00AC75"/>
<path d="M4.59351 41.5942V43.0837H6.12468V41.5942H4.59351Z" fill="#00AC75"/>
<path d="M18.3707 40.1047V41.5942H19.9019V40.1047H18.3707Z" fill="#59BE92"/>
<path d="M16.8395 40.1047V41.5942H18.3706V40.1047H16.8395Z" fill="#59BE92"/>
<path d="M15.3083 40.1079V41.5974H16.8395V40.1079H15.3083Z" fill="#59BE92"/>
<path d="M13.7772 40.1079V41.5974H15.3084V40.1079H13.7772Z" fill="#59BE92"/>
<path d="M12.246 40.1079V41.5974H13.7771V40.1079H12.246Z" fill="#59BE92"/>
<path d="M10.7148 40.1047V41.5942H12.246V40.1047H10.7148Z" fill="#32B686"/>
<path d="M9.18372 40.1047V41.5942H10.7149V40.1047H9.18372Z" fill="#32B686"/>
<path d="M7.65247 40.1047V41.5942H9.18363V40.1047H7.65247Z" fill="#32B686"/>
<path d="M6.12134 40.1047V41.5942H7.65251V40.1047H6.12134Z" fill="#00AC75"/>
<path d="M4.59021 40.1047V41.5942H6.12138V40.1047H4.59021Z" fill="#00AC75"/>
<path d="M6.12463 38.6184V40.1079H7.6558V38.6184H6.12463Z" fill="#00AC75"/>
<path d="M7.65588 37.1255V38.615H9.18705V37.1255H7.65588Z" fill="#32B686"/>
<path d="M4.59351 38.6184V40.1079H6.12468V38.6184H4.59351Z" fill="#00AC75"/>
<path d="M3.06238 41.5942V43.0837H4.59355V41.5942H3.06238Z" fill="#00AC75"/>
<path d="M3.06238 49.042V50.5315H4.59355V49.042H3.06238Z" fill="#00AC75"/>
<path d="M43.8725 56.6606H42.3413V58.1502H43.8725V56.6606Z" fill="#008459"/>
<path d="M45.4037 56.6604H43.8726V58.15H45.4037H46.9316V56.6604V55.1709H45.4037V56.6604Z" fill="#008459"/>
<path d="M47.928 59.1194H41.335V55.6912H44.4073V54.2017H47.928V59.1194Z" fill="#194742"/>
<path d="M43.8725 56.6604H42.3413V58.1499H43.8725V56.6604Z" fill="#008459"/>
<path d="M45.4036 56.6604H43.8724V58.1499H45.4036V56.6604Z" fill="#008459"/>
<path d="M46.9349 56.6604H45.4037V58.1499H46.9349V56.6604Z" fill="#008459"/>
<path d="M46.9349 55.1709H45.4037V56.6604H46.9349V55.1709Z" fill="#008459"/>
<path d="M21.8217 56.6604H20.2906H18.7594V58.15H20.2906H21.8217H23.3529V56.6604V55.1709H21.8217V56.6604Z" fill="#008459"/>
<path d="M24.3493 59.1194H17.7629V55.6912H20.8253V54.2017H24.3493V59.1194Z" fill="#194742"/>
<path d="M20.2906 56.6604H18.7594V58.1499H20.2906V56.6604Z" fill="#008459"/>
<path d="M21.8217 56.6604H20.2905V58.1499H21.8217V56.6604Z" fill="#008459"/>
<path d="M23.3529 56.6604H21.8218V58.1499H23.3529V56.6604Z" fill="#008459"/>
<path d="M23.3529 55.1709H21.8218V56.6604H23.3529V55.1709Z" fill="#008459"/>
<path d="M45.3439 38.0656V36.3693H41.7169V37.5616H38.0932V38.7506H34.4662V39.9429H32.9583H27.3485H23.7215V38.7506H20.0978V37.5583H16.4742V36.3693H12.8472V35.177H7.10779V55.1614H10.7314V56.3536H14.3584V57.5427H17.9821V58.735H21.6091V59.924H25.2327H27.3485H32.9583V59.9272H36.582V58.735H40.209V57.5459H43.8326V56.3536H47.4596V55.1614V38.0656H45.3439Z" fill="white"/>
<path d="M37.2463 60.5734H20.9415V59.3812H17.3178V58.1921H13.6908V56.9998H10.0672V55.8076H6.44019V34.5308H13.5081V35.723H17.1318V36.9153H20.7555V38.1076H24.3824V39.2999H33.7986V38.1108H37.4223V36.9185H41.0493V35.7263H46.0015V37.4226H48.1172V57.0031H44.4903V58.1953H40.8666V59.3876H37.2396V60.5799L37.2463 60.5734ZM33.6226 59.281H35.9177V58.0887H39.5447V56.8964H43.1683V55.7042H46.7953V38.7086H44.6796V37.0122H42.3845V38.2045H38.7575V39.3968H35.1339V40.5891H23.0605V39.3968H19.4335V38.2045H15.8099V37.0122H12.1862V35.82H7.77539V54.5119H11.4024V55.7042H15.026V56.8964H18.653V58.0855H22.2767V59.2778H33.6259L33.6226 59.281Z" fill="#184742"/>
<path d="M45.3738 36.576V37.8458H41.6837V39.1189H37.9936V40.3887H34.3069V41.6617H32.769H27.0629V41.6585H23.3728V40.3887H19.6827V39.1156H15.9959V37.8458H12.3058V36.5728H6.4668V57.9109H10.1536V59.184H13.8436V60.4538H17.5337V61.7269H21.2205V62.9967H24.9106H27.0629H32.769V62.9999H36.4591V61.7269H40.1459V60.4538H43.836V59.184H47.5261V57.9109H51.2128V36.576H45.3738Z" fill="#184742"/>
<path d="M30.6168 42.7087H27.1127V61.9532H30.6168V42.7087Z" fill="#1F70FF"/>
<path d="M22.2967 41.4324H18.6099V40.1593H14.9198V38.8895H11.2297V37.6165H7.54297V56.8609H11.2297V58.1339H14.9198V59.4038H18.6099V60.6768H22.2967V61.9466H25.9868V42.7022H22.2967V41.4324Z" fill="#1F70FF"/>
<path d="M22.2967 56.5507H18.6099V55.2777H14.9198V54.0078H11.2297V37.6165H7.54297V56.8609H11.2297V58.1339H14.9198V59.4038H18.6099V60.6768H22.2967V61.9466H25.9868V57.8238H22.2967V56.5507Z" fill="#1769E0"/>
<path d="M46.45 37.6196V38.8895H42.7599V40.1625H39.0698V41.4323H35.3831V42.7054H31.693V61.9498H35.3831V60.6768H39.0698V59.4069H42.7599V58.1339H46.45V56.8641H50.1368V37.6196H46.45Z" fill="#1F70FF"/>
<path d="M4.53032 43.9593H3.59701V42.4698H2.73344V40.9802H1.20227V42.4698H2.06584V43.9593H2.99915V45.4456H4.53032V45.4488H9.28658V43.9593H4.53032Z" fill="#184742"/>
<path d="M10.117 46.2565L2.16883 46.2533V44.767H1.23551V43.2775H0.371948V40.1724H3.56382V41.6619H4.42739V43.1514H10.117V46.2565Z" fill="#184742"/>
<path d="M10.6018 42.447H9.07068V43.9366H10.6018V42.447Z" fill="#184742"/>
<path d="M11.4322 41.6392H8.24036V44.7442H11.4322V41.6392Z" fill="#184742"/>
<path d="M4.53032 43.9593H3.59701V42.4698H2.73344V40.9802H1.20227V42.4698H2.06584V43.9593H2.99915V45.4456H4.53032V45.4488H9.28658V43.9593H4.53032Z" fill="#008459"/>
<path d="M10.6018 42.447H9.07068V43.9366H10.6018V42.447Z" fill="#008459"/>
<path d="M51.1696 41.8105H49.6384V43.3001H51.1696V41.8105Z" fill="#184742"/>
<path d="M52 41.0027H48.8081V44.1078H52V41.0027Z" fill="#184742"/>
<path d="M51.1696 41.8105H49.6384V43.3001H51.1696V41.8105Z" fill="#008459"/>
<path d="M23.7281 31.9104V30.4209H22.197V31.9104H23.7281Z" fill="#184742"/>
<path d="M25.2594 31.9104V30.4209H23.7282V31.9104H25.2594Z" fill="white"/>
<path d="M23.7281 33.3999V31.9104H22.197V33.3999H23.7281Z" fill="#184742"/>
<path d="M25.2594 33.3999V31.9104H23.7282V33.3999H25.2594Z" fill="#184742"/>
<path d="M32.9119 31.9136V30.4241H31.3807V31.9136H32.9119Z" fill="#184742"/>
<path d="M34.4431 31.9136V30.4241H32.9119V31.9136H34.4431Z" fill="white"/>
<path d="M32.9119 33.4031V31.9136H31.3807V33.4031H32.9119Z" fill="#184742"/>
<path d="M34.4431 33.4031V31.9136H32.9119V33.4031H34.4431Z" fill="#184742"/>
<path d="M25.05 29.1447V28.3499H23.7946V29.1447H25.05Z" fill="#184742"/>
<path d="M24.4191 28.7472V27.9524H23.1636V28.7472H24.4191Z" fill="#184742"/>
<path d="M23.7913 28.3498V27.5549H22.5358V28.3498H23.7913Z" fill="#184742"/>
<path d="M22.8347 28.6342V27.8394H21.5792V28.6342H22.8347Z" fill="#184742"/>
<path d="M34.7081 28.4985L34.3295 27.7942L33.2169 28.3602L33.5956 29.0646L34.7081 28.4985Z" fill="#184742"/>
<path d="M33.9586 28.4302L33.58 27.7258L32.4674 28.2919L32.8461 28.9962L33.9586 28.4302Z" fill="#184742"/>
<path d="M33.2168 28.3635L32.8381 27.6592L31.7256 28.2252L32.1043 28.9296L33.2168 28.3635Z" fill="#184742"/>
<path d="M32.5011 29.0444L32.1224 28.3401L31.0099 28.9061L31.3886 29.6105L32.5011 29.0444Z" fill="#184742"/>
<path d="M29.8529 35.4776V33.988H26.7939V35.4776H29.8529Z" fill="#184742"/>
<path d="M45.8089 47.0191V46.3082H45.0782V45.5941H44.3442V44.8833H39.1894V45.5941H38.4553V46.3082H37.7246V47.0191H36.9906V52.7478H37.7246V53.4619H38.4553V54.1727H39.1894V54.8868H44.3442V54.1727H45.0782V53.4619H45.8089V52.7478H46.543V47.0191H45.8089Z" fill="#184742"/>
<path d="M40.6707 51.3101H39.9366V52.0241H40.6707V51.3101Z" fill="#F1E500"/>
<path d="M39.9367 51.3101H39.2026V52.0241H39.9367V51.3101Z" fill="#F1E500"/>
<path d="M39.206 51.3101H38.4719V52.0241H39.206V51.3101Z" fill="#F1E500"/>
<path d="M38.4719 51.3101H37.7379V52.0241H38.4719V51.3101Z" fill="#FAF05B"/>
<path d="M40.6707 50.5959H39.9366V51.31H40.6707V50.5959Z" fill="#F1E500"/>
<path d="M39.9367 50.5959H39.2026V51.31H39.9367V50.5959Z" fill="#F1E500"/>
<path d="M39.206 50.5959H38.4719V51.31H39.206V50.5959Z" fill="#F1E500"/>
<path d="M38.4719 50.5959H37.7379V51.31H38.4719V50.5959Z" fill="#FAF05B"/>
<path d="M40.6707 49.8853H39.9366V50.5993H40.6707V49.8853Z" fill="#F1E500"/>
<path d="M39.9367 49.8853H39.2026V50.5993H39.9367V49.8853Z" fill="#F1E500"/>
<path d="M39.206 49.8853H38.4719V50.5993H39.206V49.8853Z" fill="#F1E500"/>
<path d="M38.4719 49.8853H37.7379V50.5993H38.4719V49.8853Z" fill="#FAF05B"/>
<path d="M40.6707 49.1711H39.9366V49.8852H40.6707V49.1711Z" fill="#F1E500"/>
<path d="M39.9367 49.1711H39.2026V49.8852H39.9367V49.1711Z" fill="#F1E500"/>
<path d="M39.206 49.1711H38.4719V49.8852H39.206V49.1711Z" fill="#F1E500"/>
<path d="M38.4719 49.1711H37.7379V49.8852H38.4719V49.1711Z" fill="#FAF05B"/>
<path d="M40.6707 48.4602H39.9366V49.1743H40.6707V48.4602Z" fill="#F1E500"/>
<path d="M39.9367 48.4602H39.2026V49.1743H39.9367V48.4602Z" fill="#F1E500"/>
<path d="M39.206 48.4602H38.4719V49.1743H39.206V48.4602Z" fill="#F1E500"/>
<path d="M38.4719 48.4602H37.7379V49.1743H38.4719V48.4602Z" fill="#FAF05B"/>
<path d="M40.6707 47.7461H39.9366V48.4602H40.6707V47.7461Z" fill="#F1E500"/>
<path d="M41.4014 47.7461H40.6674V48.4602H41.4014V47.7461Z" fill="#F1E500"/>
<path d="M42.1355 47.7461H41.4015V48.4602H42.1355V47.7461Z" fill="#F1E500"/>
<path d="M42.8661 47.7461H42.1321V48.4602H42.8661V47.7461Z" fill="#F1E500"/>
<path d="M43.6002 47.7461H42.8662V48.4602H43.6002V47.7461Z" fill="#F1E500"/>
<path d="M44.331 47.7461H43.5969V48.4602H44.331V47.7461Z" fill="#F1E500"/>
<path d="M45.065 47.7461H44.3309V48.4602H45.065V47.7461Z" fill="#F1E500"/>
<path d="M41.4014 47.0354H40.6674V47.7495H41.4014V47.0354Z" fill="#F1E500"/>
<path d="M42.1355 47.0354H41.4015V47.7495H42.1355V47.0354Z" fill="#F1E500"/>
<path d="M42.8661 47.0354H42.1321V47.7495H42.8661V47.0354Z" fill="#F1E500"/>
<path d="M43.6002 47.0354H42.8662V47.7495H43.6002V47.0354Z" fill="#F1E500"/>
<path d="M44.331 47.0354H43.5969V47.7495H44.331V47.0354Z" fill="#F1E500"/>
<path d="M41.4014 46.3213H40.6674V47.0354H41.4014V46.3213Z" fill="#F1E500"/>
<path d="M42.1355 46.3213H41.4015V47.0354H42.1355V46.3213Z" fill="#F1E500"/>
<path d="M42.8661 46.3213H42.1321V47.0354H42.8661V46.3213Z" fill="#F1E500"/>
<path d="M43.6002 46.3213H42.8662V47.0354H43.6002V46.3213Z" fill="#F1E500"/>
<path d="M44.331 46.3213H43.5969V47.0354H44.331V46.3213Z" fill="#F1E500"/>
<path d="M45.065 47.0354H44.3309V47.7495H45.065V47.0354Z" fill="#F1E500"/>
<path d="M41.4014 48.4602H40.6674V49.1743H41.4014V48.4602Z" fill="#F1E500"/>
<path d="M42.1355 48.4602H41.4015V49.1743H42.1355V48.4602Z" fill="#F1E500"/>
<path d="M42.8661 48.4602H42.1321V49.1743H42.8661V48.4602Z" fill="#F1E500"/>
<path d="M43.6002 48.4602H42.8662V49.1743H43.6002V48.4602Z" fill="#F1E500"/>
<path d="M44.331 48.4602H43.5969V49.1743H44.331V48.4602Z" fill="#F1E500"/>
<path d="M45.065 48.4602H44.3309V49.1743H45.065V48.4602Z" fill="#F1E500"/>
<path d="M41.4014 49.1711H40.6674V49.8852H41.4014V49.1711Z" fill="#F1E500"/>
<path d="M42.1355 49.1711H41.4015V49.8852H42.1355V49.1711Z" fill="#F1E500"/>
<path d="M42.8661 49.1711H42.1321V49.8852H42.8661V49.1711Z" fill="#F1E500"/>
<path d="M43.6002 49.1711H42.8662V49.8852H43.6002V49.1711Z" fill="#F1E500"/>
<path d="M44.331 49.1711H43.5969V49.8852H44.331V49.1711Z" fill="#F1E500"/>
<path d="M45.065 49.1711H44.3309V49.8852H45.065V49.1711Z" fill="#F1E500"/>
<path d="M41.4014 49.8853H40.6674V50.5993H41.4014V49.8853Z" fill="#F1E500"/>
<path d="M42.1355 49.8853H41.4015V50.5993H42.1355V49.8853Z" fill="#F1E500"/>
<path d="M42.8661 49.8853H42.1321V50.5993H42.8661V49.8853Z" fill="#F1E500"/>
<path d="M43.6002 49.8853H42.8662V50.5993H43.6002V49.8853Z" fill="#F1E500"/>
<path d="M44.331 49.8853H43.5969V50.5993H44.331V49.8853Z" fill="#F1E500"/>
<path d="M45.065 49.8853H44.3309V50.5993H45.065V49.8853Z" fill="#F1E500"/>
<path d="M41.4014 50.5959H40.6674V51.31H41.4014V50.5959Z" fill="#F1E500"/>
<path d="M42.1355 50.5959H41.4015V51.31H42.1355V50.5959Z" fill="#F1E500"/>
<path d="M42.8661 50.5959H42.1321V51.31H42.8661V50.5959Z" fill="#F1E500"/>
<path d="M43.6002 50.5959H42.8662V51.31H43.6002V50.5959Z" fill="#F1E500"/>
<path d="M44.331 50.5959H43.5969V51.31H44.331V50.5959Z" fill="#F1E500"/>
<path d="M45.065 50.5959H44.3309V51.31H45.065V50.5959Z" fill="#F1E500"/>
<path d="M41.4014 51.3101H40.6674V52.0241H41.4014V51.3101Z" fill="#F1E500"/>
<path d="M42.1355 51.3101H41.4015V52.0241H42.1355V51.3101Z" fill="#F1E500"/>
<path d="M42.8661 51.3101H42.1321V52.0241H42.8661V51.3101Z" fill="#F1E500"/>
<path d="M43.6002 51.3101H42.8662V52.0241H43.6002V51.3101Z" fill="#F1E500"/>
<path d="M44.331 51.3101H43.5969V52.0241H44.331V51.3101Z" fill="#F1E500"/>
<path d="M40.6707 52.0242H39.9366V52.7382H40.6707V52.0242Z" fill="#F1E500"/>
<path d="M39.9367 52.0242H39.2026V52.7382H39.9367V52.0242Z" fill="#F1E500"/>
<path d="M39.206 52.0242H38.4719V52.7382H39.206V52.0242Z" fill="#F1E500"/>
<path d="M41.4014 52.0242H40.6674V52.7382H41.4014V52.0242Z" fill="#F1E500"/>
<path d="M42.1355 52.0242H41.4015V52.7382H42.1355V52.0242Z" fill="#F1E500"/>
<path d="M42.8661 52.0242H42.1321V52.7382H42.8661V52.0242Z" fill="#F1E500"/>
<path d="M43.6002 52.0242H42.8662V52.7382H43.6002V52.0242Z" fill="#F1E500"/>
<path d="M40.6707 52.7351H39.9366V53.4492H40.6707V52.7351Z" fill="#F1E500"/>
<path d="M39.9367 52.7351H39.2026V53.4492H39.9367V52.7351Z" fill="#F1E500"/>
<path d="M41.4014 52.7351H40.6674V53.4492H41.4014V52.7351Z" fill="#F1E500"/>
<path d="M42.1355 52.7351H41.4015V53.4492H42.1355V52.7351Z" fill="#F1E500"/>
<path d="M42.8661 52.7351H42.1321V53.4492H42.8661V52.7351Z" fill="#F1E500"/>
<path d="M43.6002 52.7351H42.8662V53.4492H43.6002V52.7351Z" fill="#F1E500"/>
<path d="M40.6707 53.449H39.9366V54.1631H40.6707V53.449Z" fill="#F1E500"/>
<path d="M41.4014 53.449H40.6674V54.1631H41.4014V53.449Z" fill="#F1E500"/>
<path d="M42.1355 53.449H41.4015V54.1631H42.1355V53.449Z" fill="#F1E500"/>
<path d="M42.8661 53.449H42.1321V54.1631H42.8661V53.449Z" fill="#F1E500"/>
<path d="M43.6002 53.449H42.8662V54.1631H43.6002V53.449Z" fill="#F1E500"/>
<path d="M44.331 52.0242H43.5969V52.7382H44.331V52.0242Z" fill="#F1E500"/>
<path d="M44.331 52.7351H43.5969V53.4492H44.331V52.7351Z" fill="#F1E500"/>
<path d="M45.065 52.0242H44.3309V52.7382H45.065V52.0242Z" fill="#F1E500"/>
<path d="M45.065 51.3101H44.3309V52.0241H45.065V51.3101Z" fill="#F1E500"/>
<path d="M45.799 47.7461H45.0649V48.4602H45.799V47.7461Z" fill="#E0C835"/>
<path d="M45.799 48.4602H45.0649V49.1743H45.799V48.4602Z" fill="#E0C835"/>
<path d="M45.799 49.1711H45.0649V49.8852H45.799V49.1711Z" fill="#E0C835"/>
<path d="M45.799 49.8853H45.0649V50.5993H45.799V49.8853Z" fill="#E0C835"/>
<path d="M45.799 50.5959H45.0649V51.31H45.799V50.5959Z" fill="#E0C835"/>
<path d="M45.799 51.3101H45.0649V52.0241H45.799V51.3101Z" fill="#E0C835"/>
<path d="M39.9367 47.7461H39.2026V48.4602H39.9367V47.7461Z" fill="#F1E500"/>
<path d="M39.206 47.7461H38.4719V48.4602H39.206V47.7461Z" fill="#FFFED5"/>
<path d="M40.6707 47.0354H39.9366V47.7495H40.6707V47.0354Z" fill="#F1E500"/>
<path d="M39.9367 47.0354H39.2026V47.7495H39.9367V47.0354Z" fill="#FFFED5"/>
<path d="M39.2026 47.0354H39.9366V46.3213H39.2026V47.0354Z" fill="#F1E500"/>
<path d="M39.9333 47.0354H40.6674V46.3213H39.9333V47.0354Z" fill="#FFFED5"/>
<path d="M41.4014 45.6072H40.6674V46.3213H41.4014V45.6072Z" fill="#F1E500"/>
<path d="M42.1355 45.6072H41.4015V46.3213H42.1355V45.6072Z" fill="#F1E500"/>
<path d="M42.8661 45.6072H42.1321V46.3213H42.8661V45.6072Z" fill="#F1E500"/>
<path d="M43.6002 45.6072H42.8662V46.3213H43.6002V45.6072Z" fill="#F1E500"/>
<path d="M39.9333 46.3245H40.6674V45.6104H39.9333V46.3245Z" fill="#FFFED5"/>
<path d="M39.206 47.0354H38.4719V47.7495H39.206V47.0354Z" fill="#F1E500"/>
<path d="M38.4719 47.7461H37.7379V48.4602H38.4719V47.7461Z" fill="#FAF05B"/>
<path d="M41.4014 48.4602H40.6674V49.1743H41.4014V48.4602Z" fill="#184742"/>
<path d="M42.1354 48.4602H41.4014V49.1743H42.1354V48.4602Z" fill="#184742"/>
<path d="M42.1354 49.1709H41.4014V49.885H42.1354V49.1709Z" fill="#184742"/>
<path d="M42.1354 49.885H41.4014V50.5991H42.1354V49.885Z" fill="#184742"/>
<path d="M42.1354 50.5959H41.4014V51.31H42.1354V50.5959Z" fill="#184742"/>
<path d="M42.1354 51.3101H41.4014V52.0241H42.1354V51.3101Z" fill="#184742"/>
<path d="M41.4014 51.3101H40.6674V52.0241H41.4014V51.3101Z" fill="#184742"/>
<path d="M42.8661 51.3101H42.1321V52.0241H42.8661V51.3101Z" fill="#184742"/>
<path d="M42.1354 47.7461H41.4014V48.4602H42.1354V47.7461Z" fill="#184742"/>
</g>
<defs>
<clipPath id="clip0_4703_83711">
<rect width="52" height="63" fill="white"/>
</clipPath>
</defs>
</svg>
