<svg width="24" height="24" viewBox="0 0 24 24" fill="none" xmlns="http://www.w3.org/2000/svg">
<rect x="8.53857" y="5.76929" width="1.38462" height="1.38462" fill="#56698F" fill-opacity="0.06"/>
<rect x="9.92334" y="5.76929" width="1.38462" height="1.38462" fill="#56698F" fill-opacity="0.06"/>
<rect x="9.92334" y="4.38464" width="1.38462" height="1.38462" fill="#56698F" fill-opacity="0.06"/>
<rect x="11.3076" y="5.76929" width="1.38462" height="1.38462" fill="#56698F" fill-opacity="0.06"/>
<rect x="11.3076" y="4.38464" width="1.38462" height="1.38462" fill="#56698F" fill-opacity="0.06"/>
<rect x="12.6924" y="5.76929" width="1.38462" height="1.38462" fill="#56698F" fill-opacity="0.06"/>
<rect x="12.6924" y="4.38464" width="1.38462" height="1.38462" fill="#56698F" fill-opacity="0.06"/>
<rect x="14.0771" y="5.76929" width="1.38462" height="1.38462" fill="#56698F" fill-opacity="0.06"/>
<rect x="15.4619" y="5.76929" width="1.38462" height="1.38462" fill="#56698F" fill-opacity="0.06"/>
<rect x="7.15381" y="5.76929" width="1.38462" height="1.38462" fill="#56698F" fill-opacity="0.06"/>
<rect x="7.15381" y="7.15387" width="1.38462" height="1.38462" fill="#56698F" fill-opacity="0.06"/>
<rect x="8.53857" y="7.15387" width="1.38462" height="1.38462" fill="#56698F" fill-opacity="0.06"/>
<rect x="9.92334" y="7.15387" width="1.38462" height="1.38462" fill="#56698F" fill-opacity="0.06"/>
<rect x="11.3076" y="7.15387" width="1.38462" height="1.38462" fill="#56698F" fill-opacity="0.06"/>
<rect x="12.6924" y="7.15387" width="1.38462" height="1.38462" fill="#56698F" fill-opacity="0.06"/>
<rect x="14.0771" y="7.15387" width="1.38462" height="1.38462" fill="#56698F" fill-opacity="0.06"/>
<rect x="15.4619" y="7.15387" width="1.38462" height="1.38462" fill="#56698F" fill-opacity="0.06"/>
<rect x="16.8462" y="7.15387" width="1.38462" height="1.38462" fill="#56698F" fill-opacity="0.06"/>
<rect x="5.76953" y="7.15387" width="1.38462" height="1.38462" fill="#56698F" fill-opacity="0.06"/>
<rect x="8.53857" y="8.53851" width="1.38462" height="1.38462" fill="#56698F" fill-opacity="0.06"/>
<rect x="9.92334" y="8.53851" width="1.38462" height="1.38462" fill="#56698F" fill-opacity="0.06"/>
<rect x="11.3076" y="8.53851" width="1.38462" height="1.38462" fill="#56698F" fill-opacity="0.06"/>
<rect x="12.6924" y="8.53851" width="1.38462" height="1.38462" fill="#56698F" fill-opacity="0.06"/>
<rect x="14.0771" y="8.53851" width="1.38462" height="1.38462" fill="#56698F" fill-opacity="0.06"/>
<rect x="15.4619" y="8.53851" width="1.38462" height="1.38462" fill="#56698F" fill-opacity="0.06"/>
<rect x="16.8462" y="8.53851" width="1.38462" height="1.38462" fill="#56698F" fill-opacity="0.06"/>
<rect x="7.15381" y="8.53851" width="1.38462" height="1.38462" fill="#56698F" fill-opacity="0.06"/>
<rect x="5.76953" y="9.9231" width="1.38462" height="1.38462" fill="#E8F1F3"/>
<rect x="7.15381" y="9.9231" width="1.38462" height="1.38462" fill="#E8F1F3"/>
<rect x="5.76953" y="8.53851" width="1.38462" height="1.38462" fill="#56698F" fill-opacity="0.06"/>
<rect x="7.15381" y="9.9231" width="1.38462" height="1.38462" fill="#56698F" fill-opacity="0.06"/>
<rect x="8.53857" y="9.9231" width="1.38462" height="1.38462" fill="#56698F" fill-opacity="0.06"/>
<rect x="9.92334" y="9.9231" width="1.38462" height="1.38462" fill="#56698F" fill-opacity="0.06"/>
<rect x="11.3076" y="9.9231" width="1.38462" height="1.38462" fill="#56698F" fill-opacity="0.06"/>
<rect x="12.6924" y="9.9231" width="1.38462" height="1.38462" fill="#56698F" fill-opacity="0.06"/>
<rect x="14.0771" y="9.9231" width="1.38462" height="1.38462" fill="#56698F" fill-opacity="0.06"/>
<rect x="15.4619" y="9.9231" width="1.38462" height="1.38462" fill="#56698F" fill-opacity="0.06"/>
<rect x="16.8462" y="9.9231" width="1.38462" height="1.38462" fill="#56698F" fill-opacity="0.06"/>
<rect x="18.231" y="9.9231" width="1.38462" height="1.38462" fill="#56698F" fill-opacity="0.06"/>
<rect x="18.231" y="11.3077" width="1.38462" height="1.38462" fill="#56698F" fill-opacity="0.06"/>
<rect x="5.76953" y="9.9231" width="1.38462" height="1.38462" fill="#56698F" fill-opacity="0.06"/>
<rect x="4.38477" y="9.9231" width="1.38462" height="1.38462" fill="#56698F" fill-opacity="0.06"/>
<rect x="4.38477" y="11.3077" width="1.38462" height="1.38462" fill="#56698F" fill-opacity="0.06"/>
<rect x="8.53857" y="11.3077" width="1.38462" height="1.38462" fill="#56698F" fill-opacity="0.06"/>
<rect x="9.92334" y="11.3077" width="1.38462" height="1.38462" fill="#56698F" fill-opacity="0.06"/>
<rect x="11.3076" y="11.3077" width="1.38462" height="1.38462" fill="#56698F" fill-opacity="0.06"/>
<rect x="12.6924" y="11.3077" width="1.38462" height="1.38462" fill="#56698F" fill-opacity="0.06"/>
<rect x="14.0771" y="11.3077" width="1.38462" height="1.38462" fill="#56698F" fill-opacity="0.06"/>
<rect x="15.4619" y="11.3077" width="1.38462" height="1.38462" fill="#56698F" fill-opacity="0.06"/>
<rect x="16.8462" y="11.3077" width="1.38462" height="1.38462" fill="#56698F" fill-opacity="0.06"/>
<rect x="7.15381" y="11.3077" width="1.38462" height="1.38462" fill="#56698F" fill-opacity="0.06"/>
<rect x="5.76953" y="11.3077" width="1.38462" height="1.38462" fill="#56698F" fill-opacity="0.06"/>
<rect x="7.15381" y="12.6923" width="1.38462" height="1.38462" fill="#56698F" fill-opacity="0.06"/>
<rect x="8.53857" y="12.6923" width="1.38462" height="1.38462" fill="#56698F" fill-opacity="0.06"/>
<rect x="9.92334" y="12.6923" width="1.38462" height="1.38462" fill="#56698F" fill-opacity="0.06"/>
<rect x="11.3076" y="12.6923" width="1.38462" height="1.38462" fill="#56698F" fill-opacity="0.06"/>
<rect x="12.6924" y="12.6923" width="1.38462" height="1.38462" fill="#56698F" fill-opacity="0.06"/>
<rect x="14.0771" y="12.6923" width="1.38462" height="1.38462" fill="#56698F" fill-opacity="0.06"/>
<rect x="15.4619" y="12.6923" width="1.38462" height="1.38462" fill="#56698F" fill-opacity="0.06"/>
<rect x="16.8462" y="12.6923" width="1.38462" height="1.38462" fill="#56698F" fill-opacity="0.06"/>
<rect x="18.231" y="12.6923" width="1.38462" height="1.38462" fill="#56698F" fill-opacity="0.06"/>
<rect x="5.76953" y="12.6923" width="1.38462" height="1.38462" fill="#56698F" fill-opacity="0.06"/>
<rect x="7.15381" y="14.077" width="1.38462" height="1.38462" fill="#56698F" fill-opacity="0.06"/>
<rect x="8.53857" y="14.077" width="1.38462" height="1.38462" fill="#56698F" fill-opacity="0.06"/>
<rect x="9.92334" y="14.077" width="1.38462" height="1.38462" fill="#56698F" fill-opacity="0.06"/>
<rect x="11.3076" y="14.077" width="1.38462" height="1.38462" fill="#56698F" fill-opacity="0.06"/>
<rect x="12.6924" y="14.077" width="1.38462" height="1.38462" fill="#56698F" fill-opacity="0.06"/>
<rect x="14.0771" y="14.077" width="1.38462" height="1.38462" fill="#56698F" fill-opacity="0.06"/>
<rect x="15.4619" y="14.077" width="1.38462" height="1.38462" fill="#56698F" fill-opacity="0.06"/>
<rect x="16.8462" y="14.077" width="1.38462" height="1.38462" fill="#56698F" fill-opacity="0.06"/>
<rect x="18.231" y="14.077" width="1.38462" height="1.38462" fill="#56698F" fill-opacity="0.06"/>
<rect x="5.76953" y="14.077" width="1.38462" height="1.38462" fill="#56698F" fill-opacity="0.06"/>
<rect x="7.15381" y="15.4615" width="1.38462" height="1.38462" fill="#56698F" fill-opacity="0.06"/>
<rect x="8.53857" y="15.4615" width="1.38462" height="1.38462" fill="#56698F" fill-opacity="0.06"/>
<rect x="9.92334" y="15.4615" width="1.38462" height="1.38462" fill="#56698F" fill-opacity="0.06"/>
<rect x="11.3076" y="15.4615" width="1.38462" height="1.38462" fill="#56698F" fill-opacity="0.06"/>
<rect x="12.6924" y="15.4615" width="1.38462" height="1.38462" fill="#56698F" fill-opacity="0.06"/>
<rect x="14.0771" y="15.4615" width="1.38462" height="1.38462" fill="#56698F" fill-opacity="0.06"/>
<rect x="15.4619" y="15.4615" width="1.38462" height="1.38462" fill="#56698F" fill-opacity="0.06"/>
<rect x="16.8462" y="15.4615" width="1.38462" height="1.38462" fill="#56698F" fill-opacity="0.06"/>
<rect x="7.15381" y="16.8462" width="1.38462" height="1.38462" fill="#56698F" fill-opacity="0.06"/>
<rect x="8.53857" y="16.8462" width="1.38462" height="1.38462" fill="#56698F" fill-opacity="0.06"/>
<rect x="9.92334" y="16.8462" width="1.38462" height="1.38462" fill="#56698F" fill-opacity="0.06"/>
<rect x="9.92334" y="16.8462" width="1.38462" height="1.38462" fill="#56698F" fill-opacity="0.06"/>
<rect x="9.92334" y="18.2308" width="1.38462" height="1.38462" fill="#56698F" fill-opacity="0.06"/>
<rect x="11.3076" y="16.8462" width="1.38462" height="1.38462" fill="#56698F" fill-opacity="0.06"/>
<rect x="11.3076" y="16.8462" width="1.38462" height="1.38462" fill="#56698F" fill-opacity="0.06"/>
<rect x="11.3076" y="18.2308" width="1.38462" height="1.38462" fill="#56698F" fill-opacity="0.06"/>
<rect x="12.6924" y="16.8462" width="1.38462" height="1.38462" fill="#56698F" fill-opacity="0.06"/>
<rect x="12.6924" y="16.8462" width="1.38462" height="1.38462" fill="#56698F" fill-opacity="0.06"/>
<rect x="12.6924" y="18.2308" width="1.38462" height="1.38462" fill="#56698F" fill-opacity="0.06"/>
<rect x="14.0771" y="16.8462" width="1.38462" height="1.38462" fill="#56698F" fill-opacity="0.06"/>
<rect x="16.8462" y="16.8462" width="1.38462" height="1.38462" fill="#56698F" fill-opacity="0.06"/>
<rect x="18.231" y="15.4615" width="1.38462" height="1.38462" fill="#56698F" fill-opacity="0.06"/>
<rect x="5.76953" y="15.4615" width="1.38462" height="1.38462" fill="#56698F" fill-opacity="0.06"/>
<rect x="4.38477" y="12.6923" width="1.38462" height="1.38462" fill="#56698F" fill-opacity="0.06"/>
<rect x="4.38477" y="11.3077" width="1.38462" height="1.38462" fill="#E8F1F3"/>
<rect x="4.38477" y="12.6923" width="1.38462" height="1.38462" fill="#E8F1F3"/>
<rect x="5.76953" y="14.077" width="1.38462" height="2.76923" fill="#E8F1F3"/>
<rect x="7.15381" y="16.8462" width="1.38462" height="1.38462" fill="#E8F1F3"/>
<rect x="8.53857" y="16.8462" width="1.38462" height="1.38462" fill="#E8F1F3"/>
<rect x="9.92334" y="16.8462" width="1.38462" height="2.76923" fill="#E8F1F3"/>
<rect x="4.38477" y="9.9231" width="1.38462" height="1.38462" fill="#E8F1F3"/>
<rect x="5.76953" y="8.53851" width="1.38462" height="1.38462" fill="#E8F1F3"/>
<rect x="5.76953" y="7.15387" width="1.38462" height="1.38462" fill="#E8F1F3"/>
<rect x="7.15381" y="5.76929" width="1.38462" height="1.38462" fill="#E8F1F3"/>
<rect x="8.53857" y="5.76929" width="1.38462" height="1.38462" fill="#E8F1F3"/>
<rect x="9.92334" y="4.38464" width="1.38462" height="1.38462" fill="#E8F1F3"/>
<rect x="9.92285" y="19.6154" width="4.15385" height="1.38462" fill="#303030"/>
<rect x="9.92285" y="3" width="4.15385" height="1.38462" fill="#303030"/>
<rect x="7.15381" y="18.2308" width="1.38462" height="1.38462" fill="#303030"/>
<rect x="8.53857" y="18.2308" width="1.38462" height="1.38462" fill="#303030"/>
<rect x="14.0771" y="18.2308" width="2.76923" height="1.38462" fill="#303030"/>
<rect x="7.15381" y="4.38464" width="2.76923" height="1.38462" fill="#303030"/>
<rect x="14.0771" y="4.38464" width="2.76923" height="1.38462" fill="#303030"/>
<rect x="5.76904" y="16.8461" width="1.38462" height="1.38462" fill="#303030"/>
<rect x="16.8462" y="16.8461" width="1.38462" height="1.38462" fill="#56698F" fill-opacity="0.06"/>
<rect x="15.4614" y="16.8461" width="1.38462" height="1.38462" fill="#56698F" fill-opacity="0.06"/>
<rect x="5.76904" y="5.76923" width="1.38462" height="1.38462" fill="#303030"/>
<rect x="16.8462" y="5.76923" width="1.38462" height="1.38462" fill="#303030"/>
<rect x="4.38477" y="14.0769" width="1.38462" height="2.76923" fill="#303030"/>
<rect x="18.231" y="15.4615" width="1.38462" height="1.38462" fill="#303030"/>
<rect x="18.231" y="14.0769" width="2.76923" height="1.38462" fill="#303030"/>
<rect x="4.38477" y="7.15387" width="1.38462" height="2.76923" fill="#303030"/>
<rect x="18.231" y="8.53845" width="1.38462" height="1.38462" fill="#303030"/>
<rect x="18.231" y="7.15387" width="1.38462" height="1.38462" fill="#303030"/>
<rect x="3" y="9.9231" width="1.38462" height="4.15385" fill="#303030"/>
<rect x="19.6152" y="11.3077" width="1.38462" height="2.76923" fill="#303030"/>
<rect x="19.6152" y="9.9231" width="1.38462" height="1.38462" fill="#303030"/>
<rect x="16.8462" y="16.8461" width="1.8" height="1.38462" fill="#303030"/>
<rect x="12.3271" y="12.3272" width="0.654546" height="0.654546" transform="rotate(-180 12.3271 12.3272)" fill="#303030"/>
<rect x="12.9819" y="12.9816" width="0.654546" height="0.654546" transform="rotate(-180 12.9819 12.9816)" fill="#303030"/>
<rect x="12.9819" y="11.6725" width="0.654546" height="0.654546" transform="rotate(-180 12.9819 11.6725)" fill="#303030"/>
<rect x="13.6362" y="11.0182" width="0.654546" height="0.654546" transform="rotate(-180 13.6362 11.0182)" fill="#303030"/>
<rect x="14.291" y="10.3635" width="0.654546" height="0.654546" transform="rotate(-180 14.291 10.3635)" fill="#303030"/>
<rect x="14.9453" y="9.70911" width="0.654546" height="0.654546" transform="rotate(-180 14.9453 9.70911)" fill="#303030"/>
<rect x="15.6001" y="9.05469" width="0.654546" height="0.654546" transform="rotate(-180 15.6001 9.05469)" fill="#303030"/>
<rect x="13.6362" y="13.6363" width="0.654546" height="0.654546" transform="rotate(-180 13.6362 13.6363)" fill="#303030"/>
<rect x="14.291" y="14.291" width="0.654546" height="0.654546" transform="rotate(-180 14.291 14.291)" fill="#303030"/>
<rect x="14.9453" y="14.9454" width="0.654546" height="0.654546" transform="rotate(-180 14.9453 14.9454)" fill="#303030"/>
<rect x="15.6001" y="15.6" width="0.654546" height="0.654546" transform="rotate(-180 15.6001 15.6)" fill="#303030"/>
<rect width="0.654546" height="0.654546" transform="matrix(1 -8.74228e-08 -8.74228e-08 -1 11.6724 12.3272)" fill="#303030"/>
<rect width="0.654546" height="0.654546" transform="matrix(1 -8.74228e-08 -8.74228e-08 -1 11.0181 12.9816)" fill="#303030"/>
<rect width="0.654546" height="0.654546" transform="matrix(1 -8.74228e-08 -8.74228e-08 -1 11.0181 11.6725)" fill="#303030"/>
<rect width="0.654546" height="0.654546" transform="matrix(1 -8.74228e-08 -8.74228e-08 -1 10.3633 11.0182)" fill="#303030"/>
<rect width="0.654546" height="0.654546" transform="matrix(1 -8.74228e-08 -8.74228e-08 -1 9.70898 10.3635)" fill="#303030"/>
<rect width="0.654546" height="0.654546" transform="matrix(1 -8.74228e-08 -8.74228e-08 -1 9.0542 9.70911)" fill="#303030"/>
<rect width="0.654546" height="0.654546" transform="matrix(1 -8.74228e-08 -8.74228e-08 -1 8.3999 9.05469)" fill="#303030"/>
<rect width="0.654546" height="0.654546" transform="matrix(1 -8.74228e-08 -8.74228e-08 -1 10.3633 13.6363)" fill="#303030"/>
<rect width="0.654546" height="0.654546" transform="matrix(1 -8.74228e-08 -8.74228e-08 -1 9.70898 14.291)" fill="#303030"/>
<rect width="0.654546" height="0.654546" transform="matrix(1 -8.74228e-08 -8.74228e-08 -1 9.0542 14.9454)" fill="#303030"/>
<rect width="0.654546" height="0.654546" transform="matrix(1 -8.74228e-08 -8.74228e-08 -1 8.3999 15.6)" fill="#303030"/>
</svg>
