<svg width="20" height="20" viewBox="0 0 20 20" fill="none" xmlns="http://www.w3.org/2000/svg">
<g id="Pixel/Solid/Ellipses Horizontal">
<path id="Vector" d="M11.6667 9.16667H12.5V10.8333H11.6667V11.6667H10.8333V12.5H9.16667V11.6667H8.33333V10.8333H7.5V9.16667H8.33333V8.33333H9.16667V7.5H10.8333V8.33333H11.6667V9.16667Z" fill="#303030" fill-opacity="0.6"/>
<path id="Vector_2" d="M5.00016 9.16667H5.8335V10.8333H5.00016V11.6667H4.16683V12.5H2.50016V11.6667H1.66683V10.8333H0.833496V9.16667H1.66683V8.33333H2.50016V7.5H4.16683V8.33333H5.00016V9.16667Z" fill="#303030" fill-opacity="0.6"/>
<path id="Vector_3" d="M19.1665 9.16667V10.8333H18.3332V11.6667H17.4998V12.5H15.8332V11.6667H14.9998V10.8333H14.1665V9.16667H14.9998V8.33333H15.8332V7.5H17.4998V8.33333H18.3332V9.16667H19.1665Z" fill="#303030" fill-opacity="0.6"/>
</g>
</svg>
