<svg width="25" height="24" viewBox="0 0 25 24" fill="none" xmlns="http://www.w3.org/2000/svg">
<g id="interface-essential-bookmark" clip-path="url(#clip0_3135_39065)">
<g id="Group">
<path id="Vector" d="M24.3334 3.42749H23.1934V21.7125H24.3334V3.42749Z" fill="#000001"/>
<path id="Vector_2" d="M23.1934 21.7124H22.0459V22.8599H23.1934V21.7124Z" fill="#000001"/>
<path id="Vector_3" d="M23.1934 2.2876H22.0459V3.4276H23.1934V2.2876Z" fill="#000001"/>
<path id="Vector_4" d="M22.0461 22.8599H2.62109V23.9999H22.0461V22.8599Z" fill="#000001"/>
<path id="Vector_5" d="M19.7662 18.2849H4.90869V19.4324H19.7662V18.2849Z" fill="#000001"/>
<path id="Vector_6" d="M19.7662 13.7175H4.90869V14.8575H19.7662V13.7175Z" fill="#000001"/>
<path id="Vector_7" d="M19.7658 9.14258H14.0508V10.2826H19.7658V9.14258Z" fill="#000001"/>
<path id="Vector_8" d="M19.7658 5.71509H14.0508V6.85509H19.7658V5.71509Z" fill="#000001"/>
<path id="Vector_9" d="M6.04863 2.2875V10.2825H7.18863V9.1425H8.33613V8.0025H9.47613V9.1425H10.6161V10.2825H11.7636V2.2875H22.0461V1.14H10.6161V0H3.76113V1.14H1.47363V2.2875H6.04863ZM8.33613 1.14H9.47613V2.2875H10.6161V4.575H9.47613V2.2875H8.33613V1.14Z" fill="#000001"/>
<path id="Vector_10" d="M2.62113 21.7124H1.47363V22.8599H2.62113V21.7124Z" fill="#000001"/>
<path id="Vector_11" d="M1.4735 2.2876H0.333496V21.7126H1.4735V2.2876Z" fill="#000001"/>
</g>
</g>
<defs>
<clipPath id="clip0_3135_39065">
<rect width="24" height="24" fill="white" transform="translate(0.333496)"/>
</clipPath>
</defs>
</svg>
