<svg width="25" height="24" viewBox="0 0 25 24" fill="none" xmlns="http://www.w3.org/2000/svg">
<path fill-rule="evenodd" clip-rule="evenodd" d="M12.5715 21.899C11.301 23.1955 9.53022 24 7.57153 24C3.70554 24 0.571533 20.866 0.571533 17C0.571533 15.0413 1.376 13.2705 2.67255 12C1.376 10.7295 0.571533 8.95868 0.571533 7C0.571533 3.134 3.70554 0 7.57153 0C9.53022 0 11.301 0.804474 12.5715 2.10101C13.842 0.804474 15.6128 0 17.5715 0C21.4375 0 24.5715 3.134 24.5715 7C24.5715 8.95868 23.767 10.7295 22.4705 12C23.767 13.2705 24.5715 15.0413 24.5715 17C24.5715 20.866 21.4375 24 17.5715 24C15.6128 24 13.842 23.1955 12.5715 21.899Z" fill="#303030" fill-opacity="0.24"/>
</svg>
