<svg width="24" height="24" viewBox="0 0 24 24" fill="none" xmlns="http://www.w3.org/2000/svg">
<g id="computer-old-electronics">
<g id="Group">
<path id="Vector" d="M22.8561 17.145H19.4286V15.9975H20.5686V14.8575H3.43105V15.9975H4.5748V17.145H1.14355V24H22.8561V17.145ZM5.71105 15.9975H18.2811V17.145H5.71105V15.9975ZM21.7161 22.86H2.28355V18.285H21.7161V22.86Z" fill="#000001"/>
<path id="Vector_2" d="M21.7159 1.14001H20.5684V14.8575H21.7159V1.14001Z" fill="#000001"/>
<path id="Vector_3" d="M19.4284 19.425H13.7134V20.5725H19.4284V19.425Z" fill="#000001"/>
<path id="Vector_4" d="M14.8534 8.00256H13.7134V9.14256H14.8534V8.00256Z" fill="#000001"/>
<path id="Vector_5" d="M14.8534 5.71497H13.7134V6.85497H14.8534V5.71497Z" fill="#000001"/>
<path id="Vector_6" d="M13.7136 9.14246H10.2861V10.2825H13.7136V9.14246Z" fill="#000001"/>
<path id="Vector_7" d="M10.2862 8.00256H9.13867V9.14256H10.2862V8.00256Z" fill="#000001"/>
<path id="Vector_8" d="M10.2862 5.71497H9.13867V6.85497H10.2862V5.71497Z" fill="#000001"/>
<path id="Vector_9" d="M4.57471 13.7176H19.4322V2.2876H4.57471V13.7176ZM5.71096 3.4276H18.281V12.5701H5.71096V3.4276Z" fill="#000001"/>
<path id="Vector_10" d="M6.85879 19.425H4.57129V21.7125H6.85879V19.425Z" fill="#000001"/>
<path id="Vector_11" d="M20.5687 0H3.43115V1.14H20.5687V0Z" fill="#000001"/>
<path id="Vector_12" d="M3.43119 1.14001H2.28369V14.8575H3.43119V1.14001Z" fill="#000001"/>
</g>
</g>
</svg>
