<svg width="18" height="16" viewBox="0 0 18 16" fill="none" xmlns="http://www.w3.org/2000/svg">
<path fill-rule="evenodd" clip-rule="evenodd" d="M0.60012 6.89518C0.589466 3.23063 4.34173 0.248263 8.98087 0.234908C13.62 0.221626 17.3896 3.18181 17.4001 6.84694C17.4106 10.5121 13.6582 13.4937 9.01918 13.5071C8.51385 13.5086 8.00905 13.4742 7.50858 13.4042L4.10981 15.7127C4.06914 15.7451 4.01906 15.7635 3.96707 15.7651C3.91508 15.7666 3.86398 15.7514 3.8214 15.7215C3.77883 15.6916 3.74707 15.6487 3.73088 15.5993C3.71469 15.5499 3.71493 15.4966 3.73158 15.4473L4.51476 12.4874C2.16793 11.3168 0.606907 9.25157 0.60012 6.89518ZM4.36399 9.06176C4.61196 9.06103 4.76543 8.89938 4.7647 8.64017L4.7563 5.72188L5.60093 5.7194C5.86663 5.71867 5.96033 5.52171 5.95989 5.35335C5.96111 5.30542 5.95263 5.25774 5.93496 5.21318C5.91729 5.16861 5.8908 5.12807 5.85708 5.09399C5.82336 5.05992 5.7831 5.033 5.73871 5.01487C5.69433 4.99674 5.64675 4.98776 5.59881 4.98847L3.10559 4.99577C3.05769 4.99539 3.01019 5.0047 2.96597 5.02313C2.92175 5.04157 2.88171 5.06875 2.84826 5.10305C2.8148 5.13735 2.78863 5.17805 2.7713 5.22272C2.75397 5.26739 2.74586 5.3151 2.74743 5.36298C2.74794 5.53141 2.84259 5.72779 3.10771 5.72706L3.95284 5.72458L3.96123 8.64251C3.96196 8.90172 4.11602 9.06249 4.36399 9.06176ZM8.40656 8.98234C8.47842 9.03319 8.56592 9.05705 8.65364 9.04972C8.70067 9.05136 8.74754 9.0436 8.79153 9.0269C8.83551 9.01019 8.87572 8.98487 8.90979 8.95242C8.94387 8.91997 8.97112 8.88105 8.98995 8.83794C9.00879 8.79482 9.01882 8.74837 9.01947 8.70133C9.01516 8.63058 8.99962 8.56096 8.97342 8.4951L7.83413 5.4137C7.72831 5.11705 7.50968 4.94739 7.23434 4.94819C6.92098 4.94906 6.72088 5.19134 6.63798 5.41808L5.48059 8.51094C5.4571 8.56686 5.44471 8.62681 5.4441 8.68746C5.44532 8.73797 5.45661 8.78772 5.47729 8.83382C5.49798 8.87991 5.52765 8.92141 5.56457 8.9559C5.60149 8.99039 5.64491 9.01716 5.69231 9.03466C5.7397 9.05216 5.79011 9.06003 5.84058 9.05782C5.92855 9.06437 6.01594 9.03901 6.08676 8.9864C6.15757 8.93379 6.20706 8.85743 6.22618 8.77131L6.40461 8.22757L8.08356 8.22275L8.26082 8.77175C8.28309 8.85692 8.3347 8.93149 8.40656 8.98234ZM11.7059 8.78439C11.7262 8.74052 11.7376 8.69307 11.7395 8.64477C11.7426 8.59593 11.7358 8.54695 11.7194 8.50083C11.703 8.45471 11.6774 8.41241 11.6441 8.37651C11.6062 8.33893 11.5608 8.30965 11.511 8.29053C11.4611 8.27141 11.4078 8.26287 11.3545 8.26544L10.2403 8.26865L10.232 5.3589C10.2312 5.10005 10.077 4.9398 9.82906 4.94045C9.58117 4.94111 9.42763 5.10239 9.42836 5.36116L9.43755 8.55749C9.43835 8.8359 9.5962 9.00177 9.85891 9.00097L11.3565 8.99673C11.4048 8.99891 11.453 8.99151 11.4985 8.97498C11.5439 8.95844 11.5856 8.93309 11.6212 8.90038C11.6568 8.86767 11.6856 8.82825 11.7059 8.78439ZM14.6852 9.03191C14.7715 9.03169 15.0548 9.00819 15.0853 8.71549C15.1062 8.5518 15.0081 8.42457 14.8897 8.27094L14.8892 8.27033L13.7406 6.77543L14.7052 5.79668C14.7395 5.75724 14.7713 5.72191 14.8003 5.68976L14.8031 5.68663C14.9344 5.54104 15.0001 5.46792 15.0001 5.35744C15.0046 5.12107 14.8089 4.99263 14.6147 4.98803C14.5543 4.98987 14.4949 5.0039 14.4401 5.02928C14.3852 5.05466 14.336 5.09087 14.2955 5.13574L12.8846 6.6151L12.8809 5.32744C12.8834 5.27425 12.8747 5.22112 12.8552 5.17155C12.8358 5.12198 12.8061 5.07709 12.768 5.03981C12.73 5.00254 12.6845 4.97374 12.6345 4.95529C12.5846 4.93685 12.5313 4.92918 12.4782 4.93279C12.4252 4.93067 12.3725 4.93945 12.3231 4.95859C12.2737 4.97773 12.2288 5.00682 12.1912 5.04406C12.1536 5.08129 12.124 5.12587 12.1043 5.17502C12.0846 5.22418 12.0752 5.27685 12.0768 5.32978L12.0863 8.65565C12.087 8.88515 12.2489 9.03913 12.4897 9.0384C12.5416 9.04057 12.5933 9.03221 12.6419 9.01383C12.6904 8.99545 12.7347 8.96742 12.7722 8.93144C12.8096 8.89546 12.8393 8.85228 12.8596 8.80449C12.8799 8.7567 12.8903 8.7053 12.8902 8.65338L12.887 7.57159L13.1749 7.27633L14.2347 8.71235C14.3903 8.9212 14.474 9.01439 14.6225 9.02899C14.6433 9.03102 14.6643 9.03199 14.6852 9.03191ZM6.62781 7.5148L7.22781 5.68435C7.22816 5.68327 7.22873 5.68229 7.22946 5.68145C7.22986 5.68099 7.23031 5.68058 7.23081 5.68022C7.23222 5.6792 7.23392 5.67864 7.23566 5.67864C7.2374 5.67864 7.2391 5.6792 7.24051 5.68022C7.24192 5.68125 7.24297 5.68269 7.2435 5.68435L7.85511 7.51122L6.62781 7.5148Z" fill="#3B1E1E"/>
</svg>
