<svg width="100" height="100" viewBox="0 0 100 100" fill="none" xmlns="http://www.w3.org/2000/svg">
<g id="Layer_1" clip-path="url(#clip0_3327_41777)">
<g id="Group">
<g id="Group_2">
<path id="Vector" d="M17.5633 9.21955H20.6179H23.6659H26.7205H29.7751H32.8297H35.8843H38.9389H41.9935V6.16495H38.9389H35.8843V3.11035H32.8297H29.7751H26.7205H23.6659H20.6179H17.5633V6.16495H14.5087H11.4541V9.21955H14.5087H17.5633Z" fill="#184742"/>
<path id="Vector_2" d="M44.6439 11.87H8.80371V3.51456H14.9129V0.459961H38.5413V3.51456H44.6505V11.87H44.6439ZM20.2137 6.56916H33.2405V5.76078H20.2137V6.56916Z" fill="#184742"/>
</g>
<g id="Group_3">
<path id="Vector_3" d="M63.3697 9.21955H66.4243H69.4789H72.5335H75.5881H78.6427H81.6972H84.7518H87.8064V6.16495H84.7518H81.6972V3.11035H78.6427H75.5881H72.5335H69.4789H66.4243H63.3697V6.16495H60.3217H57.2671V9.21955H60.3217H63.3697Z" fill="#184742"/>
<path id="Vector_4" d="M90.4569 11.87H54.6167V3.51456H60.7259V0.459961H84.3543V3.51456H90.4635V11.87H90.4569ZM66.0201 6.56916H79.0469V5.76078H66.0201V6.56916Z" fill="#184742"/>
</g>
<g id="Group_4">
<path id="Vector_5" d="M90.8613 64.1956H93.9159V61.141V58.0864H90.8613V61.141V64.1956Z" fill="#184742"/>
<path id="Vector_6" d="M96.5659 55.436H88.2104V66.8461H96.5659V55.436Z" fill="#184742"/>
</g>
<g id="Group_5">
<path id="Vector_7" d="M84.7514 55.0319H87.806V51.9839H84.7514H81.6968V55.0319H84.7514Z" fill="#184742"/>
<path id="Vector_8" d="M90.4564 49.3269H79.0464V57.6823H90.4564V49.3269Z" fill="#184742"/>
</g>
<g id="Group_6">
<path id="Vector_9" d="M90.8612 55.032H87.8066V58.0866H90.8612V55.032Z" fill="#184742"/>
<path id="Vector_10" d="M93.5112 52.3816H85.1558V60.737H93.5112V52.3816Z" fill="#184742"/>
</g>
<g id="Group_7">
<path id="Vector_11" d="M93.9155 67.2502V70.3048V73.3593V76.4139V79.4685V82.5231H96.9701V79.4685V76.4139V73.3593V70.3048V67.2502V64.1956H93.9155V67.2502Z" fill="#184742"/>
<path id="Vector_12" d="M99.6206 61.5452H91.2651V85.1736H99.6206V61.5452Z" fill="#184742"/>
</g>
<g id="Group_8">
<path id="Vector_13" d="M54.2123 15.3221H72.5398H90.8608H87.8062H54.2123ZM41.9939 15.3287H8.3999H11.4545H45.0485H41.9939ZM41.9939 36.7043H60.3148H57.2602H38.9326V33.6497V36.6977H41.9872L41.9939 36.7043ZM69.4852 45.8681V42.8201V39.7655V42.8135V45.8681ZM41.9939 48.9227H54.2123H51.1577H41.9939ZM45.0485 64.2023H48.1031H63.3761H60.3215H45.0485Z" fill="#184742"/>
<path id="Vector_14" d="M62.2495 100.44H60.7189V97.3854H54.6097V94.3308H51.5551V91.2762H47.6921V94.3308H44.6375V97.3854H38.5283V100.44H30.1729H14.8999V97.3854H8.79068V94.3308H5.73608V91.2762H2.68148V85.167H-0.359863V61.5386H2.69474V55.4294H5.74933V52.3748H8.80393V48.5118H5.74933V45.4572H2.69474V39.348H-0.359863V15.7329H2.69474V9.62369H5.74933V6.56909H47.6987V9.62369H51.5617V6.56909H93.5111V9.62369H96.5657V15.7329H99.6203V39.3613H96.5657V45.4705H93.5111V48.5251H90.4565V51.5797H84.3473V52.3947H90.4565V55.4493H93.5111V61.5519H96.5657V91.2829H93.5111V94.3374H90.4565V97.392H84.3473V100.447H70.6049M67.5503 95.1392H79.0464V94.3374H66.0197V95.1392H67.5503ZM20.214 95.1392H33.2407V94.3374H20.214V95.1392ZM84.3473 92.0912H85.1556V88.6457H88.2102V88.2415H56.8625V89.0366H59.9171V92.0912H60.7255V89.0433H84.3473V92.0912ZM38.5349 92.0912H39.3433V88.6457H42.3979V88.2415H29.3711V88.6324H24.0703V88.2415H11.0502V89.0366H14.1048V92.0912H14.9131V89.0433H38.5415V92.0912H38.5349ZM7.99556 85.982H8.80393V79.8795H53.8079H54.6163V73.3661H59.9171V79.8795H91.2648V66.8527H88.2102V60.7501H85.1556V57.6955H79.0464V54.6409H51.5617V51.5797H44.6441V54.6343H20.214V57.6889H11.0502V60.7435H7.99556V66.8527H4.94096V79.8795H7.99556V85.9887V85.982ZM62.9717 49.3268H79.0464V46.2722H82.101V43.211H88.2102V40.1564H91.2648V36.3001H85.1556V30.9993H93.5111V34.0539H94.3194V21.0337H90.4565V24.0883H82.101V21.0337H4.94096V34.0539H7.99556V40.163H11.0502V43.2176H14.1048V46.2722H20.214V49.3335H33.254L33.2341 49.254V46.2789H41.5895H57.6643V43.2243H66.8281V39.7721H72.1289V48.5251H62.9651V49.3401L62.9717 49.3268ZM75.1835 12.6717H88.2036V11.8699H56.8559V12.6717H69.8827V12.2807H75.1835V12.6717ZM11.0502 12.6717H42.3979V11.8699H11.0502V12.6717ZM63.3693 66.8527H42.3913V61.5452H66.0197V66.8461H63.3693V66.8527ZM60.3213 39.3613H36.2953V33.6563H41.5961V34.0539H62.9717V39.3547H60.3213V39.3613ZM51.1575 30.1975H45.4525V24.8967H53.8079V30.1909H51.1575V30.1975Z" fill="#184742"/>
</g>
</g>
<path id="Vector_15" d="M17.5629 88.9573H14.5083V92.0119H17.5629V88.9573Z" fill="#12AF8A"/>
<path id="Vector_16" d="M14.5082 88.9573H11.4536V92.0119H14.5082V88.9573Z" fill="#12AF8A"/>
<path id="Vector_17" d="M11.4536 88.9572V85.9026H8.39901V88.9572H11.4536Z" fill="#00AD76"/>
<path id="Vector_18" d="M11.4536 85.9093V82.8547H8.39901V85.9093H11.4536Z" fill="#00AD76"/>
<path id="Vector_19" d="M8.39941 70.6361V67.5815H5.34482V70.6361H8.39941Z" fill="#00AD76"/>
<path id="Vector_20" d="M8.39941 73.6908V70.6362H5.34482V73.6908H8.39941Z" fill="#00AD76"/>
<path id="Vector_21" d="M8.39307 76.7453V73.6907H5.33847V76.7453H8.39307Z" fill="#00AD76"/>
<path id="Vector_22" d="M8.39307 79.8V76.7454H5.33847V79.8H8.39307Z" fill="#00AD76"/>
<path id="Vector_23" d="M8.39941 82.8546V79.8H5.34482V82.8546H8.39941Z" fill="#00AD76"/>
<path id="Vector_24" d="M8.39941 67.5817V64.5271H5.34482V67.5817H8.39941Z" fill="#00AD76"/>
<path id="Vector_25" d="M8.39941 24.8239V21.7693H5.34482V24.8239H8.39941Z" fill="#00AD76"/>
<path id="Vector_26" d="M8.39941 27.8786V24.824H5.34482V27.8786H8.39941Z" fill="#00AD76"/>
<path id="Vector_27" d="M8.39941 30.933V27.8784H5.34482V30.933H8.39941Z" fill="#00AD76"/>
<path id="Vector_28" d="M8.39941 33.9877V30.9331H5.34482V33.9877H8.39941Z" fill="#00AD76"/>
<path id="Vector_29" d="M8.39307 37.0421V33.9875H5.33847V37.0421H8.39307Z" fill="#00AD76"/>
<path id="Vector_30" d="M8.39941 21.7692V18.7146H5.34482V21.7692H8.39941Z" fill="#00AD76"/>
<path id="Vector_31" d="M11.4536 24.8239V21.7693H8.39901V24.8239H11.4536Z" fill="#00AD76"/>
<path id="Vector_32" d="M11.4536 27.8786V24.824H8.39901V27.8786H11.4536Z" fill="#00AD76"/>
<path id="Vector_33" d="M11.4536 30.933V27.8784H8.39901V30.933H11.4536Z" fill="#00AD76"/>
<path id="Vector_34" d="M11.4473 33.9877V30.9331H8.39267V33.9877H11.4473Z" fill="#00AD76"/>
<path id="Vector_35" d="M11.4473 37.0424V33.9878H8.39267V37.0424H11.4473Z" fill="#00AD76"/>
<path id="Vector_36" d="M11.4536 40.0902V37.0356H8.39901V40.0902H11.4536Z" fill="#00AD76"/>
<path id="Vector_37" d="M11.4473 43.1449V40.0903H8.39267V43.1449H11.4473Z" fill="#00AD76"/>
<path id="Vector_38" d="M11.4536 21.7692V18.7146H8.39901V21.7692H11.4536Z" fill="#00AD76"/>
<path id="Vector_39" d="M11.4536 18.7082V15.6536H8.39901V18.7082H11.4536Z" fill="#00AD76"/>
<path id="Vector_40" d="M11.4473 15.6535V12.5989H8.39267V15.6535H11.4473Z" fill="#00AD76"/>
<path id="Vector_41" d="M14.5083 12.6054V9.55078H11.4537V12.6054H14.5083Z" fill="#00AD76"/>
<path id="Vector_42" d="M17.563 12.6056V9.55103H14.5084V12.6056H17.563Z" fill="#00AD76"/>
<path id="Vector_43" d="M14.5083 24.8239V21.7693H11.4537V24.8239H14.5083Z" fill="#00AD76"/>
<path id="Vector_44" d="M14.5083 27.8786V24.824H11.4537V27.8786H14.5083Z" fill="#00AD76"/>
<path id="Vector_45" d="M14.502 30.9333V27.8787H11.4474V30.9333H14.502Z" fill="#00AD76"/>
<path id="Vector_46" d="M14.502 33.9877V30.9331H11.4474V33.9877H14.502Z" fill="#00AD76"/>
<path id="Vector_47" d="M14.502 37.0421V33.9875H11.4474V37.0421H14.502Z" fill="#00AD76"/>
<path id="Vector_48" d="M14.5083 21.7692V18.7146H11.4537V21.7692H14.5083Z" fill="#00AD76"/>
<path id="Vector_49" d="M17.563 24.8236V21.769H14.5084V24.8236H17.563Z" fill="#31B787"/>
<path id="Vector_50" d="M17.5566 27.8786V24.824H14.502V27.8786H17.5566Z" fill="#31B787"/>
<path id="Vector_51" d="M17.5566 30.9333V27.8787H14.502V30.9333H17.5566Z" fill="#31B787"/>
<path id="Vector_52" d="M17.5566 33.9877V30.9331H14.502V33.9877H17.5566Z" fill="#31B787"/>
<path id="Vector_53" d="M17.5566 37.0421V33.9875H14.502V37.0421H17.5566Z" fill="#31B787"/>
<path id="Vector_54" d="M17.563 21.7694V18.7148H14.5084V21.7694H17.563Z" fill="#31B787"/>
<path id="Vector_55" d="M20.6113 24.8239V21.7693H17.5567V24.8239H20.6113Z" fill="#31B787"/>
<path id="Vector_56" d="M20.6113 27.8786V24.824H17.5567V27.8786H20.6113Z" fill="#88CDA9"/>
<path id="Vector_57" d="M20.6113 30.9333V27.8787H17.5567V30.9333H20.6113Z" fill="#88CDA9"/>
<path id="Vector_58" d="M20.6113 33.9877V30.9331H17.5567V33.9877H20.6113Z" fill="#59BF93"/>
<path id="Vector_59" d="M20.6113 37.0421V33.9875H17.5567V37.0421H20.6113Z" fill="#88CDA9"/>
<path id="Vector_60" d="M20.6177 21.7692V18.7146H17.5631V21.7692H20.6177Z" fill="#31B787"/>
<path id="Vector_61" d="M23.6655 24.8239V21.7693H20.6109V24.8239H23.6655Z" fill="#59BF93"/>
<path id="Vector_62" d="M23.6655 27.8786V24.824H20.6109V27.8786H23.6655Z" fill="#59BF93"/>
<path id="Vector_63" d="M23.6655 30.933V27.8784H20.6109V30.933H23.6655Z" fill="#59BF93"/>
<path id="Vector_64" d="M23.6655 33.9877V30.9331H20.6109V33.9877H23.6655Z" fill="#59BF93"/>
<path id="Vector_65" d="M23.6655 37.0424V33.9878H20.6109V37.0424H23.6655Z" fill="#59BF93"/>
<path id="Vector_66" d="M23.6655 21.7692V18.7146H20.6109V21.7692H23.6655Z" fill="#88CDA9"/>
<path id="Vector_67" d="M26.7207 24.8173V21.7627H23.6661V24.8173H26.7207Z" fill="#59BF93"/>
<path id="Vector_68" d="M26.7207 27.872V24.8174H23.6661V27.872H26.7207Z" fill="#59BF93"/>
<path id="Vector_69" d="M26.7207 30.9264V27.8718H23.6661V30.9264H26.7207Z" fill="#59BF93"/>
<path id="Vector_70" d="M26.7207 33.9811V30.9265H23.6661V33.9811H26.7207Z" fill="#59BF93"/>
<path id="Vector_71" d="M26.7207 37.0356V33.981H23.6661V37.0356H26.7207Z" fill="#59BF93"/>
<path id="Vector_72" d="M26.7207 21.7626V18.708H23.6661V21.7626H26.7207Z" fill="#59BF93"/>
<path id="Vector_73" d="M29.7749 24.8173V21.7627H26.7203V24.8173H29.7749Z" fill="#59BF93"/>
<path id="Vector_74" d="M29.7749 27.872V24.8174H26.7203V27.872H29.7749Z" fill="#59BF93"/>
<path id="Vector_75" d="M29.7749 30.9264V27.8718H26.7203V30.9264H29.7749Z" fill="#59BF93"/>
<path id="Vector_76" d="M29.7749 33.9811V30.9265H26.7203V33.9811H29.7749Z" fill="#59BF93"/>
<path id="Vector_77" d="M29.7749 37.0356V33.981H26.7203V37.0356H29.7749Z" fill="#59BF93"/>
<path id="Vector_78" d="M29.7749 21.7694V18.7148H26.7203V21.7694H29.7749Z" fill="#59BF93"/>
<path id="Vector_79" d="M32.8296 24.8239V21.7693H29.775V24.8239H32.8296Z" fill="#59BF93"/>
<path id="Vector_80" d="M32.8296 27.872V24.8174H29.775V27.872H32.8296Z" fill="#59BF93"/>
<path id="Vector_81" d="M32.8296 30.9264V27.8718H29.775V30.9264H32.8296Z" fill="#59BF93"/>
<path id="Vector_82" d="M32.8296 33.9811V30.9265H29.775V33.9811H32.8296Z" fill="#59BF93"/>
<path id="Vector_83" d="M32.8296 37.0356V33.981H29.775V37.0356H32.8296Z" fill="#59BF93"/>
<path id="Vector_84" d="M32.8296 21.7694V18.7148H29.775V21.7694H32.8296Z" fill="#59BF93"/>
<path id="Vector_85" d="M35.8843 24.8239V21.7693H32.8297V24.8239H35.8843Z" fill="#59BF93"/>
<path id="Vector_86" d="M35.8843 27.8786V24.824H32.8297V27.8786H35.8843Z" fill="#59BF93"/>
<path id="Vector_87" d="M35.8843 30.9264V27.8718H32.8297V30.9264H35.8843Z" fill="#59BF93"/>
<path id="Vector_88" d="M35.8843 33.9811V30.9265H32.8297V33.9811H35.8843Z" fill="#59BF93"/>
<path id="Vector_89" d="M35.8843 21.7694V18.7148H32.8297V21.7694H35.8843Z" fill="#59BF93"/>
<path id="Vector_90" d="M38.939 24.8239V21.7693H35.8844V24.8239H38.939Z" fill="#59BF93"/>
<path id="Vector_91" d="M38.939 27.8786V24.824H35.8844V27.8786H38.939Z" fill="#59BF93"/>
<path id="Vector_92" d="M38.939 30.9333V27.8787H35.8844V30.9333H38.939Z" fill="#59BF93"/>
<path id="Vector_93" d="M38.939 21.7694V18.7148H35.8844V21.7694H38.939Z" fill="#59BF93"/>
<path id="Vector_94" d="M41.9937 24.8239V21.7693H38.9391V24.8239H41.9937Z" fill="#59BF93"/>
<path id="Vector_95" d="M41.9937 27.8786V24.824H38.9391V27.8786H41.9937Z" fill="#59BF93"/>
<path id="Vector_96" d="M41.9937 30.9333V27.8787H38.9391V30.9333H41.9937Z" fill="#59BF93"/>
<path id="Vector_97" d="M41.9937 21.7694V18.7148H38.9391V21.7694H41.9937Z" fill="#59BF93"/>
<path id="Vector_98" d="M45.0479 24.8239V21.7693H41.9933V24.8239H45.0479Z" fill="#59BF93"/>
<path id="Vector_99" d="M45.0479 27.8786V24.824H41.9933V27.8786H45.0479Z" fill="#59BF93"/>
<path id="Vector_100" d="M45.0479 30.933V27.8784H41.9933V30.933H45.0479Z" fill="#59BF93"/>
<path id="Vector_101" d="M45.0479 21.7692V18.7146H41.9933V21.7692H45.0479Z" fill="#59BF93"/>
<path id="Vector_102" d="M14.5083 18.7148V15.6602H11.4537V18.7148H14.5083Z" fill="#00AD76"/>
<path id="Vector_103" d="M17.563 18.7145V15.6599H14.5084V18.7145H17.563Z" fill="#31B787"/>
<path id="Vector_104" d="M20.6177 18.7148V15.6602H17.5631V18.7148H20.6177Z" fill="#31B787"/>
<path id="Vector_105" d="M23.6724 18.7148V15.6602H20.6178V18.7148H23.6724Z" fill="#31B787"/>
<path id="Vector_106" d="M26.7271 18.7082V15.6536H23.6725V18.7082H26.7271Z" fill="#88CDA9"/>
<path id="Vector_107" d="M29.7812 18.7082V15.6536H26.7267V18.7082H29.7812Z" fill="#88CDA9"/>
<path id="Vector_108" d="M32.8359 18.7082V15.6536H29.7813V18.7082H32.8359Z" fill="#88CDA9"/>
<path id="Vector_109" d="M35.8843 18.7079V15.6533H32.8297V18.7079H35.8843Z" fill="#88CDA9"/>
<path id="Vector_110" d="M38.939 18.7079V15.6533H35.8844V18.7079H38.939Z" fill="#59BF93"/>
<path id="Vector_111" d="M41.9937 18.7079V15.6533H38.9391V18.7079H41.9937Z" fill="#88CDA9"/>
<path id="Vector_112" d="M45.0479 18.7079V15.6533H41.9933V18.7079H45.0479Z" fill="#59BF93"/>
<path id="Vector_113" d="M14.502 15.6535V12.5989H11.4474V15.6535H14.502Z" fill="#00AD76"/>
<path id="Vector_114" d="M17.5566 15.6535V12.5989H14.502V15.6535H17.5566Z" fill="#00AD76"/>
<path id="Vector_115" d="M20.6113 15.6535V12.5989H17.5567V15.6535H20.6113Z" fill="#31B787"/>
<path id="Vector_116" d="M23.6655 15.6535V12.5989H20.6109V15.6535H23.6655Z" fill="#31B787"/>
<path id="Vector_117" d="M26.7207 15.6469V12.5923H23.6661V15.6469H26.7207Z" fill="#31B787"/>
<path id="Vector_118" d="M29.7749 15.6469V12.5923H26.7203V15.6469H29.7749Z" fill="#31B787"/>
<path id="Vector_119" d="M32.8296 15.6469V12.5923H29.775V15.6469H32.8296Z" fill="#31B787"/>
<path id="Vector_120" d="M35.8843 15.6469V12.5923H32.8297V15.6469H35.8843Z" fill="#31B787"/>
<path id="Vector_121" d="M38.939 15.6469V12.5923H35.8844V15.6469H38.939Z" fill="#31B787"/>
<path id="Vector_122" d="M41.9937 15.6535V12.5989H38.9391V15.6535H41.9937Z" fill="#31B787"/>
<path id="Vector_123" d="M20.6177 12.6122V9.55762H17.5631V12.6122H20.6177Z" fill="#00AD76"/>
<path id="Vector_124" d="M23.6724 12.6122V9.55762H20.6178V12.6122H23.6724Z" fill="#00AD76"/>
<path id="Vector_125" d="M26.7271 12.6054V9.55078H23.6725V12.6054H26.7271Z" fill="#00AD76"/>
<path id="Vector_126" d="M29.7812 12.6054V9.55078H26.7267V12.6054H29.7812Z" fill="#00AD76"/>
<path id="Vector_127" d="M32.8296 12.6056V9.55103H29.775V12.6056H32.8296Z" fill="#00AD76"/>
<path id="Vector_128" d="M35.8843 12.6056V9.55103H32.8297V12.6056H35.8843Z" fill="#00AD76"/>
<path id="Vector_129" d="M20.6113 9.55094V6.49634H17.5567V9.55094H20.6113Z" fill="#00AD76"/>
<path id="Vector_130" d="M23.6655 9.55094V6.49634H20.6109V9.55094H23.6655Z" fill="#00AD76"/>
<path id="Vector_131" d="M26.7207 9.54435V6.48975H23.6661V9.54435H26.7207Z" fill="#00AD76"/>
<path id="Vector_132" d="M29.7749 9.54435V6.48975H26.7203V9.54435H29.7749Z" fill="#00AD76"/>
<path id="Vector_133" d="M32.8296 9.54435V6.48975H29.775V9.54435H32.8296Z" fill="#00AD76"/>
<path id="Vector_134" d="M35.8843 9.54435V6.48975H32.8297V9.54435H35.8843Z" fill="#00AD76"/>
<path id="Vector_135" d="M38.939 12.6056V9.55103H35.8844V12.6056H38.939Z" fill="#00AD76"/>
<path id="Vector_136" d="M41.9937 12.6056V9.55103H38.9391V12.6056H41.9937Z" fill="#00AD76"/>
<path id="Vector_137" d="M45.0479 15.6535V12.5989H41.9933V15.6535H45.0479Z" fill="#59BF93"/>
<path id="Vector_138" d="M48.1025 24.8239V21.7693H45.0479V24.8239H48.1025Z" fill="#59BF93"/>
<path id="Vector_139" d="M48.1025 27.8786V24.824H45.0479V27.8786H48.1025Z" fill="#59BF93"/>
<path id="Vector_140" d="M48.1025 30.9333V27.8787H45.0479V30.9333H48.1025Z" fill="#59BF93"/>
<path id="Vector_141" d="M38.939 37.0356V33.981H35.8844V37.0356H38.939Z" fill="#59BF93"/>
<path id="Vector_142" d="M35.8843 37.0356V33.981H32.8297V37.0356H35.8843Z" fill="#59BF93"/>
<path id="Vector_143" d="M38.939 33.9811V30.9265H35.8844V33.9811H38.939Z" fill="#59BF93"/>
<path id="Vector_144" d="M41.9937 33.9877V30.9331H38.9391V33.9877H41.9937Z" fill="#59BF93"/>
<path id="Vector_145" d="M41.9937 37.0356V33.981H38.9391V37.0356H41.9937Z" fill="#59BF93"/>
<path id="Vector_146" d="M45.0479 33.9877V30.9331H41.9933V33.9877H45.0479Z" fill="#59BF93"/>
<path id="Vector_147" d="M48.1025 33.9877V30.9331H45.0479V33.9877H48.1025Z" fill="#59BF93"/>
<path id="Vector_148" d="M51.1572 30.9333V27.8787H48.1026V30.9333H51.1572Z" fill="#59BF93"/>
<path id="Vector_149" d="M54.2051 30.933V27.8784H51.1505V30.933H54.2051Z" fill="#59BF93"/>
<path id="Vector_150" d="M51.1504 33.9877V30.9331H48.0958V33.9877H51.1504Z" fill="#59BF93"/>
<path id="Vector_151" d="M54.2051 33.9877V30.9331H51.1505V33.9877H54.2051Z" fill="#59BF93"/>
<path id="Vector_152" d="M48.1025 37.0356V33.981H45.0479V37.0356H48.1025Z" fill="#59BF93"/>
<path id="Vector_153" d="M48.0957 40.0968V37.0422H45.0411V40.0968H48.0957Z" fill="#59BF93"/>
<path id="Vector_154" d="M48.1025 43.1449V40.0903H45.0479V43.1449H48.1025Z" fill="#59BF93"/>
<path id="Vector_155" d="M48.1025 46.1928V43.1382H45.0479V46.1928H48.1025Z" fill="#59BF93"/>
<path id="Vector_156" d="M51.1572 37.0356V33.981H48.1026V37.0356H51.1572Z" fill="#59BF93"/>
<path id="Vector_157" d="M57.2598 30.933V27.8784H54.2052V30.933H57.2598Z" fill="#59BF93"/>
<path id="Vector_158" d="M57.2598 33.9877V30.9331H54.2052V33.9877H57.2598Z" fill="#59BF93"/>
<path id="Vector_159" d="M60.3145 33.9877V30.9331H57.2599V33.9877H60.3145Z" fill="#59BF93"/>
<path id="Vector_160" d="M14.502 40.0968V37.0422H11.4474V40.0968H14.502Z" fill="#00AD76"/>
<path id="Vector_161" d="M14.5083 43.1515V40.0969H11.4537V43.1515H14.5083Z" fill="#59BF93"/>
<path id="Vector_162" d="M17.5566 40.0968V37.0422H14.502V40.0968H17.5566Z" fill="#31B787"/>
<path id="Vector_163" d="M17.563 43.1513V40.0967H14.5084V43.1513H17.563Z" fill="#59BF93"/>
<path id="Vector_164" d="M20.6113 40.0968V37.0422H17.5567V40.0968H20.6113Z" fill="#59BF93"/>
<path id="Vector_165" d="M20.6177 43.1515V40.0969H17.5631V43.1515H20.6177Z" fill="#59BF93"/>
<path id="Vector_166" d="M23.6655 40.0968V37.0422H20.6109V40.0968H23.6655Z" fill="#59BF93"/>
<path id="Vector_167" d="M23.6724 43.1515V40.0969H20.6178V43.1515H23.6724Z" fill="#59BF93"/>
<path id="Vector_168" d="M26.7207 40.0902V37.0356H23.6661V40.0902H26.7207Z" fill="#59BF93"/>
<path id="Vector_169" d="M26.7271 43.1449V40.0903H23.6725V43.1449H26.7271Z" fill="#59BF93"/>
<path id="Vector_170" d="M14.502 46.1996V43.145H11.4474V46.1996H14.502Z" fill="#00AD76"/>
<path id="Vector_171" d="M17.5566 46.1996V43.145H14.502V46.1996H17.5566Z" fill="#59BF93"/>
<path id="Vector_172" d="M20.6113 46.1996V43.145H17.5567V46.1996H20.6113Z" fill="#59BF93"/>
<path id="Vector_173" d="M23.6655 46.1994V43.1448H20.6109V46.1994H23.6655Z" fill="#59BF93"/>
<path id="Vector_174" d="M26.7207 46.1928V43.1382H23.6661V46.1928H26.7207Z" fill="#59BF93"/>
<path id="Vector_175" d="M20.6113 49.2541V46.1995H17.5567V49.2541H20.6113Z" fill="#59BF93"/>
<path id="Vector_176" d="M23.6655 49.2541V46.1995H20.6109V49.2541H23.6655Z" fill="#59BF93"/>
<path id="Vector_177" d="M26.7207 49.2475V46.1929H23.6661V49.2475H26.7207Z" fill="#59BF93"/>
<path id="Vector_178" d="M29.7749 40.0902V37.0356H26.7203V40.0902H29.7749Z" fill="#59BF93"/>
<path id="Vector_179" d="M32.8359 43.1449V40.0903H29.7813V43.1449H32.8359Z" fill="#59BF93"/>
<path id="Vector_180" d="M35.8843 40.0902V37.0356H32.8297V40.0902H35.8843Z" fill="#59BF93"/>
<path id="Vector_181" d="M32.8296 40.0902V37.0356H29.775V40.0902H32.8296Z" fill="#59BF93"/>
<path id="Vector_182" d="M38.939 40.0902V37.0356H35.8844V40.0902H38.939Z" fill="#59BF93"/>
<path id="Vector_183" d="M41.9937 40.0902V37.0356H38.9391V40.0902H41.9937Z" fill="#59BF93"/>
<path id="Vector_184" d="M45.041 40.0902V37.0356H41.9864V40.0902H45.041Z" fill="#59BF93"/>
<path id="Vector_185" d="M45.0479 37.0424V33.9878H41.9933V37.0424H45.0479Z" fill="#59BF93"/>
<path id="Vector_186" d="M35.8906 43.1449V40.0903H32.836V43.1449H35.8906Z" fill="#59BF93"/>
<path id="Vector_187" d="M38.9453 43.1449V40.0903H35.8907V43.1449H38.9453Z" fill="#59BF93"/>
<path id="Vector_188" d="M41.9937 43.1449V40.0903H38.9391V43.1449H41.9937Z" fill="#59BF93"/>
<path id="Vector_189" d="M45.0479 43.1449V40.0903H41.9933V43.1449H45.0479Z" fill="#59BF93"/>
<path id="Vector_190" d="M51.1504 40.0968V37.0422H48.0958V40.0968H51.1504Z" fill="#59BF93"/>
<path id="Vector_191" d="M51.1572 43.1513V40.0967H48.1026V43.1513H51.1572Z" fill="#59BF93"/>
<path id="Vector_192" d="M54.2051 40.0968V37.0422H51.1505V40.0968H54.2051Z" fill="#59BF93"/>
<path id="Vector_193" d="M57.2666 37.0356V33.981H54.212V37.0356H57.2666Z" fill="#59BF93"/>
<path id="Vector_194" d="M54.2051 37.0356V33.981H51.1505V37.0356H54.2051Z" fill="#59BF93"/>
<path id="Vector_195" d="M60.3145 37.0356V33.981H57.2599V37.0356H60.3145Z" fill="#59BF93"/>
<path id="Vector_196" d="M57.2598 40.0968V37.0422H54.2052V40.0968H57.2598Z" fill="#59BF93"/>
<path id="Vector_197" d="M60.3145 40.0968V37.0422H57.2599V40.0968H60.3145Z" fill="#59BF93"/>
<path id="Vector_198" d="M54.2119 43.1513V40.0967H51.1573V43.1513H54.2119Z" fill="#59BF93"/>
<path id="Vector_199" d="M29.7749 49.2475V46.1929H26.7203V49.2475H29.7749Z" fill="#59BF93"/>
<path id="Vector_200" d="M32.8296 46.1928V43.1382H29.775V46.1928H32.8296Z" fill="#59BF93"/>
<path id="Vector_201" d="M29.7812 43.1449V40.0903H26.7267V43.1449H29.7812Z" fill="#59BF93"/>
<path id="Vector_202" d="M29.7749 46.1928V43.1382H26.7203V46.1928H29.7749Z" fill="#59BF93"/>
<path id="Vector_203" d="M32.8296 49.2475V46.1929H29.775V49.2475H32.8296Z" fill="#59BF93"/>
<path id="Vector_204" d="M35.8843 46.1928V43.1382H32.8297V46.1928H35.8843Z" fill="#59BF93"/>
<path id="Vector_205" d="M35.8843 49.2475V46.1929H32.8297V49.2475H35.8843Z" fill="#59BF93"/>
<path id="Vector_206" d="M38.939 46.1928V43.1382H35.8844V46.1928H38.939Z" fill="#59BF93"/>
<path id="Vector_207" d="M38.939 49.2475V46.1929H35.8844V49.2475H38.939Z" fill="#59BF93"/>
<path id="Vector_208" d="M38.9453 52.3085V49.2539H35.8907V52.3085H38.9453Z" fill="#59BF93"/>
<path id="Vector_209" d="M41.9937 49.2475V46.1929H38.9391V49.2475H41.9937Z" fill="#59BF93"/>
<path id="Vector_210" d="M45.0479 46.1994V43.1448H41.9933V46.1994H45.0479Z" fill="#59BF93"/>
<path id="Vector_211" d="M41.9937 46.1996V43.145H38.9391V46.1996H41.9937Z" fill="#59BF93"/>
<path id="Vector_212" d="M51.1504 46.1994V43.1448H48.0958V46.1994H51.1504Z" fill="#59BF93"/>
<path id="Vector_213" d="M54.2051 46.1994V43.1448H51.1505V46.1994H54.2051Z" fill="#59BF93"/>
<path id="Vector_214" d="M57.2598 46.1994V43.1448H54.2052V46.1994H57.2598Z" fill="#59BF93"/>
<path id="Vector_215" d="M48.0957 49.2541V46.1995H45.0411V49.2541H48.0957Z" fill="#59BF93"/>
<path id="Vector_216" d="M45.041 49.2541V46.1995H41.9864V49.2541H45.041Z" fill="#59BF93"/>
<path id="Vector_217" d="M51.1504 49.2541V46.1995H48.0958V49.2541H51.1504Z" fill="#59BF93"/>
<path id="Vector_218" d="M60.3145 46.1994V43.1448H57.2599V46.1994H60.3145Z" fill="#59BF93"/>
<path id="Vector_219" d="M57.2598 49.2541V46.1995H54.2052V49.2541H57.2598Z" fill="#59BF93"/>
<path id="Vector_220" d="M54.2051 49.2541V46.1995H51.1505V49.2541H54.2051Z" fill="#59BF93"/>
<path id="Vector_221" d="M60.3145 49.2541V46.1995H57.2599V49.2541H60.3145Z" fill="#59BF93"/>
<path id="Vector_222" d="M60.3213 52.3153V49.2607H57.2667V52.3153H60.3213Z" fill="#59BF93"/>
<path id="Vector_223" d="M63.3687 49.2541V46.1995H60.3141V49.2541H63.3687Z" fill="#59BF93"/>
<path id="Vector_224" d="M66.4233 49.2541V46.1995H63.3687V49.2541H66.4233Z" fill="#59BF93"/>
<path id="Vector_225" d="M57.2666 43.1513V40.0967H54.212V43.1513H57.2666Z" fill="#59BF93"/>
<path id="Vector_226" d="M60.3213 43.1513V40.0967H57.2667V43.1513H60.3213Z" fill="#59BF93"/>
<path id="Vector_227" d="M72.5396 43.1449V40.0903H69.485V43.1449H72.5396Z" fill="#59BF93"/>
<path id="Vector_228" d="M75.5942 43.1449V40.0903H72.5396V43.1449H75.5942Z" fill="#59BF93"/>
<path id="Vector_229" d="M78.6484 43.1449V40.0903H75.5938V43.1449H78.6484Z" fill="#59BF93"/>
<path id="Vector_230" d="M81.7031 43.1449V40.0903H78.6485V43.1449H81.7031Z" fill="#59BF93"/>
<path id="Vector_231" d="M81.6963 46.1928V43.1382H78.6417V46.1928H81.6963Z" fill="#59BF93"/>
<path id="Vector_232" d="M81.6963 49.2475V46.1929H78.6417V49.2475H81.6963Z" fill="#59BF93"/>
<path id="Vector_233" d="M84.751 43.1449V40.0903H81.6964V43.1449H84.751Z" fill="#59BF93"/>
<path id="Vector_234" d="M69.478 49.2475V46.1929H66.4234V49.2475H69.478Z" fill="#59BF93"/>
<path id="Vector_235" d="M29.7812 52.3087V49.2542H26.7267V52.3087H29.7812Z" fill="#59BF93"/>
<path id="Vector_236" d="M32.8296 52.3087V49.2542H29.775V52.3087H32.8296Z" fill="#59BF93"/>
<path id="Vector_237" d="M35.8843 52.3087V49.2542H32.8297V52.3087H35.8843Z" fill="#59BF93"/>
<path id="Vector_238" d="M41.9937 52.3087V49.2542H38.9391V52.3087H41.9937Z" fill="#59BF93"/>
<path id="Vector_239" d="M45.0479 52.3085V49.2539H41.9933V52.3085H45.0479Z" fill="#59BF93"/>
<path id="Vector_240" d="M48.1025 52.3087V49.2542H45.0479V52.3087H48.1025Z" fill="#59BF93"/>
<path id="Vector_241" d="M51.1572 52.3087V49.2542H48.1026V52.3087H51.1572Z" fill="#59BF93"/>
<path id="Vector_242" d="M54.2119 52.3087V49.2542H51.1573V52.3087H54.2119Z" fill="#59BF93"/>
<path id="Vector_243" d="M57.2666 52.3087V49.2542H54.212V52.3087H57.2666Z" fill="#59BF93"/>
<path id="Vector_244" d="M63.376 52.3153V49.2607H60.3214V52.3153H63.376Z" fill="#59BF93"/>
<path id="Vector_245" d="M66.4297 52.3151V49.2605H63.3751V52.3151H66.4297Z" fill="#59BF93"/>
<path id="Vector_246" d="M69.4849 52.3087V49.2542H66.4303V52.3087H69.4849Z" fill="#59BF93"/>
<path id="Vector_247" d="M72.5327 46.1928V43.1382H69.4781V46.1928H72.5327Z" fill="#59BF93"/>
<path id="Vector_248" d="M75.5874 46.1928V43.1382H72.5328V46.1928H75.5874Z" fill="#59BF93"/>
<path id="Vector_249" d="M72.5327 49.2475V46.1929H69.4781V49.2475H72.5327Z" fill="#59BF93"/>
<path id="Vector_250" d="M75.5874 49.2475V46.1929H72.5328V49.2475H75.5874Z" fill="#59BF93"/>
<path id="Vector_251" d="M78.6416 46.1928V43.1382H75.587V46.1928H78.6416Z" fill="#59BF93"/>
<path id="Vector_252" d="M78.6416 49.2475V46.1929H75.587V49.2475H78.6416Z" fill="#59BF93"/>
<path id="Vector_253" d="M48.1025 21.7694V18.7148H45.0479V21.7694H48.1025Z" fill="#59BF93"/>
<path id="Vector_254" d="M54.2119 24.8239V21.7693H51.1573V24.8239H54.2119Z" fill="#00AD76"/>
<path id="Vector_255" d="M54.2051 27.8786V24.824H51.1505V27.8786H54.2051Z" fill="#00AD76"/>
<path id="Vector_256" d="M54.2119 21.7694V18.7148H51.1573V21.7694H54.2119Z" fill="#00AD76"/>
<path id="Vector_257" d="M57.2598 24.8239V21.7693H54.2052V24.8239H57.2598Z" fill="#00AD76"/>
<path id="Vector_258" d="M57.2598 27.8786V24.824H54.2052V27.8786H57.2598Z" fill="#00AD76"/>
<path id="Vector_259" d="M57.2666 21.7694V18.7148H54.212V21.7694H57.2666Z" fill="#00AD76"/>
<path id="Vector_260" d="M57.2666 18.7148V15.6602H54.212V18.7148H57.2666Z" fill="#00AD76"/>
<path id="Vector_261" d="M57.2598 15.6535V12.5989H54.2052V15.6535H57.2598Z" fill="#00AD76"/>
<path id="Vector_262" d="M60.3213 12.612V9.55737H57.2667V12.612H60.3213Z" fill="#00AD76"/>
<path id="Vector_263" d="M63.376 12.612V9.55737H60.3214V12.612H63.376Z" fill="#00AD76"/>
<path id="Vector_264" d="M60.3145 24.8236V21.769H57.2599V24.8236H60.3145Z" fill="#31B787"/>
<path id="Vector_265" d="M60.3145 27.8786V24.824H57.2599V27.8786H60.3145Z" fill="#31B787"/>
<path id="Vector_266" d="M60.3145 21.7694V18.7148H57.2599V21.7694H60.3145Z" fill="#31B787"/>
<path id="Vector_267" d="M63.3687 24.8239V21.7693H60.3141V24.8239H63.3687Z" fill="#59BF93"/>
<path id="Vector_268" d="M63.3687 27.8786V24.824H60.3141V27.8786H63.3687Z" fill="#59BF93"/>
<path id="Vector_269" d="M63.3687 21.7692V18.7146H60.3141V21.7692H63.3687Z" fill="#31B787"/>
<path id="Vector_270" d="M66.4233 24.8173V21.7627H63.3687V24.8173H66.4233Z" fill="#59BF93"/>
<path id="Vector_271" d="M66.4233 27.872V24.8174H63.3687V27.872H66.4233Z" fill="#59BF93"/>
<path id="Vector_272" d="M66.4233 21.7692V18.7146H63.3687V21.7692H66.4233Z" fill="#59BF93"/>
<path id="Vector_273" d="M69.478 24.8239V21.7693H66.4234V24.8239H69.478Z" fill="#59BF93"/>
<path id="Vector_274" d="M69.478 27.872V24.8174H66.4234V27.872H69.478Z" fill="#59BF93"/>
<path id="Vector_275" d="M69.478 21.7692V18.7146H66.4234V21.7692H69.478Z" fill="#59BF93"/>
<path id="Vector_276" d="M72.5327 24.8236V21.769H69.4781V24.8236H72.5327Z" fill="#59BF93"/>
<path id="Vector_277" d="M72.5327 27.8786V24.824H69.4781V27.8786H72.5327Z" fill="#59BF93"/>
<path id="Vector_278" d="M72.5327 21.7694V18.7148H69.4781V21.7694H72.5327Z" fill="#59BF93"/>
<path id="Vector_279" d="M75.5874 24.8239V21.7693H72.5328V24.8239H75.5874Z" fill="#59BF93"/>
<path id="Vector_280" d="M75.5874 27.8786V24.824H72.5328V27.8786H75.5874Z" fill="#59BF93"/>
<path id="Vector_281" d="M75.5874 21.7692V18.7146H72.5328V21.7692H75.5874Z" fill="#59BF93"/>
<path id="Vector_282" d="M78.6416 24.8239V21.7693H75.587V24.8239H78.6416Z" fill="#59BF93"/>
<path id="Vector_283" d="M78.6416 27.8786V24.824H75.587V27.8786H78.6416Z" fill="#59BF93"/>
<path id="Vector_284" d="M78.6416 21.7692V18.7146H75.587V21.7692H78.6416Z" fill="#59BF93"/>
<path id="Vector_285" d="M81.6963 24.8239V21.7693H78.6417V24.8239H81.6963Z" fill="#59BF93"/>
<path id="Vector_286" d="M81.6963 27.8786V24.824H78.6417V27.8786H81.6963Z" fill="#59BF93"/>
<path id="Vector_287" d="M81.6963 21.7692V18.7146H78.6417V21.7692H81.6963Z" fill="#59BF93"/>
<path id="Vector_288" d="M84.751 24.8239V21.7693H81.6964V24.8239H84.751Z" fill="#59BF93"/>
<path id="Vector_289" d="M84.751 27.8786V24.824H81.6964V27.8786H84.751Z" fill="#59BF93"/>
<path id="Vector_290" d="M84.751 21.7692V18.7146H81.6964V21.7692H84.751Z" fill="#88CDA9"/>
<path id="Vector_291" d="M87.8057 24.8239V21.7693H84.7511V24.8239H87.8057Z" fill="#88CDA9"/>
<path id="Vector_292" d="M87.8057 27.8786V24.824H84.7511V27.8786H87.8057Z" fill="#88CDA9"/>
<path id="Vector_293" d="M87.7988 21.7692V18.7146H84.7442V21.7692H87.7988Z" fill="#31B787"/>
<path id="Vector_294" d="M90.8604 24.8239V21.7693H87.8058V24.8239H90.8604Z" fill="#31B787"/>
<path id="Vector_295" d="M90.8604 27.8786V24.824H87.8058V27.8786H90.8604Z" fill="#31B787"/>
<path id="Vector_296" d="M90.8604 21.7692V18.7146H87.8058V21.7692H90.8604Z" fill="#00AD76"/>
<path id="Vector_297" d="M60.3213 18.7148V15.6602H57.2667V18.7148H60.3213Z" fill="#31B787"/>
<path id="Vector_298" d="M63.376 18.7148V15.6602H60.3214V18.7148H63.376Z" fill="#59BF93"/>
<path id="Vector_299" d="M66.4297 18.7079V15.6533H63.3751V18.7079H66.4297Z" fill="#31B787"/>
<path id="Vector_300" d="M69.4849 18.7079V15.6533H66.4303V18.7079H69.4849Z" fill="#59BF93"/>
<path id="Vector_301" d="M72.5396 18.7079V15.6533H69.485V18.7079H72.5396Z" fill="#59BF93"/>
<path id="Vector_302" d="M75.5874 18.7082V15.6536H72.5328V18.7082H75.5874Z" fill="#88CDA9"/>
<path id="Vector_303" d="M78.6416 18.7082V15.6536H75.587V18.7082H78.6416Z" fill="#88CDA9"/>
<path id="Vector_304" d="M81.6963 18.7082V15.6536H78.6417V18.7082H81.6963Z" fill="#88CDA9"/>
<path id="Vector_305" d="M84.751 18.7082V15.6536H81.6964V18.7082H84.751Z" fill="#31B787"/>
<path id="Vector_306" d="M87.8057 18.7082V15.6536H84.7511V18.7082H87.8057Z" fill="#31B787"/>
<path id="Vector_307" d="M90.8604 18.7082V15.6536H87.8058V18.7082H90.8604Z" fill="#00AD76"/>
<path id="Vector_308" d="M60.3145 15.6535V12.5989H57.2599V15.6535H60.3145Z" fill="#31B787"/>
<path id="Vector_309" d="M63.3687 15.6535V12.5989H60.3141V15.6535H63.3687Z" fill="#31B787"/>
<path id="Vector_310" d="M66.4233 15.6469V12.5923H63.3687V15.6469H66.4233Z" fill="#31B787"/>
<path id="Vector_311" d="M69.478 15.6469V12.5923H66.4234V15.6469H69.478Z" fill="#31B787"/>
<path id="Vector_312" d="M72.5327 15.6469V12.5923H69.4781V15.6469H72.5327Z" fill="#31B787"/>
<path id="Vector_313" d="M78.6416 15.6469V12.5923H75.587V15.6469H78.6416Z" fill="#31B787"/>
<path id="Vector_314" d="M75.5874 15.6469V12.5923H72.5328V15.6469H75.5874Z" fill="#31B787"/>
<path id="Vector_315" d="M81.6963 15.6535V12.5989H78.6417V15.6535H81.6963Z" fill="#31B787"/>
<path id="Vector_316" d="M84.751 15.6535V12.5989H81.6964V15.6535H84.751Z" fill="#00AD76"/>
<path id="Vector_317" d="M87.7988 15.6535V12.5989H84.7442V15.6535H87.7988Z" fill="#00AD76"/>
<path id="Vector_318" d="M66.4297 12.6054V9.55078H63.3751V12.6054H66.4297Z" fill="#00AD76"/>
<path id="Vector_319" d="M69.478 12.6054V9.55078H66.4234V12.6054H69.478Z" fill="#00AD76"/>
<path id="Vector_320" d="M72.5327 12.6056V9.55103H69.4781V12.6056H72.5327Z" fill="#00AD76"/>
<path id="Vector_321" d="M75.5874 12.6054V9.55078H72.5328V12.6054H75.5874Z" fill="#00AD76"/>
<path id="Vector_322" d="M78.6416 12.6054V9.55078H75.587V12.6054H78.6416Z" fill="#00AD76"/>
<path id="Vector_323" d="M81.6963 12.6054V9.55078H78.6417V12.6054H81.6963Z" fill="#00AD76"/>
<path id="Vector_324" d="M66.4233 9.54435V6.48975H63.3687V9.54435H66.4233Z" fill="#00AD76"/>
<path id="Vector_325" d="M69.478 9.54435V6.48975H66.4234V9.54435H69.478Z" fill="#00AD76"/>
<path id="Vector_326" d="M72.5327 9.54435V6.48975H69.4781V9.54435H72.5327Z" fill="#00AD76"/>
<path id="Vector_327" d="M75.5874 9.54435V6.48975H72.5328V9.54435H75.5874Z" fill="#00AD76"/>
<path id="Vector_328" d="M78.6416 9.54435V6.48975H75.587V9.54435H78.6416Z" fill="#00AD76"/>
<path id="Vector_329" d="M81.6963 9.54434V6.48975H78.6417V9.54434H81.6963Z" fill="#00AD76"/>
<path id="Vector_330" d="M84.751 12.6054V9.55078H81.6964V12.6054H84.751Z" fill="#00AD76"/>
<path id="Vector_331" d="M87.8057 12.6054V9.55078H84.7511V12.6054H87.8057Z" fill="#00AD76"/>
<path id="Vector_332" d="M90.854 15.6535V12.5989H87.7994V15.6535H90.854Z" fill="#00AD76"/>
<path id="Vector_333" d="M93.915 24.8236V21.769H90.8604V24.8236H93.915Z" fill="#00AD76"/>
<path id="Vector_334" d="M93.915 27.8786V24.824H90.8604V27.8786H93.915Z" fill="#00AD76"/>
<path id="Vector_335" d="M60.3145 30.933V27.8784H57.2599V30.933H60.3145Z" fill="#59BF93"/>
<path id="Vector_336" d="M63.3687 30.933V27.8784H60.3141V30.933H63.3687Z" fill="#59BF93"/>
<path id="Vector_337" d="M63.3687 33.9877V30.9331H60.3141V33.9877H63.3687Z" fill="#59BF93"/>
<path id="Vector_338" d="M66.4233 30.9264V27.8718H63.3687V30.9264H66.4233Z" fill="#59BF93"/>
<path id="Vector_339" d="M66.4233 33.9811V30.9265H63.3687V33.9811H66.4233Z" fill="#59BF93"/>
<path id="Vector_340" d="M66.4233 37.029V33.9744H63.3687V37.029H66.4233Z" fill="#59BF93"/>
<path id="Vector_341" d="M69.478 30.9264V27.8718H66.4234V30.9264H69.478Z" fill="#59BF93"/>
<path id="Vector_342" d="M69.478 33.9811V30.9265H66.4234V33.9811H69.478Z" fill="#59BF93"/>
<path id="Vector_343" d="M72.5327 30.9264V27.8718H69.4781V30.9264H72.5327Z" fill="#59BF93"/>
<path id="Vector_344" d="M72.5327 33.9811V30.9265H69.4781V33.9811H72.5327Z" fill="#59BF93"/>
<path id="Vector_345" d="M75.5869 30.933V27.8784H72.5323V30.933H75.5869Z" fill="#59BF93"/>
<path id="Vector_346" d="M75.5869 33.9811V30.9265H72.5323V33.9811H75.5869Z" fill="#59BF93"/>
<path id="Vector_347" d="M78.6416 30.933V27.8784H75.587V30.933H78.6416Z" fill="#59BF93"/>
<path id="Vector_348" d="M78.6416 33.9877V30.9331H75.587V33.9877H78.6416Z" fill="#59BF93"/>
<path id="Vector_349" d="M81.6963 30.933V27.8784H78.6417V30.933H81.6963Z" fill="#59BF93"/>
<path id="Vector_350" d="M81.6963 33.9877V30.9331H78.6417V33.9877H81.6963Z" fill="#59BF93"/>
<path id="Vector_351" d="M84.751 30.933V27.8784H81.6964V30.933H84.751Z" fill="#59BF93"/>
<path id="Vector_352" d="M84.751 33.9877V30.9331H81.6964V33.9877H84.751Z" fill="#59BF93"/>
<path id="Vector_353" d="M87.8057 30.933V27.8784H84.7511V30.933H87.8057Z" fill="#88CDA9"/>
<path id="Vector_354" d="M87.8057 33.9877V30.9331H84.7511V33.9877H87.8057Z" fill="#88CDA9"/>
<path id="Vector_355" d="M90.8604 30.933V27.8784H87.8058V30.933H90.8604Z" fill="#31B787"/>
<path id="Vector_356" d="M90.8604 33.9811V30.9265H87.8058V33.9811H90.8604Z" fill="#31B787"/>
<path id="Vector_357" d="M93.9082 30.9333V27.8787H90.8536V30.9333H93.9082Z" fill="#00AD76"/>
<path id="Vector_358" d="M93.9082 33.9877V30.9331H90.8536V33.9877H93.9082Z" fill="#00AD76"/>
<path id="Vector_359" d="M63.3687 37.0424V33.9878H60.3141V37.0424H63.3687Z" fill="#59BF93"/>
<path id="Vector_360" d="M69.478 37.0356V33.981H66.4234V37.0356H69.478Z" fill="#59BF93"/>
<path id="Vector_361" d="M69.478 40.0902V37.0356H66.4234V40.0902H69.478Z" fill="#59BF93"/>
<path id="Vector_362" d="M69.478 43.1449V40.0903H66.4234V43.1449H69.478Z" fill="#59BF93"/>
<path id="Vector_363" d="M72.5327 37.0356V33.981H69.4781V37.0356H72.5327Z" fill="#59BF93"/>
<path id="Vector_364" d="M75.5874 37.0356V33.981H72.5328V37.0356H75.5874Z" fill="#59BF93"/>
<path id="Vector_365" d="M78.6416 37.0356V33.981H75.587V37.0356H78.6416Z" fill="#59BF93"/>
<path id="Vector_366" d="M81.6963 37.0424V33.9878H78.6417V37.0424H81.6963Z" fill="#59BF93"/>
<path id="Vector_367" d="M84.751 37.0424V33.9878H81.6964V37.0424H84.751Z" fill="#59BF93"/>
<path id="Vector_368" d="M87.7988 37.0424V33.9878H84.7442V37.0424H87.7988Z" fill="#59BF93"/>
<path id="Vector_369" d="M90.854 37.0421V33.9875H87.7994V37.0421H90.854Z" fill="#31B787"/>
<path id="Vector_370" d="M63.3687 40.0968V37.0422H60.3141V40.0968H63.3687Z" fill="#59BF93"/>
<path id="Vector_371" d="M66.4233 40.0902V37.0356H63.3687V40.0902H66.4233Z" fill="#59BF93"/>
<path id="Vector_372" d="M63.376 43.1513V40.0967H60.3214V43.1513H63.376Z" fill="#59BF93"/>
<path id="Vector_373" d="M66.4297 43.1449V40.0903H63.3751V43.1449H66.4297Z" fill="#59BF93"/>
<path id="Vector_374" d="M63.376 46.1996V43.145H60.3214V46.1996H63.376Z" fill="#59BF93"/>
<path id="Vector_375" d="M66.4297 46.1928V43.1382H63.3751V46.1928H66.4297Z" fill="#59BF93"/>
<path id="Vector_376" d="M69.4849 46.1928V43.1382H66.4303V46.1928H69.4849Z" fill="#59BF93"/>
<path id="Vector_377" d="M72.5327 40.0902V37.0356H69.4781V40.0902H72.5327Z" fill="#59BF93"/>
<path id="Vector_378" d="M75.5874 40.0902V37.0356H72.5328V40.0902H75.5874Z" fill="#59BF93"/>
<path id="Vector_379" d="M78.6416 40.0902V37.0356H75.587V40.0902H78.6416Z" fill="#59BF93"/>
<path id="Vector_380" d="M81.6963 40.0902V37.0356H78.6417V40.0902H81.6963Z" fill="#59BF93"/>
<path id="Vector_381" d="M84.7446 40.0968V37.0422H81.69V40.0968H84.7446Z" fill="#59BF93"/>
<path id="Vector_382" d="M87.8057 40.0902V37.0356H84.7511V40.0902H87.8057Z" fill="#31B787"/>
<path id="Vector_383" d="M90.8604 40.0902V37.0356H87.8058V40.0902H90.8604Z" fill="#31B787"/>
<path id="Vector_384" d="M87.8057 43.1383V40.0837H84.7511V43.1383H87.8057Z" fill="#31B787"/>
<path id="Vector_385" d="M84.751 46.1994V43.1448H81.6964V46.1994H84.751Z" fill="#59BF93"/>
<path id="Vector_386" d="M87.8057 46.1928V43.1382H84.7511V46.1928H87.8057Z" fill="#31B787"/>
<path id="Vector_387" d="M90.854 43.1449V40.0903H87.7994V43.1449H90.854Z" fill="#31B787"/>
<path id="Vector_388" d="M93.9082 37.0421V33.9875H90.8536V37.0421H93.9082Z" fill="#00AD76"/>
<path id="Vector_389" d="M93.915 21.7694V18.7148H90.8604V21.7694H93.915Z" fill="#00AD76"/>
<path id="Vector_390" d="M11.4536 64.527V61.4724H8.39901V64.527H11.4536Z" fill="#00AD76"/>
<path id="Vector_391" d="M11.4536 61.4726V58.418H8.39901V61.4726H11.4536Z" fill="#00AD76"/>
<path id="Vector_392" d="M14.5083 61.4726V58.418H11.4537V61.4726H14.5083Z" fill="#00AD76"/>
<path id="Vector_393" d="M14.5083 58.4179V55.3633H11.4537V58.4179H14.5083Z" fill="#00AD76"/>
<g id="Group_9">
<path id="Vector_394" d="M20.6176 49.2542H17.563V52.3087H20.6176V49.2542Z" fill="#59BF93"/>
<path id="Vector_395" d="M17.5634 52.3086H14.5088V55.3632H17.5634V52.3086Z" fill="#59BF93"/>
<path id="Vector_396" d="M14.5087 52.3086H11.4541V55.3632H14.5087V52.3086Z" fill="#59BF93"/>
<path id="Vector_397" d="M17.5634 92.0117H14.5088V95.0663H17.5634V92.0117Z" fill="#59BF93"/>
<path id="Vector_398" d="M14.5087 92.0117H11.4541V95.0663H14.5087V92.0117Z" fill="#59BF93"/>
<path id="Vector_399" d="M41.9936 92.0117H38.939V95.0663H41.9936V92.0117Z" fill="#59BF93"/>
<path id="Vector_400" d="M38.9389 92.0117H35.8843V95.0663H38.9389V92.0117Z" fill="#59BF93"/>
<path id="Vector_401" d="M8.39941 64.527V61.4724H5.34482V64.527H8.39941Z" fill="#59BF93"/>
<path id="Vector_402" d="M8.39941 61.4726V58.418H5.34482V61.4726H8.39941Z" fill="#59BF93"/>
<path id="Vector_403" d="M8.39941 88.9572V85.9026H5.34482V88.9572H8.39941Z" fill="#59BF93"/>
<path id="Vector_404" d="M8.39941 85.9027V82.8481H5.34482V85.9027H8.39941Z" fill="#59BF93"/>
<path id="Vector_405" d="M48.1025 88.9572V85.9026H45.0479V88.9572H48.1025Z" fill="#59BF93"/>
<path id="Vector_406" d="M48.1025 85.9025V82.8479H45.0479V85.9025H48.1025Z" fill="#59BF93"/>
<path id="Vector_407" d="M5.34521 70.6361V67.5815H2.29062V70.6361H5.34521Z" fill="#59BF93"/>
<path id="Vector_408" d="M5.34521 73.6908V70.6362H2.29062V73.6908H5.34521Z" fill="#59BF93"/>
<path id="Vector_409" d="M5.34521 76.7453V73.6907H2.29062V76.7453H5.34521Z" fill="#59BF93"/>
<path id="Vector_410" d="M5.33838 79.8V76.7454H2.28378V79.8H5.33838Z" fill="#59BF93"/>
<path id="Vector_411" d="M5.34521 82.8478V79.7932H2.29062V82.8478H5.34521Z" fill="#59BF93"/>
<path id="Vector_412" d="M5.34521 67.5815V64.5269H2.29062V67.5815H5.34521Z" fill="#59BF93"/>
<path id="Vector_413" d="M51.1504 76.7455V73.6909H48.0958V76.7455H51.1504Z" fill="#59BF93"/>
<path id="Vector_414" d="M51.1504 79.8V76.7454H48.0958V79.8H51.1504Z" fill="#59BF93"/>
<path id="Vector_415" d="M51.1572 82.8546V79.8H48.1026V82.8546H51.1572Z" fill="#59BF93"/>
<path id="Vector_416" d="M11.454 55.3633H8.39941V58.4179H11.454V55.3633Z" fill="#59BF93"/>
<path id="Vector_417" d="M11.454 88.9573H8.39941V92.0119H11.454V88.9573Z" fill="#59BF93"/>
<path id="Vector_418" d="M45.0483 88.9573H41.9937V92.0119H45.0483V88.9573Z" fill="#59BF93"/>
<path id="Vector_419" d="M23.6723 49.2542H20.6177V52.3087H23.6723V49.2542Z" fill="#59BF93"/>
<path id="Vector_420" d="M26.7206 49.2539H23.666V52.3085H26.7206V49.2539Z" fill="#59BF93"/>
<path id="Vector_421" d="M20.6176 95.0664H17.563V98.121H20.6176V95.0664Z" fill="#59BF93"/>
<path id="Vector_422" d="M23.6723 95.0664H20.6177V98.121H23.6723V95.0664Z" fill="#59BF93"/>
<path id="Vector_423" d="M26.7206 95.0664H23.666V98.121H26.7206V95.0664Z" fill="#59BF93"/>
<path id="Vector_424" d="M29.7753 95.0664H26.7207V98.121H29.7753V95.0664Z" fill="#59BF93"/>
<path id="Vector_425" d="M32.8295 95.0664H29.7749V98.121H32.8295V95.0664Z" fill="#59BF93"/>
<path id="Vector_426" d="M35.8842 95.0664H32.8296V98.121H35.8842V95.0664Z" fill="#59BF93"/>
<path id="Vector_427" d="M51.1572 21.7626V18.708H48.1026V21.7626H51.1572Z" fill="#59BF93"/>
<path id="Vector_428" d="M48.1025 18.7082V15.6536H45.0479V18.7082H48.1025Z" fill="#59BF93"/>
<path id="Vector_429" d="M48.1025 15.6535V12.5989H45.0479V15.6535H48.1025Z" fill="#59BF93"/>
<path id="Vector_430" d="M8.39941 18.7082V15.6536H5.34482V18.7082H8.39941Z" fill="#59BF93"/>
<path id="Vector_431" d="M8.39941 15.6535V12.5989H5.34482V15.6535H8.39941Z" fill="#59BF93"/>
<path id="Vector_432" d="M8.39941 43.1449V40.0903H5.34482V43.1449H8.39941Z" fill="#59BF93"/>
<path id="Vector_433" d="M8.39941 40.0902V37.0356H5.34482V40.0902H8.39941Z" fill="#59BF93"/>
<path id="Vector_434" d="M35.8844 9.54419H38.939V6.48959H35.8844V9.54419Z" fill="#59BF93"/>
<path id="Vector_435" d="M38.9391 9.54419H41.9937V6.48959H38.9391V9.54419Z" fill="#59BF93"/>
<path id="Vector_436" d="M11.4474 9.54419H14.502V6.48959H11.4474V9.54419Z" fill="#59BF93"/>
<path id="Vector_437" d="M14.502 9.54419H17.5566V6.48959H14.502V9.54419Z" fill="#59BF93"/>
<path id="Vector_438" d="M11.4474 49.2473H14.502V46.1927H11.4474V49.2473Z" fill="#59BF93"/>
<path id="Vector_439" d="M14.502 49.2473H17.5566V46.1927H14.502V49.2473Z" fill="#59BF93"/>
<path id="Vector_440" d="M29.7813 6.48975H32.8359V3.43515L29.7813 3.43515V6.48975Z" fill="#59BF93"/>
<path id="Vector_441" d="M26.7267 6.48975H29.7812V3.43515L26.7267 3.43515V6.48975Z" fill="#59BF93"/>
<path id="Vector_442" d="M23.6729 6.48975H26.7275V3.43515L23.6729 3.43515V6.48975Z" fill="#59BF93"/>
<path id="Vector_443" d="M20.6114 6.48975H23.666V3.43515L20.6114 3.43515V6.48975Z" fill="#59BF93"/>
<path id="Vector_444" d="M17.5567 6.48975H20.6113V3.43515L17.5567 3.43515V6.48975Z" fill="#59BF93"/>
<path id="Vector_445" d="M32.8297 6.48975H35.8843V3.43515L32.8297 3.43515V6.48975Z" fill="#59BF93"/>
<path id="Vector_446" d="M23.6729 52.3086H26.7275V49.254H23.6729V52.3086Z" fill="#59BF93"/>
<path id="Vector_447" d="M20.6114 52.3086H23.666V49.254H20.6114V52.3086Z" fill="#59BF93"/>
<path id="Vector_448" d="M17.5567 52.3086H20.6113V49.254H17.5567V52.3086Z" fill="#59BF93"/>
<path id="Vector_449" d="M45.0483 12.5988V9.54419H41.9937V12.5988H45.0483Z" fill="#59BF93"/>
<path id="Vector_450" d="M11.4541 12.6056V9.55103H8.3995V12.6056H11.4541Z" fill="#59BF93"/>
<path id="Vector_451" d="M11.4473 46.1994V43.1448H8.39267V46.1994H11.4473Z" fill="#59BF93"/>
<path id="Vector_452" d="M51.1572 24.8173V21.7627H48.1026V24.8173H51.1572Z" fill="#59BF93"/>
<path id="Vector_453" d="M51.1572 27.872V24.8174H48.1026V27.872H51.1572Z" fill="#59BF93"/>
<path id="Vector_454" d="M5.34521 21.7626V18.708H2.29062V21.7626H5.34521Z" fill="#59BF93"/>
<path id="Vector_455" d="M5.34521 24.817V21.7625H2.29062V24.817H5.34521Z" fill="#59BF93"/>
<path id="Vector_456" d="M5.34521 27.872V24.8174H2.29062V27.872H5.34521Z" fill="#59BF93"/>
<path id="Vector_457" d="M5.34521 30.9262V27.8716H2.29062V30.9262H5.34521Z" fill="#59BF93"/>
<path id="Vector_458" d="M5.34521 33.9809V30.9263H2.29062V33.9809H5.34521Z" fill="#59BF93"/>
<path id="Vector_459" d="M5.34521 37.0358V33.9812H2.29062V37.0358H5.34521Z" fill="#59BF93"/>
<path id="Vector_460" d="M78.6422 52.3086H81.6968V49.254H78.6422V52.3086Z" fill="#59BF93"/>
<path id="Vector_461" d="M81.6964 49.2476H84.751V46.193H81.6964V49.2476Z" fill="#59BF93"/>
<path id="Vector_462" d="M84.7511 49.2476H87.8057V46.193H84.7511V49.2476Z" fill="#59BF93"/>
<path id="Vector_463" d="M81.6964 9.54419H84.751V6.48959H81.6964V9.54419Z" fill="#59BF93"/>
<path id="Vector_464" d="M84.7511 9.54419H87.8057V6.48959H84.7511V9.54419Z" fill="#59BF93"/>
<path id="Vector_465" d="M57.2599 9.54419H60.3145V6.48959H57.2599V9.54419Z" fill="#59BF93"/>
<path id="Vector_466" d="M60.3141 9.54419H63.3687V6.48959H60.3141V9.54419Z" fill="#59BF93"/>
<path id="Vector_467" d="M90.8608 37.0289V40.0835H93.9154V37.0289H90.8608Z" fill="#59BF93"/>
<path id="Vector_468" d="M90.8608 40.0836V43.1382H93.9154V40.0836H90.8608Z" fill="#59BF93"/>
<path id="Vector_469" d="M90.854 12.599V15.6536H93.9086V12.599H90.854Z" fill="#59BF93"/>
<path id="Vector_470" d="M90.854 15.6534V18.708H93.9086V15.6534H90.854Z" fill="#59BF93"/>
<path id="Vector_471" d="M51.1504 12.599V15.6536H54.205V12.599H51.1504Z" fill="#59BF93"/>
<path id="Vector_472" d="M51.1504 15.6534V18.708H54.205V15.6534H51.1504Z" fill="#59BF93"/>
<path id="Vector_473" d="M93.915 30.9266V33.9812H96.9696V30.9266H93.915Z" fill="#59BF93"/>
<path id="Vector_474" d="M93.915 27.8719V30.9265H96.9696V27.8719H93.915Z" fill="#59BF93"/>
<path id="Vector_475" d="M93.915 24.8172V27.8718H96.9696V24.8172H93.915Z" fill="#59BF93"/>
<path id="Vector_476" d="M93.915 21.7628V24.8174H96.9696V21.7628H93.915Z" fill="#59BF93"/>
<path id="Vector_477" d="M93.9082 18.7081V21.7627H96.9628V18.7081H93.9082Z" fill="#59BF93"/>
<path id="Vector_478" d="M93.915 33.9745V37.0291H96.9696V33.9745H93.915Z" fill="#59BF93"/>
<path id="Vector_479" d="M48.1025 24.8172V27.8718H51.1571V24.8172H48.1025Z" fill="#59BF93"/>
<path id="Vector_480" d="M48.1025 21.7628V24.8174H51.1571V21.7628H48.1025Z" fill="#59BF93"/>
<path id="Vector_481" d="M48.1025 18.7081V21.7627H51.1571V18.7081H48.1025Z" fill="#59BF93"/>
<path id="Vector_482" d="M87.8062 46.1929H90.8608V43.1383H87.8062V46.1929Z" fill="#59BF93"/>
<path id="Vector_483" d="M87.8062 12.6055H90.8608V9.55087H87.8062V12.6055Z" fill="#59BF93"/>
<path id="Vector_484" d="M54.2057 12.6055H57.2603V9.55087H54.2057V12.6055Z" fill="#59BF93"/>
<path id="Vector_485" d="M75.5875 52.3086H78.6421V49.254H75.5875V52.3086Z" fill="#59BF93"/>
<path id="Vector_486" d="M72.5328 52.3086H75.5874V49.254H72.5328V52.3086Z" fill="#59BF93"/>
<path id="Vector_487" d="M69.485 52.3086H72.5396V49.254H69.485V52.3086Z" fill="#59BF93"/>
<path id="Vector_488" d="M78.6422 6.48975H81.6968V3.43515L78.6422 3.43515V6.48975Z" fill="#59BF93"/>
<path id="Vector_489" d="M75.5875 6.48975H78.6421V3.43515L75.5875 3.43515V6.48975Z" fill="#59BF93"/>
<path id="Vector_490" d="M72.5328 6.48975H75.5874V3.43515L72.5328 3.43515V6.48975Z" fill="#59BF93"/>
<path id="Vector_491" d="M69.485 6.48975H72.5396V3.43515L69.485 3.43515V6.48975Z" fill="#59BF93"/>
<path id="Vector_492" d="M66.4303 6.48975H69.4849V3.43515L66.4303 3.43515V6.48975Z" fill="#59BF93"/>
<path id="Vector_493" d="M63.3756 6.48975H66.4302V3.43515L63.3756 3.43515V6.48975Z" fill="#59BF93"/>
<path id="Vector_494" d="M48.0962 79.7935V82.8481H51.1508V79.7935H48.0962Z" fill="#59BF93"/>
<path id="Vector_495" d="M51.1504 82.848V85.9026H54.205V82.848H51.1504Z" fill="#59BF93"/>
<path id="Vector_496" d="M51.1504 85.9027V88.9573H54.205V85.9027H51.1504Z" fill="#59BF93"/>
<path id="Vector_497" d="M90.854 82.848V85.9026H93.9086V82.848H90.854Z" fill="#59BF93"/>
<path id="Vector_498" d="M90.854 85.9024V88.957H93.9086V85.9024H90.854Z" fill="#59BF93"/>
<path id="Vector_499" d="M90.8608 58.4178V61.4724H93.9154V58.4178H90.8608Z" fill="#59BF93"/>
<path id="Vector_500" d="M90.8608 61.4723V64.5269H93.9154V61.4723H90.8608Z" fill="#59BF93"/>
<path id="Vector_501" d="M63.3759 92.0117H60.3213V95.0663H63.3759V92.0117Z" fill="#59BF93"/>
<path id="Vector_502" d="M60.3212 92.0117H57.2666V95.0663H60.3212V92.0117Z" fill="#59BF93"/>
<path id="Vector_503" d="M87.8056 92.0117H84.751V95.0663H87.8056V92.0117Z" fill="#59BF93"/>
<path id="Vector_504" d="M84.7514 92.0117H81.6968V95.0663H84.7514V92.0117Z" fill="#59BF93"/>
<path id="Vector_505" d="M87.8056 52.3086H84.751V55.3632H87.8056V52.3086Z" fill="#59BF93"/>
<path id="Vector_506" d="M84.7514 52.3086H81.6968V55.3632H84.7514V52.3086Z" fill="#59BF93"/>
<path id="Vector_507" d="M69.4779 95.0664H66.4233V98.121H69.4779V95.0664Z" fill="#59BF93"/>
<path id="Vector_508" d="M72.5331 95.0664H69.4785V98.121H72.5331V95.0664Z" fill="#59BF93"/>
<path id="Vector_509" d="M75.5873 95.0664H72.5327V98.121H75.5873V95.0664Z" fill="#59BF93"/>
<path id="Vector_510" d="M78.642 95.0664H75.5874V98.121H78.642V95.0664Z" fill="#59BF93"/>
<path id="Vector_511" d="M81.6967 95.0664H78.6421V98.121H81.6967V95.0664Z" fill="#59BF93"/>
<path id="Vector_512" d="M66.4233 95.0664H63.3687V98.121H66.4233V95.0664Z" fill="#59BF93"/>
<path id="Vector_513" d="M72.5331 49.2539H69.4785V52.3085H72.5331V49.2539Z" fill="#59BF93"/>
<path id="Vector_514" d="M75.5873 49.2542H72.5327V52.3087H75.5873V49.2542Z" fill="#59BF93"/>
<path id="Vector_515" d="M78.642 49.2542H75.5874V52.3087H78.642V49.2542Z" fill="#59BF93"/>
<path id="Vector_516" d="M81.6967 49.2539H78.6421V52.3085H81.6967V49.2539Z" fill="#59BF93"/>
<path id="Vector_517" d="M54.2051 88.9571V92.0117H57.2597V88.9571H54.2051Z" fill="#59BF93"/>
<path id="Vector_518" d="M87.8057 88.9571V92.0117H90.8603V88.9571H87.8057Z" fill="#59BF93"/>
<path id="Vector_519" d="M87.8057 55.3634V58.418H90.8603V55.3634H87.8057Z" fill="#59BF93"/>
<path id="Vector_520" d="M48.1025 76.7389V79.7935H51.1571V76.7389H48.1025Z" fill="#59BF93"/>
<path id="Vector_521" d="M48.1025 73.6842V76.7388H51.1571V73.6842H48.1025Z" fill="#59BF93"/>
<path id="Vector_522" d="M93.9082 79.7933V82.8479H96.9628V79.7933H93.9082Z" fill="#59BF93"/>
<path id="Vector_523" d="M93.915 76.7389V79.7935H96.9696V76.7389H93.915Z" fill="#59BF93"/>
<path id="Vector_524" d="M93.915 73.6842V76.7388H96.9696V73.6842H93.915Z" fill="#59BF93"/>
<path id="Vector_525" d="M93.915 70.6297V73.6843H96.9696V70.6297H93.915Z" fill="#59BF93"/>
<path id="Vector_526" d="M93.915 67.575V70.6296H96.9696V67.575H93.915Z" fill="#59BF93"/>
<path id="Vector_527" d="M93.915 64.5204V67.575H96.9696V64.5204H93.915Z" fill="#59BF93"/>
</g>
<path id="Vector_528" d="M90.8604 76.7389V79.7935H93.915V76.7389H90.8604Z" fill="#00AD76"/>
<path id="Vector_529" d="M90.8604 73.6842V76.7388H93.915V73.6842H90.8604Z" fill="#00AD76"/>
<path id="Vector_530" d="M90.8604 70.6297V73.6843H93.9149V70.6297H90.8604Z" fill="#00AD76"/>
<path id="Vector_531" d="M90.8604 67.575V70.6296H93.915V67.575H90.8604Z" fill="#00AD76"/>
<path id="Vector_532" d="M90.8604 64.5269V67.5815H93.915V64.5269H90.8604Z" fill="#00AD76"/>
<path id="Vector_533" d="M90.854 79.7935V82.8481H93.9086V79.7935H90.854Z" fill="#00AD76"/>
<path id="Vector_534" d="M87.8057 76.7389V79.7935H90.8603V76.7389H87.8057Z" fill="#00AD76"/>
<path id="Vector_535" d="M87.8057 73.6842V76.7388H90.8603V73.6842H87.8057Z" fill="#00AD76"/>
<path id="Vector_536" d="M87.8057 70.6297V73.6843H90.8603V70.6297H87.8057Z" fill="#00AD76"/>
<path id="Vector_537" d="M87.8057 67.5816V70.6362H90.8603V67.5816H87.8057Z" fill="#00AD76"/>
<path id="Vector_538" d="M87.8057 64.5269V67.5815H90.8603V64.5269H87.8057Z" fill="#00AD76"/>
<path id="Vector_539" d="M87.8057 61.4725V64.5271H90.8603V61.4725H87.8057Z" fill="#00AD76"/>
<path id="Vector_540" d="M87.8057 58.4178V61.4724H90.8603V58.4178H87.8057Z" fill="#00AD76"/>
<path id="Vector_541" d="M87.7988 79.7935V82.8481H90.8534V79.7935H87.7988Z" fill="#00AD76"/>
<path id="Vector_542" d="M87.8057 82.8546V85.9092H90.8603V82.8546H87.8057Z" fill="#00AD76"/>
<path id="Vector_543" d="M87.8057 85.9159V88.9705H90.8603V85.9159H87.8057Z" fill="#00AD76"/>
<path id="Vector_544" d="M84.751 88.9571V92.0117H87.8056V88.9571H84.751Z" fill="#00AD76"/>
<path id="Vector_545" d="M81.6963 88.9571V92.0117H84.7509V88.9571H81.6963Z" fill="#00AD76"/>
<path id="Vector_546" d="M84.751 76.7389V79.7935H87.8056V76.7389H84.751Z" fill="#31B787"/>
<path id="Vector_547" d="M84.751 73.6842V76.7388H87.8056V73.6842H84.751Z" fill="#59BF93"/>
<path id="Vector_548" d="M84.751 70.6363V73.6909H87.8056V70.6363H84.751Z" fill="#31B787"/>
<path id="Vector_549" d="M84.751 67.5816V70.6362H87.8056V67.5816H84.751Z" fill="#31B787"/>
<path id="Vector_550" d="M84.751 64.5269V67.5815H87.8056V64.5269H84.751Z" fill="#31B787"/>
<path id="Vector_551" d="M84.7446 79.7935V82.8481H87.7992V79.7935H84.7446Z" fill="#31B787"/>
<path id="Vector_552" d="M81.6963 76.7389V79.7935H84.7509V76.7389H81.6963Z" fill="#59BF93"/>
<path id="Vector_553" d="M81.6963 73.6842V76.7388H84.7509V73.6842H81.6963Z" fill="#31B787"/>
<path id="Vector_554" d="M81.6963 70.6363V73.6909H84.7509V70.6363H81.6963Z" fill="#59BF93"/>
<path id="Vector_555" d="M81.6963 67.5816V70.6362H84.7509V67.5816H81.6963Z" fill="#59BF93"/>
<path id="Vector_556" d="M81.6963 64.5269V67.5815H84.7509V64.5269H81.6963Z" fill="#59BF93"/>
<path id="Vector_557" d="M81.6899 79.7935V82.8481H84.7445V79.7935H81.6899Z" fill="#31B787"/>
<path id="Vector_558" d="M78.6416 76.7389V79.7935H81.6962V76.7389H78.6416Z" fill="#31B787"/>
<path id="Vector_559" d="M78.6416 73.6908V76.7454H81.6962V73.6908H78.6416Z" fill="#59BF93"/>
<path id="Vector_560" d="M78.6416 70.6363V73.6909H81.6962V70.6363H78.6416Z" fill="#59BF93"/>
<path id="Vector_561" d="M78.6416 67.5816V70.6362H81.6962V67.5816H78.6416Z" fill="#59BF93"/>
<path id="Vector_562" d="M78.6416 64.5269V67.5815H81.6962V64.5269H78.6416Z" fill="#59BF93"/>
<path id="Vector_563" d="M78.6416 79.7933V82.8479H81.6962V79.7933H78.6416Z" fill="#59BF93"/>
<path id="Vector_564" d="M75.5942 76.7454V79.8H78.6488V76.7454H75.5942Z" fill="#59BF93"/>
<path id="Vector_565" d="M75.5869 73.6908V76.7454H78.6415V73.6908H75.5869Z" fill="#59BF93"/>
<path id="Vector_566" d="M75.5874 70.6363V73.6909H78.642V70.6363H75.5874Z" fill="#59BF93"/>
<path id="Vector_567" d="M75.5874 67.5816V70.6362H78.642V67.5816H75.5874Z" fill="#59BF93"/>
<path id="Vector_568" d="M75.5874 64.5269V67.5815H78.642V64.5269H75.5874Z" fill="#59BF93"/>
<path id="Vector_569" d="M75.5874 79.7933V82.8479H78.642V79.7933H75.5874Z" fill="#31B787"/>
<path id="Vector_570" d="M72.5396 76.7454V79.8H75.5941V76.7454H72.5396Z" fill="#31B787"/>
<path id="Vector_571" d="M72.5396 73.6908V76.7454H75.5941V73.6908H72.5396Z" fill="#59BF93"/>
<path id="Vector_572" d="M72.5327 70.6361V73.6907H75.5873V70.6361H72.5327Z" fill="#59BF93"/>
<path id="Vector_573" d="M72.5327 67.5816V70.6362H75.5873V67.5816H72.5327Z" fill="#59BF93"/>
<path id="Vector_574" d="M72.5327 64.5272V67.5818H75.5873V64.5272H72.5327Z" fill="#59BF93"/>
<path id="Vector_575" d="M72.5327 79.7999V82.8545H75.5873V79.7999H72.5327Z" fill="#59BF93"/>
<path id="Vector_576" d="M69.4849 76.7454V79.8H72.5395V76.7454H69.4849Z" fill="#31B787"/>
<path id="Vector_577" d="M69.4849 73.6908V76.7454H72.5395V73.6908H69.4849Z" fill="#59BF93"/>
<path id="Vector_578" d="M69.4849 70.6361V73.6907H72.5395V70.6361H69.4849Z" fill="#59BF93"/>
<path id="Vector_579" d="M69.478 67.5816V70.6362H72.5326V67.5816H69.478Z" fill="#59BF93"/>
<path id="Vector_580" d="M69.478 64.5269V67.5815H72.5326V64.5269H69.478Z" fill="#59BF93"/>
<path id="Vector_581" d="M69.478 79.8001V82.8547H72.5326V79.8001H69.478Z" fill="#31B787"/>
<path id="Vector_582" d="M66.4297 76.7454V79.8H69.4843V76.7454H66.4297Z" fill="#31B787"/>
<path id="Vector_583" d="M66.4297 73.6908V76.7454H69.4843V73.6908H66.4297Z" fill="#59BF93"/>
<path id="Vector_584" d="M66.4297 70.6363V73.6909H69.4843V70.6363H66.4297Z" fill="#59BF93"/>
<path id="Vector_585" d="M66.4297 67.5816V70.6362H69.4843V67.5816H66.4297Z" fill="#59BF93"/>
<path id="Vector_586" d="M66.4233 64.5269V67.5815H69.4779V64.5269H66.4233Z" fill="#59BF93"/>
<path id="Vector_587" d="M66.4233 79.8001V82.8547H69.4779V79.8001H66.4233Z" fill="#31B787"/>
<path id="Vector_588" d="M63.376 76.7454V79.8H66.4306V76.7454H63.376Z" fill="#31B787"/>
<path id="Vector_589" d="M63.376 73.6908V76.7454H66.4306V73.6908H63.376Z" fill="#59BF93"/>
<path id="Vector_590" d="M63.376 70.6361V73.6907H66.4306V70.6361H63.376Z" fill="#59BF93"/>
<path id="Vector_591" d="M63.376 67.5816V70.6362H66.4306V67.5816H63.376Z" fill="#59BF93"/>
<path id="Vector_592" d="M63.376 64.5269V67.5815H66.4306V64.5269H63.376Z" fill="#59BF93"/>
<path id="Vector_593" d="M63.3687 79.8001V82.8547H66.4232V79.8001H63.3687Z" fill="#31B787"/>
<path id="Vector_594" d="M60.3213 76.7389V79.7935H63.3759V76.7389H60.3213Z" fill="#31B787"/>
<path id="Vector_595" d="M60.3213 73.6842V76.7388H63.3759V73.6842H60.3213Z" fill="#31B787"/>
<path id="Vector_596" d="M60.3213 70.6361V73.6907H63.3759V70.6361H60.3213Z" fill="#59BF93"/>
<path id="Vector_597" d="M60.3145 79.7999V82.8545H63.369V79.7999H60.3145Z" fill="#31B787"/>
<path id="Vector_598" d="M57.2666 76.7389V79.7935H60.3212V76.7389H57.2666Z" fill="#31B787"/>
<path id="Vector_599" d="M57.2666 73.6842V76.7388H60.3212V73.6842H57.2666Z" fill="#31B787"/>
<path id="Vector_600" d="M57.2666 70.6297V73.6843H60.3212V70.6297H57.2666Z" fill="#59BF93"/>
<path id="Vector_601" d="M57.2598 79.7933V82.8479H60.3144V79.7933H57.2598Z" fill="#31B787"/>
<path id="Vector_602" d="M54.2119 76.7389V79.7935H57.2665V76.7389H54.2119Z" fill="#00AD76"/>
<path id="Vector_603" d="M54.2119 73.6842V76.7388H57.2665V73.6842H54.2119Z" fill="#00AD76"/>
<path id="Vector_604" d="M54.2119 70.6297V73.6843H57.2665V70.6297H54.2119Z" fill="#59BF93"/>
<path id="Vector_605" d="M54.2051 79.7933V82.8479H57.2597V79.7933H54.2051Z" fill="#00AD76"/>
<path id="Vector_606" d="M84.751 82.8546V85.9092H87.8056V82.8546H84.751Z" fill="#00AD76"/>
<path id="Vector_607" d="M81.6963 82.8546V85.9092H84.7509V82.8546H81.6963Z" fill="#00AD76"/>
<path id="Vector_608" d="M78.6416 82.8546V85.9092H81.6962V82.8546H78.6416Z" fill="#00AD76"/>
<path id="Vector_609" d="M75.5869 82.8546V85.9092H78.6415V82.8546H75.5869Z" fill="#00AD76"/>
<path id="Vector_610" d="M72.5327 82.8546V85.9092H75.5873V82.8546H72.5327Z" fill="#00AD76"/>
<path id="Vector_611" d="M69.478 82.8546V85.9092H72.5326V82.8546H69.478Z" fill="#00AD76"/>
<path id="Vector_612" d="M66.4233 82.8546V85.9092H69.4779V82.8546H66.4233Z" fill="#00AD76"/>
<path id="Vector_613" d="M63.3687 82.8546V85.9092H66.4233V82.8546H63.3687Z" fill="#00AD76"/>
<path id="Vector_614" d="M60.3145 82.8614V85.916H63.3691V82.8614H60.3145Z" fill="#00AD76"/>
<path id="Vector_615" d="M57.2598 82.8546V85.9092H60.3144V82.8546H57.2598Z" fill="#00AD76"/>
<path id="Vector_616" d="M54.2051 82.8546V85.9092H57.2597V82.8546H54.2051Z" fill="#00AD76"/>
<path id="Vector_617" d="M84.751 85.9159V88.9705H87.8056V85.9159H84.751Z" fill="#00AD76"/>
<path id="Vector_618" d="M81.6963 85.9159V88.9705H84.7509V85.9159H81.6963Z" fill="#00AD76"/>
<path id="Vector_619" d="M78.6416 85.9159V88.9705H81.6962V85.9159H78.6416Z" fill="#00AD76"/>
<path id="Vector_620" d="M75.5874 85.9159V88.9705H78.642V85.9159H75.5874Z" fill="#00AD76"/>
<path id="Vector_621" d="M72.5327 85.9159V88.9705H75.5873V85.9159H72.5327Z" fill="#00AD76"/>
<path id="Vector_622" d="M69.478 85.9159V88.9705H72.5326V85.9159H69.478Z" fill="#00AD76"/>
<path id="Vector_623" d="M66.4297 85.9159V88.9705H69.4843V85.9159H66.4297Z" fill="#00AD76"/>
<path id="Vector_624" d="M63.376 85.9159V88.9705H66.4306V85.9159H63.376Z" fill="#00AD76"/>
<path id="Vector_625" d="M60.3213 85.9159V88.9705H63.3759V85.9159H60.3213Z" fill="#00AD76"/>
<path id="Vector_626" d="M57.2666 85.9093V88.9639H60.3212V85.9093H57.2666Z" fill="#00AD76"/>
<path id="Vector_627" d="M78.6416 88.9571V92.0117H81.6962V88.9571H78.6416Z" fill="#12AF8A"/>
<path id="Vector_628" d="M75.5869 88.9571V92.0117H78.6415V88.9571H75.5869Z" fill="#12AF8A"/>
<path id="Vector_629" d="M72.5327 88.9571V92.0117H75.5873V88.9571H72.5327Z" fill="#12AF8A"/>
<path id="Vector_630" d="M69.478 88.9571V92.0117H72.5326V88.9571H69.478Z" fill="#12AF8A"/>
<path id="Vector_631" d="M66.4233 88.9571V92.0117H69.4779V88.9571H66.4233Z" fill="#12AF8A"/>
<path id="Vector_632" d="M63.3687 88.9637V92.0183H66.4233V88.9637H63.3687Z" fill="#12AF8A"/>
<path id="Vector_633" d="M78.6416 92.0184V95.073H81.6962V92.0184H78.6416Z" fill="#00AD76"/>
<path id="Vector_634" d="M75.5869 92.0184V95.073H78.6415V92.0184H75.5869Z" fill="#00AD76"/>
<path id="Vector_635" d="M72.5327 92.0184V95.073H75.5873V92.0184H72.5327Z" fill="#00AD76"/>
<path id="Vector_636" d="M69.478 92.0184V95.073H72.5326V92.0184H69.478Z" fill="#00AD76"/>
<path id="Vector_637" d="M66.4233 92.0184V95.073H69.4779V92.0184H66.4233Z" fill="#00AD76"/>
<path id="Vector_638" d="M63.3687 92.0184V95.073H66.4233V92.0184H63.3687Z" fill="#00AD76"/>
<path id="Vector_639" d="M60.3145 88.9637V92.0183H63.3691V88.9637H60.3145Z" fill="#12AF8A"/>
<path id="Vector_640" d="M57.2598 88.9571V92.0117H60.3144V88.9571H57.2598Z" fill="#12AF8A"/>
<path id="Vector_641" d="M54.2119 85.9093V88.9639H57.2665V85.9093H54.2119Z" fill="#00AD76"/>
<path id="Vector_642" d="M51.1572 76.7389V79.7935H54.2118V76.7389H51.1572Z" fill="#00AD76"/>
<path id="Vector_643" d="M51.1572 73.6842V76.7388H54.2118V73.6842H51.1572Z" fill="#00AD76"/>
<path id="Vector_644" d="M51.1572 70.6297V73.6843H54.2118V70.6297H51.1572Z" fill="#59BF93"/>
<path id="Vector_645" d="M60.3213 67.5816V70.6362H63.3759V67.5816H60.3213Z" fill="#59BF93"/>
<path id="Vector_646" d="M57.2666 67.575V70.6296H60.3212V67.575H57.2666Z" fill="#59BF93"/>
<path id="Vector_647" d="M54.2119 67.575V70.6296H57.2665V67.575H54.2119Z" fill="#59BF93"/>
<path id="Vector_648" d="M51.1572 67.575V70.6296H54.2118V67.575H51.1572Z" fill="#59BF93"/>
<path id="Vector_649" d="M48.1025 70.6297V73.6843H51.1571V70.6297H48.1025Z" fill="#59BF93"/>
<path id="Vector_650" d="M45.0479 70.6295V73.6841H48.1024V70.6295H45.0479Z" fill="#59BF93"/>
<path id="Vector_651" d="M48.1025 67.575V70.6296H51.1571V67.575H48.1025Z" fill="#59BF93"/>
<path id="Vector_652" d="M45.0479 67.5816V70.6362H48.1025V67.5816H45.0479Z" fill="#59BF93"/>
<path id="Vector_653" d="M57.2666 64.5269V67.5815H60.3212V64.5269H57.2666Z" fill="#59BF93"/>
<path id="Vector_654" d="M60.3213 64.5338V67.5884H63.3759V64.5338H60.3213Z" fill="#59BF93"/>
<path id="Vector_655" d="M54.2119 64.5269V67.5815H57.2665V64.5269H54.2119Z" fill="#59BF93"/>
<path id="Vector_656" d="M51.1572 64.5269V67.5815H54.2118V64.5269H51.1572Z" fill="#59BF93"/>
<path id="Vector_657" d="M48.1025 64.5269V67.5815H51.1571V64.5269H48.1025Z" fill="#59BF93"/>
<path id="Vector_658" d="M45.0479 64.5269V67.5815H48.1025V64.5269H45.0479Z" fill="#59BF93"/>
<path id="Vector_659" d="M41.9937 70.6361V73.6907H45.0482V70.6361H41.9937Z" fill="#59BF93"/>
<path id="Vector_660" d="M41.9937 67.5816V70.6362H45.0483V67.5816H41.9937Z" fill="#59BF93"/>
<path id="Vector_661" d="M41.9937 64.5269V67.5815H45.0483V64.5269H41.9937Z" fill="#59BF93"/>
<path id="Vector_662" d="M38.939 64.5269V67.5815H41.9936V64.5269H38.939Z" fill="#59BF93"/>
<path id="Vector_663" d="M41.9937 61.4725V64.5271H45.0483V61.4725H41.9937Z" fill="#59BF93"/>
<path id="Vector_664" d="M38.939 61.4725V64.5271H41.9936V61.4725H38.939Z" fill="#59BF93"/>
<path id="Vector_665" d="M84.751 61.4725V64.5271H87.8056V61.4725H84.751Z" fill="#31B787"/>
<path id="Vector_666" d="M84.751 58.4178V61.4724H87.8056V58.4178H84.751Z" fill="#31B787"/>
<path id="Vector_667" d="M81.6963 61.4725V64.5271H84.7509V61.4725H81.6963Z" fill="#59BF93"/>
<path id="Vector_668" d="M81.6963 58.4178V61.4724H84.7509V58.4178H81.6963Z" fill="#59BF93"/>
<path id="Vector_669" d="M78.6416 61.4725V64.5271H81.6962V61.4725H78.6416Z" fill="#59BF93"/>
<path id="Vector_670" d="M78.6416 58.4244V61.479H81.6962V58.4244H78.6416Z" fill="#31B787"/>
<path id="Vector_671" d="M75.5874 61.4725V64.5271H78.642V61.4725H75.5874Z" fill="#59BF93"/>
<path id="Vector_672" d="M75.5874 58.4178V61.4724H78.642V58.4178H75.5874Z" fill="#59BF93"/>
<path id="Vector_673" d="M72.5327 61.4723V64.5269H75.5873V61.4723H72.5327Z" fill="#59BF93"/>
<path id="Vector_674" d="M72.5327 58.4181V61.4727H75.5873V58.4181H72.5327Z" fill="#59BF93"/>
<path id="Vector_675" d="M84.751 55.37V58.4246H87.8056V55.37H84.751Z" fill="#31B787"/>
<path id="Vector_676" d="M81.6963 55.37V58.4246H84.7509V55.37H81.6963Z" fill="#59BF93"/>
<path id="Vector_677" d="M78.6416 55.37V58.4246H81.6962V55.37H78.6416Z" fill="#59BF93"/>
<path id="Vector_678" d="M75.5874 55.37V58.4246H78.642V55.37H75.5874Z" fill="#59BF93"/>
<path id="Vector_679" d="M72.5327 55.3697V58.4243H75.5873V55.3697H72.5327Z" fill="#59BF93"/>
<path id="Vector_680" d="M78.6416 52.3153V55.3699H81.6962V52.3153H78.6416Z" fill="#59BF93"/>
<path id="Vector_681" d="M75.5874 52.3153V55.3699H78.642V52.3153H75.5874Z" fill="#59BF93"/>
<path id="Vector_682" d="M72.5327 52.3153V55.3699H75.5873V52.3153H72.5327Z" fill="#59BF93"/>
<path id="Vector_683" d="M69.478 61.4725V64.5271H72.5326V61.4725H69.478Z" fill="#59BF93"/>
<path id="Vector_684" d="M69.478 58.4178V61.4724H72.5326V58.4178H69.478Z" fill="#59BF93"/>
<path id="Vector_685" d="M66.4233 61.4725V64.5271H69.4779V61.4725H66.4233Z" fill="#59BF93"/>
<path id="Vector_686" d="M66.4233 58.4178V61.4724H69.4779V58.4178H66.4233Z" fill="#59BF93"/>
<path id="Vector_687" d="M63.3687 61.4725V64.5271H66.4233V61.4725H63.3687Z" fill="#59BF93"/>
<path id="Vector_688" d="M60.3213 61.4725V64.5271H63.3759V61.4725H60.3213Z" fill="#59BF93"/>
<path id="Vector_689" d="M57.2666 61.4659V64.5205H60.3212V61.4659H57.2666Z" fill="#59BF93"/>
<path id="Vector_690" d="M54.2119 61.4659V64.5205H57.2665V61.4659H54.2119Z" fill="#59BF93"/>
<path id="Vector_691" d="M63.3687 58.4178V61.4724H66.4233V58.4178H63.3687Z" fill="#59BF93"/>
<path id="Vector_692" d="M60.3145 58.4181V61.4727H63.3691V58.4181H60.3145Z" fill="#59BF93"/>
<path id="Vector_693" d="M57.2666 58.4112V61.4658H60.3212V58.4112H57.2666Z" fill="#59BF93"/>
<path id="Vector_694" d="M54.2119 58.4181V61.4727H57.2665V58.4181H54.2119Z" fill="#59BF93"/>
<path id="Vector_695" d="M51.1572 61.4725V64.5271H54.2118V61.4725H51.1572Z" fill="#59BF93"/>
<path id="Vector_696" d="M48.1025 61.4725V64.5271H51.1571V61.4725H48.1025Z" fill="#59BF93"/>
<path id="Vector_697" d="M51.1572 58.4181V61.4727H54.2118V58.4181H51.1572Z" fill="#59BF93"/>
<path id="Vector_698" d="M48.1025 58.4181V61.4727H51.1571V58.4181H48.1025Z" fill="#59BF93"/>
<path id="Vector_699" d="M45.0479 61.4723V64.5269H48.1025V61.4723H45.0479Z" fill="#59BF93"/>
<path id="Vector_700" d="M45.0479 58.4178V61.4724H48.1025V58.4178H45.0479Z" fill="#59BF93"/>
<path id="Vector_701" d="M69.478 55.37V58.4246H72.5326V55.37H69.478Z" fill="#59BF93"/>
<path id="Vector_702" d="M69.478 52.3153V55.3699H72.5326V52.3153H69.478Z" fill="#59BF93"/>
<path id="Vector_703" d="M66.4297 55.3697V58.4243H69.4843V55.3697H66.4297Z" fill="#59BF93"/>
<path id="Vector_704" d="M66.4233 52.3153V55.3699H69.4779V52.3153H66.4233Z" fill="#59BF93"/>
<path id="Vector_705" d="M63.376 55.3697V58.4243H66.4306V55.3697H63.376Z" fill="#59BF93"/>
<path id="Vector_706" d="M63.376 52.3153V55.3699H66.4306V52.3153H63.376Z" fill="#59BF93"/>
<path id="Vector_707" d="M60.3213 55.3697V58.4243H63.3759V55.3697H60.3213Z" fill="#59BF93"/>
<path id="Vector_708" d="M60.3213 52.3153V55.3699H63.3759V52.3153H60.3213Z" fill="#59BF93"/>
<path id="Vector_709" d="M57.2666 55.3634V58.418H60.3212V55.3634H57.2666Z" fill="#59BF93"/>
<path id="Vector_710" d="M57.2666 52.3087V55.3633H60.3212V52.3087H57.2666Z" fill="#59BF93"/>
<path id="Vector_711" d="M54.2119 55.3634V58.418H57.2665V55.3634H54.2119Z" fill="#59BF93"/>
<path id="Vector_712" d="M54.2119 52.3087V55.3633H57.2665V52.3087H54.2119Z" fill="#59BF93"/>
<path id="Vector_713" d="M51.1572 55.3634V58.418H54.2118V55.3634H51.1572Z" fill="#59BF93"/>
<path id="Vector_714" d="M51.1572 52.3153V55.3699H54.2118V52.3153H51.1572Z" fill="#59BF93"/>
<path id="Vector_715" d="M48.1025 55.3697V58.4243H51.1571V55.3697H48.1025Z" fill="#59BF93"/>
<path id="Vector_716" d="M45.0479 55.3697V58.4243H48.1025V55.3697H45.0479Z" fill="#59BF93"/>
<path id="Vector_717" d="M41.9937 55.3697V58.4243H45.0483V55.3697H41.9937Z" fill="#59BF93"/>
<path id="Vector_718" d="M38.939 55.3697V58.4243H41.9936V55.3697H38.939Z" fill="#59BF93"/>
<path id="Vector_719" d="M48.1025 52.3153V55.3699H51.1571V52.3153H48.1025Z" fill="#59BF93"/>
<path id="Vector_720" d="M45.0479 52.3153V55.3699H48.1025V52.3153H45.0479Z" fill="#59BF93"/>
<path id="Vector_721" d="M41.9937 52.3153V55.3699H45.0483V52.3153H41.9937Z" fill="#59BF93"/>
<path id="Vector_722" d="M38.939 52.3153V55.3699H41.9936V52.3153H38.939Z" fill="#59BF93"/>
<path id="Vector_723" d="M35.8843 55.3697V58.4243H38.9389V55.3697H35.8843Z" fill="#59BF93"/>
<path id="Vector_724" d="M32.8296 55.3697V58.4243H35.8842V55.3697H32.8296Z" fill="#59BF93"/>
<path id="Vector_725" d="M35.8843 52.3153V55.3699H38.9389V52.3153H35.8843Z" fill="#59BF93"/>
<path id="Vector_726" d="M32.8296 52.3153V55.3699H35.8842V52.3153H32.8296Z" fill="#59BF93"/>
<path id="Vector_727" d="M29.7749 55.3697V58.4243H32.8295V55.3697H29.7749Z" fill="#59BF93"/>
<path id="Vector_728" d="M41.9937 58.4181V61.4727H45.0483V58.4181H41.9937Z" fill="#59BF93"/>
<path id="Vector_729" d="M38.939 58.4181V61.4727H41.9936V58.4181H38.939Z" fill="#59BF93"/>
<path id="Vector_730" d="M35.8843 58.4181V61.4727H38.9389V58.4181H35.8843Z" fill="#59BF93"/>
<path id="Vector_731" d="M32.8296 58.4181V61.4727H35.8842V58.4181H32.8296Z" fill="#59BF93"/>
<path id="Vector_732" d="M29.7749 58.4181V61.4727H32.8295V58.4181H29.7749Z" fill="#59BF93"/>
<path id="Vector_733" d="M26.7207 58.4181V61.4727H29.7753V58.4181H26.7207Z" fill="#59BF93"/>
<path id="Vector_734" d="M23.6655 58.4178V61.4724H26.7201V58.4178H23.6655Z" fill="#59BF93"/>
<path id="Vector_735" d="M20.6113 58.4181V61.4727H23.6659V58.4181H20.6113Z" fill="#31B787"/>
<path id="Vector_736" d="M17.563 58.4112V61.4658H20.6176V58.4112H17.563Z" fill="#31B787"/>
<path id="Vector_737" d="M17.563 55.3631V58.4177H20.6176V55.3631H17.563Z" fill="#31B787"/>
<path id="Vector_738" d="M17.563 52.3087V55.3633H20.6176V52.3087H17.563Z" fill="#31B787"/>
<path id="Vector_739" d="M14.5083 58.4178V61.4724H17.5629V58.4178H14.5083Z" fill="#31B787"/>
<path id="Vector_740" d="M29.7749 52.3153V55.3699H32.8295V52.3153H29.7749Z" fill="#59BF93"/>
<path id="Vector_741" d="M26.7271 55.37V58.4246H29.7816V55.37H26.7271Z" fill="#59BF93"/>
<path id="Vector_742" d="M23.6724 55.37V58.4246H26.727V55.37H23.6724Z" fill="#59BF93"/>
<path id="Vector_743" d="M26.7207 52.3153V55.3699H29.7753V52.3153H26.7207Z" fill="#59BF93"/>
<path id="Vector_744" d="M23.6724 52.3153V55.3699H26.727V52.3153H23.6724Z" fill="#59BF93"/>
<path id="Vector_745" d="M20.6177 55.37V58.4246H23.6723V55.37H20.6177Z" fill="#31B787"/>
<path id="Vector_746" d="M20.6177 52.3153V55.3699H23.6723V52.3153H20.6177Z" fill="#31B787"/>
<path id="Vector_747" d="M51.1504 79.7933V82.8479H54.205V79.7933H51.1504Z" fill="#00AD76"/>
<path id="Vector_748" d="M45.0479 76.7389V79.7935H48.1025V76.7389H45.0479Z" fill="#00AD76"/>
<path id="Vector_749" d="M45.0479 73.6842V76.7388H48.1025V73.6842H45.0479Z" fill="#00AD76"/>
<path id="Vector_750" d="M45.041 79.7933V82.8479H48.0956V79.7933H45.041Z" fill="#00AD76"/>
<path id="Vector_751" d="M41.9937 76.7389V79.7935H45.0483V76.7389H41.9937Z" fill="#00AD76"/>
<path id="Vector_752" d="M41.9937 73.6908V76.7454H45.0483V73.6908H41.9937Z" fill="#00AD76"/>
<path id="Vector_753" d="M41.9937 79.7935V82.8481H45.0482V79.7935H41.9937Z" fill="#00AD76"/>
<path id="Vector_754" d="M41.9937 82.8546V85.9092H45.0483V82.8546H41.9937Z" fill="#00AD76"/>
<path id="Vector_755" d="M41.9937 85.9159V88.9705H45.0483V85.9159H41.9937Z" fill="#00AD76"/>
<path id="Vector_756" d="M38.939 88.9574V92.012H41.9936V88.9574H38.939Z" fill="#00AD76"/>
<path id="Vector_757" d="M35.8843 88.9574V92.012H38.9389V88.9574H35.8843Z" fill="#00AD76"/>
<path id="Vector_758" d="M38.9453 76.7455V79.8H41.9999V76.7455H38.9453Z" fill="#31B787"/>
<path id="Vector_759" d="M38.939 73.6908V76.7454H41.9936V73.6908H38.939Z" fill="#31B787"/>
<path id="Vector_760" d="M38.939 79.7935V82.8481H41.9936V79.7935H38.939Z" fill="#31B787"/>
<path id="Vector_761" d="M35.8906 76.7454V79.8H38.9452V76.7454H35.8906Z" fill="#59BF93"/>
<path id="Vector_762" d="M35.8906 73.6908V76.7454H38.9452V73.6908H35.8906Z" fill="#59BF93"/>
<path id="Vector_763" d="M35.8843 79.7999V82.8545H38.9389V79.7999H35.8843Z" fill="#31B787"/>
<path id="Vector_764" d="M32.8359 76.7454V79.8H35.8905V76.7454H32.8359Z" fill="#31B787"/>
<path id="Vector_765" d="M32.8359 73.6908V76.7454H35.8905V73.6908H32.8359Z" fill="#59BF93"/>
<path id="Vector_766" d="M32.8296 79.7999V82.8545H35.8842V79.7999H32.8296Z" fill="#31B787"/>
<path id="Vector_767" d="M29.7812 76.7454V79.8H32.8358V76.7454H29.7812Z" fill="#59BF93"/>
<path id="Vector_768" d="M29.7812 73.6908V76.7454H32.8358V73.6908H29.7812Z" fill="#31B787"/>
<path id="Vector_769" d="M29.7749 79.7999V82.8545H32.8295V79.7999H29.7749Z" fill="#31B787"/>
<path id="Vector_770" d="M26.7271 76.7454V79.8H29.7816V76.7454H26.7271Z" fill="#59BF93"/>
<path id="Vector_771" d="M26.7271 73.6908V76.7454H29.7816V73.6908H26.7271Z" fill="#59BF93"/>
<path id="Vector_772" d="M26.7207 79.7999V82.8545H29.7753V79.7999H26.7207Z" fill="#31B787"/>
<path id="Vector_773" d="M23.6724 76.7454V79.8H26.727V76.7454H23.6724Z" fill="#31B787"/>
<path id="Vector_774" d="M23.6724 73.6908V76.7454H26.727V73.6908H23.6724Z" fill="#31B787"/>
<path id="Vector_775" d="M23.6655 79.8001V82.8547H26.7201V79.8001H23.6655Z" fill="#31B787"/>
<path id="Vector_776" d="M20.6177 76.7389V79.7935H23.6723V76.7389H20.6177Z" fill="#31B787"/>
<path id="Vector_777" d="M20.6177 73.6842V76.7388H23.6723V73.6842H20.6177Z" fill="#31B787"/>
<path id="Vector_778" d="M20.6113 79.7935V82.8481H23.6659V79.7935H20.6113Z" fill="#31B787"/>
<path id="Vector_779" d="M17.563 76.7389V79.7935H20.6176V76.7389H17.563Z" fill="#31B787"/>
<path id="Vector_780" d="M17.563 73.6842V76.7388H20.6176V73.6842H17.563Z" fill="#31B787"/>
<path id="Vector_781" d="M17.5566 79.7935V82.8481H20.6112V79.7935H17.5566Z" fill="#31B787"/>
<path id="Vector_782" d="M14.5083 76.7389V79.7935H17.5629V76.7389H14.5083Z" fill="#31B787"/>
<path id="Vector_783" d="M14.5083 73.6842V76.7388H17.5629V73.6842H14.5083Z" fill="#31B787"/>
<path id="Vector_784" d="M14.502 79.7935V82.8481H17.5565V79.7935H14.502Z" fill="#31B787"/>
<path id="Vector_785" d="M11.4536 76.7389V79.7935H14.5082V76.7389H11.4536Z" fill="#00AD76"/>
<path id="Vector_786" d="M11.4536 73.6842V76.7388H14.5082V73.6842H11.4536Z" fill="#00AD76"/>
<path id="Vector_787" d="M11.4473 79.7935V82.8481H14.5019V79.7935H11.4473Z" fill="#00AD76"/>
<path id="Vector_788" d="M8.39941 76.7389V79.7935H11.454V76.7389H8.39941Z" fill="#00AD76"/>
<path id="Vector_789" d="M8.39941 73.6842V76.7388H11.454V73.6842H8.39941Z" fill="#00AD76"/>
<path id="Vector_790" d="M8.39307 79.7935V82.8481H11.4477V79.7935H8.39307Z" fill="#00AD76"/>
<path id="Vector_791" d="M38.939 82.8546V85.9092H41.9936V82.8546H38.939Z" fill="#00AD76"/>
<path id="Vector_792" d="M35.8843 82.8546V85.9092H38.9389V82.8546H35.8843Z" fill="#00AD76"/>
<path id="Vector_793" d="M32.8296 82.8546V85.9092H35.8842V82.8546H32.8296Z" fill="#00AD76"/>
<path id="Vector_794" d="M29.7749 82.8546V85.9092H32.8295V82.8546H29.7749Z" fill="#00AD76"/>
<path id="Vector_795" d="M26.7207 82.8546V85.9092H29.7753V82.8546H26.7207Z" fill="#00AD76"/>
<path id="Vector_796" d="M23.6655 82.8612V85.9158H26.7201V82.8612H23.6655Z" fill="#00AD76"/>
<path id="Vector_797" d="M20.6113 82.8546V85.9092H23.6659V82.8546H20.6113Z" fill="#00AD76"/>
<path id="Vector_798" d="M17.5566 82.8546V85.9092H20.6112V82.8546H17.5566Z" fill="#00AD76"/>
<path id="Vector_799" d="M14.5083 82.8546V85.9092H17.5629V82.8546H14.5083Z" fill="#00AD76"/>
<path id="Vector_800" d="M11.4536 82.8546V85.9092H14.5082V82.8546H11.4536Z" fill="#00AD76"/>
<path id="Vector_801" d="M8.39941 82.8546V85.9092H11.454V82.8546H8.39941Z" fill="#00AD76"/>
<path id="Vector_802" d="M38.939 85.9159V88.9705H41.9936V85.9159H38.939Z" fill="#00AD76"/>
<path id="Vector_803" d="M35.8843 85.9159V88.9705H38.9389V85.9159H35.8843Z" fill="#00AD76"/>
<path id="Vector_804" d="M32.8296 85.9159V88.9705H35.8842V85.9159H32.8296Z" fill="#00AD76"/>
<path id="Vector_805" d="M29.7812 85.9159V88.9705H32.8358V85.9159H29.7812Z" fill="#00AD76"/>
<path id="Vector_806" d="M26.7271 85.9159V88.9705H29.7816V85.9159H26.7271Z" fill="#00AD76"/>
<path id="Vector_807" d="M20.6177 85.9093V88.9639H23.6723V85.9093H20.6177Z" fill="#00AD76"/>
<path id="Vector_808" d="M23.6724 85.9159V88.9705H26.727V85.9159H23.6724Z" fill="#00AD76"/>
<path id="Vector_809" d="M17.563 85.9093V88.9639H20.6176V85.9093H17.563Z" fill="#00AD76"/>
<path id="Vector_810" d="M14.5083 85.9093V88.9639H17.5629V85.9093H14.5083Z" fill="#00AD76"/>
<path id="Vector_811" d="M11.4536 85.9093V88.9639H14.5082V85.9093H11.4536Z" fill="#00AD76"/>
<path id="Vector_812" d="M32.8296 88.9574V92.012H35.8842V88.9574H32.8296Z" fill="#00AD76"/>
<path id="Vector_813" d="M29.7749 88.9574V92.012H32.8295V88.9574H29.7749Z" fill="#00AD76"/>
<path id="Vector_814" d="M26.7207 88.9637V92.0183H29.7753V88.9637H26.7207Z" fill="#00AD76"/>
<path id="Vector_815" d="M23.6655 88.9637V92.0183H26.7201V88.9637H23.6655Z" fill="#00AD76"/>
<path id="Vector_816" d="M20.6113 88.9574V92.012H23.6659V88.9574H20.6113Z" fill="#00AD76"/>
<path id="Vector_817" d="M17.5566 88.9574V92.012H20.6112V88.9574H17.5566Z" fill="#00AD76"/>
<path id="Vector_818" d="M32.8296 92.0184V95.073H35.8842V92.0184H32.8296Z" fill="#12AF8A"/>
<path id="Vector_819" d="M29.7749 92.0184V95.073H32.8295V92.0184H29.7749Z" fill="#12AF8A"/>
<path id="Vector_820" d="M26.7207 92.0184V95.073H29.7753V92.0184H26.7207Z" fill="#12AF8A"/>
<path id="Vector_821" d="M23.6724 92.0184V95.073H26.727V92.0184H23.6724Z" fill="#12AF8A"/>
<path id="Vector_822" d="M20.6177 92.0118V95.0664H23.6723V92.0118H20.6177Z" fill="#12AF8A"/>
<path id="Vector_823" d="M17.563 92.0118V95.0664H20.6176V92.0118H17.563Z" fill="#12AF8A"/>
<path id="Vector_824" d="M14.502 88.9574V92.012H17.5566V88.9574H14.502Z" fill="#00AD76"/>
<path id="Vector_825" d="M11.4536 88.9571V92.0117H14.5082V88.9571H11.4536Z" fill="#00AD76"/>
<path id="Vector_826" d="M8.39941 85.9159V88.9705H11.454V85.9159H8.39941Z" fill="#00AD76"/>
<path id="Vector_827" d="M5.34473 76.7389V79.7935H8.39933V76.7389H5.34473Z" fill="#00AD76"/>
<path id="Vector_828" d="M5.34473 73.6842V76.7388H8.39933V73.6842H5.34473Z" fill="#00AD76"/>
<path id="Vector_829" d="M38.939 70.6361V73.6907H41.9936V70.6361H38.939Z" fill="#59BF93"/>
<path id="Vector_830" d="M38.939 67.5816V70.6362H41.9936V67.5816H38.939Z" fill="#59BF93"/>
<path id="Vector_831" d="M35.8843 70.6361V73.6907H38.9389V70.6361H35.8843Z" fill="#59BF93"/>
<path id="Vector_832" d="M35.8843 67.5816V70.6362H38.9389V67.5816H35.8843Z" fill="#59BF93"/>
<path id="Vector_833" d="M32.8359 70.6363V73.6909H35.8905V70.6363H32.8359Z" fill="#59BF93"/>
<path id="Vector_834" d="M32.8296 67.5816V70.6362H35.8842V67.5816H32.8296Z" fill="#59BF93"/>
<path id="Vector_835" d="M29.7812 70.6363V73.6909H32.8358V70.6363H29.7812Z" fill="#59BF93"/>
<path id="Vector_836" d="M29.7812 67.5816V70.6362H32.8358V67.5816H29.7812Z" fill="#59BF93"/>
<path id="Vector_837" d="M26.7271 70.6363V73.6909H29.7816V70.6363H26.7271Z" fill="#59BF93"/>
<path id="Vector_838" d="M26.7271 67.5816V70.6362H29.7816V67.5816H26.7271Z" fill="#59BF93"/>
<path id="Vector_839" d="M23.6724 70.6363V73.6909H26.727V70.6363H23.6724Z" fill="#59BF93"/>
<path id="Vector_840" d="M23.6724 67.5816V70.6362H26.727V67.5816H23.6724Z" fill="#59BF93"/>
<path id="Vector_841" d="M20.6177 70.6297V73.6843H23.6723V70.6297H20.6177Z" fill="#31B787"/>
<path id="Vector_842" d="M20.6177 67.575V70.6296H23.6723V67.575H20.6177Z" fill="#31B787"/>
<path id="Vector_843" d="M17.563 70.6297V73.6843H20.6176V70.6297H17.563Z" fill="#31B787"/>
<path id="Vector_844" d="M17.563 67.5748V70.6294H20.6176V67.5748H17.563Z" fill="#31B787"/>
<path id="Vector_845" d="M14.5083 70.6297V73.6843H17.5629V70.6297H14.5083Z" fill="#31B787"/>
<path id="Vector_846" d="M14.5083 67.575V70.6296H17.5629V67.575H14.5083Z" fill="#31B787"/>
<path id="Vector_847" d="M11.4536 70.6297V73.6843H14.5082V70.6297H11.4536Z" fill="#00AD76"/>
<path id="Vector_848" d="M11.4536 67.575V70.6296H14.5082V67.575H11.4536Z" fill="#00AD76"/>
<path id="Vector_849" d="M8.39941 70.6297V73.6843H11.454V70.6297H8.39941Z" fill="#00AD76"/>
<path id="Vector_850" d="M8.39941 67.5816V70.6362H11.454V67.5816H8.39941Z" fill="#00AD76"/>
<path id="Vector_851" d="M5.34473 70.6363V73.6909H8.39932V70.6363H5.34473Z" fill="#00AD76"/>
<path id="Vector_852" d="M5.34473 67.5816V70.6362H8.39933V67.5816H5.34473Z" fill="#00AD76"/>
<path id="Vector_853" d="M35.8843 64.5269V67.5815H38.9389V64.5269H35.8843Z" fill="#59BF93"/>
<path id="Vector_854" d="M32.8296 64.5269V67.5815H35.8842V64.5269H32.8296Z" fill="#59BF93"/>
<path id="Vector_855" d="M29.7749 64.5269V67.5815H32.8295V64.5269H29.7749Z" fill="#59BF93"/>
<path id="Vector_856" d="M26.7271 64.5269V67.5815H29.7816V64.5269H26.7271Z" fill="#59BF93"/>
<path id="Vector_857" d="M23.6724 64.5269V67.5815H26.727V64.5269H23.6724Z" fill="#59BF93"/>
<path id="Vector_858" d="M20.6177 64.5204V67.575H23.6723V64.5204H20.6177Z" fill="#31B787"/>
<path id="Vector_859" d="M17.563 64.5204V67.575H20.6176V64.5204H17.563Z" fill="#31B787"/>
<path id="Vector_860" d="M14.5083 64.5204V67.575H17.5629V64.5204H14.5083Z" fill="#31B787"/>
<path id="Vector_861" d="M11.4536 64.5269V67.5815H14.5082V64.5269H11.4536Z" fill="#00AD76"/>
<path id="Vector_862" d="M8.39941 64.5269V67.5815H11.454V64.5269H8.39941Z" fill="#00AD76"/>
<path id="Vector_863" d="M35.8843 61.4725V64.5271H38.9389V61.4725H35.8843Z" fill="#59BF93"/>
<path id="Vector_864" d="M32.8296 61.4725V64.5271H35.8842V61.4725H32.8296Z" fill="#59BF93"/>
<path id="Vector_865" d="M29.7749 61.4725V64.5271H32.8295V61.4725H29.7749Z" fill="#59BF93"/>
<path id="Vector_866" d="M26.7207 61.4725V64.5271H29.7753V61.4725H26.7207Z" fill="#59BF93"/>
<path id="Vector_867" d="M23.6724 61.4725V64.5271H26.727V61.4725H23.6724Z" fill="#59BF93"/>
<path id="Vector_868" d="M20.6177 61.4659V64.5205H23.6723V61.4659H20.6177Z" fill="#31B787"/>
<path id="Vector_869" d="M17.563 61.4659V64.5205H20.6176V61.4659H17.563Z" fill="#31B787"/>
<path id="Vector_870" d="M14.5083 61.4725V64.5271H17.5629V61.4725H14.5083Z" fill="#31B787"/>
<path id="Vector_871" d="M11.4536 61.4725V64.5271H14.5082V61.4725H11.4536Z" fill="#00AD76"/>
<path id="Vector_872" d="M8.39941 61.4725V64.5271H11.454V61.4725H8.39941Z" fill="#00AD76"/>
<path id="Vector_873" d="M11.4536 58.4178V61.4724H14.5082V58.4178H11.4536Z" fill="#00AD76"/>
<path id="Vector_874" d="M14.502 55.3634V58.418H17.5566V55.3634H14.502Z" fill="#31B787"/>
<path id="Vector_875" d="M11.4536 55.37V58.4246H14.5082V55.37H11.4536Z" fill="#00AD76"/>
<path id="Vector_876" d="M8.39941 58.4178V61.4724H11.454V58.4178H8.39941Z" fill="#00AD76"/>
<path id="Vector_877" d="M5.34473 64.5269V67.5815H8.39933V64.5269H5.34473Z" fill="#00AD76"/>
<path id="Vector_878" d="M5.33838 79.7935V82.8481H8.39297V79.7935H5.33838Z" fill="#00AD76"/>
<g id="Group_10">
<path id="Vector_879" d="M74.063 55.8537V52.7991H71.0084V55.8537H74.063Z" fill="#F8BCD6"/>
<path id="Vector_880" d="M77.1177 55.8537V52.7991H74.0631V55.8537H77.1177Z" fill="#F8BCD6"/>
<path id="Vector_881" d="M80.1724 55.8537V52.7991H77.1178V55.8537H80.1724Z" fill="#F8BCD6"/>
<path id="Vector_882" d="M74.063 52.8056V49.751H71.0084V52.8056H74.063Z" fill="#FAD1E3"/>
<path id="Vector_883" d="M77.1177 52.8056V49.751H74.0631V52.8056H77.1177Z" fill="#FAD1E3"/>
<path id="Vector_884" d="M80.1724 52.8056V49.751H77.1178V52.8056H80.1724Z" fill="#FAD1E3"/>
</g>
<g id="Group_11">
<path id="Vector_885" d="M40.4692 55.8603V52.8057H37.4146V55.8603H40.4692Z" fill="#F8BCD6"/>
<path id="Vector_886" d="M43.5239 55.8534V52.7988H40.4693V55.8534H43.5239Z" fill="#F8BCD6"/>
<path id="Vector_887" d="M46.5786 55.8534V52.7988H43.524V55.8534H46.5786Z" fill="#F8BCD6"/>
<path id="Vector_888" d="M40.4629 52.8056V49.751H37.4083V52.8056H40.4629Z" fill="#FAD1E3"/>
<path id="Vector_889" d="M46.5718 52.8056V49.751H43.5172V52.8056H46.5718Z" fill="#FAD1E3"/>
<path id="Vector_890" d="M43.5176 52.8056V49.751H40.463V52.8056H43.5176Z" fill="#FAD1E3"/>
</g>
<g id="Group_12">
<path id="Vector_891" d="M49.6265 46.6964V43.6418H46.5719V46.6964H49.6265Z" fill="#184742"/>
<path id="Vector_892" d="M52.6812 46.6964V43.6418H49.6266V46.6964H52.6812Z" fill="white"/>
<path id="Vector_893" d="M49.6265 49.7511V46.6965H46.5719V49.7511H49.6265Z" fill="#184742"/>
<path id="Vector_894" d="M52.6812 49.7511V46.6965H49.6266V49.7511H52.6812Z" fill="#184742"/>
</g>
<g id="Group_13">
<path id="Vector_895" d="M67.9546 46.6964V43.6418H64.9V46.6964H67.9546Z" fill="#184742"/>
<path id="Vector_896" d="M71.0093 46.6964V43.6418H67.9547V46.6964H71.0093Z" fill="white"/>
<path id="Vector_897" d="M67.9546 49.7511V46.6965H64.9V49.7511H67.9546Z" fill="#184742"/>
<path id="Vector_898" d="M71.0093 49.7511V46.6965H67.9547V49.7511H71.0093Z" fill="#184742"/>
</g>
<g id="Group_14">
<path id="Vector_899" d="M60.3213 57.7753V54.7207H57.2667V57.7753H60.3213Z" fill="#184742"/>
<path id="Vector_900" d="M60.3145 60.6576V57.603H57.2599V60.6576H60.3145Z" fill="#184742"/>
</g>
<g id="Group_15">
<path id="Vector_901" d="M43.9214 95.4174H40.8734H37.8188V98.472H40.8734H43.9214H46.976V95.4174V92.3628H43.9214V95.4174Z" fill="#02855A" stroke="#194742" stroke-width="3.97562" stroke-miterlimit="10"/>
<g id="Group_16">
<path id="Vector_902" d="M40.8734 95.4175H37.8188V98.4721H40.8734V95.4175Z" fill="#02855A"/>
<path id="Vector_903" d="M43.9281 95.4175H40.8735V98.4721H43.9281V95.4175Z" fill="#02855A"/>
<path id="Vector_904" d="M46.9765 95.4175H43.9219V98.4721H46.9765V95.4175Z" fill="#02855A"/>
<path id="Vector_905" d="M46.9765 92.3628H43.9219V95.4174H46.9765V92.3628Z" fill="#02855A"/>
</g>
</g>
<g id="Group_17">
<g id="Group_18">
<path id="Vector_906" d="M86.7587 95.4177H83.7041V98.4723H86.7587V95.4177Z" fill="#02855A" stroke="#194742" stroke-width="3.97562" stroke-miterlimit="10"/>
<path id="Vector_907" d="M89.8134 95.4176H86.7588V98.4722H89.8134H92.868V95.4176V92.363H89.8134V95.4176Z" fill="#02855A" stroke="#194742" stroke-width="3.97562" stroke-miterlimit="10"/>
</g>
<g id="Group_19">
<path id="Vector_908" d="M86.7587 95.4177H83.7041V98.4723H86.7587V95.4177Z" fill="#02855A"/>
<path id="Vector_909" d="M89.8134 95.4177H86.7588V98.4723H89.8134V95.4177Z" fill="#02855A"/>
<path id="Vector_910" d="M92.8681 95.4177H89.8135V98.4723H92.8681V95.4177Z" fill="#02855A"/>
<path id="Vector_911" d="M92.8681 92.363H89.8135V95.4176H92.8681V92.363Z" fill="#02855A"/>
</g>
</g>
<g id="Group_20">
<path id="Vector_912" d="M42.3643 62.8242V87.7249H81.3187V62.8242H42.3643Z" fill="white" stroke="#194742" stroke-width="1.98781" stroke-miterlimit="10"/>
<path id="Vector_913" d="M46.2007 66.3427V87.7183H61.4737V66.3427H46.2007Z" fill="#E1E31B" stroke="#194742" stroke-width="1.98781" stroke-miterlimit="10"/>
<path id="Vector_914" d="M61.4736 66.3493V87.7249H66.7745V66.3493H61.4736Z" fill="#E1E31B" stroke="#194742" stroke-width="1.98781" stroke-miterlimit="10"/>
<path id="Vector_915" d="M66.0522 66.3427V87.7183H81.3252V66.3427H66.0522Z" fill="#E1E31B" stroke="#194742" stroke-width="1.98781" stroke-miterlimit="10"/>
</g>
<g id="Group_21">
<g id="Group_22">
<path id="Vector_916" d="M32.9357 73.691H31.0738V70.6364H29.351V67.5818H26.2964V70.6364H28.0192V73.691H29.8811V76.739H32.929V76.7456H42.4175V73.691H32.9357Z" fill="#184742" stroke="#184742" stroke-width="3.31301" stroke-miterlimit="10"/>
<path id="Vector_917" d="M45.0483 70.5901H41.9937V73.6447H45.0483V70.5901Z" fill="#184742" stroke="#184742" stroke-width="3.31301" stroke-miterlimit="10"/>
</g>
<g id="Group_23">
<path id="Vector_918" d="M32.9357 73.691H31.0738V70.6364H29.351V67.5818H26.2964V70.6364H28.0192V73.691H29.8811V76.739H32.929V76.7456H42.4175V73.691H32.9357Z" fill="#02855A"/>
<path id="Vector_919" d="M45.0483 70.5901H41.9937V73.6447H45.0483V70.5901Z" fill="#02855A"/>
</g>
</g>
<g id="Group_24">
<g id="Group_25">
<path id="Vector_920" d="M92.3845 72.1602H94.2464V69.1056H95.9692V66.051H99.0238V69.1056H97.301V72.1602H95.4391V75.2148H92.3845H82.896V72.1602H92.3845Z" fill="#184742" stroke="#184742" stroke-width="3.31301" stroke-miterlimit="10"/>
<path id="Vector_921" d="M83.3266 69.0593H80.272V72.1139H83.3266V69.0593Z" fill="#184742" stroke="#184742" stroke-width="3.31301" stroke-miterlimit="10"/>
</g>
<g id="Group_26">
<path id="Vector_922" d="M92.3845 72.1602H94.2464V69.1056H95.9692V66.051H99.0238V69.1056H97.301V72.1602H95.4391V75.2148H92.3845H82.896V72.1602H92.3845Z" fill="#02855A"/>
<path id="Vector_923" d="M83.3266 69.0593H80.272V72.1139H83.3266V69.0593Z" fill="#02855A"/>
</g>
</g>
</g>
<defs>
<clipPath id="clip0_3327_41777">
<rect width="100" height="100" fill="white"/>
</clipPath>
</defs>
</svg>
