<svg width="20" height="20" viewBox="0 0 20 20" fill="none" xmlns="http://www.w3.org/2000/svg">
<rect x="7.5" y="2.5" width="0.833333" height="0.833333" fill="#FDD620"/>
<rect x="8.3335" y="2.5" width="0.833333" height="0.833333" fill="#FDD620"/>
<rect x="9.1665" y="2.5" width="0.833333" height="0.833333" fill="#FDD620"/>
<rect x="10" y="2.5" width="0.833333" height="0.833333" fill="#FDD620"/>
<rect x="10.8335" y="2.5" width="0.833333" height="0.833333" fill="#FDD620"/>
<rect x="11.6665" y="2.5" width="0.833333" height="0.833333" fill="#FDD620"/>
<rect x="12.5" y="2.5" width="0.833333" height="0.833333" fill="#FDD620"/>
<rect x="13.3335" y="2.5" width="0.833333" height="0.833333" fill="#FDD620"/>
<rect x="14.1665" y="2.5" width="0.833333" height="0.833333" fill="#FDD620"/>
<rect x="7.5" y="3.33325" width="0.833333" height="0.833333" fill="#FDD620"/>
<rect x="7.5" y="4.16675" width="0.833333" height="0.833333" fill="#FDD620"/>
<rect x="7.5" y="5" width="0.833333" height="0.833333" fill="#FDD620"/>
<rect x="6.6665" y="5" width="0.833333" height="0.833333" fill="#FDD620"/>
<rect x="7.5" y="5.83325" width="0.833333" height="0.833333" fill="#FDD620"/>
<rect x="6.6665" y="6.66675" width="0.833333" height="0.833333" fill="#FDD620"/>
<rect x="6.6665" y="7.5" width="0.833333" height="0.833333" fill="#FDD620"/>
<rect x="6.6665" y="8.33325" width="0.833333" height="0.833333" fill="#FDD620"/>
<rect x="5.8335" y="9.16675" width="0.833333" height="0.833333" fill="#FDD620"/>
<rect x="5.8335" y="10" width="0.833333" height="0.833333" fill="#FDD620"/>
<rect x="5.8335" y="6.66675" width="0.833333" height="0.833333" fill="#FDD620"/>
<rect x="5" y="9.16675" width="0.833333" height="0.833333" fill="#FDD620"/>
<rect x="6.6665" y="5.83325" width="0.833333" height="0.833333" fill="#FDD620"/>
<rect x="5" y="10" width="0.833333" height="0.833333" fill="#FDD620"/>
<rect x="5.8335" y="7.5" width="0.833333" height="0.833333" fill="#FDD620"/>
<rect x="10" y="9.16675" width="0.833333" height="0.833333" fill="#FDD620"/>
<rect x="5.8335" y="8.33325" width="0.833333" height="0.833333" fill="#FDD620"/>
<rect x="10" y="10" width="0.833333" height="0.833333" fill="#FDD620"/>
<rect x="10" y="10.8333" width="0.833333" height="0.833333" fill="#FDD620"/>
<rect x="10" y="11.6667" width="0.833333" height="0.833333" fill="#FDD620"/>
<rect x="10" y="12.5" width="0.833333" height="0.833333" fill="#FDD620"/>
<rect x="10" y="13.3333" width="0.833333" height="0.833333" fill="#FDD620"/>
<rect x="9.1665" y="13.3333" width="0.833333" height="0.833333" fill="#FDD620"/>
<rect x="10" y="14.1667" width="0.833333" height="0.833333" fill="#FDD620"/>
<rect x="9.1665" y="15" width="0.833333" height="0.833333" fill="#FDD620"/>
<rect x="9.1665" y="15.8333" width="0.833333" height="0.833333" fill="#FDD620"/>
<rect x="8.3335" y="15.8333" width="0.833333" height="0.833333" fill="#FDD620"/>
<rect x="9.1665" y="14.1667" width="0.833333" height="0.833333" fill="#FDD620"/>
<rect x="8.3335" y="15" width="0.833333" height="0.833333" fill="#FDD620"/>
<rect x="8.3335" y="16.6667" width="0.833333" height="0.833333" fill="#FDD620"/>
<rect x="8.3335" y="5" width="0.833333" height="0.833333" fill="#FDD620"/>
<rect x="8.3335" y="3.33325" width="0.833333" height="0.833333" fill="#FDD620"/>
<rect x="6.6665" y="9.16675" width="0.833333" height="0.833333" fill="#FDD620"/>
<rect x="8.3335" y="4.16675" width="0.833333" height="0.833333" fill="#FDD620"/>
<rect x="7.5" y="6.66675" width="0.833333" height="0.833333" fill="#FDD620"/>
<rect x="6.6665" y="10" width="0.833333" height="0.833333" fill="#FDD620"/>
<rect x="9.1665" y="5" width="0.833333" height="0.833333" fill="#FDD620"/>
<rect x="8.3335" y="5.83325" width="0.833333" height="0.833333" fill="#FDD620"/>
<rect x="11.6665" y="9.16675" width="0.833333" height="0.833333" fill="#FDD620"/>
<rect x="7.5" y="7.5" width="0.833333" height="0.833333" fill="#FDD620"/>
<rect x="10.8335" y="9.16675" width="0.833333" height="0.833333" fill="#FDD620"/>
<rect x="7.5" y="9.16675" width="0.833333" height="0.833333" fill="#FDD620"/>
<rect x="11.6665" y="10" width="0.833333" height="0.833333" fill="#FDD620"/>
<rect x="10.8335" y="10" width="0.833333" height="0.833333" fill="#FDD620"/>
<rect x="11.6665" y="10.8333" width="0.833333" height="0.833333" fill="#FDD620"/>
<rect x="10.8335" y="10.8333" width="0.833333" height="0.833333" fill="#FDD620"/>
<rect x="11.6665" y="11.6667" width="0.833333" height="0.833333" fill="#FDD620"/>
<rect x="10.8335" y="11.6667" width="0.833333" height="0.833333" fill="#FDD620"/>
<rect x="7.5" y="8.33325" width="0.833333" height="0.833333" fill="#FDD620"/>
<rect x="11.6665" y="12.5" width="0.833333" height="0.833333" fill="#FDD620"/>
<rect x="10.8335" y="13.3333" width="0.833333" height="0.833333" fill="#FDD620"/>
<rect x="11.6665" y="13.3333" width="0.833333" height="0.833333" fill="#FDD620"/>
<rect x="10.8335" y="12.5" width="0.833333" height="0.833333" fill="#FDD620"/>
<rect x="10.8335" y="14.1667" width="0.833333" height="0.833333" fill="#FDD620"/>
<rect x="10" y="15" width="0.833333" height="0.833333" fill="#FDD620"/>
<rect x="9.1665" y="3.33325" width="0.833333" height="0.833333" fill="#FDD620"/>
<rect x="7.5" y="10" width="0.833333" height="0.833333" fill="#FDD620"/>
<rect x="8.3335" y="6.66675" width="0.833333" height="0.833333" fill="#FDD620"/>
<rect x="10" y="5" width="0.833333" height="0.833333" fill="#FDD620"/>
<rect x="9.1665" y="4.16675" width="0.833333" height="0.833333" fill="#FDD620"/>
<rect x="12.5" y="9.16675" width="0.833333" height="0.833333" fill="#FDD620"/>
<rect x="9.1665" y="5.83325" width="0.833333" height="0.833333" fill="#FDD620"/>
<rect x="12.5" y="10" width="0.833333" height="0.833333" fill="#FDD620"/>
<rect x="12.5" y="10.8333" width="0.833333" height="0.833333" fill="#FDD620"/>
<rect x="12.5" y="11.6667" width="0.833333" height="0.833333" fill="#FDD620"/>
<rect x="8.3335" y="9.16675" width="0.833333" height="0.833333" fill="#FDD620"/>
<rect x="8.3335" y="7.5" width="0.833333" height="0.833333" fill="#FDD620"/>
<rect x="8.3335" y="8.33325" width="0.833333" height="0.833333" fill="#FDD620"/>
<rect x="12.5" y="12.5" width="0.833333" height="0.833333" fill="#FDD620"/>
<rect x="10.8335" y="5" width="0.833333" height="0.833333" fill="#FDD620"/>
<rect x="8.3335" y="10" width="0.833333" height="0.833333" fill="#FDD620"/>
<rect x="9.1665" y="6.66675" width="0.833333" height="0.833333" fill="#FDD620"/>
<rect x="10" y="3.33325" width="0.833333" height="0.833333" fill="#FDD620"/>
<rect x="9.1665" y="9.16675" width="0.833333" height="0.833333" fill="#FDD620"/>
<rect x="10" y="4.16675" width="0.833333" height="0.833333" fill="#FDD620"/>
<rect x="9.1665" y="10" width="0.833333" height="0.833333" fill="#FDD620"/>
<rect x="11.6665" y="5" width="0.833333" height="0.833333" fill="#FDD620"/>
<rect x="13.3335" y="9.16675" width="0.833333" height="0.833333" fill="#FDD620"/>
<rect x="13.3335" y="10" width="0.833333" height="0.833333" fill="#FDD620"/>
<rect x="10" y="5.83325" width="0.833333" height="0.833333" fill="#FDD620"/>
<rect x="13.3335" y="10.8333" width="0.833333" height="0.833333" fill="#FDD620"/>
<rect x="13.3335" y="11.6667" width="0.833333" height="0.833333" fill="#FDD620"/>
<rect x="10" y="6.66675" width="0.833333" height="0.833333" fill="#FDD620"/>
<rect x="9.1665" y="10.8333" width="0.833333" height="0.833333" fill="#FDD620"/>
<rect x="9.1665" y="7.5" width="0.833333" height="0.833333" fill="#FDD620"/>
<rect x="9.1665" y="8.33325" width="0.833333" height="0.833333" fill="#FDD620"/>
<rect x="13.3335" y="12.5" width="0.833333" height="0.833333" fill="#FDD620"/>
<rect x="10.8335" y="3.33325" width="0.833333" height="0.833333" fill="#FDD620"/>
<rect x="12.5" y="5" width="0.833333" height="0.833333" fill="#FDD620"/>
<rect x="14.1665" y="9.16675" width="0.833333" height="0.833333" fill="#FDD620"/>
<rect x="10.8335" y="4.16675" width="0.833333" height="0.833333" fill="#FDD620"/>
<rect x="14.1665" y="10" width="0.833333" height="0.833333" fill="#FDD620"/>
<rect x="10.8335" y="6.66675" width="0.833333" height="0.833333" fill="#FDD620"/>
<rect x="15" y="9.16675" width="0.833333" height="0.833333" fill="#FDD620"/>
<rect x="10.8335" y="5.83325" width="0.833333" height="0.833333" fill="#FDD620"/>
<rect x="10" y="7.5" width="0.833333" height="0.833333" fill="#FDD620"/>
<rect x="10" y="8.33325" width="0.833333" height="0.833333" fill="#FDD620"/>
<rect x="14.1665" y="10.8333" width="0.833333" height="0.833333" fill="#FDD620"/>
<rect x="10.8335" y="8.33325" width="0.833333" height="0.833333" fill="#FDD620"/>
<rect x="15" y="10" width="0.833333" height="0.833333" fill="#FDD620"/>
<rect x="11.6665" y="6.66675" width="0.833333" height="0.833333" fill="#FDD620"/>
<rect x="11.6665" y="3.33325" width="0.833333" height="0.833333" fill="#FDD620"/>
<rect x="11.6665" y="4.16675" width="0.833333" height="0.833333" fill="#FDD620"/>
<rect x="11.6665" y="5.83325" width="0.833333" height="0.833333" fill="#FDD620"/>
<rect x="12.5" y="3.33325" width="0.833333" height="0.833333" fill="#FDD620"/>
<rect x="10.8335" y="7.5" width="0.833333" height="0.833333" fill="#FDD620"/>
<rect x="12.5" y="4.16675" width="0.833333" height="0.833333" fill="#FDD620"/>
<rect x="12.5" y="5.83325" width="0.833333" height="0.833333" fill="#FDD620"/>
<rect x="13.3335" y="3.33325" width="0.833333" height="0.833333" fill="#FDD620"/>
<rect x="14.1665" y="3.33325" width="0.833333" height="0.833333" fill="#FDD620"/>
<rect x="13.3335" y="4.16675" width="0.833333" height="0.833333" fill="#FDD620"/>
<rect x="13.3335" y="5" width="0.833333" height="0.833333" fill="#FDD620"/>
<rect x="11.6665" y="6.66675" width="0.833333" height="0.833333" fill="black"/>
<rect x="12.5" y="5.83325" width="0.833333" height="0.833333" fill="black"/>
<rect x="13.3335" y="5" width="0.833333" height="0.833333" fill="black"/>
<rect x="14.1665" y="4.16675" width="0.833333" height="0.833333" fill="black"/>
<rect x="15" y="3.33325" width="0.833333" height="0.833333" fill="black"/>
<rect x="10.8335" y="7.5" width="0.833333" height="0.833333" fill="black"/>
<rect x="11.6665" y="8.33325" width="0.833333" height="0.833333" fill="black"/>
<rect x="12.5" y="8.33325" width="0.833333" height="0.833333" fill="black"/>
<rect x="13.3335" y="8.33325" width="0.833333" height="0.833333" fill="black"/>
<rect x="14.1665" y="8.33325" width="0.833333" height="0.833333" fill="black"/>
<rect x="15" y="8.33325" width="0.833333" height="0.833333" fill="black"/>
<rect x="15.8335" y="9.16675" width="0.833333" height="0.833333" fill="black"/>
<rect x="15.8335" y="10" width="0.833333" height="0.833333" fill="black"/>
<rect x="15" y="10.8333" width="0.833333" height="0.833333" fill="black"/>
<rect x="14.1665" y="11.6667" width="0.833333" height="0.833333" fill="black"/>
<rect x="13.3335" y="12.5" width="0.833333" height="0.833333" fill="black"/>
<rect x="12.5" y="13.3333" width="0.833333" height="0.833333" fill="black"/>
<rect x="11.6665" y="14.1667" width="0.833333" height="0.833333" fill="black"/>
<rect x="10.8335" y="15" width="0.833333" height="0.833333" fill="black"/>
<rect x="10" y="15.8333" width="0.833333" height="0.833333" fill="black"/>
<rect x="9.1665" y="16.6667" width="0.833333" height="0.833333" fill="black"/>
<rect x="8.3335" y="17.5" width="0.833333" height="0.833333" fill="black"/>
<rect x="7.5" y="16.6667" width="0.833333" height="0.833333" fill="black"/>
<rect x="7.5" y="15.8333" width="0.833333" height="0.833333" fill="black"/>
<rect x="7.5" y="15" width="0.833333" height="0.833333" fill="black"/>
<rect x="8.3335" y="14.1667" width="0.833333" height="0.833333" fill="black"/>
<rect x="8.3335" y="13.3333" width="0.833333" height="0.833333" fill="black"/>
<rect x="9.1665" y="11.6667" width="0.833333" height="0.833333" fill="black"/>
<rect x="9.1665" y="12.5" width="0.833333" height="0.833333" fill="black"/>
<rect x="8.3335" y="10.8333" width="0.833333" height="0.833333" fill="black"/>
<rect x="7.5" y="10.8333" width="0.833333" height="0.833333" fill="black"/>
<rect x="6.6665" y="10.8333" width="0.833333" height="0.833333" fill="black"/>
<rect x="5.8335" y="10.8333" width="0.833333" height="0.833333" fill="black"/>
<rect x="5" y="10.8333" width="0.833333" height="0.833333" fill="black"/>
<rect x="5" y="8.33325" width="0.833333" height="0.833333" fill="black"/>
<rect x="5.8335" y="5.83325" width="0.833333" height="0.833333" fill="black"/>
<rect x="4.1665" y="10" width="0.833333" height="0.833333" fill="black"/>
<rect x="5" y="7.5" width="0.833333" height="0.833333" fill="black"/>
<rect x="5.8335" y="5" width="0.833333" height="0.833333" fill="black"/>
<rect x="4.1665" y="9.16675" width="0.833333" height="0.833333" fill="black"/>
<rect x="5" y="6.66675" width="0.833333" height="0.833333" fill="black"/>
<rect x="6.6665" y="4.16675" width="0.833333" height="0.833333" fill="black"/>
<rect x="6.6665" y="3.33325" width="0.833333" height="0.833333" fill="black"/>
<rect x="6.6665" y="2.5" width="0.833333" height="0.833333" fill="black"/>
<rect x="7.5" y="1.66675" width="0.833333" height="0.833333" fill="black"/>
<rect x="9.1665" y="1.66675" width="0.833333" height="0.833333" fill="black"/>
<rect x="8.3335" y="1.66675" width="0.833333" height="0.833333" fill="black"/>
<rect x="10" y="1.66675" width="0.833333" height="0.833333" fill="black"/>
<rect x="10.8335" y="1.66675" width="0.833333" height="0.833333" fill="black"/>
<rect x="11.6665" y="1.66675" width="0.833333" height="0.833333" fill="black"/>
<rect x="12.5" y="1.66675" width="0.833333" height="0.833333" fill="black"/>
<rect x="13.3335" y="1.66675" width="0.833333" height="0.833333" fill="black"/>
<rect x="14.1665" y="1.66675" width="0.833333" height="0.833333" fill="black"/>
<rect x="15" y="2.5" width="0.833333" height="0.833333" fill="black"/>
<rect x="9.1665" y="13.3333" width="0.833333" height="0.833333" fill="#FFA533" fill-opacity="0.5"/>
<rect x="9.1665" y="14.1667" width="0.833333" height="0.833333" fill="#FFA533" fill-opacity="0.5"/>
<rect x="8.3335" y="15" width="0.833333" height="0.833333" fill="#FFA533" fill-opacity="0.5"/>
<rect x="8.3335" y="15.8333" width="0.833333" height="0.833333" fill="#FFA533" fill-opacity="0.5"/>
<rect x="8.3335" y="16.6667" width="0.833333" height="0.833333" fill="#FFA533" fill-opacity="0.5"/>
<rect x="10" y="12.5" width="0.833333" height="0.833333" fill="#FFA533" fill-opacity="0.5"/>
<rect x="10" y="11.6667" width="0.833333" height="0.833333" fill="#FFA533" fill-opacity="0.5"/>
<rect x="10" y="10.8333" width="0.833333" height="0.833333" fill="#FFA533" fill-opacity="0.5"/>
<rect x="9.1665" y="10.8333" width="0.833333" height="0.833333" fill="#FFA533" fill-opacity="0.5"/>
<rect x="9.1665" y="10" width="0.833333" height="0.833333" fill="#FFA533" fill-opacity="0.5"/>
<rect x="8.3335" y="10" width="0.833333" height="0.833333" fill="#FFA533" fill-opacity="0.5"/>
<rect x="7.5" y="10" width="0.833333" height="0.833333" fill="#FFA533" fill-opacity="0.5"/>
<rect x="6.6665" y="10" width="0.833333" height="0.833333" fill="#FFA533" fill-opacity="0.5"/>
<rect x="5.8335" y="10" width="0.833333" height="0.833333" fill="#FFA533" fill-opacity="0.5"/>
<rect x="5" y="10" width="0.833333" height="0.833333" fill="#FFA533" fill-opacity="0.5"/>
<rect x="5" y="9.16675" width="0.833333" height="0.833333" fill="#FFA533" fill-opacity="0.5"/>
<rect x="5.8335" y="8.33325" width="0.833333" height="0.833333" fill="#FFA533" fill-opacity="0.5"/>
<rect x="5.8335" y="6.66675" width="0.833333" height="0.833333" fill="#FFA533" fill-opacity="0.5"/>
<rect x="6.6665" y="5.83325" width="0.833333" height="0.833333" fill="#FFA533" fill-opacity="0.5"/>
<rect x="6.6665" y="5" width="0.833333" height="0.833333" fill="#FFA533" fill-opacity="0.5"/>
<rect x="7.5" y="4.16675" width="0.833333" height="0.833333" fill="#FFA533" fill-opacity="0.5"/>
<rect x="7.5" y="2.5" width="0.833333" height="0.833333" fill="#FFA533" fill-opacity="0.5"/>
<rect x="7.5" y="3.33325" width="0.833333" height="0.833333" fill="#FFA533" fill-opacity="0.5"/>
<rect x="5.8335" y="7.5" width="0.833333" height="0.833333" fill="#FFA533" fill-opacity="0.5"/>
</svg>
