<svg width="17" height="17" viewBox="0 0 17 17" fill="none" xmlns="http://www.w3.org/2000/svg">
<rect x="4.6665" y="10.5" width="2.5" height="0.833333" fill="#303030"/>
<rect x="4.6665" y="0.5" width="2.5" height="0.833333" fill="#303030"/>
<rect x="3" y="9.66675" width="0.833333" height="0.833333" fill="#303030"/>
<rect x="3.8335" y="9.66675" width="0.833333" height="0.833333" fill="#303030"/>
<rect x="7.1665" y="9.66675" width="1.66667" height="0.833333" fill="#303030"/>
<rect x="3" y="1.33325" width="1.66667" height="0.833333" fill="#303030"/>
<rect x="7.1665" y="1.33325" width="1.66667" height="0.833333" fill="#303030"/>
<rect x="2.1665" y="8.83325" width="0.833333" height="0.833333" fill="#303030"/>
<rect x="8.8335" y="9.66675" width="0.833333" height="0.833333" fill="#303030"/>
<rect x="9.6665" y="10.5" width="0.833333" height="0.833333" fill="#303030"/>
<rect x="10.5" y="9.66675" width="0.833333" height="0.833333" fill="#303030"/>
<rect x="9.6665" y="9.66675" width="0.833333" height="0.833333" fill="#303030"/>
<rect x="9.6665" y="8.83325" width="0.833333" height="0.833333" fill="#303030"/>
<rect x="11.3335" y="10.5" width="0.833333" height="0.833333" fill="#303030"/>
<rect x="12.1665" y="11.3333" width="0.833333" height="0.833333" fill="#303030"/>
<rect x="13" y="12.1667" width="0.833333" height="0.833333" fill="#303030"/>
<rect x="13.8335" y="13" width="0.833333" height="0.833333" fill="#303030"/>
<rect x="14.6665" y="13.8333" width="0.833333" height="0.833333" fill="#303030"/>
<rect x="15.5" y="14.6667" width="0.833333" height="0.833333" fill="#303030"/>
<rect x="15.5" y="15.5" width="0.833333" height="0.833333" fill="#303030"/>
<rect x="10.5" y="11.3333" width="0.833333" height="0.833333" fill="#303030"/>
<rect x="11.3335" y="12.1667" width="0.833333" height="0.833333" fill="#303030"/>
<rect x="12.1665" y="13" width="0.833333" height="0.833333" fill="#303030"/>
<rect x="13" y="13.8333" width="0.833333" height="0.833333" fill="#303030"/>
<rect x="13.8335" y="14.6667" width="0.833333" height="0.833333" fill="#303030"/>
<rect x="14.6665" y="15.5" width="0.833333" height="0.833333" fill="#303030"/>
<rect x="14.6665" y="14.6667" width="0.833333" height="0.833333" fill="#303030"/>
<rect x="8.8335" y="8.83325" width="0.833333" height="0.833333" fill="#303030"/>
<rect x="2.1665" y="2.16675" width="0.833333" height="0.833333" fill="#303030"/>
<rect x="8.8335" y="2.16675" width="0.833333" height="0.833333" fill="#303030"/>
<rect x="1.3335" y="7.16675" width="0.833333" height="1.66667" fill="#303030"/>
<rect x="9.6665" y="8" width="0.833333" height="0.833333" fill="#303030"/>
<rect x="9.6665" y="7.16675" width="1.66667" height="0.833333" fill="#303030"/>
<rect x="1.3335" y="3" width="0.833333" height="1.66667" fill="#303030"/>
<rect x="9.6665" y="3.83325" width="0.833333" height="0.833333" fill="#303030"/>
<rect x="9.6665" y="3" width="0.833333" height="0.833333" fill="#303030"/>
<rect x="0.5" y="4.66675" width="0.833333" height="2.5" fill="#303030"/>
<rect x="10.5" y="5.5" width="0.833333" height="1.66667" fill="#303030"/>
<rect x="10.5" y="4.66675" width="0.833333" height="0.833333" fill="#303030"/>
</svg>
