<svg width="24" height="24" viewBox="0 0 24 24" fill="none" xmlns="http://www.w3.org/2000/svg">
<g id="Frame 1010104477" clip-path="url(#clip0_3135_39081)">
<g id="Group 8">
<path id="Vector" d="M24 3.42725H22.8525V9.14225H24V3.42725Z" fill="#000001"/>
<path id="Vector_2" d="M22.8524 9.14258H21.7124V11.4301H22.8524V9.14258Z" fill="#000001"/>
<path id="Vector_3" d="M22.8524 2.28711H21.7124V3.42711H22.8524V2.28711Z" fill="#000001"/>
<path id="Vector_4" d="M21.7128 11.4302H20.5728V12.5702H21.7128V11.4302Z" fill="#000001"/>
<path id="Vector_5" d="M21.7128 4.56738H20.5728V6.85488H21.7128V4.56738Z" fill="#000001"/>
<path id="Vector_6" d="M21.7128 1.14014H20.5728V2.28764H21.7128V1.14014Z" fill="#000001"/>
<path id="Vector_7" d="M20.5723 3.42725H19.4248V4.56725H20.5723V3.42725Z" fill="#000001"/>
<path id="Vector_8" d="M19.4252 2.28711H17.1377V3.42711H19.4252V2.28711Z" fill="#000001"/>
<path id="Vector_9" d="M20.5724 0H14.8574V1.14H20.5724V0Z" fill="#000001"/>
<path id="Vector_10" d="M14.8575 1.14014H13.71V2.28764H14.8575V1.14014Z" fill="#000001"/>
<path id="Vector_11" d="M13.7103 2.28711H12.5703V3.42711H13.7103V2.28711Z" fill="#000001"/>
<path id="Vector_12" d="M12.5702 3.42725H11.4302V4.56725H12.5702V3.42725Z" fill="#000001"/>
<path id="Vector_13" d="M11.4297 2.28711H10.2822V3.42711H11.4297V2.28711Z" fill="#000001"/>
<path id="Vector_14" d="M10.2826 1.14014H9.14258V2.28764H10.2826V1.14014Z" fill="#000001"/>
<path id="Vector_15" d="M9.14225 0H3.42725V1.14H9.14225V0Z" fill="#000001"/>
<path id="Vector_16" d="M3.4276 11.4302H2.2876V12.5702H3.4276V11.4302Z" fill="#000001"/>
<path id="Vector_17" d="M3.4276 1.14014H2.2876V2.28764H3.4276V1.14014Z" fill="#000001"/>
<path id="Vector_18" d="M2.28764 9.14258H1.14014V11.4301H2.28764V9.14258Z" fill="#000001"/>
<path id="Vector_19" d="M2.28764 2.28711H1.14014V3.42711H2.28764V2.28711Z" fill="#000001"/>
<path id="Vector_20" d="M1.14 3.42725H0V9.14225H1.14V3.42725Z" fill="#000001"/>
<path id="Vector_21" d="M-3.95775e-05 20.5352L1.14746 20.5352L1.14746 14.8202L-3.90779e-05 14.8202L-3.95775e-05 20.5352Z" fill="#000001"/>
<path id="Vector_22" d="M1.1476 14.8203L2.2876 14.8203L2.2876 12.5328L1.1476 12.5328L1.1476 14.8203Z" fill="#000001"/>
<path id="Vector_23" d="M1.1476 21.6753L2.2876 21.6753L2.2876 20.5353L1.1476 20.5353L1.1476 21.6753Z" fill="#000001"/>
<path id="Vector_24" d="M2.28773 12.5322L3.42773 12.5322L3.42773 11.3922L2.28773 11.3922L2.28773 12.5322Z" fill="#000001"/>
<path id="Vector_25" d="M2.28773 19.3955L3.42773 19.3955L3.42773 17.108L2.28773 17.108L2.28773 19.3955Z" fill="#000001"/>
<path id="Vector_26" d="M2.28725 22.8228L3.42725 22.8228L3.42725 21.6753L2.28725 21.6753L2.28725 22.8228Z" fill="#000001"/>
<path id="Vector_27" d="M3.42769 20.5352L4.5752 20.5352L4.5752 19.3952L3.42769 19.3952L3.42769 20.5352Z" fill="#000001"/>
<path id="Vector_28" d="M4.57481 21.6753L6.8623 21.6753L6.8623 20.5353L4.57481 20.5353L4.57481 21.6753Z" fill="#000001"/>
<path id="Vector_29" d="M3.42758 23.9629L9.14258 23.9629L9.14258 22.8229L3.42758 22.8229L3.42758 23.9629Z" fill="#000001"/>
<path id="Vector_30" d="M9.14254 22.8228L10.29 22.8228L10.29 21.6753L9.14254 21.6753L9.14254 22.8228Z" fill="#000001"/>
<path id="Vector_31" d="M10.2902 21.6753L11.4302 21.6753L11.4302 20.5353L10.2902 20.5353L10.2902 21.6753Z" fill="#000001"/>
<path id="Vector_32" d="M11.4298 20.5352L12.5698 20.5352L12.5698 19.3952L11.4298 19.3952L11.4298 20.5352Z" fill="#000001"/>
<path id="Vector_33" d="M12.5703 21.6753L13.7178 21.6753L13.7178 20.5353L12.5703 20.5353L12.5703 21.6753Z" fill="#000001"/>
<path id="Vector_34" d="M13.7174 22.8228L14.8574 22.8228L14.8574 21.6753L13.7174 21.6753L13.7174 22.8228Z" fill="#000001"/>
<path id="Vector_35" d="M14.8573 23.9629L20.5723 23.9629L20.5723 22.8229L14.8573 22.8229L14.8573 23.9629Z" fill="#000001"/>
<path id="Vector_36" d="M20.5724 12.5322L21.7124 12.5322L21.7124 11.3922L20.5724 11.3922L20.5724 12.5322Z" fill="#000001"/>
<path id="Vector_37" d="M20.5724 22.8228L21.7124 22.8228L21.7124 21.6753L20.5724 21.6753L20.5724 22.8228Z" fill="#000001"/>
<path id="Vector_38" d="M21.7124 14.8203L22.8599 14.8203L22.8599 12.5328L21.7124 12.5328L21.7124 14.8203Z" fill="#000001"/>
<path id="Vector_39" d="M21.7124 21.6753L22.8599 21.6753L22.8599 20.5353L21.7124 20.5353L21.7124 21.6753Z" fill="#000001"/>
<path id="Vector_40" d="M22.86 20.5352L24 20.5352L24 14.8202L22.86 14.8202L22.86 20.5352Z" fill="#000001"/>
</g>
<path id="Vector_41" d="M15.75 12H14.25V13.5H15.75V12Z" fill="#000001"/>
<path id="Vector_42" d="M14.25 9H12.75V10.5H14.25V9Z" fill="#000001"/>
<path id="Vector_43" d="M14.25 13.5H9.75V15H14.25V13.5Z" fill="#000001"/>
<path id="Vector_44" d="M11.25 9H9.75V10.5H11.25V9Z" fill="#000001"/>
<path id="Vector_45" d="M9.75 12H8.25V13.5H9.75V12Z" fill="#000001"/>
</g>
<defs>
<clipPath id="clip0_3135_39081">
<rect width="24" height="24" fill="white"/>
</clipPath>
</defs>
</svg>
