<svg width="22" height="19" viewBox="0 0 22 19" fill="none" xmlns="http://www.w3.org/2000/svg">
<path d="M21.72 3.42798H20.5725V17.1455H21.72V3.42798Z" fill="#000001"/>
<path d="M20.5725 17.1453H18.2925V18.2853H20.5725V17.1453Z" fill="#000001"/>
<path d="M18.2924 15.9976H16.0049V17.1451H18.2924V15.9976Z" fill="#000001"/>
<path d="M16.0049 14.8579H12.5774V15.9979H16.0049V14.8579Z" fill="#000001"/>
<path d="M17.145 9.14258H13.7175V10.2826H17.145V9.14258Z" fill="#000001"/>
<path d="M17.145 5.71533H13.7175V6.85533H17.145V5.71533Z" fill="#000001"/>
<path d="M17.145 2.2876H13.7175V3.4276H17.145V2.2876Z" fill="#000001"/>
<path d="M18.2924 0.000244141H12.5774V1.14024H18.2924V0.000244141Z" fill="#000001"/>
<path d="M13.7174 6.85498H12.5774V8.00248H13.7174V6.85498Z" fill="#000001"/>
<path d="M13.7174 3.42798H12.5774V4.57548H13.7174V3.42798Z" fill="#000001"/>
<path d="M12.5774 1.14038H11.4299V2.28788H12.5774V1.14038Z" fill="#000001"/>
<path d="M12.5776 15.9976H9.15015V17.1451H12.5776V15.9976Z" fill="#000001"/>
<path d="M10.2901 1.14038H9.15015V2.28788H10.2901V1.14038Z" fill="#000001"/>
<path d="M9.15009 14.8579H5.71509V15.9979H9.15009V14.8579Z" fill="#000001"/>
<path d="M9.14994 6.85498H8.00244V8.00248H9.14994V6.85498Z" fill="#000001"/>
<path d="M9.14994 3.42798H8.00244V4.57548H9.14994V3.42798Z" fill="#000001"/>
<path d="M8.00245 9.14258H4.57495V10.2826H8.00245V9.14258Z" fill="#000001"/>
<path d="M8.00245 5.71533H4.57495V6.85533H8.00245V5.71533Z" fill="#000001"/>
<path d="M8.00245 2.2876H4.57495V3.4276H8.00245V2.2876Z" fill="#000001"/>
<path d="M9.15006 0.000244141H3.43506V1.14024H9.15006V0.000244141Z" fill="#000001"/>
<path d="M5.71506 15.9976H3.43506V17.1451H5.71506V15.9976Z" fill="#000001"/>
<path d="M9.1502 12.5704V11.4304H5.7152V12.5704H3.4352V1.14038H2.28771V2.28788H1.14771V3.42788H2.28771V14.8579H5.7152V13.7179H9.1502V14.8579H12.5777V13.7179H16.0052V14.8579H19.4327V3.42788H20.5727V2.28788H19.4327V1.14038H18.2927V12.5704H16.0052V11.4304H12.5777V12.5704H11.4302V2.28788H10.2902V12.5704H9.1502Z" fill="#000001"/>
<path d="M3.4352 17.1453H1.14771V18.2853H3.4352V17.1453Z" fill="#000001"/>
<path d="M1.1475 3.42798H0V17.1455H1.1475V3.42798Z" fill="#000001"/>
</svg>
