<svg width="24" height="22" viewBox="0 0 24 22" fill="none" xmlns="http://www.w3.org/2000/svg">
<path d="M14.8575 15.9976V14.8576H13.7175V15.9976H8.0025V14.8576H6.8625V11.4301H8.0025V10.2826H13.7175V11.4301H14.8575V10.2826H22.86V11.4301H24V9.14265H19.4325V8.0064H18.2925V9.1464H11.43V8.0064H10.29V6.8589H11.43V5.71515H18.2925V6.85515H19.4325V3.4314H18.2925V4.5714H11.43V3.4314H10.29V4.5714H1.1475V5.7189H0V9.1464H1.1475V10.2864H2.2875V11.4339H3.435V10.2864H5.715V11.4339H4.575V14.8614H5.715V16.0014H3.435V14.8614H2.2875V16.0014H1.1475V17.1489H0V20.5764H1.1475V21.7164H24V19.4289H22.86V20.5764H13.7175V19.4289H12.5775V18.2889H13.7175V17.1489H22.86V18.2889H24V14.8614H22.86V16.0014L14.8575 15.9976ZM4.575 8.0064H2.2875V6.8589H4.575V8.0064ZM10.29 18.2889H9.15V19.4289H10.29V20.5764H9.15V19.4289H8.0025V18.2889H9.15V17.1489H10.29V18.2889Z" fill="#000001"/>
<path d="M22.86 11.4302H21.72V14.8577H22.86V11.4302Z" fill="#000001"/>
<path d="M22.8599 18.2852H14.8574V19.4252H22.8599V18.2852Z" fill="#000001"/>
<path d="M20.5726 13.7097H16.0051V14.8572H20.5726V13.7097Z" fill="#000001"/>
<path d="M20.5726 11.4302H16.0051V12.5702H20.5726V11.4302Z" fill="#000001"/>
<path d="M18.2926 6.85474H12.5776V8.00224H18.2926V6.85474Z" fill="#000001"/>
<path d="M18.2926 2.28735H12.5776V3.42735H18.2926V2.28735Z" fill="#000001"/>
<path d="M13.7176 11.4302H12.5776V14.8577H13.7176V11.4302Z" fill="#000001"/>
<path d="M10.2901 2.28735H9.15015V3.42735H10.2901V2.28735Z" fill="#000001"/>
<path d="M4.57485 2.28735H2.28735V3.42735H4.57485V2.28735Z" fill="#000001"/>
<path d="M10.2902 1.14V2.2875H11.4302V1.14H18.2927V2.2875H19.4327V0H1.14771V1.14H10.2902Z" fill="#000001"/>
<path d="M2.28771 11.4302H1.14771V14.8577H2.28771V11.4302Z" fill="#000001"/>
<path d="M1.1475 1.13989H0V4.56739H1.1475V1.13989Z" fill="#000001"/>
</svg>
