<svg width="322" height="24" viewBox="0 0 322 24" fill="none" xmlns="http://www.w3.org/2000/svg">
<path d="M316.91 0H4.2002V2.1H316.91V0Z" fill="#101415"/>
<path d="M316.91 20.99H4.2002V23.09H316.91V20.99Z" fill="#101415"/>
<path d="M4.2001 2.1001H2.1001V4.2001H4.2001V2.1001Z" fill="#101415"/>
<path d="M4.2001 18.8899H2.1001V20.9899H4.2001V18.8899Z" fill="#101415"/>
<path d="M25.1899 20.9901V2.1001H23.0899V20.9901H25.1899Z" fill="#101415"/>
<path d="M2.1001 18.8799L2.1001 4.18994H9.72748e-05L9.72748e-05 18.8799H2.1001Z" fill="#101415"/>
<path d="M46.1802 20.9901V2.1001H44.0802V20.9901H46.1802Z" fill="#101415"/>
<path d="M67.1602 20.9901V2.1001H65.0602V20.9901H67.1602Z" fill="#101415"/>
<path d="M316.9 4.19995H319V2.09995L316.9 2.09995V4.19995Z" fill="#101415"/>
<path d="M316.9 20.99H319V18.89H316.9V20.99Z" fill="#101415"/>
<path d="M321.11 18.89V4.19995H319.01V18.89H321.11Z" fill="#101415"/>
<path d="M88.1499 20.9901V2.1001H86.0499V20.9901H88.1499Z" fill="#101415"/>
<path d="M109.14 20.9901V2.1001H107.04V20.9901H109.14Z" fill="#101415"/>
<path d="M130.12 20.9901V2.1001H128.02V20.9901H130.12Z" fill="#101415"/>
<path d="M151.11 20.9901V2.1001H149.01V20.9901H151.11Z" fill="#101415"/>
<path d="M172.1 20.9901V2.1001H170V20.9901H172.1Z" fill="#101415"/>
<path d="M190.98 2.1001H172.09V15.5201H190.98V2.1001Z" fill="white"/>
<path d="M193.09 20.9901V2.1001H190.99V20.9901H193.09Z" fill="#101415"/>
<path d="M214.07 20.9901V2.1001H211.97V20.9901H214.07Z" fill="#101415"/>
<path d="M235.06 20.9901V2.1001H232.96V20.9901H235.06Z" fill="#101415"/>
<path d="M256.05 20.9901V2.1001H253.95V20.9901H256.05Z" fill="#101415"/>
<path d="M277.03 20.9901V2.1001H274.93V20.9901H277.03Z" fill="#101415"/>
<path d="M298.02 20.9801V2.09009H295.92V20.9801H298.02Z" fill="#101415"/>
</svg>
