<svg width="300" height="24" viewBox="0 0 300 24" fill="none" xmlns="http://www.w3.org/2000/svg">

    <!-- Outer rounded frame (굵게) -->
    <rect x="0.5" y="0.5" width="299" height="23" rx="5" ry="5" stroke="black" stroke-width="2"/>

    <!-- Left vertical shade (only left corners rounded) -->
    <path d="
    M 1.5 4
    Q 1.5 1.5 4 1.5
    L 7.5 1.5
    L 7.5 22.5
    L 4 22.5
    Q 1.5 22.5 1.5 20
    Z" fill="#BCC4CB"/>

    <!-- Right vertical shade (only right corners rounded) -->
    <path d="
    M 298.5 4
    Q 298.5 1.5 296 1.5
    L 292.5 1.5
    L 292.5 22.5
    L 296 22.5
    Q 298.5 22.5 298.5 20
    Z" fill="#BCC4CB"/>

    <!-- Bottom continuous shade -->
    <rect x="1.5" y="16" width="297" height="6" rx="3" fill="#BCC4CB"/>

    <!-- Vertical separators (13 divisions) -->
    <g stroke="black" stroke-width="1">
        <line x1="23.08" y1="1" x2="23.08" y2="23"/>
        <line x1="46.15" y1="1" x2="46.15" y2="23"/>
        <line x1="69.23" y1="1" x2="69.23" y2="23"/>
        <line x1="92.31" y1="1" x2="92.31" y2="23"/>
        <line x1="115.38" y1="1" x2="115.38" y2="23"/>
        <line x1="138.46" y1="1" x2="138.46" y2="23"/>
        <line x1="161.54" y1="1" x2="161.54" y2="23"/>
        <line x1="184.62" y1="1" x2="184.62" y2="23"/>
        <line x1="207.69" y1="1" x2="207.69" y2="23"/>
        <line x1="230.77" y1="1" x2="230.77" y2="23"/>
        <line x1="253.85" y1="1" x2="253.85" y2="23"/>
        <line x1="276.92" y1="1" x2="276.92" y2="23"/>
    </g>

</svg>
