<svg width="320" height="24" viewBox="0 0 320 24" fill="none" xmlns="http://www.w3.org/2000/svg">
<rect width="2" height="16" transform="translate(0 4)" fill="black"/>
<rect width="2" height="2" transform="translate(2 2)" fill="black"/>
<rect width="2" height="16" transform="translate(2 4)" fill="#BCC4CB"/>
<rect width="2" height="2" transform="translate(2 20)" fill="black"/>
<mask id="path-1-outside-1_4117_47465" maskUnits="userSpaceOnUse" x="4" y="0" width="25" height="24" fill="black">
<rect fill="white" x="4" width="25" height="24"/>
<path d="M4 2H26.1538V22H4V2Z"/>
</mask>
<path d="M4 2H26.1538V22H4V2Z" fill="white"/>
<path d="M26.1538 2H28.1538V0H26.1538V2ZM26.1538 22V24H28.1538V22H26.1538ZM4 2V4H26.1538V2V0H4V2ZM26.1538 2H24.1538V22H26.1538H28.1538V2H26.1538ZM26.1538 22V20H4V22V24H26.1538V22Z" fill="black" mask="url(#path-1-outside-1_4117_47465)"/>
<rect width="22.1538" height="6" transform="translate(4 16)" fill="#BCC4CB"/>
<rect x="27.1538" y="1" width="24.1538" height="22" fill="white"/>
<rect x="27.1538" y="1" width="24.1538" height="22" stroke="black" stroke-width="2"/>
<rect width="22.1538" height="6" transform="translate(28.1538 16)" fill="#BCC4CB"/>
<rect x="51.3076" y="1" width="24.1538" height="22" fill="white"/>
<rect x="51.3076" y="1" width="24.1538" height="22" stroke="black" stroke-width="2"/>
<rect width="22.1538" height="6" transform="translate(52.3076 16)" fill="#BCC4CB"/>
<rect x="75.4614" y="1" width="24.1538" height="22" fill="white"/>
<rect x="75.4614" y="1" width="24.1538" height="22" stroke="black" stroke-width="2"/>
<rect width="22.1538" height="6" transform="translate(76.4614 16)" fill="#BCC4CB"/>
<rect x="99.6152" y="1" width="24.1538" height="22" fill="white"/>
<rect x="99.6152" y="1" width="24.1538" height="22" stroke="black" stroke-width="2"/>
<rect width="22.1538" height="6" transform="translate(100.615 16)" fill="#BCC4CB"/>
<rect x="123.769" y="1" width="24.1538" height="22" fill="white"/>
<rect x="123.769" y="1" width="24.1538" height="22" stroke="black" stroke-width="2"/>
<rect width="22.1538" height="6" transform="translate(124.769 16)" fill="#BCC4CB"/>
<rect x="147.923" y="1" width="24.1538" height="22" fill="white"/>
<rect x="147.923" y="1" width="24.1538" height="22" stroke="black" stroke-width="2"/>
<rect width="22.1538" height="6" transform="translate(148.923 16)" fill="#BCC4CB"/>
<rect x="172.077" y="1" width="24.1538" height="22" fill="white"/>
<rect x="172.077" y="1" width="24.1538" height="22" stroke="black" stroke-width="2"/>
<rect width="22.1538" height="6" transform="translate(173.077 16)" fill="#BCC4CB"/>
<rect x="196.231" y="1" width="24.1538" height="22" fill="white"/>
<rect x="196.231" y="1" width="24.1538" height="22" stroke="black" stroke-width="2"/>
<rect width="22.1538" height="14" transform="translate(197.231 2)" fill="white"/>
<rect width="22.1538" height="6" transform="translate(197.231 16)" fill="#BCC4CB"/>
<rect x="220.385" y="1" width="24.1538" height="22" fill="white"/>
<rect x="220.385" y="1" width="24.1538" height="22" stroke="black" stroke-width="2"/>
<rect width="22.1538" height="14" transform="translate(221.385 2)" fill="white"/>
<rect width="22.1538" height="6" transform="translate(221.385 16)" fill="#BCC4CB"/>
<rect x="244.539" y="1" width="24.1538" height="22" fill="white"/>
<rect x="244.539" y="1" width="24.1538" height="22" stroke="black" stroke-width="2"/>
<rect width="22.1538" height="14" transform="translate(245.539 2)" fill="white"/>
<rect width="22.1538" height="6" transform="translate(245.539 16)" fill="#BCC4CB"/>
<rect x="268.692" y="1" width="24.1538" height="22" fill="white"/>
<rect x="268.692" y="1" width="24.1538" height="22" stroke="black" stroke-width="2"/>
<rect width="22.1538" height="14" transform="translate(269.692 2)" fill="white"/>
<rect width="22.1538" height="6" transform="translate(269.692 16)" fill="#BCC4CB"/>
<path d="M293.846 2H316V22H293.846V2Z" fill="white"/>
<path d="M293.846 2V0H291.846V2H293.846ZM293.846 22H291.846V24H293.846V22ZM293.846 2V4H316V2V0H293.846V2ZM316 22V20H293.846V22V24H316V22ZM293.846 22H295.846V2H293.846H291.846V22H293.846Z" fill="black"/>
<rect width="22.1538" height="14" transform="translate(293.846 2)" fill="white"/>
<rect width="22.1538" height="6" transform="translate(293.846 16)" fill="#BCC4CB"/>
<rect width="2" height="2" transform="translate(316 2)" fill="black"/>
<rect width="2" height="16" transform="translate(316 4)" fill="#BCC4CB"/>
<rect width="2" height="2" transform="translate(316 20)" fill="black"/>
<rect width="2" height="16" transform="translate(318 4)" fill="black"/>
</svg>
