<svg width="16" height="9" viewBox="0 0 16 9" fill="none" xmlns="http://www.w3.org/2000/svg">
<rect y="4" width="1" height="1" fill="white"/>
<rect x="1" y="4" width="1" height="1" fill="white"/>
<rect x="2" y="4" width="1" height="1" fill="white"/>
<rect x="3" y="4" width="1" height="1" fill="white"/>
<rect x="4" y="4" width="1" height="1" fill="white"/>
<rect x="5" y="4" width="1" height="1" fill="white"/>
<rect x="6" y="4" width="1" height="1" fill="white"/>
<rect x="7" y="4" width="1" height="1" fill="white"/>
<rect x="8" y="4" width="1" height="1" fill="white"/>
<rect x="9" y="4" width="1" height="1" fill="white"/>
<rect x="10" y="4" width="1" height="1" fill="white"/>
<rect x="11" y="4" width="1" height="1" fill="white"/>
<rect x="12" y="4" width="1" height="1" fill="white"/>
<rect x="13" y="4" width="1" height="1" fill="white"/>
<rect x="14" y="4" width="1" height="1" fill="white"/>
<rect x="15" y="4" width="1" height="1" fill="white"/>
<rect x="14" y="3" width="1" height="1" fill="white"/>
<rect x="14" y="5" width="1" height="1" fill="white"/>
<rect x="13" y="6" width="1" height="1" fill="white"/>
<rect x="12" y="7" width="1" height="1" fill="white"/>
<rect x="11" y="8" width="1" height="1" fill="white"/>
<rect x="13" y="2" width="1" height="1" fill="white"/>
<rect x="12" y="1" width="1" height="1" fill="white"/>
<rect x="11" width="1" height="1" fill="white"/>
</svg>
