<svg width="15" height="14" viewBox="0 0 15 14" fill="none" xmlns="http://www.w3.org/2000/svg">
<path d="M13.5002 0.999919V0.333252H9.50016V0.999919H8.8335V2.99992H8.16683V4.33325H6.8335V4.99992H5.50016V4.33325H1.50016V4.99992H0.833496V8.99992H1.50016V9.66659H5.50016V8.99992H6.8335V9.66659H8.16683V10.9999H8.8335V12.9999H9.50016V13.6666H13.5002V12.9999H14.1668V8.99992H13.5002V8.33325H10.1668V8.99992H9.50016V8.33325H8.16683V7.66659H7.50016V6.33325H8.16683V5.66659H9.50016V4.99992H10.1668V5.66659H13.5002V4.99992H14.1668V0.999919H13.5002ZM12.8335 3.66659H12.1668V4.33325H10.8335V3.66659H10.1668V2.33325H10.8335V1.66659H12.1668V2.33325H12.8335V3.66659ZM4.16683 7.66659V8.33325H2.8335V7.66659H2.16683V6.33325H2.8335V5.66659H4.16683V6.33325H4.8335V7.66659H4.16683ZM10.8335 9.66659H12.1668V10.3333H12.8335V11.6666H12.1668V12.3333H10.8335V11.6666H10.1668V10.3333H10.8335V9.66659Z" fill="#303030"/>
</svg>
