<svg width="62" height="62" viewBox="0 0 62 62" fill="none" xmlns="http://www.w3.org/2000/svg">
<path d="M24.1152 2.27026H27.9043V4.16479H29.7979V6.05835H32.1934V4.16479H34.0879V2.27026H37.876V0.375732H52.5283V2.27026H56.3174V4.16479H58.2119V6.05835H60.1055V9.84741H62V24.491H60.1055V28.28H58.2119V30.1746H56.3252V31.8894H58.2119V33.7839H60.1055V37.572H62V52.2166H60.1055V56.0046H58.2119V57.8992H56.3174V59.7937H52.5283V61.6873H37.876V59.7937H34.0879V57.8992H32.1934V56.0046H29.7979V57.8992H27.9043V59.7937H24.1152V61.6873H9.4707V59.7937H5.68262V57.8992H3.78809V56.0046H1.89453V52.2166H0V37.5642H1.89453V33.7751H3.78809V31.8816H5.68262V30.1824H3.78809V28.2878H1.89453V24.4998H0V9.84741H1.89453V6.05835H3.78809V4.16479H5.68262V2.27026H9.4707V0.375732H24.1152V2.27026Z" fill="#184742"/>
<path d="M10.9575 3.40137L12.8467 3.40137V1.5122L10.9575 1.5122V3.40137Z" fill="#59BE92"/>
<path d="M12.8467 3.40137L14.7358 3.40137V1.5122L12.8467 1.5122V3.40137Z" fill="#59BE92"/>
<path d="M14.7358 3.40137L16.625 3.40137V1.5122L14.7358 1.5122V3.40137Z" fill="#59BE92"/>
<path d="M16.625 3.40137L18.5142 3.40137V1.5122L16.625 1.5122V3.40137Z" fill="#59BE92"/>
<path d="M18.5142 3.40137L20.4033 3.40137V1.5122L18.5142 1.5122V3.40137Z" fill="#59BE92"/>
<path d="M20.4033 3.40137L22.2925 3.40137V1.5122L20.4033 1.5122V3.40137Z" fill="#59BE92"/>
<path d="M7.17919 5.29053H9.06836V3.40136H7.17919V5.29053Z" fill="#59BE92"/>
<path d="M9.06835 5.29053H10.9575V3.40136H9.06835V5.29053Z" fill="#59BE92"/>
<path d="M12.8467 5.29053V3.40137H10.9575V5.29053H12.8467Z" fill="#00AC75"/>
<path d="M14.7358 5.29053V3.40137H12.8467V5.29053H14.7358Z" fill="#00AC75"/>
<path d="M16.625 5.29053V3.40137H14.7358V5.29053H16.625Z" fill="#00AC75"/>
<path d="M18.5142 5.29053V3.40137H16.625V5.29053H18.5142Z" fill="#00AC75"/>
<path d="M20.4033 5.29053V3.40137H18.5142V5.29053H20.4033Z" fill="#00AC75"/>
<path d="M22.2925 5.29053V3.40137H20.4033V5.29053H22.2925Z" fill="#00AC75"/>
<path d="M22.2925 5.29053H24.1816V3.40136H22.2925V5.29053Z" fill="#59BE92"/>
<path d="M24.1816 5.29053H26.0708V3.40136H24.1816V5.29053Z" fill="#59BE92"/>
<path d="M7.1792 7.17969V5.29053H5.29003V7.17969H7.1792Z" fill="#59BE92"/>
<path d="M9.06836 7.17969V5.29053H7.17919V7.17969H9.06836Z" fill="#00AC75"/>
<path d="M10.9575 7.17969V5.29053H9.06835V7.17969H10.9575Z" fill="#00AC75"/>
<path d="M12.8467 7.17969V5.29053H10.9575V7.17969H12.8467Z" fill="#00AC75"/>
<path d="M14.7358 7.17969V5.29053H12.8467V7.17969H14.7358Z" fill="#00AC75"/>
<path d="M16.625 7.17969V5.29053H14.7358V7.17969H16.625Z" fill="#00AC75"/>
<path d="M18.5142 7.17969V5.29053H16.625V7.17969H18.5142Z" fill="#00AC75"/>
<path d="M20.4033 7.17969V5.29053H18.5142V7.17969H20.4033Z" fill="#00AC75"/>
<path d="M22.2925 7.17969V5.29053H20.4033V7.17969H22.2925Z" fill="#00AC75"/>
<path d="M24.1816 7.17969V5.29053H22.2925V7.17969H24.1816Z" fill="#00AC75"/>
<path d="M26.0708 7.17969V5.29053H24.1816V7.17969H26.0708Z" fill="#00AC75"/>
<path d="M27.96 7.17969V5.29053H26.0708V7.17969H27.96Z" fill="#59BE92"/>
<path d="M5.29004 9.06885V7.17969H3.40087V9.06885H5.29004Z" fill="#59BE92"/>
<path d="M7.1792 9.06885V7.17969H5.29003V9.06885H7.1792Z" fill="#00AC75"/>
<path d="M9.06836 9.06885V7.17969H7.17919V9.06885H9.06836Z" fill="#00AC75"/>
<path d="M10.9575 9.06885V7.17969H9.06835V9.06885H10.9575Z" fill="#00AC75"/>
<path d="M12.8467 9.06885V7.17969H10.9575V9.06885H12.8467Z" fill="#32B686"/>
<path d="M14.7358 9.06885V7.17969H12.8467V9.06885H14.7358Z" fill="#32B686"/>
<path d="M16.625 9.06885V7.17969H14.7358V9.06885H16.625Z" fill="#32B686"/>
<path d="M18.5142 9.06885V7.17969H16.625V9.06885H18.5142Z" fill="#32B686"/>
<path d="M20.4033 9.06885V7.17969H18.5142V9.06885H20.4033Z" fill="#32B686"/>
<path d="M22.2925 9.06885V7.17969H20.4033V9.06885H22.2925Z" fill="#32B686"/>
<path d="M24.1816 9.06885V7.17969H22.2925V9.06885H24.1816Z" fill="#32B686"/>
<path d="M26.0708 9.06885V7.17969H24.1816V9.06885H26.0708Z" fill="#32B686"/>
<path d="M27.96 9.06885V7.17969H26.0708V9.06885H27.96Z" fill="#59BE92"/>
<path d="M29.8491 9.06885V7.17969H27.96V9.06885H29.8491Z" fill="#59BE92"/>
<path d="M5.29004 10.958V9.06885H3.40087V10.958H5.29004Z" fill="#59BE92"/>
<path d="M7.1792 10.958V9.06885H5.29003V10.958H7.1792Z" fill="#00AC75"/>
<path d="M9.06836 10.958V9.06885H7.17919V10.958H9.06836Z" fill="#00AC75"/>
<path d="M10.9575 10.958V9.06885H9.06835V10.958H10.9575Z" fill="#32B686"/>
<path d="M12.8467 10.958V9.06885H10.9575V10.958H12.8467Z" fill="#32B686"/>
<path d="M14.7358 10.958V9.06885H12.8467V10.958H14.7358Z" fill="#32B686"/>
<path d="M16.625 10.958V9.06885H14.7358V10.958H16.625Z" fill="#86CBA8"/>
<path d="M18.5142 10.958V9.06885H16.625V10.958H18.5142Z" fill="#86CBA8"/>
<path d="M20.4033 10.958V9.06885H18.5142V10.958H20.4033Z" fill="#86CBA8"/>
<path d="M22.2925 10.958V9.06885H20.4033V10.958H22.2925Z" fill="#86CBA8"/>
<path d="M24.1816 10.958V9.06885H22.2925V10.958H24.1816Z" fill="#59BE92"/>
<path d="M26.0708 10.958V9.06885H24.1816V10.958H26.0708Z" fill="#86CBA8"/>
<path d="M27.96 10.958V9.06885H26.0708V10.958H27.96Z" fill="#59BE92"/>
<path d="M29.8491 10.958V9.06885H27.96V10.958H29.8491Z" fill="#59BE92"/>
<path d="M39.2961 3.40137L41.1853 3.40137V1.5122L39.2961 1.5122V3.40137Z" fill="#59BE92"/>
<path d="M41.1853 3.40137L43.0745 3.40137V1.5122L41.1853 1.5122V3.40137Z" fill="#59BE92"/>
<path d="M43.0745 3.40137L44.9636 3.40137V1.5122L43.0745 1.5122V3.40137Z" fill="#59BE92"/>
<path d="M44.9636 3.40137L46.8528 3.40137V1.5122L44.9636 1.5122V3.40137Z" fill="#59BE92"/>
<path d="M46.8528 3.40137L48.7419 3.40137V1.5122L46.8528 1.5122V3.40137Z" fill="#59BE92"/>
<path d="M48.7419 3.40137L50.6311 3.40137V1.5122L48.7419 1.5122V3.40137Z" fill="#59BE92"/>
<path d="M35.5178 5.29053H37.407V3.40136H35.5178V5.29053Z" fill="#59BE92"/>
<path d="M37.407 5.29053H39.2961V3.40136H37.407V5.29053Z" fill="#59BE92"/>
<path d="M41.1855 5.29053V3.40137H39.2964V5.29053H41.1855Z" fill="#00AC75"/>
<path d="M43.0745 5.29053V3.40137H41.1853V5.29053H43.0745Z" fill="#00AC75"/>
<path d="M44.9636 5.29053V3.40137H43.0745V5.29053H44.9636Z" fill="#00AC75"/>
<path d="M46.8528 5.29053V3.40137H44.9636V5.29053H46.8528Z" fill="#00AC75"/>
<path d="M48.7419 5.29053V3.40137H46.8528V5.29053H48.7419Z" fill="#00AC75"/>
<path d="M50.6311 5.29053V3.40137H48.7419V5.29053H50.6311Z" fill="#00AC75"/>
<path d="M50.6311 5.29053H52.5203V3.40136H50.6311V5.29053Z" fill="#59BE92"/>
<path d="M52.5203 5.29053H54.4094V3.40136H52.5203V5.29053Z" fill="#59BE92"/>
<path d="M33.6287 7.17969H35.5178V5.29052H33.6287V7.17969Z" fill="#59BE92"/>
<path d="M37.407 7.17969V5.29053H35.5178V7.17969H37.407Z" fill="#00AC75"/>
<path d="M39.2961 7.17969V5.29053H37.407V7.17969H39.2961Z" fill="#00AC75"/>
<path d="M41.1853 7.17969V5.29053H39.2961V7.17969H41.1853Z" fill="#00AC75"/>
<path d="M43.0745 7.17969V5.29053H41.1853V7.17969H43.0745Z" fill="#00AC75"/>
<path d="M44.9636 7.17969V5.29053H43.0745V7.17969H44.9636Z" fill="#00AC75"/>
<path d="M46.8528 7.17969V5.29053H44.9636V7.17969H46.8528Z" fill="#00AC75"/>
<path d="M48.7419 7.17969V5.29053H46.8528V7.17969H48.7419Z" fill="#00AC75"/>
<path d="M50.6311 7.17969V5.29053H48.7419V7.17969H50.6311Z" fill="#00AC75"/>
<path d="M52.5203 7.17969V5.29053H50.6311V7.17969H52.5203Z" fill="#00AC75"/>
<path d="M54.4094 7.17969V5.29053H52.5203V7.17969H54.4094Z" fill="#00AC75"/>
<path d="M54.4094 7.17969H56.2986V5.29052H54.4094V7.17969Z" fill="#59BE92"/>
<path d="M31.7395 7.17968V9.06885H33.6287V7.17968H31.7395Z" fill="#59BE92"/>
<path d="M35.5178 9.06885V7.17969H33.6287V9.06885H35.5178Z" fill="#00AC75"/>
<path d="M37.407 9.06885V7.17969H35.5178V9.06885H37.407Z" fill="#32B686"/>
<path d="M39.2961 9.06885V7.17969H37.407V9.06885H39.2961Z" fill="#32B686"/>
<path d="M41.1853 9.06885V7.17969H39.2961V9.06885H41.1853Z" fill="#32B686"/>
<path d="M43.0745 9.06885V7.17969H41.1853V9.06885H43.0745Z" fill="#32B686"/>
<path d="M44.9636 9.06885V7.17969H43.0745V9.06885H44.9636Z" fill="#32B686"/>
<path d="M46.8528 9.06885V7.17969H44.9636V9.06885H46.8528Z" fill="#32B686"/>
<path d="M48.7419 9.06885V7.17969H46.8528V9.06885H48.7419Z" fill="#32B686"/>
<path d="M50.6311 9.06885V7.17969H48.7419V9.06885H50.6311Z" fill="#32B686"/>
<path d="M52.5203 9.06885V7.17969H50.6311V9.06885H52.5203Z" fill="#00AC75"/>
<path d="M54.4094 9.06885V7.17969H52.5203V9.06885H54.4094Z" fill="#00AC75"/>
<path d="M56.2986 9.06885V7.17969H54.4094V9.06885H56.2986Z" fill="#00AC75"/>
<path d="M56.2986 7.17968V9.06885H58.1877V7.17968H56.2986Z" fill="#59BE92"/>
<path d="M31.7395 9.06884V10.958H33.6287V9.06884H31.7395Z" fill="#59BE92"/>
<path d="M35.5178 10.958V9.06885H33.6287V10.958H35.5178Z" fill="#00AC75"/>
<path d="M37.407 10.958V9.06885H35.5178V10.958H37.407Z" fill="#32B686"/>
<path d="M39.2961 10.958V9.06885H37.407V10.958H39.2961Z" fill="#59BE92"/>
<path d="M41.1853 10.958V9.06885H39.2961V10.958H41.1853Z" fill="#32B686"/>
<path d="M43.0745 10.958V9.06885H41.1853V10.958H43.0745Z" fill="#59BE92"/>
<path d="M44.9636 10.958V9.06885H43.0745V10.958H44.9636Z" fill="#59BE92"/>
<path d="M46.8528 10.958V9.06885H44.9636V10.958H46.8528Z" fill="#86CBA8"/>
<path d="M48.7419 10.958V9.06885H46.8528V10.958H48.7419Z" fill="#86CBA8"/>
<path d="M50.6311 10.958V9.06885H48.7419V10.958H50.6311Z" fill="#86CBA8"/>
<path d="M52.5203 10.958V9.06885H50.6311V10.958H52.5203Z" fill="#32B686"/>
<path d="M54.4094 10.958V9.06885H52.5203V10.958H54.4094Z" fill="#32B686"/>
<path d="M56.2986 10.958V9.06885H54.4094V10.958H56.2986Z" fill="#00AC75"/>
<path d="M56.2986 9.06884V10.958H58.1877V9.06884H56.2986Z" fill="#59BE92"/>
<path d="M3.40137 12.8472V10.958H1.5122L1.5122 12.8472H3.40137Z" fill="#59BE92"/>
<path d="M5.29053 12.8472V10.958H3.40136V12.8472H5.29053Z" fill="#00AC75"/>
<path d="M7.17969 12.8472V10.958H5.29052V12.8472H7.17969Z" fill="#00AC75"/>
<path d="M9.06885 12.8472V10.958H7.17968V12.8472H9.06885Z" fill="#00AC75"/>
<path d="M10.958 12.8472V10.958H9.06884V12.8472H10.958Z" fill="#32B686"/>
<path d="M12.8472 12.8472V10.958H10.958V12.8472H12.8472Z" fill="#32B686"/>
<path d="M14.7363 12.8472V10.958H12.8472V12.8472H14.7363Z" fill="#86CBA8"/>
<path d="M16.6255 12.8472V10.958H14.7363V12.8472H16.6255Z" fill="#59BE92"/>
<path d="M18.5146 12.8472V10.958H16.6255V12.8472H18.5146Z" fill="#59BE92"/>
<path d="M20.4038 12.8472V10.958H18.5146V12.8472H20.4038Z" fill="#59BE92"/>
<path d="M22.293 12.8472V10.958H20.4038V12.8472H22.293Z" fill="#59BE92"/>
<path d="M24.1821 12.8472V10.958H22.293V12.8472H24.1821Z" fill="#59BE92"/>
<path d="M26.0713 12.8472V10.958H24.1821V12.8472H26.0713Z" fill="#59BE92"/>
<path d="M27.9604 12.8472V10.958H26.0713V12.8472H27.9604Z" fill="#59BE92"/>
<path d="M29.8496 12.8472V10.958H27.9604V12.8472H29.8496Z" fill="#59BE92"/>
<path d="M31.7388 12.8472V10.958H29.8496V12.8472H31.7388Z" fill="#59BE92"/>
<path d="M33.6279 12.8472V10.958H31.7388V12.8472H33.6279Z" fill="#00AC75"/>
<path d="M35.5171 12.8472V10.958H33.6279V12.8472H35.5171Z" fill="#00AC75"/>
<path d="M37.4062 12.8472V10.958H35.5171V12.8472H37.4062Z" fill="#32B686"/>
<path d="M39.2954 12.8472V10.958H37.4062V12.8472H39.2954Z" fill="#32B686"/>
<path d="M41.1846 12.8472V10.958H39.2954V12.8472H41.1846Z" fill="#59BE92"/>
<path d="M43.0737 12.8472V10.958H41.1846V12.8472H43.0737Z" fill="#59BE92"/>
<path d="M44.9629 12.8472V10.958H43.0737V12.8472H44.9629Z" fill="#59BE92"/>
<path d="M46.8521 12.8472V10.958H44.9629V12.8472H46.8521Z" fill="#59BE92"/>
<path d="M48.7415 12.8472V10.958H46.8523V12.8472H48.7415Z" fill="#59BE92"/>
<path d="M50.6304 12.8472V10.958H48.7412V12.8472H50.6304Z" fill="#59BE92"/>
<path d="M52.5198 12.8472V10.958H50.6306V12.8472H52.5198Z" fill="#86CBA8"/>
<path d="M54.4089 12.8472V10.958H52.5198V12.8472H54.4089Z" fill="#32B686"/>
<path d="M56.2981 12.8472V10.958H54.4089V12.8472H56.2981Z" fill="#00AC75"/>
<path d="M58.1873 12.8472V10.958H56.2981V12.8472H58.1873Z" fill="#00AC75"/>
<path d="M58.1873 10.958V12.8472H60.0764V10.958H58.1873Z" fill="#59BE92"/>
<path d="M3.40137 14.7363V12.8472H1.5122L1.5122 14.7363H3.40137Z" fill="#59BE92"/>
<path d="M5.29053 14.7363V12.8472H3.40136V14.7363H5.29053Z" fill="#00AC75"/>
<path d="M7.17969 14.7363V12.8472H5.29052V14.7363H7.17969Z" fill="#00AC75"/>
<path d="M9.06885 14.7363V12.8472H7.17968V14.7363H9.06885Z" fill="#00AC75"/>
<path d="M10.958 14.7363V12.8472H9.06884V14.7363H10.958Z" fill="#32B686"/>
<path d="M12.8472 14.7363V12.8472H10.958V14.7363H12.8472Z" fill="#32B686"/>
<path d="M14.7363 14.7363V12.8472H12.8472V14.7363H14.7363Z" fill="#59BE92"/>
<path d="M16.6255 14.7363V12.8472H14.7363V14.7363H16.6255Z" fill="#59BE92"/>
<path d="M18.5146 14.7363V12.8472H16.6255V14.7363H18.5146Z" fill="#59BE92"/>
<path d="M20.4038 14.7363V12.8472H18.5146V14.7363H20.4038Z" fill="#59BE92"/>
<path d="M22.293 14.7363V12.8472H20.4038V14.7363H22.293Z" fill="#59BE92"/>
<path d="M24.1821 14.7363V12.8472H22.293V14.7363H24.1821Z" fill="#59BE92"/>
<path d="M26.0713 14.7363V12.8472H24.1821V14.7363H26.0713Z" fill="#59BE92"/>
<path d="M27.9604 14.7363V12.8472H26.0713V14.7363H27.9604Z" fill="#59BE92"/>
<path d="M29.8496 14.7363V12.8472H27.9604V14.7363H29.8496Z" fill="#59BE92"/>
<path d="M31.7388 14.7363V12.8472H29.8496V14.7363H31.7388Z" fill="#59BE92"/>
<path d="M33.6279 14.7363V12.8472H31.7388V14.7363H33.6279Z" fill="#00AC75"/>
<path d="M35.5171 14.7363V12.8472H33.6279V14.7363H35.5171Z" fill="#00AC75"/>
<path d="M37.4062 14.7363V12.8472H35.5171V14.7363H37.4062Z" fill="#32B686"/>
<path d="M39.2954 14.7363V12.8472H37.4062V14.7363H39.2954Z" fill="#59BE92"/>
<path d="M41.1846 14.7363V12.8472H39.2954V14.7363H41.1846Z" fill="#59BE92"/>
<path d="M43.0737 14.7363V12.8472H41.1846V14.7363H43.0737Z" fill="#59BE92"/>
<path d="M44.9629 14.7363V12.8472H43.0737V14.7363H44.9629Z" fill="#59BE92"/>
<path d="M46.8521 14.7363V12.8472H44.9629V14.7363H46.8521Z" fill="#59BE92"/>
<path d="M48.7415 14.7363V12.8472H46.8523V14.7363H48.7415Z" fill="#59BE92"/>
<path d="M50.6304 14.7363V12.8472H48.7412V14.7363H50.6304Z" fill="#59BE92"/>
<path d="M52.5198 14.7363V12.8472H50.6306V14.7363H52.5198Z" fill="#59BE92"/>
<path d="M54.4089 14.7363V12.8472H52.5198V14.7363H54.4089Z" fill="#86CBA8"/>
<path d="M56.2981 14.7363V12.8472H54.4089V14.7363H56.2981Z" fill="#32B686"/>
<path d="M58.1873 14.7363V12.8472H56.2981V14.7363H58.1873Z" fill="#00AC75"/>
<path d="M58.1873 12.8472V14.7363H60.0764V12.8472H58.1873Z" fill="#59BE92"/>
<path d="M3.40137 16.6255V14.7363H1.5122L1.5122 16.6255H3.40137Z" fill="#59BE92"/>
<path d="M5.29053 16.6255V14.7363H3.40136V16.6255H5.29053Z" fill="#00AC75"/>
<path d="M7.17969 16.6255V14.7363H5.29052V16.6255H7.17969Z" fill="#00AC75"/>
<path d="M9.06885 16.6255V14.7363H7.17968V16.6255H9.06885Z" fill="#00AC75"/>
<path d="M10.958 16.6255V14.7363H9.06884V16.6255H10.958Z" fill="#32B686"/>
<path d="M12.8472 16.6255V14.7363H10.958V16.6255H12.8472Z" fill="#86CBA8"/>
<path d="M14.7363 16.6255V14.7363H12.8472V16.6255H14.7363Z" fill="#59BE92"/>
<path d="M16.6255 16.6255V14.7363H14.7363V16.6255H16.6255Z" fill="#59BE92"/>
<path d="M18.5146 16.6255V14.7363H16.6255V16.6255H18.5146Z" fill="#59BE92"/>
<path d="M20.4038 16.6255V14.7363H18.5146V16.6255H20.4038Z" fill="#59BE92"/>
<path d="M22.293 16.6255V14.7363H20.4038V16.6255H22.293Z" fill="#59BE92"/>
<path d="M24.1821 16.6255V14.7363H22.293V16.6255H24.1821Z" fill="#59BE92"/>
<path d="M26.0713 16.6255V14.7363H24.1821V16.6255H26.0713Z" fill="#59BE92"/>
<path d="M27.9604 16.6255V14.7363H26.0713V16.6255H27.9604Z" fill="#59BE92"/>
<path d="M29.8496 16.6255V14.7363H27.9604V16.6255H29.8496Z" fill="#59BE92"/>
<path d="M31.7388 16.6255V14.7363H29.8496V16.6255H31.7388Z" fill="#59BE92"/>
<path d="M33.6279 16.6255V14.7363H31.7388V16.6255H33.6279Z" fill="#00AC75"/>
<path d="M35.5171 16.6255V14.7363H33.6279V16.6255H35.5171Z" fill="#00AC75"/>
<path d="M37.4062 16.6255V14.7363H35.5171V16.6255H37.4062Z" fill="#32B686"/>
<path d="M39.2954 16.6255V14.7363H37.4062V16.6255H39.2954Z" fill="#59BE92"/>
<path d="M41.1846 16.6255V14.7363H39.2954V16.6255H41.1846Z" fill="#59BE92"/>
<path d="M43.0737 16.6255V14.7363H41.1846V16.6255H43.0737Z" fill="#59BE92"/>
<path d="M44.9629 16.6255V14.7363H43.0737V16.6255H44.9629Z" fill="#59BE92"/>
<path d="M46.8521 16.6255V14.7363H44.9629V16.6255H46.8521Z" fill="#59BE92"/>
<path d="M48.7415 16.6255V14.7363H46.8523V16.6255H48.7415Z" fill="#59BE92"/>
<path d="M50.6304 16.6255V14.7363H48.7412V16.6255H50.6304Z" fill="#59BE92"/>
<path d="M52.5198 16.6255V14.7363H50.6306V16.6255H52.5198Z" fill="#59BE92"/>
<path d="M54.4089 16.6255V14.7363H52.5198V16.6255H54.4089Z" fill="#86CBA8"/>
<path d="M56.2981 16.6255V14.7363H54.4089V16.6255H56.2981Z" fill="#32B686"/>
<path d="M58.1873 16.6255V14.7363H56.2981V16.6255H58.1873Z" fill="#00AC75"/>
<path d="M58.1873 14.7363V16.6255H60.0764V14.7363H58.1873Z" fill="#59BE92"/>
<path d="M3.40137 18.5147V16.6255H1.5122L1.5122 18.5147H3.40137Z" fill="#59BE92"/>
<path d="M5.29053 18.5147V16.6255H3.40136V18.5147H5.29053Z" fill="#00AC75"/>
<path d="M7.17969 18.5147V16.6255H5.29052V18.5147H7.17969Z" fill="#00AC75"/>
<path d="M9.06885 18.5147V16.6255H7.17968V18.5147H9.06885Z" fill="#00AC75"/>
<path d="M10.958 18.5147V16.6255H9.06884V18.5147H10.958Z" fill="#32B686"/>
<path d="M12.8472 18.5147V16.6255H10.958V18.5147H12.8472Z" fill="#86CBA8"/>
<path d="M14.7363 18.5147V16.6255H12.8472V18.5147H14.7363Z" fill="#59BE92"/>
<path d="M16.6255 18.5147V16.6255H14.7363V18.5147H16.6255Z" fill="#59BE92"/>
<path d="M18.5146 18.5147V16.6255H16.6255V18.5147H18.5146Z" fill="#59BE92"/>
<path d="M20.4038 18.5147V16.6255H18.5146V18.5147H20.4038Z" fill="#59BE92"/>
<path d="M22.293 18.5147V16.6255H20.4038V18.5147H22.293Z" fill="#59BE92"/>
<path d="M24.1821 18.5147V16.6255H22.293V18.5147H24.1821Z" fill="#59BE92"/>
<path d="M26.0713 18.5147V16.6255H24.1821V18.5147H26.0713Z" fill="#59BE92"/>
<path d="M27.9604 18.5147V16.6255H26.0713V18.5147H27.9604Z" fill="#59BE92"/>
<path d="M29.8496 18.5147V16.6255H27.9604V18.5147H29.8496Z" fill="#59BE92"/>
<path d="M31.7388 18.5147V16.6255H29.8496V18.5147H31.7388Z" fill="#59BE92"/>
<path d="M33.6279 18.5147V16.6255H31.7388V18.5147H33.6279Z" fill="#59BE92"/>
<path d="M35.5171 18.5147V16.6255H33.6279V18.5147H35.5171Z" fill="#59BE92"/>
<path d="M37.4062 18.5147V16.6255H35.5171V18.5147H37.4062Z" fill="#59BE92"/>
<path d="M39.2954 18.5147V16.6255H37.4062V18.5147H39.2954Z" fill="#59BE92"/>
<path d="M41.1846 18.5147V16.6255H39.2954V18.5147H41.1846Z" fill="#59BE92"/>
<path d="M43.0737 18.5147V16.6255H41.1846V18.5147H43.0737Z" fill="#59BE92"/>
<path d="M44.9629 18.5147V16.6255H43.0737V18.5147H44.9629Z" fill="#59BE92"/>
<path d="M46.8521 18.5147V16.6255H44.9629V18.5147H46.8521Z" fill="#59BE92"/>
<path d="M48.7415 18.5147V16.6255H46.8523V18.5147H48.7415Z" fill="#59BE92"/>
<path d="M50.6304 18.5147V16.6255H48.7412V18.5147H50.6304Z" fill="#59BE92"/>
<path d="M52.5198 18.5147V16.6255H50.6306V18.5147H52.5198Z" fill="#59BE92"/>
<path d="M54.4089 18.5147V16.6255H52.5198V18.5147H54.4089Z" fill="#86CBA8"/>
<path d="M56.2981 18.5147V16.6255H54.4089V18.5147H56.2981Z" fill="#32B686"/>
<path d="M58.1873 18.5147V16.6255H56.2981V18.5147H58.1873Z" fill="#00AC75"/>
<path d="M58.1873 16.6255V18.5146H60.0764V16.6255H58.1873Z" fill="#59BE92"/>
<path d="M3.40137 20.4038V18.5146H1.5122L1.5122 20.4038H3.40137Z" fill="#59BE92"/>
<path d="M5.29053 20.4038V18.5146H3.40136V20.4038H5.29053Z" fill="#00AC75"/>
<path d="M7.17969 20.4038V18.5146H5.29052V20.4038H7.17969Z" fill="#00AC75"/>
<path d="M9.06885 20.4038V18.5146H7.17968V20.4038H9.06885Z" fill="#00AC75"/>
<path d="M10.958 20.4038V18.5146H9.06884V20.4038H10.958Z" fill="#32B686"/>
<path d="M12.8472 20.4038V18.5146H10.958V20.4038H12.8472Z" fill="#59BE92"/>
<path d="M14.7363 20.4038V18.5146H12.8472V20.4038H14.7363Z" fill="#59BE92"/>
<path d="M16.6255 20.4038V18.5146H14.7363V20.4038H16.6255Z" fill="#59BE92"/>
<path d="M18.5146 20.4038V18.5146H16.6255V20.4038H18.5146Z" fill="#59BE92"/>
<path d="M20.4038 20.4038V18.5146H18.5146V20.4038H20.4038Z" fill="#59BE92"/>
<path d="M22.293 20.4038V18.5146H20.4038V20.4038H22.293Z" fill="#59BE92"/>
<path d="M24.1821 20.4038V18.5146H22.293V20.4038H24.1821Z" fill="#59BE92"/>
<path d="M26.0713 20.4038V18.5146H24.1821V20.4038H26.0713Z" fill="#59BE92"/>
<path d="M27.9604 20.4038V18.5146H26.0713V20.4038H27.9604Z" fill="#59BE92"/>
<path d="M29.8496 20.4038V18.5146H27.9604V20.4038H29.8496Z" fill="#59BE92"/>
<path d="M31.7388 20.4038V18.5146H29.8496V20.4038H31.7388Z" fill="#59BE92"/>
<path d="M33.6279 20.4038V18.5146H31.7388V20.4038H33.6279Z" fill="#59BE92"/>
<path d="M35.5171 20.4038V18.5146H33.6279V20.4038H35.5171Z" fill="#59BE92"/>
<path d="M37.4062 20.4038V18.5146H35.5171V20.4038H37.4062Z" fill="#59BE92"/>
<path d="M39.2954 20.4038V18.5146H37.4062V20.4038H39.2954Z" fill="#59BE92"/>
<path d="M41.1846 20.4038V18.5146H39.2954V20.4038H41.1846Z" fill="#59BE92"/>
<path d="M43.0737 20.4038V18.5146H41.1846V20.4038H43.0737Z" fill="#59BE92"/>
<path d="M44.9629 20.4038V18.5146H43.0737V20.4038H44.9629Z" fill="#59BE92"/>
<path d="M46.8521 20.4038V18.5146H44.9629V20.4038H46.8521Z" fill="#59BE92"/>
<path d="M48.7412 20.4038V18.5146H46.852V20.4038H48.7412Z" fill="#59BE92"/>
<path d="M50.6304 20.4038V18.5146H48.7412V20.4038H50.6304Z" fill="#59BE92"/>
<path d="M52.5195 20.4038V18.5146H50.6304V20.4038H52.5195Z" fill="#59BE92"/>
<path d="M54.4087 20.4038V18.5146H52.5195V20.4038H54.4087Z" fill="#86CBA8"/>
<path d="M56.2981 20.4038V18.5146H54.4089V20.4038H56.2981Z" fill="#32B686"/>
<path d="M58.187 20.4038V18.5146H56.2978V20.4038H58.187Z" fill="#00AC75"/>
<path d="M58.187 18.5146V20.4038H60.0762V18.5146H58.187Z" fill="#59BE92"/>
<path d="M3.40137 22.293V20.4038H1.5122L1.5122 22.293H3.40137Z" fill="#59BE92"/>
<path d="M5.29053 22.293V20.4038H3.40136V22.293H5.29053Z" fill="#00AC75"/>
<path d="M7.17969 22.293V20.4038H5.29052V22.293H7.17969Z" fill="#00AC75"/>
<path d="M9.06885 22.293V20.4038H7.17968V22.293H9.06885Z" fill="#00AC75"/>
<path d="M10.958 22.293V20.4038H9.06884V22.293H10.958Z" fill="#32B686"/>
<path d="M12.8472 22.293V20.4038H10.958V22.293H12.8472Z" fill="#86CBA8"/>
<path d="M14.7363 22.293V20.4038H12.8472V22.293H14.7363Z" fill="#59BE92"/>
<path d="M16.6255 22.293V20.4038H14.7363V22.293H16.6255Z" fill="#59BE92"/>
<path d="M18.5146 22.293V20.4038H16.6255V22.293H18.5146Z" fill="#59BE92"/>
<path d="M20.4038 22.293V20.4038H18.5146V22.293H20.4038Z" fill="#59BE92"/>
<path d="M22.293 22.293V20.4038H20.4038V22.293H22.293Z" fill="#59BE92"/>
<path d="M24.1821 22.293V20.4038H22.293V22.293H24.1821Z" fill="#59BE92"/>
<path d="M26.0713 22.293V20.4038H24.1821V22.293H26.0713Z" fill="#59BE92"/>
<path d="M27.9604 22.293V20.4038H26.0713V22.293H27.9604Z" fill="#59BE92"/>
<path d="M29.8496 22.293V20.4038H27.9604V22.293H29.8496Z" fill="#59BE92"/>
<path d="M31.7388 22.293V20.4038H29.8496V22.293H31.7388Z" fill="#59BE92"/>
<path d="M33.6279 22.293V20.4038H31.7388V22.293H33.6279Z" fill="#59BE92"/>
<path d="M35.5171 22.293V20.4038H33.6279V22.293H35.5171Z" fill="#59BE92"/>
<path d="M37.4062 22.293V20.4038H35.5171V22.293H37.4062Z" fill="#59BE92"/>
<path d="M39.2954 22.293V20.4038H37.4062V22.293H39.2954Z" fill="#59BE92"/>
<path d="M41.1846 22.293V20.4038H39.2954V22.293H41.1846Z" fill="#59BE92"/>
<path d="M43.0737 22.293V20.4038H41.1846V22.293H43.0737Z" fill="#59BE92"/>
<path d="M44.9629 22.293V20.4038H43.0737V22.293H44.9629Z" fill="#59BE92"/>
<path d="M46.8521 22.293V20.4038H44.9629V22.293H46.8521Z" fill="#59BE92"/>
<path d="M48.7415 22.293V20.4038H46.8523V22.293H48.7415Z" fill="#59BE92"/>
<path d="M50.6304 22.293V20.4038H48.7412V22.293H50.6304Z" fill="#59BE92"/>
<path d="M52.5198 22.293V20.4038H50.6306V22.293H52.5198Z" fill="#59BE92"/>
<path d="M54.4089 22.293V20.4038H52.5198V22.293H54.4089Z" fill="#59BE92"/>
<path d="M56.2981 22.293V20.4038H54.4089V22.293H56.2981Z" fill="#32B686"/>
<path d="M58.1873 22.293V20.4038H56.2981V22.293H58.1873Z" fill="#00AC75"/>
<path d="M58.1873 20.4038V22.293H60.0764V20.4038H58.1873Z" fill="#59BE92"/>
<path d="M5.29053 24.1821V22.293H3.40136V24.1821H5.29053Z" fill="#59BE92"/>
<path d="M7.17969 24.1821V22.293H5.29052V24.1821H7.17969Z" fill="#00AC75"/>
<path d="M9.06885 24.1821V22.293H7.17968V24.1821H9.06885Z" fill="#00AC75"/>
<path d="M10.958 24.1821V22.293H9.06884V24.1821H10.958Z" fill="#32B686"/>
<path d="M12.8472 24.1821V22.293H10.958V24.1821H12.8472Z" fill="#59BE92"/>
<path d="M14.7363 24.1821V22.293H12.8472V24.1821H14.7363Z" fill="#59BE92"/>
<path d="M16.6255 24.1821V22.293H14.7363V24.1821H16.6255Z" fill="#59BE92"/>
<path d="M18.5146 24.1821V22.293H16.6255V24.1821H18.5146Z" fill="#59BE92"/>
<path d="M20.4038 24.1821V22.293H18.5146V24.1821H20.4038Z" fill="#59BE92"/>
<path d="M22.293 24.1821V22.293H20.4038V24.1821H22.293Z" fill="#59BE92"/>
<path d="M24.1821 24.1821V22.293H22.293V24.1821H24.1821Z" fill="#59BE92"/>
<path d="M26.0713 24.1821V22.293H24.1821V24.1821H26.0713Z" fill="#59BE92"/>
<path d="M27.9604 24.1821V22.293H26.0713V24.1821H27.9604Z" fill="#59BE92"/>
<path d="M29.8496 24.1821V22.293H27.9604V24.1821H29.8496Z" fill="#59BE92"/>
<path d="M31.7388 24.1821V22.293H29.8496V24.1821H31.7388Z" fill="#59BE92"/>
<path d="M33.6279 24.1821V22.293H31.7388V24.1821H33.6279Z" fill="#59BE92"/>
<path d="M35.5171 24.1821V22.293H33.6279V24.1821H35.5171Z" fill="#59BE92"/>
<path d="M37.4062 24.1821V22.293H35.5171V24.1821H37.4062Z" fill="#59BE92"/>
<path d="M39.2954 24.1821V22.293H37.4062V24.1821H39.2954Z" fill="#59BE92"/>
<path d="M41.1848 24.1821V22.293H39.2956V24.1821H41.1848Z" fill="#59BE92"/>
<path d="M43.0737 24.1821V22.293H41.1846V24.1821H43.0737Z" fill="#59BE92"/>
<path d="M44.9631 24.1821V22.293H43.074V24.1821H44.9631Z" fill="#59BE92"/>
<path d="M46.8521 24.1821V22.293H44.9629V24.1821H46.8521Z" fill="#59BE92"/>
<path d="M48.7415 24.1821V22.293H46.8523V24.1821H48.7415Z" fill="#59BE92"/>
<path d="M50.6306 24.1821V22.293H48.7414V24.1821H50.6306Z" fill="#59BE92"/>
<path d="M52.5198 24.1821V22.293H50.6306V24.1821H52.5198Z" fill="#59BE92"/>
<path d="M54.4089 24.1821V22.293H52.5198V24.1821H54.4089Z" fill="#32B686"/>
<path d="M56.2981 24.1821V22.293H54.4089V24.1821H56.2981Z" fill="#32B686"/>
<path d="M56.2981 22.293V24.1821H58.1873V22.293H56.2981Z" fill="#59BE92"/>
<path d="M5.29053 26.0713V24.1821H3.40136V26.0713H5.29053Z" fill="#59BE92"/>
<path d="M7.17969 26.0713V24.1821H5.29052V26.0713H7.17969Z" fill="#00AC75"/>
<path d="M9.06885 26.0713V24.1821H7.17968V26.0713H9.06885Z" fill="#59BE92"/>
<path d="M10.958 26.0713V24.1821H9.06884V26.0713H10.958Z" fill="#59BE92"/>
<path d="M12.8472 26.0713V24.1821H10.958V26.0713H12.8472Z" fill="#59BE92"/>
<path d="M14.7363 26.0713V24.1821H12.8472V26.0713H14.7363Z" fill="#59BE92"/>
<path d="M16.6255 26.0713V24.1821H14.7363V26.0713H16.6255Z" fill="#59BE92"/>
<path d="M18.5146 26.0713V24.1821H16.6255V26.0713H18.5146Z" fill="#59BE92"/>
<path d="M20.4038 26.0713V24.1821H18.5146V26.0713H20.4038Z" fill="#59BE92"/>
<path d="M22.293 26.0713V24.1821H20.4038V26.0713H22.293Z" fill="#59BE92"/>
<path d="M24.1821 26.0713V24.1821H22.293V26.0713H24.1821Z" fill="#59BE92"/>
<path d="M26.0713 26.0713V24.1821H24.1821V26.0713H26.0713Z" fill="#59BE92"/>
<path d="M27.9604 26.0713V24.1821H26.0713V26.0713H27.9604Z" fill="#59BE92"/>
<path d="M29.8496 26.0713V24.1821H27.9604V26.0713H29.8496Z" fill="#59BE92"/>
<path d="M31.7388 26.0713V24.1821H29.8496V26.0713H31.7388Z" fill="#59BE92"/>
<path d="M33.6279 26.0713V24.1821H31.7388V26.0713H33.6279Z" fill="#59BE92"/>
<path d="M35.5171 26.0713V24.1821H33.6279V26.0713H35.5171Z" fill="#59BE92"/>
<path d="M37.4062 26.0713V24.1821H35.5171V26.0713H37.4062Z" fill="#59BE92"/>
<path d="M39.2954 26.0713V24.1821H37.4062V26.0713H39.2954Z" fill="#59BE92"/>
<path d="M41.1848 26.0713V24.1821H39.2956V26.0713H41.1848Z" fill="#59BE92"/>
<path d="M43.0737 26.0713V24.1821H41.1846V26.0713H43.0737Z" fill="#59BE92"/>
<path d="M44.9631 26.0713V24.1821H43.074V26.0713H44.9631Z" fill="#59BE92"/>
<path d="M46.8521 26.0713V24.1821H44.9629V26.0713H46.8521Z" fill="#59BE92"/>
<path d="M48.7415 26.0713V24.1821H46.8523V26.0713H48.7415Z" fill="#59BE92"/>
<path d="M50.6306 26.0713V24.1821H48.7414V26.0713H50.6306Z" fill="#59BE92"/>
<path d="M52.5198 26.0713V24.1821H50.6306V26.0713H52.5198Z" fill="#59BE92"/>
<path d="M54.4089 26.0713V24.1821H52.5198V26.0713H54.4089Z" fill="#32B686"/>
<path d="M56.2981 26.0713V24.1821H54.4089V26.0713H56.2981Z" fill="#32B686"/>
<path d="M56.2981 24.1821V26.0713H58.1873V24.1821H56.2981Z" fill="#59BE92"/>
<path d="M7.17969 27.9605V26.0713H5.29052V27.9605H7.17969Z" fill="#59BE92"/>
<path d="M9.06885 27.9605V26.0713H7.17968V27.9605H9.06885Z" fill="#00AC75"/>
<path d="M10.958 27.9605V26.0713H9.06884V27.9605H10.958Z" fill="#59BE92"/>
<path d="M12.8472 27.9605V26.0713H10.958V27.9605H12.8472Z" fill="#59BE92"/>
<path d="M14.7363 27.9605V26.0713H12.8472V27.9605H14.7363Z" fill="#59BE92"/>
<path d="M16.6255 27.9605V26.0713H14.7363V27.9605H16.6255Z" fill="#59BE92"/>
<path d="M18.5146 27.9605V26.0713H16.6255V27.9605H18.5146Z" fill="#59BE92"/>
<path d="M20.4038 27.9605V26.0713H18.5146V27.9605H20.4038Z" fill="#59BE92"/>
<path d="M22.293 27.9605V26.0713H20.4038V27.9605H22.293Z" fill="#59BE92"/>
<path d="M24.1821 27.9605V26.0713H22.293V27.9605H24.1821Z" fill="#59BE92"/>
<path d="M26.0713 27.9605V26.0713H24.1821V27.9605H26.0713Z" fill="#59BE92"/>
<path d="M27.9604 27.9605V26.0713H26.0713V27.9605H27.9604Z" fill="#59BE92"/>
<path d="M29.8496 27.9605V26.0713H27.9604V27.9605H29.8496Z" fill="#59BE92"/>
<path d="M31.7388 27.9605V26.0713H29.8496V27.9605H31.7388Z" fill="#59BE92"/>
<path d="M33.6279 27.9605V26.0713H31.7388V27.9605H33.6279Z" fill="#59BE92"/>
<path d="M35.5171 27.9605V26.0713H33.6279V27.9605H35.5171Z" fill="#59BE92"/>
<path d="M37.4062 27.9605V26.0713H35.5171V27.9605H37.4062Z" fill="#59BE92"/>
<path d="M39.2954 27.9605V26.0713H37.4062V27.9605H39.2954Z" fill="#59BE92"/>
<path d="M41.1846 27.9605V26.0713H39.2954V27.9605H41.1846Z" fill="#59BE92"/>
<path d="M43.0737 27.9605V26.0713H41.1846V27.9605H43.0737Z" fill="#59BE92"/>
<path d="M44.9629 27.9605V26.0713H43.0737V27.9605H44.9629Z" fill="#59BE92"/>
<path d="M46.8521 27.9605V26.0713H44.9629V27.9605H46.8521Z" fill="#59BE92"/>
<path d="M48.7412 27.9605V26.0713H46.852V27.9605H48.7412Z" fill="#59BE92"/>
<path d="M50.6304 27.9605V26.0713H48.7412V27.9605H50.6304Z" fill="#59BE92"/>
<path d="M52.5198 27.9605V26.0713H50.6306V27.9605H52.5198Z" fill="#59BE92"/>
<path d="M54.4087 27.9605V26.0713H52.5195V27.9605H54.4087Z" fill="#32B686"/>
<path d="M54.4089 27.9604H56.2981V26.0713H54.4089V27.9604Z" fill="#59BE92"/>
<path d="M7.17968 29.8496H9.06885V27.9604H7.17968V29.8496Z" fill="#59BE92"/>
<path d="M9.06884 29.8496H10.958V27.9604H9.06884V29.8496Z" fill="#59BE92"/>
<path d="M12.8472 29.8496V27.9604H10.958V29.8496H12.8472Z" fill="#59BE92"/>
<path d="M14.7363 29.8496V27.9604H12.8472V29.8496H14.7363Z" fill="#59BE92"/>
<path d="M16.6255 29.8496V27.9604H14.7363V29.8496H16.6255Z" fill="#59BE92"/>
<path d="M18.5146 29.8496V27.9604H16.6255V29.8496H18.5146Z" fill="#59BE92"/>
<path d="M20.4038 29.8496V27.9604H18.5146V29.8496H20.4038Z" fill="#59BE92"/>
<path d="M22.293 29.8496V27.9604H20.4038V29.8496H22.293Z" fill="#59BE92"/>
<path d="M24.1821 29.8496V27.9604H22.293V29.8496H24.1821Z" fill="#59BE92"/>
<path d="M26.0713 29.8496V27.9604H24.1821V29.8496H26.0713Z" fill="#59BE92"/>
<path d="M27.9604 29.8496V27.9604H26.0713V29.8496H27.9604Z" fill="#59BE92"/>
<path d="M29.8496 29.8496V27.9604H27.9604V29.8496H29.8496Z" fill="#59BE92"/>
<path d="M31.7388 29.8496V27.9604H29.8496V29.8496H31.7388Z" fill="#59BE92"/>
<path d="M33.6279 29.8496V27.9604H31.7388V29.8496H33.6279Z" fill="#59BE92"/>
<path d="M35.5171 29.8496V27.9604H33.6279V29.8496H35.5171Z" fill="#59BE92"/>
<path d="M37.4062 29.8496V27.9604H35.5171V29.8496H37.4062Z" fill="#59BE92"/>
<path d="M39.2954 29.8496V27.9604H37.4062V29.8496H39.2954Z" fill="#59BE92"/>
<path d="M41.1846 29.8496V27.9604H39.2954V29.8496H41.1846Z" fill="#59BE92"/>
<path d="M43.0737 29.8496V27.9604H41.1846V29.8496H43.0737Z" fill="#59BE92"/>
<path d="M44.9631 29.8496V27.9604H43.074V29.8496H44.9631Z" fill="#59BE92"/>
<path d="M46.8521 29.8496V27.9604H44.9629V29.8496H46.8521Z" fill="#59BE92"/>
<path d="M48.7415 29.8496V27.9604H46.8523V29.8496H48.7415Z" fill="#59BE92"/>
<path d="M50.6304 29.8496V27.9604H48.7412V29.8496H50.6304Z" fill="#59BE92"/>
<path d="M50.6306 29.8496H52.5198V27.9604H50.6306V29.8496Z" fill="#59BE92"/>
<path d="M52.5198 29.8496H54.4089V27.9604H52.5198V29.8496Z" fill="#59BE92"/>
<path d="M9.06885 29.8496H7.17969V31.7388H9.06885V29.8496Z" fill="#59BE92"/>
<path d="M10.958 29.8496H9.06885V31.7388H10.958V29.8496Z" fill="#59BE92"/>
<path d="M10.958 29.8496V31.7388H12.8472V29.8496H10.958Z" fill="#32B686"/>
<path d="M12.8472 29.8496V31.7388H14.7363V29.8496H12.8472Z" fill="#32B686"/>
<path d="M14.7363 29.8496V31.7388H16.6255V29.8496H14.7363Z" fill="#59BE92"/>
<path d="M16.6255 29.8496V31.7388H18.5147V29.8496H16.6255Z" fill="#59BE92"/>
<path d="M18.5146 29.8496V31.7388H20.4038V29.8496H18.5146Z" fill="#59BE92"/>
<path d="M20.4038 29.8496V31.7388H22.293V29.8496H20.4038Z" fill="#59BE92"/>
<path d="M22.293 29.8496V31.7388H24.1821V29.8496H22.293Z" fill="#59BE92"/>
<path d="M24.1821 29.8496V31.7388H26.0713V29.8496H24.1821Z" fill="#59BE92"/>
<path d="M26.0713 29.8496V31.7388H27.9605V29.8496H26.0713Z" fill="#59BE92"/>
<path d="M27.9604 29.8496V31.7388H29.8496V29.8496H27.9604Z" fill="#59BE92"/>
<path d="M29.8496 29.8496V31.7388H31.7388V29.8496H29.8496Z" fill="#59BE92"/>
<path d="M31.7388 29.8496V31.7388H33.6279V29.8496H31.7388Z" fill="#59BE92"/>
<path d="M33.6279 29.8496V31.7388H35.5171V29.8496H33.6279Z" fill="#59BE92"/>
<path d="M35.5171 29.8496V31.7388H37.4063V29.8496H35.5171Z" fill="#59BE92"/>
<path d="M37.4062 29.8496V31.7388H39.2954V29.8496H37.4062Z" fill="#59BE92"/>
<path d="M39.2954 29.8496V31.7388H41.1846V29.8496H39.2954Z" fill="#59BE92"/>
<path d="M41.1846 29.8496V31.7388H43.0737V29.8496H41.1846Z" fill="#59BE92"/>
<path d="M43.0737 29.8496V31.7388H44.9629V29.8496H43.0737Z" fill="#59BE92"/>
<path d="M44.9631 29.8496V31.7388H46.8523V29.8496H44.9631Z" fill="#59BE92"/>
<path d="M46.8521 29.8496V31.7388H48.7412V29.8496H46.8521Z" fill="#59BE92"/>
<path d="M48.7415 29.8496V31.7388H50.6306V29.8496H48.7415Z" fill="#59BE92"/>
<path d="M52.5195 29.8496H50.6304V31.7388H52.5195V29.8496Z" fill="#59BE92"/>
<path d="M54.4089 29.8496H52.5198V31.7388H54.4089V29.8496Z" fill="#59BE92"/>
<path d="M12.8472 31.7388H10.958V33.6279H12.8472V31.7388Z" fill="#59BE92"/>
<path d="M14.7363 31.7388H12.8472V33.6279H14.7363V31.7388Z" fill="#59BE92"/>
<path d="M16.6255 31.7388H14.7363V33.6279H16.6255V31.7388Z" fill="#59BE92"/>
<path d="M18.5146 33.6279V31.7388H16.6255V33.6279H18.5146Z" fill="#59BE92"/>
<path d="M20.4038 33.6279V31.7388H18.5146V33.6279H20.4038Z" fill="#59BE92"/>
<path d="M22.293 33.6279V31.7388H20.4038V33.6279H22.293Z" fill="#59BE92"/>
<path d="M24.1821 33.6279V31.7388H22.293V33.6279H24.1821Z" fill="#59BE92"/>
<path d="M26.0713 33.6279V31.7388H24.1821V33.6279H26.0713Z" fill="#59BE92"/>
<path d="M27.9604 33.6279V31.7388H26.0713V33.6279H27.9604Z" fill="#59BE92"/>
<path d="M29.8496 33.6279V31.7388H27.9604V33.6279H29.8496Z" fill="#59BE92"/>
<path d="M31.7388 33.6279V31.7388H29.8496V33.6279H31.7388Z" fill="#59BE92"/>
<path d="M33.6279 33.6279V31.7388H31.7388V33.6279H33.6279Z" fill="#59BE92"/>
<path d="M35.5171 33.6279V31.7388H33.6279V33.6279H35.5171Z" fill="#59BE92"/>
<path d="M37.4062 33.6279V31.7388H35.5171V33.6279H37.4062Z" fill="#59BE92"/>
<path d="M39.2954 33.6279V31.7388H37.4062V33.6279H39.2954Z" fill="#59BE92"/>
<path d="M41.1846 33.6279V31.7388H39.2954V33.6279H41.1846Z" fill="#59BE92"/>
<path d="M43.0737 33.6279V31.7388H41.1846V33.6279H43.0737Z" fill="#59BE92"/>
<path d="M44.9629 31.7388H43.0737V33.6279H44.9629V31.7388Z" fill="#59BE92"/>
<path d="M44.9629 33.6279H46.8521V31.7388H44.9629V33.6279Z" fill="#59BE92"/>
<path d="M46.8523 33.6279H48.7415V31.7388H46.8523V33.6279Z" fill="#59BE92"/>
<path d="M48.7412 33.6279H50.6304V31.7388H48.7412V33.6279Z" fill="#59BE92"/>
<path d="M7.17969 33.6279H5.29053V35.5171H7.17969V33.6279Z" fill="#59BE92"/>
<path d="M9.06885 35.5171V33.6279H7.17968V35.5171H9.06885Z" fill="#00AC75"/>
<path d="M9.06885 33.6279V35.5171H10.958V33.6279H9.06885Z" fill="#32B686"/>
<path d="M10.958 33.6279V35.5171H12.8472V33.6279H10.958Z" fill="#32B686"/>
<path d="M12.8472 33.6279V35.5171H14.7363V33.6279H12.8472Z" fill="#32B686"/>
<path d="M14.7363 33.6279V35.5171H16.6255V33.6279H14.7363Z" fill="#59BE92"/>
<path d="M16.6255 33.6279V35.5171H18.5147V33.6279H16.6255Z" fill="#59BE92"/>
<path d="M18.5146 33.6279V35.5171H20.4038V33.6279H18.5146Z" fill="#59BE92"/>
<path d="M20.4038 33.6279V35.5171H22.293V33.6279H20.4038Z" fill="#59BE92"/>
<path d="M22.293 33.6279V35.5171H24.1821V33.6279H22.293Z" fill="#59BE92"/>
<path d="M24.1821 33.6279V35.5171H26.0713V33.6279H24.1821Z" fill="#59BE92"/>
<path d="M26.0713 33.6279V35.5171H27.9605V33.6279H26.0713Z" fill="#59BE92"/>
<path d="M27.9604 33.6279V35.5171H29.8496V33.6279H27.9604Z" fill="#59BE92"/>
<path d="M29.8496 33.6279V35.5171H31.7388V33.6279H29.8496Z" fill="#59BE92"/>
<path d="M31.7388 33.6279V35.5171H33.6279V33.6279H31.7388Z" fill="#59BE92"/>
<path d="M33.6279 33.6279V35.5171H35.5171V33.6279H33.6279Z" fill="#59BE92"/>
<path d="M35.5171 33.6279V35.5171H37.4063V33.6279H35.5171Z" fill="#59BE92"/>
<path d="M37.4062 33.6279V35.5171H39.2954V33.6279H37.4062Z" fill="#59BE92"/>
<path d="M39.2954 33.6279V35.5171H41.1846V33.6279H39.2954Z" fill="#59BE92"/>
<path d="M41.1846 33.6279V35.5171H43.0737V33.6279H41.1846Z" fill="#59BE92"/>
<path d="M43.0737 33.6279V35.5171H44.9629V33.6279H43.0737Z" fill="#59BE92"/>
<path d="M44.9629 33.6279V35.5171H46.8521V33.6279H44.9629Z" fill="#59BE92"/>
<path d="M46.8521 33.6279V35.5171H48.7412V33.6279H46.8521Z" fill="#59BE92"/>
<path d="M48.7412 33.6279V35.5171H50.6304V33.6279H48.7412Z" fill="#59BE92"/>
<path d="M50.6304 33.6279V35.5171H52.5195V33.6279H50.6304Z" fill="#59BE92"/>
<path d="M52.5198 33.6279V35.5171H54.4089V33.6279H52.5198Z" fill="#32B686"/>
<path d="M54.4087 33.6279V35.5171H56.2979V33.6279H54.4087Z" fill="#59BE92"/>
<path d="M5.29053 37.4063V35.5171H3.40136V37.4063H5.29053Z" fill="#59BE92"/>
<path d="M7.17969 37.4063V35.5171H5.29052V37.4063H7.17969Z" fill="#00AC75"/>
<path d="M9.06885 37.4063V35.5171H7.17968V37.4063H9.06885Z" fill="#00AC75"/>
<path d="M9.06885 35.5171V37.4062H10.958V35.5171H9.06885Z" fill="#32B686"/>
<path d="M10.958 35.5171V37.4062H12.8472V35.5171H10.958Z" fill="#32B686"/>
<path d="M12.8472 35.5171V37.4062H14.7363V35.5171H12.8472Z" fill="#32B686"/>
<path d="M14.7363 35.5171V37.4062H16.6255V35.5171H14.7363Z" fill="#59BE92"/>
<path d="M16.6255 35.5171V37.4062H18.5147V35.5171H16.6255Z" fill="#59BE92"/>
<path d="M18.5146 35.5171V37.4062H20.4038V35.5171H18.5146Z" fill="#59BE92"/>
<path d="M20.4038 35.5171V37.4062H22.293V35.5171H20.4038Z" fill="#59BE92"/>
<path d="M22.293 35.5171V37.4062H24.1821V35.5171H22.293Z" fill="#59BE92"/>
<path d="M24.1821 35.5171V37.4062H26.0713V35.5171H24.1821Z" fill="#59BE92"/>
<path d="M26.0713 35.5171V37.4062H27.9605V35.5171H26.0713Z" fill="#59BE92"/>
<path d="M27.9604 35.5171V37.4062H29.8496V35.5171H27.9604Z" fill="#59BE92"/>
<path d="M29.8496 35.5171V37.4062H31.7388V35.5171H29.8496Z" fill="#59BE92"/>
<path d="M31.7388 35.5171V37.4062H33.6279V35.5171H31.7388Z" fill="#59BE92"/>
<path d="M33.6279 35.5171V37.4062H35.5171V35.5171H33.6279Z" fill="#59BE92"/>
<path d="M35.5171 35.5171V37.4062H37.4063V35.5171H35.5171Z" fill="#59BE92"/>
<path d="M37.4062 35.5171V37.4062H39.2954V35.5171H37.4062Z" fill="#59BE92"/>
<path d="M39.2954 35.5171V37.4062H41.1846V35.5171H39.2954Z" fill="#59BE92"/>
<path d="M41.1848 35.5171V37.4062H43.074V35.5171H41.1848Z" fill="#59BE92"/>
<path d="M43.0737 35.5171V37.4062H44.9629V35.5171H43.0737Z" fill="#59BE92"/>
<path d="M44.9631 35.5171V37.4062H46.8523V35.5171H44.9631Z" fill="#59BE92"/>
<path d="M46.8521 35.5171V37.4062H48.7412V35.5171H46.8521Z" fill="#59BE92"/>
<path d="M48.7415 35.5171V37.4062H50.6306V35.5171H48.7415Z" fill="#32B686"/>
<path d="M50.6306 35.5171V37.4062H52.5198V35.5171H50.6306Z" fill="#59BE92"/>
<path d="M52.5198 35.5171V37.4062H54.4089V35.5171H52.5198Z" fill="#32B686"/>
<path d="M54.4089 35.5171V37.4062H56.2981V35.5171H54.4089Z" fill="#00AC75"/>
<path d="M56.2981 35.5171V37.4062H58.1873V35.5171H56.2981Z" fill="#59BE92"/>
<path d="M5.29053 39.2954V37.4062H3.40136V39.2954H5.29053Z" fill="#59BE92"/>
<path d="M7.17969 39.2954V37.4062H5.29052V39.2954H7.17969Z" fill="#00AC75"/>
<path d="M7.17969 37.4062V39.2954H9.06885V37.4062H7.17969Z" fill="#00AC75"/>
<path d="M9.06885 37.4062V39.2954H10.958V37.4062H9.06885Z" fill="#32B686"/>
<path d="M10.958 37.4062V39.2954H12.8472V37.4062H10.958Z" fill="#32B686"/>
<path d="M12.8472 37.4062V39.2954H14.7363V37.4062H12.8472Z" fill="#32B686"/>
<path d="M14.7363 37.4062V39.2954H16.6255V37.4062H14.7363Z" fill="#59BE92"/>
<path d="M16.6255 37.4062V39.2954H18.5147V37.4062H16.6255Z" fill="#59BE92"/>
<path d="M18.5146 37.4062V39.2954H20.4038V37.4062H18.5146Z" fill="#59BE92"/>
<path d="M20.4038 37.4062V39.2954H22.293V37.4062H20.4038Z" fill="#59BE92"/>
<path d="M22.293 37.4062V39.2954H24.1821V37.4062H22.293Z" fill="#59BE92"/>
<path d="M24.1821 37.4062V39.2954H26.0713V37.4062H24.1821Z" fill="#59BE92"/>
<path d="M26.0713 37.4062V39.2954H27.9605V37.4062H26.0713Z" fill="#59BE92"/>
<path d="M27.9604 37.4062V39.2954H29.8496V37.4062H27.9604Z" fill="#59BE92"/>
<path d="M29.8496 37.4062V39.2954H31.7388V37.4062H29.8496Z" fill="#59BE92"/>
<path d="M31.7388 37.4062V39.2954H33.6279V37.4062H31.7388Z" fill="#59BE92"/>
<path d="M33.6279 37.4062V39.2954H35.5171V37.4062H33.6279Z" fill="#59BE92"/>
<path d="M35.5171 37.4062V39.2954H37.4063V37.4062H35.5171Z" fill="#59BE92"/>
<path d="M37.4062 37.4062V39.2954H39.2954V37.4062H37.4062Z" fill="#59BE92"/>
<path d="M39.2954 37.4062V39.2954H41.1846V37.4062H39.2954Z" fill="#59BE92"/>
<path d="M41.1848 37.4062V39.2954H43.074V37.4062H41.1848Z" fill="#59BE92"/>
<path d="M43.0737 37.4062V39.2954H44.9629V37.4062H43.0737Z" fill="#59BE92"/>
<path d="M44.9631 37.4062V39.2954H46.8523V37.4062H44.9631Z" fill="#59BE92"/>
<path d="M46.8521 37.4062V39.2954H48.7412V37.4062H46.8521Z" fill="#59BE92"/>
<path d="M48.7415 37.4062V39.2954H50.6306V37.4062H48.7415Z" fill="#59BE92"/>
<path d="M50.6306 37.4062V39.2954H52.5198V37.4062H50.6306Z" fill="#59BE92"/>
<path d="M52.5198 37.4062V39.2954H54.4089V37.4062H52.5198Z" fill="#32B686"/>
<path d="M54.4089 37.4062V39.2954H56.2981V37.4062H54.4089Z" fill="#00AC75"/>
<path d="M56.2981 37.4062V39.2954H58.1873V37.4062H56.2981Z" fill="#59BE92"/>
<path d="M3.40137 41.1846V39.2954H1.5122L1.5122 41.1846H3.40137Z" fill="#59BE92"/>
<path d="M5.29053 41.1846V39.2954H3.40136V41.1846H5.29053Z" fill="#00AC75"/>
<path d="M5.29053 39.2954V41.1846H7.17969V39.2954H5.29053Z" fill="#00AC75"/>
<path d="M7.17969 39.2954V41.1846H9.06885V39.2954H7.17969Z" fill="#00AC75"/>
<path d="M9.06885 39.2954V41.1846H10.958V39.2954H9.06885Z" fill="#32B686"/>
<path d="M10.958 39.2954V41.1846H12.8472V39.2954H10.958Z" fill="#32B686"/>
<path d="M12.8472 39.2954V41.1846H14.7363V39.2954H12.8472Z" fill="#32B686"/>
<path d="M14.7363 39.2954V41.1846H16.6255V39.2954H14.7363Z" fill="#59BE92"/>
<path d="M16.6255 39.2954V41.1846H18.5147V39.2954H16.6255Z" fill="#59BE92"/>
<path d="M18.5146 39.2954V41.1846H20.4038V39.2954H18.5146Z" fill="#59BE92"/>
<path d="M20.4038 39.2954V41.1846H22.293V39.2954H20.4038Z" fill="#59BE92"/>
<path d="M22.293 39.2954V41.1846H24.1821V39.2954H22.293Z" fill="#59BE92"/>
<path d="M24.1821 39.2954V41.1846H26.0713V39.2954H24.1821Z" fill="#59BE92"/>
<path d="M26.0713 39.2954V41.1846H27.9605V39.2954H26.0713Z" fill="#59BE92"/>
<path d="M27.9604 39.2954V41.1846H29.8496V39.2954H27.9604Z" fill="#59BE92"/>
<path d="M29.8496 39.2954V41.1846H31.7388V39.2954H29.8496Z" fill="#59BE92"/>
<path d="M31.7388 39.2954V41.1846H33.6279V39.2954H31.7388Z" fill="#59BE92"/>
<path d="M33.6279 39.2954V41.1846H35.5171V39.2954H33.6279Z" fill="#59BE92"/>
<path d="M35.5171 39.2954V41.1846H37.4063V39.2954H35.5171Z" fill="#59BE92"/>
<path d="M37.4062 39.2954V41.1846H39.2954V39.2954H37.4062Z" fill="#59BE92"/>
<path d="M39.2954 39.2954V41.1846H41.1846V39.2954H39.2954Z" fill="#59BE92"/>
<path d="M41.1846 39.2954V41.1846H43.0737V39.2954H41.1846Z" fill="#59BE92"/>
<path d="M43.0737 39.2954V41.1846H44.9629V39.2954H43.0737Z" fill="#59BE92"/>
<path d="M44.9629 39.2954V41.1846H46.8521V39.2954H44.9629Z" fill="#59BE92"/>
<path d="M46.8521 39.2954V41.1846H48.7412V39.2954H46.8521Z" fill="#59BE92"/>
<path d="M48.7415 39.2954V41.1846H50.6306V39.2954H48.7415Z" fill="#59BE92"/>
<path d="M50.6304 39.2954V41.1846H52.5195V39.2954H50.6304Z" fill="#59BE92"/>
<path d="M52.5198 39.2954V41.1846H54.4089V39.2954H52.5198Z" fill="#32B686"/>
<path d="M54.4089 39.2954V41.1846H56.2981V39.2954H54.4089Z" fill="#00AC75"/>
<path d="M56.2981 39.2954V41.1846H58.1873V39.2954H56.2981Z" fill="#00AC75"/>
<path d="M58.1873 39.2954V41.1846H60.0764V39.2954H58.1873Z" fill="#59BE92"/>
<path d="M3.40137 43.074V41.1848H1.5122L1.5122 43.074H3.40137Z" fill="#59BE92"/>
<path d="M5.29053 43.074V41.1848H3.40136V43.074H5.29053Z" fill="#00AC75"/>
<path d="M5.29053 41.1846V43.0737H7.17969V41.1846H5.29053Z" fill="#00AC75"/>
<path d="M7.17969 41.1846V43.0737H9.06885V41.1846H7.17969Z" fill="#00AC75"/>
<path d="M9.06885 41.1846V43.0737H10.958V41.1846H9.06885Z" fill="#32B686"/>
<path d="M10.958 41.1846V43.0737H12.8472V41.1846H10.958Z" fill="#32B686"/>
<path d="M12.8472 41.1846V43.0737H14.7363V41.1846H12.8472Z" fill="#32B686"/>
<path d="M14.7363 41.1846V43.0737H16.6255V41.1846H14.7363Z" fill="#59BE92"/>
<path d="M16.6255 41.1846V43.0737H18.5147V41.1846H16.6255Z" fill="#59BE92"/>
<path d="M18.5146 41.1846V43.0737H20.4038V41.1846H18.5146Z" fill="#59BE92"/>
<path d="M20.4038 41.1846V43.0737H22.293V41.1846H20.4038Z" fill="#59BE92"/>
<path d="M22.293 41.1846V43.0737H24.1821V41.1846H22.293Z" fill="#59BE92"/>
<path d="M24.1821 41.1846V43.0737H26.0713V41.1846H24.1821Z" fill="#59BE92"/>
<path d="M26.0713 41.1846V43.0737H27.9605V41.1846H26.0713Z" fill="#59BE92"/>
<path d="M27.9604 41.1846V43.0737H29.8496V41.1846H27.9604Z" fill="#59BE92"/>
<path d="M29.8496 41.1846V43.0737H31.7388V41.1846H29.8496Z" fill="#59BE92"/>
<path d="M31.7388 41.1846V43.0737H33.6279V41.1846H31.7388Z" fill="#59BE92"/>
<path d="M33.6279 41.1846V43.0737H35.5171V41.1846H33.6279Z" fill="#59BE92"/>
<path d="M35.5171 41.1846V43.0737H37.4063V41.1846H35.5171Z" fill="#59BE92"/>
<path d="M37.4062 41.1846V43.0737H39.2954V41.1846H37.4062Z" fill="#59BE92"/>
<path d="M39.2954 41.1846V43.0737H41.1846V41.1846H39.2954Z" fill="#59BE92"/>
<path d="M41.1846 41.1846V43.0737H43.0737V41.1846H41.1846Z" fill="#59BE92"/>
<path d="M43.0737 41.1846V43.0737H44.9629V41.1846H43.0737Z" fill="#59BE92"/>
<path d="M44.9629 41.1846V43.0737H46.8521V41.1846H44.9629Z" fill="#59BE92"/>
<path d="M46.8521 41.1846V43.0737H48.7412V41.1846H46.8521Z" fill="#59BE92"/>
<path d="M48.7415 41.1846V43.0737H50.6306V41.1846H48.7415Z" fill="#59BE92"/>
<path d="M50.6304 41.1846V43.0737H52.5195V41.1846H50.6304Z" fill="#59BE92"/>
<path d="M52.5198 41.1846V43.0737H54.4089V41.1846H52.5198Z" fill="#32B686"/>
<path d="M54.4089 41.1846V43.0737H56.2981V41.1846H54.4089Z" fill="#00AC75"/>
<path d="M56.2981 41.1846V43.0737H58.1873V41.1846H56.2981Z" fill="#00AC75"/>
<path d="M58.1873 41.1846V43.0737H60.0764V41.1846H58.1873Z" fill="#59BE92"/>
<path d="M3.40137 44.9629V43.0737H1.5122L1.5122 44.9629H3.40137Z" fill="#59BE92"/>
<path d="M5.29053 44.9629V43.0737H3.40137V44.9629H5.29053Z" fill="#00AC75"/>
<path d="M5.29053 43.0737V44.9629H7.17969V43.0737H5.29053Z" fill="#00AC75"/>
<path d="M7.17969 43.0737V44.9629H9.06885V43.0737H7.17969Z" fill="#00AC75"/>
<path d="M9.06885 43.0737V44.9629H10.958V43.0737H9.06885Z" fill="#32B686"/>
<path d="M10.958 43.0737V44.9629H12.8472V43.0737H10.958Z" fill="#32B686"/>
<path d="M12.8472 43.0737V44.9629H14.7363V43.0737H12.8472Z" fill="#32B686"/>
<path d="M14.7363 43.0737V44.9629H16.6255V43.0737H14.7363Z" fill="#59BE92"/>
<path d="M16.6255 43.0737V44.9629H18.5147V43.0737H16.6255Z" fill="#59BE92"/>
<path d="M18.5146 43.0737V44.9629H20.4038V43.0737H18.5146Z" fill="#59BE92"/>
<path d="M20.4038 43.0737V44.9629H22.293V43.0737H20.4038Z" fill="#59BE92"/>
<path d="M22.293 43.0737V44.9629H24.1821V43.0737H22.293Z" fill="#59BE92"/>
<path d="M24.1821 43.0737V44.9629H26.0713V43.0737H24.1821Z" fill="#59BE92"/>
<path d="M26.0713 43.0737V44.9629H27.9605V43.0737H26.0713Z" fill="#59BE92"/>
<path d="M27.9604 43.0737V44.9629H29.8496V43.0737H27.9604Z" fill="#59BE92"/>
<path d="M29.8496 43.0737V44.9629H31.7388V43.0737H29.8496Z" fill="#59BE92"/>
<path d="M31.7388 43.0737V44.9629H33.6279V43.0737H31.7388Z" fill="#59BE92"/>
<path d="M33.6279 43.0737V44.9629H35.5171V43.0737H33.6279Z" fill="#59BE92"/>
<path d="M35.5171 43.0737V44.9629H37.4063V43.0737H35.5171Z" fill="#59BE92"/>
<path d="M37.4062 43.0737V44.9629H39.2954V43.0737H37.4062Z" fill="#59BE92"/>
<path d="M39.2954 43.0737V44.9629H41.1846V43.0737H39.2954Z" fill="#59BE92"/>
<path d="M41.1846 43.0737V44.9629H43.0737V43.0737H41.1846Z" fill="#59BE92"/>
<path d="M43.0737 43.0737V44.9629H44.9629V43.0737H43.0737Z" fill="#59BE92"/>
<path d="M44.9629 43.0737V44.9629H46.8521V43.0737H44.9629Z" fill="#59BE92"/>
<path d="M46.8521 43.0737V44.9629H48.7412V43.0737H46.8521Z" fill="#59BE92"/>
<path d="M48.7412 43.0737V44.9629H50.6304V43.0737H48.7412Z" fill="#59BE92"/>
<path d="M50.6304 43.0737V44.9629H52.5195V43.0737H50.6304Z" fill="#59BE92"/>
<path d="M52.5195 43.0737V44.9629H54.4087V43.0737H52.5195Z" fill="#32B686"/>
<path d="M54.4087 43.0737V44.9629H56.2979V43.0737H54.4087Z" fill="#00AC75"/>
<path d="M56.2979 43.0737V44.9629H58.187V43.0737H56.2979Z" fill="#00AC75"/>
<path d="M58.187 43.0737V44.9629H60.0762V43.0737H58.187Z" fill="#59BE92"/>
<path d="M3.40137 46.8521V44.9629H1.5122L1.5122 46.8521H3.40137Z" fill="#59BE92"/>
<path d="M5.29053 46.8521V44.9629H3.40136V46.8521H5.29053Z" fill="#00AC75"/>
<path d="M5.29053 44.9629V46.8521H7.17969V44.9629H5.29053Z" fill="#00AC75"/>
<path d="M7.17969 44.9629V46.8521H9.06885V44.9629H7.17969Z" fill="#00AC75"/>
<path d="M9.06885 44.9629V46.8521H10.958V44.9629H9.06885Z" fill="#32B686"/>
<path d="M10.958 44.9629V46.8521H12.8472V44.9629H10.958Z" fill="#32B686"/>
<path d="M12.8472 44.9629V46.8521H14.7363V44.9629H12.8472Z" fill="#32B686"/>
<path d="M14.7363 44.9629V46.8521H16.6255V44.9629H14.7363Z" fill="#32B686"/>
<path d="M16.6255 44.9629V46.8521H18.5147V44.9629H16.6255Z" fill="#59BE92"/>
<path d="M18.5146 44.9629V46.8521H20.4038V44.9629H18.5146Z" fill="#32B686"/>
<path d="M20.4038 44.9629V46.8521H22.293V44.9629H20.4038Z" fill="#59BE92"/>
<path d="M22.293 44.9629V46.8521H24.1821V44.9629H22.293Z" fill="#59BE92"/>
<path d="M24.1821 44.9629V46.8521H26.0713V44.9629H24.1821Z" fill="#32B686"/>
<path d="M26.0713 44.9629V46.8521H27.9605V44.9629H26.0713Z" fill="#00AC75"/>
<path d="M27.9604 44.9629V46.8521H29.8496V44.9629H27.9604Z" fill="#00AC75"/>
<path d="M31.7388 46.8521V44.9629H29.8496V46.8521H31.7388Z" fill="#59BE92"/>
<path d="M31.7388 44.9629V46.8521H33.6279V44.9629H31.7388Z" fill="#00AC75"/>
<path d="M33.6279 44.9629V46.8521H35.5171V44.9629H33.6279Z" fill="#00AC75"/>
<path d="M35.5171 44.9629V46.8521H37.4063V44.9629H35.5171Z" fill="#32B686"/>
<path d="M37.4062 44.9629V46.8521H39.2954V44.9629H37.4062Z" fill="#32B686"/>
<path d="M39.2954 44.9629V46.8521H41.1846V44.9629H39.2954Z" fill="#59BE92"/>
<path d="M41.1846 44.9629V46.8521H43.0737V44.9629H41.1846Z" fill="#59BE92"/>
<path d="M43.0737 44.9629V46.8521H44.9629V44.9629H43.0737Z" fill="#59BE92"/>
<path d="M44.9629 44.9629V46.8521H46.8521V44.9629H44.9629Z" fill="#59BE92"/>
<path d="M46.8521 44.9629V46.8521H48.7412V44.9629H46.8521Z" fill="#59BE92"/>
<path d="M48.7415 44.9629V46.8521H50.6306V44.9629H48.7415Z" fill="#59BE92"/>
<path d="M50.6304 44.9629V46.8521H52.5195V44.9629H50.6304Z" fill="#32B686"/>
<path d="M52.5198 44.9629V46.8521H54.4089V44.9629H52.5198Z" fill="#59BE92"/>
<path d="M54.4089 44.9629V46.8521H56.2981V44.9629H54.4089Z" fill="#00AC75"/>
<path d="M56.2981 44.9629V46.8521H58.1873V44.9629H56.2981Z" fill="#00AC75"/>
<path d="M58.1873 44.9629V46.8521H60.0764V44.9629H58.1873Z" fill="#59BE92"/>
<path d="M3.40137 48.7415V46.8523H1.5122L1.5122 48.7415H3.40137Z" fill="#59BE92"/>
<path d="M5.29053 48.7415V46.8523H3.40136V48.7415H5.29053Z" fill="#00AC75"/>
<path d="M5.29053 46.8523V48.7415H7.17969V46.8523H5.29053Z" fill="#00AC75"/>
<path d="M7.17969 46.8523V48.7415H9.06885V46.8523H7.17969Z" fill="#00AC75"/>
<path d="M9.06885 46.8523V48.7415H10.958V46.8523H9.06885Z" fill="#32B686"/>
<path d="M10.958 46.8523V48.7415H12.8472V46.8523H10.958Z" fill="#32B686"/>
<path d="M12.8472 46.8523V48.7415H14.7363V46.8523H12.8472Z" fill="#32B686"/>
<path d="M14.7363 46.8523V48.7415H16.6255V46.8523H14.7363Z" fill="#32B686"/>
<path d="M16.6255 46.8523V48.7415H18.5147V46.8523H16.6255Z" fill="#59BE92"/>
<path d="M18.5146 46.8523V48.7415H20.4038V46.8523H18.5146Z" fill="#59BE92"/>
<path d="M20.4038 46.8523V48.7415H22.293V46.8523H20.4038Z" fill="#32B686"/>
<path d="M22.293 46.8523V48.7415H24.1821V46.8523H22.293Z" fill="#59BE92"/>
<path d="M24.1821 46.8523V48.7415H26.0713V46.8523H24.1821Z" fill="#32B686"/>
<path d="M26.0713 46.8523V48.7415H27.9605V46.8523H26.0713Z" fill="#00AC75"/>
<path d="M27.9604 46.8523V48.7415H29.8496V46.8523H27.9604Z" fill="#00AC75"/>
<path d="M31.7388 48.7415V46.8523H29.8496V48.7415H31.7388Z" fill="#59BE92"/>
<path d="M31.7388 46.8523V48.7415H33.6279V46.8523H31.7388Z" fill="#00AC75"/>
<path d="M33.6279 46.8523V48.7415H35.5171V46.8523H33.6279Z" fill="#00AC75"/>
<path d="M35.5171 46.8523V48.7415H37.4063V46.8523H35.5171Z" fill="#32B686"/>
<path d="M37.4062 46.8523V48.7415H39.2954V46.8523H37.4062Z" fill="#32B686"/>
<path d="M39.2954 46.8523V48.7415H41.1846V46.8523H39.2954Z" fill="#32B686"/>
<path d="M41.1846 46.8523V48.7415H43.0737V46.8523H41.1846Z" fill="#32B686"/>
<path d="M43.0737 46.8523V48.7415H44.9629V46.8523H43.0737Z" fill="#32B686"/>
<path d="M44.9629 46.8523V48.7415H46.8521V46.8523H44.9629Z" fill="#32B686"/>
<path d="M46.8521 46.8523V48.7415H48.7412V46.8523H46.8521Z" fill="#59BE92"/>
<path d="M48.7415 46.8523V48.7415H50.6306V46.8523H48.7415Z" fill="#32B686"/>
<path d="M50.6304 46.8523V48.7415H52.5195V46.8523H50.6304Z" fill="#59BE92"/>
<path d="M52.5198 46.8523V48.7415H54.4089V46.8523H52.5198Z" fill="#32B686"/>
<path d="M54.4089 46.8523V48.7415H56.2981V46.8523H54.4089Z" fill="#00AC75"/>
<path d="M56.2981 46.8523V48.7415H58.1873V46.8523H56.2981Z" fill="#00AC75"/>
<path d="M58.1873 46.8523V48.7415H60.0764V46.8523H58.1873Z" fill="#59BE92"/>
<path d="M3.40137 50.6306V48.7415H1.5122L1.5122 50.6306H3.40137Z" fill="#59BE92"/>
<path d="M5.29053 50.6306V48.7415H3.40136V50.6306H5.29053Z" fill="#00AC75"/>
<path d="M5.29053 48.7412V50.6304H7.17969V48.7412H5.29053Z" fill="#00AC75"/>
<path d="M7.17969 48.7412V50.6304H9.06885V48.7412H7.17969Z" fill="#00AC75"/>
<path d="M9.06885 48.7412V50.6304H10.958V48.7412H9.06885Z" fill="#32B686"/>
<path d="M10.958 48.7412V50.6304H12.8472V48.7412H10.958Z" fill="#32B686"/>
<path d="M12.8472 48.7412V50.6304H14.7363V48.7412H12.8472Z" fill="#32B686"/>
<path d="M14.7363 48.7412V50.6304H16.6255V48.7412H14.7363Z" fill="#32B686"/>
<path d="M16.6255 48.7412V50.6304H18.5147V48.7412H16.6255Z" fill="#32B686"/>
<path d="M18.5146 48.7412V50.6304H20.4038V48.7412H18.5146Z" fill="#32B686"/>
<path d="M20.4038 48.7412V50.6304H22.293V48.7412H20.4038Z" fill="#32B686"/>
<path d="M22.293 48.7412V50.6304H24.1821V48.7412H22.293Z" fill="#32B686"/>
<path d="M24.1821 48.7412V50.6304H26.0713V48.7412H24.1821Z" fill="#32B686"/>
<path d="M26.0713 48.7412V50.6304H27.9605V48.7412H26.0713Z" fill="#00AC75"/>
<path d="M27.9604 48.7412V50.6304H29.8496V48.7412H27.9604Z" fill="#00AC75"/>
<path d="M31.7388 50.6306V48.7415H29.8496V50.6306H31.7388Z" fill="#59BE92"/>
<path d="M31.7388 48.7412V50.6304H33.6279V48.7412H31.7388Z" fill="#00AC75"/>
<path d="M33.6279 48.7412V50.6304H35.5171V48.7412H33.6279Z" fill="#00AC75"/>
<path d="M35.5171 48.7412V50.6304H37.4063V48.7412H35.5171Z" fill="#32B686"/>
<path d="M37.4062 48.7412V50.6304H39.2954V48.7412H37.4062Z" fill="#32B686"/>
<path d="M39.2954 48.7412V50.6304H41.1846V48.7412H39.2954Z" fill="#32B686"/>
<path d="M41.1846 48.7412V50.6304H43.0737V48.7412H41.1846Z" fill="#32B686"/>
<path d="M43.0737 48.7412V50.6304H44.9629V48.7412H43.0737Z" fill="#32B686"/>
<path d="M44.9629 48.7412V50.6304H46.8521V48.7412H44.9629Z" fill="#59BE92"/>
<path d="M46.8521 48.7412V50.6304H48.7412V48.7412H46.8521Z" fill="#32B686"/>
<path d="M48.7415 48.7412V50.6304H50.6306V48.7412H48.7415Z" fill="#59BE92"/>
<path d="M50.6304 48.7412V50.6304H52.5195V48.7412H50.6304Z" fill="#32B686"/>
<path d="M52.5198 48.7412V50.6304H54.4089V48.7412H52.5198Z" fill="#32B686"/>
<path d="M54.4089 48.7412V50.6304H56.2981V48.7412H54.4089Z" fill="#00AC75"/>
<path d="M56.2981 48.7412V50.6304H58.1873V48.7412H56.2981Z" fill="#00AC75"/>
<path d="M58.1873 48.7412V50.6304H60.0764V48.7412H58.1873Z" fill="#59BE92"/>
<path d="M5.29004 52.5195V50.6304H3.40087V52.5195H5.29004Z" fill="#59BE92"/>
<path d="M7.1792 52.5195V50.6304H5.29003V52.5195H7.1792Z" fill="#00AC75"/>
<path d="M7.1792 50.6304V52.5195H9.06836V50.6304H7.1792Z" fill="#00AC75"/>
<path d="M9.06836 50.6304V52.5195H10.9575V50.6304H9.06836Z" fill="#00AC75"/>
<path d="M10.9575 50.6304V52.5195H12.8467V50.6304H10.9575Z" fill="#00AC75"/>
<path d="M12.8469 50.6304V52.5195H14.7361V50.6304H12.8469Z" fill="#00AC75"/>
<path d="M14.7358 50.6304V52.5195H16.625V50.6304H14.7358Z" fill="#00AC75"/>
<path d="M16.625 50.6304V52.5195H18.5142V50.6304H16.625Z" fill="#00AC75"/>
<path d="M18.5142 50.6304V52.5195H20.4033V50.6304H18.5142Z" fill="#00AC75"/>
<path d="M20.4033 50.6304V52.5195H22.2925V50.6304H20.4033Z" fill="#00AC75"/>
<path d="M22.2925 50.6304V52.5195H24.1816V50.6304H22.2925Z" fill="#00AC75"/>
<path d="M24.1819 50.6304V52.5195H26.0711V50.6304H24.1819Z" fill="#00AC75"/>
<path d="M26.0708 50.6304V52.5195H27.96V50.6304H26.0708Z" fill="#00AC75"/>
<path d="M29.8491 52.5195V50.6304H27.96V52.5195H29.8491Z" fill="#59BE92"/>
<path d="M5.29004 54.4087V52.5195H3.40087V54.4087H5.29004Z" fill="#59BE92"/>
<path d="M7.1792 54.4087V52.5195H5.29003V54.4087H7.1792Z" fill="#00AC75"/>
<path d="M7.1792 52.5195V54.4087H9.06836V52.5195H7.1792Z" fill="#00AC75"/>
<path d="M9.06836 52.5195V54.4087H10.9575V52.5195H9.06836Z" fill="#00AC75"/>
<path d="M10.9575 52.5195V54.4087H12.8467V52.5195H10.9575Z" fill="#00AC75"/>
<path d="M12.8467 52.5195V54.4087H14.7358V52.5195H12.8467Z" fill="#00AC75"/>
<path d="M14.7358 52.5195V54.4087H16.625V52.5195H14.7358Z" fill="#00AC75"/>
<path d="M16.625 52.5195V54.4087H18.5142V52.5195H16.625Z" fill="#00AC75"/>
<path d="M18.5142 52.5195V54.4087H20.4033V52.5195H18.5142Z" fill="#00AC75"/>
<path d="M20.4033 52.5195V54.4087H22.2925V52.5195H20.4033Z" fill="#00AC75"/>
<path d="M22.2925 52.5195V54.4087H24.1816V52.5195H22.2925Z" fill="#00AC75"/>
<path d="M24.1816 52.5195V54.4087H26.0708V52.5195H24.1816Z" fill="#00AC75"/>
<path d="M26.0708 52.5195V54.4087H27.96V52.5195H26.0708Z" fill="#00AC75"/>
<path d="M29.8491 54.4087V52.5195H27.96V54.4087H29.8491Z" fill="#59BE92"/>
<path d="M7.1792 54.4089H5.29004V56.2981H7.1792V54.4089Z" fill="#59BE92"/>
<path d="M9.06836 54.4089H7.1792V56.2981H9.06836V54.4089Z" fill="#00AC75"/>
<path d="M10.9575 54.4089H9.06836V56.2981H10.9575V54.4089Z" fill="#0DAE89"/>
<path d="M10.9575 54.4089V56.2981H12.8467V54.4089H10.9575Z" fill="#00AC75"/>
<path d="M12.8467 54.4089V56.2981H14.7358V54.4089H12.8467Z" fill="#00AC75"/>
<path d="M14.7358 54.4089V56.2981H16.625V54.4089H14.7358Z" fill="#00AC75"/>
<path d="M16.625 54.4089V56.2981H18.5142V54.4089H16.625Z" fill="#00AC75"/>
<path d="M18.5142 54.4089V56.2981H20.4033V54.4089H18.5142Z" fill="#00AC75"/>
<path d="M20.4033 54.4089V56.2981H22.2925V54.4089H20.4033Z" fill="#00AC75"/>
<path d="M22.2925 54.4089V56.2981H24.1816V54.4089H22.2925Z" fill="#00AC75"/>
<path d="M24.1816 54.4089V56.2981H26.0708V54.4089H24.1816Z" fill="#00AC75"/>
<path d="M27.96 54.4089H26.0708V56.2981H27.96V54.4089Z" fill="#59BE92"/>
<path d="M9.06836 56.2981H7.1792V58.1873H9.06836V56.2981Z" fill="#59BE92"/>
<path d="M10.9575 56.2981H9.06836V58.1873H10.9575V56.2981Z" fill="#59BE92"/>
<path d="M10.9575 56.2978V58.187H12.8467V56.2978H10.9575Z" fill="#00AC75"/>
<path d="M12.8467 56.2978V58.187H14.7358V56.2978H12.8467Z" fill="#00AC75"/>
<path d="M14.7358 56.2978V58.187H16.625V56.2978H14.7358Z" fill="#00AC75"/>
<path d="M16.625 56.2978V58.187H18.5142V56.2978H16.625Z" fill="#00AC75"/>
<path d="M18.5142 56.2978V58.187H20.4033V56.2978H18.5142Z" fill="#00AC75"/>
<path d="M20.4033 56.2978V58.187H22.2925V56.2978H20.4033Z" fill="#00AC75"/>
<path d="M24.1816 56.2981H22.2925V58.1873H24.1816V56.2981Z" fill="#59BE92"/>
<path d="M26.0708 56.2981H24.1816V58.1873H26.0708V56.2981Z" fill="#59BE92"/>
<path d="M12.8467 58.187H10.9575V60.0762H12.8467V58.187Z" fill="#59BE92"/>
<path d="M14.7358 58.187H12.8467V60.0762H14.7358V58.187Z" fill="#59BE92"/>
<path d="M16.625 58.187H14.7358V60.0762H16.625V58.187Z" fill="#59BE92"/>
<path d="M18.5142 58.187H16.625V60.0762H18.5142V58.187Z" fill="#59BE92"/>
<path d="M20.4033 58.187H18.5142V60.0762H20.4033V58.187Z" fill="#59BE92"/>
<path d="M22.2925 58.187H20.4033V60.0762H22.2925V58.187Z" fill="#59BE92"/>
<path d="M31.7397 50.6304V52.5195H33.6289V50.6304H31.7397Z" fill="#59BE92"/>
<path d="M33.6289 50.6304V52.5195H35.5181V50.6304H33.6289Z" fill="#00AC75"/>
<path d="M35.5181 50.6304V52.5195H37.4072V50.6304H35.5181Z" fill="#00AC75"/>
<path d="M37.4072 50.6304V52.5195H39.2964V50.6304H37.4072Z" fill="#00AC75"/>
<path d="M39.2964 50.6304V52.5195H41.1856V50.6304H39.2964Z" fill="#00AC75"/>
<path d="M41.1855 50.6304V52.5195H43.0747V50.6304H41.1855Z" fill="#00AC75"/>
<path d="M43.0747 50.6304V52.5195H44.9639V50.6304H43.0747Z" fill="#00AC75"/>
<path d="M44.9639 50.6304V52.5195H46.853V50.6304H44.9639Z" fill="#00AC75"/>
<path d="M46.853 50.6304V52.5195H48.7422V50.6304H46.853Z" fill="#00AC75"/>
<path d="M48.7422 50.6304V52.5195H50.6314V50.6304H48.7422Z" fill="#00AC75"/>
<path d="M50.6313 50.6304V52.5195H52.5205V50.6304H50.6313Z" fill="#00AC75"/>
<path d="M52.5205 50.6304V52.5195H54.4097V50.6304H52.5205Z" fill="#00AC75"/>
<path d="M54.4097 50.6304V52.5195H56.2988V50.6304H54.4097Z" fill="#00AC75"/>
<path d="M56.2988 50.6304V52.5195H58.188V50.6304H56.2988Z" fill="#59BE92"/>
<path d="M31.7395 52.5195V54.4087H33.6287V52.5195H31.7395Z" fill="#59BE92"/>
<path d="M33.6287 52.5195V54.4087H35.5178V52.5195H33.6287Z" fill="#00AC75"/>
<path d="M35.5178 52.5195V54.4087H37.407V52.5195H35.5178Z" fill="#00AC75"/>
<path d="M37.407 52.5195V54.4087H39.2961V52.5195H37.407Z" fill="#00AC75"/>
<path d="M39.2961 52.5195V54.4087H41.1853V52.5195H39.2961Z" fill="#00AC75"/>
<path d="M41.1853 52.5195V54.4087H43.0745V52.5195H41.1853Z" fill="#00AC75"/>
<path d="M43.0745 52.5195V54.4087H44.9636V52.5195H43.0745Z" fill="#00AC75"/>
<path d="M44.9636 52.5195V54.4087H46.8528V52.5195H44.9636Z" fill="#00AC75"/>
<path d="M46.8528 52.5195V54.4087H48.7419V52.5195H46.8528Z" fill="#00AC75"/>
<path d="M48.7419 52.5195V54.4087H50.6311V52.5195H48.7419Z" fill="#00AC75"/>
<path d="M50.6311 52.5195V54.4087H52.5203V52.5195H50.6311Z" fill="#00AC75"/>
<path d="M52.5203 52.5195V54.4087H54.4094V52.5195H52.5203Z" fill="#00AC75"/>
<path d="M54.4094 52.5195V54.4087H56.2986V52.5195H54.4094Z" fill="#00AC75"/>
<path d="M56.2986 52.5195V54.4087H58.1877V52.5195H56.2986Z" fill="#59BE92"/>
<path d="M33.6287 54.4089V56.2981H35.5178V54.4089H33.6287Z" fill="#59BE92"/>
<path d="M35.5178 54.4089V56.2981H37.407V54.4089H35.5178Z" fill="#00AC75"/>
<path d="M37.407 54.4089V56.2981H39.2961V54.4089H37.407Z" fill="#00AC75"/>
<path d="M39.2961 54.4089V56.2981H41.1853V54.4089H39.2961Z" fill="#00AC75"/>
<path d="M41.1853 54.4089V56.2981H43.0745V54.4089H41.1853Z" fill="#00AC75"/>
<path d="M43.0745 54.4089V56.2981H44.9636V54.4089H43.0745Z" fill="#00AC75"/>
<path d="M44.9636 54.4089V56.2981H46.8528V54.4089H44.9636Z" fill="#00AC75"/>
<path d="M46.8528 54.4089V56.2981H48.7419V54.4089H46.8528Z" fill="#00AC75"/>
<path d="M48.7419 54.4089V56.2981H50.6311V54.4089H48.7419Z" fill="#00AC75"/>
<path d="M50.6311 54.4089V56.2981H52.5203V54.4089H50.6311Z" fill="#00AC75"/>
<path d="M52.5203 54.4089V56.2981H54.4094V54.4089H52.5203Z" fill="#00AC75"/>
<path d="M54.4094 54.4089V56.2981H56.2986V54.4089H54.4094Z" fill="#59BE92"/>
<path d="M37.407 56.2981H35.5178V58.1873H37.407V56.2981Z" fill="#59BE92"/>
<path d="M39.2961 56.2981H37.407V58.1873H39.2961V56.2981Z" fill="#59BE92"/>
<path d="M39.2961 56.2978V58.187H41.1853V56.2978H39.2961Z" fill="#00AC75"/>
<path d="M41.1853 56.2978V58.187H43.0745V56.2978H41.1853Z" fill="#00AC75"/>
<path d="M43.0745 56.2978V58.187H44.9636V56.2978H43.0745Z" fill="#00AC75"/>
<path d="M44.9636 56.2978V58.187H46.8528V56.2978H44.9636Z" fill="#00AC75"/>
<path d="M46.8528 56.2978V58.187H48.7419V56.2978H46.8528Z" fill="#00AC75"/>
<path d="M48.7419 56.2978V58.187H50.6311V56.2978H48.7419Z" fill="#00AC75"/>
<path d="M52.5203 56.2981H50.6311V58.1873H52.5203V56.2981Z" fill="#59BE92"/>
<path d="M54.4094 56.2981H52.5203V58.1873H54.4094V56.2981Z" fill="#59BE92"/>
<path d="M41.1853 58.187H39.2961V60.0762H41.1853V58.187Z" fill="#59BE92"/>
<path d="M43.0745 58.187H41.1853V60.0762H43.0745V58.187Z" fill="#59BE92"/>
<path d="M44.9636 58.187H43.0745V60.0762H44.9636V58.187Z" fill="#59BE92"/>
<path d="M46.8528 58.187H44.9636V60.0762H46.8528V58.187Z" fill="#59BE92"/>
<path d="M48.7419 58.187H46.8528V60.0762H48.7419V58.187Z" fill="#59BE92"/>
<path d="M50.6311 58.187H48.7419V60.0762H50.6311V58.187Z" fill="#59BE92"/>
</svg>
