<svg width="24" height="24" viewBox="0 0 24 24" fill="none" xmlns="http://www.w3.org/2000/svg">
<rect x="9" y="7.00006" width="1" height="1" fill="#F9C93E"/>
<rect x="10" y="7.00006" width="1" height="1" fill="#F9C93E"/>
<rect x="11" y="7.00006" width="1" height="1" fill="#F9C93E"/>
<rect x="12" y="7.00006" width="1" height="1" fill="#F9C93E"/>
<rect x="13" y="7.00006" width="1" height="1" fill="#F9C93E"/>
<rect x="14" y="7.00006" width="1" height="1" fill="#F9C93E"/>
<rect x="9" y="8.00006" width="1" height="1" fill="#F9C93E"/>
<rect x="10" y="8.00006" width="1" height="1" fill="#F9C93E"/>
<rect x="11" y="8.00006" width="1" height="1" fill="#F9C93E"/>
<rect x="12" y="8.00006" width="1" height="1" fill="#F9C93E"/>
<rect x="13" y="8.00006" width="1" height="1" fill="#F9C93E"/>
<rect x="14" y="8.00006" width="1" height="1" fill="#F9C93E"/>
<rect x="9" y="9" width="1" height="1" fill="#F9C93E"/>
<rect x="9" y="10.0001" width="1" height="1" fill="#F9C93E"/>
<rect x="9" y="11.0001" width="1" height="1" fill="#F9C93E"/>
<rect x="9" y="12.0001" width="1" height="1" fill="#F9C93E"/>
<rect x="9" y="13.0001" width="1" height="1" fill="#F9C93E"/>
<rect x="9" y="14.0001" width="1" height="1" fill="#F9C93E"/>
<rect x="9" y="15.0001" width="1" height="1" fill="#F9C93E"/>
<rect x="9" y="16.0001" width="1" height="1" fill="#F9C93E"/>
<rect x="8" y="17.0001" width="1" height="1" fill="#F9C93E"/>
<rect x="8" y="18.0001" width="1" height="1" fill="#F9C93E"/>
<rect x="18" y="18.0001" width="1" height="1" fill="#F9C93E"/>
<rect x="18" y="17.0001" width="1" height="1" fill="#F9C93E"/>
<rect x="17" y="16.0001" width="1" height="1" fill="#F9C93E"/>
<rect x="15" y="9" width="1" height="1" fill="#F9C93E"/>
<rect x="10" y="9" width="1" height="1" fill="#F9C93E"/>
<rect x="4" y="9" width="1" height="1" fill="#F9C93E"/>
<rect x="16" y="9" width="1" height="1" fill="#F9C93E"/>
<rect x="11" y="9" width="1" height="1" fill="#F9C93E"/>
<rect x="5" y="9" width="1" height="1" fill="#F9C93E"/>
<rect x="17" y="9" width="1" height="1" fill="#F9C93E"/>
<rect x="12" y="9" width="1" height="1" fill="#F9C93E"/>
<rect x="6" y="9" width="1" height="1" fill="#F9C93E"/>
<rect x="18" y="9" width="1" height="1" fill="#F9C93E"/>
<rect x="13" y="9" width="1" height="1" fill="#F9C93E"/>
<rect x="7" y="9" width="1" height="1" fill="#F9C93E"/>
<rect x="19" y="9" width="1" height="1" fill="#F9C93E"/>
<rect x="14" y="9" width="1" height="1" fill="#F9C93E"/>
<rect x="8" y="9" width="1" height="1" fill="#F9C93E"/>
<rect x="3" y="9" width="1" height="1" fill="#F9C93E"/>
<rect x="15" y="11.0001" width="1" height="1" fill="#F9C93E"/>
<rect x="15" y="10.0001" width="1" height="1" fill="#F9C93E"/>
<rect x="10" y="11.0001" width="1" height="1" fill="#F9C93E"/>
<rect x="15" y="13.0001" width="1" height="1" fill="#F9C93E"/>
<rect x="15" y="12.0001" width="1" height="1" fill="#F9C93E"/>
<rect x="15" y="14.0001" width="1" height="1" fill="#F9C93E"/>
<rect x="15" y="15.0001" width="1" height="1" fill="#F9C93E"/>
<rect x="4" y="11.0001" width="1" height="1" fill="#F9C93E"/>
<rect x="10" y="10.0001" width="1" height="1" fill="#F9C93E"/>
<rect x="10" y="13.0001" width="1" height="1" fill="#F9C93E"/>
<rect x="16" y="11.0001" width="1" height="1" fill="#F9C93E"/>
<rect x="10" y="12.0001" width="1" height="1" fill="#F9C93E"/>
<rect x="10" y="14.0001" width="1" height="1" fill="#F9C93E"/>
<rect x="10" y="15.0001" width="1" height="1" fill="#F9C93E"/>
<rect x="11" y="11.0001" width="1" height="1" fill="#F9C93E"/>
<rect x="4" y="10.0001" width="1" height="1" fill="#F9C93E"/>
<rect x="5" y="11.0001" width="1" height="1" fill="#F9C93E"/>
<rect x="17" y="11.0001" width="1" height="1" fill="#F9C93E"/>
<rect x="16" y="13.0001" width="1" height="1" fill="#F9C93E"/>
<rect x="16" y="10.0001" width="1" height="1" fill="#F9C93E"/>
<rect x="12" y="11.0001" width="1" height="1" fill="#F9C93E"/>
<rect x="16" y="12.0001" width="1" height="1" fill="#F9C93E"/>
<rect x="16" y="14.0001" width="1" height="1" fill="#F9C93E"/>
<rect x="16" y="15.0001" width="1" height="1" fill="#F9C93E"/>
<rect x="11" y="13.0001" width="1" height="1" fill="#F9C93E"/>
<rect x="6" y="11.0001" width="1" height="1" fill="#F9C93E"/>
<rect x="11" y="10.0001" width="1" height="1" fill="#F9C93E"/>
<rect x="18" y="11.0001" width="1" height="1" fill="#F9C93E"/>
<rect x="11" y="12.0001" width="1" height="1" fill="#F9C93E"/>
<rect x="11" y="14.0001" width="1" height="1" fill="#F9C93E"/>
<rect x="11" y="15.0001" width="1" height="1" fill="#F9C93E"/>
<rect x="13" y="11.0001" width="1" height="1" fill="#F9C93E"/>
<rect x="5" y="10.0001" width="1" height="1" fill="#F9C93E"/>
<rect x="7" y="11.0001" width="1" height="1" fill="#F9C93E"/>
<rect x="17" y="13.0001" width="1" height="1" fill="#F9C93E"/>
<rect x="5" y="12.0001" width="1" height="1" fill="#F9C93E"/>
<rect x="19" y="11.0001" width="1" height="1" fill="#F9C93E"/>
<rect x="17" y="10.0001" width="1" height="1" fill="#F9C93E"/>
<rect x="12" y="13.0001" width="1" height="1" fill="#F9C93E"/>
<rect x="14" y="11.0001" width="1" height="1" fill="#F9C93E"/>
<rect x="17" y="12.0001" width="1" height="1" fill="#F9C93E"/>
<rect x="17" y="14.0001" width="1" height="1" fill="#F9C93E"/>
<rect x="17" y="15.0001" width="1" height="1" fill="#F9C93E"/>
<rect x="18" y="15.0001" width="1" height="1" fill="#F9C93E"/>
<rect x="8" y="11.0001" width="1" height="1" fill="#F9C93E"/>
<rect x="12" y="10.0001" width="1" height="1" fill="#F9C93E"/>
<rect x="12" y="12.0001" width="1" height="1" fill="#F9C93E"/>
<rect x="13" y="13.0001" width="1" height="1" fill="#F9C93E"/>
<rect x="12" y="14.0001" width="1" height="1" fill="#F9C93E"/>
<rect x="12" y="15.0001" width="1" height="1" fill="#F9C93E"/>
<rect x="6" y="10.0001" width="1" height="1" fill="#F9C93E"/>
<rect x="7" y="13.0001" width="1" height="1" fill="#F9C93E"/>
<rect x="6" y="12.0001" width="1" height="1" fill="#F9C93E"/>
<rect x="6" y="13.0001" width="1" height="1" fill="#F9C93E"/>
<rect x="18" y="10.0001" width="1" height="1" fill="#F9C93E"/>
<rect x="14" y="13.0001" width="1" height="1" fill="#F9C93E"/>
<rect x="18" y="12.0001" width="1" height="1" fill="#F9C93E"/>
<rect x="13" y="10.0001" width="1" height="1" fill="#F9C93E"/>
<rect x="8" y="13.0001" width="1" height="1" fill="#F9C93E"/>
<rect x="13" y="12.0001" width="1" height="1" fill="#F9C93E"/>
<rect x="13" y="14.0001" width="1" height="1" fill="#F9C93E"/>
<rect x="13" y="15.0001" width="1" height="1" fill="#F9C93E"/>
<rect x="7" y="10.0001" width="1" height="1" fill="#F9C93E"/>
<rect x="7" y="12.0001" width="1" height="1" fill="#F9C93E"/>
<rect x="7" y="14.0001" width="1" height="1" fill="#F9C93E"/>
<rect x="6" y="17.0001" width="1" height="1" fill="#F9C93E"/>
<rect x="6" y="18.0001" width="1" height="1" fill="#F9C93E"/>
<rect x="6" y="19.0001" width="1" height="1" fill="#F9C93E"/>
<rect x="6" y="20" width="1" height="1" fill="#F9C93E"/>
<rect x="17" y="19.0001" width="1" height="1" fill="#F9C93E"/>
<rect x="7" y="15.0001" width="1" height="1" fill="#F9C93E"/>
<rect x="16" y="18.0001" width="1" height="1" fill="#F9C93E"/>
<rect x="7" y="16.0001" width="1" height="1" fill="#F9C93E"/>
<rect x="5" y="19.0001" width="1" height="1" fill="#F9C93E"/>
<rect x="5" y="17.0001" width="1" height="1" fill="#F9C93E"/>
<rect x="5" y="20" width="1" height="1" fill="#F9C93E"/>
<rect x="5" y="18.0001" width="1" height="1" fill="#F9C93E"/>
<rect x="16" y="19.0001" width="1" height="1" fill="#F9C93E"/>
<rect x="16" y="17.0001" width="1" height="1" fill="#F9C93E"/>
<rect x="15" y="16.0001" width="1" height="1" fill="#F9C93E"/>
<rect x="15" y="18.0001" width="1" height="1" fill="#F9C93E"/>
<rect x="6" y="15.0001" width="1" height="1" fill="#F9C93E"/>
<rect x="6" y="16.0001" width="1" height="1" fill="#F9C93E"/>
<rect x="15" y="17.0001" width="1" height="1" fill="#F9C93E"/>
<rect x="14" y="16.0001" width="1" height="1" fill="#F9C93E"/>
<rect x="19" y="10.0001" width="1" height="1" fill="#F9C93E"/>
<rect x="14" y="10.0001" width="1" height="1" fill="#F9C93E"/>
<rect x="14" y="12.0001" width="1" height="1" fill="#F9C93E"/>
<rect x="14" y="14.0001" width="1" height="1" fill="#F9C93E"/>
<rect x="7" y="19.0001" width="1" height="1" fill="#F9C93E"/>
<rect x="7" y="17.0001" width="1" height="1" fill="#F9C93E"/>
<rect x="7" y="18.0001" width="1" height="1" fill="#F9C93E"/>
<rect x="18" y="19.0001" width="1" height="1" fill="#F9C93E"/>
<rect x="18" y="20" width="1" height="1" fill="#F9C93E"/>
<rect x="14" y="15.0001" width="1" height="1" fill="#F9C93E"/>
<rect x="8" y="10.0001" width="1" height="1" fill="#F9C93E"/>
<rect x="8" y="12.0001" width="1" height="1" fill="#F9C93E"/>
<rect x="17" y="18.0001" width="1" height="1" fill="#F9C93E"/>
<rect x="8" y="14.0001" width="1" height="1" fill="#F9C93E"/>
<rect x="8" y="15.0001" width="1" height="1" fill="#F9C93E"/>
<rect x="8" y="16.0001" width="1" height="1" fill="#F9C93E"/>
<rect x="17" y="17.0001" width="1" height="1" fill="#F9C93E"/>
<rect x="16" y="16.0001" width="1" height="1" fill="#F9C93E"/>
<rect x="20" y="9" width="1" height="1" fill="#F9C93E"/>
<rect x="10" y="6.00006" width="1" height="1" fill="#F9C93E"/>
<rect x="10" y="5.00012" width="1" height="1" fill="#F9C93E"/>
<rect x="10" y="4.00006" width="1" height="1" fill="#F9C93E"/>
<rect x="11" y="6.00006" width="1" height="1" fill="#F9C93E"/>
<rect x="11" y="5.00012" width="1" height="1" fill="#F9C93E"/>
<rect x="11" y="4.00006" width="1" height="1" fill="#F9C93E"/>
<rect x="11" y="3.00006" width="1" height="1" fill="#F9C93E"/>
<rect x="12" y="6.00006" width="1" height="1" fill="#F9C93E"/>
<rect x="12" y="5.00012" width="1" height="1" fill="#F9C93E"/>
<rect x="12" y="4.00006" width="1" height="1" fill="#F9C93E"/>
<rect x="12" y="3.00006" width="1" height="1" fill="#F9C93E"/>
<rect x="13" y="6.00006" width="1" height="1" fill="#F9C93E"/>
<rect x="13" y="5.00012" width="1" height="1" fill="#F9C93E"/>
<rect x="13" y="4.00006" width="1" height="1" fill="#F9C93E"/>
<rect x="14" y="6.00006" width="1" height="1" fill="#F9C93E"/>
<rect x="14" y="5.00012" width="1" height="1" fill="#F9C93E"/>
<rect x="6" y="19.9999" width="1" height="1" fill="black"/>
<rect x="7" y="18.9999" width="1" height="1" fill="black"/>
<rect x="16" y="18.9999" width="1" height="1" fill="black"/>
<rect x="8" y="17.9999" width="1" height="1" fill="black"/>
<rect x="15" y="17.9999" width="1" height="1" fill="black"/>
<rect x="9" y="16.9999" width="1" height="1" fill="black"/>
<rect x="14" y="16.9999" width="1" height="1" fill="black"/>
<rect x="10" y="15.9999" width="1" height="1" fill="black"/>
<rect x="13" y="15.9999" width="1" height="1" fill="black"/>
<rect x="11" y="14.9999" width="1" height="1" fill="black"/>
<rect x="5" y="20.9999" width="1" height="1" fill="black"/>
<rect x="4" y="18.9999" width="1" height="1" fill="black"/>
<rect x="4" y="17.9999" width="1" height="1" fill="black"/>
<rect x="4" y="10.9999" width="1" height="1" fill="black"/>
<rect x="5" y="12" width="1" height="1" fill="black"/>
<rect width="1" height="1" transform="matrix(1 0 0 -1 13 3.99994)" fill="black"/>
<rect width="1" height="1" transform="matrix(1 0 0 -1 13 5)" fill="black"/>
<rect width="1" height="1" transform="matrix(1 0 0 -1 14 5.99994)" fill="black"/>
<rect width="1" height="1" transform="matrix(1 0 0 -1 14 6.99994)" fill="black"/>
<rect width="1" height="1" transform="matrix(1 0 0 -1 15 7.99994)" fill="black"/>
<rect width="1" height="1" transform="matrix(1 0 0 -1 15 8.99994)" fill="black"/>
<rect width="1" height="1" transform="matrix(1 0 0 -1 16 8.99994)" fill="black"/>
<rect width="1" height="1" transform="matrix(1 0 0 -1 17 8.99994)" fill="black"/>
<rect width="1" height="1" transform="matrix(1 0 0 -1 18 8.99994)" fill="black"/>
<rect width="1" height="1" transform="matrix(1 0 0 -1 19 8.99994)" fill="black"/>
<rect width="1" height="1" transform="matrix(1 0 0 -1 20 8.99994)" fill="black"/>
<rect width="1" height="1" transform="matrix(1 0 0 -1 21 9.99994)" fill="black"/>
<rect width="1" height="1" transform="matrix(1 0 0 -1 20 10.9999)" fill="black"/>
<rect width="1" height="1" transform="matrix(1 0 0 -1 19 12)" fill="black"/>
<rect width="1" height="1" transform="matrix(1 0 0 -1 18 12.9999)" fill="black"/>
<rect x="3" y="9.99994" width="1" height="1" fill="black"/>
<rect x="2" y="8.99994" width="1" height="1" fill="black"/>
<rect x="12" y="14.9999" width="1" height="1" fill="black"/>
<rect x="17" y="19.9999" width="1" height="1" fill="black"/>
<rect x="18" y="20.9999" width="1" height="1" fill="black"/>
<rect x="4" y="18.9999" width="1" height="1" fill="black"/>
<rect x="4" y="18.9999" width="1" height="2" fill="black"/>
<rect x="4" y="17.9999" width="1" height="1" fill="black"/>
<rect x="4" y="16.9999" width="1" height="1" fill="black"/>
<rect x="19" y="18.9999" width="1" height="2" fill="black"/>
<rect x="19" y="17.9999" width="1" height="1" fill="black"/>
<rect x="19" y="16.9999" width="1" height="1" fill="black"/>
<rect x="5" y="15.9999" width="1" height="1" fill="black"/>
<rect x="18" y="15.9999" width="1" height="1" fill="black"/>
<rect x="17" y="13.9999" width="1" height="1" fill="black"/>
<rect x="6" y="12.9999" width="1" height="2" fill="black"/>
<rect x="18" y="14.9999" width="1" height="1" fill="black"/>
<rect x="5" y="14.9999" width="1" height="1" fill="black"/>
<rect x="17" y="12.9999" width="1" height="1" fill="black"/>
<rect x="3" y="7.99994" width="1" height="1" fill="black"/>
<rect x="4" y="7.99994" width="1" height="1" fill="black"/>
<rect x="5" y="7.99994" width="1" height="1" fill="black"/>
<rect x="6" y="7.99994" width="1" height="1" fill="black"/>
<rect x="7" y="7.99994" width="1" height="1" fill="black"/>
<rect x="8" y="7.99994" width="1" height="1" fill="black"/>
<rect x="8" y="7.99994" width="1" height="1" fill="black"/>
<rect x="8" y="6.99994" width="1" height="1" fill="black"/>
<rect x="9" y="5.99994" width="1" height="1" fill="black"/>
<rect x="10" y="3.99994" width="1" height="1" fill="black"/>
<rect x="11" y="1.99994" width="1" height="1" fill="black"/>
<rect x="12" y="1.99994" width="1" height="1" fill="black"/>
<rect x="9" y="5" width="1" height="1" fill="black"/>
<rect x="10" y="2.99988" width="1" height="1" fill="black"/>
<path d="M11 3.00006H12V4.00006H11V3.00006Z" fill="#F9DD8C"/>
<path d="M11 4.00006H12V5.00006H11V4.00006Z" fill="#F9DD8C"/>
<path d="M10 5.00012H11V6.00012H10V5.00012Z" fill="#F9DD8C"/>
<path d="M10 6.00006H11V7.00006H10V6.00006Z" fill="#F9DD8C"/>
<path d="M10 7.00006H11V8.00006H10V7.00006Z" fill="#F9DD8C"/>
<path d="M9 7.00006H10V8.00006H9V7.00006Z" fill="#F9DD8C"/>
<path d="M9 8.00006H10V9.00006H9V8.00006Z" fill="#F9DD8C"/>
<path d="M9 9H10V10H9V9Z" fill="#F9DD8C"/>
<path d="M8 9H9V10H8V9Z" fill="#F9DD8C"/>
<path d="M7 9H8V10H7V9Z" fill="#F9DD8C"/>
<path d="M6 9H7V10H6V9Z" fill="#F9DD8C"/>
<path d="M5 9H6V10H5V9Z" fill="#F9DD8C"/>
<path d="M4 9H5V10H4V9Z" fill="#F9DD8C"/>
<path d="M4 10.0001H5V11.0001H4V10.0001Z" fill="#F9DD8C"/>
<path d="M5 11.0001H6V12.0001H5V11.0001Z" fill="#F9DD8C"/>
<path d="M6 12.0001H7V13.0001H6V12.0001Z" fill="#F9DD8C"/>
<path d="M7 13.0001H8V14.0001H7V13.0001Z" fill="#F9DD8C"/>
<path d="M7 14.0001H8V15.0001H7V14.0001Z" fill="#F9DD8C"/>
<path d="M6 15.0001H7V16.0001H6V15.0001Z" fill="#F9DD8C"/>
<path d="M6 16.0001H7V17.0001H6V16.0001Z" fill="#F9DD8C"/>
<path d="M5 17.0001H6V18.0001H5V17.0001Z" fill="#F9DD8C"/>
<path d="M5 18.0001H6V19.0001H5V18.0001Z" fill="#F9DD8C"/>
<path d="M5 19.0001H6V20.0001H5V19.0001Z" fill="#F9DD8C"/>
<path d="M5 20H6V21H5V20Z" fill="#F9DD8C"/>
<path d="M13 15.0001H14V16.0001H13V15.0001Z" fill="#F9DD8C"/>
<path d="M14 16.0001H15V17.0001H14V16.0001Z" fill="#F9DD8C"/>
<path d="M15 17.0001H16V18.0001H15V17.0001Z" fill="#F9DD8C"/>
<path d="M16 18.0001H17V19.0001H16V18.0001Z" fill="#F9DD8C"/>
<path d="M17 19.0001H18V20.0001H17V19.0001Z" fill="#F9DD8C"/>
<path d="M18 20H19V21H18V20Z" fill="#F9DD8C"/>
<path d="M3 9H4V10H3V9Z" fill="#F9DD8C"/>
</svg>
